<svg xmlns="http://www.w3.org/2000/svg" xml:space="preserve" width="780" height="500"><path fill="#2557D6" d="m575.6 145.1-15 35h30.2l-15.2-35zm-174.1 21.7c2.8-1.4 4.5-4.5 4.5-8.3 0-3.8-1.8-6.5-4.6-7.8a23.4 23.4 0 0 0-10.4-1.6h-27v19.5h26.6c4.3 0 7.8 0 10.9-1.8zm-346-21.7-15 35h30l-15-35zm694.7 224.5h-42.4v-18.9H750c4.2 0 7.1-.5 8.9-2.1a7.6 7.6 0 0 0 2.6-5.8 7 7 0 0 0-2.7-5.8c-1.6-1.3-3.9-2-7.7-2-20.6-.6-46.3.7-46.3-27.2 0-12.7 8.5-26.1 31.5-26.1h43.6v-17.5h-40.5a47.2 47.2 0 0 0-27.5 7.2v-7.2h-60c-9.6 0-20.9 2.3-26.2 7.2v-7.2H518.5v7.2a59 59 0 0 0-29.5-7.2h-70.8v7.2c-6.7-6.3-21.7-7.2-30.9-7.2h-79L290 283l-17-18.8H155v122.7h116l18.6-19.1 17.6 19 71.4.1v-28.8h7c9.6.1 20.7-.3 30.6-4.4V387h59v-32h2.8c3.6 0 4 .1 4 3.6v28.3h179.1c11.4 0 23.3-2.7 29.9-7.8v7.8h56.8a79 79 0 0 0 32.1-5.6v-22.9c-5.3 7.5-15.7 11.3-29.7 11.3zm-363.6-29h-27.3v29.5h-42.7l-27-29.1-28 29.1h-86.9v-88H263l27 29 27.9-29h70c17.4 0 37 4.7 37 29 0 24.5-19 29.5-38.2 29.5zm131.6-4c3 4.3 3.5 8.3 3.6 16v17.5h-22v-11c0-5.3.5-13.1-3.6-17.2-3.2-3.2-8-3.9-16-3.9h-23.5v32.1h-22v-88h50.6c11.1 0 19.2.6 26.4 4.2 7 4 11.3 9.5 11.3 19.6 0 14-9.8 21.1-15.6 23.3 5 1.8 8.9 4.9 10.8 7.4zm90.5-36.2h-51.3v16h50v17.9h-50v17.5h51.3v18.3h-73.1v-88h73.1v18.3zm56.4 69.7h-42.7v-18.9h42.5c4.2 0 7.1-.5 9-2.1a7.7 7.7 0 0 0-.1-11.6c-1.7-1.3-4-2-7.8-2-20.5-.6-46.2.7-46.2-27.1 0-12.8 8.4-26.2 31.3-26.2h44v18.7H655c-4 0-6.6.1-8.8 1.6-2.4 1.4-3.3 3.5-3.3 6.3 0 3.3 2 5.6 4.8 6.6 2.3.7 4.8 1 8.5 1l11.8.3c12 .2 20.1 2.2 25 7 4.3 4.3 6.6 9.6 6.6 18.7 0 18.9-12.3 27.7-34.4 27.7zm-170-68.3a22.4 22.4 0 0 0-10.5-1.6h-27v19.7h26.6c4.3 0 7.9-.1 10.8-1.8 2.9-1.6 4.6-4.6 4.6-8.4s-1.7-6.5-4.6-8zm245-1.6c-4 0-6.7.1-9 1.6-2.3 1.4-3.2 3.5-3.2 6.3 0 3.3 2 5.6 4.8 6.6 2.4.7 4.8 1 8.5 1l11.9.3c12 .2 20 2.2 24.9 7 .8.7 1.4 1.5 2 2.2v-25h-40zm-352.7 0h-28.6v22.4H387c8.4 0 13.7-4 13.7-11.6 0-7.7-5.5-10.8-13.4-10.8zm-190.8 0v16h48.1v18h-48.1v17.4h53.9l25-25.8-24-25.6h-55zm140.7 61.5v-70.5l-33.6 34.7 33.6 35.8zM198.4 220.5v15.2h183.2l-.1-32h3.5c2.5 0 3.3.2 3.3 4.2v27.8H483v-7.5c7.6 4 19.5 7.5 35.2 7.5H558l8.6-19.5h18.9l8.3 19.5h76.8V217l11.7 18.6h61.5V113H683v14.5l-8.5-14.5h-62.5v14.5L604 113h-84.4a78.6 78.6 0 0 0-36.6 7.2V113h-58.3v7.2c-6.4-5.5-15-7.2-24.7-7.2H187l-14.3 31.7-14.6-31.7H91v14.5L83.7 113H26.6L0 171.4V218l39.3-87.9h32.5l37.3 83.2v-83.2H145l28.7 59.6 26.4-59.6h36.5V218H214v-68.8L182 218H163L131 149.1V218H86.4L78 198.4H32.3L23.8 218H0v17.7h37.5l8.4-19.5h19l8.4 19.5H147v-15l6.5 15h38.3l6.6-15.2zm288.7-80.1c7-7 18.2-10.3 33.3-10.3h21.2v18.8h-20.8c-8 0-12.5 1.2-16.9 5.2-3.7 3.7-6.3 10.7-6.3 20 0 9.4 2 16.2 6 20.6 3.4 3.5 9.6 4.5 15.3 4.5h9.9l30.9-69.1h32.9l37 83.1v-83.1h33.5l38.5 61.2v-61.2h22.5V218H693l-41.6-66v66h-44.6l-8.6-19.6h-45.5l-8.3 19.6h-25.6c-10.7 0-24.2-2.3-31.8-9.7-7.7-7.5-11.7-17.6-11.7-33.6 0-13 2.3-25 11.8-34.3zM442 130h22.3V218H442v-87.9zm-100.9 0h50.4c11.2 0 19.5.3 26.6 4.2 7 4 11 9.7 11 19.5 0 14-9.7 21.2-15.4 23.4 4.8 1.8 9 4.8 10.9 7.4 3 4.4 3.6 8.3 3.6 16.1V218h-22.1v-11c0-5.4.4-13-3.6-17.2-3.2-3.1-8-3.8-16-3.8H363v32h-21.9v-87.9zm-88.4 0H326v18.3h-51.4v15.8h50.1v18h-50v17.6H326V218h-73.3V130z"/></svg>