<svg xmlns="http://www.w3.org/2000/svg" width="256" height="256" fill="currentColor"><path d="M240 112h-10.8l-27.78-62.5A15.998 15.998 0 0 0 186.8 40H69.2a16 16 0 0 0-14.62 9.5L26.8 112H16a8.001 8.001 0 0 0-5.657 13.657A8.001 8.001 0 0 0 16 128h8v80a16.002 16.002 0 0 0 16 16h24a16.002 16.002 0 0 0 16-16v-16h96v16c0 4.243 1.686 8.313 4.686 11.314 3.001 3 7.071 4.686 11.314 4.686h24c4.243 0 8.313-1.686 11.314-4.686 3-3.001 4.686-7.071 4.686-11.314v-80h8a8 8 0 1 0 0-16ZM69.2 56h117.6l24.89 56H44.31L69.2 56ZM64 208H40v-16h24v16Zm128 0v-16h24v16h-24Zm24-32H40v-48h176v48ZM56 152a8 8 0 0 1 8-8h16a8.001 8.001 0 0 1 5.657 13.657A8.001 8.001 0 0 1 80 160H64a8.001 8.001 0 0 1-8-8Zm112 0a8 8 0 0 1 8-8h16a8 8 0 1 1 0 16h-16a8 8 0 0 1-8-8Z"/></svg>