<svg xmlns="http://www.w3.org/2000/svg" width="41" height="41" fill="none"><path fill="#ADA690" fill-rule="evenodd" d="M17.625 1.223V0l-1.198.243C7.055 2.142 0 10.41 0 20.328c0 11.316 9.172 20.488 20.488 20.488 11.316 0 20.487-9.172 20.487-20.488 0-3.615-.945-7.011-2.59-9.968l-.496-.892-.881.514c-.896.522-2.103.846-3.252.846h-.248c-2.433 0-4.204-1.43-5.188-3.658l-.458-1.037-.972.585a6.052 6.052 0 0 1-3.13.864 6.141 6.141 0 0 1-6.14-6.192v-.005c.002-.034.005-.095.005-.162ZM2 20.328C2 11.79 7.798 4.6 15.682 2.472a8.142 8.142 0 0 0 11.286 6.45c1.325 2.294 3.542 3.906 6.54 3.906h.248c1.124 0 2.291-.234 3.32-.657a18.424 18.424 0 0 1 1.9 8.157c0 10.211-8.277 18.488-18.488 18.488C10.276 38.816 2 30.538 2 20.328Zm11.122 8.25a2.28 2.28 0 1 1 4.56 0 2.28 2.28 0 0 1-4.56 0Zm2.28-4.279a4.28 4.28 0 1 0 0 8.56 4.28 4.28 0 0 0 0-8.56Zm-2.05-11.652a2.28 2.28 0 1 0 0 4.56 2.28 2.28 0 0 0 0-4.56Zm-4.28 2.28a4.28 4.28 0 1 1 8.56 0 4.28 4.28 0 0 1-8.56 0Zm15.888 7.135a2.472 2.472 0 1 1 4.944 0 2.472 2.472 0 0 1-4.944 0Zm2.472-4.472a4.472 4.472 0 1 0 0 8.944 4.472 4.472 0 0 0 0-8.944Z" clip-rule="evenodd"/></svg>