<svg xmlns="http://www.w3.org/2000/svg" xml:space="preserve" width="780" height="500"><path fill="#F47216" d="M409.4 197.3c31 0 56 23.5 56 52.7 0 29.1-25 52.7-56 52.7s-56-23.6-56-52.7c0-29.2 25-52.7 56-52.7z"/><path d="M321.4 198c8.9 0 16.3 1.7 25.3 6v22.8a35.4 35.4 0 0 0-25.8-11.2 34 34 0 0 0-34.4 34c0 20.2 14.7 34.3 35.4 34.3 9.3 0 16.6-3.1 24.8-10.9v22.8c-9.3 4.1-17 5.8-25.8 5.8-31.2 0-55.5-22.6-55.5-51.8 0-28.8 25-51.9 56-51.9zm-97 .6c11.5 0 22 3.7 30.9 11l-10.8 13.2c-5.3-5.6-10.4-8-16.6-8-8.8 0-15.3 4.7-15.3 11 0 5.3 3.7 8.2 16 12.4 23.4 8 30.3 15.2 30.3 31 0 19.2-15 32.5-36.3 32.5-15.7 0-27-5.8-36.5-18.8l13.3-12a24.5 24.5 0 0 0 22.4 13.2c9.2 0 16-6 16-14 0-4.2-2.1-7.8-6.2-10.3-2-1.2-6.2-3-14.2-5.6-19.3-6.6-26-13.6-26-27.2 0-16.2 14.3-28.4 33-28.4zm234.6 1.7h22.5l28 66.6 28.5-66.6h22.3L514.8 302h-11L459 200.3zm-301.2.1h20.6v99.2h-20.6v-99.2zm411.8 0h58.2v16.8h-37.7v22h36.3V256h-36.3v26.8h37.7v16.8h-58.2v-99.2zM685 257.8c15.5-3 24-12.9 24-28 0-18.6-13.5-29.4-37.2-29.4h-30.5v99.2H662v-39.8h2.7l28.4 39.8h25.3l-33.2-41.8zM668 246.1h-6v-30h6.4c12.7 0 19.7 5 19.7 14.7 0 10-7 15.3-20 15.3zM92 200.4H61.6v99.2h30a57 57 0 0 0 37.6-11.5 48.7 48.7 0 0 0 19-38c0-29.3-23.1-49.7-56.5-49.7zm24 74.5c-6.5 5.5-14.9 8-28.2 8h-5.5v-65.7h5.5c13.3 0 21.4 2.3 28.1 8 7.1 6 11.4 15.2 11.4 24.7 0 9.6-4.3 19-11.4 25z"/></svg>