<svg xmlns="http://www.w3.org/2000/svg" width="24" height="24" fill="none"><path fill="#F0384A" d="M21.31 7.519 16.48 2.69a1.51 1.51 0 0 0-1.06-.441H8.579a1.51 1.51 0 0 0-1.06.44L2.692 7.52a1.51 1.51 0 0 0-.441 1.06v6.843c.002.397.16.778.44 1.06l4.829 4.827c.281.281.662.44 1.06.441h6.843a1.51 1.51 0 0 0 1.06-.44l4.827-4.829a1.51 1.51 0 0 0 .441-1.06V8.579a1.51 1.51 0 0 0-.44-1.06ZM11.25 7.5a.75.75 0 1 1 1.5 0v5.25a.75.75 0 1 1-1.5 0V7.5Zm.75 9.75A1.125 1.125 0 1 1 12 15a1.125 1.125 0 0 1 0 2.25Z"/></svg>