<svg xmlns="http://www.w3.org/2000/svg" width="16" height="16" fill="none"><path stroke="#171717" stroke-linecap="square" stroke-linejoin="round" d="M8 14A6 6 0 1 0 8 2a6 6 0 0 0 0 12Z"/><path stroke="#000" stroke-linecap="square" stroke-linejoin="round" stroke-opacity=".2" d="M8 14A6 6 0 1 0 8 2a6 6 0 0 0 0 12Z"/><path stroke="#000" stroke-linecap="square" stroke-linejoin="round" stroke-opacity=".2" d="M8 14A6 6 0 1 0 8 2a6 6 0 0 0 0 12Z"/><path stroke="#000" stroke-linecap="square" stroke-linejoin="round" stroke-opacity=".2" d="M8 14A6 6 0 1 0 8 2a6 6 0 0 0 0 12Z"/><path stroke="#000" stroke-linecap="square" stroke-linejoin="round" stroke-opacity=".2" d="M8 14A6 6 0 1 0 8 2a6 6 0 0 0 0 12Z"/><path stroke="#000" stroke-linecap="square" stroke-linejoin="round" stroke-opacity=".2" d="M8 14A6 6 0 1 0 8 2a6 6 0 0 0 0 12Z"/><path stroke="#171717" stroke-linecap="round" stroke-linejoin="round" d="M10.5 5.5h-1A1.494 1.494 0 0 0 8 7v7"/><path stroke="#000" stroke-linecap="round" stroke-linejoin="round" stroke-opacity=".2" d="M10.5 5.5h-1A1.494 1.494 0 0 0 8 7v7"/><path stroke="#000" stroke-linecap="round" stroke-linejoin="round" stroke-opacity=".2" d="M10.5 5.5h-1A1.494 1.494 0 0 0 8 7v7"/><path stroke="#000" stroke-linecap="round" stroke-linejoin="round" stroke-opacity=".2" d="M10.5 5.5h-1A1.494 1.494 0 0 0 8 7v7"/><path stroke="#000" stroke-linecap="round" stroke-linejoin="round" stroke-opacity=".2" d="M10.5 5.5h-1A1.494 1.494 0 0 0 8 7v7"/><path stroke="#000" stroke-linecap="round" stroke-linejoin="round" stroke-opacity=".2" d="M10.5 5.5h-1A1.494 1.494 0 0 0 8 7v7"/><path stroke="#000" stroke-linecap="round" stroke-linejoin="round" d="M6 9h4"/></svg>