<?xml version="1.0" encoding="UTF-8" standalone="no"?>
<svg
   width="22"
   height="24"
   fill="currentColor"
   viewBox="0 0 176 192"
   version="1.1"
   id="svg1"
   sodipodi:docname="filled_pause.svg"
   inkscape:version="1.4 (86a8ad7, 2024-10-11)"
   xmlns:inkscape="http://www.inkscape.org/namespaces/inkscape"
   xmlns:sodipodi="http://sodipodi.sourceforge.net/DTD/sodipodi-0.dtd"
   xmlns="http://www.w3.org/2000/svg"
   xmlns:svg="http://www.w3.org/2000/svg">
  <defs
     id="defs1" />
  <sodipodi:namedview
     id="namedview1"
     pagecolor="currentColor"
     bordercolor="currentColor"
     borderopacity="0.25"
     inkscape:showpageshadow="2"
     inkscape:pageopacity="0.0"
     inkscape:pagecheckerboard="0"
     inkscape:deskcolor="currentColor"
     inkscape:zoom="24.15625"
     inkscape:cx="10.990944"
     inkscape:cy="11.984476"
     inkscape:window-width="1920"
     inkscape:window-height="991"
     inkscape:window-x="-9"
     inkscape:window-y="1341"
     inkscape:window-maximized="1"
     inkscape:current-layer="svg1" />
  <path
     d="m 176,16 v 160 a 16,16 0 0 1 -16,16 H 120 A 16,16 0 0 1 104,176 V 16 A 16,16 0 0 1 120,0 h 40 a 16,16 0 0 1 16,16 z M 56,0 H 16 A 16,16 0 0 0 0,16 v 160 a 16,16 0 0 0 16,16 H 56 A 16,16 0 0 0 72,176 V 16 A 16,16 0 0 0 56,0 Z"
     id="path1" />
</svg>
