<svg xmlns="http://www.w3.org/2000/svg" width="256" height="256" fill="currentColor"><path d="M128 80a47.996 47.996 0 0 0-44.346 29.631A48 48 0 1 0 176 128a48.05 48.05 0 0 0-48-48Zm0 80a32 32 0 1 1 0-64 32 32 0 0 1 0 64Zm109.94-52.79a8.012 8.012 0 0 0-3.89-5.4l-29.83-17-.12-33.62a8.001 8.001 0 0 0-2.83-6.08 111.918 111.918 0 0 0-36.72-20.67 8.001 8.001 0 0 0-6.46.59L128 41.85 97.88 25a8 8 0 0 0-6.47-.6 112.102 112.102 0 0 0-36.68 20.75 8 8 0 0 0-2.83 6.07l-.15 33.65-29.83 17a8.006 8.006 0 0 0-3.89 5.4 106.468 106.468 0 0 0 0 41.56 7.998 7.998 0 0 0 3.89 5.4l29.83 17 .12 33.62a8.002 8.002 0 0 0 2.83 6.08 111.916 111.916 0 0 0 36.72 20.67 7.997 7.997 0 0 0 6.46-.59L128 214.15 158.12 231a7.906 7.906 0 0 0 3.9 1c.874 0 1.742-.142 2.57-.42a112.099 112.099 0 0 0 36.68-20.73 8.015 8.015 0 0 0 2.081-2.724 8.01 8.01 0 0 0 .749-3.346l.15-33.65 29.83-17a7.991 7.991 0 0 0 3.89-5.4 106.46 106.46 0 0 0-.03-41.52Zm-15 34.91-28.57 16.25a8 8 0 0 0-3 3c-.58 1-1.19 2.06-1.81 3.06a7.94 7.94 0 0 0-1.22 4.21l-.15 32.25a95.874 95.874 0 0 1-25.37 14.3L134 199.13a8.006 8.006 0 0 0-3.91-1h-3.83a8.075 8.075 0 0 0-4.1 1l-28.84 16.1A95.999 95.999 0 0 1 67.88 201l-.11-32.2a8 8 0 0 0-1.22-4.22c-.62-1-1.23-2-1.8-3.06a8.093 8.093 0 0 0-3-3.06l-28.6-16.29a90.485 90.485 0 0 1 0-28.26l28.52-16.28a7.999 7.999 0 0 0 3-3c.58-1 1.19-2.06 1.81-3.06a7.94 7.94 0 0 0 1.22-4.21l.15-32.25a95.892 95.892 0 0 1 25.37-14.3L122 56.87a7.997 7.997 0 0 0 4.1 1h3.64a8.08 8.08 0 0 0 4.1-1l28.84-16.1A95.997 95.997 0 0 1 188.12 55l.11 32.2a7.995 7.995 0 0 0 1.22 4.22c.62 1 1.23 2 1.8 3.06a8.09 8.09 0 0 0 3 3.06l28.6 16.29a90.47 90.47 0 0 1 .05 28.29h.04Z"/></svg>