<svg xmlns="http://www.w3.org/2000/svg" xml:space="preserve" width="780" height="500"><path fill="none" d="M725 0H55A55 55 0 0 0 0 55v391a55 55 0 0 0 55 55h670a55 55 0 0 0 55-55V55a55 55 0 0 0-55-55z"/><path fill="#B3131B" d="M223 201.4h2.2l1.6-.5 1.7-.6 1.5-1.5 1.5-1.5.7-2 .8-2v-6l-.6-1-.7-1.2-1.2-.8-1.2-.7H224l-1.8.8-1.8.8-1 1-1 1.2-.9 1.9-.8 1.9-.1 3-.2 3 .8 1.4.7 1.5 1.5.7 1.4.6h2.2zM558.7 286h7.6v-4.6l.8-5.7a1057.3 1057.3 0 0 1 4.7-27.3 81.5 81.5 0 0 1 3.5-11.9l1.5-3 1.8-2.5 2-2.5 2-1.5c1.1-.9 3-2 4-2.6l2-1 4.4.1h4.3l1.7.6 1.7.5.3-.1.3-.2v-1.1l.8-5 .8-4-.9-.3-2.6-1-1.7-.5h-6.2l-2.6 1-2.6.8-1.9 1.2-1.9 1.1-2.5 2.6-2.5 2.6-1.3 2-1.4 2c0-.1.3-2.4.9-5.2l1-5.8v-.8h-12.9v.2l-.7 5a1421 1421 0 0 1-9.7 55.3l-1.6 8.4-.7 3.2h7.6zm-175.8 0h7.4l.3-3c0-1.8.5-5.3.9-7.8a2135.4 2135.4 0 0 1 4.2-24.6 113 113 0 0 1 2.4-10.2 44.1 44.1 0 0 1 4-8.2l1.6-2.3 2.1-2 2.1-2 2.7-1.2 2.6-1.3h8l1.9.7 2.2.6s.2-.4.2-.9l.8-5 .9-4.5a32 32 0 0 0-6.8-2l-1.7-.2-2.2.4c-1.3.2-3.1.7-4.1 1a23.2 23.2 0 0 0-7.3 4.8 40.6 40.6 0 0 0-5.8 7.2l-.5.7.3-1.4a207.7 207.7 0 0 0 2-10.3l.1-.6H388v.8l-.8 6.2a2709 2709 0 0 0-3.7 22.7 602.2 602.2 0 0 1-6 31.7 1503.9 1503.9 0 0 1-2 10.4v.3h7.4zm-174.4 0h7.4l.2-.5a103.7 103.7 0 0 1 1.3-9.4 3084.3 3084.3 0 0 1 5.9-34.6 2547.5 2547.5 0 0 0 4-20.8 98 98 0 0 1 1.4-6.5l.2-.3h-7.5l-7.6.2-.6 4.5a560 560 0 0 1-3.6 22.9 518.4 518.4 0 0 1-3.8 21 1705.6 1705.6 0 0 1-4.6 22.8l-.2.7h7.5zm-93.3 0h8.4l.6-3.7 1.5-8.7 1.9-11.5a3386.9 3386.9 0 0 1 4.7-26.3l.2-.2h45.3l.3.2.2.3-.4 2a1171.7 1171.7 0 0 0-5.4 29.2 1347.2 1347.2 0 0 0-3.3 18.3v.4h17l.3-2.1a178.4 178.4 0 0 0 1.8-11.6 4074.8 4074.8 0 0 1 15.2-85l.6-2.5h-17.1l-.3 1.6a261 261 0 0 1-2.4 14.3 1053 1053 0 0 0-3.5 21l-.6 4-12.6.2-12.5.2-10.6-.2a496 496 0 0 1-10.6-.3l.5-3a274.3 274.3 0 0 1 2.7-14.2 202.5 202.5 0 0 0 2-12 253 253 0 0 0 2.2-11l.2-.6h-17l-.5 3a241.8 241.8 0 0 0-2.3 14.1l-2 12-1.8 12a732.2 732.2 0 0 1-6 32.7 879.7 879.7 0 0 1-4.2 22l-1 4.9v.5h8.5zm504.5 1.7h3.3l3-.4 5-1 3.8-1.6 2-1 1.8-1.6 1.8-1.6 1.9-2.5c1-1.4 2-2.8 2-3l.3-.6-.2 1.8-.5 3.4a66 66 0 0 0-.5 4.1l-.2 2.3h13.6v-4.6l1-8.9a553.6 553.6 0 0 1 7-44 3813.3 3813.3 0 0 1 8.6-45.5v-.3h-14.8l-.2 2.2-1.3 8.7a2224.2 2224.2 0 0 1-3.3 20.3l-.2 1.1-.6-.2c-.3-.2-2-.7-3.9-1.1l-3.2-.8-4.6-.4-4.5-.3-3.8.3-3.8.4-3.5.8-3.4 1-3.3 1.5-3.3 1.6-2.4 1.8-2.5 1.8-2 2.3a50.8 50.8 0 0 0-3.8 4.5l-1.6 2.3-1.9 4c-1 2-2.3 5-2.8 6.3a79 79 0 0 0-2 6.6l-1 4.1-.5 5.4-.6 5.4.4 4.3.4 4.4.5 1.5 1.2 3.4.7 1.9 1.4 1.8 1.3 1.8 1.5 1.2 1.5 1.3 2.1 1a28.7 28.7 0 0 0 14 2.8zm5.9-9.8-2.6.1-1.8-.3c-1-.2-2.5-.6-3.5-1l-1.6-.8-1.5-1.1-1.4-1.2-2.1-4-.5-2.3-.5-2.2v-4.5l.1-4.6.6-4 .5-4 1-2.7.8-3.2 1-2.8 2.2-4.4a36.6 36.6 0 0 1 5.5-7.4c.9-1 2.3-2 3.2-2.6l1.5-1 2.8-.9 2.7-1h11.4l3.3 1c1.8.5 3.8 1 4.3 1.3l1 .4-.2 1a387.2 387.2 0 0 0-2.7 14.7 1704.5 1704.5 0 0 1-3.5 17.6l-1.2 4.4a29 29 0 0 1-3.5 7.3c-.6.9-1.6 2-2.2 2.7-.6.6-2 1.6-3 2.3l-2 1.3-5.5 1.8h-2.6zm-123.1 9.7 4.6-.1 3-.8 3-.7 1.8-1c1-.4 2.8-1.4 3.9-2.1a29 29 0 0 0 6.6-6.5l1.5-1.7s0 1.6-.4 3.5c-.2 2-.5 4.5-.5 5.7v2.1h12.8l.2-4.9.2-5 .9-6.4a516 516 0 0 1 5.6-32.9l.9-5V223l-1-2-1-2-1.2-1.3-1.4-1.3-2.2-1.1-2.1-1.1-6.6-1.5-4.5-.3-4.4-.3-5.8.3-10 .9-4.1.5h-5.7l-.4 2a158 158 0 0 1-2.3 9.7l3.4-.8a116 116 0 0 1 8.5-1.7l5.2-1 4.6-.1 4.7-.2 6 1 2 1 2 1 1.2 1.7 1.1 1.7V233.5l-.6 3-.6 2.8h-12.5l-12.5.1-4 1.1a47 47 0 0 0-10.3 4.2l-2.7 1.6-2 2.1a32.3 32.3 0 0 0-3.3 3.8c-.6 1-1.7 3-2.3 4.5l-1.2 2.7-.5 3-.5 3v6.4l.5 2.6.5 2.7 1 1.7a22 22 0 0 0 2 3l1.2 1.4 2 1.3 2.1 1.3 2.4.6c1.3.4 3.3.8 4.4 1l2 .3 4.8-.1zm4.3-9.7-2.8.2-1.8-.5c-1-.3-2.6-.8-3.4-1.3l-1.6-.8-.9-1-1.6-2.5-.7-1.4-.1-3.3-.2-3.4.6-2c.3-1 1-3 1.7-4.3l1-2.2 2.2-2.1 2-2.1 2.3-1 2.3-1.2 2.7-.6 2.8-.7h17.3l.6.2.5.3-.4 2.7a79.5 79.5 0 0 1-4.3 14.8l-1.3 2.3-1.2 2.1-2.1 2c-1.2 1.2-2.2 2.2-2.4 2.2l-1.5.8-1.3.9-2.8.9-2.8.9-2.8.1zm-61.4 9.8h3.8l4.4-.4a120.3 120.3 0 0 0 12.4-2.4c1.4-.4 2.8-.8 3-1l.8-3.4 1-5.4c.2-1.1.3-2.1.2-2.2 0 0-.3 0-.5.2-.3.2-2 1-3.8 1.6l-3.3 1.2-4.8 1-4.8.9-4-.1-4-.2-2.3-.8-2.3-.8-1.8-1.5-1.8-1.6-1.2-2.1-1.1-2.2-.6-2.8-.6-3V255.5l.7-4.6.7-4.5.7-2.4 1-3.5a37.3 37.3 0 0 1 4-8.5l1.3-2.3 1.6-1.7 1.7-1.7 1.7-1.1 1.7-1.1 2.3-.7c1.2-.4 3.4-.9 4.8-1.1l2.6-.4 3.8.2 3.9.2 4.5.9 4.5.9 1.8.7 2 .7.5-3a293.3 293.3 0 0 1 1.3-8.7l-3-.5-9.5-.7-6.6-.4-4.7.4-4.7.3-3.5.8-3.4.7-2.3.9a32.4 32.4 0 0 0-10.4 7l-2.6 2.7-1.5 2.1c-.8 1.2-2.2 3.7-3.1 5.6l-1.7 3.3-1.3 3.7a98 98 0 0 0-2.1 7.3l-1 3.6-.2 3.3-.4 3.3v8.7l.4 2.5.3 2.5 1 2.6 1 2.6 1.3 1.9 1.2 1.8 1.9 2 1.9 1.8 2 1 2 1.1 2.7.8 4.7 1c1 .2 3.7.3 5.8.3zm-110.3 0h3.8l3.9-.3a186.2 186.2 0 0 0 15.6-2.3l4.3-1 .2-1.5 1-5.7.9-4.1-.2-.2-.2-.2-1.3.6c-.7.4-2.9 1.2-4.9 1.8l-3.6 1.2-3.9.8-3.8.7h-12.1l-2.1-.6c-1.1-.4-2.8-1-3.7-1.5l-1.7-.8-2.7-2.5-1.1-1.9-1-1.8-.7-2.4-.7-2.3V255l.6-3.9.6-3.8 10.4-.5 19.3.1 19.3.1.6-2.4c.3-1.4.8-4.2 1-6.3l.6-3.8V228.2l-.6-2.4-.5-2.3-1-1.6c-.4-.9-1.3-2.1-1.9-2.8a15.5 15.5 0 0 0-5.2-3.9l-1.8-.9-3-.7-3-.7-3.8-.4-3.7-.4-3.5.3-3.4.2-4.2.8-4.2.8-2.6 1a47.8 47.8 0 0 0-8.6 4.9 31.2 31.2 0 0 0-9 11.3 81.3 81.3 0 0 0-3.7 8.5 78.4 78.4 0 0 0-3 13l-.6 3.6v10.3l.5 2.2a42.7 42.7 0 0 0 2.8 7.7 19.5 19.5 0 0 0 5.5 5.8c1 .8 2.7 1.8 3.8 2.3l2 .9 2.9.7a59.2 59.2 0 0 0 11.4 1.3zm6.6-48.8c-9.6 0-17.5 0-17.5-.2a43.4 43.4 0 0 1 2.9-7.3l1-2 2.3-2.3 2.3-2.3 2.3-1a26 26 0 0 1 3.6-1.5c.8-.2 3-.5 4.9-.6l3.4-.2 2.7.3 2.6.4 2 .8 2 1 1 1c.6.7 1.3 1.6 1.5 2.1l.5 1 .3 2 .4 2-.4 3.4-.4 3.4h-17.4zm-103.2 79.4.2-.6.2-1.5.5-4.6a2453.6 2453.6 0 0 1 5.4-33.2s.6.8 1 1.7l.9 1.6 2 2 1.8 1.9 2.4 1 2.4.9 2.8.3 2.8.4 3.6-.2 3.6-.2 3.9-1 3.8-1 2.1-1c1.2-.5 3.2-1.7 4.5-2.5l2.4-1.6 2.3-2.3a50.8 50.8 0 0 0 6.5-8.4c.6-.8 1.7-3 2.5-5 .8-1.8 2-5.3 2.8-7.6l1.4-4.1.7-3.6 1-7.3.4-3.7-.2-3.1-.2-3.1-.7-3.2-.8-3-1.1-2.4-1.2-2.4-2.3-2.4-2.2-2.3-5.4-2.8-3-.7-2.9-.7-3-.2-2.9-.3-3.3.4-3.2.4-2.7.7-2.7.7-2.3 1a41.8 41.8 0 0 0-7.8 5l-1 .6.7-3 .6-3.6v-.4H242l-1 7a2381 2381 0 0 1-8.1 47.8l-2 10.2a11381.5 11381.5 0 0 0-6 32.6c-.6 2.9-1.1 5.6-1.3 6l-.1.8h14.9zm21.7-40-1.9-.3-1.9-.3-1.9-.9-2-.9-1.2-1.2-1.4-1.3-.8-1.7c-.4-1-1-2.6-1.2-3.7l-.4-1.8.2-3 .1-3 1-4.7a938.8 938.8 0 0 0 3.9-21.6l.9-4.8 2-1.6c1-1 2.8-2.2 3.8-2.8l1.9-1 2.4-.8 2.4-.7 6.3-.4 2.5.6 2.5.5 1.8.8 1.8.9 1.5 1.5 1.5 1.5.8 1.6c.5.9 1.1 2.6 1.4 3.8l.6 2.2-.2 6.6-.1 6.6-1 4c-.4 2-1.3 5.3-2 7.2l-1.2 3.4-1.4 2.7a25.6 25.6 0 0 1-7.7 9.4l-1.3 1-5.9 2-5.8.3z"/></svg>