<svg xmlns="http://www.w3.org/2000/svg" width="16" height="16" fill="none"><path stroke="#171717" stroke-linecap="square" stroke-miterlimit="10" d="M8 10.5a2.5 2.5 0 1 0 0-5 2.5 2.5 0 0 0 0 5Z"/><path stroke="#000" stroke-linecap="square" stroke-miterlimit="10" stroke-opacity=".2" d="M8 10.5a2.5 2.5 0 1 0 0-5 2.5 2.5 0 0 0 0 5Z"/><path stroke="#000" stroke-linecap="square" stroke-miterlimit="10" stroke-opacity=".2" d="M8 10.5a2.5 2.5 0 1 0 0-5 2.5 2.5 0 0 0 0 5Z"/><path stroke="#000" stroke-linecap="square" stroke-miterlimit="10" stroke-opacity=".2" d="M8 10.5a2.5 2.5 0 1 0 0-5 2.5 2.5 0 0 0 0 5Z"/><path stroke="#000" stroke-linecap="square" stroke-miterlimit="10" stroke-opacity=".2" d="M8 10.5a2.5 2.5 0 1 0 0-5 2.5 2.5 0 0 0 0 5Z"/><path stroke="#000" stroke-linecap="square" stroke-miterlimit="10" stroke-opacity=".2" d="M8 10.5a2.5 2.5 0 1 0 0-5 2.5 2.5 0 0 0 0 5Z"/><path stroke="#171717" stroke-linecap="round" stroke-linejoin="round" d="M10.75 2.25h-5.5a3 3 0 0 0-3 3v5.5a3 3 0 0 0 3 3h5.5a3 3 0 0 0 3-3v-5.5a3 3 0 0 0-3-3Z"/><path stroke="#000" stroke-linecap="round" stroke-linejoin="round" stroke-opacity=".2" d="M10.75 2.25h-5.5a3 3 0 0 0-3 3v5.5a3 3 0 0 0 3 3h5.5a3 3 0 0 0 3-3v-5.5a3 3 0 0 0-3-3Z"/><path stroke="#000" stroke-linecap="round" stroke-linejoin="round" stroke-opacity=".2" d="M10.75 2.25h-5.5a3 3 0 0 0-3 3v5.5a3 3 0 0 0 3 3h5.5a3 3 0 0 0 3-3v-5.5a3 3 0 0 0-3-3Z"/><path stroke="#000" stroke-linecap="round" stroke-linejoin="round" stroke-opacity=".2" d="M10.75 2.25h-5.5a3 3 0 0 0-3 3v5.5a3 3 0 0 0 3 3h5.5a3 3 0 0 0 3-3v-5.5a3 3 0 0 0-3-3Z"/><path stroke="#000" stroke-linecap="round" stroke-linejoin="round" stroke-opacity=".2" d="M10.75 2.25h-5.5a3 3 0 0 0-3 3v5.5a3 3 0 0 0 3 3h5.5a3 3 0 0 0 3-3v-5.5a3 3 0 0 0-3-3Z"/><path stroke="#000" stroke-linecap="round" stroke-linejoin="round" stroke-opacity=".2" d="M10.75 2.25h-5.5a3 3 0 0 0-3 3v5.5a3 3 0 0 0 3 3h5.5a3 3 0 0 0 3-3v-5.5a3 3 0 0 0-3-3Z"/><path fill="#000" d="M11.25 5.5a.75.75 0 1 0 0-1.5.75.75 0 0 0 0 1.5Z"/></svg>