<svg xmlns="http://www.w3.org/2000/svg" xml:space="preserve" width="780" height="500"><path fill="#fff" d="M632.2 361.3a75.4 75.4 0 0 1-75.3 75.3H147.8V138.7A75.4 75.4 0 0 1 223 63.5h409.1v297.9z"/><linearGradient id="a" x1="908.7" x2="909.7" y1="313.2" y2="313.2" gradientTransform="matrix(132.87 0 0 323.02 -120270 -100930)" gradientUnits="userSpaceOnUse"><stop offset="0" stop-color="#007B40"/><stop offset="1" stop-color="#55B330"/></linearGradient><path fill="url(#a)" d="M498.9 256.5c11.6.3 23.4-.5 35 .4 11.8 2.2 14.7 20 4.2 26-7.2 3.8-15.6 1.4-23.4 2H499v-28.4zm41.8-32.1c2.6 9.2-6.2 17.4-15 16.1h-26.8c.1-8.6-.4-18 .2-26.2 10.8.3 21.6-.6 32.2.5 4.6 1.1 8.5 5 9.4 9.6zm64.4-136c.5 17.6 0 36 .2 53.9V360a54 54 0 0 1-51.6 51.4h-81.2V301.8c29.5-.2 59 .3 88.4-.3 13.7-.8 28.7-9.8 29.3-24.9 1.6-15-12.6-25.5-26.1-27.2-5.2-.1-5-1.5 0-2.1 12.9-2.8 23-16.1 19.2-29.5-3.2-14-18.8-19.5-31.7-19.5-26.4-.2-52.7 0-79 0 .1-20.5-.4-41 .2-61.5a54 54 0 0 1 53.5-48.3H605z"/><linearGradient id="b" x1="908.7" x2="909.7" y1="313.2" y2="313.2" gradientTransform="matrix(133.43 0 0 323.02 -121080 -100920)" gradientUnits="userSpaceOnUse"><stop offset="0" stop-color="#1D2970"/><stop offset="1" stop-color="#006DBA"/></linearGradient><path fill="url(#b)" d="M174.7 139.5a54 54 0 0 1 52-51h80.8c-.1 90.9.1 181.8-.2 272.7a54 54 0 0 1-51.6 50.3h-81V298.1c26.2 6.2 53.7 8.8 80.4 4.7 16-2.6 33.5-10.4 39-27 4-14.2 1.7-29.2 2.3-43.7v-33.9H250c-.2 22.4.4 44.8-.4 67.2-1.2 13.7-14.8 22.4-27.8 22-16 .1-47.9-11.7-47.9-11.7 0-41.9.5-94.4.7-136.2z"/><linearGradient id="c" x1="908.7" x2="909.7" y1="313.2" y2="313.2" gradientTransform="matrix(132.96 0 0 323.03 -120500 -100930)" gradientUnits="userSpaceOnUse"><stop offset="0" stop-color="#6E2B2F"/><stop offset="1" stop-color="#E30138"/></linearGradient><path fill="url(#c)" d="M324.7 211.9c-2.4.5-.5-8.3-1-11.7 0-21.1-.4-42.3.2-63.4a54 54 0 0 1 53.7-48.3h78.8c0 90.9.1 181.8-.1 272.7a54 54 0 0 1-51.7 50.3h-81V287.2c18.4 15.1 43.5 17.5 66.5 17.5 17.3 0 34.5-2.6 51.3-6.6v-22.8c-19 9.4-41.2 15.4-62.2 10a33.9 33.9 0 0 1-25-33c-1.8-15.7 7.5-32.3 23-37 19.1-6 40-1.4 58 6.5 3.9 2 7.8 4.5 6.2-2V202c-30-7.1-62-9.8-92.3-2a67.7 67.7 0 0 0-24.4 12z"/></svg>