<svg xmlns="http://www.w3.org/2000/svg" width="32" height="32" fill="none"><path stroke="#171717" stroke-linecap="round" stroke-linejoin="round" stroke-width="2" d="M12 28H6.667A2.667 2.667 0 0 1 4 25.333V6.667A2.667 2.667 0 0 1 6.667 4H12"/><path stroke="#000" stroke-linecap="round" stroke-linejoin="round" stroke-opacity=".2" stroke-width="2" d="M12 28H6.667A2.667 2.667 0 0 1 4 25.333V6.667A2.667 2.667 0 0 1 6.667 4H12"/><path stroke="#000" stroke-linecap="round" stroke-linejoin="round" stroke-opacity=".2" stroke-width="2" d="M12 28H6.667A2.667 2.667 0 0 1 4 25.333V6.667A2.667 2.667 0 0 1 6.667 4H12"/><path stroke="#000" stroke-linecap="round" stroke-linejoin="round" stroke-opacity=".2" stroke-width="2" d="M12 28H6.667A2.667 2.667 0 0 1 4 25.333V6.667A2.667 2.667 0 0 1 6.667 4H12"/><path stroke="#000" stroke-linecap="round" stroke-linejoin="round" stroke-opacity=".2" stroke-width="2" d="M12 28H6.667A2.667 2.667 0 0 1 4 25.333V6.667A2.667 2.667 0 0 1 6.667 4H12"/><path stroke="#000" stroke-linecap="round" stroke-linejoin="round" stroke-opacity=".2" stroke-width="2" d="M12 28H6.667A2.667 2.667 0 0 1 4 25.333V6.667A2.667 2.667 0 0 1 6.667 4H12"/><path stroke="#171717" stroke-linecap="round" stroke-linejoin="round" stroke-width="2" d="M21.334 22.666 28.001 16l-6.667-6.667"/><path stroke="#000" stroke-linecap="round" stroke-linejoin="round" stroke-opacity=".2" stroke-width="2" d="M21.334 22.666 28.001 16l-6.667-6.667"/><path stroke="#000" stroke-linecap="round" stroke-linejoin="round" stroke-opacity=".2" stroke-width="2" d="M21.334 22.666 28.001 16l-6.667-6.667"/><path stroke="#000" stroke-linecap="round" stroke-linejoin="round" stroke-opacity=".2" stroke-width="2" d="M21.334 22.666 28.001 16l-6.667-6.667"/><path stroke="#000" stroke-linecap="round" stroke-linejoin="round" stroke-opacity=".2" stroke-width="2" d="M21.334 22.666 28.001 16l-6.667-6.667"/><path stroke="#000" stroke-linecap="round" stroke-linejoin="round" stroke-opacity=".2" stroke-width="2" d="M21.334 22.666 28.001 16l-6.667-6.667"/><path stroke="#171717" stroke-linecap="round" stroke-linejoin="round" stroke-width="2" d="M28 16H12"/><path stroke="#000" stroke-linecap="round" stroke-linejoin="round" stroke-opacity=".2" stroke-width="2" d="M28 16H12M28 16H12M28 16H12M28 16H12M28 16H12"/></svg>