<svg width="80" height="80" viewBox="0 0 80 80" fill="none" xmlns="http://www.w3.org/2000/svg">
<g clip-path="url(#clip0_2_8)">
<path d="M40 80C62.0914 80 80 62.0914 80 40C80 17.9086 62.0914 0 40 0C17.9086 0 0 17.9086 0 40C0 62.0914 17.9086 80 40 80Z" fill="#E5E5E5"/>
<path fill-rule="evenodd" clip-rule="evenodd" d="M30.7692 29.2308C30.7692 30.2508 30.364 31.2291 29.6427 31.9504C28.9214 32.6717 27.9431 33.0769 26.9231 33.0769C25.903 33.0769 24.9247 32.6717 24.2034 31.9504C23.4821 31.2291 23.0769 30.2508 23.0769 29.2308C23.0769 28.2107 23.4821 27.2324 24.2034 26.5111C24.9247 25.7898 25.903 25.3846 26.9231 25.3846C27.9431 25.3846 28.9214 25.7898 29.6427 26.5111C30.364 27.2324 30.7692 28.2107 30.7692 29.2308ZM56.9231 32.3077H37.6923V26.1538H56.9231V32.3077ZM40.3846 59.2308C30.8262 59.2308 23.0769 51.31 23.0769 41.5385H30C30 47.4862 34.6492 52.3077 40.3846 52.3077C46.12 52.3077 50.7692 47.4862 50.7692 41.5385H57.6923C57.6923 51.31 49.9431 59.2308 40.3846 59.2308Z" fill="#A3A3A3"/>
</g>
<defs>
<clipPath id="clip0_2_8">
<rect width="80" height="80" fill="white"/>
</clipPath>
</defs>
</svg>
