<svg xmlns="http://www.w3.org/2000/svg" width="61" height="60" viewBox="0 0 61 60" fill="none">
  <circle cx="30.5" cy="30" r="30" fill="#D4D4D4"/>
  <path fill-rule="evenodd" clip-rule="evenodd" d="M43.2692 21.8846C43.2692 23.4777 41.9777 24.7692 40.3845 24.7692C38.7914 24.7692 37.4999 23.4777 37.4999 21.8846C37.4999 20.2915 38.7914 19 40.3845 19C41.9777 19 43.2692 20.2915 43.2692 21.8846ZM23.5768 21.9217C23.5768 23.5149 22.2853 24.8063 20.6922 24.8063C19.099 24.8063 17.8075 23.5149 17.8075 21.9217C17.8075 20.3286 19.099 19.0371 20.6922 19.0371C22.2853 19.0371 23.5768 20.3286 23.5768 21.9217ZM30.4808 44.4213C23.3117 44.4213 17.5 38.4804 17.5 31.152H22.6924C22.6925 35.6127 26.1794 39.2288 30.4808 39.2288C34.7822 39.2288 38.2692 35.6127 38.2693 31.152H43.4615C43.4615 38.4804 37.6499 44.4213 30.4808 44.4213Z" fill="#737373"/>
</svg>