<svg xmlns="http://www.w3.org/2000/svg" width="80" height="80" viewBox="0 0 80 80" fill="none">
  <circle cx="40" cy="40" r="40" fill="#E5E5E5"/>
  <path fill-rule="evenodd" clip-rule="evenodd" d="M57.0256 29.1797C57.0256 31.3038 55.3037 33.0258 53.1795 33.0258C51.0553 33.0258 49.3333 31.3038 49.3333 29.1797C49.3333 27.0555 51.0553 25.3335 53.1795 25.3335C55.3037 25.3335 57.0256 27.0555 57.0256 29.1797ZM31.6923 29.2291C31.6923 31.3533 29.9703 33.0753 27.8462 33.0753C25.722 33.0753 24 31.3533 24 29.2291C24 27.105 25.722 25.383 27.8462 25.383C29.9703 25.383 31.6923 27.105 31.6923 29.2291ZM28 56.0002L53.3333 56.0002L53.3333 49.3335L28 49.3335L28 56.0002Z" fill="#A3A3A3"/>
</svg>