<svg xmlns="http://www.w3.org/2000/svg" xml:space="preserve" width="780" height="500"><path fill="#003087" d="M168.4 169.3a57 57 0 0 0-32.9-8.6H83.2c-4.2 0-6.5 2-7 6.2L55 300.4c-.2 1.3.1 2.5 1 3.6a4 4 0 0 0 3.3 1.6H84c4.4 0 6.8-2 7.2-6.2l6-36c.1-1.7.9-3.2 2.2-4.2 1.3-1.1 3-1.8 5-2.2 1.9-.3 3.7-.5 5.5-.5 1.7 0 3.8.2 6.2.4l4.6.3c18.7 0 33.5-5.3 44.1-15.9 10.7-10.6 16-25.2 16-44 0-12.8-4.1-22.2-12.5-28zm-27 40.1c-1.1 7.7-4 12.7-8.5 15a43.1 43.1 0 0 1-19.6 3.7l-10.8.3 5.5-35c.5-2.4 1.9-3.6 4.3-3.6h6.2c8.7 0 15 1.3 19 3.8 3.9 2.5 5.2 7.8 3.9 15.8z"/><path fill="#009CDE" d="M720.8 160.7h-24.2c-2.4 0-3.8 1.2-4.3 3.6l-21.2 136-.4.7c0 1.1.5 2.2 1.3 3.1 1 1 2 1.5 3.3 1.5H697c4.1 0 6.4-2 6.9-6.2L725 165.6v-.3c0-3-1.4-4.6-4.2-4.6z"/><path fill="#003087" d="M428.3 213.4c0-1.1-.4-2.2-1.3-3.1-.9-1-1.9-1.5-3-1.5H399a7 7 0 0 0-6 3.3l-34.6 51-14.4-49c-1-3.6-3.5-5.3-7.2-5.3h-24.5c-1.1 0-2.1.5-3 1.5-.8 1-1.3 2-1.3 3a48396.5 48396.5 0 0 1 27.8 82.4c-17.9 24.5-26.8 37.6-26.8 39.4 0 2.8 1.4 4.2 4.3 4.2h25.1a7 7 0 0 0 6-3.3l83.4-120.4c.4-.4.6-1.1.6-2.2z"/><path fill="#009CDE" d="M662.9 208.8H638c-3 0-4.9 3.6-5.5 10.8-5.7-8.7-16-13.1-31.1-13.1-15.7 0-29 5.9-40 17.7a58.8 58.8 0 0 0-16.6 41.5c0 12.9 3.7 23.1 11.3 30.8a40.6 40.6 0 0 0 30.2 11.4c6.4 0 12.8-1.3 19.3-4a38.5 38.5 0 0 0 15.4-10.4l-.6 3c-.5 1.7-.7 3-.7 3.9 0 3.5 1.4 5.2 4.3 5.2h22.5c4.2 0 6.6-2 7.2-6.2l13.4-85.4c.3-1.3 0-2.5-1-3.6a4 4 0 0 0-3.2-1.6zm-42.7 64.4a27.7 27.7 0 0 1-20.1 8.2c-6.4 0-11.5-1.7-15.4-5.2-4-3.5-5.9-8.3-5.9-14.4a28 28 0 0 1 28.5-28.8 22 22 0 0 1 15.2 5.4c4 3.6 6 8.6 6 14.9 0 7.8-2.7 14.5-8.3 20z"/><path fill="#003087" d="M291.2 208.8h-24.8c-3 0-5 3.6-5.6 10.8-5.9-8.7-16.2-13.1-31-13.1-15.8 0-29.1 5.9-40.2 17.7a58.8 58.8 0 0 0-16.5 41.5c0 12.9 3.8 23.1 11.3 30.8a40.5 40.5 0 0 0 30.3 11.4 51 51 0 0 0 34.7-14.4 22 22 0 0 0-1.4 6.9c0 3.5 1.5 5.2 4.3 5.2h22.6c4.1 0 6.5-2 7.2-6.2l13.4-85.4c.2-1.3-.1-2.5-1-3.6a4 4 0 0 0-3.3-1.6zm-42.7 64.6c-5.5 5.3-12.3 8-20.4 8-6.3 0-11.4-1.7-15.2-5.2a18.5 18.5 0 0 1-5.8-14.4 28 28 0 0 1 28.5-28.8 22 22 0 0 1 15.2 5.4c4 3.6 6 8.6 6 14.9 0 8-2.7 14.8-8.3 20.1z"/><path fill="#009CDE" d="M540 169.3a57 57 0 0 0-32.8-8.6h-52c-4.4 0-6.8 2-7.3 6.2l-21.2 133.5c-.2 1.3 0 2.5 1 3.6a4 4 0 0 0 3.2 1.6h26.9c2.6 0 4.3-1.4 5.2-4.2l5.9-38c.2-1.7 1-3.2 2.3-4.2 1.3-1.1 3-1.8 4.9-2.2 2-.3 3.8-.5 5.5-.5 1.8 0 3.9.2 6.3.4l4.5.3c18.8 0 33.5-5.3 44.2-15.9 10.7-10.6 16-25.2 16-44 0-12.8-4.2-22.2-12.6-28zm-33.5 53.9c-4.8 3.2-12 4.9-21.6 4.9l-10.5.3 5.6-35c.4-2.4 1.9-3.6 4.3-3.6h5.8c4.8 0 8.7.2 11.5.7 2.8.4 5.6 1.7 8.2 4 2.6 2.3 3.9 5.7 3.9 10 0 9.2-2.4 15.4-7.2 18.7z"/></svg>