<?xml version="1.0" encoding="UTF-8" standalone="no"?>
<svg
   width="11"
   height="13.999989"
   viewBox="0 0 11 13.999989"
   fill="none"
   version="1.1"
   xmlns="http://www.w3.org/2000/svg"
   xmlns:svg="http://www.w3.org/2000/svg">
  <defs
     id="defs1" />
     id="namedview1"
     pagecolor="#ffffff"
     bordercolor="#000000"
     borderopacity="0.25"
     inkscape:showpageshadow="2"
     inkscape:pageopacity="0.0"
     inkscape:pagecheckerboard="0"
     inkscape:deskcolor="#d1d1d1"
     inkscape:zoom="32.208333"
     inkscape:cx="5.5109961"
     inkscape:cy="6.5045278"
     inkscape:window-width="1920"
     inkscape:window-height="991"
     inkscape:window-x="-9"
     inkscape:window-y="1341"
     inkscape:window-maximized="1"
     inkscape:current-layer="MapPin" />
  <g
     transform="translate(-6.5,-5.5)">
    <path
       d="m 12,13 c 1.1046,0 2,-0.8954 2,-2 0,-1.10457 -0.8954,-2 -2,-2 -1.1046,0 -2,0.89543 -2,2 0,1.1046 0.8954,2 2,2 z"
       stroke="currentColor"
       stroke-linecap="square"
       stroke-linejoin="round" />
    <path
       d="m 17,11 c 0,4.5 -5,8 -5,8 C 12,19 7,15.5 7,11 7,9.67392 7.52678,8.40215 8.46447,7.46447 9.40215,6.52678 10.6739,6 12,6 13.3261,6 14.5979,6.52678 15.5355,7.46447 16.4732,8.40215 17,9.67392 17,11 Z"
       stroke="currentColor"
       stroke-linecap="square"
       stroke-linejoin="round" />
  </g>
</svg>
