<svg xmlns="http://www.w3.org/2000/svg" width="14" height="14" fill="none"><path stroke="#171717" stroke-linecap="square" stroke-linejoin="round" d="M13.417 1.748a6.359 6.359 0 0 1-1.831.893A2.614 2.614 0 0 0 7 4.39v.583A6.218 6.218 0 0 1 1.75 2.33s-2.334 5.25 2.916 7.584A6.79 6.79 0 0 1 .584 11.08c5.25 2.917 11.667 0 11.667-6.708 0-.162-.016-.325-.047-.484a4.503 4.503 0 0 0 1.213-2.14Z"/><path stroke="#000" stroke-linecap="square" stroke-linejoin="round" stroke-opacity=".2" d="M13.417 1.748a6.359 6.359 0 0 1-1.831.893A2.614 2.614 0 0 0 7 4.39v.583A6.218 6.218 0 0 1 1.75 2.33s-2.334 5.25 2.916 7.584A6.79 6.79 0 0 1 .584 11.08c5.25 2.917 11.667 0 11.667-6.708 0-.162-.016-.325-.047-.484a4.503 4.503 0 0 0 1.213-2.14Z"/><path stroke="#000" stroke-linecap="square" stroke-linejoin="round" stroke-opacity=".2" d="M13.417 1.748a6.359 6.359 0 0 1-1.831.893A2.614 2.614 0 0 0 7 4.39v.583A6.218 6.218 0 0 1 1.75 2.33s-2.334 5.25 2.916 7.584A6.79 6.79 0 0 1 .584 11.08c5.25 2.917 11.667 0 11.667-6.708 0-.162-.016-.325-.047-.484a4.503 4.503 0 0 0 1.213-2.14Z"/><path stroke="#000" stroke-linecap="square" stroke-linejoin="round" stroke-opacity=".2" d="M13.417 1.748a6.359 6.359 0 0 1-1.831.893A2.614 2.614 0 0 0 7 4.39v.583A6.218 6.218 0 0 1 1.75 2.33s-2.334 5.25 2.916 7.584A6.79 6.79 0 0 1 .584 11.08c5.25 2.917 11.667 0 11.667-6.708 0-.162-.016-.325-.047-.484a4.503 4.503 0 0 0 1.213-2.14Z"/><path stroke="#000" stroke-linecap="square" stroke-linejoin="round" stroke-opacity=".2" d="M13.417 1.748a6.359 6.359 0 0 1-1.831.893A2.614 2.614 0 0 0 7 4.39v.583A6.218 6.218 0 0 1 1.75 2.33s-2.334 5.25 2.916 7.584A6.79 6.79 0 0 1 .584 11.08c5.25 2.917 11.667 0 11.667-6.708 0-.162-.016-.325-.047-.484a4.503 4.503 0 0 0 1.213-2.14Z"/><path stroke="#000" stroke-linecap="square" stroke-linejoin="round" stroke-opacity=".2" d="M13.417 1.748a6.359 6.359 0 0 1-1.831.893A2.614 2.614 0 0 0 7 4.39v.583A6.218 6.218 0 0 1 1.75 2.33s-2.334 5.25 2.916 7.584A6.79 6.79 0 0 1 .584 11.08c5.25 2.917 11.667 0 11.667-6.708 0-.162-.016-.325-.047-.484a4.503 4.503 0 0 0 1.213-2.14Z"/></svg>