<svg xmlns="http://www.w3.org/2000/svg" xml:space="preserve" width="24" height="24" viewBox="0 0 512 512"><circle cx="256" cy="256" r="256" style="fill:#78baeb"/><path d="M256 0c-11.317 0-22.461.744-33.391 2.167C348.216 18.53 445.217 125.933 445.217 256s-97.002 237.47-222.609 253.833A258.556 258.556 0 0 0 256 512c141.385 0 256-114.616 256-256S397.385 0 256 0z" style="fill:#59aae7"/><path d="M206.186 401.252c-23.512 0-46.553-4.23-68.483-12.57l-21.732-8.265c-2.377-.904-2.048-4.365.457-4.805l22.901-4.021c21.217-3.726 41.281-12.365 58.477-25.121 1.814-1.346 1.083-4.177-1.152-4.506-20.024-2.937-38.002-15.046-48.089-32.814l-5.141-9.056c-.922-1.623.194-3.647 2.057-3.736l10.401-.498.105-.006c2.612-.129 3.236-3.685.861-4.784a64.266 64.266 0 0 1-36.403-47.743l-1.585-9.48c-.295-1.763 1.3-3.258 3.04-2.851l9.358 2.193a67.235 67.235 0 0 0 15.305 1.759h.184c-19.956-12.782-31.811-34.384-31.811-58.161 0-5.914.742-11.764 2.207-17.388l2.798-10.746c.486-1.867 2.812-2.505 4.183-1.15l7.897 7.808c20.856 20.622 46.465 36.497 74.064 45.911 7.307 2.317 29.468 8.604 37.141 8.635l.189.002c.027 0 2.241.08 3.678.147a54.431 54.431 0 0 1-.016-1.213c0-41.788 33.997-75.785 75.785-75.785 19.954 0 38.688 7.644 52.929 21.562.563.55 1.346.818 2.124.7a129.431 129.431 0 0 0 21.616-5.211l23.364-7.828c2.448-.82 4.384 2.153 2.646 4.06l-16.6 18.209a68.594 68.594 0 0 1-7.113 6.761c-2.001 1.645-.513 4.88 2.032 4.402 2.263-.424 4.512-.904 6.738-1.438l21.432-5.142c2.438-.584 4.126 2.377 2.381 4.177l-15.343 15.822a144.2 144.2 0 0 1-20.473 17.476l.012.362c.022.622.041 1.245.041 1.873v.755c-.433 105.722-86.772 191.704-192.462 191.704z" style="fill:#fcfcfc"/></svg>