<svg xmlns="http://www.w3.org/2000/svg" width="780" height="500" fill="none"><path fill="#1434CB" d="M489.8 143.1c-46.8 0-88.7 24.3-88.7 69.2 0 51.4 74.3 55 74.3 80.8 0 10.9-12.5 20.6-33.8 20.6-30.2 0-52.8-13.6-52.8-13.6l-9.7 45.3s26 11.5 60.6 11.5c51.2 0 91.5-25.5 91.5-71.1 0-54.4-74.5-57.8-74.5-81.8 0-8.5 10.2-17.9 31.4-17.9 24 0 43.5 10 43.5 10l9.5-43.8s-21.3-9.2-51.3-9.2Zm-428.5 3.3-1.1 6.6s19.7 3.6 37.4 10.8c22.9 8.3 24.5 13 28.4 28l42 161.7H224l86.6-207h-56L199 287.1l-22.7-119.3c-2.1-13.7-12.6-21.5-25.6-21.5H61.3Zm272 0-44 207h53.5l43.8-207h-53.3Zm298.3 0c-13 0-19.8 7-24.8 19l-78.3 188h56l10.9-31.3h68.3l6.6 31.4h49.5l-43.2-207h-45Zm7.2 56 16.7 77.7h-44.6l28-77.7Z"/></svg>