<svg xmlns="http://www.w3.org/2000/svg" width="48" height="48" viewBox="0 0 48 48" fill="none">
  <circle cx="24" cy="24" r="24" fill="#FED584"/>
  <path fill-rule="evenodd" clip-rule="evenodd" d="M34.2149 17.5059C34.2149 18.7804 33.1817 19.8136 31.9072 19.8136C30.6327 19.8136 29.5995 18.7804 29.5995 17.5059C29.5995 16.2314 30.6327 15.1982 31.9072 15.1982C33.1817 15.1982 34.2149 16.2314 34.2149 17.5059ZM19.0148 17.5361C19.0148 18.8106 17.9816 19.8438 16.7071 19.8438C15.4326 19.8438 14.3994 18.8106 14.3994 17.5361C14.3994 16.2616 15.4326 15.2284 16.7071 15.2284C17.9816 15.2284 19.0148 16.2616 19.0148 17.5361ZM16.7997 33.5984H31.9997L31.9997 29.5984H16.7997L16.7997 33.5984Z" fill="#737373"/>
</svg>