<svg xmlns="http://www.w3.org/2000/svg" width="49" height="48" viewBox="0 0 49 48" fill="none">
  <circle cx="24.5" cy="24" r="24" fill="#D4D4D4"/>
  <path fill-rule="evenodd" clip-rule="evenodd" d="M35.1817 17.9003C35.1817 19.2658 34.0747 20.3728 32.7091 20.3728C31.3436 20.3728 30.2366 19.2658 30.2366 17.9003C30.2366 16.5347 31.3436 15.4277 32.7091 15.4277C34.0747 15.4277 35.1817 16.5347 35.1817 17.9003ZM18.3025 17.9321C18.3025 19.2976 17.1955 20.4046 15.8299 20.4046C14.4644 20.4046 13.3574 19.2976 13.3574 17.9321C13.3574 16.5665 14.4644 15.4595 15.8299 15.4595C17.1955 15.4595 18.3025 16.5665 18.3025 17.9321ZM24.5583 30.8577C27.2772 30.9044 29.8038 31.7154 31.9367 33.0825L29.379 35.5537C27.9236 34.7719 26.265 34.3161 24.4993 34.2857C22.5974 34.253 20.8028 34.718 19.2396 35.5605L16.788 33.0232C19.0348 31.608 21.7051 30.8086 24.5583 30.8577Z" fill="#737373"/>
</svg>