<svg xmlns="http://www.w3.org/2000/svg" width="49" height="48" viewBox="0 0 49 48" fill="none">
  <circle cx="24.5" cy="24" r="24" fill="#D4D4D4"/>
  <path fill-rule="evenodd" clip-rule="evenodd" d="M35.1817 17.9003C35.1817 19.2658 34.0747 20.3728 32.7091 20.3728C31.3436 20.3728 30.2366 19.2658 30.2366 17.9003C30.2366 16.5347 31.3436 15.4277 32.7091 15.4277C34.0747 15.4277 35.1817 16.5347 35.1817 17.9003ZM18.3025 17.9321C18.3025 19.2976 17.1955 20.4046 15.8299 20.4046C14.4644 20.4046 13.3574 19.2976 13.3574 17.9321C13.3574 16.5665 14.4644 15.4595 15.8299 15.4595C17.1955 15.4595 18.3025 16.5665 18.3025 17.9321ZM24.2015 35.6484C21.4824 35.6484 18.9426 34.8811 16.7867 33.5512L19.3016 31.0364C20.77 31.7928 22.4359 32.2199 24.2014 32.2199C26.1032 32.2199 27.8893 31.7244 29.4376 30.8555L31.9324 33.3503C29.7105 34.8036 27.0546 35.6484 24.2015 35.6484Z" fill="#737373"/>
</svg>