<svg xmlns="http://www.w3.org/2000/svg" width="48" height="48" viewBox="0 0 48 48" fill="none">
  <circle cx="24" cy="24" r="24" fill="#D4D4D4"/>
  <path fill-rule="evenodd" clip-rule="evenodd" d="M34.215 17.5089C34.215 18.7834 33.1818 19.8166 31.9073 19.8166C30.6328 19.8166 29.5996 18.7834 29.5996 17.5089C29.5996 16.2344 30.6328 15.2012 31.9073 15.2012C33.1818 15.2012 34.215 16.2344 34.215 17.5089ZM18.4611 17.5386C18.4611 18.8131 17.4279 19.8462 16.1534 19.8462C14.8789 19.8462 13.8457 18.8131 13.8457 17.5386C13.8457 16.264 14.8789 15.2309 16.1534 15.2309C17.4279 15.2309 18.4611 16.264 18.4611 17.5386ZM23.9842 35.5378C18.2492 35.5378 13.5999 30.7855 13.5996 24.923H17.7535C17.7542 28.491 20.5436 31.3832 23.9843 31.3832C27.425 31.3832 30.2144 28.491 30.2151 24.923H34.3688C34.3685 30.7855 29.7193 35.5378 23.9842 35.5378Z" fill="#737373"/>
</svg>