<svg xmlns="http://www.w3.org/2000/svg" width="24" height="24" fill="none"><path stroke="#007D69" stroke-linecap="round" stroke-linejoin="round" d="M12.75 13.5a3 3 0 1 0 0-6 3 3 0 0 0 0 6ZM3 10.125h2.25M3 6.375h2.25M3 13.875h2.25M3 17.625h2.25"/><path stroke="#007D69" stroke-linecap="round" stroke-linejoin="round" d="M8.25 15.75a5.626 5.626 0 0 1 9 0"/><path stroke="#007D69" stroke-linecap="round" stroke-linejoin="round" d="M20.25 20.25V3.75A.75.75 0 0 0 19.5 3H6a.75.75 0 0 0-.75.75v16.5c0 .414.336.75.75.75h13.5a.75.75 0 0 0 .75-.75Z"/></svg>