<svg xmlns="http://www.w3.org/2000/svg" width="24" height="24" fill="none"><path fill="#195955" fill-rule="evenodd" d="M15.458 4.124 14.974 4l-.248.968.484.124a2.834 2.834 0 0 1 0 5.49l-.485.124.249.969.484-.124a3.834 3.834 0 0 0 0-7.427ZM6.667 7.833a2.833 2.833 0 1 1 5.666 0 2.833 2.833 0 0 1-5.666 0ZM9.5 4a3.833 3.833 0 1 0 0 7.666A3.833 3.833 0 0 0 9.5 4ZM6.167 14a3.833 3.833 0 0 0-3.833 3.834V20h1v-2.166A2.833 2.833 0 0 1 6.167 15h6.667a2.833 2.833 0 0 1 2.833 2.834V20h1v-2.166A3.833 3.833 0 0 0 12.834 14H6.167ZM18.31 14l.484.125a3.834 3.834 0 0 1 2.875 3.709V20h-1v-2.166a2.833 2.833 0 0 0-2.125-2.742l-.484-.125.25-.968Z" clip-rule="evenodd" style="fill:#000;fill-opacity:1"/></svg>