<svg xmlns="http://www.w3.org/2000/svg" width="25" height="24" fill="none"><path stroke="currentColor" stroke-linecap="square" stroke-linejoin="round" d="M20 3.75H5a.75.75 0 0 0-.75.75v15c0 .414.336.75.75.75h15a.75.75 0 0 0 .75-.75v-15a.75.75 0 0 0-.75-.75Z"/><path stroke="currentColor" stroke-linecap="round" stroke-linejoin="round" d="m20.75 15-3.966-3.966a.751.751 0 0 0-1.068 0l-4.182 4.181a.75.75 0 0 1-1.068 0l-1.932-1.93a.75.75 0 0 0-1.068 0L4.25 16.5"/><path fill="#000" stroke="currentColor" d="M10.5 8.625a.625.625 0 1 1-1.25 0 .625.625 0 0 1 1.25 0Z"/></svg>