<svg xmlns="http://www.w3.org/2000/svg" width="314" height="104" fill="none"><circle cx="52" cy="52" r="52" fill="#40DCB6"/><path fill="#010D3C" fill-rule="evenodd" d="M40 38a5 5 0 1 1-10 0 5 5 0 0 1 10 0Zm34 4H49v-8h25v8ZM52.5 77C40.074 77 30 66.703 30 54h9c0 7.732 6.044 14 13.5 14S66 61.732 66 54h9c0 12.703-10.074 23-22.5 23ZM215 24a5 5 0 1 1-10 0 5 5 0 0 1 10 0Zm14 0a5 5 0 1 1-10 0 5 5 0 0 1 10 0Zm47.038 9.519v44.166h9.225V51.642c0-2.177.408-4.054 1.225-5.633.816-1.578 1.959-2.775 3.428-3.592 1.524-.87 3.239-1.306 5.144-1.306 1.904 0 3.592.435 5.061 1.306 1.524.817 2.694 2.014 3.511 3.592.816 1.524 1.224 3.402 1.224 5.633v26.043h9.143V49.193c0-3.265-.707-6.15-2.122-8.654a15.249 15.249 0 0 0-5.878-5.877c-2.504-1.415-5.388-2.123-8.654-2.123-3.156 0-5.932.735-8.327 2.204a11.854 11.854 0 0 0-4.163 4.126v-5.35h-8.817Zm-25.743 45.145c-4.409 0-8.327-1.007-11.756-3.02-3.375-2.069-6.014-4.844-7.919-8.327-1.905-3.538-2.857-7.484-2.857-11.838 0-4.463.952-8.408 2.857-11.837 1.959-3.429 4.572-6.123 7.837-8.082 3.266-2.014 6.967-3.02 11.103-3.02 3.32 0 6.286.57 8.898 1.713 2.613 1.143 4.817 2.722 6.613 4.735a19.969 19.969 0 0 1 4.082 6.776c.98 2.558 1.469 5.28 1.469 8.164 0 .708-.027 1.442-.081 2.204a12.48 12.48 0 0 1-.327 2.123H237.34c.105 1.894.532 3.609 1.28 5.143 1.143 2.231 2.722 3.973 4.735 5.225 2.069 1.252 4.409 1.877 7.021 1.877 2.667 0 4.926-.598 6.776-1.796 1.905-1.197 3.402-2.748 4.49-4.653l7.511 3.674c-.871 2.068-2.232 3.946-4.082 5.633-1.796 1.632-3.973 2.939-6.531 3.918-2.504.926-5.252 1.388-8.245 1.388Zm-12.724-27.757h23.302c-.058-1.345-.345-2.597-.864-3.755-.87-2.122-2.231-3.782-4.081-4.98-1.796-1.252-3.919-1.877-6.368-1.877-2.449 0-4.626.625-6.531 1.877-1.905 1.198-3.374 2.94-4.409 5.225-.491 1.06-.841 2.23-1.049 3.51Zm-25.413-17.393V77.68h9.225V33.514h-9.225Zm-29.418 45.15c-4.245 0-8.136-1.007-11.674-3.02-3.483-2.014-6.259-4.763-8.327-8.246-2.068-3.483-3.102-7.429-3.102-11.837 0-4.463 1.034-8.409 3.102-11.838 2.068-3.483 4.844-6.204 8.327-8.163 3.483-2.014 7.375-3.02 11.674-3.02 4.354 0 8.246 1.006 11.674 3.02 3.483 1.959 6.232 4.68 8.246 8.163 2.068 3.43 3.102 7.375 3.102 11.838 0 4.463-1.034 8.436-3.102 11.919-2.068 3.483-4.844 6.232-8.327 8.245-3.484 1.96-7.348 2.94-11.593 2.94Zm0-8.572c2.613 0 4.926-.626 6.939-1.877 2.014-1.252 3.592-2.966 4.735-5.144 1.198-2.231 1.796-4.734 1.796-7.51s-.598-5.252-1.796-7.43c-1.143-2.176-2.721-3.89-4.735-5.142-2.013-1.252-4.326-1.878-6.939-1.878-2.558 0-4.871.626-6.939 1.878-2.014 1.251-3.619 2.966-4.817 5.143-1.143 2.177-1.714 4.653-1.714 7.429 0 2.776.571 5.279 1.714 7.51 1.198 2.178 2.803 3.892 4.817 5.144 2.068 1.251 4.381 1.877 6.939 1.877ZM90 33.52v44.166h9.225V51.642c0-2.177.381-4.054 1.143-5.633.816-1.578 1.932-2.775 3.347-3.592 1.415-.87 3.048-1.306 4.898-1.306 1.905 0 3.538.435 4.899 1.306 1.415.817 2.503 2.014 3.265 3.592.816 1.524 1.225 3.402 1.225 5.633v26.043h9.143V51.642c0-2.177.408-4.054 1.225-5.633.816-1.578 1.932-2.775 3.347-3.592 1.415-.87 3.048-1.306 4.898-1.306 1.85 0 3.456.435 4.817 1.306 1.415.817 2.503 2.014 3.265 3.592.816 1.524 1.225 3.402 1.225 5.633v26.043h9.225V49.11c0-3.21-.735-6.068-2.205-8.572-1.469-2.503-3.456-4.462-5.959-5.877-2.449-1.415-5.198-2.123-8.245-2.123-3.484 0-6.586.87-9.307 2.612-1.833 1.197-3.344 2.818-4.534 4.863-1.031-1.826-2.486-3.365-4.365-4.618-2.721-1.904-5.85-2.857-9.388-2.857-3.157 0-5.959.762-8.409 2.286a11.27 11.27 0 0 0-3.918 4.091V33.52H90Z" clip-rule="evenodd"/></svg>