<svg xmlns="http://www.w3.org/2000/svg" width="102" height="200" fill="none"><path fill="#40DCB6" d="M40.809 147.074c-14.632-7.923-31.15-22.368-37.563-38.713 15.855 8.173 29.214 21.946 37.563 38.713ZM39.853 122.505c-14.632-7.932-31.15-22.368-37.57-38.713 15.863 8.173 29.221 21.946 37.57 38.713ZM37.667 98.478C23.035 90.554 6.51 76.11.097 59.765c15.854 8.181 29.221 21.954 37.57 38.713ZM34.457 73.245C20.848 63.334 6.207 46.73 1.749 29.585 16.51 39.908 28.13 55.437 34.457 73.245ZM30.317 53.777C21.107 39.057 13.248 17.697 15.047 0a96.848 96.848 0 0 1 15.27 53.777ZM32.425 63.033C36.3 44.666 45.732 21.998 59.315 9.231a113.956 113.956 0 0 1-26.89 53.802ZM35.43 83.828c5.542-18.798 17.214-41.578 32.432-53.7a118.348 118.348 0 0 1-32.433 53.7ZM38.76 109.127c5.552-18.789 17.215-41.578 32.441-53.69a118.286 118.286 0 0 1-32.44 53.69ZM40.439 139.969c5.551-18.797 17.215-41.577 32.44-53.69a118.38 118.38 0 0 1-32.44 53.69Z"/><path fill="#263238" d="M29.947 50.078s.043.094.094.292c.052.198.12.525.207.86l.749 3.442c.645 2.959 1.497 7.269 2.453 12.603a527.908 527.908 0 0 1 3.004 18.823c1.007 7.106 1.91 14.934 2.677 23.176.766 8.242 1.256 16.122 1.592 23.279.336 7.158.465 13.627.482 19.056.017 5.428 0 9.807-.112 12.844-.043 1.48-.077 2.65-.112 3.493 0 .37 0 .662-.043.903a1.08 1.08 0 0 1 0 .31 1.422 1.422 0 0 1 0-.31v-4.396c0-3.037 0-7.424-.077-12.844-.078-5.42-.276-11.864-.611-19.021a495.539 495.539 0 0 0-1.636-23.228c-.774-8.207-1.721-16.053-2.634-23.159-.912-7.106-1.945-13.472-2.866-18.814-.921-5.343-1.721-9.661-2.272-12.638-.267-1.454-.482-2.58-.629-3.441l-.155-.86a2.132 2.132 0 0 1-.111-.37Z"/><path fill="#000" d="M40.809 147.076c-14.632-7.924-31.15-22.368-37.563-38.713 15.855 8.173 29.214 21.946 37.563 38.713ZM39.853 122.504c-14.632-7.932-31.15-22.368-37.57-38.713 15.863 8.173 29.221 21.946 37.57 38.713ZM37.667 98.476C23.035 90.553 6.51 76.11.097 59.763c15.854 8.182 29.221 21.955 37.57 38.713ZM34.457 73.244c-13.609-9.91-28.25-26.514-32.708-43.66C16.51 39.907 28.13 55.436 34.457 73.244ZM30.317 53.777C21.107 39.057 13.248 17.697 15.047 0a96.848 96.848 0 0 1 15.27 53.777ZM32.425 63.034C36.3 44.667 45.732 21.998 59.315 9.23a113.956 113.956 0 0 1-26.89 53.803ZM35.43 83.827c5.542-18.797 17.214-41.578 32.432-53.7a118.348 118.348 0 0 1-32.433 53.7ZM38.76 109.126c5.552-18.789 17.215-41.578 32.441-53.69a118.286 118.286 0 0 1-32.44 53.69ZM40.439 139.971c5.551-18.797 17.215-41.578 32.44-53.69a118.384 118.384 0 0 1-32.44 53.69Z" opacity=".3"/><path fill="#40DCB6" d="M44.519 152.038c-8.926-11.777-17.215-29.207-17.12-44.167a82.77 82.77 0 0 1 17.12 44.167ZM51.422 132.992c-8.926-11.777-17.215-29.206-17.12-44.167a82.83 82.83 0 0 1 17.12 44.167ZM57.197 113.885c-8.926-11.777-17.215-29.207-17.128-44.167a82.837 82.837 0 0 1 17.128 44.167ZM62.551 93.463c-7.48-12.905-13.686-31.237-11.783-45.991a83.32 83.32 0 0 1 11.783 45.99ZM65.4 77.048c-2.582-14.797-2.031-34.11 4.872-46.843A81.37 81.37 0 0 1 65.4 77.048ZM64.135 84.911c8.745-12.413 23.102-25.946 37.623-30.308a83.219 83.219 0 0 1-37.623 30.308ZM60.02 101.875C70.17 89.78 86.334 77.065 101.904 73.83a86.606 86.606 0 0 1-41.883 28.045ZM54.736 122.394c10.148-12.096 26.321-24.82 41.892-28.054a86.688 86.688 0 0 1-41.892 28.054ZM46.438 146.481c10.157-12.104 26.321-24.819 41.892-28.054a86.663 86.663 0 0 1-41.892 28.054Z"/><path fill="#263238" d="M66.26 74.088v.258c0 .163-.06.447-.102.748-.12.697-.276 1.644-.474 2.848-.413 2.478-1.084 6.022-1.988 10.444-1.799 8.8-4.657 20.888-8.607 34.007a425.604 425.604 0 0 1-6.026 18.367 334.493 334.493 0 0 1-5.586 14.745c-1.695 4.156-3.09 7.519-4.123 9.808l-1.188 2.675-.318.68c-.077.155-.12.232-.13.224a.856.856 0 0 1 .078-.241c.07-.19.164-.422.267-.706.267-.654.637-1.548 1.093-2.675a531.707 531.707 0 0 0 3.96-9.859c1.635-4.173 3.486-9.188 5.465-14.78 1.98-5.592 3.977-11.803 5.957-18.35 3.942-13.111 6.886-25.163 8.753-33.93.956-4.387 1.722-7.94 2.16-10.4.242-1.196.431-2.142.578-2.84.06-.292.12-.533.163-.73.007-.101.03-.2.069-.293Z"/><path fill="#02367B" d="M58.514 199.999H27.15l-5.853-43.204h43.235l-6.017 43.204Z"/><path fill="#02367B" d="M68.421 156.356H17.414v6.719h51.007v-6.719Z"/><path fill="#263238" d="M68.413 163.188c0 .12-11.284.224-25.211.224-13.927 0-25.211-.104-25.211-.224 0-.12 11.293-.224 25.21-.224 13.919 0 25.212.095 25.212.224Z"/></svg>