<svg xmlns="http://www.w3.org/2000/svg" width="32" height="32" viewBox="0 0 32 32" fill="none">
  <path d="M16 16L28 4" stroke="#474747" stroke-width="2" stroke-linecap="round" stroke-linejoin="round"/>
  <path d="M24.488 7.51236C22.3606 5.37855 19.5096 4.12118 16.4994 3.98911C13.4891 3.85703 10.539 4.85989 8.23289 6.79917C5.92677 8.73846 4.43274 11.4729 4.0465 14.4611C3.66026 17.4494 4.40997 20.4738 6.14723 22.9357C7.8845 25.3976 10.4827 27.1176 13.4276 27.7552C16.3725 28.3928 19.4495 27.9017 22.0495 26.3789C24.6495 24.8561 26.5831 22.4127 27.4676 19.5323C28.352 16.6519 28.1229 13.5444 26.8255 10.8249" stroke="#474747" stroke-width="2" stroke-linecap="round" stroke-linejoin="round"/>
  <path d="M20.2368 11.7624C19.2459 10.7742 17.9401 10.1644 16.5462 10.0388C15.1524 9.91324 13.7586 10.2799 12.607 11.075C11.4554 11.8702 10.6187 13.0436 10.2422 14.3915C9.86573 15.7394 9.97331 17.1766 10.5462 18.4534C11.1192 19.7302 12.1213 20.766 13.3784 21.3809C14.6356 21.9957 16.0684 22.1507 17.428 21.8191C18.7876 21.4874 19.9881 20.6899 20.8209 19.5652C21.6537 18.4405 22.0662 17.0596 21.9868 15.6624" stroke="#474747" stroke-width="2" stroke-linecap="round" stroke-linejoin="round"/>
</svg>