<svg xmlns="http://www.w3.org/2000/svg" width="256" height="256" fill="currentColor"><path d="M165.66 101.66 139.31 128l26.35 26.34a8.004 8.004 0 0 1-11.32 11.32L128 139.31l-26.34 26.35a8.005 8.005 0 0 1-11.32-11.32L116.69 128l-26.35-26.34a8.004 8.004 0 0 1 11.32-11.32L128 116.69l26.34-26.35a8.002 8.002 0 0 1 11.32 0 8.005 8.005 0 0 1 0 11.32ZM232 128a103.995 103.995 0 0 1-64.201 96.083 103.993 103.993 0 0 1-113.338-22.544A104.002 104.002 0 0 1 70.22 41.527 104 104 0 0 1 128 24a104.108 104.108 0 0 1 104 104Zm-16 0a87.996 87.996 0 0 0-54.324-81.301A88 88 0 1 0 128 216a88.095 88.095 0 0 0 62.196-25.804A88.095 88.095 0 0 0 216 128Z"/></svg>