<svg xmlns="http://www.w3.org/2000/svg" width="23" height="16" viewBox="0 0 23 16" fill="none">
  <rect x="0.599609" width="22.4" height="16" rx="2" fill="white"/>
  <mask id="mask0_9203_87338" style="mask-type:luminance" maskUnits="userSpaceOnUse" x="0" y="0" width="23" height="16">
    <rect x="0.599609" width="22.4" height="16" rx="2" fill="white"/>
  </mask>
  <g mask="url(#mask0_9203_87338)">
    <rect x="0.599609" width="22.4" height="16" fill="#19BFBF"/>
    <path fill-rule="evenodd" clip-rule="evenodd" d="M11.7993 13.8666C15.0394 13.8666 17.666 11.24 17.666 7.99997C17.666 4.7599 15.0394 2.1333 11.7993 2.1333C8.55921 2.1333 5.93262 4.7599 5.93262 7.99997C5.93262 11.24 8.55921 13.8666 11.7993 13.8666ZM16.57 8.5333C16.372 10.3246 15.1882 11.8189 13.5731 12.4616C14.0932 11.4023 14.397 10.0224 14.4555 8.5333H16.57ZM13.3878 8.5333C13.3099 10.3325 12.8401 11.9227 12.1077 12.7902C12.0057 12.7967 11.9029 12.8 11.7993 12.8C11.6957 12.8 11.5929 12.7967 11.4909 12.7902C10.7584 11.9227 10.2886 10.3325 10.2108 8.5333H13.3878ZM9.14304 8.5333C9.20155 10.0224 9.50537 11.4023 10.0254 12.4616C8.41037 11.8189 7.2266 10.3246 7.02858 8.5333H9.14304ZM10.2108 7.46663H13.3878C13.3099 5.6674 12.8401 4.07722 12.1077 3.20972C12.0057 3.20325 11.9029 3.19997 11.7993 3.19997C11.6957 3.19997 11.5929 3.20325 11.4909 3.20972C10.7584 4.07722 10.2886 5.6674 10.2108 7.46663ZM10.0254 3.53839C9.50537 4.59761 9.20155 5.97754 9.14304 7.46663H7.02858C7.2266 5.6753 8.41037 4.18106 10.0254 3.53839ZM16.57 7.46663H14.4555C14.397 5.97754 14.0932 4.59761 13.5731 3.53839C15.1882 4.18106 16.372 5.6753 16.57 7.46663Z" fill="white"/>
  </g>
</svg>