<svg xmlns="http://www.w3.org/2000/svg" width="48" height="48" viewBox="0 0 48 48" fill="none">
  <circle cx="24" cy="24" r="24" fill="#D4D4D4"/>
  <path fill-rule="evenodd" clip-rule="evenodd" d="M34.2151 17.5069C34.2151 18.7814 33.1819 19.8146 31.9074 19.8146C30.6329 19.8146 29.5997 18.7814 29.5997 17.5069C29.5997 16.2324 30.6329 15.1992 31.9074 15.1992C33.1819 15.1992 34.2151 16.2324 34.2151 17.5069ZM18.4613 17.537C18.4613 18.8115 17.4282 19.8447 16.1537 19.8447C14.8791 19.8447 13.846 18.8115 13.846 17.537C13.846 16.2625 14.8791 15.2294 16.1537 15.2294C17.4282 15.2294 18.4613 16.2625 18.4613 17.537ZM34.3688 35.535V35.5354H30.215V35.5354C30.215 31.9668 27.4254 29.0739 23.9842 29.0739C20.543 29.0739 17.7534 31.9668 17.7534 35.5354V35.5354H13.5996V35.535C13.5996 29.6723 18.249 24.9196 23.9842 24.9196C29.7195 24.9196 34.3688 29.6723 34.3688 35.535Z" fill="#737373"/>
</svg>