<svg id="Calque_1" data-name="Calque 1" xmlns="http://www.w3.org/2000/svg" viewBox="0 0 318.83 243.44"><defs><style>.cls-1{fill:#f9e606;}.cls-2{fill:#53efca;}.cls-3{fill:#9e2e34;}.cls-4{fill:#fdd0b3;}.cls-5{fill:#010d3c;}.cls-6{fill:#fff;}.cls-7{fill:#dae8ff;}.cls-8{fill:#fd8c6d;}.cls-9{fill:#35100c;}.cls-10{fill:#e9804b;}.cls-11{fill:#d35c58;}.cls-12{fill:#ffeceb;}.cls-13{fill:#f9ae85;}</style></defs><circle class="cls-1" cx="234.33" cy="90.28" r="4.44"/><circle class="cls-1" cx="239.37" cy="95.61" r="3.61"/><circle class="cls-1" cx="234.21" cy="99.92" r="3.24"/><circle class="cls-1" cx="244.11" cy="104.8" r="3.19"/><circle class="cls-1" cx="238.58" cy="107.86" r="3.61"/><circle class="cls-1" cx="259.34" cy="103.01" r="3.56"/><circle class="cls-1" cx="264.68" cy="112.32" r="4.12"/><circle class="cls-1" cx="256.27" cy="111.48" r="3.33"/><circle class="cls-1" cx="265" cy="121.39" r="3.01"/><circle class="cls-1" cx="259.74" cy="121.9" r="3.1"/><circle class="cls-1" cx="294.49" cy="124.61" r="4.72"/><circle class="cls-1" cx="298.8" cy="143.18" r="3.68"/><circle class="cls-1" cx="291.76" cy="142.46" r="2.99"/><circle class="cls-1" cx="298.2" cy="132.19" r="4.44"/><circle class="cls-1" cx="291.41" cy="132.35" r="3.13"/><circle class="cls-1" cx="287.42" cy="162.44" r="2.78"/><circle class="cls-1" cx="277.24" cy="158.47" r="3.12"/><circle class="cls-1" cx="267.89" cy="154.06" r="3.19"/><circle class="cls-1" cx="258.25" cy="149.37" r="3.96"/><circle class="cls-1" cx="261.68" cy="160.89" r="3.19"/><circle class="cls-1" cx="272.06" cy="164.78" r="3.06"/><circle class="cls-1" cx="281.09" cy="167.54" r="3.54"/><circle class="cls-1" cx="242.36" cy="120.61" r="3.68"/><circle class="cls-1" cx="242.5" cy="128.6" r="3.33"/><circle class="cls-1" cx="231.47" cy="129.23" r="4.24"/><circle class="cls-1" cx="222.29" cy="128.77" r="3.12"/><circle class="cls-1" cx="224.13" cy="121.85" r="3.19"/><circle class="cls-1" cx="233.83" cy="120.9" r="3.33"/><circle class="cls-1" cx="214.05" cy="127.04" r="3.82"/><path class="cls-2" d="M218.88,125.38c12.09-2.28,24.59-3.24,36.16.86-1.13-1-2.22-2-3.26-3-7.93-8.18-12.4-18-16.87-28.31-.54-1.24,1.48-1.84,2-.62,4.45,10.21,8.85,19.91,16.84,27.95a62.1,62.1,0,0,0,11.37,8.53A69.54,69.54,0,0,1,258,106.37c-.14-1.35,2-1.39,2.1-.06a67,67,0,0,0,8.71,26.7c9.45,6,18.57,12.6,26.09,20.83a45.83,45.83,0,0,1-.32-26.13c.36-1.3,2.41-.8,2,.51a43.88,43.88,0,0,0,1.67,28.84c.11.29,2.06,3.39,3,4.79a70.73,70.73,0,0,1,11.52,29.72c.2,1.33-1.9,1.37-2.1.05a66.87,66.87,0,0,0-3.18-12.53c-9.64-17.09-34.38-12.34-47.58-25.37-1-.95.49-2.48,1.45-1.53,11.54,11.4,31.52,9.21,43.13,19.77a80.14,80.14,0,0,0-22.94-27.57c-4-3.14-31.05-25.77-62.07-17C218.18,127.64,217.55,125.63,218.88,125.38Z"/><circle class="cls-1" cx="67.14" cy="55.57" r="5.57"/><circle class="cls-1" cx="63.91" cy="64.19" r="4.52"/><circle class="cls-1" cx="71.97" cy="66.64" r="4.06"/><circle class="cls-1" cx="62.92" cy="77.09" r="4"/><circle class="cls-1" cx="70.79" cy="77.94" r="4.52"/><circle class="cls-1" cx="44.47" cy="82.46" r="4.47"/><circle class="cls-1" cx="42.85" cy="95.8" r="5.16"/><circle class="cls-1" cx="52.13" cy="90.73" r="4.18"/><circle class="cls-1" cx="46.89" cy="106.43" r="3.77"/><circle class="cls-1" cx="53.21" cy="104.45" r="3.89"/><circle class="cls-1" cx="14.42" cy="124.5" r="5.92"/><circle class="cls-1" cx="18.5" cy="148.04" r="4.61"/><circle class="cls-1" cx="26.27" cy="143.78" r="3.74"/><circle class="cls-1" cx="13.83" cy="135.06" r="5.57"/><circle class="cls-1" cx="21.75" cy="131.94" r="3.92"/><circle class="cls-1" cx="41.01" cy="164.72" r="3.48"/><circle class="cls-1" cx="50.82" cy="155.18" r="3.91"/><circle class="cls-1" cx="59.47" cy="145.53" r="4"/><circle class="cls-1" cx="68.31" cy="135.43" r="4.96"/><circle class="cls-1" cx="69.97" cy="150.39" r="4"/><circle class="cls-1" cx="59.88" cy="159.95" r="3.83"/><circle class="cls-1" cx="50.8" cy="167.52" r="4.44"/><circle class="cls-1" cx="72.64" cy="94.5" r="4.61"/><circle class="cls-1" cx="76.37" cy="103.78" r="4.18"/><circle class="cls-1" cx="89.41" cy="99.14" r="5.31"/><circle class="cls-1" cx="99.78" cy="94.14" r="3.91"/><circle class="cls-1" cx="94.29" cy="87.04" r="4"/><circle class="cls-1" cx="82.63" cy="90.67" r="4.18"/><circle class="cls-1" cx="108.45" cy="88.13" r="4.78"/><path class="cls-2" d="M102.06,88.57c-15.06,3.25-30,8.23-41.31,18.6.83-1.67,1.6-3.36,2.27-5.1C68.2,88.76,68.55,75.2,68.7,61.16c0-1.69-2.6-1.4-2.62.28-.15,13.94-.52,27.28-5.82,40.45-2.27,5.63-5.53,10.47-9,15.38a87.23,87.23,0,0,0-3.58-31.62c-.49-1.62-2.94-.65-2.45,1a83.88,83.88,0,0,1,3,35.06c-8,11.54-15.29,23.58-20,36.75a57.33,57.33,0,0,0-12.35-30.31c-1.06-1.32-3.17.24-2.11,1.58a55.08,55.08,0,0,1,12.13,34.1c0,.38-.73,4.91-1.16,7a88.55,88.55,0,0,0,1.18,39.92c.42,1.64,2.87.66,2.45-1a84.32,84.32,0,0,1-2.44-16c2.81-24.42,33.67-31,42.56-52.46a1.32,1.32,0,0,0-2.42-1C58.31,159,34.19,166.19,25.93,184c.85-14.93,5.54-29.46,13-43,3.09-5.57,23.28-44.87,63.36-49.84C104,90.83,103.72,88.21,102.06,88.57Z"/><path class="cls-3" d="M135.09,73.48a11.2,11.2,0,0,0-3.65,1.1,3.48,3.48,0,0,0-1.9,3.1,3.8,3.8,0,0,0,2.27,2.84c1.14.57,2.41.81,3.58,1.29a2.28,2.28,0,0,1,1.34,1.08c.79,1.92-3.26,3.46-2.33,5.32.38.77,1.38.93,2.11,1.38,1.52,1,1.67,3.15,2.84,4.51a4.86,4.86,0,0,0,4.37,1.41,12.28,12.28,0,0,0,4.41-1.8,50.61,50.61,0,0,0,6.45-4.54c2.66-2.19,5.27-5,5.29-8.48a11.47,11.47,0,0,0-1.56-5.21,39.8,39.8,0,0,0-3-4.93c-.75-1.07-1.58-2.44-3.07-2.29a7.91,7.91,0,0,0-2.21.75q-1.37.57-2.76,1.08-2.81,1-5.68,1.86C139.47,72.55,137.29,73.07,135.09,73.48Z"/><path class="cls-4" d="M133.11,186c1.93.24,10.66,1.72,10.66,1.72l-.39-6.7c-.21-.2-8.4-1.22-11.45-1.6"/><path class="cls-5" d="M119.8,175.56h-.11a.22.22,0,0,0-.21.13,68.26,68.26,0,0,0-3.29,12.11c-.36,1.94-.67,4-.92,6.06v.07a17,17,0,0,0,.83,8.43,1.4,1.4,0,0,0,.84.81c.77.28,2.18.63,3-.2,1.09-1.12,1.28-2.19,1.44-4.36a16.69,16.69,0,0,1,3.65-7.67,45.82,45.82,0,0,1,6.18-3.5,1.58,1.58,0,0,0,.87-1.23.07.07,0,0,1,.05-.06l.7-.37a1,1,0,0,0,.53-.69.06.06,0,0,0,0,0,1,1,0,0,0-.17-.81l-.74-1a.17.17,0,0,1,0-.07,6.8,6.8,0,0,1,1-2.4,1.13,1.13,0,0,0,.19-.44,1.06,1.06,0,0,0-.06-.61,1,1,0,0,0-.81-.64,30.19,30.19,0,0,1-7.51-2A12.2,12.2,0,0,0,119.8,175.56Zm-4,18.23a.1.1,0,0,1-.07-.1q.39-3.13.89-5.81A68,68,0,0,1,119.8,176a.08.08,0,0,1,.08-.05c.26,0,.52,0,.79.05a.08.08,0,0,1,.06,0,.06.06,0,0,1,0,.07,68.93,68.93,0,0,0-3.22,11.91c-.34,1.87-.64,3.83-.88,5.83a.16.16,0,0,1,0,.07h-.07A6.74,6.74,0,0,0,115.78,193.79Zm3.61,9a.06.06,0,0,1,0,.07h0s0,0,0,.06a2.71,2.71,0,0,1-2.29-.1,1,1,0,0,1-.59-.57,16.43,16.43,0,0,1-.84-7.93h0s0,0,0-.05a.08.08,0,0,1,.07,0,10.62,10.62,0,0,1,2.22.7.08.08,0,0,1,0,.08C117.74,200.22,118.88,202.16,119.39,202.75Zm1.53-3.91c-.15,1.82-.33,2.74-1.1,3.62a.07.07,0,0,1-.06,0,.06.06,0,0,1-.06,0,4.55,4.55,0,0,1-.84-1.74,12.23,12.23,0,0,1-.36-1.94v0a.11.11,0,0,1,.06-.07,5.83,5.83,0,0,1,2.29.07A.07.07,0,0,1,120.92,198.84Zm10.78-14.07a.11.11,0,0,1,0,.08c0,.38-.06.78-.07,1.19a1.41,1.41,0,0,1-.12.49.08.08,0,0,1-.09,0,.07.07,0,0,1-.07-.06l-.12-.41a.67.67,0,0,0-.53-.48.65.65,0,0,0-.31,0,.68.68,0,0,0-.48.53.65.65,0,0,0,0,.31l.26.91a.08.08,0,0,1,0,.1l-.94.48h-.07a.08.08,0,0,1,0-.05l-.29-1a.69.69,0,0,0-.53-.48.65.65,0,0,0-.31,0,.69.69,0,0,0-.46.84l.37,1.29a.08.08,0,0,1,0,.1l-.79.44H127a.08.08,0,0,1,0,0l-.47-1.22a.66.66,0,0,0-.51-.43.63.63,0,0,0-.36,0,.66.66,0,0,0-.38.35.67.67,0,0,0,0,.52l.56,1.47a.08.08,0,0,1,0,.11c-.26.16-.47.3-.64.43a.09.09,0,0,1-.07,0,.07.07,0,0,1-.06,0l-.64-1.18a.65.65,0,0,0-.47-.35.71.71,0,0,0-.45.07.68.68,0,0,0-.34.48.61.61,0,0,0,.07.44l.86,1.61a.07.07,0,0,1,0,.09,4.85,4.85,0,0,0-.29.41l-.07,0a.1.1,0,0,1-.07,0l-.69-.88a.68.68,0,0,0-.41-.25.73.73,0,0,0-.55.14.67.67,0,0,0-.24.41s0,0,0,0a.69.69,0,0,0,.14.5l1,1.34a.11.11,0,0,1,0,.1l-.3.56a.07.07,0,0,1,0,0,.11.11,0,0,1-.08,0l-.69-.55a.69.69,0,0,0-1,.12.69.69,0,0,0-.14.5.67.67,0,0,0,.26.45l1,.77a.08.08,0,0,1,0,.1l-.2.5a.08.08,0,0,1-.11,0l-.72-.27-.12,0a.68.68,0,0,0-.76.43.72.72,0,0,0,0,.52.7.7,0,0,0,.38.36l.77.28a.09.09,0,0,1,0,.1h0a7.27,7.27,0,0,0-.23,1,.11.11,0,0,1,0,.06.09.09,0,0,1-.07,0,8.41,8.41,0,0,0-1.88-.14s0,0-.07,0a.06.06,0,0,1,0-.07h0c.31-1.45,1.48-6.37,3.36-8.75s7.63-4.11,9.35-4.57A.11.11,0,0,1,131.7,184.77Zm-9.49-8.48s.05,0,.06.05a.09.09,0,0,1,0,.07,55.77,55.77,0,0,0-3.38,11.83c-.19,1-.36,2.11-.51,3.15s-.26,2-.32,3c0,0,0,.06,0,.07a.08.08,0,0,1-.08,0c-.19-.08-.48-.2-.84-.32A.08.08,0,0,1,117,194c.26-2.13.56-4.09.89-5.9a68,68,0,0,1,3.25-12,.08.08,0,0,1,.09,0C121.59,176.16,121.91,176.22,122.21,176.29Z"/><path class="cls-6" d="M119.33,202.8a2.6,2.6,0,0,1-2.22-.1.94.94,0,0,1-.55-.52,16.39,16.39,0,0,1-.83-7.89,10.48,10.48,0,0,1,2.2.69C117.65,200.19,118.78,202.16,119.33,202.8Z"/><path class="cls-6" d="M115.65,194.27s0,0,0-.05a.08.08,0,0,1,.07,0,10.62,10.62,0,0,1,2.22.7.08.08,0,0,1,0,.08c-.28,5.23.86,7.17,1.37,7.76a.06.06,0,0,1,0,.07h0s0,0,0,.06a2.71,2.71,0,0,1-2.29-.1,1,1,0,0,1-.59-.57,16.43,16.43,0,0,1-.84-7.93Zm2.19.77a9.67,9.67,0,0,0-2-.65,16.2,16.2,0,0,0,.83,7.75.85.85,0,0,0,.5.48,2.72,2.72,0,0,0,2.06.16C118.65,202.09,117.58,200.07,117.84,195Z"/><path class="cls-6" d="M119.76,202.41a4.64,4.64,0,0,1-.81-1.71,11.39,11.39,0,0,1-.36-1.93,5.51,5.51,0,0,1,2.25.06C120.69,200.72,120.49,201.57,119.76,202.41Z"/><path class="cls-6" d="M118.5,198.75a.11.11,0,0,1,.06-.07,5.83,5.83,0,0,1,2.29.07.07.07,0,0,1,.07.09c-.15,1.82-.33,2.74-1.1,3.62a.07.07,0,0,1-.06,0,.06.06,0,0,1-.06,0,4.55,4.55,0,0,1-.84-1.74,12.23,12.23,0,0,1-.36-1.94Zm2.25.15a5.45,5.45,0,0,0-2.07-.07,11.16,11.16,0,0,0,.35,1.84,4.7,4.7,0,0,0,.73,1.6C120.43,201.46,120.61,200.59,120.75,198.9Z"/><path class="cls-6" d="M120.9,198.24a7.7,7.7,0,0,0-1.91-.14c.31-1.45,1.48-6.35,3.35-8.72s7.7-4.1,9.3-4.54c0,.45-.06.86-.07,1.19a1,1,0,0,1-.11.46l-.12-.42a.77.77,0,0,0-.6-.54.84.84,0,0,0-.35,0,.77.77,0,0,0-.54.6.84.84,0,0,0,0,.35l.26.9-.94.48-.28-1a.76.76,0,0,0-.6-.54.69.69,0,0,0-.35,0,.75.75,0,0,0-.54.6.7.7,0,0,0,0,.35l.37,1.29-.79.43-.47-1.22a.75.75,0,0,0-.57-.48.72.72,0,0,0-.41,0,.77.77,0,0,0-.43.4.84.84,0,0,0,0,.17.71.71,0,0,0,0,.41l.56,1.47c-.24.16-.46.3-.64.44l-.64-1.18a.75.75,0,0,0-.54-.39.68.68,0,0,0-.5.08.75.75,0,0,0-.39.53.8.8,0,0,0,.08.5l.87,1.61c-.1.13-.19.26-.29.41l-.69-.88a.74.74,0,0,0-.47-.28.79.79,0,0,0-.61.15.8.8,0,0,0-.28.46v.05a.82.82,0,0,0,.16.57l1.06,1.33q-.17.28-.3.57l-.7-.55a1,1,0,0,0-.33-.15.77.77,0,0,0-.74.28.7.7,0,0,0-.16.57.75.75,0,0,0,.28.51l1,.77-.2.5-.72-.27-.13,0a.75.75,0,0,0-.85.48.65.65,0,0,0,0,.13.74.74,0,0,0,.06.46.78.78,0,0,0,.42.4l.77.28A6.93,6.93,0,0,0,120.9,198.24Z"/><path class="cls-6" d="M120.58,188.74a.84.84,0,0,0,1-.67.82.82,0,0,0-.66-.95.81.81,0,0,0-1,.66A.82.82,0,0,0,120.58,188.74Zm.36-2a.82.82,0,1,0-.66-1A.83.83,0,0,0,120.94,186.77Z"/><path class="cls-6" d="M118,194.36c-.21-.09-.5-.2-.85-.32a75.3,75.3,0,0,1,4.14-17.85l.93.18a56.57,56.57,0,0,0-3.38,11.85c-.19,1-.36,2.05-.51,3.16S118,193.46,118,194.36Z"/><path class="cls-6" d="M117.93,188.13a68,68,0,0,1,3.25-12,.08.08,0,0,1,.09,0c.32,0,.64.11.94.18,0,0,.05,0,.06.05a.09.09,0,0,1,0,.07,55.77,55.77,0,0,0-3.38,11.83c-.19,1-.36,2.11-.51,3.15s-.26,2-.32,3c0,0,0,.06,0,.07a.08.08,0,0,1-.08,0c-.19-.08-.48-.2-.84-.32A.08.08,0,0,1,117,194C117.3,191.9,117.6,189.94,117.93,188.13Zm3.39-11.84a74.59,74.59,0,0,0-4.1,17.69l.67.26c.07-.91.18-1.87.32-2.87s.32-2.1.52-3.16a57.51,57.51,0,0,1,3.34-11.78Z"/><path class="cls-6" d="M116.55,193.87l-.75-.17a75.42,75.42,0,0,1,4.08-17.64q.39,0,.78.06A68.34,68.34,0,0,0,117.44,188Q116.95,190.71,116.55,193.87Z"/><path class="cls-6" d="M116.6,187.88A68,68,0,0,1,119.8,176a.08.08,0,0,1,.08-.05c.26,0,.52,0,.79.05a.08.08,0,0,1,.06,0,.06.06,0,0,1,0,.07,68.93,68.93,0,0,0-3.22,11.91c-.34,1.87-.64,3.83-.88,5.83a.16.16,0,0,1,0,.07h-.07a6.74,6.74,0,0,0-.75-.17.1.1,0,0,1-.07-.1Q116.1,190.56,116.6,187.88Zm3.34-11.73a75.47,75.47,0,0,0-4,17.49c.19,0,.39.08.59.13.24-2,.54-3.91.88-5.75a69.46,69.46,0,0,1,3.18-11.83Z"/><path class="cls-4" d="M161.58,216.13c1.66-1,9.41-5.28,9.41-5.28l-4.47-5c-.29,0-7.34,4.27-10,5.87"/><path class="cls-5" d="M144.69,216.28l-.09.06a.21.21,0,0,0-.08.23,68.44,68.44,0,0,0,5,11.53c.93,1.75,2,3.53,3.05,5.31l0,.06a17,17,0,0,0,5.9,6.09,1.42,1.42,0,0,0,1.16.11c.78-.26,2.1-.86,2.21-2,.16-1.56-.36-2.52-1.59-4.32a16.72,16.72,0,0,1-1.92-8.27,45.8,45.8,0,0,1,2.67-6.59,1.6,1.6,0,0,0-.08-1.5.06.06,0,0,1,0-.07l.32-.73a1.06,1.06,0,0,0,0-.87s0,0,0,0a1.05,1.05,0,0,0-.64-.53l-1.22-.35-.05,0a6.69,6.69,0,0,1-.7-2.53,1.21,1.21,0,0,0-.12-.46,1.11,1.11,0,0,0-.43-.43,1,1,0,0,0-1,0c-1.78,1-5.07,2.69-7.15,3.08A12.16,12.16,0,0,0,144.69,216.28Zm8.2,16.76a.08.08,0,0,1-.11,0c-1.11-1.8-2.08-3.5-2.93-5.1A68.43,68.43,0,0,1,145,216.65a.09.09,0,0,1,0-.1l.65-.45h.08a.1.1,0,0,1,0,.06,68.51,68.51,0,0,0,4.89,11.32c.89,1.67,1.88,3.39,2.94,5.12a.16.16,0,0,1,0,.07.07.07,0,0,1,0,.05A6.3,6.3,0,0,0,152.89,233Zm8.4,4.77.06,0h0a.11.11,0,0,1,0,.08c-.15.38-.6.93-1.85,1.34a1,1,0,0,1-.82-.08,16.25,16.25,0,0,1-5.59-5.68h0a.06.06,0,0,1,0-.06.07.07,0,0,1,0-.06,10.24,10.24,0,0,1,2.17-.83.08.08,0,0,1,.09,0C158.42,236.86,160.52,237.66,161.29,237.81Zm-1.24-4c1,1.53,1.45,2.36,1.4,3.53a.07.07,0,0,1,0,.06.1.1,0,0,1-.07,0,4.63,4.63,0,0,1-1.74-.85,11.23,11.23,0,0,1-1.49-1.3l0,0a.08.08,0,0,1,0-.08,5.77,5.77,0,0,1,1.83-1.38A.09.09,0,0,1,160.05,233.79Zm-.32-17.71a.08.08,0,0,1,.07,0c.21.33.44.65.69,1a1.33,1.33,0,0,1,.21.47.07.07,0,0,1,0,.08.08.08,0,0,1-.09,0l-.36-.25a.65.65,0,0,0-.71,0,.74.74,0,0,0-.23.2.69.69,0,0,0-.05.72.66.66,0,0,0,.21.23l.77.55a.09.09,0,0,1,0,.1l-.43,1s0,0-.06,0a.09.09,0,0,1-.07,0l-.84-.6a.67.67,0,0,0-.71,0,.64.64,0,0,0-.23.2.69.69,0,0,0,.16.95l1.09.78a.08.08,0,0,1,0,.1c-.12.28-.23.56-.34.83a.06.06,0,0,1-.06,0,.09.09,0,0,1-.07,0l-1.12-.67a.67.67,0,0,0-.93.23.68.68,0,0,0-.08.52.7.7,0,0,0,.31.42l1.36.8a.08.08,0,0,1,0,.1c-.1.29-.18.54-.23.74a.08.08,0,0,1-.05.05h-.07l-1.23-.52a.68.68,0,1,0-.54,1.24l1.68.72a.08.08,0,0,1,.05.08c0,.16,0,.32,0,.5a.09.09,0,0,1,0,.07.1.1,0,0,1-.07,0l-1.09-.26a.67.67,0,0,0-.48.06.68.68,0,0,0-.28.92l0,0a.71.71,0,0,0,.42.3l1.66.4a.09.09,0,0,1,.06.06l.12.63a.08.08,0,0,1,0,.07.09.09,0,0,1-.07,0h-.89a.68.68,0,0,0-.67.68.66.66,0,0,0,.2.48.67.67,0,0,0,.48.2h1.25a.09.09,0,0,1,.08.06l.15.52a.08.08,0,0,1-.05.11l-.73.24-.11,0a.69.69,0,0,0-.33.81.71.71,0,0,0,.34.4.67.67,0,0,0,.52,0l.77-.25a.1.1,0,0,1,.1,0h0a8.49,8.49,0,0,0,.46,1s0,0,0,.07a.07.07,0,0,1,0,0,7.43,7.43,0,0,0-1.56,1.06.07.07,0,0,1-.07,0,.07.07,0,0,1-.06,0h0c-.66-1.33-2.81-5.91-2.82-9s3.42-8,4.47-9.39A.13.13,0,0,1,159.73,216.08Zm-12.7-.73h.07s.05,0,.05.05a55.89,55.89,0,0,0,4.72,11.36c.5,1,1,1.89,1.56,2.79s1.07,1.76,1.6,2.53a.19.19,0,0,1,0,.08.15.15,0,0,1-.06.05c-.2.06-.5.15-.85.28a.09.09,0,0,1-.11,0q-1.68-2.74-3-5.17a68.49,68.49,0,0,1-4.91-11.39.1.1,0,0,1,0-.1C146.46,215.63,146.75,215.48,147,215.35Z"/><path class="cls-6" d="M161.27,237.89c-.15.39-.59.9-1.8,1.3a.9.9,0,0,1-.75-.07,16.34,16.34,0,0,1-5.56-5.65,10.54,10.54,0,0,1,2.16-.83C158.34,236.89,160.44,237.73,161.27,237.89Z"/><path class="cls-6" d="M153.08,233.51a.06.06,0,0,1,0-.06.07.07,0,0,1,0-.06,10.24,10.24,0,0,1,2.17-.83.08.08,0,0,1,.09,0c3,4.27,5.14,5.07,5.91,5.22l.06,0h0a.11.11,0,0,1,0,.08c-.15.38-.6.93-1.85,1.34a1,1,0,0,1-.82-.08,16.25,16.25,0,0,1-5.59-5.68Zm2.2-.77a10.11,10.11,0,0,0-2,.76,16.24,16.24,0,0,0,5.48,5.55.87.87,0,0,0,.69.06,2.66,2.66,0,0,0,1.7-1.16C160.3,237.75,158.2,236.84,155.28,232.74Z"/><path class="cls-6" d="M161.37,237.32a4.59,4.59,0,0,1-1.71-.84,11.57,11.57,0,0,1-1.48-1.29,5.68,5.68,0,0,1,1.8-1.35C161,235.42,161.41,236.2,161.37,237.32Z"/><path class="cls-6" d="M158.1,235.23a.08.08,0,0,1,0-.08,5.77,5.77,0,0,1,1.83-1.38.09.09,0,0,1,.11,0c1,1.53,1.45,2.36,1.4,3.53a.07.07,0,0,1,0,.06.1.1,0,0,1-.07,0,4.63,4.63,0,0,1-1.74-.85,11.23,11.23,0,0,1-1.49-1.3ZM160,234a5.59,5.59,0,0,0-1.67,1.24,13.3,13.3,0,0,0,1.42,1.22,5,5,0,0,0,1.57.8C161.3,236.15,160.9,235.36,160,234Z"/><path class="cls-6" d="M159.66,233.34a8,8,0,0,0-1.58,1.08c-.65-1.33-2.79-5.89-2.8-8.91s3.47-8,4.45-9.34c.25.38.49.71.69,1a1.16,1.16,0,0,1,.2.42l-.36-.25a.75.75,0,0,0-.8,0,1,1,0,0,0-.26.23.77.77,0,0,0,0,.81.71.71,0,0,0,.23.26l.77.54-.44,1-.84-.6a.77.77,0,0,0-.8,0,.75.75,0,0,0-.26.24.73.73,0,0,0-.05.8.71.71,0,0,0,.23.26l1.09.78c-.12.28-.23.56-.34.83l-1.13-.67a.77.77,0,0,0-.75,0,.73.73,0,0,0-.3.28.78.78,0,0,0-.08.58.85.85,0,0,0,.06.17.83.83,0,0,0,.29.3l1.35.8c-.09.27-.17.52-.23.75l-1.24-.53a.73.73,0,0,0-.66,0,.77.77,0,0,0-.34.37.76.76,0,0,0,.4,1l1.68.72a4.63,4.63,0,0,0,0,.51l-1.09-.26a.73.73,0,0,0-.54.07.78.78,0,0,0-.32,1l0,0a.78.78,0,0,0,.47.35l1.66.39.12.63h-.89a1.06,1.06,0,0,0-.35.09.79.79,0,0,0-.41.68.87.87,0,0,0,.09.36.62.62,0,0,0,.14.18.71.71,0,0,0,.54.22h1.25l.15.52-.72.24-.13,0a.77.77,0,0,0-.37.91.69.69,0,0,0,.05.13.92.92,0,0,0,.33.32.73.73,0,0,0,.58,0l.78-.25A8.61,8.61,0,0,0,159.66,233.34Z"/><path class="cls-6" d="M153.5,226.1a.82.82,0,0,0,.34-1.11.84.84,0,0,0-1.12-.34.82.82,0,1,0,.78,1.45Zm-.94-1.76a.83.83,0,1,0-1.12-.34A.84.84,0,0,0,152.56,224.34Z"/><path class="cls-6" d="M155,232.13a7.59,7.59,0,0,0-.86.28,75,75,0,0,1-7.87-16.55c.27-.16.55-.3.84-.44a55.84,55.84,0,0,0,4.72,11.38c.48.9,1,1.83,1.57,2.79S154.45,231.38,155,232.13Z"/><path class="cls-6" d="M151.05,227.28a68.49,68.49,0,0,1-4.91-11.39.1.1,0,0,1,0-.1c.28-.16.57-.31.85-.44h.07a.08.08,0,0,1,.05.05,55.89,55.89,0,0,0,4.72,11.36c.5,1,1,1.89,1.56,2.79s1.07,1.76,1.6,2.53a.19.19,0,0,1,0,.08.15.15,0,0,1-.06.05c-.2.06-.5.15-.85.28a.09.09,0,0,1-.11,0Q152.34,229.71,151.05,227.28Zm-4.72-11.38a74.49,74.49,0,0,0,7.8,16.4l.69-.22c-.51-.75-1-1.57-1.54-2.44s-1.06-1.85-1.56-2.8a57.17,57.17,0,0,1-4.71-11.3C146.78,215.65,146.55,215.77,146.33,215.9Z"/><path class="cls-6" d="M153.54,232.63c-.22.1-.46.21-.69.34a75.13,75.13,0,0,1-7.79-16.35c.21-.16.43-.3.65-.45a68.66,68.66,0,0,0,4.89,11.34C151.46,229.11,152.43,230.82,153.54,232.63Z"/><path class="cls-6" d="M149.85,227.91A68.43,68.43,0,0,1,145,216.65a.09.09,0,0,1,0-.1l.65-.45h.08a.1.1,0,0,1,0,.06,68.51,68.51,0,0,0,4.89,11.32c.89,1.67,1.88,3.39,2.94,5.12a.08.08,0,0,1,0,.07.07.07,0,0,1,0,.05,6.3,6.3,0,0,0-.69.33.08.08,0,0,1-.11,0C151.67,231.21,150.7,229.51,149.85,227.91Zm-4.69-11.26a75.64,75.64,0,0,0,7.72,16.2l.54-.26c-1-1.69-2-3.39-2.89-5a69,69,0,0,1-4.87-11.24Z"/><path class="cls-4" d="M121.07,18.26l-.39-2.62-1.25-7.87a2.48,2.48,0,0,0-1.36,2.08,8.87,8.87,0,0,0,0,2.47l-.63.17-3.49-7.82a.6.6,0,0,0-1.11.44l1.93,5.47-.42.18-3.92-5.91a.6.6,0,0,0-.85-.17.61.61,0,0,0-.18.8l3.46,6-.53.28-3.63-4.1a.61.61,0,0,0-.8-.09.6.6,0,0,0-.12.87l3.55,4.5-.43.38-3.31-2.1a.37.37,0,0,0-.47.57L114,19.3l3.09,2.9,11.58,22.61c2.3,5.09,1.91,4.87,5.82,14,4.6,10.69,5.11,9.93,9.33,21.18,4.67-1.7,10.74-3.65,10.76-3.76C155.13,74.09,121.07,18.26,121.07,18.26Z"/><path class="cls-3" d="M143.79,68.31c4.41-2.68,5.05-.87,7.46-5,3.38-5.76,6.91-11.17,11.57-11.51s4.34.34,4.34.34a5.52,5.52,0,0,1,5.67.8c3,2.2,5.91,6.22,5.91,10.8s1.56,7.53-.36,11.43-.93,7.11-6.39,9.65-3.54,2-10.45,7.45-4.5.51-9.33,7.62"/><path class="cls-3" d="M130.79,73.28c.26-.26.51-.52.8-.76C131.33,72.78,131.06,73,130.79,73.28Z"/><path class="cls-7" d="M152.64,153.48c-.64-18.07,5.05-24.44,5.3-24.7l.09-.1,15.59.57s.08,10.95,1.47,15.74c3.46.49,35.89,15.34,42.33,27.3a6,6,0,0,1,.13,5.69c-7.44,15.6-48.05,36.41-48.05,36.41l-7.07-9.14L201.1,176S153.23,170.26,152.64,153.48Z"/><path class="cls-7" d="M172.72,129.05,165.4,145.9s44.2,44.11,28.91,48.48S138,188.63,138,188.63V177.55l39.23,5.89S154.48,164.18,145,151.16c-8-11,7-27.57,7-27.57Z"/><path class="cls-4" d="M157.26,90.86l4.68-23.72,10.22,3.49-.35.69a31.6,31.6,0,0,0-1.26,10.27,11.91,11.91,0,0,0,2,6.39l1.57,4Z"/><path class="cls-8" d="M148.08,61.06l6.73,14.56,4.84,3.12s-2.07,7.53,5.09,10.12c8.24,3,5.87-6.55,5.87-6.55l13.71,4.78.18.07,0,.19c-1,5.22-3.37,51-3.95,51.86-.06.08-32.45-5.55-32.51-5.56l-.22-.06-2.37-.89a27.76,27.76,0,0,0,3.92-13.53c0-2.93-.39-20.08-5.55-33.34C139.93,75.92,137,67.26,137,67.26Z"/><path class="cls-4" d="M224.48,37.57l1.09-2.41,3.35-7.24a2.48,2.48,0,0,1,.74,2.37,9.06,9.06,0,0,1-.64,2.39l.56.34,5.49-6.58a.6.6,0,0,1,1,.73l-3.35,4.74.36.29,5.38-4.63a.6.6,0,0,1,.81.89l-5,4.85.43.41,4.61-2.95a.59.59,0,0,1,.79.13.6.6,0,0,1-.11.87l-4.65,3.35.31.49,3.76-1.12a.37.37,0,0,1,.44.2.36.36,0,0,1-.14.48L231,40.49l-3.76,1.95-17.3,18.61c-3.59,4.27-3.16,4.16-9.41,11.89-7.32,9-7.62,8.16-14.74,17.84-4-2.91-9.33-6.43-9.33-6.55C176.52,82,224.48,37.57,224.48,37.57Z"/><path class="cls-8" d="M170.51,88.9a.27.27,0,0,0,.07.26l11.15,9.9c6.69-9.51,1.08-4.41,9.27-12.68-2.82-2.21-6.85-6.83-9.34-8.81C170.93,87.08,170.8,86.71,170.51,88.9Z"/><path class="cls-4" d="M158.88,64.1c0,7.31,2.57,15.88,8,15.88s8.34-8.44,8.34-15.75-3-10.72-8.34-10.72S158.88,56.79,158.88,64.1Z"/><path class="cls-3" d="M163.16,64.14a12.77,12.77,0,0,1,1.94-.48c.3,0,.61-.08.92-.09a2.88,2.88,0,0,0-.08.87c-.28,0-.57,0-.85.09a13.89,13.89,0,0,0-2,.48c-.49.17-.8.3-.81.31l-.12-.72A6.41,6.41,0,0,1,163.16,64.14Z"/><polygon class="cls-3" points="162.17 65.31 162.17 65.31 162.17 65.31 162.17 65.31 162.17 65.31 162.17 65.31"/><path class="cls-3" d="M172.26,64a12.53,12.53,0,0,0-2-.15,7.5,7.5,0,0,0-.93.06,2.53,2.53,0,0,1,.21.85l.86-.06a13.46,13.46,0,0,1,2,.16c.52.08.84.16.85.16l0-.73A7.25,7.25,0,0,0,172.26,64Z"/><polygon class="cls-3" points="173.41 64.98 173.41 64.98 173.41 64.98 173.41 64.98 173.41 64.98 173.41 64.98"/><path class="cls-9" d="M164.45,67.66a2.31,2.31,0,0,1-.52-.06,3.59,3.59,0,0,1-1.67-.89.25.25,0,0,1,.35-.35,3.31,3.31,0,0,0,1.43.75,3.35,3.35,0,0,0,1.88-.3.25.25,0,0,1,.33.12.25.25,0,0,1-.12.33A4.36,4.36,0,0,1,164.45,67.66Z"/><path class="cls-9" d="M171.15,68a3.31,3.31,0,0,1-1.58-.53.25.25,0,0,1-.09-.34.26.26,0,0,1,.35-.08,2.59,2.59,0,0,0,1.46.44,1.76,1.76,0,0,0,1-.53.25.25,0,0,1,.35,0,.24.24,0,0,1,0,.35,2.3,2.3,0,0,1-1.33.7Z"/><path class="cls-10" d="M168.15,71.68a3.92,3.92,0,0,1-.76,0c-.11,0-.19-.09-.17-.17a.19.19,0,0,1,.22-.14c.62.06,1,0,1.18-.16s0-.42-.05-.51c-1.63-3-1.25-4-1-4.55a.88.88,0,0,0,.06-.17.21.21,0,0,1,.24-.13c.11,0,.18.1.16.18a1,1,0,0,1-.07.21c-.18.45-.54,1.41,1,4.32a.69.69,0,0,1,0,.83A1.17,1.17,0,0,1,168.15,71.68Z"/><path class="cls-10" d="M167.87,71.74l-.48,0a.31.31,0,0,1-.19-.09.17.17,0,0,1,0-.14.25.25,0,0,1,.28-.18c.59.06,1,0,1.13-.14s0-.38-.05-.46c-1.65-3-1.26-4-1.05-4.59v0a1,1,0,0,0,0-.14.26.26,0,0,1,.29-.16.23.23,0,0,1,.18.11.16.16,0,0,1,0,.13,1.59,1.59,0,0,1-.07.2h0c-.18.45-.54,1.39,1,4.29a.75.75,0,0,1,0,.88,1.21,1.21,0,0,1-.83.32h-.29Zm-.45-.33c-.08,0-.15,0-.15.1a0,0,0,0,0,0,0,.23.23,0,0,0,.12.06,3.81,3.81,0,0,0,.75,0h0a1.17,1.17,0,0,0,.77-.29c.26-.29,0-.69,0-.76-1.58-2.94-1.2-3.91-1-4.37v0a.76.76,0,0,0,.06-.18.07.07,0,0,0,0-.06.18.18,0,0,0-.29,0s0,.09,0,.15v0c-.2.52-.58,1.49,1,4.5.09.12.21.4,0,.58s-.78.21-1.22.17Z"/><path class="cls-11" d="M164.1,73.64a9.59,9.59,0,0,1,6.68.25S167.62,78.63,164.1,73.64Z"/><path class="cls-6" d="M170.32,73.71a9.73,9.73,0,0,0-5.78-.21S166.86,75.86,170.32,73.71Z"/><path class="cls-3" d="M166.09,52.51a10.21,10.21,0,0,0-2.16.21c-3.56.75-8.72,4.41-9.31,7.27-.54,2.64,1,13.7,1.47,15a2.58,2.58,0,0,1,.33-.16c.69-.31,3.77-.24,3.5-2.72-.29-2.64-.53-3.94.62-5.54a105.46,105.46,0,0,0,6.14-9.17h.16l0,.17c0,.07-.53,1.93,2.45,3,.74.27,1.31.44,1.77.57,1.52.46,2.41.73,1.69,2.35s3.35,4.66,2.77,6.76c-.68,2.47-.24,3.21-.1,3.38.37-.19,2.3-1.42,2.51-6.34.24-5.46-1.38-10.93-3.68-12.46A15.9,15.9,0,0,0,166.09,52.51Z"/><path class="cls-6" d="M184.18,195.72c-18.26,0-45.88-6.77-46.22-6.85a.26.26,0,0,1-.19-.24V177.55a.22.22,0,0,1,.09-.19.24.24,0,0,1,.2-.06l33.6,5a.25.25,0,0,1,.21.28.24.24,0,0,1-.28.21l-33.32-5v10.59c3,.74,41.44,9.86,56,5.71a3.71,3.71,0,0,0,2.88-2.7c2.75-10.63-31.55-45-31.89-45.36a.25.25,0,0,1,0-.36.24.24,0,0,1,.35,0c.09.09,8.8,8.8,17,18.73,11.13,13.39,16.16,22.51,15,27.11a4.2,4.2,0,0,1-3.23,3.06A38.34,38.34,0,0,1,184.18,195.72Z"/><path class="cls-12" d="M175.09,106.84c-.65,5.37-4.87,8.9-10.13,8.25s-8.5-5.08-7.85-10.45l3.51.43c-.5,4.09,1.79,6.6,4.72,7s5.74-1.52,6.24-5.61Z"/><rect class="cls-12" x="168.95" y="94.12" width="3.42" height="10.14" transform="translate(51.52 256.57) rotate(-83.04)"/><path class="cls-12" d="M157.75,97.73a1.85,1.85,0,0,1,2.08-1.62,1.83,1.83,0,0,1,1.6,2.07,1.81,1.81,0,0,1-2.05,1.6,1.84,1.84,0,0,1-1.63-2"/><path class="cls-13" d="M167.47,80.16h0c-1.45,0-5.91-3.44-6.94-5.65a.25.25,0,1,1,.45-.21c1,2.12,5.33,5.35,6.49,5.36h0a3.57,3.57,0,0,0,2.43-1l.26-.21a.25.25,0,0,1,.35,0,.26.26,0,0,1,0,.36l-.25.2A4.07,4.07,0,0,1,167.47,80.16Z"/></svg>