<?xml version="1.0" encoding="utf-8"?>
<!-- Generator: Adobe Illustrator 24.2.0, SVG Export Plug-In . SVG Version: 6.00 Build 0)  -->
<svg version="1.1" id="Calque_1" xmlns="http://www.w3.org/2000/svg" xmlns:xlink="http://www.w3.org/1999/xlink" x="0px" y="0px"
	 viewBox="0 0 600 226" style="enable-background:new 0 0 600 226;" xml:space="preserve">
<style type="text/css">
	.st0{fill:#CCF8E9;}
	.st1{fill:#010D3C;}
</style>
<g>
	<circle class="st0" cx="113" cy="113" r="93"/>
	<g>
		<path class="st1" d="M152.5,118c0,23.2-16.1,40.4-38.8,40.4S74.9,141.2,74.9,118h15.1c0,17.7,11,27.1,23.6,27.1
			s23.6-9.5,23.6-27.1H152.5z"/>
		<rect x="108" y="80.5" class="st1" width="43.4" height="14.7"/>
		<path class="st1" d="M74.1,88.3c0-4.4,3.6-8,8-8c4.4,0,7.9,3.6,7.9,8s-3.4,7.9-7.9,7.9C77.6,96.2,74.1,92.8,74.1,88.3z"/>
	</g>
	<g>
		<path class="st1" d="M289.3,110.1V158h-14.6v-48.2c0-8.2-2.8-17.9-16.1-17.9c-9.7,0-16.7,7.9-16.7,18.8V158h-14.4v-48.2
			c0-11.5-5.7-17.9-16-17.9c-9.6,0-16.9,8.1-16.9,18.8V158H180V80.2h14.2v6.4c4.9-5.3,11.6-8.3,19.1-8.3c10.1,0,18.2,4.1,23.4,12
			c5.3-7.8,13.6-12,23.6-12C278.1,78.3,289.3,90.5,289.3,110.1z M380.7,119.3c0,22.7-17.2,40.4-39.1,40.4s-39.1-17.8-39.1-40.4
			c0-23,17.2-41,39.1-41S380.7,96.3,380.7,119.3z M366.1,119.3c0-15.1-11-27.4-24.5-27.4c-13.4,0-24.3,12.3-24.3,27.4
			c0,14.8,10.9,26.8,24.3,26.8C355.2,146.2,366.1,134.1,366.1,119.3z M394.8,158h14.6V80.2h-14.6V158z M489.1,89.6
			c8.1,8.1,12.5,19.8,12.5,32.8l0,1.1h-63.4c1.7,11.5,10.6,22.9,24.9,22.9c10,0,17.4-4.6,21.5-13.3l0.3-0.6h15.3l-0.5,1.4
			c-5.4,16.5-18.8,26-36.7,26c-22.3,0-39.8-17.8-39.8-40.6c0-22.5,17.5-40.9,39.1-40.9C472.4,78.3,481.9,82.3,489.1,89.6z
			 M439.1,110.2h46.3c-3.3-10.9-12.6-18.4-23-18.4C450.6,91.7,442,100.8,439.1,110.2z M549.9,78.3c-8.2,0-15.6,3-21,8.4v-6.5h-14.2
			V158h14.6v-47.3c0-10.9,7.9-18.8,18.8-18.8c10.8,0,17.4,7.3,17.4,19.1v47H580v-46.6C580,91.3,568.2,78.3,549.9,78.3z M381.5,63.1
			c0,4.4,3.4,7.9,7.9,7.9c4.4,0,8-3.4,8-7.9c0-4.4-3.6-8-8-8C384.9,55.1,381.5,58.7,381.5,63.1z M406.8,63.1c0,4.4,3.4,7.9,7.9,7.9
			c4.4,0,8-3.4,8-7.9c0-4.4-3.6-8-8-8C410.2,55.1,406.8,58.7,406.8,63.1z"/>
	</g>
</g>
</svg>
