<svg id="Calque_1" data-name="Calque 1" xmlns="http://www.w3.org/2000/svg" viewBox="0 0 190.67 253.67"><defs><style>.cls-1{fill:#fc5a3b;}</style></defs><path class="cls-1" d="M71.34,225a96.3,96.3,0,0,1-51.88-29.91A31.82,31.82,0,0,1,10,177.64c-.75-6.82,3.79-14.39,10.23-15.15,8.71-1.13,14.77,8.33,18.55,16.29a254.87,254.87,0,0,0,16.66,27.64A18.7,18.7,0,0,0,63,213.23a6.32,6.32,0,0,0,7.95-3.4v-.38a8.65,8.65,0,0,0-1.52-5.3C60,184.83,46,168.17,35.36,149.62c-4.92-8.33-9.08-17.8-7.95-27.64s10.23-18.93,19.69-17,13.63,11.74,16.28,20.82a165.41,165.41,0,0,1,5.68,33.33c.38,9.46.38,19.69,6.06,27.26a22.8,22.8,0,0,0,8.33-18.93,66.33,66.33,0,0,0-4.54-20.83C72.85,129.17,66.79,112.13,60,95.09a38,38,0,0,1-3.41-12.87,12.08,12.08,0,0,1,6.06-10.6,12.61,12.61,0,0,1,13.63,4.54,36.61,36.61,0,0,1,5.3,14.39c2.27,11.74,4.54,23.1,6.82,34.84.37,2.65,1.89,6,4.54,5.3a6.85,6.85,0,0,0,2.65-1.9c5.3-7.95,3-18.55,1.14-27.64A240.25,240.25,0,0,1,91.4,58a40.63,40.63,0,0,1,2.65-18.94A16.53,16.53,0,0,1,109.2,28.83c7.57.76,13.25,8.71,13.63,16.28s-2.27,15.15-4.92,22.34-4.92,15.15-3,22.72c9.09-8.33,10.6-21.2,14-32.94A108.43,108.43,0,0,1,153.5,13.68c4.93-5.3,11.74-10.6,18.94-9.08,9.08,1.51,13.63,13.25,11.36,22s-9.47,15.9-16.29,22.34L135.33,79.19S123.21,94,125.1,96.61a6.54,6.54,0,0,0,8.33,1.89A28.3,28.3,0,0,0,141,92.82,102.49,102.49,0,0,1,156.91,80c6.82-4.55,16.66-7.58,22.34-1.9s1.14,16.29-5.3,22c-18.55,17.41-49.6,14.76-68.16,32.56-1.89,1.89-3.78,4.54-2.65,7.19,8.71.76,17-3.4,25-7.57s15.53-9.09,24.24-9.84,18.55,4.16,20.07,12.87c1.51,7.57-4.55,15.15-11.74,18.56a55.06,55.06,0,0,1-23.48,2.65l-23.48-.76a19.61,19.61,0,0,0-11.35,1.89c-3.41,1.89-5.31,6.06-3.41,9.85,1.89,3,6.43,3.4,10.22,3.4h31.05c5.68,0,12.12.76,14.39,5.68.76,2.65.76,5.68-.76,8a25.12,25.12,0,0,1-19.31,13.63c-8.33.75-16.66-.38-23.85-4.17a66.51,66.51,0,0,0-12.12-4.54,12.82,12.82,0,0,0-11.74,4.16c-3,4.93,0,11.74,4.92,14.77a37,37,0,0,0,16.66,3.79c9.47.75,19.31,1.89,28.78,3.41a19,19,0,0,1,11,4.54c5.3,5.3,2.65,14.77-3.41,18.93a27.58,27.58,0,0,1-21.2,2.65C108.44,238.6,71.34,225,71.34,225Z"/></svg>