<?xml version="1.0" encoding="iso-8859-1"?>
<!-- Generator: Adobe Illustrator 19.0.0, SVG Export Plug-In . SVG Version: 6.00 Build 0)  -->
<svg version="1.1" id="Layer_1" xmlns="http://www.w3.org/2000/svg" xmlns:xlink="http://www.w3.org/1999/xlink" x="0px" y="0px"
	 viewBox="0 0 512.064 512.064" fill="#010D3C" style="enable-background:new 0 0 512.064 512.064;" xml:space="preserve">
<g>
	<g>
		<path d="M510.668,57.856L477.9,7.595c-0.193-1.777-0.939-3.449-2.133-4.779c-1.633-1.81-3.962-2.835-6.4-2.816h-409.6
			c-4.713,0-8.533,3.82-8.533,8.533v255.232c-5.691,33.658-14.871,66.633-27.392,98.389l-13.995-2.133
			c-4.659-0.707-9.01,2.497-9.717,7.156c-0.069,0.456-0.101,0.916-0.096,1.377c-0.046,6.124,0.671,12.229,2.133,18.176v0.085
			c3.638,20.126,19.261,35.953,39.339,39.851h18.261V460.8c-0.016,2.395,0.975,4.686,2.731,6.315l46.336,42.667
			c1.587,1.442,3.658,2.234,5.803,2.219H503.5c0.537,0.085,1.084,0.085,1.621,0c0.565-0.079,1.113-0.252,1.621-0.512
			c1.065-0.411,2.027-1.052,2.816-1.877c0.431-0.346,0.781-0.783,1.024-1.28c0.338-0.436,0.598-0.926,0.768-1.451l0.512-1.621
			c0.109-0.591,0.166-1.191,0.171-1.792V62.55C512,60.892,511.529,59.273,510.668,57.856z M43.382,409.6
			c-12.878-3.046-22.649-13.558-24.747-26.624c0-1.451-0.597-2.901-0.853-4.523l9.813,1.451l33.024,5.035L276.598,409.6H43.382z
			 M452.3,452.267H76.833v-25.6H426.7c1.055,0.024,2.103-0.18,3.072-0.597c0.588-0.259,1.135-0.604,1.621-1.024
			c0.861-0.694,1.56-1.568,2.048-2.56l1.792-1.792c0.04-0.568,0.04-1.138,0-1.707v-0.853l20.992-201.216L452.3,452.267z"/>
	</g>
</g>
<g>
</g>
<g>
</g>
<g>
</g>
<g>
</g>
<g>
</g>
<g>
</g>
<g>
</g>
<g>
</g>
<g>
</g>
<g>
</g>
<g>
</g>
<g>
</g>
<g>
</g>
<g>
</g>
<g>
</g>
</svg>
