<?xml version="1.0" encoding="UTF-8" standalone="no"?>
<svg
   width="24"
   height="24"
   viewBox="0 0 24 24"
   fill="none"
   version="1.1"
   id="svg137"
   sodipodi:docname="guests.svg"
   inkscape:version="1.2.2 (732a01da63, 2022-12-09)"
   xmlns:inkscape="http://www.inkscape.org/namespaces/inkscape"
   xmlns:sodipodi="http://sodipodi.sourceforge.net/DTD/sodipodi-0.dtd"
   xmlns="http://www.w3.org/2000/svg"
   xmlns:svg="http://www.w3.org/2000/svg">
  <defs
     id="defs141" />
  <sodipodi:namedview
     id="namedview139"
     pagecolor="#ffffff"
     bordercolor="#999999"
     borderopacity="1"
     inkscape:showpageshadow="0"
     inkscape:pageopacity="0"
     inkscape:pagecheckerboard="0"
     inkscape:deskcolor="#d1d1d1"
     showgrid="false"
     inkscape:zoom="9.8333333"
     inkscape:cx="12"
     inkscape:cy="12"
     inkscape:window-width="3840"
     inkscape:window-height="2126"
     inkscape:window-x="-11"
     inkscape:window-y="-11"
     inkscape:window-maximized="1"
     inkscape:current-layer="svg137" />
  <path
     fill-rule="evenodd"
     clip-rule="evenodd"
     d="M15.4579 4.12353L14.9736 3.99951L14.7255 4.96826L15.2099 5.09228C15.8194 5.24833 16.3596 5.60279 16.7454 6.09978C17.1311 6.59676 17.3405 7.20801 17.3405 7.83714C17.3405 8.46628 17.1311 9.07752 16.7454 9.57451C16.3596 10.0715 15.8194 10.426 15.2099 10.582L14.7255 10.706L14.9736 11.6748L15.4579 11.5508C16.2825 11.3396 17.0134 10.8601 17.5353 10.1877C18.0572 9.51529 18.3405 8.68832 18.3405 7.83714C18.3405 6.98596 18.0572 6.15899 17.5353 5.4866C17.0134 4.81422 16.2825 4.33466 15.4579 4.12353ZM6.66667 7.83298C6.66667 6.26813 7.93523 4.99957 9.50007 4.99957C11.0649 4.99957 12.3335 6.26813 12.3335 7.83298C12.3335 9.39783 11.0649 10.6664 9.50007 10.6664C7.93523 10.6664 6.66667 9.39783 6.66667 7.83298ZM9.50007 3.99957C7.38294 3.99957 5.66667 5.71585 5.66667 7.83298C5.66667 9.95011 7.38294 11.6664 9.50007 11.6664C11.6172 11.6664 13.3335 9.95011 13.3335 7.83298C13.3335 5.71585 11.6172 3.99957 9.50007 3.99957ZM6.16715 14.0003C5.15046 14.0003 4.17542 14.4042 3.45652 15.1231C2.73762 15.842 2.33374 16.817 2.33374 17.8337V19.5004V20.0004H3.33374V19.5004V17.8337C3.33374 17.0822 3.63226 16.3616 4.16363 15.8302C4.69499 15.2988 5.41568 15.0003 6.16715 15.0003H12.834C13.5854 15.0003 14.3061 15.2988 14.8375 15.8302C15.3688 16.3616 15.6674 17.0822 15.6674 17.8337V19.5004V20.0004H16.6674V19.5004V17.8337C16.6674 16.817 16.2635 15.842 15.5446 15.1231C14.8257 14.4042 13.8506 14.0003 12.834 14.0003H6.16715ZM18.3087 13.999L18.7928 14.124C19.6152 14.3364 20.3438 14.8158 20.8642 15.4871C21.3845 16.1584 21.6672 16.9835 21.6679 17.8328L21.6679 17.8332V19.4999V19.9999H20.6679V19.4999V17.8336C20.6674 17.2058 20.4585 16.5959 20.0738 16.0998C19.6892 15.6036 19.1507 15.2492 18.5428 15.0923L18.0587 14.9673L18.3087 13.999Z"
     fill="#195955"
     id="path135"
     style="fill:#000000;fill-opacity:1" />
</svg>
