<svg width="256" height="256" viewBox="0 0 256 256" fill="currentColor" xmlns="http://www.w3.org/2000/svg">
    <path d="M240 112H229.2L201.42 49.5C200.163 46.6723 198.113 44.2698 195.518 42.5836C192.923 40.8975 189.895 40 186.8 40H69.2C66.1054 40 63.0772 40.8975 60.4823 42.5836C57.8874 44.2698 55.8372 46.6723 54.58 49.5L26.8 112H16C13.8783 112 11.8434 112.843 10.3431 114.343C8.84285 115.843 8 117.878 8 120C8 122.122 8.84285 124.157 10.3431 125.657C11.8434 127.157 13.8783 128 16 128H24V208C24 212.243 25.6857 216.313 28.6863 219.314C31.6869 222.314 35.7565 224 40 224H64C68.2435 224 72.3131 222.314 75.3137 219.314C78.3143 216.313 80 212.243 80 208V192H176V208C176 212.243 177.686 216.313 180.686 219.314C183.687 222.314 187.757 224 192 224H216C220.243 224 224.313 222.314 227.314 219.314C230.314 216.313 232 212.243 232 208V128H240C242.122 128 244.157 127.157 245.657 125.657C247.157 124.157 248 122.122 248 120C248 117.878 247.157 115.843 245.657 114.343C244.157 112.843 242.122 112 240 112ZM69.2 56H186.8L211.69 112H44.31L69.2 56ZM64 208H40V192H64V208ZM192 208V192H216V208H192ZM216 176H40V128H216V176ZM56 152C56 149.878 56.8429 147.843 58.3431 146.343C59.8434 144.843 61.8783 144 64 144H80C82.1217 144 84.1566 144.843 85.6569 146.343C87.1571 147.843 88 149.878 88 152C88 154.122 87.1571 156.157 85.6569 157.657C84.1566 159.157 82.1217 160 80 160H64C61.8783 160 59.8434 159.157 58.3431 157.657C56.8429 156.157 56 154.122 56 152ZM168 152C168 149.878 168.843 147.843 170.343 146.343C171.843 144.843 173.878 144 176 144H192C194.122 144 196.157 144.843 197.657 146.343C199.157 147.843 200 149.878 200 152C200 154.122 199.157 156.157 197.657 157.657C196.157 159.157 194.122 160 192 160H176C173.878 160 171.843 159.157 170.343 157.657C168.843 156.157 168 154.122 168 152Z" fill="currentColor"/>
</svg>
