<svg width="256" height="256" viewBox="0 0 256 256" fill="currentColor" xmlns="http://www.w3.org/2000/svg">
    <path d="M128 80.0001C118.506 80.0001 109.226 82.8153 101.333 88.0896C93.439 93.3639 87.2867 100.86 83.6537 109.631C80.0207 118.402 79.0702 128.053 80.9223 137.364C82.7743 146.676 87.3459 155.228 94.0588 161.941C100.772 168.654 109.325 173.226 118.636 175.078C127.947 176.93 137.598 175.979 146.369 172.346C155.14 168.713 162.636 162.561 167.91 154.668C173.185 146.774 176 137.494 176 128C175.987 115.274 170.925 103.073 161.926 94.0736C152.928 85.0748 140.726 80.0134 128 80.0001ZM128 160C121.671 160 115.484 158.123 110.222 154.607C104.959 151.091 100.858 146.093 98.4358 140.246C96.0138 134.399 95.3801 127.965 96.6148 121.757C97.8495 115.55 100.897 109.848 105.373 105.373C109.848 100.897 115.55 97.8497 121.757 96.615C127.964 95.3803 134.399 96.014 140.246 98.436C146.093 100.858 151.091 104.96 154.607 110.222C158.123 115.484 160 121.671 160 128C160 136.487 156.629 144.626 150.627 150.628C144.626 156.629 136.487 160 128 160ZM237.94 107.21C237.717 106.084 237.254 105.018 236.583 104.086C235.912 103.155 235.048 102.378 234.05 101.81L204.22 84.8101L204.1 51.1901C204.096 50.0323 203.841 48.889 203.353 47.8393C202.864 46.7896 202.154 45.8584 201.27 45.1101C190.449 35.9571 177.988 28.9428 164.55 24.4401C163.492 24.0819 162.37 23.9494 161.257 24.051C160.145 24.1526 159.066 24.4862 158.09 25.0301L128 41.8501L97.8799 25.0001C96.9035 24.4531 95.8231 24.117 94.7086 24.0137C93.5941 23.9103 92.4704 24.042 91.41 24.4001C77.9814 28.9357 65.5349 35.9768 54.7299 45.1501C53.8476 45.8973 53.1377 46.8268 52.6492 47.8747C52.1606 48.9226 51.905 50.064 51.9 51.2201L51.75 84.8701L21.92 101.87C20.922 102.438 20.058 103.215 19.3868 104.146C18.7155 105.078 18.2528 106.144 18.03 107.27C15.2999 120.989 15.2999 135.111 18.03 148.83C18.2528 149.957 18.7155 151.022 19.3868 151.954C20.058 152.886 20.922 153.662 21.92 154.23L51.75 171.23L51.8699 204.85C51.8736 206.008 52.1285 207.151 52.6171 208.201C53.1057 209.251 53.8163 210.182 54.7 210.93C65.5207 220.083 77.9815 227.097 91.4199 231.6C92.4782 231.958 93.5998 232.091 94.7124 231.989C95.8251 231.888 96.9041 231.554 97.8799 231.01L128 214.15L158.12 231C159.312 231.664 160.655 232.009 162.02 232C162.894 232 163.762 231.858 164.59 231.58C178.017 227.051 190.463 220.016 201.27 210.85C202.152 210.103 202.862 209.173 203.351 208.126C203.839 207.078 204.095 205.936 204.1 204.78L204.25 171.13L234.08 154.13C235.078 153.562 235.942 152.786 236.613 151.854C237.284 150.922 237.747 149.857 237.97 148.73C240.685 135.022 240.675 120.914 237.94 107.21ZM222.94 142.12L194.37 158.37C193.118 159.082 192.082 160.118 191.37 161.37C190.79 162.37 190.18 163.43 189.56 164.43C188.766 165.691 188.344 167.15 188.34 168.64L188.19 200.89C180.511 206.921 171.955 211.743 162.82 215.19L134 199.13C132.803 198.468 131.457 198.124 130.09 198.13H129.9C128.69 198.13 127.47 198.13 126.26 198.13C124.829 198.094 123.414 198.439 122.16 199.13L93.3199 215.23C84.1651 211.809 75.5862 207.011 67.8799 201L67.7699 168.8C67.765 167.307 67.3424 165.845 66.55 164.58C65.93 163.58 65.32 162.58 64.75 161.52C64.0432 160.249 63.0068 159.192 61.75 158.46L33.15 142.17C31.6699 132.808 31.6699 123.272 33.15 113.91L61.6699 97.6301C62.9217 96.9184 63.9582 95.8819 64.6699 94.6301C65.2499 93.6301 65.86 92.5701 66.48 91.5701C67.2736 90.3091 67.6964 88.8501 67.6999 87.3601L67.8499 55.1101C75.5292 49.0796 84.0845 44.2573 93.2199 40.8101L122 56.8701C123.252 57.5644 124.668 57.9098 126.1 57.8701C127.31 57.8701 128.53 57.8701 129.74 57.8701C131.171 57.9059 132.586 57.5608 133.84 56.8701L162.68 40.7701C171.835 44.1909 180.414 48.9895 188.12 55.0001L188.23 87.2001C188.235 88.6931 188.657 90.1549 189.45 91.4201C190.07 92.4201 190.68 93.4201 191.25 94.4801C191.957 95.7513 192.993 96.8083 194.25 97.5401L222.85 113.83C224.35 123.199 224.367 132.746 222.9 142.12H222.94Z" fill="currentColor"/>
</svg>
