<svg width="24" height="24" viewBox="0 0 24 24" fill="none" xmlns="http://www.w3.org/2000/svg">
<path d="M22.1916 17.6256L13.951 3.37555C13.7537 3.03283 13.4696 2.74816 13.1272 2.55021C12.7849 2.35227 12.3964 2.24805 12.001 2.24805C11.6055 2.24805 11.217 2.35227 10.8747 2.55021C10.5324 2.74816 10.2482 3.03283 10.051 3.37555L1.81034 17.6256C1.61015 17.9665 1.50376 18.3544 1.50198 18.7498C1.50019 19.1452 1.60307 19.534 1.80017 19.8768C1.99726 20.2196 2.28156 20.5041 2.62418 20.7015C2.96681 20.8988 3.35556 21.002 3.75096 21.0005H20.251C20.6464 21.002 21.0351 20.8988 21.3777 20.7015C21.7204 20.5041 22.0047 20.2196 22.2018 19.8768C22.3989 19.534 22.5017 19.1452 22.4999 18.7498C22.4982 18.3544 22.3918 17.9665 22.1916 17.6256ZM11.251 9.75055C11.251 9.55164 11.33 9.36087 11.4706 9.22022C11.6113 9.07957 11.802 9.00055 12.001 9.00055C12.1999 9.00055 12.3906 9.07957 12.5313 9.22022C12.6719 9.36087 12.751 9.55164 12.751 9.75055V13.5005C12.751 13.6995 12.6719 13.8902 12.5313 14.0309C12.3906 14.1715 12.1999 14.2506 12.001 14.2506C11.802 14.2506 11.6113 14.1715 11.4706 14.0309C11.33 13.8902 11.251 13.6995 11.251 13.5005V9.75055ZM12.001 18.0006C11.7785 18.0006 11.5609 17.9346 11.3759 17.811C11.1909 17.6873 11.0467 17.5116 10.9616 17.3061C10.8764 17.1005 10.8542 16.8743 10.8976 16.6561C10.941 16.4378 11.0481 16.2374 11.2055 16.0801C11.3628 15.9227 11.5633 15.8156 11.7815 15.7722C11.9997 15.7288 12.2259 15.751 12.4315 15.8362C12.637 15.9213 12.8127 16.0655 12.9364 16.2505C13.06 16.4355 13.126 16.653 13.126 16.8756C13.126 17.1739 13.0074 17.4601 12.7965 17.671C12.5855 17.882 12.2993 18.0006 12.001 18.0006Z" fill="#F58709"/>
</svg>
