<svg width="41" height="41" viewBox="0 0 41 41" fill="none" xmlns="http://www.w3.org/2000/svg">
<path d="M21.8501 22.75C24.6115 22.75 26.8501 20.5114 26.8501 17.75C26.8501 14.9886 24.6115 12.75 21.8501 12.75C19.0887 12.75 16.8501 14.9886 16.8501 17.75C16.8501 20.5114 19.0887 22.75 21.8501 22.75Z" stroke="currentColor" stroke-width="2" stroke-linecap="round" stroke-linejoin="round"/>
<path d="M21.8501 22.75C24.6115 22.75 26.8501 20.5114 26.8501 17.75C26.8501 14.9886 24.6115 12.75 21.8501 12.75C19.0887 12.75 16.8501 14.9886 16.8501 17.75C16.8501 20.5114 19.0887 22.75 21.8501 22.75Z" stroke="currentColor" stroke-opacity="0.2" stroke-width="2" stroke-linecap="round" stroke-linejoin="round"/>
<path d="M21.8501 22.75C24.6115 22.75 26.8501 20.5114 26.8501 17.75C26.8501 14.9886 24.6115 12.75 21.8501 12.75C19.0887 12.75 16.8501 14.9886 16.8501 17.75C16.8501 20.5114 19.0887 22.75 21.8501 22.75Z" stroke="currentColor" stroke-opacity="0.2" stroke-width="2" stroke-linecap="round" stroke-linejoin="round"/>
<path d="M21.8501 22.75C24.6115 22.75 26.8501 20.5114 26.8501 17.75C26.8501 14.9886 24.6115 12.75 21.8501 12.75C19.0887 12.75 16.8501 14.9886 16.8501 17.75C16.8501 20.5114 19.0887 22.75 21.8501 22.75Z" stroke="currentColor" stroke-opacity="0.2" stroke-width="2" stroke-linecap="round" stroke-linejoin="round"/>
<path d="M21.8501 22.75C24.6115 22.75 26.8501 20.5114 26.8501 17.75C26.8501 14.9886 24.6115 12.75 21.8501 12.75C19.0887 12.75 16.8501 14.9886 16.8501 17.75C16.8501 20.5114 19.0887 22.75 21.8501 22.75Z" stroke="currentColor" stroke-opacity="0.2" stroke-width="2" stroke-linecap="round" stroke-linejoin="round"/>
<path d="M21.8501 22.75C24.6115 22.75 26.8501 20.5114 26.8501 17.75C26.8501 14.9886 24.6115 12.75 21.8501 12.75C19.0887 12.75 16.8501 14.9886 16.8501 17.75C16.8501 20.5114 19.0887 22.75 21.8501 22.75Z" stroke="currentColor" stroke-opacity="0.2" stroke-width="2" stroke-linecap="round" stroke-linejoin="round"/>
<path d="M5.6001 17.125H9.3501" stroke="currentColor" stroke-width="2" stroke-linecap="round" stroke-linejoin="round"/>
<path d="M5.6001 17.125H9.3501" stroke="currentColor" stroke-opacity="0.2" stroke-width="2" stroke-linecap="round" stroke-linejoin="round"/>
<path d="M5.6001 17.125H9.3501" stroke="currentColor" stroke-opacity="0.2" stroke-width="2" stroke-linecap="round" stroke-linejoin="round"/>
<path d="M5.6001 17.125H9.3501" stroke="currentColor" stroke-opacity="0.2" stroke-width="2" stroke-linecap="round" stroke-linejoin="round"/>
<path d="M5.6001 17.125H9.3501" stroke="currentColor" stroke-opacity="0.2" stroke-width="2" stroke-linecap="round" stroke-linejoin="round"/>
<path d="M5.6001 17.125H9.3501" stroke="currentColor" stroke-opacity="0.2" stroke-width="2" stroke-linecap="round" stroke-linejoin="round"/>
<path d="M5.6001 10.875H9.3501" stroke="currentColor" stroke-width="2" stroke-linecap="round" stroke-linejoin="round"/>
<path d="M5.6001 10.875H9.3501" stroke="currentColor" stroke-opacity="0.2" stroke-width="2" stroke-linecap="round" stroke-linejoin="round"/>
<path d="M5.6001 10.875H9.3501" stroke="currentColor" stroke-opacity="0.2" stroke-width="2" stroke-linecap="round" stroke-linejoin="round"/>
<path d="M5.6001 10.875H9.3501" stroke="currentColor" stroke-opacity="0.2" stroke-width="2" stroke-linecap="round" stroke-linejoin="round"/>
<path d="M5.6001 10.875H9.3501" stroke="currentColor" stroke-opacity="0.2" stroke-width="2" stroke-linecap="round" stroke-linejoin="round"/>
<path d="M5.6001 10.875H9.3501" stroke="currentColor" stroke-opacity="0.2" stroke-width="2" stroke-linecap="round" stroke-linejoin="round"/>
<path d="M5.6001 23.375H9.3501" stroke="currentColor" stroke-width="2" stroke-linecap="round" stroke-linejoin="round"/>
<path d="M5.6001 29.625H9.3501" stroke="currentColor" stroke-width="2" stroke-linecap="round" stroke-linejoin="round"/>
<path d="M14.3501 26.5C15.2234 25.3357 16.3557 24.3906 17.6575 23.7397C18.9592 23.0889 20.3947 22.75 21.8501 22.75C23.3055 22.75 24.741 23.0889 26.0427 23.7397C27.3445 24.3906 28.4768 25.3357 29.3501 26.5" stroke="currentColor" stroke-width="2" stroke-linecap="round" stroke-linejoin="round"/>
<path d="M34.3501 34V6.5C34.3501 5.80964 33.7905 5.25 33.1001 5.25L10.6001 5.25C9.90974 5.25 9.3501 5.80964 9.3501 6.5V34C9.3501 34.6904 9.90974 35.25 10.6001 35.25H33.1001C33.7905 35.25 34.3501 34.6904 34.3501 34Z" stroke="currentColor" stroke-width="2" stroke-linecap="round" stroke-linejoin="round"/>
</svg>
