<svg width="40" height="40" viewBox="0 0 40 40" fill="none" xmlns="http://www.w3.org/2000/svg">
    <path d="M8.78124 16.2502C8.77916 14.7683 9.07028 13.3006 9.63784 11.9317C10.2054 10.5628 11.0382 9.31966 12.0882 8.27397C13.1383 7.22829 14.3848 6.40068 15.7561 5.83881C17.1274 5.27695 18.5962 4.99193 20.0781 5.00017C26.2656 5.04705 31.2187 10.1877 31.2187 16.3908V17.5002C31.2187 23.0939 32.3906 26.3439 33.4219 28.1252C33.5314 28.3149 33.5891 28.53 33.5893 28.7491C33.5895 28.9681 33.5322 29.1834 33.423 29.3733C33.3138 29.5632 33.1566 29.721 32.9672 29.8311C32.7778 29.9411 32.5628 29.9994 32.3437 30.0002H7.65624C7.4372 29.9994 7.2222 29.9411 7.03279 29.8311C6.84337 29.721 6.6862 29.5632 6.57701 29.3733C6.46782 29.1834 6.41045 28.9681 6.41065 28.7491C6.41084 28.53 6.46859 28.3149 6.57812 28.1252C7.60937 26.3439 8.78124 23.0939 8.78124 17.5002V16.2502Z" stroke="currentColor" stroke-width="2" stroke-linecap="round" stroke-linejoin="round"/>
    <path d="M8.78124 16.2502C8.77916 14.7683 9.07028 13.3006 9.63784 11.9317C10.2054 10.5628 11.0382 9.31966 12.0882 8.27397C13.1383 7.22829 14.3848 6.40068 15.7561 5.83881C17.1274 5.27695 18.5962 4.99193 20.0781 5.00017C26.2656 5.04705 31.2187 10.1877 31.2187 16.3908V17.5002C31.2187 23.0939 32.3906 26.3439 33.4219 28.1252C33.5314 28.3149 33.5891 28.53 33.5893 28.7491C33.5895 28.9681 33.5322 29.1834 33.423 29.3733C33.3138 29.5632 33.1566 29.721 32.9672 29.8311C32.7778 29.9411 32.5628 29.9994 32.3437 30.0002H7.65624C7.4372 29.9994 7.2222 29.9411 7.03279 29.8311C6.84337 29.721 6.6862 29.5632 6.57701 29.3733C6.46782 29.1834 6.41045 28.9681 6.41065 28.7491C6.41084 28.53 6.46859 28.3149 6.57812 28.1252C7.60937 26.3439 8.78124 23.0939 8.78124 17.5002V16.2502Z" stroke="currentColor" stroke-opacity="0.2" stroke-width="2" stroke-linecap="round" stroke-linejoin="round"/>
    <path d="M8.78124 16.2502C8.77916 14.7683 9.07028 13.3006 9.63784 11.9317C10.2054 10.5628 11.0382 9.31966 12.0882 8.27397C13.1383 7.22829 14.3848 6.40068 15.7561 5.83881C17.1274 5.27695 18.5962 4.99193 20.0781 5.00017C26.2656 5.04705 31.2187 10.1877 31.2187 16.3908V17.5002C31.2187 23.0939 32.3906 26.3439 33.4219 28.1252C33.5314 28.3149 33.5891 28.53 33.5893 28.7491C33.5895 28.9681 33.5322 29.1834 33.423 29.3733C33.3138 29.5632 33.1566 29.721 32.9672 29.8311C32.7778 29.9411 32.5628 29.9994 32.3437 30.0002H7.65624C7.4372 29.9994 7.2222 29.9411 7.03279 29.8311C6.84337 29.721 6.6862 29.5632 6.57701 29.3733C6.46782 29.1834 6.41045 28.9681 6.41065 28.7491C6.41084 28.53 6.46859 28.3149 6.57812 28.1252C7.60937 26.3439 8.78124 23.0939 8.78124 17.5002V16.2502Z" stroke="currentColor" stroke-opacity="0.2" stroke-width="2" stroke-linecap="round" stroke-linejoin="round"/>
    <path d="M8.78124 16.2502C8.77916 14.7683 9.07028 13.3006 9.63784 11.9317C10.2054 10.5628 11.0382 9.31966 12.0882 8.27397C13.1383 7.22829 14.3848 6.40068 15.7561 5.83881C17.1274 5.27695 18.5962 4.99193 20.0781 5.00017C26.2656 5.04705 31.2187 10.1877 31.2187 16.3908V17.5002C31.2187 23.0939 32.3906 26.3439 33.4219 28.1252C33.5314 28.3149 33.5891 28.53 33.5893 28.7491C33.5895 28.9681 33.5322 29.1834 33.423 29.3733C33.3138 29.5632 33.1566 29.721 32.9672 29.8311C32.7778 29.9411 32.5628 29.9994 32.3437 30.0002H7.65624C7.4372 29.9994 7.2222 29.9411 7.03279 29.8311C6.84337 29.721 6.6862 29.5632 6.57701 29.3733C6.46782 29.1834 6.41045 28.9681 6.41065 28.7491C6.41084 28.53 6.46859 28.3149 6.57812 28.1252C7.60937 26.3439 8.78124 23.0939 8.78124 17.5002V16.2502Z" stroke="currentColor" stroke-opacity="0.2" stroke-width="2" stroke-linecap="round" stroke-linejoin="round"/>
    <path d="M8.78124 16.2502C8.77916 14.7683 9.07028 13.3006 9.63784 11.9317C10.2054 10.5628 11.0382 9.31966 12.0882 8.27397C13.1383 7.22829 14.3848 6.40068 15.7561 5.83881C17.1274 5.27695 18.5962 4.99193 20.0781 5.00017C26.2656 5.04705 31.2187 10.1877 31.2187 16.3908V17.5002C31.2187 23.0939 32.3906 26.3439 33.4219 28.1252C33.5314 28.3149 33.5891 28.53 33.5893 28.7491C33.5895 28.9681 33.5322 29.1834 33.423 29.3733C33.3138 29.5632 33.1566 29.721 32.9672 29.8311C32.7778 29.9411 32.5628 29.9994 32.3437 30.0002H7.65624C7.4372 29.9994 7.2222 29.9411 7.03279 29.8311C6.84337 29.721 6.6862 29.5632 6.57701 29.3733C6.46782 29.1834 6.41045 28.9681 6.41065 28.7491C6.41084 28.53 6.46859 28.3149 6.57812 28.1252C7.60937 26.3439 8.78124 23.0939 8.78124 17.5002V16.2502Z" stroke="currentColor" stroke-opacity="0.2" stroke-width="2" stroke-linecap="round" stroke-linejoin="round"/>
    <path d="M8.78124 16.2502C8.77916 14.7683 9.07028 13.3006 9.63784 11.9317C10.2054 10.5628 11.0382 9.31966 12.0882 8.27397C13.1383 7.22829 14.3848 6.40068 15.7561 5.83881C17.1274 5.27695 18.5962 4.99193 20.0781 5.00017C26.2656 5.04705 31.2187 10.1877 31.2187 16.3908V17.5002C31.2187 23.0939 32.3906 26.3439 33.4219 28.1252C33.5314 28.3149 33.5891 28.53 33.5893 28.7491C33.5895 28.9681 33.5322 29.1834 33.423 29.3733C33.3138 29.5632 33.1566 29.721 32.9672 29.8311C32.7778 29.9411 32.5628 29.9994 32.3437 30.0002H7.65624C7.4372 29.9994 7.2222 29.9411 7.03279 29.8311C6.84337 29.721 6.6862 29.5632 6.57701 29.3733C6.46782 29.1834 6.41045 28.9681 6.41065 28.7491C6.41084 28.53 6.46859 28.3149 6.57812 28.1252C7.60937 26.3439 8.78124 23.0939 8.78124 17.5002V16.2502Z" stroke="currentColor" stroke-opacity="0.2" stroke-width="2" stroke-linecap="round" stroke-linejoin="round"/>
    <path d="M15 30V31.25C15 32.5761 15.5268 33.8479 16.4645 34.7855C17.4021 35.7232 18.6739 36.25 20 36.25C21.3261 36.25 22.5979 35.7232 23.5355 34.7855C24.4732 33.8479 25 32.5761 25 31.25V30" stroke="currentColor" stroke-width="2" stroke-linecap="round" stroke-linejoin="round"/>
    <path d="M15 30V31.25C15 32.5761 15.5268 33.8479 16.4645 34.7855C17.4021 35.7232 18.6739 36.25 20 36.25C21.3261 36.25 22.5979 35.7232 23.5355 34.7855C24.4732 33.8479 25 32.5761 25 31.25V30" stroke="currentColor" stroke-opacity="0.2" stroke-width="2" stroke-linecap="round" stroke-linejoin="round"/>
    <path d="M15 30V31.25C15 32.5761 15.5268 33.8479 16.4645 34.7855C17.4021 35.7232 18.6739 36.25 20 36.25C21.3261 36.25 22.5979 35.7232 23.5355 34.7855C24.4732 33.8479 25 32.5761 25 31.25V30" stroke="currentColor" stroke-opacity="0.2" stroke-width="2" stroke-linecap="round" stroke-linejoin="round"/>
    <path d="M15 30V31.25C15 32.5761 15.5268 33.8479 16.4645 34.7855C17.4021 35.7232 18.6739 36.25 20 36.25C21.3261 36.25 22.5979 35.7232 23.5355 34.7855C24.4732 33.8479 25 32.5761 25 31.25V30" stroke="currentColor" stroke-opacity="0.2" stroke-width="2" stroke-linecap="round" stroke-linejoin="round"/>
    <path d="M15 30V31.25C15 32.5761 15.5268 33.8479 16.4645 34.7855C17.4021 35.7232 18.6739 36.25 20 36.25C21.3261 36.25 22.5979 35.7232 23.5355 34.7855C24.4732 33.8479 25 32.5761 25 31.25V30" stroke="currentColor" stroke-opacity="0.2" stroke-width="2" stroke-linecap="round" stroke-linejoin="round"/>
    <path d="M15 30V31.25C15 32.5761 15.5268 33.8479 16.4645 34.7855C17.4021 35.7232 18.6739 36.25 20 36.25C21.3261 36.25 22.5979 35.7232 23.5355 34.7855C24.4732 33.8479 25 32.5761 25 31.25V30" stroke="currentColor" stroke-opacity="0.2" stroke-width="2" stroke-linecap="round" stroke-linejoin="round"/>
</svg>
