<svg width="41" height="41" viewBox="0 0 41 41" fill="none" xmlns="http://www.w3.org/2000/svg">
<path d="M8.98144 17.75C8.98144 16.2767 9.27162 14.8179 9.83541 13.4568C10.3992 12.0956 11.2256 10.8589 12.2673 9.81715C13.3091 8.77539 14.5458 7.94902 15.907 7.38523C17.2681 6.82143 18.7269 6.53125 20.2002 6.53125C21.6735 6.53125 23.1323 6.82143 24.4934 7.38523C25.8545 7.94902 27.0913 8.77539 28.133 9.81715C29.1748 10.8589 30.0012 12.0956 30.565 13.4568C31.1288 14.8179 31.4189 16.2767 31.4189 17.75V17.75C31.4189 23.3438 32.5908 26.5938 33.6221 28.375C33.7316 28.5647 33.7893 28.7799 33.7895 28.9989C33.7897 29.2179 33.7324 29.4332 33.6232 29.6231C33.514 29.813 33.3568 29.9709 33.1674 30.0809C32.978 30.1909 32.763 30.2492 32.5439 30.25H7.85644C7.63739 30.2492 7.42239 30.1909 7.23298 30.0809C7.04357 29.9709 6.8864 29.813 6.77721 29.6231C6.66802 29.4332 6.61065 29.2179 6.61084 28.9989C6.61103 28.7799 6.66879 28.5647 6.77831 28.375C7.80956 26.5938 8.98144 23.3438 8.98144 17.75Z" stroke="currentColor" stroke-width="2" stroke-linecap="round" stroke-linejoin="round"/>
<path d="M8.98144 17.75C8.98144 16.2767 9.27162 14.8179 9.83541 13.4568C10.3992 12.0956 11.2256 10.8589 12.2673 9.81715C13.3091 8.77539 14.5458 7.94902 15.907 7.38523C17.2681 6.82143 18.7269 6.53125 20.2002 6.53125C21.6735 6.53125 23.1323 6.82143 24.4934 7.38523C25.8545 7.94902 27.0913 8.77539 28.133 9.81715C29.1748 10.8589 30.0012 12.0956 30.565 13.4568C31.1288 14.8179 31.4189 16.2767 31.4189 17.75V17.75C31.4189 23.3438 32.5908 26.5938 33.6221 28.375C33.7316 28.5647 33.7893 28.7799 33.7895 28.9989C33.7897 29.2179 33.7324 29.4332 33.6232 29.6231C33.514 29.813 33.3568 29.9709 33.1674 30.0809C32.978 30.1909 32.763 30.2492 32.5439 30.25H7.85644C7.63739 30.2492 7.42239 30.1909 7.23298 30.0809C7.04357 29.9709 6.8864 29.813 6.77721 29.6231C6.66802 29.4332 6.61065 29.2179 6.61084 28.9989C6.61103 28.7799 6.66879 28.5647 6.77831 28.375C7.80956 26.5938 8.98144 23.3438 8.98144 17.75Z" stroke="currentColor" stroke-opacity="0.2" stroke-width="2" stroke-linecap="round" stroke-linejoin="round"/>
<path d="M8.98144 17.75C8.98144 16.2767 9.27162 14.8179 9.83541 13.4568C10.3992 12.0956 11.2256 10.8589 12.2673 9.81715C13.3091 8.77539 14.5458 7.94902 15.907 7.38523C17.2681 6.82143 18.7269 6.53125 20.2002 6.53125C21.6735 6.53125 23.1323 6.82143 24.4934 7.38523C25.8545 7.94902 27.0913 8.77539 28.133 9.81715C29.1748 10.8589 30.0012 12.0956 30.565 13.4568C31.1288 14.8179 31.4189 16.2767 31.4189 17.75V17.75C31.4189 23.3438 32.5908 26.5938 33.6221 28.375C33.7316 28.5647 33.7893 28.7799 33.7895 28.9989C33.7897 29.2179 33.7324 29.4332 33.6232 29.6231C33.514 29.813 33.3568 29.9709 33.1674 30.0809C32.978 30.1909 32.763 30.2492 32.5439 30.25H7.85644C7.63739 30.2492 7.42239 30.1909 7.23298 30.0809C7.04357 29.9709 6.8864 29.813 6.77721 29.6231C6.66802 29.4332 6.61065 29.2179 6.61084 28.9989C6.61103 28.7799 6.66879 28.5647 6.77831 28.375C7.80956 26.5938 8.98144 23.3438 8.98144 17.75Z" stroke="currentColor" stroke-opacity="0.2" stroke-width="2" stroke-linecap="round" stroke-linejoin="round"/>
<path d="M8.98144 17.75C8.98144 16.2767 9.27162 14.8179 9.83541 13.4568C10.3992 12.0956 11.2256 10.8589 12.2673 9.81715C13.3091 8.77539 14.5458 7.94902 15.907 7.38523C17.2681 6.82143 18.7269 6.53125 20.2002 6.53125C21.6735 6.53125 23.1323 6.82143 24.4934 7.38523C25.8545 7.94902 27.0913 8.77539 28.133 9.81715C29.1748 10.8589 30.0012 12.0956 30.565 13.4568C31.1288 14.8179 31.4189 16.2767 31.4189 17.75V17.75C31.4189 23.3438 32.5908 26.5938 33.6221 28.375C33.7316 28.5647 33.7893 28.7799 33.7895 28.9989C33.7897 29.2179 33.7324 29.4332 33.6232 29.6231C33.514 29.813 33.3568 29.9709 33.1674 30.0809C32.978 30.1909 32.763 30.2492 32.5439 30.25H7.85644C7.63739 30.2492 7.42239 30.1909 7.23298 30.0809C7.04357 29.9709 6.8864 29.813 6.77721 29.6231C6.66802 29.4332 6.61065 29.2179 6.61084 28.9989C6.61103 28.7799 6.66879 28.5647 6.77831 28.375C7.80956 26.5938 8.98144 23.3438 8.98144 17.75Z" stroke="currentColor" stroke-opacity="0.2" stroke-width="2" stroke-linecap="round" stroke-linejoin="round"/>
<path d="M8.98144 17.75C8.98144 16.2767 9.27162 14.8179 9.83541 13.4568C10.3992 12.0956 11.2256 10.8589 12.2673 9.81715C13.3091 8.77539 14.5458 7.94902 15.907 7.38523C17.2681 6.82143 18.7269 6.53125 20.2002 6.53125C21.6735 6.53125 23.1323 6.82143 24.4934 7.38523C25.8545 7.94902 27.0913 8.77539 28.133 9.81715C29.1748 10.8589 30.0012 12.0956 30.565 13.4568C31.1288 14.8179 31.4189 16.2767 31.4189 17.75V17.75C31.4189 23.3438 32.5908 26.5938 33.6221 28.375C33.7316 28.5647 33.7893 28.7799 33.7895 28.9989C33.7897 29.2179 33.7324 29.4332 33.6232 29.6231C33.514 29.813 33.3568 29.9709 33.1674 30.0809C32.978 30.1909 32.763 30.2492 32.5439 30.25H7.85644C7.63739 30.2492 7.42239 30.1909 7.23298 30.0809C7.04357 29.9709 6.8864 29.813 6.77721 29.6231C6.66802 29.4332 6.61065 29.2179 6.61084 28.9989C6.61103 28.7799 6.66879 28.5647 6.77831 28.375C7.80956 26.5938 8.98144 23.3438 8.98144 17.75Z" stroke="currentColor" stroke-opacity="0.2" stroke-width="2" stroke-linecap="round" stroke-linejoin="round"/>
<path d="M8.98144 17.75C8.98144 16.2767 9.27162 14.8179 9.83541 13.4568C10.3992 12.0956 11.2256 10.8589 12.2673 9.81715C13.3091 8.77539 14.5458 7.94902 15.907 7.38523C17.2681 6.82143 18.7269 6.53125 20.2002 6.53125C21.6735 6.53125 23.1323 6.82143 24.4934 7.38523C25.8545 7.94902 27.0913 8.77539 28.133 9.81715C29.1748 10.8589 30.0012 12.0956 30.565 13.4568C31.1288 14.8179 31.4189 16.2767 31.4189 17.75V17.75C31.4189 23.3438 32.5908 26.5938 33.6221 28.375C33.7316 28.5647 33.7893 28.7799 33.7895 28.9989C33.7897 29.2179 33.7324 29.4332 33.6232 29.6231C33.514 29.813 33.3568 29.9709 33.1674 30.0809C32.978 30.1909 32.763 30.2492 32.5439 30.25H7.85644C7.63739 30.2492 7.42239 30.1909 7.23298 30.0809C7.04357 29.9709 6.8864 29.813 6.77721 29.6231C6.66802 29.4332 6.61065 29.2179 6.61084 28.9989C6.61103 28.7799 6.66879 28.5647 6.77831 28.375C7.80956 26.5938 8.98144 23.3438 8.98144 17.75Z" stroke="currentColor" stroke-opacity="0.2" stroke-width="2" stroke-linecap="round" stroke-linejoin="round"/>
<path d="M15.2002 30.25V31.5C15.2002 32.8261 15.727 34.0979 16.6647 35.0355C17.6023 35.9732 18.8741 36.5 20.2002 36.5C21.5263 36.5 22.798 35.9732 23.7357 35.0355C24.6734 34.0979 25.2002 32.8261 25.2002 31.5V30.25" stroke="currentColor" stroke-width="2" stroke-linecap="round" stroke-linejoin="round"/>
<path d="M15.2002 30.25V31.5C15.2002 32.8261 15.727 34.0979 16.6647 35.0355C17.6023 35.9732 18.8741 36.5 20.2002 36.5C21.5263 36.5 22.798 35.9732 23.7357 35.0355C24.6734 34.0979 25.2002 32.8261 25.2002 31.5V30.25" stroke="currentColor" stroke-opacity="0.2" stroke-width="2" stroke-linecap="round" stroke-linejoin="round"/>
<path d="M15.2002 30.25V31.5C15.2002 32.8261 15.727 34.0979 16.6647 35.0355C17.6023 35.9732 18.8741 36.5 20.2002 36.5C21.5263 36.5 22.798 35.9732 23.7357 35.0355C24.6734 34.0979 25.2002 32.8261 25.2002 31.5V30.25" stroke="currentColor" stroke-opacity="0.2" stroke-width="2" stroke-linecap="round" stroke-linejoin="round"/>
<path d="M15.2002 30.25V31.5C15.2002 32.8261 15.727 34.0979 16.6647 35.0355C17.6023 35.9732 18.8741 36.5 20.2002 36.5C21.5263 36.5 22.798 35.9732 23.7357 35.0355C24.6734 34.0979 25.2002 32.8261 25.2002 31.5V30.25" stroke="currentColor" stroke-opacity="0.2" stroke-width="2" stroke-linecap="round" stroke-linejoin="round"/>
<path d="M15.2002 30.25V31.5C15.2002 32.8261 15.727 34.0979 16.6647 35.0355C17.6023 35.9732 18.8741 36.5 20.2002 36.5C21.5263 36.5 22.798 35.9732 23.7357 35.0355C24.6734 34.0979 25.2002 32.8261 25.2002 31.5V30.25" stroke="currentColor" stroke-opacity="0.2" stroke-width="2" stroke-linecap="round" stroke-linejoin="round"/>
<path d="M15.2002 30.25V31.5C15.2002 32.8261 15.727 34.0979 16.6647 35.0355C17.6023 35.9732 18.8741 36.5 20.2002 36.5C21.5263 36.5 22.798 35.9732 23.7357 35.0355C24.6734 34.0979 25.2002 32.8261 25.2002 31.5V30.25" stroke="currentColor" stroke-opacity="0.2" stroke-width="2" stroke-linecap="round" stroke-linejoin="round"/>
<path d="M28.8564 4C31.4015 5.60658 33.4556 7.88231 34.7939 10.5781" stroke="currentColor" stroke-width="2" stroke-linecap="round" stroke-linejoin="round"/>
<path d="M5.60645 10.5781C6.94476 7.88231 8.99886 5.60658 11.5439 4" stroke="currentColor" stroke-width="2" stroke-linecap="round" stroke-linejoin="round"/>
</svg>
