<svg width="40" height="41" viewBox="0 0 40 41" fill="none" xmlns="http://www.w3.org/2000/svg">
<path d="M2.5 34.25H37.5" stroke="#171717" stroke-width="2" stroke-linecap="round" stroke-linejoin="round"/>
<path d="M22.5 34.25V6.75C22.5 6.41848 22.3683 6.10054 22.1339 5.86612C21.8995 5.6317 21.5815 5.5 21.25 5.5H6.25C5.91848 5.5 5.60054 5.6317 5.36612 5.86612C5.1317 6.10054 5 6.41848 5 6.75V34.25" stroke="#171717" stroke-width="2" stroke-linecap="round" stroke-linejoin="round"/>
<path d="M35 34.25V16.75C35 16.4185 34.8683 16.1005 34.6339 15.8661C34.3995 15.6317 34.0815 15.5 33.75 15.5H22.5" stroke="#171717" stroke-width="2" stroke-linecap="round" stroke-linejoin="round"/>
<path d="M10 11.75H15" stroke="#171717" stroke-width="2" stroke-linecap="round" stroke-linejoin="round"/>
<path d="M12.5 21.75H17.5" stroke="#171717" stroke-width="2" stroke-linecap="round" stroke-linejoin="round"/>
<path d="M10 28H15" stroke="#171717" stroke-width="2" stroke-linecap="round" stroke-linejoin="round"/>
<path d="M27.5 28H30" stroke="#171717" stroke-width="2" stroke-linecap="round" stroke-linejoin="round"/>
<path d="M27.5 21.75H30" stroke="#171717" stroke-width="2" stroke-linecap="round" stroke-linejoin="round"/>
</svg>
