<svg width="40" height="41" viewBox="0 0 40 41" fill="none" xmlns="http://www.w3.org/2000/svg">
<path d="M32.5 9.25H7.5C6.11929 9.25 5 10.3693 5 11.75V29.25C5 30.6307 6.11929 31.75 7.5 31.75H32.5C33.8807 31.75 35 30.6307 35 29.25V11.75C35 10.3693 33.8807 9.25 32.5 9.25Z" stroke="#171717" stroke-width="2" stroke-linecap="round" stroke-linejoin="round"/>
<path d="M5 19.25H13.875C14.1629 19.2484 14.4423 19.3475 14.6648 19.5301C14.8874 19.7127 15.0391 19.9674 15.0937 20.25C15.3325 21.3743 15.95 22.3824 16.8431 23.1058C17.7362 23.8292 18.8507 24.2239 20 24.2239C21.1493 24.2239 22.2638 23.8292 23.1569 23.1058C24.05 22.3824 24.6675 21.3743 24.9062 20.25C24.9609 19.9674 25.1126 19.7127 25.3352 19.5301C25.5577 19.3475 25.8371 19.2484 26.125 19.25H35" stroke="#171717" stroke-width="2" stroke-linecap="round" stroke-linejoin="round"/>
<path d="M5 14.25H35" stroke="#171717" stroke-width="2" stroke-linecap="round" stroke-linejoin="round"/>
</svg>
