<svg width="40" height="41" viewBox="0 0 40 41" fill="none" xmlns="http://www.w3.org/2000/svg">
<path d="M28.75 12.75H6.25C5.55964 12.75 5 13.3096 5 14V31.5C5 32.1904 5.55964 32.75 6.25 32.75H28.75C29.4404 32.75 30 32.1904 30 31.5V14C30 13.3096 29.4404 12.75 28.75 12.75Z" stroke="currentColor" stroke-width="2" stroke-linecap="round" stroke-linejoin="round"/>
<path d="M28.75 12.75H6.25C5.55964 12.75 5 13.3096 5 14V31.5C5 32.1904 5.55964 32.75 6.25 32.75H28.75C29.4404 32.75 30 32.1904 30 31.5V14C30 13.3096 29.4404 12.75 28.75 12.75Z" stroke="currentColor" stroke-opacity="0.2" stroke-width="2" stroke-linecap="round" stroke-linejoin="round"/>
<path d="M28.75 12.75H6.25C5.55964 12.75 5 13.3096 5 14V31.5C5 32.1904 5.55964 32.75 6.25 32.75H28.75C29.4404 32.75 30 32.1904 30 31.5V14C30 13.3096 29.4404 12.75 28.75 12.75Z" stroke="currentColor" stroke-opacity="0.2" stroke-width="2" stroke-linecap="round" stroke-linejoin="round"/>
<path d="M28.75 12.75H6.25C5.55964 12.75 5 13.3096 5 14V31.5C5 32.1904 5.55964 32.75 6.25 32.75H28.75C29.4404 32.75 30 32.1904 30 31.5V14C30 13.3096 29.4404 12.75 28.75 12.75Z" stroke="currentColor" stroke-opacity="0.2" stroke-width="2" stroke-linecap="round" stroke-linejoin="round"/>
<path d="M28.75 12.75H6.25C5.55964 12.75 5 13.3096 5 14V31.5C5 32.1904 5.55964 32.75 6.25 32.75H28.75C29.4404 32.75 30 32.1904 30 31.5V14C30 13.3096 29.4404 12.75 28.75 12.75Z" stroke="currentColor" stroke-opacity="0.2" stroke-width="2" stroke-linecap="round" stroke-linejoin="round"/>
<path d="M28.75 12.75H6.25C5.55964 12.75 5 13.3096 5 14V31.5C5 32.1904 5.55964 32.75 6.25 32.75H28.75C29.4404 32.75 30 32.1904 30 31.5V14C30 13.3096 29.4404 12.75 28.75 12.75Z" stroke="currentColor" stroke-opacity="0.2" stroke-width="2" stroke-linecap="round" stroke-linejoin="round"/>
<path d="M10 7.75H33.75C34.0815 7.75 34.3995 7.8817 34.6339 8.11612C34.8683 8.35054 35 8.66848 35 9V27.75" stroke="currentColor" stroke-width="2" stroke-linecap="round" stroke-linejoin="round"/>
<path d="M10 7.75H33.75C34.0815 7.75 34.3995 7.8817 34.6339 8.11612C34.8683 8.35054 35 8.66848 35 9V27.75" stroke="currentColor" stroke-opacity="0.2" stroke-width="2" stroke-linecap="round" stroke-linejoin="round"/>
<path d="M10 7.75H33.75C34.0815 7.75 34.3995 7.8817 34.6339 8.11612C34.8683 8.35054 35 8.66848 35 9V27.75" stroke="currentColor" stroke-opacity="0.2" stroke-width="2" stroke-linecap="round" stroke-linejoin="round"/>
<path d="M10 7.75H33.75C34.0815 7.75 34.3995 7.8817 34.6339 8.11612C34.8683 8.35054 35 8.66848 35 9V27.75" stroke="currentColor" stroke-opacity="0.2" stroke-width="2" stroke-linecap="round" stroke-linejoin="round"/>
<path d="M10 7.75H33.75C34.0815 7.75 34.3995 7.8817 34.6339 8.11612C34.8683 8.35054 35 8.66848 35 9V27.75" stroke="currentColor" stroke-opacity="0.2" stroke-width="2" stroke-linecap="round" stroke-linejoin="round"/>
<path d="M10 7.75H33.75C34.0815 7.75 34.3995 7.8817 34.6339 8.11612C34.8683 8.35054 35 8.66848 35 9V27.75" stroke="currentColor" stroke-opacity="0.2" stroke-width="2" stroke-linecap="round" stroke-linejoin="round"/>
</svg>
