<svg width="41" height="41" viewBox="0 0 41 41" fill="none" xmlns="http://www.w3.org/2000/svg">
<path d="M5.52821 22.4845C4.12721 20.1242 3.63614 17.3335 4.14725 14.6367C4.65835 11.9398 6.13646 9.52237 8.30397 7.83831C10.4715 6.15425 13.1792 5.31945 15.9187 5.49071C18.6582 5.66197 21.241 6.82749 23.1818 8.76839C25.1227 10.7093 26.2883 13.292 26.4595 16.0315C26.6308 18.771 25.796 21.4788 24.1119 23.6463C22.4279 25.8138 20.0104 27.2919 17.3136 27.803C14.6167 28.3141 11.8261 27.823 9.46571 26.422L5.57509 27.5314C5.41479 27.5765 5.24537 27.578 5.08427 27.5359C4.92316 27.4938 4.77618 27.4095 4.65843 27.2918C4.54069 27.1741 4.45643 27.0271 4.41432 26.866C4.37221 26.7049 4.37377 26.5355 4.41884 26.3752L5.52821 22.4845Z" stroke="black" stroke-width="2" stroke-linecap="round" stroke-linejoin="round"/>
<path d="M14.5908 27.9844C15.1415 29.5545 16.0341 30.9826 17.204 32.1657C18.374 33.3487 19.7921 34.2571 21.356 34.8253C22.9198 35.3934 24.5904 35.607 26.2469 35.4508C27.9034 35.2946 29.5045 34.7724 30.9346 33.9219V33.9219L34.8252 35.0312C34.9855 35.0763 35.1549 35.0779 35.316 35.0358C35.4771 34.9937 35.6241 34.9094 35.7418 34.7917C35.8596 34.6739 35.9439 34.5269 35.986 34.3658C36.0281 34.2047 36.0265 34.0353 35.9814 33.875L34.8721 29.9844C35.8625 28.3219 36.4067 26.4318 36.4519 24.4972C36.4971 22.5626 36.0419 20.6491 35.1303 18.9421C34.2186 17.2352 32.8815 15.7926 31.2485 14.7543C29.6156 13.716 27.742 13.1171 25.8096 13.0156" stroke="black" stroke-width="2" stroke-linecap="round" stroke-linejoin="round"/>
</svg>
