<svg width="40" height="40" viewBox="0 0 40 40" fill="none" xmlns="http://www.w3.org/2000/svg">
<path d="M11.25 35H8.75C8.41848 35 8.10054 34.8683 7.86612 34.6339C7.6317 34.3995 7.5 34.0815 7.5 33.75V28.75" stroke="#171717" stroke-width="2" stroke-linecap="round" stroke-linejoin="round"/>
<path d="M18.75 5H23.75L32.5 13.75V21.25" stroke="#171717" stroke-width="2" stroke-linecap="round" stroke-linejoin="round"/>
<path d="M7.5 10V6.25C7.5 5.91848 7.6317 5.60054 7.86612 5.36612C8.10054 5.1317 8.41848 5 8.75 5H12.5" stroke="#171717" stroke-width="2" stroke-linecap="round" stroke-linejoin="round"/>
<path d="M23.75 5V13.75H32.5" stroke="#171717" stroke-width="2" stroke-linecap="round" stroke-linejoin="round"/>
<path d="M32.5 27.5V33.75C32.5 34.0815 32.3683 34.3995 32.1339 34.6339C31.8995 34.8683 31.5815 35 31.25 35H30" stroke="#171717" stroke-width="2" stroke-linecap="round" stroke-linejoin="round"/>
<path d="M7.5 16.25V22.5" stroke="#171717" stroke-width="2" stroke-linecap="round" stroke-linejoin="round"/>
<path d="M17.5 35H23.75" stroke="#171717" stroke-width="2" stroke-linecap="round" stroke-linejoin="round"/>
</svg>
