<svg width="41" height="41" viewBox="0 0 41 41" fill="none" xmlns="http://www.w3.org/2000/svg">
<path d="M26.8501 35.5H9.3501C9.01858 35.5 8.70063 35.3683 8.46621 35.1339C8.23179 34.8995 8.1001 34.5815 8.1001 34.25V11.75C8.1001 11.4185 8.23179 11.1005 8.46621 10.8661C8.70063 10.6317 9.01858 10.5 9.3501 10.5H21.8501L28.1001 16.75V34.25C28.1001 34.5815 27.9684 34.8995 27.734 35.1339C27.4996 35.3683 27.1816 35.5 26.8501 35.5Z" stroke="#171717" stroke-width="2" stroke-linecap="round" stroke-linejoin="round"/>
<path d="M13.1001 10.5V6.75C13.1001 6.41848 13.2318 6.10054 13.4662 5.86612C13.7006 5.6317 14.0186 5.5 14.3501 5.5H26.8501L33.1001 11.75V29.25C33.1001 29.5815 32.9684 29.8995 32.734 30.1339C32.4996 30.3683 32.1816 30.5 31.8501 30.5H28.1001" stroke="#171717" stroke-width="2" stroke-linecap="round" stroke-linejoin="round"/>
<path d="M14.3501 24.25H21.8501" stroke="#171717" stroke-width="2" stroke-linecap="round" stroke-linejoin="round"/>
<path d="M14.3501 29.25H21.8501" stroke="#171717" stroke-width="2" stroke-linecap="round" stroke-linejoin="round"/>
</svg>
