<svg width="25" height="24" viewBox="0 0 25 24" fill="none" xmlns="http://www.w3.org/2000/svg">
<path d="M22.6906 17.6246L14.45 3.37457C14.2527 3.03185 13.9686 2.74718 13.6262 2.54924C13.2839 2.35129 12.8954 2.24707 12.5 2.24707C12.1045 2.24707 11.7161 2.35129 11.3737 2.54924C11.0314 2.74718 10.7473 3.03185 10.55 3.37457L2.30936 17.6246C2.10917 17.9656 2.00279 18.3534 2.001 18.7488C1.99921 19.1442 2.10209 19.5331 2.29919 19.8759C2.49629 20.2186 2.78058 20.5031 3.12321 20.7005C3.46583 20.8979 3.85458 21.0011 4.24998 20.9996H20.75C21.1454 21.0011 21.5341 20.8979 21.8768 20.7005C22.2194 20.5031 22.5037 20.2186 22.7008 19.8759C22.8979 19.5331 23.0008 19.1442 22.999 18.7488C22.9972 18.3534 22.8908 17.9656 22.6906 17.6246ZM11.75 9.74957C11.75 9.55066 11.829 9.3599 11.9697 9.21924C12.1103 9.07859 12.3011 8.99957 12.5 8.99957C12.6989 8.99957 12.8897 9.07859 13.0303 9.21924C13.171 9.3599 13.25 9.55066 13.25 9.74957V13.4996C13.25 13.6985 13.171 13.8893 13.0303 14.0299C12.8897 14.1706 12.6989 14.2496 12.5 14.2496C12.3011 14.2496 12.1103 14.1706 11.9697 14.0299C11.829 13.8893 11.75 13.6985 11.75 13.4996V9.74957ZM12.5 17.9996C12.2775 17.9996 12.06 17.9336 11.875 17.81C11.69 17.6864 11.5458 17.5107 11.4606 17.3051C11.3755 17.0995 11.3532 16.8733 11.3966 16.6551C11.44 16.4369 11.5472 16.2364 11.7045 16.0791C11.8618 15.9217 12.0623 15.8146 12.2805 15.7712C12.4987 15.7278 12.7249 15.7501 12.9305 15.8352C13.1361 15.9204 13.3118 16.0646 13.4354 16.2496C13.559 16.4346 13.625 16.6521 13.625 16.8746C13.625 17.1729 13.5065 17.4591 13.2955 17.6701C13.0845 17.881 12.7984 17.9996 12.5 17.9996Z" fill="currentColor"/>
</svg>
