<svg width="40" height="40" viewBox="0 0 40 40" fill="none" xmlns="http://www.w3.org/2000/svg">
<path d="M33.75 33.7496V18.0465C33.7472 17.8735 33.7098 17.7028 33.64 17.5445C33.5703 17.3862 33.4695 17.2434 33.3437 17.1246L20.8437 5.76523C20.6133 5.55441 20.3123 5.4375 20 5.4375C19.6877 5.4375 19.3867 5.55441 19.1562 5.76523L6.65625 17.1246C6.53047 17.2434 6.42972 17.3862 6.35995 17.5445C6.29018 17.7028 6.2528 17.8735 6.25 18.0465V33.7496" stroke="#171717" stroke-width="2" stroke-linecap="round" stroke-linejoin="round"/>
<path d="M2.5 33.75H37.5" stroke="#171717" stroke-width="2" stroke-linecap="round" stroke-linejoin="round"/>
<path d="M23.75 33.75V25C23.75 24.6685 23.6183 24.3505 23.3839 24.1161C23.1495 23.8817 22.8315 23.75 22.5 23.75H17.5C17.1685 23.75 16.8505 23.8817 16.6161 24.1161C16.3817 24.3505 16.25 24.6685 16.25 25V33.75" stroke="#171717" stroke-width="2" stroke-linecap="round" stroke-linejoin="round"/>
</svg>
