<svg width="81" height="80" viewBox="0 0 81 80" fill="none" xmlns="http://www.w3.org/2000/svg">
    <circle cx="40.5" cy="40" r="40" fill="#E5E5E5"/>
    <path fill-rule="evenodd" clip-rule="evenodd" d="M31.2695 29.2309C31.2695 31.3551 29.5475 33.0771 27.4233 33.0771C25.2991 33.0771 23.5771 31.3551 23.5771 29.2309C23.5771 27.1067 25.2991 25.3848 27.4233 25.3848C29.5475 25.3848 31.2695 27.1067 31.2695 29.2309ZM57.4232 32.3076L38.1924 32.3076V26.1538L57.4232 26.1538V32.3076ZM40.8849 41.5391C50.4437 41.5391 58.1926 49.4602 58.1926 59.2314H51.2698V59.2307C51.2698 53.283 46.6204 48.4615 40.8852 48.4615C35.1499 48.4615 30.5006 53.283 30.5006 59.2307V59.2314H23.5773C23.5773 49.4602 31.3262 41.5391 40.8849 41.5391Z" fill="#A3A3A3"/>
</svg>
