<svg width="121" height="40" viewBox="0 0 121 40" fill="none" xmlns="http://www.w3.org/2000/svg">
<circle cx="20" cy="20" r="20" fill="#40DCB6"/>
<path fill-rule="evenodd" clip-rule="evenodd" d="M15.3852 14.6155C15.3852 15.6775 14.5242 16.5385 13.4621 16.5385C12.4001 16.5385 11.5391 15.6775 11.5391 14.6155C11.5391 13.5534 12.4001 12.6924 13.4621 12.6924C14.5242 12.6924 15.3852 13.5534 15.3852 14.6155ZM28.4621 16.1539L18.8468 16.1539V13.077L28.4621 13.077V16.1539ZM11.5398 20.7697L11.5398 20.7695H15.0014V20.7697C15.0014 23.7436 17.326 26.1543 20.1937 26.1543C23.0613 26.1543 25.386 23.7436 25.386 20.7697V20.7695H28.8475V20.7697C28.8475 25.6553 24.973 29.6159 20.1937 29.6159C15.4143 29.6159 11.5398 25.6553 11.5398 20.7697Z" fill="#010D3C"/>
<path fill-rule="evenodd" clip-rule="evenodd" d="M82.6917 9.23069C82.6917 10.2928 81.8307 11.1538 80.7686 11.1538C79.7065 11.1538 78.8456 10.2928 78.8456 9.23069C78.8456 8.16861 79.7065 7.30762 80.7686 7.30762C81.8307 7.30762 82.6917 8.16861 82.6917 9.23069ZM88.0765 9.23069C88.0765 10.2928 87.2155 11.1538 86.1534 11.1538C85.0913 11.1538 84.2303 10.2928 84.2303 9.23069C84.2303 8.16861 85.0913 7.30762 86.1534 7.30762C87.2155 7.30762 88.0765 8.16861 88.0765 9.23069ZM106.169 12.8918V29.8787H109.717V19.8624C109.717 19.0251 109.874 18.3029 110.188 17.6959C110.502 17.0888 110.942 16.6283 111.507 16.3143C112.093 15.9794 112.752 15.8119 113.485 15.8119C114.218 15.8119 114.866 15.9794 115.432 16.3143C116.018 16.6283 116.468 17.0888 116.782 17.6959C117.096 18.282 117.253 19.0042 117.253 19.8624V29.8787H120.769V18.9204C120.769 17.6645 120.497 16.555 119.953 15.5921C119.409 14.6292 118.655 13.8756 117.692 13.3314C116.729 12.7871 115.62 12.515 114.364 12.515C113.15 12.515 112.082 12.7976 111.161 13.3628C110.497 13.7555 109.963 14.2844 109.56 14.9495V12.8918H106.169ZM96.2667 30.2555C94.5712 30.2555 93.064 29.8682 91.7453 29.0937C90.4474 28.2983 89.4322 27.2307 88.6996 25.891C87.9669 24.5304 87.6006 23.0128 87.6006 21.3382C87.6006 19.6217 87.9669 18.1041 88.6996 16.7853C89.4531 15.4665 90.4579 14.4304 91.7139 13.6768C92.9698 12.9023 94.3932 12.515 95.9841 12.515C97.261 12.515 98.4018 12.7348 99.4066 13.1744C100.411 13.614 101.259 14.221 101.95 14.9955C102.641 15.7491 103.164 16.6178 103.52 17.6017C103.897 18.5855 104.085 19.6321 104.085 20.7416C104.085 21.0137 104.075 21.2963 104.054 21.5893C104.033 21.8824 103.991 22.1545 103.928 22.4057H91.2842C91.3246 23.1344 91.4888 23.7937 91.7767 24.3839C92.2162 25.2421 92.8233 25.9119 93.5978 26.3934C94.3932 26.8748 95.2933 27.1156 96.2981 27.1156C97.3238 27.1156 98.1925 26.8853 98.9042 26.4248C99.6369 25.9643 100.213 25.3677 100.631 24.635L103.52 26.048C103.185 26.8434 102.662 27.5656 101.95 28.2145C101.259 28.8425 100.422 29.3449 99.438 29.7217C98.4751 30.0775 97.418 30.2555 96.2667 30.2555ZM91.3729 19.5798H100.335C100.313 19.0623 100.202 18.5808 100.003 18.1354C99.6683 17.3191 99.145 16.6806 98.4332 16.2201C97.7425 15.7387 96.9261 15.4979 95.9841 15.4979C95.0422 15.4979 94.2048 15.7387 93.4722 16.2201C92.7396 16.6806 92.1744 17.3505 91.7767 18.2296C91.5878 18.6372 91.4532 19.0873 91.3729 19.5798ZM81.5996 12.8895V29.8764H85.1477V12.8895H81.5996ZM70.2844 30.2555C68.6516 30.2555 67.1549 29.8682 65.7943 29.0937C64.4546 28.3192 63.387 27.2621 62.5916 25.9224C61.7962 24.5827 61.3984 23.0651 61.3984 21.3695C61.3984 19.6531 61.7962 18.1355 62.5916 16.8167C63.387 15.477 64.4546 14.4304 65.7943 13.6768C67.134 12.9023 68.6307 12.515 70.2844 12.515C71.959 12.515 73.4557 12.9023 74.7744 13.6768C76.1141 14.4304 77.1712 15.477 77.9457 16.8167C78.7412 18.1355 79.1389 19.6531 79.1389 21.3695C79.1389 23.086 78.7412 24.6141 77.9457 25.9538C77.1503 27.2935 76.0827 28.3506 74.743 29.1251C73.4033 29.8787 71.9171 30.2555 70.2844 30.2555ZM70.2844 26.9586C71.2891 26.9586 72.1788 26.7178 72.9533 26.2364C73.7278 25.7549 74.3348 25.0956 74.7744 24.2583C75.2349 23.4 75.4652 22.4371 75.4652 21.3695C75.4652 20.302 75.2349 19.3495 74.7744 18.5122C74.3348 17.6749 73.7278 17.0156 72.9533 16.5341C72.1788 16.0526 71.2891 15.8119 70.2844 15.8119C69.3005 15.8119 68.4109 16.0526 67.6154 16.5341C66.8409 17.0156 66.2234 17.6749 65.7629 18.5122C65.3233 19.3495 65.1035 20.302 65.1035 21.3695C65.1035 22.4371 65.3233 23.4 65.7629 24.2583C66.2234 25.0956 66.8409 25.7549 67.6154 26.2364C68.4109 26.7178 69.3005 26.9586 70.2844 26.9586ZM34.6152 12.8918V29.8787H38.1633V19.8624C38.1633 19.0251 38.3099 18.3029 38.6029 17.6959C38.9169 17.0888 39.346 16.6283 39.8903 16.3143C40.4345 15.9794 41.0625 15.8119 41.7742 15.8119C42.5069 15.8119 43.1348 15.9794 43.6582 16.3143C44.2024 16.6283 44.6211 17.0888 44.9141 17.6959C45.2281 18.282 45.3851 19.0042 45.3851 19.8624V29.8787H48.9018V19.8624C48.9018 19.0251 49.0588 18.3029 49.3728 17.6959C49.6868 17.0888 50.1159 16.6283 50.6601 16.3143C51.2044 15.9794 51.8324 15.8119 52.5441 15.8119C53.2558 15.8119 53.8733 15.9794 54.3966 16.3143C54.9409 16.6283 55.3595 17.0888 55.6526 17.6959C55.9666 18.282 56.1236 19.0042 56.1236 19.8624V29.8787H59.6717V18.889C59.6717 17.654 59.3891 16.555 58.8239 15.5921C58.2587 14.6292 57.4947 13.8756 56.5318 13.3314C55.5898 12.7871 54.5327 12.515 53.3605 12.515C52.0208 12.515 50.8276 12.8499 49.781 13.5198C49.0761 13.9801 48.4948 14.6035 48.0371 15.39C47.6406 14.6877 47.081 14.0957 46.3585 13.614C45.3118 12.8813 44.1082 12.515 42.7476 12.515C41.5335 12.515 40.4555 12.8081 39.5135 13.3942C38.8775 13.7899 38.3751 14.3144 38.0063 14.9678V12.8918H34.6152Z" fill="#010D3C"/>
</svg>
