<svg width="41" height="41" viewBox="0 0 41 41" fill="none" xmlns="http://www.w3.org/2000/svg">
<path d="M32.8999 20.25V32.75C32.8999 33.0815 32.7682 33.3995 32.5338 33.6339C32.2994 33.8683 31.9814 34 31.6499 34H7.8999C7.56838 34 7.25044 33.8683 7.01602 33.6339C6.7816 33.3995 6.6499 33.0815 6.6499 32.75V9C6.6499 8.66848 6.7816 8.35054 7.01602 8.11612C7.25044 7.8817 7.56838 7.75 7.8999 7.75H20.3999" stroke="currentColor" stroke-width="2" stroke-linecap="round" stroke-linejoin="round"/>
<path d="M32.8999 20.25V32.75C32.8999 33.0815 32.7682 33.3995 32.5338 33.6339C32.2994 33.8683 31.9814 34 31.6499 34H7.8999C7.56838 34 7.25044 33.8683 7.01602 33.6339C6.7816 33.3995 6.6499 33.0815 6.6499 32.75V9C6.6499 8.66848 6.7816 8.35054 7.01602 8.11612C7.25044 7.8817 7.56838 7.75 7.8999 7.75H20.3999" stroke="currentColor" stroke-opacity="0.2" stroke-width="2" stroke-linecap="round" stroke-linejoin="round"/>
<path d="M32.8999 20.25V32.75C32.8999 33.0815 32.7682 33.3995 32.5338 33.6339C32.2994 33.8683 31.9814 34 31.6499 34H7.8999C7.56838 34 7.25044 33.8683 7.01602 33.6339C6.7816 33.3995 6.6499 33.0815 6.6499 32.75V9C6.6499 8.66848 6.7816 8.35054 7.01602 8.11612C7.25044 7.8817 7.56838 7.75 7.8999 7.75H20.3999" stroke="currentColor" stroke-opacity="0.2" stroke-width="2" stroke-linecap="round" stroke-linejoin="round"/>
<path d="M32.8999 20.25V32.75C32.8999 33.0815 32.7682 33.3995 32.5338 33.6339C32.2994 33.8683 31.9814 34 31.6499 34H7.8999C7.56838 34 7.25044 33.8683 7.01602 33.6339C6.7816 33.3995 6.6499 33.0815 6.6499 32.75V9C6.6499 8.66848 6.7816 8.35054 7.01602 8.11612C7.25044 7.8817 7.56838 7.75 7.8999 7.75H20.3999" stroke="currentColor" stroke-opacity="0.2" stroke-width="2" stroke-linecap="round" stroke-linejoin="round"/>
<path d="M32.8999 20.25V32.75C32.8999 33.0815 32.7682 33.3995 32.5338 33.6339C32.2994 33.8683 31.9814 34 31.6499 34H7.8999C7.56838 34 7.25044 33.8683 7.01602 33.6339C6.7816 33.3995 6.6499 33.0815 6.6499 32.75V9C6.6499 8.66848 6.7816 8.35054 7.01602 8.11612C7.25044 7.8817 7.56838 7.75 7.8999 7.75H20.3999" stroke="currentColor" stroke-opacity="0.2" stroke-width="2" stroke-linecap="round" stroke-linejoin="round"/>
<path d="M32.8999 20.25V32.75C32.8999 33.0815 32.7682 33.3995 32.5338 33.6339C32.2994 33.8683 31.9814 34 31.6499 34H7.8999C7.56838 34 7.25044 33.8683 7.01602 33.6339C6.7816 33.3995 6.6499 33.0815 6.6499 32.75V9C6.6499 8.66848 6.7816 8.35054 7.01602 8.11612C7.25044 7.8817 7.56838 7.75 7.8999 7.75H20.3999" stroke="currentColor" stroke-opacity="0.2" stroke-width="2" stroke-linecap="round" stroke-linejoin="round"/>
<path d="M31.0249 14C33.4411 14 35.3999 12.0412 35.3999 9.625C35.3999 7.20875 33.4411 5.25 31.0249 5.25C28.6087 5.25 26.6499 7.20875 26.6499 9.625C26.6499 12.0412 28.6087 14 31.0249 14Z" stroke="currentColor" stroke-width="2" stroke-linecap="round" stroke-linejoin="round"/>
</svg>
