<svg width="40" height="40" viewBox="0 0 40 40" fill="none" xmlns="http://www.w3.org/2000/svg">
<path d="M20 35C28.2843 35 35 28.2843 35 20C35 11.7157 28.2843 5 20 5C11.7157 5 5 11.7157 5 20C5 28.2843 11.7157 35 20 35Z" stroke="#171717" stroke-width="2" stroke-linecap="round" stroke-linejoin="round"/>
<path d="M25 23.75C24.2129 24.7994 23.1156 25.5746 21.8635 25.9657C20.6114 26.3568 19.268 26.3441 18.0236 25.9293C16.7791 25.5145 15.6967 24.7186 14.9297 23.6544C14.1627 22.5903 13.75 21.3118 13.75 20C13.75 18.6882 14.1627 17.4097 14.9297 16.3456C15.6967 15.2814 16.7791 14.4855 18.0236 14.0707C19.268 13.6559 20.6114 13.6432 21.8635 14.0343C23.1156 14.4254 24.2129 15.2006 25 16.25" stroke="black" stroke-width="2" stroke-linecap="round" stroke-linejoin="round"/>
</svg>
