<svg width="40" height="40" viewBox="0 0 40 40" fill="none" xmlns="http://www.w3.org/2000/svg">
<path d="M28.3332 35V31.6667C28.3332 29.8986 27.6308 28.2029 26.3806 26.9526C25.1303 25.7024 23.4346 25 21.6665 25H8.33317C6.56506 25 4.86937 25.7024 3.61913 26.9526C2.36888 28.2029 1.6665 29.8986 1.6665 31.6667V35" stroke="#171717" stroke-width="2" stroke-linecap="round" stroke-linejoin="round"/>
<path d="M15.0002 18.3333C18.6821 18.3333 21.6668 15.3486 21.6668 11.6667C21.6668 7.98477 18.6821 5 15.0002 5C11.3183 5 8.3335 7.98477 8.3335 11.6667C8.3335 15.3486 11.3183 18.3333 15.0002 18.3333Z" stroke="#171717" stroke-width="2" stroke-linecap="round" stroke-linejoin="round"/>
<path d="M38.3335 35.0001V31.6668C38.3324 30.1897 37.8408 28.7548 36.9358 27.5873C36.0308 26.4199 34.7637 25.5861 33.3335 25.2168" stroke="#171717" stroke-width="2" stroke-linecap="round" stroke-linejoin="round"/>
<path d="M26.6665 5.2168C28.1005 5.58397 29.3716 6.41797 30.2792 7.58731C31.1869 8.75666 31.6796 10.1948 31.6796 11.6751C31.6796 13.1554 31.1869 14.5936 30.2792 15.7629C29.3716 16.9323 28.1005 17.7663 26.6665 18.1335" stroke="#171717" stroke-width="2" stroke-linecap="round" stroke-linejoin="round"/>
</svg>
