<svg width="40" height="41" viewBox="0 0 40 41" fill="none" xmlns="http://www.w3.org/2000/svg">
<path d="M6.25 10.5V30.5C6.25 31.163 6.51339 31.7989 6.98223 32.2678C7.45107 32.7366 8.08696 33 8.75 33H33.75C34.0815 33 34.3995 32.8683 34.6339 32.6339C34.8683 32.3995 35 32.0815 35 31.75V14.25C35 13.9185 34.8683 13.6005 34.6339 13.3661C34.3995 13.1317 34.0815 13 33.75 13H8.75C8.08696 13 7.45107 12.7366 6.98223 12.2678C6.51339 11.7989 6.25 11.163 6.25 10.5ZM6.25 10.5C6.25 9.83696 6.51339 9.20107 6.98223 8.73223C7.45107 8.26339 8.08696 8 8.75 8H30" stroke="#171717" stroke-width="2" stroke-linecap="round" stroke-linejoin="round"/>
<path d="M28.125 24.875C29.1605 24.875 30 24.0355 30 23C30 21.9645 29.1605 21.125 28.125 21.125C27.0895 21.125 26.25 21.9645 26.25 23C26.25 24.0355 27.0895 24.875 28.125 24.875Z" fill="#171717"/>
</svg>
