<svg width="24" height="24" viewBox="0 0 24 24" fill="none" xmlns="http://www.w3.org/2000/svg">
<path d="M22.1906 17.6256L13.95 3.37555C13.7527 3.03283 13.4686 2.74816 13.1262 2.55021C12.7839 2.35227 12.3954 2.24805 12 2.24805C11.6045 2.24805 11.2161 2.35227 10.8737 2.55021C10.5314 2.74816 10.2473 3.03283 10.05 3.37555L1.80936 17.6256C1.60917 17.9665 1.50279 18.3544 1.501 18.7498C1.49921 19.1452 1.60209 19.534 1.79919 19.8768C1.99629 20.2196 2.28058 20.5041 2.62321 20.7015C2.96583 20.8988 3.35458 21.002 3.74998 21.0005H20.25C20.6454 21.002 21.0341 20.8988 21.3768 20.7015C21.7194 20.5041 22.0037 20.2196 22.2008 19.8768C22.3979 19.534 22.5008 19.1452 22.499 18.7498C22.4972 18.3544 22.3908 17.9665 22.1906 17.6256ZM11.25 9.75055C11.25 9.55164 11.329 9.36087 11.4697 9.22022C11.6103 9.07957 11.8011 9.00055 12 9.00055C12.1989 9.00055 12.3897 9.07957 12.5303 9.22022C12.671 9.36087 12.75 9.55164 12.75 9.75055V13.5005C12.75 13.6995 12.671 13.8902 12.5303 14.0309C12.3897 14.1715 12.1989 14.2506 12 14.2506C11.8011 14.2506 11.6103 14.1715 11.4697 14.0309C11.329 13.8902 11.25 13.6995 11.25 13.5005V9.75055ZM12 18.0006C11.7775 18.0006 11.56 17.9346 11.375 17.811C11.19 17.6873 11.0458 17.5116 10.9606 17.3061C10.8755 17.1005 10.8532 16.8743 10.8966 16.6561C10.94 16.4378 11.0472 16.2374 11.2045 16.0801C11.3618 15.9227 11.5623 15.8156 11.7805 15.7722C11.9987 15.7288 12.2249 15.751 12.4305 15.8362C12.6361 15.9213 12.8118 16.0655 12.9354 16.2505C13.059 16.4355 13.125 16.653 13.125 16.8756C13.125 17.1739 13.0065 17.4601 12.7955 17.671C12.5845 17.882 12.2984 18.0006 12 18.0006Z" fill="#F58709"/>
</svg>
