<?xml version="1.0" standalone="no"?>
<!DOCTYPE svg PUBLIC "-//W3C//DTD SVG 20010904//EN"
 "http://www.w3.org/TR/2001/REC-SVG-20010904/DTD/svg10.dtd">
<svg version="1.0" xmlns="http://www.w3.org/2000/svg"
 width="3840.000000pt" height="3840.000000pt" viewBox="0 0 3840.000000 3840.000000"
 preserveAspectRatio="xMidYMid meet">
<metadata>
Created by potrace 1.16, written by Peter Selinger 2001-2019
</metadata>
<g transform="translate(0.000000,3840.000000) scale(0.100000,-0.100000)"
fill="#000000" stroke="none">
<path d="M13845 24693 c-53 -6 -229 -44 -260 -55 -16 -5 -48 -19 -70 -29 -22
-10 -57 -21 -77 -24 -21 -3 -41 -11 -45 -18 -5 -7 -24 -21 -43 -30 -54 -27
-119 -67 -143 -87 -12 -10 -50 -41 -84 -69 -293 -241 -473 -643 -473 -1057 0
-167 82 -487 141 -548 5 -6 9 -18 9 -28 0 -38 176 -285 253 -354 72 -65 275
-204 299 -204 5 0 22 -8 36 -18 15 -11 49 -24 76 -31 27 -7 70 -23 97 -36 66
-34 272 -67 424 -68 129 -1 336 25 395 50 60 25 173 63 187 63 8 0 41 18 73
40 32 22 63 40 67 40 40 1 272 208 331 295 14 22 45 65 68 95 23 31 49 71 58
90 8 19 20 42 25 50 27 42 87 236 112 360 19 93 21 127 16 290 -5 179 -7 189
-46 322 -22 75 -56 167 -76 203 -19 36 -35 73 -35 82 0 9 -17 36 -37 60 -21
25 -45 55 -53 67 -8 13 -28 42 -43 65 -34 52 -98 117 -157 162 -25 18 -50 38
-56 44 -7 5 -26 21 -44 35 -17 14 -41 33 -52 43 -12 9 -26 17 -33 17 -7 0 -20
9 -30 20 -10 11 -25 20 -33 20 -8 0 -31 9 -51 19 -74 39 -234 94 -323 112 -87
17 -309 24 -403 12z"/>
<path d="M21973 24673 l-3613 -3 0 -1229 0 -1229 28 -6 c15 -4 1657 -8 3650
-9 3616 -2 3623 -2 3628 18 2 11 3 569 2 1240 l-3 1220 -40 0 c-22 0 -1666 -1
-3652 -2z"/>
<path d="M12789 18329 c-10 -25 -10 -56 -1 -158 7 -69 12 -174 12 -233 0 -128
16 -329 35 -453 20 -125 43 -305 51 -395 6 -73 25 -172 64 -335 11 -44 29
-129 41 -190 11 -60 27 -125 35 -143 7 -19 21 -71 29 -117 9 -47 32 -124 51
-172 18 -48 34 -100 34 -116 0 -15 15 -58 34 -95 18 -37 38 -96 44 -131 6 -35
18 -74 27 -87 8 -13 15 -29 15 -36 0 -7 12 -35 25 -63 14 -27 25 -59 25 -70 0
-11 9 -31 20 -45 11 -14 20 -31 20 -38 0 -8 8 -26 18 -40 10 -15 24 -49 31
-77 6 -27 16 -51 22 -53 5 -2 9 -9 9 -16 0 -7 9 -21 20 -31 13 -12 20 -31 20
-54 0 -26 12 -55 45 -103 25 -37 45 -78 45 -90 0 -21 52 -98 72 -106 5 -2 8
-13 8 -25 0 -12 9 -33 20 -47 11 -14 20 -32 20 -41 0 -8 11 -26 25 -39 14 -13
25 -31 25 -40 0 -9 9 -25 20 -35 11 -10 20 -25 20 -34 0 -9 9 -27 20 -41 11
-14 20 -30 20 -37 0 -6 16 -33 36 -59 20 -26 42 -59 48 -73 20 -44 58 -101 67
-101 4 0 15 -15 24 -34 9 -18 29 -46 45 -61 17 -16 30 -34 31 -39 1 -23 176
-254 261 -346 33 -35 93 -105 134 -155 96 -118 267 -292 376 -384 48 -40 112
-101 143 -136 31 -35 108 -104 171 -152 64 -48 144 -110 179 -138 35 -27 91
-71 125 -97 33 -27 64 -48 68 -48 4 0 21 -12 37 -28 37 -33 141 -102 155 -102
6 0 23 -8 38 -18 105 -72 155 -102 167 -102 8 0 18 -6 22 -13 12 -20 91 -70
165 -106 37 -17 70 -36 73 -41 3 -6 14 -10 24 -10 10 0 29 -8 42 -19 13 -10
35 -22 49 -26 14 -4 62 -25 107 -46 45 -22 86 -39 91 -39 5 0 17 -9 27 -20 10
-11 24 -20 32 -20 8 0 57 -20 109 -45 51 -25 99 -45 105 -45 7 0 52 -16 100
-35 49 -19 110 -40 136 -45 26 -6 69 -24 95 -40 26 -16 62 -32 80 -34 18 -3
52 -12 75 -20 24 -9 71 -22 105 -30 35 -8 81 -21 103 -30 22 -8 52 -15 67 -16
14 0 91 -18 170 -39 193 -53 289 -70 818 -147 186 -27 390 -36 815 -37 402 -1
636 10 815 38 52 8 131 19 175 24 44 5 114 16 155 24 41 8 120 23 175 32 161
28 268 53 341 79 38 13 112 29 164 36 66 8 112 20 150 39 30 16 76 31 102 35
26 4 88 25 138 47 50 21 104 39 120 39 31 0 108 30 149 59 14 10 49 21 76 25
32 4 68 18 100 40 29 19 68 36 92 39 25 3 56 17 80 35 21 17 58 36 83 43 25 7
52 18 60 25 8 7 49 28 90 48 41 19 95 49 120 66 25 16 50 30 56 30 5 0 38 20
73 44 34 24 74 47 88 51 14 3 42 19 62 35 20 15 50 37 67 47 118 68 155 92
206 130 31 24 60 43 64 43 4 0 19 11 33 24 15 13 60 47 101 75 240 164 687
579 903 839 12 14 56 64 97 111 117 134 250 302 250 318 0 4 18 28 40 53 22
24 40 48 40 52 0 4 18 31 40 60 22 29 40 58 40 64 0 6 7 18 17 25 9 8 41 52
72 99 30 47 61 91 68 98 7 7 13 23 13 35 0 12 18 44 40 71 22 27 43 60 47 75
3 14 14 38 24 53 11 14 19 29 19 32 0 4 9 16 20 28 11 12 20 28 20 35 0 19 51
114 72 135 10 10 18 26 18 36 0 9 9 28 20 42 11 14 20 31 20 38 0 8 9 26 19
41 11 15 25 50 32 77 15 61 23 77 54 108 17 17 25 36 25 61 0 39 20 84 56 128
14 16 24 42 24 58 0 54 22 120 50 147 21 21 28 40 33 85 3 32 14 77 25 100 11
23 23 57 26 76 3 19 12 42 20 50 7 9 16 40 18 69 3 32 19 80 42 126 22 46 36
88 36 112 0 46 34 205 50 234 6 12 20 74 31 138 11 64 26 140 34 167 18 64 44
231 56 363 5 57 16 134 24 170 19 91 45 382 45 517 0 61 5 164 11 230 6 66 8
135 4 153 l-6 32 -1237 -1 c-1147 0 -1320 -3 -1340 -23 -4 -4 -8 -85 -9 -179
-1 -95 -9 -253 -17 -352 -14 -178 -62 -560 -71 -575 -3 -5 -16 -68 -30 -142
-14 -73 -34 -150 -46 -171 -12 -21 -24 -69 -29 -110 -7 -67 -51 -210 -71 -232
-5 -5 -9 -35 -9 -67 0 -45 -5 -63 -20 -78 -11 -11 -20 -27 -20 -35 0 -8 -3
-15 -8 -15 -4 0 -13 -19 -20 -42 -23 -78 -65 -168 -77 -168 -13 0 -25 -51 -25
-104 0 -19 -11 -38 -34 -60 -25 -22 -38 -46 -46 -81 -13 -58 -34 -95 -55 -95
-18 0 -37 -35 -34 -63 4 -28 -40 -104 -63 -111 -12 -3 -18 -14 -18 -35 0 -20
-7 -34 -20 -41 -11 -6 -20 -19 -20 -29 0 -10 -11 -30 -25 -45 -14 -15 -25 -31
-25 -37 0 -17 -32 -59 -45 -59 -7 0 -20 -16 -30 -36 -9 -19 -23 -38 -31 -41
-8 -3 -14 -12 -14 -20 0 -8 -11 -29 -25 -47 -14 -17 -35 -44 -48 -59 -12 -16
-29 -36 -37 -45 -9 -9 -48 -55 -87 -102 -88 -105 -434 -438 -466 -449 -7 -2
-14 -7 -17 -10 -3 -4 -30 -24 -60 -45 -30 -22 -59 -45 -63 -53 -4 -7 -24 -20
-43 -28 -18 -7 -49 -28 -66 -44 -18 -17 -40 -31 -48 -31 -8 0 -26 -9 -40 -20
-14 -11 -31 -20 -37 -20 -7 0 -13 -4 -13 -8 0 -5 -20 -19 -45 -32 -25 -13 -45
-27 -45 -31 0 -7 -29 -22 -95 -49 -11 -5 -32 -11 -47 -14 -16 -4 -28 -13 -28
-21 0 -8 -6 -15 -13 -15 -7 0 -30 -9 -52 -20 -22 -11 -49 -20 -61 -20 -11 0
-29 -9 -39 -20 -10 -11 -26 -20 -35 -20 -9 0 -31 -11 -50 -25 -24 -18 -47 -25
-77 -25 -33 0 -56 -9 -96 -34 -28 -19 -72 -39 -97 -45 -163 -36 -199 -46 -236
-62 -23 -10 -100 -28 -170 -39 -71 -11 -194 -31 -274 -45 -254 -44 -882 -45
-1095 -2 -128 26 -193 37 -315 57 -67 10 -139 28 -174 44 -32 14 -66 26 -75
26 -27 0 -185 41 -195 51 -6 5 -17 9 -26 9 -9 0 -25 9 -35 20 -12 13 -31 20
-54 20 -53 0 -94 14 -125 44 -16 14 -45 28 -65 32 -20 3 -53 17 -73 30 -21 13
-42 24 -48 24 -5 0 -10 4 -10 9 0 4 -27 16 -60 25 -33 9 -63 22 -67 29 -5 7
-33 26 -64 42 -31 17 -71 41 -88 55 -18 14 -66 44 -108 66 -41 23 -103 65
-137 93 -33 28 -108 88 -166 133 -58 45 -127 102 -155 127 -91 85 -272 275
-328 346 -30 39 -73 90 -95 115 -46 52 -105 137 -128 186 -9 19 -20 34 -25 34
-5 0 -9 6 -9 14 0 7 -11 21 -25 30 -14 9 -25 24 -25 32 0 9 -18 37 -41 62 -30
34 -39 53 -37 74 2 21 -7 38 -38 70 -23 24 -45 56 -48 72 -4 17 -16 42 -27 57
-10 15 -19 32 -19 38 0 6 -9 15 -20 21 -15 8 -20 21 -20 51 0 48 -13 74 -51
107 -22 18 -29 33 -29 58 0 42 -22 96 -54 134 -13 16 -27 49 -30 74 -4 24 -22
83 -41 129 -19 47 -39 114 -45 150 -12 78 -17 91 -46 137 -18 26 -28 69 -43
173 -11 83 -26 148 -36 163 -16 25 -24 70 -59 339 -9 66 -23 170 -31 230 -13
94 -35 511 -35 650 l0 45 -1264 0 -1264 0 -13 -31z"/>
</g>
</svg>
