<?xml version="1.0" standalone="no"?>
<!DOCTYPE svg PUBLIC "-//W3C//DTD SVG 20010904//EN"
 "http://www.w3.org/TR/2001/REC-SVG-20010904/DTD/svg10.dtd">
<svg version="1.0" xmlns="http://www.w3.org/2000/svg"
 width="3840.000000pt" height="3840.000000pt" viewBox="0 0 3840.000000 3840.000000"
 preserveAspectRatio="xMidYMid meet">
<metadata>
Created by potrace 1.16, written by Peter Selinger 2001-2019
</metadata>
<g transform="translate(0.000000,3840.000000) scale(0.100000,-0.100000)"
fill="#000000" stroke="none">
<path d="M13755 24679 c-109 -19 -177 -38 -225 -64 -14 -7 -43 -18 -66 -24
-58 -16 -208 -105 -304 -180 -91 -72 -223 -214 -278 -300 -112 -174 -189 -379
-217 -578 -28 -196 -19 -319 41 -555 58 -230 243 -509 436 -654 107 -81 257
-165 328 -184 24 -7 66 -23 92 -36 63 -32 272 -66 418 -68 119 -1 281 16 360
39 116 33 274 96 312 124 23 17 46 31 51 31 22 0 135 89 224 177 154 152 269
334 323 513 94 312 99 534 20 812 -39 136 -56 179 -91 230 -11 14 -19 36 -19
49 0 12 -19 46 -42 75 -24 29 -65 85 -93 124 -44 65 -94 113 -194 190 -17 14
-51 42 -74 62 -23 21 -51 41 -62 44 -11 4 -28 13 -38 22 -10 9 -32 21 -50 28
-32 12 -140 55 -232 92 -134 53 -411 68 -620 31z"/>
<path d="M18408 24672 l-48 -3 0 -1224 c0 -1208 0 -1224 20 -1235 24 -13 7269
-15 7282 -2 11 11 11 2456 0 2460 -11 3 -7197 8 -7254 4z"/>
<path d="M12789 18333 c-7 -18 -6 -85 1 -207 5 -100 15 -264 20 -366 6 -102
15 -212 20 -245 13 -77 35 -249 50 -390 7 -60 21 -150 32 -200 10 -49 30 -142
44 -205 24 -110 68 -297 100 -425 9 -33 24 -84 35 -112 10 -29 30 -94 44 -145
15 -50 33 -105 42 -122 8 -16 26 -66 38 -110 30 -105 95 -276 138 -363 19 -37
40 -86 47 -107 7 -22 25 -63 40 -90 15 -28 30 -64 34 -80 4 -17 25 -60 47 -97
21 -37 39 -73 39 -79 0 -6 13 -30 29 -53 16 -23 46 -76 66 -117 21 -41 46 -86
55 -100 10 -14 31 -50 47 -80 57 -104 75 -135 97 -165 12 -16 36 -55 54 -87
17 -31 42 -67 54 -81 27 -29 67 -86 123 -172 54 -84 148 -204 275 -350 58 -66
126 -145 152 -175 88 -103 213 -227 321 -320 59 -50 124 -112 145 -137 36 -44
98 -97 257 -218 43 -33 122 -95 176 -137 54 -43 100 -78 103 -78 3 0 34 -22
69 -48 35 -27 83 -59 108 -71 24 -12 64 -35 89 -51 25 -16 70 -43 100 -61 30
-18 71 -45 90 -60 36 -28 147 -89 163 -89 5 0 20 -9 34 -20 14 -11 32 -20 40
-20 8 0 27 -8 41 -18 15 -10 76 -40 136 -66 60 -26 121 -56 134 -67 14 -10 30
-19 37 -19 7 0 32 -11 56 -24 55 -31 291 -122 367 -141 31 -8 83 -28 117 -44
57 -28 175 -65 350 -110 449 -115 504 -127 785 -166 102 -14 246 -35 320 -45
339 -49 1242 -51 1530 -4 52 8 148 21 212 29 65 7 121 16 125 18 5 3 73 15
153 27 170 25 340 62 410 90 27 11 98 27 157 35 77 12 124 24 165 46 31 16 66
29 77 29 26 0 98 24 183 61 36 16 78 29 93 29 29 0 115 34 155 60 14 10 48 20
75 24 32 4 68 18 100 40 28 18 67 36 88 39 21 3 59 20 85 37 26 17 70 38 99
46 29 8 55 20 59 25 3 6 41 27 83 48 42 21 95 50 116 64 22 15 44 27 50 27 6
0 40 20 75 45 35 25 69 45 76 45 6 0 35 16 63 35 28 20 66 44 84 54 68 39 159
99 266 176 62 44 136 97 164 117 196 139 658 564 808 744 40 49 108 127 149
174 107 120 200 235 248 306 23 34 47 68 55 75 7 8 26 34 43 59 17 25 78 115
136 200 57 86 108 167 111 181 4 14 21 43 38 65 17 21 44 67 59 101 16 34 38
72 49 84 12 13 21 29 21 36 0 18 48 109 66 124 8 6 14 17 14 24 0 6 20 52 44
101 24 49 49 107 56 129 7 22 25 57 41 77 16 20 29 49 29 65 0 32 27 96 64
150 14 21 26 48 26 60 0 46 26 117 53 146 18 20 27 40 27 62 0 35 38 167 70
245 10 25 21 63 24 85 3 22 21 72 41 111 24 49 35 86 35 115 0 54 34 207 53
246 8 15 20 66 26 113 7 47 21 119 31 160 26 107 60 314 60 371 0 26 9 94 19
151 23 121 38 284 46 493 3 83 11 207 16 278 6 70 8 141 4 157 l-7 30 -1275
-2 -1275 -3 -20 -25 c-19 -23 -20 -34 -14 -126 5 -95 1 -192 -23 -469 -25
-288 -100 -724 -140 -817 -11 -24 -22 -65 -26 -93 -8 -64 -41 -179 -66 -228
-10 -22 -19 -56 -19 -77 0 -39 -15 -90 -29 -100 -8 -6 -71 -164 -71 -181 0 -6
-14 -31 -30 -56 -17 -25 -35 -68 -41 -96 -6 -32 -22 -67 -43 -94 -21 -27 -36
-60 -40 -87 -6 -35 -15 -50 -41 -70 -24 -19 -36 -38 -41 -64 -9 -50 -28 -86
-59 -110 -14 -11 -25 -25 -25 -31 0 -16 -60 -125 -76 -137 -8 -6 -14 -16 -14
-22 0 -6 -18 -31 -39 -56 -22 -25 -42 -55 -46 -66 -3 -11 -11 -20 -16 -20 -5
0 -13 -8 -16 -17 -7 -20 -70 -106 -99 -138 -11 -11 -56 -63 -101 -115 -133
-155 -397 -403 -533 -500 -105 -75 -218 -151 -245 -166 -47 -25 -72 -41 -125
-79 -58 -42 -142 -85 -166 -85 -8 0 -22 -8 -32 -17 -9 -10 -44 -29 -77 -42
-66 -27 -166 -74 -205 -96 -14 -8 -39 -15 -56 -15 -18 0 -67 -18 -110 -39 -49
-24 -117 -47 -179 -61 -55 -11 -113 -28 -130 -36 -16 -9 -93 -27 -170 -41 -77
-13 -205 -36 -285 -50 -140 -25 -160 -26 -550 -26 -374 -1 -413 1 -515 20 -60
12 -166 32 -235 44 -175 30 -237 44 -300 67 -30 11 -94 29 -143 40 -48 12
-113 34 -145 50 -31 16 -79 32 -106 35 -27 4 -71 20 -97 37 -27 16 -61 32 -76
36 -16 4 -53 21 -84 39 -30 18 -72 38 -93 45 -21 7 -64 30 -96 51 -33 21 -64
39 -71 39 -6 0 -28 13 -48 29 -21 17 -73 51 -116 77 -87 51 -347 251 -459 353
-189 171 -477 502 -546 626 -12 22 -35 58 -51 80 -16 22 -49 68 -74 101 -25
34 -45 73 -45 86 0 14 -14 38 -35 58 -19 18 -41 54 -50 80 -8 25 -31 70 -50
99 -19 29 -35 64 -35 78 0 31 -15 60 -50 98 -19 21 -29 44 -32 77 -4 29 -17
63 -38 94 -17 26 -40 79 -50 118 -10 39 -30 98 -44 130 -15 33 -31 91 -37 130
-7 42 -23 90 -40 121 -21 38 -32 78 -45 165 -9 63 -25 140 -36 170 -28 78 -33
107 -73 422 -31 250 -55 602 -55 811 l0 47 -1265 0 -1265 0 -11 -27z"/>
</g>
</svg>
