<?xml version="1.0" standalone="no"?>
<!DOCTYPE svg PUBLIC "-//W3C//DTD SVG 20010904//EN"
 "http://www.w3.org/TR/2001/REC-SVG-20010904/DTD/svg10.dtd">
<svg version="1.0" xmlns="http://www.w3.org/2000/svg"
 width="3840.000000pt" height="3840.000000pt" viewBox="0 0 3840.000000 3840.000000"
 preserveAspectRatio="xMidYMid meet">
<metadata>
Created by potrace 1.16, written by Peter Selinger 2001-2019
</metadata>
<g transform="translate(0.000000,3840.000000) scale(0.100000,-0.100000)"
fill="#000000" stroke="none">
<path d="M18475 34848 c-77 -5 -221 -15 -320 -23 -99 -8 -268 -22 -375 -31
-182 -14 -668 -73 -782 -94 -28 -6 -75 -10 -105 -10 -29 0 -109 -11 -176 -25
-67 -13 -203 -38 -302 -55 -99 -17 -223 -40 -275 -51 -52 -11 -135 -26 -185
-34 -49 -8 -146 -30 -215 -49 -69 -20 -137 -36 -152 -36 -14 0 -89 -18 -165
-40 -76 -22 -147 -40 -157 -40 -11 0 -72 -18 -135 -39 -64 -22 -147 -47 -186
-56 -38 -8 -113 -28 -165 -44 -52 -15 -124 -33 -159 -40 -35 -7 -94 -24 -130
-37 -36 -14 -100 -36 -142 -50 -42 -13 -102 -35 -133 -49 -31 -14 -67 -25 -79
-25 -23 0 -307 -101 -394 -140 -26 -12 -70 -29 -98 -37 -27 -8 -76 -28 -107
-44 -32 -16 -63 -29 -69 -29 -6 0 -51 -18 -101 -40 -49 -21 -106 -42 -126 -46
-20 -4 -100 -36 -177 -71 -77 -36 -171 -78 -209 -94 -38 -16 -95 -43 -125 -59
-31 -16 -83 -40 -116 -54 -33 -13 -85 -34 -115 -46 -62 -26 -249 -118 -266
-131 -6 -5 -123 -65 -260 -134 -137 -69 -278 -143 -314 -164 -36 -22 -94 -57
-130 -77 -36 -21 -76 -45 -90 -55 -14 -9 -41 -26 -60 -37 -19 -11 -64 -36 -98
-56 -35 -20 -69 -36 -75 -36 -11 0 -231 -134 -317 -193 -162 -111 -202 -137
-213 -137 -7 0 -22 -8 -33 -18 -10 -9 -46 -35 -79 -56 -33 -21 -79 -51 -102
-67 -23 -16 -44 -29 -48 -29 -3 0 -52 -35 -108 -78 -56 -43 -122 -91 -147
-107 -25 -17 -54 -38 -64 -47 -11 -10 -25 -18 -31 -18 -7 0 -21 -11 -31 -25
-10 -14 -24 -25 -30 -25 -6 0 -19 -9 -29 -20 -10 -11 -22 -20 -27 -20 -12 0
-92 -53 -101 -67 -4 -7 -12 -13 -18 -13 -8 0 -45 -30 -93 -76 -6 -5 -18 -13
-26 -16 -8 -4 -62 -45 -119 -93 -58 -48 -116 -94 -130 -103 -14 -9 -33 -23
-41 -32 -8 -8 -35 -31 -60 -50 -25 -19 -46 -38 -48 -42 -2 -4 -12 -8 -23 -8
-10 0 -19 -4 -19 -8 0 -5 -39 -42 -87 -83 -48 -41 -112 -96 -143 -124 -30 -27
-75 -66 -99 -85 -65 -53 -82 -67 -136 -119 -27 -25 -72 -64 -100 -86 -27 -22
-126 -114 -220 -206 -93 -91 -213 -206 -264 -254 -52 -49 -145 -141 -205 -204
-61 -64 -140 -147 -176 -184 -36 -38 -109 -112 -162 -164 -54 -53 -98 -101
-98 -107 0 -6 -22 -33 -49 -61 -50 -52 -102 -112 -161 -186 -19 -24 -50 -60
-69 -79 -18 -19 -74 -83 -124 -142 -49 -60 -94 -108 -98 -108 -5 0 -9 -6 -9
-13 0 -7 -8 -22 -18 -33 -9 -10 -33 -39 -52 -64 -19 -25 -47 -58 -62 -75 -15
-16 -28 -35 -28 -42 0 -7 -6 -16 -12 -20 -7 -4 -29 -28 -49 -53 -20 -25 -47
-56 -59 -70 -12 -14 -36 -46 -52 -72 -16 -27 -36 -51 -43 -55 -14 -9 -85 -99
-85 -109 0 -3 -15 -27 -32 -52 -47 -66 -51 -71 -73 -96 -11 -12 -27 -35 -35
-52 -8 -16 -21 -35 -28 -43 -7 -7 -28 -37 -46 -65 -28 -44 -120 -170 -156
-213 -6 -7 -10 -16 -10 -21 0 -5 -7 -15 -15 -22 -8 -6 -30 -40 -49 -73 -19
-34 -43 -71 -53 -82 -29 -32 -53 -73 -53 -91 0 -10 -3 -15 -6 -11 -4 3 -16
-12 -28 -34 -11 -21 -42 -70 -67 -107 -102 -149 -156 -236 -217 -352 -19 -36
-41 -72 -48 -80 -15 -18 -78 -129 -136 -240 -22 -41 -48 -84 -58 -95 -10 -11
-33 -51 -52 -90 -19 -38 -39 -79 -46 -90 -6 -11 -26 -51 -43 -90 -18 -38 -42
-83 -53 -100 -36 -51 -303 -598 -351 -720 -16 -38 -39 -86 -52 -105 -12 -19
-23 -43 -23 -52 0 -10 -18 -55 -39 -100 -101 -213 -121 -257 -121 -277 0 -11
-17 -58 -39 -103 -21 -46 -42 -94 -46 -108 -4 -14 -25 -66 -46 -117 -22 -51
-39 -99 -39 -107 0 -8 -16 -49 -36 -91 -20 -42 -42 -97 -49 -123 -15 -54 -42
-132 -62 -180 -8 -18 -17 -50 -20 -70 -3 -20 -18 -64 -33 -97 -15 -33 -32 -80
-39 -105 -7 -25 -17 -58 -23 -75 -44 -128 -78 -243 -78 -263 0 -13 -7 -37 -16
-53 -8 -17 -30 -90 -49 -162 -19 -73 -48 -171 -65 -218 -16 -48 -34 -120 -40
-160 -5 -41 -20 -103 -33 -139 -14 -36 -32 -110 -42 -165 -9 -55 -22 -122 -30
-150 -25 -89 -53 -209 -59 -255 -4 -25 -15 -83 -25 -130 -11 -47 -29 -137 -40
-200 -12 -63 -39 -210 -61 -326 -22 -116 -40 -237 -40 -268 0 -32 -9 -110 -19
-174 -10 -65 -24 -160 -31 -212 -6 -52 -16 -126 -21 -165 -14 -102 -61 -658
-79 -920 -16 -243 -23 -1041 -11 -1385 12 -353 64 -1012 106 -1320 13 -102 32
-246 40 -320 24 -203 32 -254 78 -495 8 -44 25 -136 37 -205 12 -69 30 -163
40 -210 10 -47 21 -110 25 -140 7 -61 38 -192 60 -255 8 -22 21 -80 29 -130 9
-49 27 -126 41 -170 14 -44 30 -111 36 -149 5 -38 23 -108 40 -155 16 -47 39
-122 50 -166 11 -44 33 -119 49 -167 17 -48 30 -98 30 -110 0 -25 32 -127 60
-193 10 -22 20 -58 24 -79 4 -22 25 -80 47 -130 21 -50 39 -103 39 -117 0 -26
23 -92 61 -177 10 -23 19 -54 19 -68 0 -23 18 -70 39 -104 22 -34 51 -108 51
-128 0 -13 18 -61 40 -108 22 -47 40 -92 40 -99 0 -11 23 -66 76 -182 8 -17
14 -39 14 -48 0 -10 8 -34 19 -54 27 -53 39 -81 56 -131 9 -25 26 -61 38 -80
25 -37 42 -78 51 -123 4 -15 11 -27 16 -27 6 0 10 -4 10 -10 0 -5 14 -39 30
-73 17 -35 30 -67 30 -71 0 -13 62 -136 71 -142 5 -3 9 -18 9 -33 0 -16 11
-45 25 -65 13 -20 22 -36 19 -36 -3 0 6 -14 20 -31 14 -17 26 -38 26 -47 0 -9
18 -46 40 -83 22 -37 40 -71 40 -76 0 -14 50 -116 66 -134 18 -21 64 -111 64
-126 0 -7 3 -13 8 -13 4 0 13 -15 20 -33 19 -47 55 -121 63 -127 3 -3 16 -23
27 -46 11 -22 28 -46 36 -53 9 -8 16 -18 16 -23 0 -5 26 -55 58 -111 31 -56
64 -116 72 -132 8 -17 22 -38 30 -47 8 -9 29 -43 45 -75 17 -32 32 -60 35 -63
3 -3 17 -27 30 -55 14 -27 28 -52 31 -55 3 -3 12 -16 19 -29 7 -14 17 -30 21
-35 5 -6 26 -36 46 -66 20 -30 40 -56 45 -58 4 -2 8 -8 8 -13 0 -10 69 -122
90 -146 5 -7 10 -18 10 -24 0 -11 40 -69 66 -97 7 -6 16 -21 19 -32 3 -11 10
-20 15 -20 4 0 10 -10 14 -23 3 -13 17 -36 31 -53 14 -16 25 -33 25 -37 0 -9
5 -16 54 -73 20 -23 36 -46 36 -51 0 -5 8 -18 18 -29 10 -10 29 -35 42 -54 13
-19 32 -44 42 -54 10 -11 18 -26 18 -33 0 -7 5 -13 10 -13 6 0 10 -7 10 -15 0
-8 5 -15 10 -15 6 0 10 -6 10 -14 0 -7 11 -22 25 -32 13 -10 30 -31 36 -46 6
-15 15 -28 19 -28 4 0 13 -13 20 -30 7 -16 16 -30 21 -30 5 0 9 -5 9 -10 0
-13 37 -66 70 -101 14 -14 36 -41 50 -59 14 -18 31 -39 38 -46 6 -7 12 -16 12
-21 0 -4 17 -26 38 -48 20 -22 50 -58 66 -80 17 -22 38 -47 48 -56 10 -9 18
-20 18 -25 0 -5 20 -31 45 -58 25 -26 45 -52 45 -56 0 -5 18 -28 40 -52 22
-23 40 -47 40 -52 0 -5 8 -16 18 -25 9 -9 33 -36 52 -61 56 -73 64 -82 83 -99
10 -9 26 -23 36 -31 23 -21 101 -116 101 -124 0 -7 30 -40 118 -131 28 -30 52
-59 52 -64 0 -5 87 -97 193 -204 105 -107 213 -219 239 -249 50 -58 191 -198
264 -263 25 -22 90 -84 144 -137 54 -54 101 -98 105 -98 9 0 65 -56 65 -65 0
-10 57 -65 67 -65 4 0 14 -9 21 -20 7 -11 17 -20 23 -20 6 0 33 -21 59 -47 26
-27 66 -64 90 -83 24 -19 54 -45 67 -57 13 -13 28 -23 33 -23 5 0 14 -9 20
-20 6 -11 15 -20 21 -20 12 0 39 -25 40 -37 0 -4 29 -30 65 -58 35 -27 83 -67
105 -88 22 -20 44 -37 49 -37 5 0 12 -9 15 -20 3 -11 13 -20 21 -20 8 0 29
-13 47 -30 18 -16 36 -30 41 -30 5 0 22 -14 38 -30 15 -17 32 -30 36 -30 4 0
24 -16 45 -35 21 -19 43 -35 49 -35 6 0 24 -14 40 -30 15 -17 32 -30 38 -30 5
0 14 -9 20 -20 6 -11 17 -20 25 -20 7 0 15 -4 17 -8 2 -5 23 -22 48 -39 25
-17 54 -43 65 -57 11 -14 27 -26 35 -26 8 0 21 -9 28 -20 7 -11 19 -20 28 -20
8 0 12 -4 9 -10 -3 -5 3 -10 15 -10 12 0 35 -13 53 -30 18 -16 36 -30 40 -30
12 0 37 -27 37 -39 0 -6 9 -11 20 -11 11 0 20 -4 20 -10 0 -5 7 -10 15 -10 8
0 15 -4 15 -10 0 -5 6 -10 13 -10 6 -1 28 -14 47 -30 19 -17 38 -30 43 -30 9
0 30 -16 55 -42 9 -10 21 -18 26 -18 4 0 27 -16 50 -36 60 -51 64 -54 78 -54
7 0 19 -9 26 -20 7 -11 20 -20 30 -20 10 0 28 -9 40 -20 12 -11 26 -20 32 -20
12 0 22 -8 78 -58 21 -18 47 -32 62 -32 14 0 32 -9 40 -20 8 -11 21 -20 30
-20 8 0 21 -9 28 -20 7 -11 19 -20 28 -20 8 0 24 -9 36 -20 12 -11 29 -20 39
-20 9 0 19 -9 22 -20 3 -10 21 -27 41 -37 20 -9 36 -20 36 -25 0 -4 6 -8 13
-8 8 0 22 -9 32 -20 10 -11 26 -20 37 -20 10 0 18 -4 18 -10 0 -5 6 -10 14
-10 8 0 16 -3 18 -7 5 -12 84 -53 102 -53 9 0 16 -3 16 -8 0 -4 9 -12 19 -17
11 -6 35 -18 55 -29 20 -10 36 -22 36 -27 0 -5 8 -9 18 -9 17 0 30 -8 79 -50
7 -5 22 -10 33 -10 12 0 18 -4 15 -10 -4 -6 5 -10 19 -10 14 0 26 -3 26 -8 0
-4 14 -13 31 -21 18 -8 41 -24 52 -37 11 -13 29 -24 39 -24 10 0 18 -4 18 -10
0 -5 7 -10 15 -10 8 0 15 -4 15 -10 0 -5 9 -10 20 -10 11 0 20 -4 20 -10 0 -5
9 -10 20 -10 11 0 20 -4 20 -10 0 -5 7 -10 16 -10 9 0 33 -8 53 -19 20 -10 61
-29 91 -42 30 -13 64 -32 75 -42 24 -22 73 -47 92 -47 7 0 13 -4 13 -10 0 -5
6 -10 13 -10 18 0 67 -24 67 -32 0 -5 6 -8 13 -8 6 0 23 -9 37 -20 14 -11 33
-20 43 -20 19 0 67 -27 79 -45 5 -6 8 -6 8 0 0 6 3 6 8 0 13 -19 61 -45 82
-45 11 0 55 -18 96 -40 42 -22 81 -40 88 -40 15 0 134 -57 156 -75 8 -7 36
-18 63 -25 26 -7 47 -17 47 -21 0 -5 9 -9 20 -9 11 0 20 -4 20 -9 0 -5 21 -17
48 -27 26 -9 80 -32 120 -50 41 -19 82 -34 93 -34 10 0 42 -11 71 -25 28 -14
60 -25 70 -25 10 0 18 -4 18 -8 0 -5 19 -14 43 -21 40 -12 66 -22 170 -69 26
-12 54 -22 61 -22 8 0 52 -16 98 -36 70 -30 297 -108 418 -145 19 -6 44 -14
55 -19 74 -30 130 -50 141 -50 8 0 53 -15 100 -34 46 -19 110 -40 142 -46 73
-15 109 -24 208 -55 45 -14 105 -30 135 -35 30 -4 96 -24 147 -44 51 -20 119
-40 150 -45 32 -5 117 -25 190 -45 73 -20 140 -36 150 -36 9 0 80 -17 158 -39
77 -21 164 -42 194 -45 30 -4 96 -16 145 -26 50 -10 144 -28 210 -40 181 -31
332 -60 410 -77 39 -8 125 -19 193 -24 68 -4 158 -15 200 -23 42 -9 118 -20
167 -25 50 -6 146 -17 215 -25 111 -13 249 -27 585 -57 298 -26 550 -34 1135
-34 591 0 748 5 1095 34 364 31 493 44 605 57 69 9 161 20 205 25 44 5 121 16
170 25 50 8 142 19 205 24 63 5 135 14 160 20 25 5 74 15 110 20 36 6 81 15
100 20 19 6 77 15 128 21 51 5 114 17 140 24 26 8 59 15 74 15 15 0 53 7 85
16 32 9 90 19 128 23 64 7 143 27 268 68 26 8 73 19 105 23 81 11 190 39 238
61 25 12 63 19 99 19 55 0 180 30 215 51 32 19 61 28 122 38 61 9 126 29 198
60 19 8 58 18 87 22 29 4 67 14 84 23 18 9 38 16 46 16 7 0 21 4 31 9 22 12
47 21 97 36 55 17 132 45 182 67 24 10 55 18 70 18 16 0 48 9 72 20 24 11 47
20 53 20 5 0 28 9 50 20 23 11 54 20 69 20 28 0 89 29 89 43 0 4 9 7 20 7 11
0 35 9 55 20 20 11 53 20 75 20 22 0 55 9 75 20 20 11 42 20 50 20 8 0 15 3
15 8 0 8 71 32 98 32 10 0 28 9 40 20 12 11 27 20 34 20 7 0 31 11 53 25 22
13 52 25 66 25 15 0 38 9 52 20 14 11 31 20 39 20 7 0 27 9 43 20 17 11 42 20
58 20 15 0 27 3 27 8 0 8 49 32 67 32 7 0 13 4 13 9 0 11 54 31 82 31 11 0 34
11 52 25 18 14 40 25 49 25 9 0 19 4 22 10 3 5 31 17 61 26 29 8 60 22 68 30
8 8 22 14 30 14 9 0 16 4 16 8 0 13 47 32 77 32 14 0 35 10 47 23 12 13 27 22
34 19 7 -2 12 2 12 10 0 15 44 38 74 38 12 0 32 9 46 20 14 11 31 20 38 20 6
0 12 3 12 8 0 11 51 32 76 32 13 0 43 13 67 30 25 17 50 30 56 30 6 0 11 7 11
15 0 8 6 15 13 15 18 0 67 24 67 33 0 4 9 7 20 7 12 0 30 9 42 20 12 11 30 20
41 20 10 0 25 7 33 15 9 8 27 18 42 22 15 3 33 15 40 25 7 10 24 18 37 18 15
0 31 10 41 25 9 14 23 25 30 25 8 0 14 4 14 8 0 4 29 19 65 32 36 13 65 28 65
32 0 4 6 8 13 8 8 0 22 9 32 20 10 11 31 20 47 20 18 0 28 5 28 14 0 8 20 25
45 37 25 12 45 26 45 31 0 4 6 8 13 8 18 0 67 24 67 33 0 4 6 7 13 7 8 0 22 9
32 20 10 11 28 20 39 20 12 0 27 9 34 20 7 11 19 20 26 20 8 0 23 11 34 25 11
13 22 22 25 19 10 -10 41 5 72 34 17 15 46 35 66 45 20 9 39 24 43 32 3 8 12
15 21 15 8 0 15 4 15 8 0 4 20 16 45 26 24 11 58 31 75 46 16 14 42 33 57 41
16 8 30 16 33 19 12 12 112 70 121 70 5 0 9 4 9 9 0 5 8 12 19 16 10 3 31 19
47 35 16 16 34 30 39 30 6 0 18 8 27 18 26 27 42 39 84 60 21 11 48 29 59 39
11 10 33 25 48 33 16 8 44 29 64 47 36 34 117 93 128 93 9 0 89 63 98 78 5 7
38 32 75 57 37 24 83 59 102 77 20 18 69 58 110 89 41 32 95 75 120 98 25 22
62 49 82 58 21 10 38 24 38 31 0 6 3 12 8 12 4 0 23 15 42 33 19 17 58 48 85
67 28 19 68 53 91 75 50 49 98 92 144 126 19 15 55 46 80 69 25 23 81 74 124
113 44 40 107 98 140 130 98 94 225 216 321 307 49 47 173 173 274 280 102
107 222 233 267 280 45 47 97 103 115 125 19 22 53 60 75 85 94 101 429 502
579 690 161 203 340 442 482 645 43 61 100 139 128 176 45 58 124 180 255 392
25 41 71 110 103 155 31 45 57 86 57 92 0 6 9 20 20 32 11 12 20 28 20 35 0 7
4 13 8 13 5 0 19 20 32 45 13 25 27 45 32 45 4 0 8 9 8 20 0 11 3 20 8 20 8 0
32 48 32 64 0 5 11 24 25 42 14 18 25 37 25 42 0 5 9 17 20 27 11 10 20 28 20
41 0 13 6 27 14 31 8 4 37 53 66 108 28 55 60 105 71 113 10 7 19 21 19 31 0
9 4 21 9 27 15 15 71 127 71 142 0 7 8 22 18 33 11 11 25 37 32 59 7 22 17 40
22 40 4 0 8 9 8 20 0 11 5 20 12 20 6 0 8 3 5 6 -4 4 1 14 11 23 19 18 36 53
72 149 7 17 16 32 21 32 5 0 9 6 9 13 0 6 9 23 20 37 11 14 20 33 20 42 0 20
32 78 43 78 5 0 5 5 2 10 -3 6 -2 10 3 10 11 0 42 72 42 98 0 10 8 27 18 38
10 10 24 35 31 54 8 19 18 39 23 45 4 5 8 22 8 37 0 15 3 28 8 28 8 0 32 48
32 66 0 7 11 25 24 41 13 16 27 46 31 66 4 21 14 44 21 52 8 7 14 21 14 29 0
9 3 16 8 16 10 0 32 50 32 74 0 12 9 32 20 46 11 14 20 31 20 37 0 7 9 27 20
45 11 18 20 49 20 69 0 20 6 42 13 48 8 6 20 30 28 53 7 24 22 51 31 60 11 11
18 33 18 57 0 23 8 48 20 64 11 14 20 31 20 39 0 7 9 27 20 43 11 17 20 44 20
62 0 29 10 54 61 153 10 20 22 54 28 75 5 22 25 84 45 139 20 54 36 107 36
117 0 11 9 38 20 62 36 77 143 401 147 447 3 25 9 49 14 55 5 5 9 19 9 31 0
13 5 26 10 29 6 3 10 16 10 28 0 12 9 46 20 75 11 29 20 69 20 90 0 22 10 53
25 77 13 22 25 49 25 61 0 11 4 24 9 30 14 15 31 100 31 156 0 35 7 64 20 86
11 18 20 46 20 62 0 16 5 32 10 35 6 3 10 17 10 31 0 14 4 33 9 42 5 9 11 44
13 77 3 33 12 74 21 92 10 18 17 43 17 57 0 14 9 47 19 74 11 27 24 82 30 123
5 41 15 97 21 124 7 28 15 77 20 110 4 33 15 87 24 120 8 33 15 76 16 95 0 33
15 118 61 340 10 52 19 118 19 146 0 28 6 89 14 135 8 46 19 127 26 179 6 52
18 139 26 193 8 53 21 181 29 285 8 103 21 270 30 372 32 376 35 437 41 861 9
617 -5 995 -66 1719 -11 126 -53 482 -85 720 -8 58 -15 124 -15 146 0 23 -7
72 -15 110 -8 38 -26 132 -40 209 -13 77 -41 226 -61 330 -19 105 -41 228 -48
275 -7 47 -25 123 -39 170 -14 47 -38 141 -52 208 -14 68 -35 152 -46 185 -10
34 -24 93 -29 130 -6 37 -24 107 -41 155 -17 48 -41 130 -54 183 -13 53 -35
129 -49 169 -15 41 -26 85 -26 99 0 14 -16 71 -35 126 -19 55 -58 170 -86 255
-28 85 -67 198 -86 250 -19 52 -39 109 -43 125 -4 17 -26 77 -49 134 -22 57
-41 109 -41 117 0 8 -18 50 -40 94 -22 44 -40 86 -40 94 0 8 -20 62 -45 122
-25 59 -45 113 -45 119 0 7 -16 48 -36 91 -20 44 -56 124 -81 179 -25 55 -65
141 -89 192 -24 51 -44 95 -44 98 0 3 -18 42 -40 87 -22 46 -40 90 -40 98 0 8
-11 33 -25 55 -13 22 -67 126 -120 230 -170 337 -286 559 -299 575 -7 8 -31
49 -54 90 -22 41 -65 117 -96 168 -31 51 -66 112 -77 135 -33 65 -140 240
-234 382 -33 50 -65 99 -71 110 -36 66 -59 103 -87 140 -18 23 -52 75 -77 114
-25 40 -73 112 -107 159 -35 48 -90 125 -122 172 -237 337 -593 795 -859 1104
-306 355 -355 408 -666 731 -374 387 -777 766 -1113 1047 -29 23 -105 88 -169
143 -246 210 -1022 792 -1224 917 -41 25 -131 85 -200 131 -124 85 -483 308
-550 342 -19 10 -60 35 -90 55 -30 20 -104 63 -165 95 -60 32 -146 79 -190
105 -117 69 -480 260 -493 260 -6 0 -33 13 -59 28 -27 16 -80 44 -118 62 -39
18 -77 38 -85 45 -8 7 -33 18 -55 25 -22 7 -70 30 -107 51 -36 22 -73 39 -82
39 -8 0 -17 4 -20 8 -3 5 -49 26 -103 47 -54 21 -136 56 -183 77 -47 22 -101
46 -121 53 -19 7 -59 25 -87 39 -28 14 -59 26 -69 26 -10 0 -36 10 -58 23 -22
13 -67 33 -100 46 -33 13 -101 41 -151 62 -50 21 -103 39 -118 39 -24 0 -48 9
-161 61 -22 10 -56 22 -75 25 -19 4 -39 10 -45 14 -19 14 -188 70 -210 70 -13
0 -51 13 -86 30 -35 16 -86 34 -114 41 -27 6 -66 18 -85 26 -66 29 -204 73
-227 73 -12 0 -37 8 -55 18 -30 17 -68 28 -263 76 -33 8 -92 26 -132 40 -40
15 -103 30 -140 35 -37 5 -102 20 -143 34 -41 13 -106 29 -145 36 -38 7 -131
28 -205 48 -74 20 -176 42 -227 49 -51 7 -97 15 -103 19 -11 7 -149 34 -310
60 -47 8 -168 30 -270 50 -102 19 -212 35 -245 36 -33 0 -82 4 -110 9 -412 67
-849 111 -1495 149 -186 12 -1210 10 -1425 -1z m-4260 -10163 c98 -13 204 -44
229 -67 6 -4 20 -8 31 -8 12 0 51 -14 86 -31 35 -17 73 -35 84 -40 84 -41 352
-276 379 -333 9 -20 23 -36 31 -36 8 0 15 -7 15 -15 0 -9 4 -21 10 -28 42 -52
80 -110 80 -123 0 -9 9 -27 20 -41 11 -14 20 -32 20 -40 0 -8 8 -27 19 -41 10
-15 24 -54 31 -86 7 -33 16 -67 21 -75 40 -77 67 -338 49 -488 -7 -54 -18
-110 -26 -125 -8 -15 -14 -37 -14 -50 0 -13 -9 -48 -20 -78 -11 -30 -20 -63
-20 -74 0 -27 -22 -86 -32 -86 -4 0 -8 -7 -8 -15 0 -9 -9 -25 -20 -37 -11 -12
-20 -30 -20 -40 0 -28 -24 -69 -59 -102 -17 -17 -31 -36 -31 -43 0 -7 -4 -13
-8 -13 -5 0 -15 -12 -23 -27 -20 -39 -37 -60 -95 -118 -92 -90 -143 -135 -154
-135 -5 0 -10 -4 -10 -10 0 -5 -6 -10 -13 -10 -8 0 -22 -9 -32 -20 -10 -11
-26 -20 -35 -20 -9 0 -25 -8 -36 -18 -26 -24 -121 -68 -167 -76 -21 -4 -61
-20 -90 -35 -100 -55 -412 -86 -572 -58 -50 8 -116 18 -148 22 -36 4 -86 20
-130 42 -40 20 -90 37 -112 39 -27 2 -44 9 -54 23 -7 12 -20 21 -28 21 -27 0
-128 59 -162 94 -19 20 -41 36 -48 36 -7 0 -13 3 -13 8 0 4 -20 20 -45 36 -25
15 -59 48 -76 72 -16 24 -34 44 -39 44 -6 0 -10 6 -10 13 0 8 -20 34 -45 59
-25 25 -45 51 -45 58 0 12 -59 92 -72 98 -5 2 -8 18 -8 36 0 18 -8 41 -18 52
-61 68 -132 357 -132 542 0 101 26 311 46 367 7 22 14 47 14 55 0 13 19 55
118 260 47 96 166 242 283 346 63 56 188 144 203 144 9 0 16 4 16 8 0 5 12 15
28 23 15 8 29 16 32 19 14 14 52 30 72 30 13 0 38 9 56 20 119 73 447 108 697
75z m7805 -12 c1972 -2 3600 -4 3618 -5 l33 -3 -1 -1212 c0 -667 -3 -1219 -6
-1227 -3 -9 -13 -18 -23 -21 -9 -3 -1639 -7 -3621 -10 -2866 -4 -3610 -2
-3632 8 l-28 12 2 1205 c3 1297 3 1282 52 1264 11 -5 1634 -10 3606 -11z
m-6693 -6428 c5 -256 23 -454 73 -830 33 -244 38 -277 58 -335 10 -30 25 -93
31 -140 7 -47 26 -125 41 -175 16 -49 43 -139 60 -200 18 -60 40 -128 50 -150
10 -22 21 -56 25 -75 4 -19 20 -56 35 -82 16 -25 34 -66 41 -90 11 -38 50
-128 112 -258 12 -25 50 -94 85 -153 34 -59 62 -110 62 -113 0 -7 229 -343
275 -404 89 -116 307 -350 436 -467 142 -130 390 -319 515 -393 41 -25 107
-65 147 -89 80 -49 387 -195 457 -218 25 -8 86 -30 135 -48 215 -81 446 -136
820 -196 128 -21 171 -23 515 -23 292 1 397 5 475 17 55 9 147 23 205 32 140
21 259 48 377 84 54 16 121 34 149 40 27 5 84 26 124 45 41 20 83 36 94 36 46
0 430 182 553 262 45 29 124 79 175 111 168 105 298 211 491 397 146 141 359
377 410 455 38 58 102 151 115 166 46 55 64 83 95 145 20 39 47 85 61 101 15
17 29 45 32 62 4 16 21 47 39 68 18 21 37 55 43 75 5 20 26 63 45 97 20 33 39
76 43 96 3 19 21 60 40 91 19 31 34 66 34 78 0 12 10 44 23 72 48 100 58 128
67 176 6 27 16 64 23 81 29 68 56 165 62 222 4 33 12 67 19 75 17 20 32 79 56
220 11 63 27 151 34 195 51 279 94 755 84 905 -6 81 4 125 32 140 12 6 476 10
1280 10 1165 0 1261 -1 1267 -17 9 -24 -17 -631 -33 -758 -7 -60 -20 -139 -28
-175 -9 -36 -15 -92 -16 -126 0 -33 -6 -101 -14 -150 -8 -49 -19 -122 -25
-162 -6 -40 -15 -80 -20 -90 -5 -9 -17 -64 -26 -122 -9 -58 -25 -127 -35 -155
-18 -50 -44 -173 -54 -253 -5 -39 -22 -87 -47 -135 -5 -9 -18 -53 -28 -96 -10
-43 -23 -87 -29 -97 -17 -33 -62 -166 -62 -186 0 -16 -26 -84 -51 -130 -5 -10
-17 -48 -28 -85 -10 -37 -28 -84 -39 -103 -27 -45 -52 -99 -52 -114 0 -10 -45
-104 -69 -146 -5 -8 -15 -34 -22 -57 -7 -24 -16 -43 -21 -43 -4 0 -8 -9 -8
-20 0 -24 -20 -61 -37 -73 -7 -4 -13 -17 -13 -27 0 -11 -9 -29 -20 -40 -11
-11 -20 -27 -20 -35 0 -8 -4 -15 -10 -15 -5 0 -10 -5 -10 -11 0 -20 -61 -137
-81 -154 -10 -10 -19 -27 -19 -38 0 -10 -15 -40 -33 -66 -18 -25 -44 -68 -57
-96 -31 -64 -126 -211 -162 -250 -15 -16 -28 -34 -28 -38 0 -7 -46 -78 -73
-112 -5 -5 -45 -62 -89 -125 -85 -121 -127 -174 -243 -305 -39 -44 -103 -118
-142 -165 -80 -95 -268 -281 -444 -440 -135 -122 -363 -310 -376 -310 -4 0
-21 -11 -37 -25 -16 -14 -32 -25 -35 -25 -3 0 -21 -14 -40 -30 -18 -17 -37
-30 -41 -30 -5 0 -27 -16 -51 -36 -23 -19 -60 -45 -82 -56 -22 -11 -45 -24
-51 -29 -62 -50 -76 -59 -89 -59 -8 0 -20 -7 -27 -15 -7 -8 -32 -25 -56 -37
-24 -12 -44 -25 -44 -30 0 -4 -9 -8 -20 -8 -11 0 -20 -4 -20 -8 0 -5 -18 -17
-39 -27 -22 -10 -42 -24 -45 -31 -3 -8 -17 -14 -31 -14 -14 0 -33 -9 -42 -20
-10 -11 -25 -20 -35 -20 -10 0 -18 -4 -18 -9 0 -5 -38 -27 -84 -50 -46 -22
-89 -47 -96 -56 -7 -8 -28 -15 -47 -15 -30 0 -85 -27 -103 -51 -11 -13 -47
-27 -80 -30 -21 -2 -50 -16 -72 -35 -41 -33 -97 -54 -146 -54 -17 0 -34 -5
-37 -11 -10 -16 -115 -59 -170 -70 -45 -9 -85 -25 -165 -65 -14 -7 -48 -17
-75 -22 -28 -6 -82 -22 -122 -36 -72 -25 -205 -56 -242 -56 -11 0 -40 -9 -63
-19 -53 -24 -183 -53 -353 -81 -71 -11 -168 -27 -215 -35 -101 -18 -274 -42
-385 -55 -105 -12 -792 -43 -803 -36 -5 3 -137 10 -293 16 -156 6 -320 17
-364 25 -44 8 -109 17 -145 21 -36 3 -126 17 -200 31 -74 13 -169 29 -210 34
-108 14 -177 28 -242 50 -32 10 -102 28 -155 40 -191 40 -454 119 -532 158
-22 12 -49 21 -60 21 -12 0 -65 18 -118 39 -54 21 -118 44 -143 51 -25 6 -73
27 -107 46 -34 19 -68 34 -77 34 -9 0 -41 16 -71 36 -31 19 -73 41 -93 49 -20
7 -64 26 -97 42 -33 17 -76 36 -95 43 -19 7 -42 18 -50 25 -8 6 -49 28 -90 49
-41 21 -77 41 -80 45 -7 9 -68 51 -75 51 -7 0 -88 52 -95 61 -5 6 -40 26 -140
79 -26 14 -62 36 -81 49 -87 62 -190 141 -259 196 -41 34 -111 88 -155 121
-44 32 -136 113 -206 179 -69 66 -189 180 -267 254 -79 73 -186 185 -240 248
-53 63 -121 143 -150 176 -100 118 -167 202 -202 253 -19 28 -57 84 -85 124
-27 40 -57 83 -65 95 -8 13 -30 44 -47 69 -18 26 -33 51 -33 56 0 5 -6 13 -13
17 -26 17 -77 92 -77 114 0 13 -18 48 -40 77 -22 29 -40 58 -40 64 0 6 -11 26
-25 44 -14 18 -25 39 -25 47 0 8 -9 22 -20 32 -11 10 -20 28 -20 41 0 13 -5
26 -11 30 -20 12 -69 98 -69 121 0 13 -4 23 -8 23 -5 0 -15 12 -23 28 -7 15
-21 37 -31 50 -9 13 -20 43 -24 67 -3 24 -15 52 -25 61 -10 9 -19 23 -19 31 0
7 -4 13 -9 13 -4 0 -14 21 -22 48 -19 69 -66 180 -84 198 -8 8 -15 27 -15 42
0 15 -9 42 -20 60 -11 18 -20 38 -20 45 0 7 -9 32 -20 55 -11 22 -20 56 -20
74 0 18 -17 65 -36 103 -22 42 -42 100 -50 145 -7 41 -18 84 -23 95 -33 68
-53 123 -61 168 -5 29 -14 68 -20 87 -12 39 -15 51 -58 260 -17 80 -40 179
-51 220 -12 41 -32 170 -46 285 -14 116 -32 255 -40 310 -8 55 -20 195 -25
310 -6 116 -15 285 -20 378 -5 92 -7 174 -4 182 5 13 161 15 1273 13 l1266 -3
2 -110z"/>
</g>
</svg>
