<?xml version="1.0" standalone="no"?>
<!DOCTYPE svg PUBLIC "-//W3C//DTD SVG 20010904//EN"
 "http://www.w3.org/TR/2001/REC-SVG-20010904/DTD/svg10.dtd">
<svg version="1.0" xmlns="http://www.w3.org/2000/svg"
 width="3840.000000pt" height="3840.000000pt" viewBox="0 0 3840.000000 3840.000000"
 preserveAspectRatio="xMidYMid meet">
<metadata>
Created by potrace 1.16, written by Peter Selinger 2001-2019
</metadata>
<g transform="translate(0.000000,3840.000000) scale(0.100000,-0.100000)"
fill="#000000" stroke="none">
<path d="M13840 24693 c-127 -19 -214 -39 -269 -60 -36 -13 -84 -31 -106 -40
-249 -92 -529 -352 -659 -611 -44 -87 -82 -184 -107 -269 -23 -83 -49 -272
-49 -366 0 -163 65 -459 121 -550 16 -26 29 -53 29 -60 0 -17 105 -171 177
-260 52 -65 207 -193 296 -245 80 -47 170 -92 184 -92 8 0 46 -14 85 -30 98
-42 287 -73 453 -73 166 -1 314 23 453 74 59 21 112 39 118 39 7 0 38 17 70
38 33 21 85 54 117 73 78 46 249 214 324 319 218 305 297 705 213 1079 -39
174 -126 363 -233 506 -122 163 -309 324 -457 391 -245 112 -379 145 -592 143
-78 -1 -154 -3 -168 -6z"/>
<path d="M18404 24671 c-46 -8 -44 44 -44 -1237 0 -1200 0 -1213 20 -1224 14
-7 1105 -11 3627 -13 1985 -1 3618 -6 3630 -11 19 -7 23 -4 30 26 4 18 6 579
3 1246 l-5 1212 -3621 3 c-1991 1 -3629 0 -3640 -2z"/>
<path d="M12789 18333 c-6 -16 -8 -57 -5 -93 3 -36 10 -173 15 -305 10 -259
11 -267 46 -520 13 -93 29 -219 35 -280 11 -115 25 -192 65 -360 13 -55 33
-149 45 -210 12 -60 28 -125 36 -143 8 -19 19 -64 25 -100 7 -37 29 -115 50
-175 22 -59 39 -118 39 -130 0 -12 13 -49 29 -83 16 -33 36 -92 45 -130 8 -38
32 -107 52 -154 20 -47 39 -96 41 -110 3 -14 14 -37 24 -52 11 -14 19 -31 19
-38 0 -7 8 -24 18 -38 10 -15 24 -46 31 -70 6 -23 25 -66 40 -95 16 -28 31
-67 34 -85 4 -18 25 -59 47 -92 22 -32 40 -66 40 -75 0 -22 17 -52 52 -95 15
-19 28 -39 28 -45 0 -17 46 -102 69 -126 11 -12 21 -30 21 -39 0 -9 9 -25 20
-35 11 -10 20 -25 20 -33 0 -7 8 -26 19 -40 10 -15 21 -37 25 -49 4 -13 23
-41 42 -64 19 -23 41 -56 49 -73 19 -40 37 -68 52 -81 7 -5 21 -24 30 -41 10
-18 30 -47 45 -65 15 -19 49 -66 75 -106 27 -39 59 -84 73 -100 14 -15 36 -44
50 -63 13 -19 43 -55 66 -80 23 -25 78 -88 122 -140 142 -169 264 -296 392
-408 69 -60 148 -136 176 -168 28 -33 129 -119 225 -192 96 -73 199 -153 229
-178 30 -24 64 -49 75 -54 11 -6 43 -28 70 -50 28 -22 56 -40 63 -40 6 0 12
-4 12 -9 0 -5 17 -16 38 -25 34 -15 94 -50 132 -75 131 -90 231 -149 350 -208
153 -76 261 -126 296 -137 12 -4 29 -15 39 -26 10 -11 25 -20 34 -20 9 0 25
-6 36 -14 34 -24 307 -130 385 -150 30 -7 89 -30 130 -49 74 -35 144 -58 250
-83 30 -7 84 -21 120 -30 36 -9 101 -25 145 -36 44 -11 100 -27 125 -34 95
-31 276 -61 805 -134 82 -12 261 -24 430 -31 160 -6 292 -12 295 -14 3 -1 152
3 331 10 291 12 522 29 540 41 4 2 51 8 105 14 55 6 133 17 174 25 41 8 122
21 180 30 137 20 274 50 385 85 50 16 130 34 180 41 56 8 106 22 135 37 25 14
66 29 92 33 26 4 90 26 143 48 52 23 104 41 115 41 27 0 129 39 162 61 14 11
40 19 57 19 33 0 98 29 140 61 13 11 33 19 45 19 11 0 62 19 111 44 266 130
307 151 311 158 3 4 31 20 62 34 31 15 77 42 102 59 25 18 63 40 84 49 22 9
59 32 82 51 23 19 49 35 57 35 8 0 20 6 26 14 7 8 36 27 64 41 29 15 75 47
104 71 28 24 55 44 60 44 5 0 18 8 29 18 10 9 48 37 84 61 36 25 96 70 134
100 38 31 99 80 135 109 36 29 71 58 76 65 6 7 46 43 90 82 44 38 118 106 165
151 47 45 99 94 116 110 30 27 114 122 229 258 28 33 71 83 97 111 87 95 238
285 238 300 0 3 17 28 38 55 74 98 102 138 117 167 8 16 24 38 35 48 11 10 20
24 20 31 0 7 4 14 8 16 10 4 72 96 72 107 0 4 9 16 20 26 11 10 20 27 20 38 0
11 19 47 43 81 23 33 53 84 67 111 14 28 33 59 42 69 10 11 18 26 18 33 0 18
48 109 66 124 8 6 14 18 14 25 0 8 20 53 44 101 24 49 55 115 67 148 13 33 31
68 40 79 10 10 23 41 29 69 6 27 26 75 44 106 20 32 36 76 40 102 6 54 34 118
57 136 10 7 18 34 22 68 3 31 14 75 25 98 11 23 23 57 26 76 3 19 12 42 20 50
7 9 16 40 19 70 4 31 22 87 42 129 21 45 35 89 35 112 0 45 22 144 54 250 13
41 27 100 31 130 4 30 18 100 30 155 13 55 31 159 40 230 9 72 23 180 31 240
33 237 43 339 49 506 3 96 10 233 16 306 6 86 6 140 -1 157 l-10 27 -1267 -3
c-971 -2 -1273 -6 -1289 -15 -20 -12 -22 -22 -28 -265 -8 -343 -30 -569 -76
-803 -11 -55 -30 -152 -41 -215 -12 -63 -30 -131 -39 -150 -10 -19 -21 -60
-25 -90 -8 -63 -39 -167 -66 -223 -11 -22 -19 -56 -19 -76 0 -44 -18 -101 -31
-101 -5 0 -9 -6 -9 -13 0 -7 -9 -32 -20 -55 -11 -22 -20 -46 -20 -52 0 -6 -20
-51 -45 -101 -25 -50 -45 -100 -45 -112 0 -12 -18 -51 -40 -87 -22 -36 -43
-79 -46 -96 -3 -18 -21 -48 -39 -67 -19 -20 -39 -54 -45 -76 -6 -22 -26 -61
-45 -86 -19 -25 -35 -52 -35 -59 0 -8 -5 -18 -10 -21 -6 -4 -22 -29 -35 -56
-14 -27 -30 -49 -35 -49 -6 0 -10 -6 -10 -13 0 -7 -18 -34 -40 -61 -22 -26
-40 -52 -40 -56 0 -5 -6 -15 -13 -22 -6 -7 -24 -31 -38 -53 -45 -68 -272 -325
-371 -420 -185 -176 -260 -242 -343 -300 -32 -22 -67 -50 -78 -62 -11 -13 -25
-23 -30 -23 -5 0 -30 -15 -56 -33 -25 -18 -59 -40 -76 -48 -34 -17 -74 -40
-89 -52 -86 -62 -184 -117 -210 -117 -11 0 -29 -8 -40 -19 -12 -10 -70 -40
-131 -66 -60 -27 -117 -55 -127 -62 -9 -8 -40 -18 -70 -22 -30 -4 -77 -21
-108 -38 -30 -17 -75 -36 -100 -42 -25 -5 -79 -18 -120 -27 -41 -9 -91 -25
-111 -35 -20 -10 -79 -25 -130 -33 -52 -8 -175 -28 -274 -45 -160 -27 -210
-31 -455 -37 -298 -6 -543 5 -685 30 -49 9 -137 25 -195 36 -58 10 -127 22
-154 25 -28 4 -72 16 -99 26 -28 11 -102 33 -166 50 -64 16 -143 42 -176 58
-33 16 -80 31 -105 35 -24 4 -65 20 -90 35 -25 16 -57 32 -71 36 -13 3 -53 21
-89 39 -36 18 -81 39 -100 46 -19 8 -53 26 -75 40 -22 15 -48 29 -57 33 -10 3
-51 29 -91 57 -41 27 -80 50 -86 50 -6 0 -11 4 -11 8 0 4 -19 17 -42 29 -24
11 -63 38 -88 60 -25 21 -61 50 -80 63 -179 122 -424 360 -660 641 -49 58
-127 168 -149 212 -8 15 -30 45 -48 67 -18 21 -33 42 -33 47 0 4 -18 31 -40
58 -22 28 -40 61 -40 74 0 13 -7 31 -15 40 -34 36 -65 80 -65 91 0 7 -20 46
-45 88 -25 41 -45 81 -45 88 0 20 -21 64 -52 111 -15 23 -28 54 -28 68 0 26
-30 92 -57 125 -6 9 -17 37 -22 62 -6 26 -28 92 -50 145 -21 54 -41 121 -45
150 -4 29 -20 80 -36 115 -19 40 -35 100 -45 163 -8 55 -26 141 -40 190 -31
112 -50 221 -69 395 -9 74 -20 173 -25 220 -10 84 -31 491 -31 596 l0 54
-1265 0 -1265 0 -11 -27z"/>
</g>
</svg>
