<?xml version="1.0" standalone="no"?>
<!DOCTYPE svg PUBLIC "-//W3C//DTD SVG 20010904//EN"
 "http://www.w3.org/TR/2001/REC-SVG-20010904/DTD/svg10.dtd">
<svg version="1.0" xmlns="http://www.w3.org/2000/svg"
 width="3840.000000pt" height="3840.000000pt" viewBox="0 0 3840.000000 3840.000000"
 preserveAspectRatio="xMidYMid meet">
<metadata>
Created by potrace 1.16, written by Peter Selinger 2001-2019
</metadata>
<g transform="translate(0.000000,3840.000000) scale(0.100000,-0.100000)"
fill="#000000" stroke="none">
<path d="M20210 30200 c-255 -9 -428 -26 -720 -70 -178 -27 -249 -40 -390 -76
-30 -7 -104 -25 -165 -40 -108 -26 -423 -118 -454 -133 -9 -5 -56 -21 -106
-37 -49 -15 -101 -34 -115 -41 -14 -7 -30 -13 -37 -13 -6 0 -25 -7 -42 -15
-17 -8 -45 -22 -62 -30 -17 -8 -38 -15 -48 -15 -9 0 -25 -6 -36 -14 -11 -7
-31 -17 -45 -21 -14 -4 -56 -22 -95 -41 -38 -18 -90 -42 -115 -54 -41 -19 -58
-28 -100 -52 -8 -4 -22 -11 -30 -14 -41 -16 -129 -61 -165 -85 -22 -15 -51
-30 -64 -34 -14 -4 -29 -12 -35 -17 -22 -18 -145 -88 -155 -88 -6 0 -11 -4
-11 -10 0 -5 -15 -17 -32 -25 -62 -30 -78 -40 -78 -47 0 -5 -5 -8 -10 -8 -11
0 -87 -47 -108 -67 -7 -7 -18 -13 -24 -13 -6 0 -18 -7 -27 -15 -9 -9 -80 -60
-158 -114 -77 -54 -154 -110 -169 -125 -16 -14 -32 -26 -36 -26 -8 0 -54 -38
-87 -71 -9 -9 -35 -30 -58 -46 -44 -32 -115 -93 -271 -233 -188 -169 -623
-618 -705 -727 -12 -16 -54 -67 -92 -114 -39 -46 -119 -149 -178 -229 -59 -80
-115 -156 -125 -170 -31 -41 -234 -348 -296 -447 -32 -51 -56 -98 -53 -106 4
-11 268 -177 282 -177 2 0 23 -13 47 -29 24 -16 66 -41 93 -56 28 -16 52 -31
55 -35 3 -4 25 -18 50 -31 25 -14 56 -32 70 -40 42 -27 287 -173 317 -189 15
-9 47 -28 70 -43 24 -15 45 -27 49 -27 3 0 29 -15 57 -33 29 -19 106 -66 172
-106 66 -39 127 -76 135 -81 8 -5 41 -24 73 -42 33 -18 73 -42 91 -53 18 -11
66 -40 107 -64 81 -48 234 -141 289 -176 97 -61 260 -155 268 -155 9 0 62 76
62 90 0 5 10 21 23 37 12 15 31 44 41 63 20 35 174 260 243 355 253 345 620
731 943 991 125 101 202 159 227 172 12 7 27 18 35 25 12 12 115 84 141 99 7
3 41 24 77 45 36 22 72 42 80 46 8 4 29 16 45 26 28 19 254 133 395 200 36 17
72 31 80 31 9 0 24 6 35 13 11 7 40 19 65 26 25 7 59 20 76 28 18 8 72 26 120
39 49 14 112 32 139 40 28 8 68 19 90 24 136 31 234 49 263 49 18 1 40 5 50
10 67 37 725 60 902 32 36 -5 106 -15 155 -22 146 -18 196 -27 270 -44 39 -9
88 -20 110 -25 108 -25 151 -36 160 -41 6 -3 44 -16 85 -28 83 -25 119 -38
200 -71 30 -12 69 -25 85 -29 17 -4 39 -13 50 -19 11 -6 61 -30 110 -52 50
-23 97 -46 105 -51 8 -5 22 -12 30 -15 8 -3 22 -10 30 -15 8 -5 22 -12 30 -15
8 -3 22 -10 30 -15 8 -5 20 -11 25 -13 6 -2 17 -7 25 -10 8 -3 29 -15 45 -26
17 -11 49 -30 72 -42 57 -31 260 -159 282 -178 31 -28 80 -60 91 -60 5 0 10
-4 10 -8 0 -4 12 -15 28 -25 15 -9 43 -31 63 -49 20 -19 51 -44 69 -58 66 -50
238 -210 346 -322 121 -126 234 -263 333 -403 35 -50 67 -92 71 -95 4 -3 18
-25 32 -50 13 -25 41 -71 61 -102 20 -31 37 -60 37 -63 0 -3 12 -24 27 -48 41
-63 52 -81 58 -97 4 -8 11 -22 16 -30 5 -8 12 -22 15 -30 3 -8 17 -40 31 -70
25 -54 40 -89 67 -152 7 -18 21 -51 30 -72 26 -59 96 -272 96 -290 0 -9 6 -27
14 -39 8 -12 18 -43 21 -70 4 -26 11 -50 16 -53 5 -3 9 -20 9 -38 0 -19 6 -51
13 -72 8 -22 19 -79 26 -129 7 -49 16 -108 21 -130 5 -22 9 -47 9 -55 0 -8 5
-53 11 -100 17 -133 26 -410 19 -580 -8 -196 -28 -412 -40 -424 -5 -6 -9 -30
-9 -55 -1 -79 -76 -451 -100 -493 -6 -10 -10 -26 -10 -37 0 -21 -27 -117 -41
-143 -5 -10 -9 -28 -9 -40 -1 -13 -7 -34 -15 -48 -8 -14 -14 -35 -15 -48 0
-13 -7 -30 -15 -38 -8 -9 -15 -28 -15 -43 0 -15 -7 -36 -15 -47 -8 -10 -15
-31 -15 -45 0 -15 -7 -29 -15 -33 -8 -3 -15 -17 -15 -32 0 -14 -7 -40 -16 -57
-31 -59 -34 -67 -34 -86 0 -10 -7 -24 -15 -31 -8 -7 -15 -23 -15 -35 0 -12 -6
-28 -14 -34 -8 -7 -17 -27 -20 -46 -4 -19 -11 -35 -16 -35 -6 0 -10 -5 -10
-11 0 -19 -61 -152 -72 -157 -5 -2 -8 -12 -8 -22 0 -9 -7 -23 -15 -30 -8 -7
-15 -20 -15 -30 0 -10 -7 -23 -15 -30 -8 -7 -15 -19 -15 -26 0 -16 -35 -84
-47 -93 -4 -3 -20 -31 -36 -61 -15 -30 -39 -73 -52 -95 -14 -22 -35 -60 -47
-84 l-22 -44 34 -29 c19 -15 40 -28 47 -28 7 0 13 -4 13 -9 0 -5 8 -11 18 -15
17 -5 52 -26 62 -36 3 -3 16 -11 30 -18 26 -13 39 -20 107 -64 23 -16 46 -28
52 -28 6 0 11 -4 11 -10 0 -5 7 -10 16 -10 8 0 22 -7 30 -15 9 -8 24 -15 34
-15 10 0 20 -7 24 -15 3 -8 12 -15 21 -15 8 0 15 -5 15 -12 0 -6 3 -8 7 -5 3
4 21 -4 39 -18 18 -14 36 -25 40 -25 4 0 15 -6 23 -14 9 -7 41 -26 71 -42 30
-16 82 -47 115 -69 33 -22 71 -46 85 -53 14 -7 43 -24 65 -37 22 -14 47 -28
55 -32 8 -4 34 -20 56 -35 23 -15 47 -28 53 -28 6 0 11 -4 11 -10 0 -5 19 -18
43 -29 23 -12 56 -30 72 -41 17 -11 42 -25 58 -31 15 -6 27 -15 27 -20 0 -5 5
-9 11 -9 6 0 31 -13 56 -30 24 -16 46 -30 48 -30 2 0 34 -18 72 -41 89 -54 88
-53 163 -96 36 -20 67 -41 68 -45 2 -4 8 -8 13 -8 5 0 28 -12 52 -27 23 -15
62 -38 87 -52 25 -13 47 -27 50 -30 3 -3 19 -13 35 -21 17 -8 57 -33 90 -55
69 -46 119 -70 133 -61 6 3 20 25 32 48 12 24 35 62 51 86 16 24 29 49 29 57
0 8 4 16 9 19 14 9 71 114 71 131 0 8 4 15 8 15 4 0 13 12 19 28 16 37 72 135
84 146 5 6 9 16 9 24 0 7 27 71 61 140 33 70 64 136 69 147 4 11 17 40 28 65
11 25 29 70 42 100 28 71 48 118 66 153 8 16 14 35 14 43 0 8 9 31 20 51 11
21 23 53 26 73 4 19 13 44 20 55 8 11 14 27 14 36 0 10 6 30 14 46 16 33 64
173 76 223 5 19 16 55 26 80 9 25 21 63 25 85 19 91 35 151 47 172 6 12 12 34
12 48 0 14 6 47 14 73 33 112 42 155 64 287 6 33 15 80 21 105 15 64 33 176
38 240 3 30 9 60 14 66 5 6 9 28 8 50 -1 55 19 278 31 344 15 85 22 645 11
840 -13 220 -35 445 -55 575 -9 55 -14 105 -12 112 3 6 -2 19 -9 30 -8 10 -15
38 -15 63 -1 25 -10 83 -21 130 -11 47 -24 108 -29 135 -4 28 -11 59 -14 70
-3 11 -16 65 -30 120 -13 55 -29 113 -35 128 -6 16 -11 38 -11 50 0 12 -7 35
-15 51 -8 15 -15 41 -15 55 0 15 -3 31 -6 34 -11 11 -43 110 -44 133 0 12 -7
27 -15 34 -8 7 -15 22 -15 34 0 11 -7 30 -15 40 -8 11 -15 29 -15 40 0 12 -7
34 -15 50 -8 15 -15 34 -15 41 0 7 -7 18 -15 25 -8 7 -15 20 -15 30 0 16 -35
111 -65 175 -62 135 -95 206 -110 240 -9 22 -21 47 -26 55 -5 8 -11 21 -14 28
-12 30 -17 40 -50 97 -19 33 -49 89 -67 125 -18 36 -36 67 -40 70 -4 3 -12 17
-18 30 -13 29 -21 44 -73 123 -20 31 -37 62 -37 67 0 6 -3 10 -7 10 -5 0 -21
24 -37 53 -17 28 -37 60 -46 70 -9 9 -38 52 -65 95 -27 42 -55 81 -62 85 -7 4
-13 13 -13 19 0 6 -7 18 -15 27 -9 9 -46 57 -83 106 -38 50 -85 113 -106 140
-159 212 -579 644 -826 850 -39 33 -98 83 -129 110 -32 28 -79 66 -105 85 -26
19 -70 53 -99 76 -65 50 -247 181 -307 220 -25 16 -49 32 -55 36 -36 27 -184
123 -209 137 -17 9 -44 25 -61 35 -16 11 -52 34 -80 51 -27 18 -66 40 -85 51
-19 10 -39 25 -43 32 -4 6 -16 12 -25 12 -9 0 -37 12 -62 27 -79 46 -432 223
-445 223 -7 0 -18 7 -25 15 -7 8 -23 15 -35 15 -12 0 -28 7 -35 15 -7 8 -20
15 -29 15 -10 0 -26 7 -37 15 -10 8 -26 15 -34 15 -8 0 -37 12 -65 25 -27 14
-58 25 -67 25 -10 0 -18 4 -18 8 0 5 -19 14 -42 21 -24 7 -59 19 -78 27 -19 9
-44 19 -55 24 -11 4 -42 14 -70 21 -27 6 -57 18 -66 26 -8 7 -25 13 -37 13
-12 0 -30 4 -40 9 -38 19 -232 77 -342 103 -25 5 -49 14 -54 19 -6 5 -22 9
-37 9 -15 0 -40 5 -56 12 -15 6 -50 15 -78 19 -27 4 -90 18 -140 29 -100 24
-144 32 -290 54 -55 9 -125 20 -155 25 -30 6 -120 15 -200 21 -80 6 -174 15
-210 20 -84 12 -457 17 -680 10z"/>
<path d="M17300 21613 c-14 -7 -39 -13 -56 -13 -16 0 -39 -7 -50 -15 -10 -8
-37 -15 -59 -15 -23 0 -46 -5 -51 -10 -6 -6 -33 -15 -60 -20 -116 -21 -160
-32 -168 -41 -6 -5 -26 -9 -45 -9 -20 -1 -47 -7 -61 -15 -14 -8 -43 -15 -65
-15 -22 0 -49 -7 -59 -15 -11 -8 -36 -15 -55 -15 -20 -1 -47 -7 -61 -15 -14
-8 -41 -14 -60 -15 -20 0 -41 -5 -46 -10 -6 -6 -35 -15 -65 -21 -151 -28 -250
-51 -292 -68 -16 -6 -41 -11 -57 -11 -16 0 -31 -4 -34 -9 -4 -5 -25 -12 -49
-16 -23 -4 -62 -13 -87 -20 -51 -16 -204 -53 -265 -65 -22 -4 -53 -12 -68 -19
-16 -6 -41 -11 -56 -11 -15 0 -31 -4 -37 -9 -5 -5 -45 -16 -89 -24 -44 -8
-111 -23 -150 -33 -67 -18 -70 -20 -73 -51 -2 -18 4 -43 12 -55 9 -12 16 -41
16 -65 0 -23 5 -45 10 -48 6 -3 10 -25 10 -48 0 -23 7 -51 15 -61 8 -11 15
-36 15 -56 0 -20 7 -45 15 -56 8 -10 15 -37 15 -59 0 -22 7 -49 15 -59 8 -11
15 -36 15 -56 0 -20 7 -45 15 -56 8 -10 15 -35 15 -55 0 -20 7 -53 15 -72 8
-20 15 -50 15 -66 0 -16 5 -33 10 -36 6 -3 10 -28 10 -54 0 -26 4 -51 10 -57
9 -9 16 -32 41 -154 6 -30 15 -64 20 -75 15 -36 55 -201 66 -270 3 -22 12 -52
19 -67 8 -15 14 -42 14 -61 0 -18 4 -37 9 -42 5 -6 14 -32 20 -60 13 -65 36
-159 49 -210 6 -22 18 -69 26 -105 34 -145 138 -567 147 -595 21 -68 89 -359
89 -381 0 -12 5 -35 12 -51 14 -34 36 -121 46 -183 4 -25 12 -52 17 -60 5 -8
12 -32 16 -55 4 -22 15 -69 24 -105 9 -36 20 -84 25 -108 5 -23 14 -51 20 -61
5 -11 10 -35 10 -53 0 -18 6 -45 14 -59 7 -14 16 -47 20 -72 4 -26 11 -49 17
-52 5 -4 9 -24 9 -46 0 -22 5 -49 11 -60 10 -19 20 -65 38 -169 4 -25 13 -55
19 -67 7 -12 12 -37 12 -55 0 -18 7 -42 15 -52 8 -11 15 -38 15 -60 0 -23 7
-50 15 -60 8 -11 15 -34 15 -50 0 -17 7 -44 15 -60 8 -15 15 -45 15 -65 0 -20
4 -41 9 -46 9 -10 25 -77 40 -168 4 -26 13 -53 19 -59 7 -7 12 -28 12 -48 1
-19 7 -46 15 -60 8 -14 14 -41 15 -60 0 -19 6 -52 14 -75 16 -47 34 -117 66
-260 9 -38 26 -107 56 -225 7 -30 20 -82 28 -115 8 -33 31 -125 51 -205 71
-289 117 -476 130 -530 7 -30 27 -109 44 -175 51 -201 93 -368 103 -415 5 -25
11 -57 14 -72 4 -15 12 -29 19 -32 12 -4 91 17 127 35 10 5 31 9 48 9 16 0 44
6 62 14 18 8 76 24 128 36 52 12 122 28 155 36 33 8 80 19 105 25 25 5 52 12
60 16 21 9 116 32 175 43 28 4 77 16 110 25 33 9 80 20 105 24 25 4 56 13 70
18 27 11 100 31 165 44 55 11 124 29 160 41 17 6 46 12 65 15 19 2 44 8 55 13
22 10 97 27 165 39 25 4 56 13 70 18 14 6 61 19 105 29 44 9 123 28 175 42 52
13 104 26 115 29 94 21 105 26 105 48 0 12 -7 28 -15 35 -10 8 -15 30 -15 61
0 26 -4 50 -9 53 -5 3 -12 31 -16 61 -3 30 -11 55 -16 55 -5 0 -9 25 -9 55 0
30 -4 55 -9 55 -5 0 -14 24 -20 53 -12 61 -29 129 -71 292 -31 118 -38 145
-61 255 -6 30 -15 62 -19 71 -5 9 -12 34 -15 55 -4 22 -10 48 -15 59 -5 11
-14 43 -19 70 -13 65 -44 198 -71 305 -12 47 -27 110 -34 140 -13 55 -54 218
-81 320 -8 30 -26 105 -41 165 -14 61 -30 121 -35 135 -5 14 -13 56 -18 94 -6
38 -14 72 -19 75 -5 3 -12 28 -16 56 -3 27 -11 54 -16 59 -6 6 -10 31 -10 57
0 27 -5 49 -12 51 -6 2 -15 26 -19 54 -18 113 -30 169 -38 174 -4 3 -11 27
-15 55 -3 27 -11 54 -16 59 -6 6 -10 31 -10 58 0 29 -5 50 -13 55 -8 4 -17 30
-21 58 -3 27 -11 54 -16 59 -6 6 -10 29 -10 53 0 24 -4 51 -10 61 -10 19 -27
91 -39 165 -4 26 -13 53 -19 59 -7 7 -12 31 -12 54 0 25 -6 47 -15 54 -9 8
-15 30 -15 57 0 26 -6 51 -15 59 -9 9 -15 34 -15 58 0 27 -6 48 -15 56 -10 8
-15 30 -15 61 0 27 -4 49 -9 49 -4 0 -11 23 -14 52 -4 28 -11 56 -17 62 -5 5
-10 32 -10 58 0 34 -5 50 -15 54 -8 4 -15 18 -15 33 0 27 -24 139 -43 201 -6
19 -14 51 -18 70 -4 19 -15 64 -24 100 -19 74 -29 121 -46 200 -6 30 -15 63
-20 72 -5 9 -12 36 -15 60 -4 24 -10 48 -15 53 -4 6 -13 35 -18 65 -12 69 -31
140 -42 162 -5 10 -9 26 -9 35 0 24 -30 163 -41 188 -4 11 -13 43 -18 70 -9
50 -42 182 -85 350 -37 143 -53 208 -79 320 -8 33 -22 84 -31 114 -9 30 -16
67 -16 82 0 15 -4 31 -10 34 -5 3 -10 25 -10 48 0 23 -7 51 -15 61 -8 11 -15
29 -15 40 0 25 -29 153 -40 181 -9 20 -23 80 -39 160 -5 22 -13 53 -20 68 -6
16 -11 42 -11 58 0 29 -1 29 -47 27 -27 -1 -59 -7 -73 -15z"/>
<path d="M20338 10955 c-3 -4 -38 -11 -76 -15 -38 -5 -80 -11 -93 -14 -63 -14
-116 -29 -134 -39 -11 -6 -33 -14 -50 -18 -50 -13 -105 -35 -117 -47 -7 -7
-20 -12 -29 -12 -10 0 -21 -4 -24 -10 -3 -5 -15 -10 -26 -10 -10 0 -19 -4 -19
-9 0 -4 -30 -28 -67 -51 -93 -61 -263 -227 -350 -344 -66 -88 -163 -263 -163
-294 0 -7 -4 -12 -10 -12 -5 0 -10 -12 -10 -28 0 -15 -6 -36 -14 -47 -7 -11
-16 -38 -19 -60 -4 -22 -13 -71 -21 -110 -41 -201 -24 -474 41 -665 24 -73 82
-210 93 -220 3 -3 18 -30 34 -60 72 -138 238 -314 389 -413 115 -76 245 -142
327 -165 19 -6 58 -17 85 -26 99 -30 201 -41 380 -41 173 0 254 10 355 44 14
4 52 16 85 26 33 10 67 25 76 32 8 7 19 13 24 13 18 0 143 65 190 99 28 20 68
48 90 62 58 38 172 154 248 253 37 48 67 89 67 92 0 3 13 24 28 47 16 23 34
58 42 77 7 19 19 42 27 51 7 8 13 26 13 39 0 13 6 31 13 39 39 48 88 294 88
446 0 106 -11 258 -21 280 -11 26 -40 140 -47 185 -3 19 -11 42 -18 50 -7 8
-32 56 -56 105 -24 50 -49 94 -56 98 -7 4 -13 17 -13 27 0 11 -6 20 -12 20 -7
0 -22 20 -32 43 -35 76 -346 367 -393 367 -7 0 -13 4 -13 9 0 5 -8 11 -17 15
-10 3 -31 14 -48 25 -16 11 -37 20 -46 20 -9 1 -22 7 -28 14 -6 8 -37 22 -68
32 -32 11 -65 25 -74 32 -8 7 -29 13 -45 13 -16 0 -41 6 -55 14 -15 8 -63 17
-108 21 -45 4 -83 10 -86 14 -5 9 -228 15 -237 6z"/>
</g>
</svg>
