<?xml version="1.0" standalone="no"?>
<!DOCTYPE svg PUBLIC "-//W3C//DTD SVG 20010904//EN"
 "http://www.w3.org/TR/2001/REC-SVG-20010904/DTD/svg10.dtd">
<svg version="1.0" xmlns="http://www.w3.org/2000/svg"
 width="3840.000000pt" height="3840.000000pt" viewBox="0 0 3840.000000 3840.000000"
 preserveAspectRatio="xMidYMid meet">
<metadata>
Created by potrace 1.16, written by Peter Selinger 2001-2019
</metadata>
<g transform="translate(0.000000,3840.000000) scale(0.100000,-0.100000)"
fill="#000000" stroke="none">
<path d="M13840 24693 c-217 -33 -245 -42 -450 -135 -164 -74 -390 -269 -494
-426 -207 -313 -283 -644 -226 -987 46 -282 133 -467 323 -687 169 -197 481
-360 775 -405 244 -37 443 -20 676 59 201 67 333 148 478 291 200 197 304 387
373 682 51 214 33 499 -44 715 -59 167 -180 370 -289 483 -61 63 -192 171
-267 220 -114 73 -311 151 -457 181 -71 15 -325 21 -398 9z"/>
<path d="M18390 24667 l-30 -8 0 -1218 0 -1218 23 -12 c17 -9 840 -12 3622
-14 1980 -2 3612 -6 3627 -11 24 -7 27 -5 35 25 4 19 6 580 3 1247 l-5 1212
-3622 3 c-1993 1 -3636 -2 -3653 -6z"/>
<path d="M12788 18334 c-9 -19 -9 -58 0 -162 7 -75 12 -186 12 -247 0 -129 13
-286 40 -475 11 -74 28 -214 39 -311 11 -97 34 -232 50 -300 16 -68 41 -182
56 -254 15 -71 33 -143 39 -160 7 -16 19 -61 26 -100 7 -38 30 -120 52 -182
21 -61 38 -120 38 -130 0 -10 11 -42 25 -71 14 -30 32 -82 40 -115 20 -82 97
-280 151 -392 24 -50 44 -95 44 -101 0 -5 15 -39 34 -74 18 -36 37 -81 41
-100 4 -19 22 -58 40 -85 18 -28 38 -68 44 -88 7 -21 23 -50 37 -66 13 -15 39
-61 58 -101 19 -40 41 -80 49 -89 8 -9 21 -29 29 -46 8 -16 25 -48 38 -70 13
-22 32 -58 43 -80 11 -22 31 -53 44 -69 13 -16 33 -45 44 -65 26 -48 40 -69
64 -95 11 -12 28 -35 38 -52 64 -108 199 -283 364 -476 227 -264 296 -337 463
-486 69 -62 144 -134 167 -160 22 -27 119 -108 215 -181 95 -73 203 -156 239
-184 97 -76 173 -128 227 -157 26 -14 61 -34 77 -44 100 -64 147 -94 200 -129
70 -47 258 -144 429 -223 66 -30 127 -60 135 -68 31 -26 356 -156 441 -176 30
-7 82 -27 115 -45 33 -18 76 -36 95 -40 19 -4 60 -15 90 -25 86 -28 244 -70
266 -70 10 -1 66 -14 124 -31 182 -52 399 -93 680 -129 47 -6 146 -20 220 -31
81 -11 244 -23 410 -29 151 -6 283 -12 292 -14 54 -12 849 33 898 50 8 3 56
10 105 15 50 5 124 15 165 23 41 8 135 24 209 36 158 25 287 54 339 76 20 9
96 26 169 39 88 16 147 32 175 48 24 14 63 27 88 30 25 3 86 24 136 46 51 23
101 41 112 41 28 0 130 38 162 60 14 9 46 19 71 22 31 4 65 18 101 42 30 20
64 36 76 36 11 0 59 20 106 45 48 25 94 45 104 45 10 0 22 4 28 10 5 5 43 27
84 48 41 21 94 50 118 65 24 16 55 33 70 39 15 7 47 26 72 44 25 17 62 39 82
47 21 9 59 32 84 51 26 20 52 36 59 36 7 0 18 7 25 15 7 8 24 21 39 28 53 27
77 43 128 85 28 23 55 42 60 42 5 0 18 8 29 18 11 9 27 22 36 27 67 43 161
113 202 150 6 6 47 39 91 74 44 36 89 74 101 85 11 12 51 48 89 81 141 124
361 341 421 415 15 19 46 56 69 81 143 162 176 199 224 258 65 79 131 168 131
176 0 3 17 28 38 55 59 78 98 133 113 160 8 13 24 35 37 49 12 14 22 31 22 38
0 6 4 13 8 15 13 5 112 158 112 173 0 7 19 41 43 76 23 35 53 88 66 117 14 28
27 52 31 52 3 0 21 33 39 74 18 41 41 82 52 92 10 9 19 22 19 28 0 5 19 51 43
101 24 49 54 117 67 150 13 33 32 69 42 79 10 11 20 36 24 55 8 53 23 87 55
128 19 23 29 47 29 69 0 43 38 146 60 161 11 8 19 32 23 66 3 29 13 71 23 93
9 21 19 50 21 64 2 14 13 43 23 65 10 22 22 61 25 86 3 26 21 79 40 118 21 44
35 88 35 111 0 45 22 144 54 250 13 41 27 100 31 130 3 30 15 87 25 125 24 87
60 321 60 389 1 28 7 87 16 131 27 147 43 318 54 579 6 143 13 270 16 283 4
13 3 44 -1 68 l-6 45 -1272 -2 c-976 -2 -1277 -6 -1293 -15 -21 -12 -22 -21
-28 -260 -8 -338 -36 -622 -80 -831 -8 -37 -24 -121 -37 -187 -12 -66 -30
-136 -39 -155 -10 -19 -23 -67 -29 -105 -6 -39 -25 -109 -42 -155 -17 -47 -35
-108 -39 -136 -10 -67 -19 -94 -31 -94 -5 0 -9 -6 -9 -13 0 -15 -82 -206 -110
-258 -11 -20 -20 -47 -20 -60 0 -13 -21 -58 -45 -99 -25 -41 -45 -83 -45 -95
0 -11 -16 -37 -34 -57 -19 -20 -40 -55 -46 -77 -6 -22 -26 -61 -45 -86 -19
-25 -35 -52 -35 -59 0 -8 -5 -18 -10 -21 -6 -4 -22 -29 -35 -56 -14 -27 -30
-49 -35 -49 -6 0 -10 -6 -10 -13 0 -7 -18 -34 -40 -61 -22 -26 -40 -52 -40
-56 0 -5 -6 -15 -13 -22 -6 -7 -24 -31 -38 -53 -49 -76 -276 -330 -395 -444
-114 -109 -246 -222 -334 -286 -23 -16 -51 -40 -62 -52 -12 -13 -25 -23 -30
-23 -4 0 -34 -17 -65 -37 -55 -36 -74 -47 -133 -79 -14 -8 -43 -27 -65 -43
-61 -45 -146 -91 -169 -91 -11 0 -29 -8 -40 -19 -12 -10 -70 -40 -129 -65 -59
-26 -122 -56 -140 -66 -18 -11 -46 -20 -64 -20 -18 0 -67 -18 -110 -39 -48
-24 -111 -46 -163 -56 -47 -9 -110 -26 -140 -37 -71 -26 -106 -35 -215 -53
-49 -8 -160 -27 -245 -41 -149 -26 -170 -27 -550 -28 -423 0 -396 -2 -720 59
-41 8 -118 22 -170 30 -52 9 -114 25 -136 35 -23 10 -57 21 -75 25 -76 15
-216 58 -248 77 -19 10 -59 24 -90 30 -31 5 -69 18 -86 28 -16 10 -95 48 -175
85 -141 65 -205 100 -320 174 -30 19 -89 56 -131 81 -42 26 -101 67 -131 91
-31 24 -96 76 -144 114 -49 39 -126 103 -171 143 -151 134 -533 576 -533 618
0 5 -19 35 -43 67 -108 147 -127 176 -127 198 0 14 -8 29 -18 35 -9 6 -31 38
-47 70 -16 33 -44 85 -63 116 -18 32 -39 78 -46 102 -7 24 -27 64 -45 89 -17
25 -31 57 -31 71 0 23 -14 55 -67 149 -7 12 -13 30 -13 39 0 22 -49 157 -66
183 -7 11 -18 51 -24 89 -6 39 -25 102 -41 142 -17 40 -36 112 -44 161 -7 48
-25 133 -40 188 -39 152 -57 265 -95 630 -10 95 -30 479 -30 578 l0 57 -1265
0 -1265 0 -12 -26z"/>
</g>
</svg>
