<?xml version="1.0" standalone="no"?>
<!DOCTYPE svg PUBLIC "-//W3C//DTD SVG 20010904//EN"
 "http://www.w3.org/TR/2001/REC-SVG-20010904/DTD/svg10.dtd">
<svg version="1.0" xmlns="http://www.w3.org/2000/svg"
 width="3840.000000pt" height="3840.000000pt" viewBox="0 0 3840.000000 3840.000000"
 preserveAspectRatio="xMidYMid meet">
<metadata>
Created by potrace 1.16, written by Peter Selinger 2001-2019
</metadata>
<g transform="translate(0.000000,3840.000000) scale(0.100000,-0.100000)"
fill="#000000" stroke="none">
<path d="M12785 38296 c-93 -13 -192 -28 -220 -34 -27 -6 -104 -23 -170 -37
-167 -37 -445 -131 -634 -215 -168 -74 -419 -213 -535 -296 -37 -27 -103 -74
-146 -104 -118 -83 -340 -283 -475 -427 -314 -334 -573 -747 -723 -1153 -11
-30 -32 -84 -46 -120 -14 -36 -36 -108 -50 -160 -14 -52 -34 -129 -46 -170
-11 -41 -25 -102 -30 -135 -6 -33 -19 -116 -30 -185 -11 -69 -26 -225 -32
-348 -13 -236 -8 -304 48 -717 8 -60 23 -173 34 -250 20 -152 41 -309 96 -735
19 -151 52 -403 74 -560 21 -157 45 -343 55 -415 19 -152 47 -363 75 -560 11
-77 28 -210 39 -295 31 -239 90 -684 106 -795 15 -109 41 -302 80 -605 14
-107 32 -240 40 -295 15 -105 45 -333 70 -525 26 -202 55 -421 76 -565 10 -77
48 -363 84 -635 36 -272 69 -524 75 -560 9 -63 34 -251 66 -495 27 -208 54
-415 74 -555 10 -74 28 -209 40 -300 29 -221 85 -641 110 -820 11 -80 34 -251
51 -380 41 -324 44 -346 79 -600 43 -315 59 -437 76 -575 8 -66 19 -147 24
-180 5 -33 19 -132 30 -220 12 -88 30 -221 40 -295 11 -74 31 -227 45 -340 14
-113 30 -232 35 -265 5 -33 19 -132 30 -220 12 -88 30 -223 40 -300 10 -77 26
-194 34 -260 25 -188 55 -418 76 -565 10 -74 28 -209 40 -300 11 -91 27 -212
35 -270 8 -58 24 -175 36 -260 11 -85 29 -218 39 -295 11 -77 35 -264 55 -415
20 -151 44 -336 55 -410 10 -74 28 -205 40 -290 41 -311 80 -608 95 -725 8
-66 19 -149 25 -185 9 -60 25 -180 66 -495 8 -66 24 -183 34 -260 11 -77 29
-210 40 -295 50 -373 65 -449 127 -625 139 -393 411 -720 780 -941 168 -100
353 -169 593 -222 69 -15 582 -16 6184 -21 l6110 -6 26 -50 c14 -27 35 -72 47
-100 11 -27 76 -174 143 -325 67 -151 137 -309 155 -350 18 -41 60 -133 92
-205 33 -71 64 -141 68 -155 4 -14 11 -29 15 -35 4 -5 23 -46 43 -90 19 -44
44 -100 55 -125 51 -112 165 -367 172 -385 4 -11 19 -45 33 -75 50 -111 72
-160 187 -420 65 -146 131 -294 148 -330 17 -36 82 -182 145 -325 63 -143 128
-289 145 -325 16 -36 45 -101 65 -145 20 -44 49 -109 65 -145 45 -99 181 -405
217 -490 18 -41 54 -119 79 -173 25 -54 46 -101 46 -104 0 -3 14 -36 31 -72
29 -61 136 -300 231 -516 38 -86 152 -341 185 -415 41 -90 200 -445 235 -525
22 -49 51 -115 65 -145 14 -30 67 -149 118 -265 51 -115 104 -235 118 -265 35
-75 360 -803 409 -915 21 -49 49 -112 62 -140 26 -53 167 -370 221 -495 18
-41 47 -106 65 -144 17 -38 56 -124 85 -190 48 -110 93 -210 290 -651 102
-227 348 -779 480 -1076 68 -152 137 -307 154 -344 17 -36 31 -68 31 -70 0 -6
106 -238 167 -365 106 -224 276 -440 468 -594 291 -234 576 -354 955 -402 252
-31 480 -4 765 91 135 45 231 92 1095 532 140 72 415 211 610 310 195 100 497
253 670 341 173 87 477 242 675 342 198 100 468 238 600 305 132 67 447 227
700 355 253 128 494 251 535 273 179 95 300 193 386 313 49 68 121 218 134
279 5 22 13 58 19 80 6 22 11 93 11 157 0 118 -19 231 -53 308 -8 19 -24 58
-36 85 -41 103 -802 1627 -847 1697 -190 296 -538 455 -879 402 -55 -9 -139
-31 -188 -50 -48 -18 -307 -147 -575 -285 -268 -138 -572 -295 -677 -349 -218
-112 -455 -234 -635 -328 -69 -35 -215 -110 -325 -167 -110 -56 -285 -146
-390 -200 -104 -54 -248 -128 -320 -165 -71 -36 -144 -75 -162 -86 -32 -19
-33 -19 -52 1 -16 17 -102 201 -321 695 -16 36 -91 202 -166 370 -75 168 -151
339 -169 380 -35 82 -152 342 -192 430 -23 50 -48 107 -172 390 -23 52 -71
158 -106 235 -35 77 -83 183 -106 235 -23 52 -72 163 -109 245 -37 83 -102
229 -145 325 -42 96 -93 208 -111 248 -19 40 -34 75 -34 77 0 3 -18 45 -41 93
-22 48 -98 218 -169 377 -124 280 -149 335 -212 475 -16 36 -90 202 -165 370
-74 168 -146 330 -160 360 -42 91 -322 717 -373 835 -64 147 -311 701 -354
795 -31 66 -105 232 -249 555 -24 55 -55 125 -69 155 -50 112 -113 252 -230
515 -115 259 -192 432 -300 670 -28 61 -70 155 -93 210 -24 55 -60 136 -80
180 -21 44 -45 100 -55 125 -10 25 -39 88 -64 141 -25 53 -59 127 -74 165 -48
115 -200 451 -261 579 -106 222 -215 377 -378 537 -149 147 -356 291 -503 351
-25 10 -53 23 -63 28 -32 17 -152 61 -187 69 -19 5 -78 18 -130 29 -52 12
-147 26 -210 31 -72 6 -2298 10 -5927 10 -3942 0 -5813 3 -5813 10 0 6 -13
106 -30 223 -16 116 -50 370 -75 562 -25 193 -50 377 -55 410 -5 33 -23 168
-40 300 -17 132 -37 285 -45 340 -8 55 -21 154 -30 220 -9 66 -20 152 -25 190
-5 39 -23 174 -40 300 -16 127 -39 295 -50 375 -11 80 -31 233 -45 340 -15
107 -31 214 -36 238 -6 29 -6 49 1 62 11 20 58 20 5306 20 3744 0 5316 3 5367
11 136 20 209 44 312 103 102 58 197 137 258 214 87 109 140 211 171 322 33
123 36 209 36 1153 0 985 0 997 -44 1154 -20 75 -90 205 -149 281 -70 89 -204
202 -290 244 -40 20 -110 49 -157 64 l-85 29 -5596 5 c-4723 4 -5599 7 -5612
19 -11 9 -17 29 -17 60 0 25 -9 107 -19 181 -19 130 -39 274 -81 600 -34 255
-50 378 -70 520 -10 74 -28 207 -39 295 -12 88 -39 295 -61 460 -23 165 -50
368 -61 450 -10 83 -40 303 -65 490 -25 187 -50 369 -54 405 -13 103 -98 740
-120 905 -26 185 -33 240 -65 485 -14 107 -33 245 -41 305 -8 61 -18 143 -21
183 l-6 72 29 0 c81 0 454 85 604 138 65 23 242 89 285 106 74 30 335 162 385
195 30 20 72 45 92 56 21 11 84 52 140 92 419 295 723 610 988 1023 356 554
544 1173 566 1865 8 244 -32 623 -92 875 -169 703 -537 1330 -1069 1822 -316
292 -742 562 -1090 692 -55 21 -120 46 -145 56 -25 11 -79 29 -120 41 -41 11
-104 29 -140 39 -75 22 -161 41 -310 69 -293 56 -744 67 -1055 27z"/>
<path d="M7274 24946 c-10 -8 -100 -56 -199 -107 -99 -50 -209 -110 -245 -132
-36 -22 -90 -53 -120 -70 -59 -32 -235 -136 -415 -245 -126 -76 -495 -320
-600 -397 -38 -28 -105 -76 -148 -106 -89 -62 -175 -126 -332 -248 -61 -47
-128 -99 -150 -116 -22 -16 -78 -61 -125 -100 -47 -39 -128 -107 -180 -150
-149 -123 -385 -334 -565 -505 -281 -267 -743 -745 -857 -886 -18 -23 -72 -86
-119 -140 -221 -256 -538 -663 -745 -959 -66 -93 -129 -183 -141 -200 -11 -16
-42 -64 -68 -105 -27 -41 -75 -115 -108 -165 -106 -159 -276 -443 -434 -725
-489 -872 -921 -1930 -1178 -2885 -15 -55 -33 -120 -40 -145 -8 -25 -23 -83
-34 -130 -11 -47 -35 -150 -55 -230 -120 -495 -229 -1175 -286 -1790 -46 -495
-63 -1113 -45 -1655 6 -179 48 -768 65 -920 34 -300 85 -661 114 -821 19 -104
46 -254 60 -334 24 -130 43 -215 105 -475 11 -44 31 -129 46 -190 27 -120 36
-150 88 -330 19 -66 47 -165 62 -220 15 -55 75 -242 133 -415 153 -460 360
-972 595 -1474 43 -93 333 -653 384 -741 213 -373 311 -534 548 -895 224 -343
639 -892 913 -1210 74 -85 173 -200 221 -255 142 -165 496 -530 739 -762 597
-571 1337 -1150 2022 -1582 63 -40 144 -92 180 -116 36 -23 128 -78 205 -122
77 -44 192 -110 255 -148 63 -37 153 -86 200 -110 47 -24 171 -87 275 -140
263 -135 471 -235 490 -235 2 0 91 -40 197 -89 106 -49 234 -103 283 -121 50
-18 122 -46 160 -63 127 -55 296 -117 580 -213 333 -113 355 -120 555 -174 85
-23 205 -57 265 -76 61 -18 153 -43 205 -54 52 -12 169 -40 260 -62 250 -60
874 -176 1060 -198 52 -5 181 -21 285 -35 105 -13 300 -33 435 -45 135 -11
299 -24 365 -30 368 -31 1151 -31 1590 0 569 39 1352 139 1695 215 36 8 115
24 175 35 95 18 487 109 670 156 100 26 274 76 510 146 224 67 822 277 975
343 30 13 114 46 185 75 72 28 173 71 225 94 52 24 111 50 130 57 19 7 78 34
130 60 52 25 126 61 163 78 317 148 910 469 1163 630 40 25 110 69 155 96 171
104 532 349 761 518 84 62 165 121 181 132 29 21 256 199 366 288 36 29 99 81
140 117 42 36 103 87 136 115 283 235 857 795 1167 1137 607 671 1195 1468
1604 2176 32 56 81 139 107 185 151 256 477 901 477 943 0 14 -9 42 -20 64
-11 21 -84 184 -164 362 -79 178 -230 517 -336 753 -106 237 -210 471 -232
520 -22 50 -51 115 -65 145 -14 30 -58 129 -98 220 -40 91 -91 204 -114 253
-22 48 -41 90 -41 93 0 3 -12 31 -26 62 -103 226 -124 272 -124 276 0 3 -17
42 -38 88 -22 46 -56 121 -77 168 -46 105 -121 272 -145 325 -46 101 -149 334
-163 368 l-16 37 -429 0 -429 0 -11 -25 c-7 -14 -12 -36 -12 -49 0 -12 -9 -58
-19 -102 -10 -43 -27 -115 -37 -159 -23 -105 -95 -388 -124 -490 -86 -300
-209 -659 -315 -920 -631 -1558 -1631 -2901 -2926 -3934 -284 -226 -368 -287
-664 -485 -222 -148 -471 -301 -645 -396 -214 -117 -395 -212 -465 -245 -38
-18 -109 -51 -157 -73 -486 -230 -1244 -500 -1658 -592 -19 -4 -89 -21 -155
-38 -164 -42 -481 -106 -650 -132 -77 -12 -162 -26 -190 -31 -86 -15 -489 -57
-735 -76 -348 -26 -961 -24 -1330 5 -299 24 -704 72 -870 102 -58 11 -157 29
-220 40 -160 29 -202 38 -505 110 -205 48 -476 128 -775 227 -220 73 -683 254
-798 312 -43 21 -121 57 -174 80 -208 88 -784 399 -993 536 -44 29 -129 83
-190 121 -266 167 -708 501 -1028 776 -271 233 -676 629 -866 848 -31 36 -101
117 -157 180 -335 383 -743 961 -1026 1453 -106 186 -300 556 -366 702 -121
264 -203 460 -315 750 -41 107 -185 550 -223 685 -86 308 -159 628 -214 935
-5 28 -16 88 -24 135 -56 310 -110 902 -122 1320 -6 248 7 754 26 950 40 413
54 537 81 705 17 105 34 218 39 251 20 128 142 672 185 819 15 50 35 119 45
155 55 196 96 324 155 490 87 244 99 274 157 415 27 66 72 176 101 245 56 136
325 680 410 826 28 51 79 140 112 198 108 191 404 636 584 876 311 416 757
918 1074 1211 67 62 156 144 197 183 41 40 145 129 230 200 85 70 189 156 232
192 42 35 107 85 145 110 37 26 91 65 119 88 28 22 97 73 152 111 l101 70 1
46 c0 25 -7 97 -15 160 -9 63 -20 146 -25 184 -10 78 -64 477 -111 830 -17
127 -37 277 -45 335 -8 58 -28 209 -44 335 -17 127 -44 329 -60 450 -17 121
-35 252 -39 290 -16 122 -100 754 -122 910 -11 83 -24 185 -29 228 -8 88 -17
103 -46 83z"/>
</g>
</svg>
