<?xml version="1.0" standalone="no"?>
<!DOCTYPE svg PUBLIC "-//W3C//DTD SVG 20010904//EN"
 "http://www.w3.org/TR/2001/REC-SVG-20010904/DTD/svg10.dtd">
<svg version="1.0" xmlns="http://www.w3.org/2000/svg"
 width="3840.000000pt" height="2691.000000pt" viewBox="0 0 3840.000000 2691.000000"
 preserveAspectRatio="xMidYMid meet">
<metadata>
Created by potrace 1.16, written by Peter Selinger 2001-2019
</metadata>
<g transform="translate(0.000000,2691.000000) scale(0.100000,-0.100000)"
fill="#000000" stroke="none">
<path d="M3240 26897 c-3 -2 -32 -7 -65 -10 -288 -28 -591 -172 -824 -393
-336 -317 -530 -808 -477 -1207 43 -326 226 -652 503 -898 106 -94 3148 -2123
3293 -2196 425 -215 922 -196 1335 52 379 227 642 609 731 1060 22 110 22 316
-1 425 -70 344 -289 678 -588 899 -164 121 -3114 2079 -3189 2117 -122 61
-269 110 -388 129 -25 4 -54 9 -65 12 -33 6 -260 16 -265 10z"/>
<path d="M34916 26890 c-182 -23 -388 -88 -523 -166 -87 -51 -3077 -2046
-3138 -2094 -158 -126 -303 -307 -395 -495 -65 -133 -89 -200 -122 -337 -19
-81 -22 -121 -22 -303 0 -227 10 -296 69 -464 140 -399 509 -753 922 -887 333
-107 724 -94 997 35 88 41 3163 2084 3279 2179 236 191 394 451 465 762 21 96
24 418 3 530 -68 378 -182 615 -405 836 -257 256 -581 396 -946 409 -63 2
-146 0 -184 -5z"/>
<path d="M13775 23019 c-132 -13 -373 -55 -510 -89 -948 -238 -1759 -873
-2198 -1720 -158 -303 -273 -641 -331 -970 -9 -47 -22 -123 -31 -170 -9 -47
-20 -107 -25 -135 -5 -27 -22 -122 -39 -210 -39 -207 -37 -197 -67 -360 -14
-77 -43 -234 -65 -350 -21 -115 -46 -246 -54 -290 -8 -44 -30 -163 -49 -265
-20 -102 -47 -250 -61 -330 -14 -80 -37 -203 -51 -275 -25 -131 -30 -158 -84
-450 -16 -88 -45 -243 -64 -345 -19 -102 -42 -223 -50 -270 -9 -47 -22 -121
-30 -165 -33 -178 -47 -249 -85 -455 -21 -118 -82 -444 -134 -725 -53 -280
-101 -539 -107 -575 -11 -66 -82 -443 -100 -535 -5 -27 -50 -270 -100 -540
-50 -269 -102 -551 -116 -625 -13 -74 -31 -171 -39 -215 -8 -44 -26 -138 -40
-210 -13 -71 -65 -350 -115 -620 -90 -492 -108 -586 -135 -725 -8 -41 -28
-149 -45 -240 -16 -91 -32 -176 -35 -190 -3 -14 -46 -245 -95 -515 -49 -269
-92 -503 -95 -520 -39 -205 -139 -737 -149 -795 -8 -41 -31 -168 -52 -282
l-38 -206 -90 -7 c-1040 -74 -1952 -673 -2421 -1590 -135 -262 -214 -506 -272
-831 l-28 -159 0 -1715 c0 -1813 -2 -1747 46 -1991 56 -292 169 -595 319 -855
142 -246 280 -425 484 -630 475 -475 1041 -754 1703 -838 92 -12 1740 -14
10908 -12 10130 1 10806 2 10903 18 345 58 633 152 917 301 800 421 1378 1202
1529 2067 21 120 26 159 36 295 13 165 13 3092 0 3268 -51 710 -354 1354 -871
1852 -213 205 -437 366 -694 497 -180 91 -235 115 -425 178 -226 76 -487 128
-728 146 -83 6 -93 8 -97 28 -2 11 -28 143 -55 291 -28 149 -72 376 -96 505
-25 129 -101 530 -170 890 -68 360 -140 734 -158 830 -19 96 -42 216 -51 265
-9 50 -23 122 -30 160 -8 39 -30 156 -50 260 -20 105 -42 222 -50 260 -8 39
-30 153 -49 255 -19 102 -53 281 -76 397 -89 471 -122 646 -156 823 -19 102
-41 217 -49 255 -8 39 -26 133 -40 210 -14 77 -44 232 -65 345 -22 113 -60
313 -85 445 -25 132 -55 285 -65 340 -26 128 -33 165 -70 365 -32 167 -67 352
-141 735 -22 116 -51 269 -64 340 -14 72 -29 153 -35 180 -34 176 -187 984
-246 1295 -14 74 -32 167 -39 205 -14 68 -55 284 -130 680 -20 105 -47 249
-61 320 -33 171 -52 269 -64 330 -55 292 -74 394 -90 475 -10 52 -28 149 -39
216 -51 302 -149 597 -290 878 -226 447 -538 819 -947 1127 -429 323 -944 544
-1479 635 -271 46 -27 44 -5680 43 -2926 -1 -5360 -6 -5410 -10z m10634 -2880
c84 -19 189 -76 251 -135 69 -66 97 -117 111 -205 5 -35 32 -181 60 -324 27
-143 61 -321 75 -395 14 -74 36 -193 49 -265 14 -71 31 -166 40 -210 8 -44 32
-174 54 -290 86 -456 133 -701 181 -960 63 -338 152 -811 225 -1195 82 -437
175 -927 186 -990 6 -30 16 -86 24 -125 8 -38 21 -108 29 -155 8 -47 27 -146
41 -220 32 -165 83 -437 95 -505 5 -27 21 -111 35 -185 14 -74 32 -169 40
-210 8 -41 37 -196 65 -345 51 -272 73 -388 90 -480 5 -27 27 -147 50 -265 23
-118 52 -273 65 -345 36 -192 155 -829 320 -1700 36 -192 93 -492 125 -665 88
-472 127 -676 165 -875 19 -99 45 -238 58 -310 l24 -130 -7665 -3 c-4216 -1
-7667 0 -7669 2 -4 4 16 120 46 272 10 55 31 164 46 244 15 80 38 199 50 265
13 66 35 181 49 255 14 74 43 230 65 345 58 304 100 529 117 620 8 44 35 186
59 315 25 129 68 354 95 500 28 146 68 357 90 470 21 113 46 246 55 295 9 50
32 171 51 270 19 99 42 218 50 265 9 47 31 164 49 260 19 96 48 249 65 340 17
91 35 188 40 215 6 28 28 147 50 265 22 118 45 235 50 260 5 25 16 86 25 135
9 50 28 146 41 215 21 112 35 182 65 345 5 28 20 106 33 175 14 69 32 166 41
215 9 50 27 144 40 210 13 66 31 161 40 210 9 50 20 110 25 135 5 25 21 106
35 180 45 240 55 293 79 420 13 69 36 190 51 270 15 80 38 201 51 270 13 69
31 163 40 210 9 47 20 105 25 130 9 47 37 197 89 470 56 299 79 423 115 610
19 102 42 221 50 265 8 44 38 199 65 345 28 146 62 326 76 400 14 74 34 178
44 230 10 52 24 133 30 179 6 47 20 106 30 132 48 127 173 233 323 274 44 12
799 14 5222 14 3460 0 5185 -3 5214 -10z m5341 -15804 l0 -1435 -10550 0
-10550 0 0 1435 0 1435 10550 0 10550 0 0 -1435z"/>
<path d="M16645 18245 c-128 -17 -171 -27 -302 -71 -333 -111 -624 -343 -802
-638 -64 -105 -125 -249 -151 -356 -29 -116 -997 -5928 -1005 -6035 -19 -255
63 -593 203 -832 100 -171 263 -350 422 -465 102 -73 292 -167 415 -205 85
-26 103 -27 325 -31 255 -4 351 6 520 54 506 144 887 552 995 1065 32 151 984
5887 990 5966 8 107 -10 304 -40 428 -143 586 -619 1034 -1187 1116 -115 16
-274 18 -383 4z"/>
<path d="M1195 16775 c-66 -13 -152 -34 -190 -48 -448 -156 -793 -513 -931
-962 -46 -150 -59 -245 -58 -425 4 -626 452 -1200 1069 -1369 187 -52 104 -50
2265 -50 1344 -1 2043 2 2100 9 616 76 1113 533 1252 1151 33 150 33 408 0
558 -66 294 -191 522 -401 731 -238 238 -505 372 -838 420 -49 7 -743 10
-2110 9 l-2038 -1 -120 -23z"/>
<path d="M32870 16780 c-466 -82 -867 -391 -1070 -824 -51 -107 -80 -193 -108
-316 -24 -108 -24 -453 1 -562 68 -302 200 -534 429 -753 183 -176 370 -283
613 -354 177 -51 102 -49 2264 -50 1373 -1 2042 2 2105 10 323 37 633 193 866
435 106 110 159 181 231 309 133 240 187 468 176 745 -9 214 -53 387 -148 575
-202 398 -552 670 -1004 778 l-90 22 -2080 1 c-1987 2 -2085 2 -2185 -16z"/>
</g>
</svg>
