<?xml version="1.0" standalone="no"?>
<!DOCTYPE svg PUBLIC "-//W3C//DTD SVG 20010904//EN"
 "http://www.w3.org/TR/2001/REC-SVG-20010904/DTD/svg10.dtd">
<svg version="1.0" xmlns="http://www.w3.org/2000/svg"
 width="3840.000000pt" height="5113.000000pt" viewBox="0 0 3840.000000 5113.000000"
 preserveAspectRatio="xMidYMid meet">
<metadata>
Created by potrace 1.16, written by Peter Selinger 2001-2019
</metadata>
<g transform="translate(0.000000,5113.000000) scale(0.100000,-0.100000)"
fill="#000000" stroke="none">
<path d="M18593 51004 c-258 -21 -334 -30 -543 -60 -175 -26 -503 -86 -544
-100 -21 -8 -48 -14 -60 -14 -25 0 -198 -42 -311 -75 -44 -13 -123 -36 -175
-51 -153 -43 -444 -143 -600 -207 -80 -32 -161 -63 -180 -69 -100 -29 -773
-358 -872 -426 -24 -16 -72 -44 -108 -62 -147 -73 -628 -397 -825 -555 -49
-39 -120 -94 -157 -122 -128 -97 -399 -339 -589 -524 -192 -188 -501 -528
-603 -662 -22 -29 -74 -95 -117 -148 -43 -53 -105 -136 -139 -185 -57 -84
-109 -156 -129 -180 -9 -11 -98 -147 -163 -249 -20 -33 -41 -64 -46 -70 -13
-17 -67 -108 -85 -145 -10 -19 -35 -63 -56 -96 -21 -34 -45 -75 -53 -90 -8
-16 -33 -63 -56 -105 -23 -42 -42 -84 -42 -93 0 -9 -3 -16 -8 -16 -4 0 -16
-17 -26 -37 -10 -21 -22 -45 -27 -53 -12 -22 -73 -146 -108 -222 -17 -37 -31
-76 -31 -87 0 -10 -6 -21 -13 -24 -7 -3 -19 -24 -27 -48 -7 -24 -19 -51 -26
-59 -7 -8 -20 -42 -29 -74 -10 -33 -26 -73 -36 -90 -10 -17 -19 -41 -19 -52 0
-12 -6 -27 -14 -33 -7 -6 -19 -33 -26 -59 -7 -26 -24 -71 -36 -100 -13 -29
-24 -59 -24 -67 0 -8 -11 -43 -24 -77 -13 -35 -35 -101 -50 -148 -14 -47 -37
-120 -51 -162 -14 -42 -25 -86 -25 -98 0 -12 -11 -49 -24 -83 -13 -34 -27 -83
-30 -109 -3 -26 -15 -74 -26 -107 -11 -33 -20 -74 -20 -90 0 -16 -9 -57 -19
-92 -11 -35 -22 -84 -26 -109 -9 -66 -25 -150 -36 -193 -6 -21 -14 -70 -19
-110 -4 -40 -18 -142 -29 -227 -50 -379 -63 -586 -64 -1010 -1 -259 3 -452 11
-535 7 -71 17 -177 23 -235 10 -114 53 -439 69 -535 43 -248 53 -296 115 -555
14 -58 25 -114 25 -125 0 -11 6 -32 14 -46 7 -15 19 -51 26 -80 7 -30 22 -88
35 -129 13 -41 26 -88 30 -105 3 -16 15 -48 26 -72 10 -23 19 -51 19 -63 0
-11 9 -40 21 -64 11 -24 26 -66 34 -93 22 -76 74 -216 85 -227 5 -5 10 -18 10
-28 0 -10 11 -41 25 -68 14 -27 25 -55 25 -63 0 -7 11 -38 25 -68 58 -122 74
-156 96 -208 46 -104 246 -497 304 -596 32 -55 73 -125 90 -155 158 -277 584
-876 769 -1081 22 -25 66 -74 96 -109 165 -193 574 -600 774 -771 97 -84 252
-210 334 -272 47 -35 77 -60 107 -85 11 -10 63 -47 115 -83 52 -37 139 -97
192 -135 140 -99 317 -212 438 -279 58 -31 137 -77 175 -101 127 -77 808 -404
843 -404 7 0 31 -9 55 -19 231 -106 728 -267 1092 -354 463 -110 796 -160
1380 -208 77 -6 293 -11 480 -11 343 0 643 18 945 57 63 8 151 20 195 26 250
32 623 109 900 185 179 49 410 118 455 136 14 6 79 28 145 50 123 40 184 63
340 128 91 38 467 204 495 219 525 275 848 470 1132 682 42 32 86 62 97 68 11
6 25 17 33 24 7 7 25 20 40 29 46 30 288 227 448 366 374 325 923 922 1175
1278 17 23 76 107 132 186 55 79 117 170 138 203 20 33 59 96 87 140 143 225
357 623 481 895 11 25 30 68 43 95 12 28 34 75 48 105 14 30 26 62 26 70 0 8
12 38 25 65 14 28 25 57 25 65 0 9 6 24 13 35 8 11 33 76 56 145 24 69 51 143
61 165 9 22 20 57 24 77 4 20 13 50 21 65 8 15 18 44 21 63 3 19 14 55 24 80
10 25 24 74 30 110 6 36 20 85 31 109 10 24 19 54 19 67 0 13 7 49 16 81 9 32
21 81 26 108 5 28 16 75 24 105 15 52 21 85 45 225 5 33 16 89 24 125 7 36 19
110 25 165 6 55 16 124 21 153 5 29 15 126 24 215 8 89 20 216 27 282 6 69 11
283 11 500 0 384 -19 698 -58 980 -8 55 -19 143 -25 195 -7 52 -16 115 -21
139 -6 23 -19 95 -30 160 -11 64 -27 143 -36 176 -9 33 -20 83 -24 110 -4 28
-21 102 -38 165 -16 63 -37 142 -46 175 -20 75 -62 216 -82 275 -9 25 -22 65
-29 90 -22 76 -120 354 -132 375 -7 11 -18 38 -26 60 -123 344 -437 967 -657
1305 -27 41 -60 95 -74 120 -26 46 -49 80 -211 307 -420 588 -948 1142 -1534
1609 -475 378 -1072 747 -1590 982 -96 43 -197 89 -224 102 -28 12 -66 28 -85
35 -20 8 -74 30 -121 50 -85 36 -229 89 -285 105 -16 4 -59 18 -95 30 -168 59
-201 70 -290 95 -52 15 -131 37 -175 50 -44 13 -132 35 -195 50 -63 14 -144
33 -180 42 -97 23 -365 73 -448 83 -41 5 -81 11 -90 14 -28 9 -334 44 -532 62
-128 12 -306 17 -575 19 -331 1 -430 -2 -652 -21z"/>
<path d="M3045 38270 c-493 -34 -991 -196 -1426 -466 -446 -276 -880 -758
-1145 -1269 -150 -290 -246 -572 -303 -890 -58 -328 -66 -611 -26 -930 14
-108 27 -200 29 -204 2 -3 14 -53 26 -111 21 -103 44 -185 79 -285 10 -27 26
-75 36 -105 17 -54 35 -96 107 -250 41 -88 179 -330 217 -380 14 -19 33 -44
41 -56 91 -134 276 -354 357 -424 21 -18 67 -60 102 -93 80 -74 427 -335 710
-532 39 -27 109 -77 154 -110 45 -33 124 -89 175 -125 145 -102 324 -232 332
-241 3 -3 12 -8 20 -12 8 -4 38 -24 66 -44 59 -44 190 -137 218 -155 10 -7 40
-29 67 -48 26 -19 60 -44 75 -55 15 -11 40 -30 55 -42 15 -13 30 -23 34 -23 4
0 26 -16 49 -35 24 -19 48 -35 55 -35 6 0 11 -4 11 -8 0 -4 23 -21 50 -37 28
-16 50 -32 50 -36 0 -4 8 -10 19 -14 10 -3 30 -16 44 -28 29 -26 57 -48 79
-62 44 -28 319 -224 328 -234 3 -3 13 -10 22 -16 9 -5 42 -28 73 -50 32 -22
67 -47 80 -55 23 -16 103 -74 120 -88 11 -8 188 -134 218 -155 10 -6 40 -28
67 -47 120 -88 291 -210 353 -252 44 -31 101 -72 137 -101 8 -7 47 -33 85 -59
39 -26 104 -73 145 -103 41 -31 86 -63 100 -73 14 -9 90 -64 170 -121 80 -57
174 -124 210 -149 36 -25 81 -57 101 -71 49 -34 63 -44 134 -91 33 -22 65 -43
70 -47 21 -17 121 -79 148 -92 15 -8 27 -18 27 -23 0 -4 6 -8 13 -8 8 0 22 -9
32 -20 10 -11 20 -18 23 -16 2 3 9 0 16 -5 40 -34 382 -252 541 -345 94 -55
338 -206 345 -213 3 -4 22 -15 42 -26 123 -67 304 -169 308 -175 3 -4 12 -9
20 -13 16 -7 167 -94 355 -206 17 -9 93 -50 170 -91 77 -40 154 -81 170 -90
17 -9 91 -50 165 -90 74 -41 158 -87 185 -102 28 -15 77 -40 110 -55 56 -25
127 -61 445 -225 69 -35 163 -81 210 -101 77 -33 137 -60 255 -117 175 -85
556 -259 634 -290 53 -21 177 -73 276 -115 183 -79 271 -115 635 -256 113 -44
225 -88 250 -98 l45 -17 3 -4270 c1 -2348 0 -4279 -3 -4291 -3 -12 -14 -32
-25 -45 -23 -27 -66 -83 -95 -123 -11 -15 -35 -46 -53 -68 -19 -23 -48 -62
-65 -87 -17 -25 -56 -77 -87 -116 -54 -71 -108 -142 -205 -274 -27 -37 -72
-97 -100 -133 -27 -36 -58 -76 -67 -89 -9 -13 -43 -58 -75 -100 -32 -42 -67
-89 -78 -104 -11 -15 -45 -59 -75 -98 -60 -76 -293 -385 -375 -496 -98 -133
-181 -243 -225 -300 -25 -31 -60 -77 -78 -101 -18 -24 -45 -60 -60 -80 -15
-20 -36 -48 -47 -64 -11 -15 -33 -45 -50 -66 -16 -21 -46 -60 -65 -86 -19 -26
-41 -52 -47 -56 -7 -4 -13 -13 -13 -19 0 -6 -12 -25 -27 -42 -16 -18 -39 -47
-53 -66 -14 -18 -36 -48 -50 -66 -14 -18 -38 -52 -55 -75 -16 -23 -50 -68 -75
-100 -25 -32 -79 -103 -120 -158 -41 -56 -109 -145 -150 -200 -41 -54 -84
-111 -94 -125 -11 -15 -28 -37 -39 -49 -10 -12 -33 -42 -50 -67 -17 -25 -33
-47 -36 -50 -11 -9 -97 -124 -131 -175 -32 -47 -51 -72 -75 -99 -6 -6 -28 -36
-50 -66 -22 -30 -42 -57 -46 -60 -9 -7 -101 -130 -123 -165 -10 -17 -26 -37
-35 -47 -15 -15 -61 -75 -231 -303 -33 -44 -67 -89 -75 -100 -9 -11 -46 -60
-83 -110 -37 -49 -69 -92 -72 -95 -14 -14 -90 -118 -90 -123 0 -4 -8 -15 -17
-25 -10 -10 -27 -31 -38 -46 -28 -40 -149 -200 -155 -206 -10 -10 -722 -954
-973 -1290 -43 -58 -85 -113 -93 -123 -136 -165 -324 -498 -392 -697 -11 -30
-27 -71 -35 -90 -9 -19 -28 -75 -42 -125 -15 -49 -36 -117 -46 -150 -10 -33
-21 -80 -24 -105 -4 -25 -13 -72 -20 -105 -8 -33 -22 -116 -32 -185 -35 -252
-19 -822 27 -980 6 -19 15 -69 21 -110 6 -41 19 -100 29 -130 10 -30 30 -95
45 -145 14 -49 38 -117 51 -150 13 -33 24 -64 24 -68 0 -23 151 -330 202 -412
21 -33 41 -67 45 -75 6 -15 148 -215 168 -236 5 -7 18 -22 27 -35 9 -13 443
-593 965 -1289 951 -1269 1075 -1433 1324 -1763 74 -98 139 -186 144 -194 13
-21 20 -31 92 -123 32 -41 94 -124 138 -183 44 -59 130 -173 190 -253 61 -80
133 -176 160 -214 28 -37 126 -169 218 -291 93 -123 176 -234 185 -247 9 -13
42 -56 72 -96 30 -40 64 -85 75 -100 11 -15 45 -60 75 -100 30 -40 63 -83 73
-97 10 -13 153 -204 318 -424 166 -220 322 -429 347 -464 26 -35 67 -90 92
-121 43 -56 119 -157 225 -300 62 -84 198 -263 205 -270 3 -3 25 -32 50 -65
56 -76 349 -375 367 -375 7 0 13 -4 13 -9 0 -5 8 -12 18 -15 9 -3 33 -20 52
-36 19 -17 53 -43 75 -58 45 -30 118 -84 125 -93 3 -3 12 -9 20 -12 8 -4 31
-17 50 -28 19 -12 58 -34 87 -50 81 -44 97 -53 113 -65 8 -6 56 -28 105 -49
50 -20 120 -50 156 -66 36 -16 72 -29 80 -29 8 0 19 -4 24 -8 6 -5 28 -14 50
-20 22 -6 78 -22 125 -35 123 -35 217 -58 280 -68 30 -5 91 -16 135 -24 181
-33 577 -46 755 -25 204 25 391 57 443 76 20 8 50 14 65 14 36 0 349 94 427
129 355 156 492 241 815 507 505 414 876 1003 1040 1649 108 426 126 910 50
1320 -10 55 -21 118 -25 140 -3 22 -15 74 -26 115 -110 402 -273 760 -488
1070 -36 52 -788 1058 -1671 2234 -883 1177 -1609 2148 -1614 2157 -16 32 3
66 126 221 68 85 166 211 220 279 53 68 207 266 343 439 135 173 279 358 320
410 41 52 138 176 215 275 78 99 210 267 293 374 84 106 170 217 193 245 53
67 74 69 141 14 28 -24 86 -68 129 -98 42 -30 118 -86 168 -123 50 -38 160
-110 244 -160 84 -51 171 -104 195 -119 95 -61 553 -285 702 -343 88 -34 205
-81 260 -102 55 -22 141 -53 190 -68 111 -33 223 -68 295 -90 30 -9 149 -37
265 -61 115 -24 235 -50 265 -58 56 -14 109 -22 380 -57 362 -46 789 -62 1485
-56 566 5 863 15 1015 36 100 14 285 39 390 52 47 6 126 20 175 31 50 11 128
28 175 38 151 33 214 48 280 70 76 24 178 56 305 94 50 15 119 38 155 51 36
13 99 35 140 50 41 15 113 44 160 65 47 21 121 53 165 71 110 45 518 248 596
296 35 22 109 66 164 98 251 147 394 242 577 379 55 41 92 53 113 36 8 -7 83
-101 167 -209 84 -108 180 -230 213 -272 33 -41 105 -133 160 -204 55 -70 127
-163 160 -205 94 -120 289 -368 420 -535 66 -84 154 -196 195 -249 41 -54 124
-159 183 -234 60 -75 125 -159 145 -187 20 -27 55 -72 79 -99 24 -26 43 -54
43 -62 0 -8 -748 -1012 -1663 -2231 -915 -1220 -1672 -2231 -1682 -2248 -11
-16 -40 -59 -66 -95 -375 -527 -575 -1300 -514 -1981 28 -315 97 -620 198
-874 22 -55 47 -121 57 -147 29 -76 168 -336 243 -453 236 -370 594 -736 897
-920 210 -127 537 -274 755 -340 50 -15 117 -35 150 -45 33 -10 83 -21 110
-25 28 -4 58 -11 69 -17 10 -5 57 -16 105 -24 47 -8 127 -22 176 -30 195 -33
652 -28 851 10 44 8 117 20 164 27 47 7 99 18 117 26 18 7 45 13 60 13 15 0
65 11 112 25 180 53 216 65 301 100 30 13 80 33 110 45 72 30 181 83 250 121
30 17 73 41 95 54 104 58 169 99 198 124 18 15 61 49 96 74 97 70 335 300 416
402 40 49 197 257 350 460 153 204 289 384 302 400 12 17 86 116 164 220 78
105 222 296 319 425 97 129 293 390 435 580 142 190 271 361 285 380 28 36
203 269 420 560 69 92 150 200 181 241 58 77 88 117 538 719 151 201 286 381
300 400 15 19 392 521 838 1115 790 1054 958 1283 1011 1375 14 25 42 72 62
105 84 137 226 467 283 655 295 987 100 1994 -535 2755 -46 55 -214 273 -373
485 -435 578 -597 793 -780 1035 -92 121 -177 233 -188 249 -43 57 -221 294
-395 525 -97 129 -199 264 -227 302 -27 37 -158 211 -291 386 -132 175 -310
410 -395 523 -85 113 -168 223 -185 245 -17 22 -58 76 -90 120 -32 44 -64 87
-71 95 -73 92 -67 84 -295 390 -72 96 -143 189 -157 207 -14 17 -57 75 -96
128 -38 53 -106 143 -150 200 -44 57 -111 148 -150 201 -38 53 -83 112 -98
130 -29 34 -265 346 -446 589 -53 71 -129 172 -169 225 -40 52 -94 124 -119
160 -26 36 -65 88 -88 117 -22 29 -56 73 -75 99 -19 25 -54 69 -77 97 l-43 51
0 4282 0 4282 53 20 c28 11 63 24 77 28 14 4 48 17 77 30 28 13 59 24 68 24 9
0 40 11 68 24 29 14 86 37 127 51 41 15 100 38 130 50 30 13 73 29 95 36 22 7
45 16 50 20 6 4 26 12 45 17 42 13 161 62 248 103 34 16 64 29 67 29 13 0 451
190 601 261 49 23 116 54 149 69 166 76 243 113 510 246 337 167 632 319 725
373 36 21 193 109 350 195 157 86 292 161 300 166 8 5 47 28 85 51 294 175
403 240 563 338 101 61 217 134 259 161 42 28 78 50 80 50 2 0 26 15 54 34 27
19 58 38 69 41 11 4 20 10 20 15 0 4 8 10 18 14 9 3 44 24 77 46 33 21 92 58
130 82 39 23 72 45 75 48 3 3 30 21 60 41 109 71 535 354 540 359 13 13 79 60
85 60 3 0 11 4 18 10 25 21 189 137 267 190 44 30 87 61 95 68 7 6 17 12 20
12 4 0 28 16 53 36 48 36 222 160 367 259 44 30 98 68 120 85 22 16 53 37 69
46 16 9 34 20 40 26 20 17 267 188 272 188 3 0 10 5 17 10 7 6 35 27 62 47 28
20 67 49 87 65 20 15 39 28 42 28 5 0 42 24 112 75 23 17 52 37 64 45 12 8 61
43 109 78 47 34 136 96 196 137 145 98 183 125 226 158 20 15 40 27 46 27 5 0
20 11 33 25 13 14 29 25 36 25 7 0 14 4 16 8 3 8 70 57 163 120 22 15 102 71
177 124 75 54 139 98 143 98 6 0 76 53 102 77 8 7 31 22 53 34 22 13 40 26 40
30 0 4 8 9 18 13 9 3 51 30 92 60 41 30 127 90 190 133 63 43 153 105 200 138
101 73 224 158 339 237 251 171 494 387 675 602 186 220 362 494 455 706 23
52 45 102 50 111 26 47 121 320 121 349 0 8 6 27 14 41 7 14 19 57 26 95 7 38
17 83 22 99 34 102 38 171 37 620 0 345 -3 466 -14 520 -8 39 -21 108 -30 154
-9 47 -25 104 -36 127 -10 24 -19 52 -19 63 0 63 -136 383 -250 588 -76 137
-319 488 -434 628 -235 285 -538 540 -856 722 -210 121 -558 260 -770 308 -41
9 -100 23 -130 30 -193 48 -546 73 -800 56 -644 -42 -1146 -229 -1748 -651
-125 -87 -448 -315 -518 -365 -31 -22 -64 -44 -73 -50 -9 -5 -77 -54 -152
-107 -76 -54 -140 -98 -143 -98 -3 0 -79 -53 -168 -117 -90 -64 -221 -156
-293 -205 -71 -49 -182 -125 -245 -169 -63 -44 -137 -95 -165 -114 -27 -18
-87 -60 -132 -92 -119 -85 -635 -445 -703 -491 -14 -9 -82 -57 -152 -107 -173
-122 -395 -277 -423 -295 -23 -15 -195 -135 -295 -205 -30 -21 -91 -64 -135
-95 -44 -31 -120 -85 -170 -121 -49 -35 -111 -77 -138 -94 -26 -16 -93 -63
-150 -103 -136 -98 -566 -382 -747 -495 -80 -50 -197 -123 -260 -162 -124 -78
-411 -244 -500 -291 -30 -15 -87 -47 -126 -71 -40 -23 -94 -53 -120 -66 -27
-13 -83 -42 -125 -64 -41 -23 -127 -67 -190 -98 -63 -31 -123 -61 -133 -67
-142 -78 -671 -323 -931 -431 -317 -131 -336 -139 -425 -177 -41 -17 -93 -38
-115 -45 -44 -15 -214 -78 -345 -130 -190 -74 -820 -277 -1110 -357 -19 -5
-107 -30 -195 -55 -221 -63 -539 -144 -602 -153 -29 -5 -74 -15 -100 -24 -26
-8 -73 -20 -103 -25 -30 -6 -131 -26 -225 -46 -250 -52 -469 -95 -565 -110
-47 -8 -182 -30 -300 -50 -118 -20 -249 -40 -290 -45 -41 -4 -167 -20 -280
-34 -258 -33 -453 -54 -600 -66 -63 -5 -164 -14 -225 -19 -60 -5 -209 -15
-330 -21 -121 -6 -285 -15 -365 -20 -194 -10 -1201 -4 -1465 9 -427 22 -691
42 -1105 87 -492 52 -1115 150 -1565 244 -49 10 -148 30 -220 45 -156 32 -366
83 -415 100 -19 6 -100 26 -180 44 -137 31 -285 69 -430 111 -36 11 -137 40
-225 66 -88 25 -302 93 -475 150 -330 109 -355 118 -485 166 -44 17 -89 32
-100 35 -11 3 -33 11 -50 18 -72 31 -213 85 -222 85 -11 0 -119 43 -303 120
-69 28 -172 71 -230 94 -106 44 -245 106 -445 200 -60 29 -126 58 -145 66 -49
19 -809 403 -856 432 -22 14 -102 60 -179 103 -269 149 -341 191 -518 300
-281 173 -398 247 -457 288 -30 20 -145 97 -255 170 -181 120 -343 232 -555
381 -41 29 -178 124 -305 211 -126 87 -275 191 -330 230 -55 39 -129 91 -165
115 -36 24 -83 58 -105 75 -22 18 -114 83 -205 144 -91 61 -248 170 -350 242
-102 71 -293 205 -425 296 -132 91 -271 190 -310 218 -38 29 -112 80 -162 114
-51 34 -155 105 -230 159 -76 53 -176 124 -223 156 -47 32 -153 106 -237 165
-84 58 -230 160 -325 225 -95 66 -204 143 -243 171 -182 134 -514 346 -654
419 -398 205 -790 316 -1221 346 -160 11 -269 11 -435 0z m20935 -19306 c0
-895 -2 -1030 -15 -1058 -19 -39 -2910 -2928 -3020 -3017 -85 -69 -221 -169
-230 -169 -3 0 -24 -11 -46 -26 -146 -92 -385 -186 -568 -223 -228 -46 -218
-46 -896 -46 -632 0 -654 1 -785 23 -144 24 -309 65 -350 86 -14 8 -43 19 -65
26 -121 38 -378 190 -530 313 -44 36 -749 735 -1567 1554 l-1488 1488 0 1038
0 1037 4780 0 4780 0 0 -1026z"/>
</g>
</svg>
