<?xml version="1.0" standalone="no"?>
<!DOCTYPE svg PUBLIC "-//W3C//DTD SVG 20010904//EN"
 "http://www.w3.org/TR/2001/REC-SVG-20010904/DTD/svg10.dtd">
<svg version="1.0" xmlns="http://www.w3.org/2000/svg"
 width="3840.000000pt" height="3840.000000pt" viewBox="0 0 3840.000000 3840.000000"
 preserveAspectRatio="xMidYMid meet">
<metadata>
Created by potrace 1.16, written by Peter Selinger 2001-2019
</metadata>
<g transform="translate(0.000000,3840.000000) scale(0.100000,-0.100000)"
fill="#000000" stroke="none">
<path d="M16297 38123 c-117 -108 -250 -233 -297 -278 -47 -44 -139 -130 -204
-190 -157 -145 -1026 -1020 -1197 -1205 -74 -80 -242 -262 -374 -405 -209
-225 -341 -373 -475 -531 -19 -23 -75 -88 -125 -145 -118 -136 -121 -140 -206
-239 -40 -47 -100 -116 -134 -155 -60 -68 -275 -334 -405 -499 -36 -46 -129
-162 -208 -260 -133 -164 -660 -862 -798 -1056 -219 -309 -586 -838 -654 -945
-131 -207 -203 -319 -300 -470 -132 -207 -240 -380 -328 -530 -212 -363 -396
-682 -445 -775 -30 -58 -119 -226 -197 -375 -179 -339 -385 -755 -459 -927
-11 -25 -34 -77 -51 -115 -17 -37 -37 -81 -45 -98 -7 -16 -22 -51 -34 -77 -12
-26 -21 -52 -21 -58 0 -5 -8 -24 -18 -42 -10 -18 -35 -76 -56 -128 -52 -131
-70 -177 -95 -235 -40 -97 -91 -232 -91 -243 0 -6 -9 -27 -20 -47 -11 -20 -20
-43 -20 -53 0 -9 -8 -33 -18 -52 -10 -19 -26 -62 -36 -95 -10 -33 -27 -82 -37
-109 -11 -27 -19 -54 -19 -60 0 -7 -9 -31 -20 -54 -11 -22 -20 -47 -20 -53 0
-7 -16 -62 -35 -123 -20 -61 -45 -142 -56 -181 -11 -38 -29 -97 -38 -130 -51
-167 -158 -599 -171 -690 -5 -27 -21 -122 -38 -210 -80 -433 -106 -724 -105
-1195 1 -409 20 -741 63 -1095 6 -44 19 -156 30 -250 11 -93 27 -206 35 -250
42 -237 58 -327 72 -395 8 -41 19 -101 24 -133 5 -33 11 -63 14 -67 3 -5 11
-39 19 -77 8 -37 19 -86 24 -108 6 -22 20 -83 32 -135 12 -52 30 -122 40 -155
18 -62 30 -108 56 -210 8 -33 19 -64 24 -69 6 -6 10 -19 10 -30 0 -21 33 -140
52 -186 6 -14 23 -65 39 -115 35 -113 71 -215 114 -335 7 -19 23 -62 35 -95
12 -33 30 -76 41 -96 10 -20 19 -42 19 -48 0 -6 9 -30 19 -54 11 -23 29 -69
41 -102 23 -64 34 -89 85 -200 18 -38 52 -115 75 -170 54 -123 309 -628 380
-750 28 -49 89 -156 135 -236 215 -375 545 -854 882 -1280 325 -410 898 -1011
1263 -1324 96 -82 188 -163 205 -178 54 -51 463 -370 593 -463 259 -185 413
-291 521 -359 61 -38 129 -81 150 -95 60 -38 285 -169 386 -224 11 -7 38 -23
60 -37 72 -47 605 -312 835 -416 287 -130 552 -234 860 -340 258 -89 589 -191
785 -241 44 -11 109 -27 145 -35 73 -17 208 -49 320 -77 41 -10 143 -30 225
-44 83 -15 200 -35 260 -46 98 -18 329 -51 560 -81 173 -22 576 -49 891 -61
255 -9 404 -9 660 0 309 11 725 40 894 61 306 39 414 55 620 91 255 44 378 69
510 100 47 11 112 27 145 35 192 44 237 55 300 73 39 11 149 43 246 70 325 92
876 289 1149 409 339 150 411 183 615 285 121 60 225 113 230 118 6 4 55 31
110 60 55 28 125 67 155 85 30 18 123 72 205 121 535 314 1096 723 1605 1169
386 339 941 916 1231 1280 422 530 689 920 996 1450 158 275 377 705 494 975
18 41 49 112 71 157 21 44 38 86 38 92 0 6 6 25 14 43 8 18 23 57 35 86 30 74
62 152 77 187 22 52 45 119 51 145 3 14 13 44 24 67 10 24 19 51 19 60 0 10 9
36 19 58 11 22 30 74 41 115 12 41 28 91 35 110 8 19 24 69 35 110 12 41 30
102 41 135 11 33 19 67 19 76 0 9 7 30 15 45 8 16 15 39 15 51 0 13 8 51 19
85 30 100 52 189 61 244 4 28 13 60 18 71 6 11 14 44 18 74 4 30 11 62 15 71
5 9 13 43 18 75 5 32 23 132 41 223 17 91 36 190 40 220 5 30 16 96 24 145 8
50 22 155 31 235 9 80 20 177 26 215 38 290 75 1024 64 1285 -17 411 -70 764
-185 1250 -22 91 -47 197 -56 235 -14 65 -25 102 -73 260 -43 142 -61 203 -76
255 -29 105 -58 195 -72 229 -8 19 -27 73 -43 120 -16 47 -41 118 -55 156 -15
39 -30 84 -35 100 -22 76 -77 215 -333 845 -30 74 -78 185 -107 245 -28 61
-59 126 -67 145 -9 19 -34 73 -55 120 -22 47 -46 99 -52 115 -7 17 -117 237
-244 490 -274 547 -562 1071 -817 1485 -29 47 -109 177 -177 290 -159 261
-535 830 -707 1068 -53 74 -109 152 -125 175 -256 361 -704 942 -946 1227
-606 712 -974 1106 -1488 1592 l-253 240 -32 -25 c-18 -13 -91 -80 -163 -148
-71 -68 -220 -207 -329 -309 -414 -386 -1339 -1340 -1648 -1700 -50 -58 -134
-154 -187 -215 -54 -60 -150 -171 -214 -245 -67 -77 -125 -135 -135 -135 -11
0 -61 58 -131 150 -190 251 -381 497 -425 550 -23 28 -117 145 -210 260 -188
234 -259 320 -420 510 -296 347 -420 491 -535 620 -336 377 -461 516 -525 585
-621 661 -940 988 -1465 1499 -190 185 -465 446 -610 581 -146 135 -304 282
-352 328 -47 45 -89 82 -93 82 -3 0 -101 -89 -218 -197z m367 -5018 c39 -44
98 -109 131 -145 100 -109 184 -206 340 -390 82 -96 199 -233 260 -305 61 -71
151 -179 200 -240 49 -60 125 -155 170 -209 89 -110 221 -278 395 -502 110
-142 637 -845 1517 -2024 482 -646 637 -853 673 -900 23 -29 448 -600 693
-927 37 -51 71 -93 75 -92 7 0 91 98 272 314 106 127 597 713 932 1111 365
434 542 645 709 844 81 96 173 207 206 245 32 39 140 166 238 284 232 276 326
388 361 429 32 37 58 36 70 -1 4 -12 41 -71 84 -132 69 -99 185 -273 282 -425
20 -30 64 -100 100 -155 159 -247 512 -848 666 -1135 22 -41 70 -131 107 -200
167 -310 512 -1039 632 -1335 190 -469 238 -593 320 -840 210 -627 261 -857
270 -1220 11 -437 -60 -1072 -177 -1580 -12 -49 -27 -117 -35 -150 -51 -219
-189 -642 -303 -925 -286 -713 -735 -1444 -1247 -2030 -284 -325 -677 -698
-979 -930 -54 -41 -133 -102 -176 -135 -144 -110 -440 -305 -660 -435 -162
-96 -646 -339 -775 -389 -55 -22 -139 -56 -185 -76 -101 -43 -537 -190 -700
-235 -559 -156 -1055 -231 -1705 -259 -300 -13 -766 6 -1065 45 -63 8 -146 19
-185 24 -120 15 -416 69 -495 89 -41 11 -118 30 -170 41 -108 24 -318 81 -430
116 -222 69 -370 123 -690 254 -255 104 -675 323 -953 497 -481 301 -824 570
-1227 959 -1246 1204 -2010 2813 -2156 4539 -30 362 -28 811 6 984 5 25 16 93
25 151 20 123 100 458 135 560 5 14 25 79 45 145 34 112 123 368 147 425 5 14
25 66 43 115 18 50 54 140 80 200 25 61 66 157 90 215 23 58 62 146 85 195 23
50 71 153 107 230 69 148 309 621 397 784 201 365 285 513 458 801 107 179
228 377 270 440 41 63 114 178 163 255 114 182 434 651 599 880 290 404 349
484 423 581 151 195 170 220 281 364 61 80 137 177 169 215 31 39 131 162 222
275 90 113 217 266 280 340 64 74 186 215 270 315 85 99 162 186 170 192 13
10 21 7 45 -20 16 -17 61 -68 100 -112z"/>
<path d="M1525 14844 c-187 -25 -230 -37 -378 -98 -278 -115 -543 -391 -640
-666 -23 -65 -69 -214 -174 -555 -18 -60 -42 -137 -53 -170 -32 -101 -158
-516 -177 -585 -25 -93 -26 -413 0 -518 57 -237 215 -504 381 -643 142 -120
270 -189 463 -250 71 -22 182 -58 248 -79 66 -21 201 -64 300 -95 99 -31 234
-74 300 -95 66 -21 201 -64 300 -95 99 -31 257 -80 350 -110 94 -30 251 -80
350 -111 99 -30 205 -64 235 -74 30 -10 123 -39 205 -65 83 -26 211 -67 285
-90 203 -65 497 -158 665 -210 143 -45 227 -72 535 -170 201 -64 466 -148 635
-200 83 -26 211 -67 285 -91 74 -24 223 -71 330 -104 107 -34 301 -95 430
-136 129 -41 287 -91 350 -111 63 -19 162 -51 220 -70 58 -18 206 -65 330
-104 124 -39 275 -87 335 -106 61 -19 137 -43 170 -52 33 -10 110 -34 170 -54
104 -35 190 -62 760 -242 132 -41 326 -103 430 -136 239 -77 365 -117 535
-170 314 -98 716 -224 825 -260 50 -17 135 -43 191 -59 56 -16 112 -34 125
-39 13 -5 132 -44 264 -85 270 -85 473 -150 650 -206 66 -21 188 -59 270 -85
83 -26 224 -71 315 -100 91 -29 237 -75 325 -103 88 -28 224 -71 302 -96 78
-26 148 -46 155 -46 22 0 118 -48 118 -60 0 -5 -15 -10 -32 -10 -18 -1 -51 -8
-73 -16 -79 -29 -564 -186 -865 -280 -47 -14 -152 -48 -235 -74 -82 -27 -204
-65 -270 -85 -66 -21 -174 -54 -240 -75 -66 -21 -201 -64 -300 -95 -99 -31
-234 -74 -300 -95 -66 -21 -199 -63 -295 -94 -96 -30 -283 -89 -415 -131 -132
-42 -316 -100 -410 -130 -93 -29 -251 -79 -350 -110 -99 -31 -205 -64 -235
-75 -30 -10 -109 -35 -175 -55 -66 -20 -145 -45 -175 -55 -30 -10 -143 -46
-250 -80 -352 -111 -514 -162 -585 -185 -38 -12 -124 -39 -190 -60 -66 -20
-165 -51 -220 -69 -55 -18 -131 -42 -170 -54 -38 -12 -178 -56 -310 -98 -132
-41 -289 -91 -350 -110 -60 -19 -164 -52 -230 -74 -66 -21 -230 -73 -365 -115
-135 -42 -294 -93 -355 -112 -161 -51 -327 -104 -530 -168 -99 -32 -234 -74
-300 -95 -66 -21 -194 -62 -285 -90 -91 -28 -219 -69 -285 -90 -66 -22 -201
-65 -300 -95 -99 -31 -234 -74 -300 -95 -296 -94 -487 -155 -710 -225 -423
-133 -719 -227 -760 -240 -43 -15 -311 -99 -600 -190 -99 -31 -198 -62 -220
-70 -22 -7 -150 -48 -285 -90 -135 -41 -287 -89 -337 -105 -371 -118 -632
-361 -772 -719 -61 -157 -81 -265 -81 -436 0 -182 21 -272 181 -775 22 -69 48
-154 59 -190 158 -514 197 -635 226 -692 72 -141 189 -297 282 -375 90 -75
242 -165 359 -212 243 -98 446 -113 695 -51 46 11 92 24 103 29 11 5 92 30
180 56 88 26 198 59 245 75 123 41 506 163 865 275 99 31 315 99 480 152 165
52 320 101 345 109 115 36 536 169 630 199 93 30 228 72 656 205 67 21 162 51
210 68 49 16 123 40 164 52 41 13 120 37 175 55 187 61 270 88 395 125 69 21
139 43 155 48 17 6 111 36 210 67 99 30 200 62 225 71 25 8 104 33 175 55 72
22 175 55 230 73 55 19 183 59 285 91 102 31 237 74 300 95 63 21 176 57 250
80 135 42 294 92 425 135 39 13 124 40 190 60 66 20 194 60 285 90 91 29 269
85 395 125 127 39 311 98 410 130 99 32 257 82 350 110 94 28 224 69 290 90
66 21 206 65 310 99 105 33 244 77 310 97 66 20 192 61 280 90 88 29 212 69
275 89 168 52 335 105 600 189 129 41 314 99 410 130 96 30 240 75 320 100
137 42 431 135 675 212 61 19 153 48 205 64 52 16 136 42 185 59 50 16 151 48
225 72 164 51 414 131 650 206 96 30 225 71 285 90 61 19 164 51 230 73 125
40 427 135 625 197 63 20 169 53 235 74 66 21 201 63 300 94 99 31 205 65 235
75 30 10 136 44 235 75 99 31 207 66 240 76 83 26 493 155 710 223 99 32 198
63 220 71 22 7 101 32 175 55 227 71 368 116 530 171 185 62 246 69 333 40 34
-11 123 -39 197 -62 74 -23 180 -56 235 -74 55 -18 177 -56 270 -85 94 -28
202 -62 240 -75 39 -13 151 -49 250 -80 99 -31 212 -67 250 -80 39 -12 124
-39 190 -60 66 -20 188 -59 270 -85 83 -27 211 -67 285 -90 74 -23 160 -50
190 -60 30 -10 136 -44 235 -75 99 -30 259 -80 355 -111 266 -84 512 -162 645
-205 66 -21 201 -63 300 -94 99 -31 234 -74 300 -95 66 -22 201 -64 300 -96
209 -65 317 -99 585 -184 107 -34 242 -77 300 -95 58 -18 161 -51 230 -73 69
-22 193 -61 275 -87 83 -26 287 -91 455 -145 168 -54 415 -133 550 -175 135
-42 306 -96 380 -120 74 -23 182 -57 240 -75 58 -18 159 -50 225 -71 216 -69
599 -190 645 -204 49 -14 490 -155 580 -185 30 -10 114 -36 185 -58 72 -23
229 -72 350 -110 121 -39 288 -91 370 -117 83 -25 249 -78 370 -117 121 -39
267 -85 325 -103 58 -18 215 -68 350 -110 384 -122 506 -160 635 -200 66 -21
188 -59 270 -86 152 -49 381 -121 710 -224 230 -72 526 -166 680 -215 66 -21
194 -62 285 -90 374 -119 510 -162 610 -195 58 -18 148 -46 200 -61 52 -15
109 -33 125 -40 17 -7 91 -32 165 -54 74 -23 232 -72 350 -110 118 -38 289
-92 380 -121 91 -28 275 -87 410 -130 135 -43 382 -121 550 -173 554 -174 785
-247 807 -256 52 -21 195 -51 290 -62 145 -15 325 7 430 53 24 11 47 19 53 19
5 0 49 17 98 38 248 107 491 354 594 604 34 83 43 112 237 740 78 251 141 464
141 473 0 9 7 29 15 45 28 55 56 229 57 355 2 266 -99 550 -274 772 -130 164
-329 299 -558 376 -96 32 -591 190 -880 281 -80 25 -251 79 -380 120 -129 41
-323 102 -430 136 -107 34 -242 76 -300 95 -58 18 -186 58 -285 89 -99 31
-259 82 -355 112 -349 111 -418 133 -595 189 -99 31 -205 65 -235 75 -30 10
-109 35 -175 55 -66 20 -145 44 -175 54 -30 10 -116 38 -190 61 -74 23 -151
48 -170 55 -19 8 -69 23 -110 35 -41 12 -120 37 -175 55 -55 18 -125 40 -155
49 -30 10 -102 32 -160 50 -58 19 -208 66 -335 106 -458 144 -503 158 -680
215 -99 32 -193 61 -210 65 -16 5 -57 18 -90 30 -33 11 -89 30 -125 40 -74 22
-263 81 -330 104 -25 8 -126 40 -225 71 -99 30 -200 63 -225 71 -25 9 -81 27
-125 40 -44 14 -120 38 -170 54 -158 50 -504 160 -685 217 -171 54 -244 77
-520 163 -74 24 -209 66 -300 95 -91 30 -232 74 -315 100 -240 75 -484 152
-785 249 -58 18 -163 52 -235 74 -71 23 -179 57 -239 77 -60 19 -115 35 -122
35 -6 0 -33 9 -60 19 -27 11 -116 40 -199 66 -82 26 -240 75 -350 110 -110 35
-281 89 -380 120 -212 67 -389 123 -535 170 -58 18 -130 41 -160 51 -30 9 -82
22 -115 29 l-60 11 41 22 c23 12 73 30 110 41 38 11 175 54 304 96 129 42 258
82 285 89 28 7 91 27 140 44 50 17 158 52 240 77 145 45 314 98 535 170 58 18
173 54 255 80 199 62 212 66 410 130 94 30 258 82 365 115 107 34 242 76 300
95 58 18 173 54 255 80 223 70 422 134 490 156 33 11 89 29 125 40 36 11 151
47 255 81 255 81 374 118 535 168 74 23 189 59 255 80 66 21 194 61 285 90
274 86 494 157 705 225 110 36 229 73 265 84 64 19 289 89 505 158 61 19 127
41 148 49 20 8 54 18 75 23 20 5 159 48 307 95 468 150 649 207 695 221 25 7
131 41 235 74 328 105 666 211 749 236 45 12 92 28 106 34 14 5 86 29 160 51
74 23 182 57 240 76 58 19 186 59 285 90 99 31 225 71 280 89 55 18 154 50
220 70 66 21 152 48 190 60 39 12 124 39 190 60 219 68 469 147 575 182 58 20
204 66 325 103 213 66 530 165 745 234 276 88 409 152 555 269 241 191 405
514 439 862 10 104 -10 265 -51 410 -34 117 -45 154 -132 435 -51 162 -117
376 -147 475 -136 439 -182 532 -358 714 -167 172 -372 288 -597 336 -245 53
-408 38 -729 -65 -52 -17 -151 -48 -220 -70 -69 -21 -233 -73 -365 -115 -132
-42 -343 -109 -470 -149 -126 -40 -340 -108 -475 -150 -135 -42 -342 -108
-460 -146 -218 -71 -515 -165 -895 -284 -115 -37 -280 -89 -365 -116 -170 -54
-283 -90 -555 -175 -99 -31 -234 -74 -300 -95 -66 -21 -201 -64 -300 -95 -99
-31 -283 -90 -410 -130 -480 -152 -824 -261 -1055 -332 -47 -14 -143 -45 -215
-68 -71 -24 -213 -68 -315 -100 -102 -32 -237 -74 -300 -95 -63 -21 -169 -54
-235 -75 -66 -20 -203 -63 -305 -96 -102 -32 -237 -75 -300 -94 -63 -20 -205
-64 -315 -100 -242 -77 -633 -201 -695 -220 -25 -8 -121 -39 -215 -68 -259
-83 -489 -155 -830 -262 -170 -53 -335 -105 -365 -115 -30 -10 -116 -37 -190
-60 -141 -43 -532 -168 -705 -225 -55 -18 -154 -49 -220 -70 -66 -20 -138 -42
-160 -50 -22 -7 -107 -34 -190 -60 -82 -25 -206 -65 -275 -87 -190 -61 -196
-63 -325 -103 -66 -21 -145 -46 -175 -55 -30 -10 -116 -37 -190 -60 -74 -23
-232 -72 -350 -110 -118 -38 -303 -96 -410 -130 -107 -34 -301 -95 -430 -136
-129 -41 -314 -100 -410 -130 -96 -31 -229 -73 -295 -94 -66 -21 -201 -63
-300 -94 -99 -31 -227 -72 -285 -91 -58 -18 -166 -52 -240 -75 -74 -23 -211
-67 -305 -96 -298 -95 -477 -152 -610 -194 -71 -22 -206 -65 -300 -95 -93 -30
-258 -81 -365 -115 -107 -33 -240 -75 -294 -92 -54 -18 -113 -31 -130 -31 -17
0 -71 14 -121 30 -49 17 -151 49 -225 73 -74 23 -151 49 -170 56 -19 8 -73 25
-120 38 -47 13 -132 40 -190 59 -58 19 -141 46 -185 60 -44 14 -172 54 -285
90 -113 36 -239 75 -280 87 -41 12 -88 27 -105 34 -16 7 -73 26 -125 41 -52
15 -142 42 -200 61 -199 65 -315 103 -450 144 -225 69 -261 81 -370 116 -58
19 -141 45 -185 58 -44 14 -100 31 -125 40 -40 13 -196 63 -510 161 -108 34
-464 147 -580 185 -97 31 -210 67 -355 111 -71 22 -150 46 -175 55 -69 24
-223 73 -345 109 -60 19 -128 40 -150 49 -22 8 -107 36 -190 61 -157 49 -457
143 -815 255 -69 21 -177 55 -240 75 -63 19 -135 42 -160 51 -25 9 -74 25
-110 35 -138 43 -548 171 -600 188 -30 10 -116 38 -190 61 -74 24 -193 62
-265 85 -71 23 -197 64 -280 90 -82 26 -235 74 -340 107 -104 33 -210 66 -235
73 -25 7 -153 47 -285 89 -407 130 -448 143 -515 164 -84 26 -406 129 -585
187 -77 25 -193 61 -258 80 -65 19 -157 47 -205 63 -48 16 -141 46 -207 66
-66 21 -174 55 -240 77 -66 22 -133 44 -150 49 -86 25 -427 134 -470 150 -27
10 -84 28 -125 39 -41 12 -131 40 -200 62 -69 22 -174 56 -235 75 -60 19 -137
43 -170 54 -33 10 -127 40 -210 65 -82 26 -188 60 -235 75 -47 16 -152 50
-235 75 -82 26 -220 69 -305 96 -85 27 -177 56 -205 64 -27 8 -104 33 -170 54
-66 22 -187 60 -270 86 -82 26 -184 58 -225 71 -41 14 -163 52 -270 85 -107
32 -298 93 -425 133 -126 41 -282 90 -345 110 -209 64 -594 187 -650 206 -30
11 -145 47 -255 80 -110 33 -218 66 -240 74 -22 8 -121 39 -220 70 -99 32
-234 74 -300 96 -106 34 -271 85 -405 125 -95 29 -304 50 -385 39z"/>
</g>
</svg>
