<?xml version="1.0" standalone="no"?>
<!DOCTYPE svg PUBLIC "-//W3C//DTD SVG 20010904//EN"
 "http://www.w3.org/TR/2001/REC-SVG-20010904/DTD/svg10.dtd">
<svg version="1.0" xmlns="http://www.w3.org/2000/svg"
 width="3840.000000pt" height="3840.000000pt" viewBox="0 0 3840.000000 3840.000000"
 preserveAspectRatio="xMidYMid meet">
<metadata>
Created by potrace 1.16, written by Peter Selinger 2001-2019
</metadata>
<g transform="translate(0.000000,3840.000000) scale(0.100000,-0.100000)"
fill="#000000" stroke="none">
<path d="M7305 38315 c-465 -32 -1059 -155 -1395 -289 -109 -43 -188 -73 -220
-82 -24 -6 -104 -42 -277 -125 -45 -21 -86 -39 -90 -39 -5 0 -55 -27 -113 -61
-58 -33 -127 -72 -155 -86 -27 -14 -126 -75 -220 -136 -684 -444 -1219 -999
-1645 -1707 -78 -130 -262 -493 -314 -620 -21 -52 -45 -110 -53 -128 -20 -45
-125 -360 -151 -452 -86 -304 -132 -533 -174 -861 l-22 -174 -3 -7177 -3
-7177 -683 -4 c-607 -3 -690 -5 -757 -21 -295 -69 -532 -218 -706 -444 -109
-140 -192 -325 -230 -512 -15 -74 -18 -168 -22 -710 -4 -663 3 -849 37 -982
34 -131 93 -269 150 -353 195 -284 447 -459 771 -537 80 -20 121 -21 763 -25
l677 -4 0 -3133 c0 -3043 1 -3140 20 -3382 11 -137 25 -276 30 -309 6 -33 15
-100 20 -148 6 -49 17 -123 25 -165 8 -42 26 -138 40 -212 14 -74 30 -151 35
-170 5 -19 21 -84 35 -145 31 -129 44 -175 86 -314 17 -57 37 -124 44 -150 29
-103 130 -376 213 -577 386 -928 989 -1789 1740 -2486 l102 -95 0 -1584 c0
-1723 -2 -1667 56 -1839 98 -294 320 -550 600 -692 60 -30 121 -58 136 -62 15
-3 40 -11 55 -18 15 -6 64 -20 108 -31 75 -19 125 -20 780 -24 615 -4 712 -2
800 12 55 9 116 19 135 22 19 3 44 11 55 18 11 7 36 16 55 20 47 10 193 83
266 133 168 115 302 262 393 433 64 120 96 213 121 353 19 102 20 157 20 798
0 425 4 696 10 707 8 16 16 17 52 10 147 -30 358 -60 598 -86 144 -16 853 -17
10005 -20 8914 -3 9870 -2 10060 12 237 18 470 46 625 75 58 11 119 20 137 20
l32 0 4 -743 c3 -713 4 -745 24 -828 76 -307 250 -558 513 -735 62 -42 194
-108 260 -129 30 -10 60 -20 65 -24 6 -3 46 -14 90 -25 74 -17 135 -19 780
-23 615 -4 712 -2 800 12 55 9 116 19 135 22 19 3 40 9 45 13 6 4 33 15 60 23
281 84 574 350 701 635 44 100 64 164 84 271 19 101 20 160 20 1686 l0 1582
83 78 c276 264 610 625 767 830 29 39 77 99 105 135 64 79 268 377 357 520
165 266 376 666 478 905 128 302 131 310 190 480 77 222 147 454 206 685 77
307 138 675 186 1125 10 94 13 827 15 3327 l3 3207 673 4 c634 4 677 5 762 24
142 33 346 113 375 148 7 8 17 15 23 15 16 0 188 143 238 198 78 87 137 166
179 244 44 81 96 217 110 283 4 22 14 67 21 100 11 48 14 210 13 785 0 700 -1
728 -21 820 -61 274 -199 509 -398 679 -164 139 -313 214 -535 268 -72 17
-665 18 -15698 20 l-15622 3 3 7068 2 7067 27 116 c45 196 94 328 175 472 236
418 648 707 1118 787 189 32 310 34 470 10 156 -24 376 -83 410 -109 5 -5 39
-21 75 -36 81 -35 211 -119 310 -198 107 -86 1000 -977 1007 -1005 3 -15 -4
-40 -20 -70 -51 -95 -186 -400 -220 -497 -19 -55 -56 -157 -80 -227 -25 -71
-52 -156 -61 -190 -8 -35 -27 -103 -41 -153 -31 -108 -108 -486 -124 -605 -54
-413 -68 -762 -47 -1105 15 -233 54 -567 81 -685 8 -36 24 -112 36 -170 53
-259 177 -667 268 -885 5 -11 19 -45 31 -75 51 -125 229 -492 268 -555 14 -22
57 -94 95 -160 100 -172 336 -506 478 -675 67 -80 199 -227 295 -327 98 -102
174 -189 174 -200 0 -10 -23 -45 -51 -78 -63 -75 -160 -272 -195 -397 -21 -76
-27 -122 -31 -249 -3 -88 -1 -191 5 -235 26 -195 125 -413 258 -572 45 -53
295 -309 555 -568 429 -426 483 -476 568 -528 111 -69 154 -88 281 -127 246
-77 504 -71 760 18 96 33 154 62 260 131 75 48 563 532 4111 4081 3246 3246
4036 4041 4076 4101 124 189 175 331 204 568 32 267 -56 592 -223 817 -58 79
-922 952 -1038 1050 -81 68 -110 86 -240 150 -93 46 -168 74 -275 101 -98 25
-393 26 -480 2 -33 -9 -82 -21 -108 -27 -79 -18 -306 -134 -372 -190 -33 -28
-67 -51 -75 -51 -8 0 -78 63 -155 141 -502 506 -1145 928 -1830 1202 -208 83
-616 214 -751 241 -111 23 -266 56 -304 66 -35 9 -166 28 -390 55 -421 51
-990 41 -1430 -26 -153 -23 -476 -91 -589 -123 -64 -18 -152 -43 -196 -55 -44
-12 -147 -47 -230 -78 -82 -31 -185 -69 -228 -85 -92 -34 -165 -67 -328 -148
-66 -33 -127 -60 -136 -60 -8 0 -236 220 -507 489 -270 269 -534 528 -586 576
-235 217 -575 467 -860 632 -164 95 -555 293 -579 293 -6 0 -55 20 -109 44
-110 50 -140 61 -307 111 -66 20 -145 45 -175 56 -53 18 -263 69 -420 102
-401 85 -942 122 -1355 92z m7550 -5375 c384 -32 712 -158 1032 -397 105 -78
332 -293 355 -336 9 -17 -68 -98 -599 -629 -557 -559 -798 -798 -1888 -1880
-204 -203 -376 -368 -382 -368 -23 0 -272 259 -347 360 -192 259 -306 515
-368 824 -30 151 -33 514 -5 676 76 443 273 827 587 1140 246 246 520 414 840
514 173 54 308 82 470 95 137 12 171 12 305 1z m17495 -20338 c0 -1969 -4
-3064 -10 -3168 -13 -197 -60 -501 -101 -659 -17 -66 -35 -139 -40 -163 -5
-23 -14 -52 -20 -64 -6 -11 -15 -33 -19 -47 -67 -213 -209 -516 -345 -736
-235 -380 -544 -722 -890 -981 -124 -94 -298 -214 -310 -214 -3 0 -32 -16 -63
-37 -146 -93 -479 -238 -762 -330 -202 -65 -485 -115 -790 -138 -292 -22
-19290 -22 -19595 0 -197 14 -445 50 -568 81 -34 9 -98 25 -142 36 -44 11
-118 34 -165 50 -47 16 -123 42 -170 58 -129 43 -401 178 -581 287 -609 371
-1089 907 -1391 1553 -188 403 -299 845 -328 1300 -6 107 -10 1230 -10 3173
l0 3007 13150 0 13150 0 0 -3008z"/>
</g>
</svg>
