<?xml version="1.0" standalone="no"?>
<!DOCTYPE svg PUBLIC "-//W3C//DTD SVG 20010904//EN"
 "http://www.w3.org/TR/2001/REC-SVG-20010904/DTD/svg10.dtd">
<svg version="1.0" xmlns="http://www.w3.org/2000/svg"
 width="3840.000000pt" height="3074.000000pt" viewBox="0 0 3840.000000 3074.000000"
 preserveAspectRatio="xMidYMid meet">
<metadata>
Created by potrace 1.16, written by Peter Selinger 2001-2019
</metadata>
<g transform="translate(0.000000,3074.000000) scale(0.100000,-0.100000)"
fill="#000000" stroke="none">
<path d="M19995 30673 c-456 -19 -590 -26 -770 -39 -386 -27 -1026 -96 -1260
-135 -73 -12 -297 -46 -385 -59 -109 -15 -596 -107 -750 -141 -80 -17 -165
-35 -190 -40 -53 -11 -461 -109 -605 -146 -130 -33 -359 -95 -475 -128 -155
-44 -588 -179 -655 -204 -44 -16 -125 -43 -180 -61 -55 -17 -154 -51 -220 -75
-66 -24 -187 -69 -270 -99 -613 -223 -1527 -634 -2120 -953 -71 -39 -179 -96
-240 -128 -60 -32 -127 -69 -148 -82 -22 -13 -105 -62 -185 -107 -552 -312
-1427 -893 -1879 -1248 -44 -35 -136 -105 -203 -157 -288 -220 -730 -594
-1065 -900 -394 -361 -1026 -1003 -1266 -1286 -19 -22 -53 -60 -75 -85 -49
-53 -224 -258 -274 -320 -19 -25 -49 -60 -66 -80 -111 -125 -259 -324 -291
-390 -67 -141 -79 -182 -93 -315 -16 -148 7 -331 55 -440 44 -100 58 -126 116
-215 57 -86 243 -260 277 -260 6 0 12 -4 14 -8 5 -12 147 -82 167 -82 10 0 21
-3 24 -6 9 -10 120 -54 133 -54 7 0 25 -7 40 -15 16 -8 36 -15 44 -15 8 0 24
-7 34 -15 11 -8 30 -15 42 -15 12 0 35 -6 51 -14 52 -27 101 -46 117 -46 8 0
30 -6 48 -14 46 -20 96 -39 223 -84 61 -22 319 -117 575 -210 256 -93 530
-193 610 -221 80 -29 168 -60 195 -71 129 -48 335 -123 480 -176 88 -31 237
-85 330 -119 94 -35 247 -90 340 -124 313 -113 340 -123 415 -151 41 -16 152
-56 245 -90 244 -87 330 -118 415 -150 41 -15 149 -55 240 -88 91 -33 260 -94
375 -137 116 -42 221 -81 235 -87 14 -5 56 -20 95 -33 38 -13 106 -37 150 -53
145 -53 308 -113 435 -159 69 -25 159 -58 200 -73 41 -16 134 -50 205 -75 72
-26 195 -71 275 -100 80 -29 159 -57 175 -63 52 -18 433 -157 760 -277 50 -19
212 -77 360 -130 149 -53 308 -111 355 -130 47 -18 105 -40 130 -48 60 -20
265 -94 315 -114 75 -29 110 -42 200 -73 50 -17 106 -38 125 -45 19 -8 98 -37
175 -64 77 -28 165 -59 195 -71 30 -12 105 -38 165 -59 115 -40 457 -166 560
-206 33 -13 94 -35 135 -48 72 -24 154 -54 361 -130 318 -118 520 -192 634
-232 72 -26 240 -87 375 -136 135 -50 281 -103 325 -119 117 -41 416 -150 680
-247 127 -46 286 -105 355 -129 69 -25 141 -51 160 -59 19 -7 73 -27 120 -43
332 -118 465 -171 468 -186 3 -14 -39 -137 -93 -276 -8 -19 -48 -129 -90 -245
-42 -115 -90 -244 -105 -285 -16 -41 -52 -138 -80 -215 -74 -202 -129 -351
-155 -420 -12 -33 -53 -143 -90 -245 -37 -102 -80 -219 -95 -260 -16 -41 -70
-187 -120 -325 -50 -137 -98 -266 -105 -285 -14 -35 -148 -398 -317 -860 -49
-135 -96 -261 -103 -280 -8 -19 -62 -165 -120 -325 -98 -266 -193 -525 -435
-1180 -48 -132 -129 -352 -180 -490 -50 -137 -100 -272 -111 -300 -18 -48
-171 -463 -326 -885 -41 -113 -85 -232 -98 -265 -22 -59 -84 -227 -285 -775
-55 -151 -109 -297 -120 -325 -10 -27 -51 -138 -90 -245 -39 -107 -77 -211
-85 -230 -8 -19 -48 -129 -90 -245 -42 -115 -83 -228 -92 -250 -30 -77 -42
-112 -103 -280 -57 -157 -102 -279 -135 -365 -8 -19 -48 -129 -90 -245 -42
-115 -83 -228 -92 -250 -8 -22 -21 -57 -29 -77 -8 -21 -20 -55 -28 -75 -8 -21
-36 -96 -61 -168 -45 -125 -74 -202 -114 -310 -11 -27 -54 -144 -96 -260 -42
-115 -83 -224 -91 -242 -8 -17 -14 -35 -14 -41 0 -5 -13 -43 -29 -83 -16 -41
-64 -168 -106 -284 -42 -115 -85 -232 -96 -260 -10 -27 -62 -167 -114 -310
-52 -143 -104 -282 -115 -310 -10 -27 -53 -142 -94 -255 -41 -113 -114 -311
-161 -440 -48 -129 -103 -278 -121 -330 -19 -52 -41 -111 -49 -130 -8 -19 -48
-129 -90 -245 -42 -115 -81 -221 -87 -235 -6 -14 -21 -52 -33 -85 l-21 -60
-7219 -5 c-6742 -5 -7224 -6 -7281 -22 -230 -64 -380 -158 -526 -331 -69 -81
-119 -168 -158 -276 -57 -154 -60 -200 -60 -797 0 -326 4 -574 11 -621 13 -97
63 -248 111 -333 117 -208 360 -395 603 -463 l80 -22 16385 -3 c15062 -2
16392 -1 16470 14 245 47 430 160 592 363 85 106 129 197 175 361 17 60 18
116 18 690 0 557 -2 633 -17 695 -78 319 -316 585 -616 690 -170 59 458 55
-7868 55 -5012 0 -7625 3 -7629 10 -5 8 54 185 86 255 4 11 18 47 29 80 12 33
27 76 35 95 8 19 48 130 91 245 42 116 89 244 105 285 15 41 69 188 119 325
50 138 98 266 105 285 8 19 49 130 91 245 41 116 89 244 104 285 16 41 70 188
120 325 50 138 97 266 105 285 15 37 213 575 247 670 35 98 159 434 173 470 8
19 49 130 91 245 69 191 112 309 149 405 8 19 41 112 75 205 63 175 77 212
104 280 8 22 97 263 196 535 186 508 196 537 224 605 8 22 88 238 176 480 167
456 301 822 326 888 8 20 21 55 29 77 8 22 21 57 29 78 8 20 56 150 106 287
50 138 97 266 105 285 7 19 42 112 76 205 34 94 74 204 90 245 30 81 164 444
359 975 67 182 159 431 205 555 46 124 102 275 123 335 22 61 95 259 162 440
228 618 426 1156 589 1600 51 138 105 284 121 325 72 188 230 630 230 644 0 9
6 19 14 22 11 4 191 -55 306 -101 19 -8 94 -35 165 -60 197 -70 456 -165 495
-180 19 -8 168 -62 330 -120 162 -59 322 -117 355 -130 69 -27 62 -24 380
-138 132 -47 251 -90 265 -96 23 -10 544 -199 670 -243 110 -39 465 -170 550
-203 31 -12 105 -39 380 -136 47 -17 119 -43 160 -58 76 -29 217 -80 455 -165
72 -26 164 -60 205 -75 41 -16 131 -49 200 -73 292 -106 389 -141 460 -167
105 -40 399 -146 500 -182 47 -17 119 -43 160 -59 41 -15 134 -49 205 -75 72
-25 146 -52 165 -60 19 -7 76 -28 125 -45 50 -18 124 -45 165 -60 93 -35 386
-141 500 -182 47 -16 119 -43 160 -59 41 -15 176 -65 300 -109 124 -45 261
-95 305 -111 44 -17 91 -34 105 -38 34 -11 496 -178 545 -198 22 -8 51 -20 65
-25 14 -5 56 -20 95 -33 38 -13 144 -52 235 -86 91 -33 183 -67 205 -74 22 -8
72 -26 110 -40 65 -25 269 -99 550 -200 66 -24 190 -69 275 -100 272 -99 451
-165 590 -215 74 -27 245 -90 380 -139 135 -49 322 -117 415 -151 94 -34 278
-101 410 -150 132 -48 305 -111 385 -140 80 -28 228 -82 330 -120 102 -37 257
-94 345 -125 88 -32 237 -86 330 -120 333 -122 371 -135 455 -157 110 -29 328
-31 430 -4 36 10 85 23 110 30 25 6 61 20 80 31 19 10 56 29 82 41 172 82 370
312 429 499 49 155 51 168 56 515 6 354 -8 881 -33 1240 -34 515 -46 644 -83
975 -46 399 -122 902 -187 1245 -25 129 -50 260 -55 290 -13 69 -63 294 -94
425 -13 55 -38 161 -55 235 -47 202 -212 803 -270 985 -28 88 -69 216 -90 285
-45 148 -42 137 -137 405 -41 116 -88 248 -105 295 -16 47 -90 236 -163 420
-505 1272 -1167 2503 -1943 3615 -174 249 -549 755 -672 906 -285 351 -416
506 -613 729 -454 512 -984 1042 -1487 1490 -255 227 -672 576 -870 728 -184
142 -556 419 -640 477 -47 32 -124 87 -172 121 -119 86 -483 326 -703 464
-171 108 -277 171 -620 370 -202 117 -769 419 -925 493 -69 32 -195 93 -280
134 -85 41 -195 93 -245 115 -49 22 -110 49 -135 60 -25 11 -166 72 -315 135
-148 63 -279 118 -290 123 -11 5 -42 16 -70 26 -27 10 -54 21 -60 25 -5 4 -26
12 -45 17 -43 13 -81 27 -245 93 -107 42 -269 100 -640 227 -41 14 -386 123
-510 161 -55 17 -106 31 -112 31 -6 0 -54 13 -105 29 -156 48 -271 80 -420
117 -79 19 -165 41 -193 49 -101 27 -436 105 -581 134 -82 16 -252 50 -379 75
-197 39 -493 90 -735 126 -36 5 -110 16 -165 24 -222 34 -858 98 -1203 121
-506 35 -1339 54 -1697 38z m-67 -2898 c-2 -6 -34 -35 -73 -66 -235 -190 -747
-670 -1012 -949 -357 -377 -768 -857 -1073 -1255 -169 -221 -268 -351 -303
-401 -19 -28 -84 -118 -143 -200 -59 -82 -148 -210 -199 -284 -50 -74 -131
-193 -180 -265 -284 -419 -706 -1114 -1020 -1682 -97 -178 -183 -323 -190
-323 -6 0 -216 75 -466 166 -250 91 -485 177 -524 191 -148 52 -874 316 -945
343 -125 47 -382 141 -425 155 -22 7 -77 27 -123 44 -208 77 -251 93 -317 115
-38 13 -81 29 -95 34 -14 6 -101 38 -195 72 -93 34 -215 79 -270 100 -55 21
-111 41 -125 44 -14 4 -41 13 -60 21 -19 8 -111 41 -205 75 -259 94 -763 278
-1082 396 -109 40 -183 73 -183 80 0 7 10 19 22 25 12 6 60 44 107 84 235 197
338 278 596 472 380 284 819 586 1040 713 17 9 75 46 130 82 84 55 411 245
590 343 28 15 55 31 60 35 6 4 78 42 160 85 83 43 213 110 290 150 77 40 228
114 335 163 107 49 233 108 280 130 152 71 640 273 815 336 72 26 141 51 154
57 133 55 870 298 1046 345 188 50 270 72 380 103 126 36 629 152 785 182 58
10 155 29 215 40 61 11 153 29 205 40 339 68 1177 165 1676 194 148 8 278 17
289 19 28 4 37 2 33 -9z m4937 -825 c223 -21 439 -75 608 -154 43 -20 80 -36
83 -36 14 0 215 -128 299 -190 202 -150 456 -432 628 -696 424 -654 721 -1565
872 -2679 14 -104 30 -235 35 -290 5 -55 16 -174 25 -265 23 -252 45 -763 45
-1082 0 -946 -92 -1972 -270 -3013 -45 -259 -61 -345 -66 -345 -2 0 -43 16
-92 34 -103 41 -316 119 -497 182 -112 39 -228 82 -545 199 -90 33 -349 128
-635 231 -132 48 -269 98 -305 111 -36 13 -101 37 -145 52 -44 16 -141 51
-215 79 -74 27 -175 64 -225 82 -49 17 -112 40 -140 51 -125 47 -450 166 -545
199 -36 12 -175 62 -310 112 -135 49 -281 102 -325 118 -44 15 -172 62 -285
103 -323 119 -495 182 -635 232 -71 26 -202 73 -290 105 -88 32 -200 72 -250
90 -79 28 -137 50 -290 107 -22 8 -55 21 -73 29 -18 8 -38 14 -44 14 -6 0 -45
13 -87 29 -165 63 -411 154 -491 181 -30 10 -165 58 -275 98 -45 17 -110 41
-145 55 -36 14 -92 35 -125 46 -33 11 -98 34 -145 52 -78 28 -171 62 -340 124
-36 13 -121 44 -190 68 -69 25 -224 82 -345 126 -121 45 -269 99 -330 120 -60
21 -150 54 -200 74 -49 19 -100 38 -112 41 -41 13 -47 32 -20 68 13 18 84 137
158 263 180 311 445 735 658 1050 179 266 502 718 595 835 29 36 108 137 176
225 68 88 140 178 159 200 20 23 104 122 187 220 169 202 585 656 690 754 38
35 132 126 209 201 590 574 1252 1062 1860 1370 300 152 492 230 755 307 30 9
66 20 80 24 61 21 299 65 420 79 186 20 301 23 445 10z m5540 -2946 c99 -86
261 -234 360 -329 99 -95 196 -186 215 -202 19 -17 155 -156 301 -309 476
-498 889 -987 1268 -1499 205 -277 520 -737 646 -945 45 -74 131 -216 192
-315 485 -798 981 -1878 1309 -2850 185 -546 406 -1380 494 -1860 16 -88 41
-221 55 -295 13 -74 25 -141 25 -149 0 -16 14 -20 -225 69 -104 39 -246 91
-315 115 -69 24 -224 81 -345 125 -121 45 -269 99 -330 120 -60 21 -240 86
-400 145 -329 120 -1373 501 -1510 550 -49 18 -137 51 -195 73 -58 21 -130 47
-160 57 -30 10 -163 58 -295 107 -132 49 -314 115 -405 148 -91 32 -235 84
-320 116 -149 55 -255 93 -425 154 -44 15 -118 42 -165 59 -47 18 -112 41
-145 53 -33 11 -73 26 -90 34 -16 7 -46 17 -65 22 -24 6 -36 15 -38 29 -3 19
42 261 123 669 13 67 45 249 69 405 25 156 57 354 71 439 40 249 111 831 140
1155 90 986 102 1963 35 2855 -34 448 -93 923 -165 1329 -14 79 -25 157 -25
173 0 29 0 29 68 -31 37 -33 148 -131 247 -217z"/>
</g>
</svg>
