<?xml version="1.0" standalone="no"?>
<!DOCTYPE svg PUBLIC "-//W3C//DTD SVG 20010904//EN"
 "http://www.w3.org/TR/2001/REC-SVG-20010904/DTD/svg10.dtd">
<svg version="1.0" xmlns="http://www.w3.org/2000/svg"
 width="3840.000000pt" height="3074.000000pt" viewBox="0 0 3840.000000 3074.000000"
 preserveAspectRatio="xMidYMid meet">
<metadata>
Created by potrace 1.16, written by Peter Selinger 2001-2019
</metadata>
<g transform="translate(0.000000,3074.000000) scale(0.100000,-0.100000)"
fill="#000000" stroke="none">
<path d="M854 26839 c-74 -12 -190 -52 -265 -89 -277 -140 -460 -389 -514
-699 -13 -73 -15 -1408 -15 -10672 0 -7490 3 -10610 11 -10666 23 -171 96
-336 208 -471 149 -179 325 -285 558 -336 61 -14 162 -16 658 -16 625 0 639 1
790 52 265 88 500 323 591 591 55 162 54 118 54 1711 l0 1471 16267 0 16268 0
5 -1515 c6 -1493 6 -1516 26 -1585 49 -166 95 -255 196 -377 139 -170 329
-283 555 -332 107 -24 1209 -24 1316 0 167 36 285 91 409 190 184 147 290 319
350 564 19 81 19 11931 0 12155 -54 617 -156 1123 -334 1650 -113 336 -216
581 -377 895 -316 618 -699 1153 -1183 1651 -495 510 -1122 970 -1763 1292
-148 74 -214 105 -419 196 -142 64 -566 214 -716 255 -30 8 -104 29 -165 45
-112 31 -146 39 -360 85 -374 79 -717 119 -1155 136 -329 13 -13533 13 -13675
0 -120 -11 -197 -28 -287 -64 -299 -121 -516 -382 -583 -704 -13 -65 -15 -715
-15 -5868 l0 -5794 -7167 -2 c-3943 -2 -7174 -1 -7181 1 -9 2 -12 1549 -12
7691 0 6808 -2 7697 -15 7774 -60 342 -304 633 -625 743 -140 48 -110 46 -765
49 -341 1 -643 -2 -671 -7z m31256 -6711 c598 -92 1054 -250 1499 -521 118
-73 460 -317 509 -364 10 -10 67 -64 128 -119 296 -275 596 -665 781 -1014 56
-105 164 -347 206 -461 80 -215 159 -523 192 -744 45 -306 45 -274 45 -3377
l0 -2938 -7645 -2 c-4205 -2 -7650 -2 -7655 0 -7 3 -10 1606 -10 4783 l0 4779
5923 -3 c5378 -3 5932 -4 6027 -19z"/>
<path d="M9980 23023 c-1141 -27 -2284 -444 -3150 -1150 -223 -182 -260 -215
-436 -391 -253 -253 -423 -457 -641 -767 -204 -292 -436 -739 -575 -1110 -65
-176 -171 -521 -191 -630 -4 -16 -13 -61 -22 -100 -78 -351 -115 -709 -115
-1110 0 -409 36 -758 115 -1115 9 -41 21 -93 25 -115 35 -167 157 -542 250
-770 70 -171 194 -428 271 -560 29 -49 57 -99 63 -110 6 -11 35 -58 64 -105
30 -47 59 -94 65 -105 7 -11 14 -22 17 -25 14 -14 50 -70 50 -79 0 -5 4 -11 8
-13 5 -2 41 -49 81 -104 40 -56 80 -110 89 -120 10 -11 39 -47 65 -81 26 -34
53 -68 60 -75 7 -7 46 -51 86 -98 163 -188 389 -407 592 -575 117 -97 286
-225 297 -225 6 0 12 -4 14 -9 4 -11 195 -141 208 -141 6 0 10 -4 10 -10 0 -5
11 -12 25 -16 14 -3 25 -10 25 -15 0 -5 5 -9 12 -9 6 0 21 -8 32 -19 12 -10
51 -34 88 -54 37 -19 79 -44 95 -54 38 -27 275 -146 398 -201 729 -323 1494
-478 2260 -459 489 13 864 69 1365 206 123 33 465 155 485 173 5 4 15 8 23 8
7 0 39 12 70 26 31 14 89 40 127 57 155 70 374 185 535 284 141 86 136 83 204
128 159 107 367 261 456 340 26 22 75 65 111 94 159 136 487 482 640 676 486
619 828 1324 998 2061 108 466 148 852 138 1309 -11 493 -65 859 -194 1320
-185 663 -514 1305 -947 1850 -221 278 -520 581 -794 804 -759 619 -1673 1014
-2642 1141 -242 31 -569 49 -810 43z m380 -2883 c170 -23 224 -33 335 -61 939
-240 1634 -1011 1781 -1979 27 -173 24 -531 -5 -703 -87 -521 -306 -950 -676
-1322 -303 -305 -673 -519 -1083 -625 -213 -55 -362 -73 -602 -73 -318 0 -539
38 -824 143 -741 273 -1303 895 -1495 1656 -55 219 -66 314 -65 594 0 217 3
273 21 376 75 413 219 745 467 1073 103 135 313 343 455 450 366 274 733 417
1216 474 64 8 413 6 475 -3z"/>
</g>
</svg>
