<?xml version="1.0" standalone="no"?>
<!DOCTYPE svg PUBLIC "-//W3C//DTD SVG 20010904//EN"
 "http://www.w3.org/TR/2001/REC-SVG-20010904/DTD/svg10.dtd">
<svg version="1.0" xmlns="http://www.w3.org/2000/svg"
 width="3840.000000pt" height="3074.000000pt" viewBox="0 0 3840.000000 3074.000000"
 preserveAspectRatio="xMidYMid meet">
<metadata>
Created by potrace 1.16, written by Peter Selinger 2001-2019
</metadata>
<g transform="translate(0.000000,3074.000000) scale(0.100000,-0.100000)"
fill="#000000" stroke="none">
<path d="M36774 30670 c-180 -17 -395 -80 -557 -161 -103 -53 -187 -112 -472
-334 -154 -121 -301 -235 -326 -254 -141 -110 -323 -252 -385 -300 -197 -155
-331 -260 -449 -352 -71 -55 -155 -120 -185 -145 -53 -42 -145 -114 -621 -483
-123 -96 -259 -202 -301 -235 -42 -34 -110 -87 -150 -118 -40 -32 -129 -102
-198 -156 -69 -54 -185 -145 -259 -202 -151 -118 -561 -438 -721 -563 -57 -45
-116 -91 -131 -102 -15 -11 -107 -83 -204 -160 -98 -77 -201 -158 -230 -180
-29 -22 -90 -69 -135 -105 -45 -36 -97 -76 -115 -90 -33 -25 -432 -337 -624
-488 -58 -46 -131 -102 -161 -125 -30 -23 -98 -76 -150 -118 -52 -41 -120 -94
-150 -117 -30 -22 -94 -72 -141 -109 -48 -37 -144 -113 -215 -168 -71 -54
-131 -102 -134 -105 -3 -3 -61 -49 -130 -102 -148 -114 -312 -242 -430 -336
-47 -37 -101 -79 -120 -94 -58 -45 -190 -147 -331 -258 -73 -58 -151 -118
-173 -135 -57 -44 -91 -70 -211 -165 -59 -47 -121 -95 -138 -108 -18 -12 -47
-35 -66 -50 -153 -121 -194 -153 -244 -192 -32 -25 -84 -65 -116 -90 -32 -25
-94 -73 -138 -107 -45 -34 -87 -68 -94 -75 -8 -8 -30 -25 -49 -38 -19 -13 -37
-27 -40 -30 -3 -3 -45 -37 -95 -75 -49 -38 -95 -74 -101 -79 -7 -6 -44 -36
-84 -66 -40 -30 -89 -69 -109 -86 -20 -17 -90 -72 -156 -122 -66 -51 -172
-133 -235 -182 -124 -97 -235 -183 -401 -313 -59 -45 -173 -134 -255 -199
-358 -280 -546 -427 -799 -624 -148 -115 -387 -302 -530 -414 -143 -112 -305
-239 -360 -281 -55 -43 -161 -125 -235 -184 -74 -58 -168 -132 -208 -163 -127
-98 -185 -143 -343 -267 -84 -66 -182 -143 -218 -170 -36 -28 -129 -100 -206
-161 -179 -140 -529 -414 -620 -484 -38 -29 -101 -79 -140 -109 -195 -156
-309 -240 -317 -235 -5 3 -63 74 -129 157 -432 543 -619 778 -729 916 -69 86
-228 286 -355 446 -126 159 -331 416 -455 571 -124 155 -325 408 -448 563
-123 154 -254 309 -292 344 -243 225 -621 251 -905 63 -62 -42 -147 -130 -250
-261 -44 -55 -158 -199 -254 -320 -96 -121 -227 -285 -290 -365 -63 -80 -183
-230 -266 -335 -83 -104 -223 -280 -310 -390 -87 -110 -227 -285 -310 -390
-486 -612 -593 -746 -710 -894 -72 -90 -240 -301 -374 -470 -271 -341 -414
-521 -674 -848 -96 -121 -180 -223 -185 -227 -4 -3 -204 -14 -443 -26 -239
-11 -445 -22 -459 -25 -14 -3 -95 -9 -180 -15 -85 -6 -245 -20 -355 -31 -110
-11 -247 -24 -305 -30 -58 -5 -177 -19 -265 -30 -88 -11 -200 -24 -250 -29
-49 -6 -162 -21 -250 -35 -88 -13 -196 -29 -240 -35 -86 -12 -294 -47 -470
-80 -60 -11 -144 -25 -185 -31 -41 -5 -124 -21 -185 -34 -126 -27 -395 -83
-440 -91 -27 -5 -228 -53 -605 -145 -69 -17 -186 -48 -260 -69 -74 -21 -171
-48 -215 -60 -228 -63 -360 -104 -575 -178 -80 -28 -194 -66 -255 -85 -103
-33 -357 -129 -647 -246 -70 -28 -129 -51 -132 -51 -26 0 -743 -335 -856 -400
-8 -5 -35 -18 -60 -30 -25 -12 -58 -30 -75 -40 -16 -10 -55 -32 -85 -48 -129
-68 -196 -105 -211 -118 -8 -8 -19 -14 -23 -14 -5 0 -27 -12 -50 -27 -22 -16
-58 -37 -78 -48 -21 -11 -38 -23 -38 -27 0 -5 -6 -8 -13 -8 -7 0 -36 -16 -66
-35 -29 -19 -55 -35 -57 -35 -3 0 -14 -8 -25 -18 -10 -11 -32 -25 -47 -33 -15
-8 -29 -16 -32 -19 -13 -13 -70 -50 -77 -50 -5 0 -24 -13 -43 -30 -19 -16 -40
-29 -47 -30 -6 0 -13 -3 -15 -7 -5 -11 -66 -53 -77 -53 -5 0 -11 -4 -13 -8 -1
-5 -34 -31 -73 -58 -124 -86 -408 -311 -526 -416 -234 -209 -509 -508 -735
-798 -72 -92 -351 -481 -405 -565 -292 -450 -483 -774 -714 -1210 -117 -222
-435 -857 -435 -870 0 -2 -20 -46 -45 -99 -25 -53 -45 -98 -45 -100 0 -2 -18
-43 -40 -90 -200 -429 -539 -1253 -755 -1836 -47 -129 -98 -264 -112 -300 -14
-36 -29 -76 -33 -90 -7 -22 -36 -105 -142 -400 -144 -406 -429 -1268 -558
-1695 -32 -104 -76 -248 -98 -320 -23 -71 -49 -161 -60 -200 -11 -38 -68 -236
-127 -440 -59 -203 -111 -383 -115 -400 -4 -16 -31 -111 -60 -210 -52 -180
-71 -247 -95 -340 -12 -46 -24 -91 -103 -390 -16 -60 -44 -164 -62 -230 -18
-66 -42 -160 -55 -210 -13 -49 -34 -130 -48 -180 -14 -49 -27 -101 -30 -115
-7 -35 -54 -224 -72 -290 -8 -30 -49 -194 -90 -365 -42 -170 -82 -332 -89
-360 -8 -27 -22 -86 -31 -130 -9 -44 -21 -93 -25 -110 -5 -16 -32 -131 -60
-255 -28 -124 -65 -281 -81 -350 -16 -69 -34 -143 -39 -165 -5 -22 -25 -112
-44 -200 -19 -88 -55 -252 -80 -365 -97 -441 -277 -1317 -280 -1360 l-1 -25
130 -7 c1205 -65 3449 -69 4865 -8 135 5 376 15 535 20 254 9 491 22 1305 70
233 14 802 56 1025 76 94 8 244 21 335 29 91 8 210 19 265 25 55 6 188 19 295
31 107 11 251 26 320 34 69 8 170 19 225 25 172 18 507 59 580 71 78 12 203
30 375 53 63 9 169 25 235 35 66 11 221 36 345 55 124 20 250 40 280 46 167
30 224 40 310 55 52 9 185 35 295 57 110 22 232 46 270 53 39 7 111 22 160 33
50 12 182 42 295 68 212 48 583 140 705 174 309 88 411 118 560 165 94 29 181
56 195 60 51 14 291 99 500 177 439 164 876 365 1234 569 28 16 58 34 66 39 8
5 39 23 69 40 77 45 319 211 420 288 430 328 958 836 1387 1337 357 417 750
955 1032 1411 44 71 114 185 157 254 85 136 133 219 307 530 111 198 424 807
483 940 16 36 53 117 83 180 91 193 101 216 229 515 270 629 532 1337 737
1990 26 83 60 191 76 240 16 50 77 259 135 465 83 292 111 378 127 390 11 7
73 38 137 68 64 29 170 80 236 112 66 32 163 78 215 103 52 25 162 77 243 116
82 39 150 71 152 71 3 0 101 47 220 105 119 58 218 105 220 105 2 0 86 40 187
89 101 48 210 101 243 116 33 15 130 61 215 102 85 41 187 90 225 108 39 18
136 65 217 104 81 39 149 71 151 71 2 0 91 42 198 94 205 99 521 249 679 323
52 24 154 73 226 108 72 36 134 65 137 65 4 0 93 42 199 94 313 152 415 201
713 340 260 122 338 170 416 253 127 137 208 360 195 541 -8 110 -31 201 -72
287 -37 77 -57 104 -289 392 -89 109 -327 405 -530 658 -203 253 -428 532
-498 620 -159 196 -431 536 -811 1010 -159 198 -304 377 -323 398 -55 62 -69
43 194 249 450 352 575 450 681 533 63 50 133 104 156 120 23 17 87 66 142
111 54 44 140 111 190 150 93 71 481 373 590 460 34 27 84 66 110 86 27 21
105 82 174 136 69 54 157 122 195 152 39 30 153 119 255 199 102 80 219 171
260 203 126 98 281 219 391 305 206 162 586 458 669 522 47 36 87 68 90 72 3
3 26 21 51 40 42 31 224 172 576 449 67 52 174 136 238 185 64 50 131 102 148
116 18 14 147 115 287 224 140 109 296 231 345 270 87 69 193 152 314 245 32
25 127 99 211 165 84 66 165 129 179 140 14 10 79 62 144 115 65 52 139 110
164 128 58 41 147 115 151 125 2 4 8 7 14 7 6 0 27 15 48 33 20 17 47 39 60
47 13 8 39 29 59 45 20 17 40 33 46 37 5 4 38 30 72 57 34 28 79 63 101 78 21
15 122 93 223 172 349 275 414 325 590 460 46 36 118 92 160 125 87 70 100 80
229 181 84 66 236 184 415 323 33 25 114 89 181 142 180 142 334 262 365 285
15 11 59 45 97 75 81 64 596 467 751 587 177 138 290 226 336 263 24 19 86 67
137 107 51 40 123 96 160 125 37 29 113 89 170 132 57 44 126 98 153 121 28
22 66 52 85 65 19 13 51 37 71 54 41 35 45 38 159 126 47 35 87 67 90 70 3 3
23 19 45 35 42 31 136 106 145 115 3 3 21 17 40 30 19 13 37 27 40 30 3 3 46
37 95 75 50 38 92 72 95 75 3 3 21 17 40 30 19 13 40 29 46 35 13 11 120 96
554 434 69 53 190 148 270 211 234 184 394 309 525 410 249 193 282 219 355
282 312 267 493 670 493 1093 0 267 -61 505 -190 743 -172 316 -486 551 -871
652 -146 38 -348 54 -498 40z m-17464 -12384 c19 -10 49 -29 67 -42 23 -18
1819 -2246 1973 -2449 14 -18 180 -227 370 -464 190 -237 358 -456 374 -487
54 -107 46 -282 -18 -383 -46 -72 -76 -88 -521 -296 -121 -57 -312 -147 -425
-200 -113 -54 -279 -132 -370 -175 -91 -43 -262 -124 -380 -180 -218 -104
-490 -231 -545 -255 -23 -10 -34 -11 -45 -2 -19 15 -2369 2953 -2375 2970 -3
6 32 57 77 113 46 55 155 190 243 299 88 109 239 296 335 415 96 120 254 315
350 435 416 516 522 645 551 666 64 45 118 59 214 56 62 -2 101 -9 125 -21z
m-4877 -3179 c12 -13 43 -51 69 -83 26 -32 174 -218 330 -413 156 -194 303
-379 328 -411 25 -32 674 -843 1443 -1803 768 -960 1397 -1750 1397 -1756 0
-6 -56 -174 -124 -373 -206 -602 -478 -1311 -630 -1640 -19 -40 -46 -102 -61
-138 -50 -121 -228 -494 -343 -720 -454 -891 -980 -1688 -1492 -2260 -290
-323 -690 -697 -915 -857 -191 -134 -521 -301 -835 -421 -58 -22 -152 -58
-210 -80 -58 -22 -124 -45 -146 -51 -23 -6 -90 -27 -150 -47 -121 -40 -123
-41 -384 -113 -305 -84 -399 -109 -535 -141 -71 -16 -186 -43 -255 -59 -175
-42 -732 -154 -940 -190 -96 -17 -238 -41 -315 -55 -77 -13 -187 -31 -245 -40
-58 -9 -225 -34 -372 -56 -147 -22 -415 -58 -595 -80 -181 -22 -384 -47 -453
-56 -1111 -136 -3100 -273 -4480 -309 -113 -3 -364 -10 -558 -16 -250 -8 -357
-8 -364 -1 -8 8 -6 24 5 54 9 24 25 77 36 118 44 171 196 719 251 910 122 420
173 596 180 625 4 17 31 111 60 210 29 99 56 194 60 210 4 17 29 102 54 190
69 234 177 626 259 934 23 85 44 142 57 156 12 13 65 56 117 96 53 41 164 128
247 194 83 66 210 165 281 220 72 54 155 119 186 144 31 26 102 82 159 126 57
44 161 125 231 180 70 55 182 143 249 195 67 52 171 133 230 180 60 47 164
128 231 180 67 52 136 107 153 121 17 14 114 90 216 169 102 80 226 176 275
215 50 38 108 84 129 100 124 95 156 142 163 240 12 150 -94 308 -247 366 -61
23 -161 25 -263 5 -40 -8 -112 -22 -162 -31 -159 -30 -297 -55 -425 -80 -69
-13 -163 -31 -210 -39 -88 -15 -318 -58 -550 -101 -147 -27 -180 -30 -180 -15
0 5 11 33 24 62 29 63 72 168 171 413 67 165 203 485 261 612 13 29 52 119 88
200 35 82 100 225 143 318 44 94 104 222 133 285 55 118 307 618 388 770 119
224 330 581 455 770 253 385 466 644 688 836 185 159 625 459 864 589 39 21
104 57 145 80 108 61 452 227 610 295 74 32 165 72 202 88 37 17 82 35 100 41
18 5 110 39 203 75 201 78 489 177 705 241 85 25 191 57 235 70 44 13 98 29
120 34 22 5 94 23 160 41 209 55 288 75 495 120 52 11 113 25 135 31 67 16
492 99 558 108 34 5 127 21 207 34 156 26 189 31 525 77 392 52 660 80 1120
114 272 20 282 20 308 -7z"/>
</g>
</svg>
