<?xml version="1.0" standalone="no"?>
<!DOCTYPE svg PUBLIC "-//W3C//DTD SVG 20010904//EN"
 "http://www.w3.org/TR/2001/REC-SVG-20010904/DTD/svg10.dtd">
<svg version="1.0" xmlns="http://www.w3.org/2000/svg"
 width="3840.000000pt" height="3840.000000pt" viewBox="0 0 3840.000000 3840.000000"
 preserveAspectRatio="xMidYMid meet">
<metadata>
Created by potrace 1.16, written by Peter Selinger 2001-2019
</metadata>
<g transform="translate(0.000000,3840.000000) scale(0.100000,-0.100000)"
fill="#000000" stroke="none">
<path d="M28620 38295 c-241 -35 -470 -150 -659 -330 -47 -44 -1186 -1181
-2533 -2528 -2284 -2284 -2451 -2453 -2496 -2530 -85 -146 -122 -251 -147
-417 -25 -166 -15 -305 40 -550 15 -63 30 -135 35 -160 11 -59 112 -542 145
-695 47 -216 66 -309 80 -385 8 -41 23 -118 35 -170 22 -100 29 -131 109 -515
27 -132 60 -285 71 -340 12 -55 42 -197 67 -315 24 -118 49 -233 53 -255 23
-102 102 -485 110 -530 5 -27 23 -111 40 -185 17 -74 35 -157 40 -185 11 -57
75 -369 114 -550 14 -66 26 -131 26 -145 0 -20 -658 -683 -3253 -3280 -2094
-2095 -3273 -3282 -3309 -3330 -118 -161 -201 -320 -262 -505 -132 -398 -124
-877 21 -1255 96 -252 209 -427 392 -611 118 -117 167 -157 310 -251 182 -120
411 -206 656 -249 286 -50 632 -19 906 81 46 18 93 34 104 38 42 12 251 129
311 174 17 13 58 43 90 67 33 24 1526 1510 3319 3302 2078 2077 3267 3259
3279 3259 11 0 45 -6 75 -14 100 -26 245 -56 270 -56 14 0 59 -9 100 -19 107
-28 234 -55 511 -111 58 -12 146 -30 195 -40 50 -11 137 -28 195 -40 58 -12
132 -28 165 -35 33 -8 103 -23 155 -34 52 -11 149 -32 215 -46 66 -14 149 -32
185 -40 36 -7 106 -21 155 -30 97 -18 221 -44 355 -75 47 -11 141 -31 210 -45
69 -13 166 -33 215 -44 200 -44 399 -85 480 -101 33 -6 98 -20 145 -30 47 -10
128 -28 180 -39 52 -11 138 -29 190 -40 52 -11 129 -27 170 -35 163 -33 279
-58 357 -77 101 -24 352 -27 465 -5 202 39 403 136 572 277 87 72 4763 4739
4914 4904 224 244 335 540 319 848 -7 140 -53 341 -108 472 -124 298 -424 551
-754 636 -44 11 -102 27 -130 34 -27 8 -102 26 -165 40 -63 15 -171 40 -240
56 -69 17 -143 34 -165 39 -22 4 -105 24 -185 44 -284 72 -391 97 -450 107
-25 4 -72 14 -105 23 -33 9 -85 23 -115 31 -30 8 -95 24 -145 36 -199 46 -263
61 -330 78 -38 10 -113 28 -165 41 -52 12 -120 28 -150 35 -30 8 -98 23 -150
35 -155 35 -282 65 -595 142 -162 41 -271 66 -585 139 -96 22 -206 49 -245 59
-142 38 -195 50 -216 50 -11 0 -53 9 -92 19 -100 27 -206 54 -387 96 -85 20
-189 45 -230 56 -41 10 -114 28 -162 40 l-86 22 -22 91 c-11 50 -46 195 -76
321 -31 127 -71 293 -89 370 -18 77 -51 214 -73 305 -41 168 -79 329 -152 640
-23 96 -55 229 -72 295 -17 66 -34 138 -38 160 -4 22 -14 67 -23 100 -8 33
-22 89 -31 125 -38 167 -99 420 -111 465 -7 28 -23 95 -35 150 -13 55 -40 170
-61 255 -20 85 -54 225 -74 310 -20 85 -54 227 -75 315 -21 88 -55 228 -75
310 -19 83 -60 251 -89 375 -30 124 -72 302 -95 396 -57 239 -106 353 -217
499 -146 195 -336 333 -539 393 -280 83 -392 96 -585 67z"/>
<path d="M17345 37119 c-803 -37 -1502 -104 -2130 -204 -284 -45 -357 -57
-425 -70 -41 -8 -158 -31 -260 -51 -197 -37 -323 -65 -540 -118 -74 -18 -169
-40 -210 -49 -123 -27 -321 -75 -390 -95 -36 -11 -110 -32 -165 -47 -55 -15
-154 -43 -220 -62 -66 -19 -160 -46 -210 -59 -49 -13 -256 -80 -460 -149 -203
-69 -394 -132 -424 -140 -30 -9 -117 -42 -195 -74 -77 -32 -152 -62 -166 -66
-14 -4 -101 -38 -195 -75 -93 -37 -210 -83 -260 -103 -49 -19 -175 -74 -280
-122 -104 -48 -290 -131 -412 -185 -122 -54 -260 -119 -305 -143 -46 -25 -204
-107 -353 -182 -285 -145 -410 -213 -512 -276 -34 -22 -65 -39 -69 -39 -3 0
-63 -33 -132 -74 -70 -40 -187 -108 -260 -150 -73 -42 -182 -109 -242 -149
-59 -40 -151 -99 -204 -132 -263 -163 -506 -326 -624 -417 -34 -27 -93 -69
-130 -94 -213 -142 -324 -225 -752 -564 -80 -64 -161 -127 -180 -140 -19 -14
-58 -45 -86 -70 -70 -63 -306 -268 -492 -427 -86 -75 -258 -233 -381 -352
-123 -119 -246 -236 -274 -261 -109 -99 -693 -718 -862 -915 -99 -115 -218
-252 -265 -304 -80 -89 -205 -243 -342 -422 -166 -215 -224 -289 -262 -334
-23 -27 -63 -79 -88 -115 -93 -134 -268 -382 -300 -424 -74 -101 -148 -207
-228 -333 -47 -73 -158 -246 -246 -385 -143 -224 -340 -556 -487 -823 -28 -49
-58 -101 -67 -115 -15 -22 -204 -390 -379 -737 -34 -66 -90 -186 -125 -265
-35 -78 -110 -244 -166 -368 -56 -124 -122 -277 -147 -340 -24 -63 -73 -187
-108 -275 -147 -373 -177 -450 -245 -650 -39 -115 -84 -250 -101 -300 -16 -49
-47 -144 -69 -209 -23 -66 -70 -224 -106 -350 -36 -127 -73 -260 -84 -296 -10
-36 -32 -113 -49 -171 -33 -112 -129 -517 -187 -784 -8 -38 -21 -95 -29 -125
-63 -252 -185 -972 -245 -1445 -110 -869 -155 -1745 -138 -2680 6 -332 39
-1024 53 -1095 3 -14 9 -83 15 -155 61 -749 212 -1695 380 -2390 16 -66 47
-201 70 -300 23 -99 55 -227 72 -285 17 -58 34 -118 38 -135 67 -263 173 -614
298 -985 154 -458 141 -422 286 -792 148 -379 210 -527 339 -813 79 -176 159
-354 177 -395 18 -41 36 -79 40 -85 4 -5 94 -181 200 -390 106 -209 196 -384
200 -390 9 -12 305 -527 362 -630 36 -63 103 -170 243 -387 27 -43 84 -131
125 -195 122 -191 229 -349 336 -498 56 -77 156 -216 223 -310 67 -93 142
-195 167 -225 25 -30 85 -108 134 -172 50 -64 95 -122 102 -130 7 -7 33 -40
57 -73 95 -130 147 -191 381 -455 36 -41 74 -85 85 -99 22 -30 263 -305 325
-371 232 -249 518 -542 679 -696 108 -103 255 -244 326 -313 72 -69 209 -193
305 -276 96 -82 247 -213 335 -290 87 -77 192 -165 232 -195 126 -96 404 -313
477 -373 39 -31 81 -65 94 -75 12 -9 28 -22 35 -27 6 -6 57 -41 111 -79 149
-102 161 -110 164 -118 2 -5 8 -8 14 -8 5 0 43 -26 85 -58 41 -31 103 -76 137
-99 33 -23 66 -46 71 -50 27 -23 144 -103 150 -103 6 0 127 -79 135 -89 3 -4
49 -33 103 -66 175 -107 275 -170 299 -187 46 -35 125 -86 163 -107 22 -12 54
-30 71 -40 17 -11 60 -35 95 -54 35 -19 88 -48 117 -66 29 -17 56 -31 59 -31
4 0 14 -6 22 -14 9 -7 48 -30 86 -51 63 -34 90 -50 160 -93 11 -7 36 -20 55
-30 19 -9 37 -19 40 -22 8 -8 33 -21 386 -200 186 -95 344 -176 349 -181 11
-8 343 -159 350 -159 3 0 45 -19 93 -41 288 -137 461 -211 782 -334 124 -47
263 -102 310 -121 47 -20 126 -49 175 -66 50 -17 135 -46 190 -65 540 -186
685 -232 855 -273 41 -11 95 -26 120 -35 25 -9 97 -30 160 -46 63 -17 150 -41
193 -55 130 -40 441 -116 712 -174 55 -11 134 -29 175 -40 41 -10 113 -25 160
-34 47 -8 180 -33 295 -55 204 -39 443 -79 595 -100 481 -69 758 -101 1110
-131 1146 -96 2097 -93 3290 11 448 38 1112 131 1610 225 102 19 235 44 295
55 61 11 137 27 170 35 535 123 633 147 895 218 168 45 232 64 390 110 69 21
157 46 195 56 80 21 239 72 405 129 373 128 584 203 655 231 44 18 132 52 195
75 243 90 701 282 870 365 36 18 87 41 115 52 143 55 996 485 1220 615 66 39
140 81 165 95 50 29 197 113 340 196 92 53 414 257 705 446 137 88 213 141
425 292 58 41 159 113 225 160 66 47 150 109 186 137 103 82 358 280 388 302
15 11 43 32 62 47 19 15 70 55 114 89 44 35 82 65 85 68 3 3 39 35 80 71 41
36 88 77 105 92 16 14 51 43 76 65 77 64 381 329 429 373 254 235 630 604 841
825 63 66 162 171 221 233 97 101 302 335 581 660 95 111 192 229 232 283 11
15 90 116 175 224 168 214 244 313 303 396 396 557 417 587 565 820 40 63 125
195 189 294 96 150 223 361 320 535 11 19 52 91 91 159 40 68 72 125 72 127 0
2 14 27 32 56 39 67 211 400 368 713 105 210 369 785 430 937 12 29 30 73 41
98 10 25 44 110 74 190 31 80 80 206 110 280 29 74 64 165 79 202 33 87 296
876 329 988 13 47 41 146 62 220 21 74 55 196 76 270 57 197 65 228 109 410
22 91 47 190 55 220 8 30 19 78 24 105 6 28 22 104 36 170 151 696 282 1554
335 2200 58 704 65 880 65 1625 0 704 -15 1116 -55 1520 -5 52 -14 154 -20
225 -15 177 -85 742 -111 895 -11 69 -24 150 -29 180 -18 119 -81 477 -90 510
-5 19 -26 114 -45 210 -40 194 -74 344 -106 465 -11 44 -29 112 -39 150 -10
39 -35 135 -56 215 -20 80 -55 201 -76 270 -21 69 -47 154 -58 190 -11 36 -20
71 -20 77 0 20 -31 93 -40 93 -4 0 -122 -120 -261 -267 -140 -147 -355 -374
-479 -503 -124 -130 -306 -321 -405 -425 -466 -492 -636 -644 -942 -842 -64
-41 -72 -46 -223 -127 -185 -100 -438 -201 -635 -255 l-100 -27 1 -44 c0 -25
15 -133 32 -240 53 -319 60 -366 82 -570 11 -107 25 -231 30 -275 10 -85 21
-226 45 -575 49 -728 13 -1827 -85 -2590 -17 -129 -35 -269 -40 -311 -8 -70
-52 -329 -85 -509 -8 -41 -22 -120 -31 -175 -13 -84 -72 -354 -129 -590 -8
-33 -24 -103 -36 -155 -12 -52 -27 -113 -34 -135 -7 -22 -23 -78 -35 -125 -12
-47 -30 -112 -40 -145 -10 -33 -35 -118 -55 -190 -21 -71 -48 -164 -61 -205
-39 -128 -219 -650 -259 -750 -20 -52 -75 -192 -121 -310 -47 -118 -94 -235
-106 -260 -11 -25 -51 -112 -88 -195 -146 -326 -203 -450 -210 -460 -4 -5 -70
-134 -147 -285 -178 -350 -425 -782 -613 -1075 -56 -88 -129 -203 -162 -255
-89 -142 -454 -652 -608 -850 -74 -95 -169 -216 -210 -269 -41 -53 -104 -131
-140 -172 -36 -41 -132 -154 -215 -249 -211 -245 -379 -425 -680 -725 -303
-304 -459 -449 -759 -709 -228 -197 -322 -274 -666 -542 -93 -73 -297 -225
-350 -260 -25 -17 -97 -68 -160 -114 -63 -46 -185 -128 -270 -183 -85 -55
-191 -123 -235 -152 -44 -28 -105 -68 -135 -87 -157 -101 -592 -352 -825 -476
-337 -179 -855 -426 -1140 -542 -82 -34 -186 -76 -230 -95 -139 -58 -355 -142
-490 -190 -191 -68 -750 -248 -900 -289 -71 -20 -200 -56 -286 -80 -85 -24
-236 -63 -335 -85 -98 -22 -237 -54 -309 -70 -71 -16 -220 -46 -330 -65 -110
-20 -234 -42 -275 -50 -241 -46 -803 -122 -1040 -141 -474 -38 -620 -47 -925
-56 -377 -12 -1007 -5 -1325 16 -348 23 -611 44 -670 54 -30 6 -170 24 -310
41 -381 46 -464 59 -760 115 -41 8 -118 22 -170 30 -52 9 -178 36 -280 60
-102 24 -257 60 -345 80 -88 19 -196 45 -240 56 -78 20 -104 28 -285 83 -47
14 -150 43 -230 65 -184 51 -768 250 -965 329 -82 33 -237 94 -343 136 -106
43 -275 116 -375 163 -100 47 -218 100 -262 118 -109 45 -693 342 -835 425
-226 132 -376 218 -410 235 -19 10 -134 81 -255 158 -121 78 -269 172 -329
210 -60 38 -125 81 -145 96 -20 16 -155 113 -301 216 -343 243 -689 517 -1040
821 -384 332 -939 878 -1271 1250 -317 354 -696 824 -931 1154 -73 102 -166
232 -208 290 -42 58 -136 200 -210 315 -73 116 -154 242 -180 280 -39 59 -103
167 -190 320 -9 17 -63 111 -120 209 -97 169 -292 540 -400 761 -57 115 -278
607 -321 710 -244 597 -417 1098 -580 1675 -76 272 -82 294 -135 525 -87 380
-115 512 -143 675 -17 96 -35 198 -40 225 -18 86 -52 297 -61 375 -5 41 -23
181 -40 310 -80 623 -121 1473 -101 2133 14 478 50 964 97 1337 59 471 47 386
124 825 52 292 85 453 130 640 5 22 28 121 51 220 23 99 75 297 116 440 41
143 85 298 98 345 42 153 260 780 348 1000 47 118 101 256 121 305 19 50 63
151 96 225 34 74 97 215 141 313 73 163 174 366 347 697 168 322 428 757 720
1205 239 367 729 1017 1002 1330 53 61 138 159 190 219 303 351 933 982 1260
1261 58 50 159 137 224 195 131 116 181 156 335 275 56 44 131 103 165 130
128 103 294 228 316 238 8 4 58 38 110 77 186 135 418 293 605 412 105 66 226
144 271 173 44 29 100 63 125 75 49 25 248 139 409 235 58 35 269 145 470 246
359 181 417 209 562 270 40 17 109 48 153 69 346 163 1339 528 1660 610 17 4
66 18 110 30 44 13 100 28 125 35 25 7 100 29 167 49 67 20 130 36 139 36 9 0
82 16 163 36 416 101 609 142 866 183 28 5 113 20 190 34 77 15 181 31 230 37
84 9 311 39 470 60 82 12 424 42 745 66 178 14 364 17 890 18 595 1 697 -1
970 -21 168 -13 346 -27 395 -33 50 -5 173 -19 275 -30 208 -24 763 -106 826
-122 55 -15 71 -7 83 44 6 24 34 113 62 198 131 396 326 746 603 1080 92 111
294 313 651 651 266 252 558 530 1043 994 l83 80 -21 17 c-12 10 -30 18 -41
18 -16 0 -51 10 -229 64 -25 7 -81 23 -125 36 -75 21 -106 29 -279 80 -38 11
-76 20 -84 20 -9 0 -38 7 -66 14 -91 26 -180 49 -221 57 -22 4 -94 21 -160 37
-66 17 -160 38 -210 47 -49 9 -139 27 -200 40 -287 61 -747 139 -975 165 -52
6 -158 20 -235 30 -183 25 -291 37 -450 50 -71 6 -206 17 -300 25 -564 47
-1528 68 -2060 44z"/>
<path d="M17645 29950 c-265 -8 -591 -31 -790 -55 -66 -8 -199 -24 -295 -35
-162 -19 -267 -35 -490 -76 -152 -27 -294 -54 -335 -64 -22 -5 -130 -30 -240
-56 -189 -43 -262 -62 -565 -148 -316 -89 -916 -306 -1185 -428 -49 -22 -148
-66 -220 -96 -174 -75 -647 -315 -875 -446 -328 -186 -751 -463 -1100 -719
-249 -183 -715 -575 -955 -805 -491 -470 -985 -1034 -1311 -1497 -39 -55 -102
-144 -140 -198 -39 -53 -138 -204 -220 -335 -573 -902 -989 -1838 -1283 -2887
-115 -409 -238 -1005 -286 -1385 -8 -69 -24 -192 -35 -275 -47 -366 -64 -698
-64 -1260 1 -491 3 -554 28 -850 15 -176 31 -349 36 -385 4 -36 17 -138 29
-227 11 -88 29 -212 40 -275 50 -286 72 -407 85 -463 72 -327 112 -498 141
-595 18 -63 48 -169 65 -235 33 -123 205 -644 255 -770 151 -384 167 -422 318
-755 347 -766 946 -1707 1506 -2365 340 -399 787 -858 1091 -1120 91 -78 201
-173 245 -211 44 -39 118 -99 165 -134 47 -36 134 -105 195 -154 60 -48 143
-111 185 -139 41 -28 136 -94 210 -147 74 -54 198 -137 275 -185 77 -49 166
-105 197 -127 201 -136 924 -520 1203 -640 72 -30 171 -74 220 -96 144 -65
517 -211 675 -264 236 -78 480 -156 560 -177 41 -12 129 -36 195 -55 66 -18
161 -43 210 -55 208 -48 446 -101 530 -116 50 -9 135 -25 190 -35 251 -47 639
-98 895 -119 346 -28 415 -33 602 -41 240 -10 794 -4 993 10 342 24 536 40
606 50 40 6 166 22 279 35 113 14 279 39 370 55 91 17 219 40 285 51 303 54
1137 279 1420 384 39 15 97 35 130 46 33 12 110 40 170 64 216 85 243 95 249
95 3 0 128 54 278 121 292 129 713 339 918 459 69 40 159 92 200 115 65 36
223 134 340 210 19 12 69 44 110 71 41 26 152 102 245 167 94 66 184 130 201
142 73 50 518 403 600 475 28 25 100 88 160 140 197 171 542 509 769 756 135
145 385 434 448 517 23 30 94 122 158 203 193 247 359 484 591 846 119 185
357 607 480 853 235 467 395 843 555 1305 166 481 264 835 389 1409 27 125
100 584 128 808 75 592 105 1368 72 1888 -33 516 -77 862 -168 1325 -17 85
-34 175 -38 200 -9 48 -117 478 -149 595 -53 190 -77 257 -94 266 -15 9 -152
36 -347 69 -36 6 -103 17 -150 25 -47 8 -139 24 -205 35 -230 39 -350 61 -420
76 -130 29 -103 47 -435 -296 -163 -168 -540 -559 -839 -870 -299 -311 -597
-619 -661 -685 -65 -66 -122 -130 -129 -142 -15 -29 -2 -246 35 -613 53 -511
29 -1112 -67 -1685 -33 -203 -49 -288 -64 -345 -8 -30 -31 -121 -50 -202 -224
-926 -642 -1805 -1236 -2594 -869 -1155 -2080 -2028 -3444 -2482 -391 -131
-651 -196 -1050 -266 -442 -77 -735 -101 -1230 -100 -524 0 -795 23 -1285 109
-245 44 -482 101 -830 202 -108 31 -403 133 -437 152 -10 5 -45 19 -78 31
-351 128 -822 369 -1240 634 -647 409 -1293 1000 -1791 1636 -321 410 -679
997 -854 1400 -18 41 -50 112 -71 158 -22 46 -39 86 -39 89 0 3 -25 69 -56
147 -117 292 -206 577 -295 941 -46 187 -43 176 -87 430 -79 455 -105 768
-105 1235 0 347 14 595 49 860 8 63 19 147 24 185 8 59 37 229 69 405 12 60
86 367 111 455 11 39 29 102 40 140 33 121 157 474 218 625 317 780 714 1421
1287 2082 122 140 485 503 620 618 61 52 142 121 181 155 258 220 650 493 999
695 152 88 465 248 572 294 32 13 96 42 143 63 207 95 683 270 795 293 22 4
87 22 145 39 194 60 687 166 860 186 30 4 100 13 155 20 377 52 1014 68 1300
32 141 -18 166 -22 465 -78 91 -17 187 -33 214 -36 l48 -6 994 994 c546 546
998 1006 1005 1021 9 21 9 39 0 73 -11 44 -44 224 -61 335 -4 30 -24 141 -43
245 -19 105 -37 206 -41 225 -15 98 -66 384 -68 386 -6 4 -95 32 -173 53 -44
12 -107 30 -140 40 -33 10 -100 28 -150 40 -49 13 -121 31 -160 41 -38 10
-106 26 -150 35 -44 9 -118 24 -165 35 -82 18 -213 43 -390 74 -47 8 -155 24
-240 36 -85 11 -189 25 -230 30 -377 51 -979 76 -1475 60z"/>
</g>
</svg>
