<?xml version="1.0" standalone="no"?>
<!DOCTYPE svg PUBLIC "-//W3C//DTD SVG 20010904//EN"
 "http://www.w3.org/TR/2001/REC-SVG-20010904/DTD/svg10.dtd">
<svg version="1.0" xmlns="http://www.w3.org/2000/svg"
 width="3840.000000pt" height="4387.000000pt" viewBox="0 0 3840.000000 4387.000000"
 preserveAspectRatio="xMidYMid meet">
<metadata>
Created by potrace 1.16, written by Peter Selinger 2001-2019
</metadata>
<g transform="translate(0.000000,4387.000000) scale(0.100000,-0.100000)"
fill="#000000" stroke="none">
<path d="M10780 43834 c-204 -23 -366 -64 -565 -144 -85 -34 -260 -123 -286
-146 -8 -8 -19 -14 -22 -14 -4 0 -53 -33 -110 -72 -65 -47 -158 -129 -257
-228 -99 -99 -181 -192 -227 -257 -40 -57 -73 -106 -73 -110 0 -3 -6 -14 -14
-22 -21 -24 -117 -216 -153 -306 -71 -178 -114 -347 -133 -525 -6 -49 -10
-837 -10 -1867 l0 -1783 -1890 0 c-1218 0 -1926 -4 -1992 -10 -414 -42 -720
-100 -1093 -208 -90 -27 -305 -100 -327 -112 -10 -6 -23 -10 -30 -10 -7 -1
-31 -9 -53 -20 -22 -11 -44 -19 -48 -20 -5 0 -23 -6 -40 -14 -18 -8 -63 -28
-100 -45 -38 -17 -70 -31 -72 -31 -21 0 -442 -217 -540 -279 -33 -21 -107 -67
-165 -104 -190 -119 -427 -294 -625 -462 -122 -104 -468 -447 -573 -570 -48
-55 -89 -102 -92 -105 -37 -35 -265 -343 -365 -495 -166 -250 -340 -573 -450
-830 -7 -16 -24 -56 -39 -88 -14 -32 -26 -60 -26 -64 0 -3 -20 -59 -45 -123
-44 -117 -83 -229 -105 -305 -6 -22 -18 -62 -26 -90 -14 -47 -33 -122 -70
-275 -45 -189 -94 -480 -116 -690 -19 -180 -19 -28291 -1 -28420 7 -47 15
-112 18 -145 3 -33 10 -85 15 -115 9 -50 28 -165 51 -295 4 -27 13 -66 18 -85
5 -19 22 -87 36 -150 15 -63 31 -123 36 -132 5 -10 9 -24 9 -32 0 -40 158
-492 225 -641 12 -27 28 -66 36 -85 31 -76 229 -461 288 -560 35 -58 119 -188
187 -290 141 -209 216 -308 398 -524 80 -95 482 -496 576 -575 41 -35 86 -73
100 -85 14 -12 72 -58 130 -101 58 -44 107 -82 110 -85 15 -16 193 -138 320
-217 210 -131 303 -184 505 -283 538 -266 1082 -434 1665 -514 63 -8 151 -21
195 -28 63 -10 3039 -13 14190 -14 12126 -2 14128 -1 14235 12 656 74 1125
197 1690 441 113 49 415 203 535 273 129 75 471 298 498 324 7 7 55 44 107 83
52 39 104 80 115 90 11 10 56 48 100 83 128 104 534 513 645 650 25 30 53 64
64 75 10 11 50 63 89 115 39 52 73 97 77 100 27 22 217 313 332 510 70 119
258 485 258 502 0 3 15 39 34 80 68 147 210 543 231 648 4 19 11 41 16 50 4 8
15 49 25 90 9 41 23 102 31 135 43 178 88 450 115 690 11 99 13 2592 13 14205
0 14783 2 14183 -40 14435 -7 44 -19 118 -25 165 -7 47 -16 96 -20 110 -5 14
-12 45 -15 70 -4 25 -11 59 -15 75 -5 17 -21 82 -35 145 -15 63 -30 126 -35
140 -5 14 -18 59 -30 100 -33 111 -84 263 -124 365 -20 49 -36 93 -36 97 0 4
-12 33 -26 65 -15 32 -32 72 -39 88 -193 454 -489 932 -833 1345 -125 150
-484 513 -642 649 -138 120 -367 295 -505 388 -92 61 -318 203 -345 216 -8 4
-35 19 -60 33 -104 59 -272 145 -370 189 -58 26 -132 59 -165 74 -33 16 -77
34 -98 41 -22 7 -51 18 -65 26 -15 8 -35 14 -44 14 -9 0 -20 5 -23 10 -3 6
-13 10 -22 10 -8 0 -29 6 -46 14 -33 15 -302 103 -340 110 -12 3 -74 19 -137
36 -263 70 -527 115 -878 150 -66 6 -774 10 -1992 10 l-1889 0 -3 1843 -3
1842 -27 125 c-95 438 -295 796 -619 1105 -297 284 -644 461 -1066 542 -69 14
-143 17 -343 17 -236 -1 -264 -3 -380 -27 -567 -120 -1050 -456 -1363 -950
-100 -157 -208 -417 -256 -618 -52 -215 -51 -182 -51 -2096 l0 -1783 -6160 0
-6160 0 0 1783 c0 1916 1 1887 -51 2097 -92 373 -266 690 -531 966 -309 320
-695 529 -1130 610 -80 15 -466 28 -548 18z m23477 -27471 l-2 -11048 -23
-100 c-13 -55 -27 -109 -31 -120 -5 -11 -17 -42 -26 -70 -109 -312 -371 -602
-675 -747 -132 -63 -252 -100 -405 -123 -135 -21 -27655 -21 -27790 0 -214 33
-408 107 -580 223 -89 59 -276 245 -340 337 -52 75 -131 228 -160 310 -9 28
-21 59 -26 70 -4 11 -18 67 -31 125 l-23 105 -3 11043 -2 11042 15060 0 15060
0 -3 -11047z"/>
<path d="M9380 21919 c-100 -17 -171 -34 -205 -48 -11 -5 -42 -17 -70 -26 -80
-28 -241 -116 -318 -174 -225 -168 -397 -408 -472 -656 -14 -49 -30 -101 -35
-115 -5 -14 -16 -71 -25 -126 -13 -90 -15 -560 -15 -4314 0 -4525 -2 -4291 47
-4470 68 -250 197 -467 378 -638 203 -192 422 -302 704 -352 114 -20 141 -20
4350 -20 4156 0 4238 0 4352 20 561 94 974 492 1106 1065 17 77 18 242 18
4395 l0 4315 -29 114 c-15 63 -39 144 -53 180 -34 91 -117 244 -171 316 -69
92 -208 230 -297 294 -82 60 -273 162 -335 179 -19 6 -66 19 -105 30 -38 11
-104 25 -145 32 -55 8 -1207 12 -4330 13 -3881 2 -4263 1 -4350 -14z"/>
</g>
</svg>
