<?xml version="1.0" standalone="no"?>
<!DOCTYPE svg PUBLIC "-//W3C//DTD SVG 20010904//EN"
 "http://www.w3.org/TR/2001/REC-SVG-20010904/DTD/svg10.dtd">
<svg version="1.0" xmlns="http://www.w3.org/2000/svg"
 width="3840.000000pt" height="3074.000000pt" viewBox="0 0 3840.000000 3074.000000"
 preserveAspectRatio="xMidYMid meet">
<metadata>
Created by potrace 1.16, written by Peter Selinger 2001-2019
</metadata>
<g transform="translate(0.000000,3074.000000) scale(0.100000,-0.100000)"
fill="#000000" stroke="none">
<path d="M18955 30674 c-356 -36 -473 -53 -655 -95 -281 -65 -562 -165 -1000
-354 -30 -13 -120 -51 -200 -84 -409 -169 -467 -193 -495 -206 -30 -13 -187
-79 -385 -160 -58 -24 -166 -69 -240 -100 -202 -85 -363 -152 -480 -200 -58
-24 -136 -57 -175 -73 -38 -16 -149 -62 -245 -102 -96 -40 -233 -97 -305 -127
-71 -30 -177 -74 -235 -98 -127 -52 -298 -124 -480 -200 -74 -31 -182 -76
-240 -100 -58 -24 -161 -67 -230 -95 -69 -29 -188 -78 -265 -110 -77 -31 -156
-64 -175 -73 -19 -9 -168 -71 -330 -138 -162 -66 -320 -132 -350 -146 -30 -13
-82 -35 -115 -48 -33 -13 -121 -49 -195 -80 -160 -68 -363 -152 -590 -245 -91
-37 -214 -89 -275 -115 -60 -26 -146 -62 -190 -80 -89 -36 -326 -134 -540
-225 -77 -32 -174 -73 -215 -90 -41 -18 -118 -49 -170 -70 -52 -20 -115 -46
-140 -57 -25 -11 -65 -28 -90 -38 -25 -10 -70 -29 -100 -43 -30 -13 -102 -44
-160 -67 -58 -24 -161 -66 -230 -95 -69 -29 -150 -62 -180 -74 -30 -13 -109
-46 -175 -74 -66 -28 -176 -74 -245 -102 -189 -78 -333 -138 -665 -277 -96
-40 -357 -149 -515 -214 -80 -33 -185 -77 -235 -99 -49 -21 -146 -62 -215 -90
-69 -28 -134 -55 -145 -60 -71 -31 -264 -110 -270 -110 -3 0 -44 -18 -91 -40
-47 -22 -89 -40 -93 -40 -5 0 -54 -20 -109 -44 -56 -25 -112 -48 -124 -52 -13
-3 -61 -23 -108 -44 -47 -20 -121 -52 -165 -70 -44 -18 -108 -45 -143 -61 -35
-16 -67 -29 -71 -29 -4 0 -66 -25 -137 -56 -71 -30 -145 -62 -164 -69 -56 -21
-330 -134 -364 -150 -17 -8 -83 -35 -146 -61 -63 -25 -128 -52 -145 -59 -74
-33 -303 -129 -335 -140 -19 -7 -60 -24 -90 -38 -30 -13 -102 -43 -160 -67
-58 -23 -123 -50 -145 -60 -57 -26 -208 -89 -290 -120 -39 -15 -91 -37 -115
-48 -85 -39 -214 -92 -221 -92 -5 0 -36 -13 -71 -29 -35 -16 -112 -49 -173
-74 -60 -25 -182 -75 -270 -112 -88 -36 -171 -71 -185 -77 -14 -5 -38 -16 -55
-23 -16 -7 -46 -19 -65 -28 -19 -9 -91 -39 -160 -67 -210 -88 -287 -124 -460
-220 -137 -75 -322 -193 -428 -273 -42 -32 -102 -77 -132 -100 -85 -63 -294
-254 -405 -368 -200 -206 -371 -429 -538 -699 -300 -486 -487 -1031 -570
-1660 l-22 -165 -3 -9820 c-2 -7500 0 -9841 9 -9910 36 -279 190 -517 444
-691 47 -31 153 -79 226 -102 130 -40 197 -43 804 -39 481 3 589 6 635 19 209
58 323 122 464 263 134 132 205 254 259 444 l22 76 5 9810 5 9810 22 90 c50
205 123 360 239 505 147 184 319 303 593 412 42 17 132 54 201 83 69 28 188
78 265 110 77 32 168 71 203 86 35 16 66 29 69 29 5 0 220 88 268 110 60 27
476 200 480 200 4 0 30 11 58 24 29 12 86 37 127 54 41 16 156 64 255 105 99
42 236 99 305 127 158 65 191 79 212 90 10 6 22 10 27 10 6 0 41 14 78 31 91
41 120 53 173 74 25 9 59 23 75 31 58 26 554 231 655 271 36 13 70 28 75 32 6
4 48 23 95 41 47 18 94 38 105 44 11 5 25 11 30 12 6 1 57 22 115 47 58 24
157 65 220 91 63 26 133 56 155 66 22 9 63 27 90 38 28 11 131 54 230 95 99
41 263 110 365 152 102 42 199 83 215 90 17 8 82 35 145 60 63 26 178 73 255
106 77 32 143 59 147 59 4 0 37 14 75 31 37 16 77 34 88 39 56 25 588 245 702
291 40 16 119 48 175 72 57 24 171 72 253 107 83 34 175 73 205 86 95 39 360
149 480 199 63 26 129 53 145 61 38 16 309 129 480 199 124 50 172 70 240 100
17 7 147 61 290 120 237 98 347 144 430 180 17 7 93 39 170 70 177 73 374 155
490 205 50 21 142 59 205 85 63 26 129 53 145 60 17 7 82 34 145 60 63 26 160
67 215 90 55 23 138 58 185 78 47 19 139 57 205 85 157 65 373 155 560 232 83
34 191 79 240 100 50 21 126 53 170 70 44 17 98 40 120 50 22 10 108 46 190
80 83 34 159 66 170 70 11 5 92 39 180 75 88 37 174 72 190 80 17 7 50 21 75
31 25 9 69 28 98 41 29 13 101 43 160 67 175 71 345 142 382 159 19 9 114 49
210 88 96 39 258 106 360 149 933 392 955 400 1125 425 227 34 422 5 686 -101
202 -82 271 -110 409 -169 125 -52 186 -78 480 -200 58 -24 166 -69 240 -100
74 -31 182 -76 240 -100 58 -24 166 -69 240 -100 74 -31 182 -76 240 -100 58
-24 166 -69 240 -100 74 -31 182 -76 240 -100 58 -23 166 -68 240 -100 74 -31
182 -76 240 -100 277 -115 355 -147 480 -200 74 -31 182 -76 240 -100 269
-111 356 -147 500 -207 85 -36 234 -98 330 -137 96 -39 182 -75 190 -80 9 -5
78 -33 155 -64 77 -31 154 -63 170 -71 30 -15 125 -54 475 -197 107 -44 236
-98 285 -119 91 -40 278 -118 550 -230 83 -34 202 -84 265 -110 63 -26 176
-73 250 -104 74 -31 144 -60 155 -65 24 -12 239 -101 350 -146 44 -18 190 -79
325 -135 135 -56 297 -124 360 -150 246 -102 494 -205 695 -290 435 -182 502
-210 508 -210 3 0 45 -18 92 -40 47 -22 88 -40 91 -40 6 0 504 -206 594 -245
61 -27 300 -127 485 -203 250 -103 790 -329 820 -342 11 -5 78 -32 149 -60 70
-28 136 -55 145 -60 15 -8 107 -46 426 -177 61 -25 128 -54 151 -64 22 -11 44
-19 48 -19 4 0 33 -12 64 -26 96 -43 124 -56 252 -107 47 -19 184 -76 305
-127 216 -91 447 -186 555 -230 30 -13 78 -33 105 -45 28 -12 97 -41 155 -65
249 -102 421 -173 505 -210 50 -21 146 -62 215 -90 486 -199 765 -319 864
-373 145 -78 257 -171 355 -292 127 -158 196 -296 249 -505 l27 -105 5 -9810
c5 -9306 6 -9813 23 -9874 68 -249 207 -440 432 -597 45 -31 152 -80 226 -102
131 -40 198 -43 804 -39 610 4 599 3 739 51 74 25 155 66 211 104 214 150 353
349 412 592 17 72 18 437 18 9935 l0 9860 -22 176 c-69 538 -198 966 -425
1407 -88 171 -214 381 -293 487 -28 39 -69 95 -91 125 -65 91 -210 258 -333
383 -280 286 -587 518 -941 714 -141 77 -270 143 -283 143 -3 0 -45 18 -94 41
-48 23 -110 50 -138 60 -46 18 -89 36 -140 59 -11 5 -60 26 -110 45 -49 20
-114 47 -143 61 -29 13 -55 24 -58 24 -3 0 -20 6 -37 14 -61 28 -275 116 -281
116 -3 0 -29 11 -58 24 -29 14 -93 41 -143 61 -49 20 -99 40 -110 45 -11 5
-69 30 -130 55 -60 26 -146 61 -190 80 -312 130 -405 169 -515 214 -69 28
-145 60 -170 71 -25 11 -117 49 -205 85 -88 37 -173 72 -190 80 -16 7 -66 28
-110 45 -44 18 -84 36 -90 40 -5 4 -35 15 -65 25 -30 9 -64 23 -75 29 -11 7
-40 20 -65 30 -25 10 -110 44 -190 78 -80 33 -210 87 -290 120 -80 33 -158 66
-175 73 -40 19 -338 143 -395 165 -57 22 -167 68 -189 80 -9 5 -42 18 -73 29
-32 11 -66 25 -75 31 -10 6 -74 33 -143 61 -273 111 -337 138 -390 161 -30 14
-71 31 -90 38 -19 7 -63 26 -98 42 -35 15 -68 28 -73 28 -5 0 -17 4 -27 10 -9
5 -73 32 -142 61 -69 28 -139 58 -157 65 -17 8 -34 14 -37 14 -4 0 -34 13 -69
29 -34 16 -82 37 -107 47 -25 9 -65 26 -90 37 -43 19 -158 66 -395 163 -60 25
-128 54 -150 64 -22 10 -107 46 -190 80 -177 72 -357 147 -402 166 -17 8 -34
14 -38 14 -3 0 -32 13 -64 29 -31 15 -82 36 -112 46 -30 10 -58 21 -64 25 -5
4 -50 24 -100 44 -49 20 -99 41 -110 46 -42 19 -236 100 -241 100 -3 0 -39 15
-82 34 -42 19 -144 62 -227 96 -82 33 -159 65 -170 70 -11 5 -65 28 -120 51
-55 22 -136 57 -180 76 -44 19 -109 45 -145 58 -36 13 -135 53 -220 90 -85 37
-207 88 -270 115 -63 26 -131 54 -150 63 -19 9 -129 55 -245 103 -115 47 -268
111 -340 141 -71 30 -161 67 -200 83 -65 26 -179 73 -520 217 -71 30 -159 66
-195 80 -36 13 -110 44 -165 68 -94 41 -235 99 -505 210 -119 48 -129 52 -245
103 -143 61 -362 152 -368 152 -4 0 -30 11 -59 24 -29 14 -93 41 -143 61 -49
20 -130 53 -180 75 -148 63 -333 140 -339 140 -3 0 -39 16 -80 35 -41 19 -78
35 -81 35 -3 0 -77 30 -163 66 -86 36 -222 93 -302 126 -80 33 -168 71 -197
84 -28 13 -55 24 -58 24 -3 0 -77 30 -163 66 -86 36 -222 93 -302 126 -80 33
-159 66 -176 74 -17 7 -87 37 -155 65 -68 28 -176 72 -239 98 -519 215 -674
273 -865 325 -249 67 -422 101 -680 132 -123 15 -581 27 -670 18z"/>
<path d="M6571 17265 c-333 -73 -615 -325 -722 -646 -52 -158 -49 381 -49
-7943 0 -6818 2 -7710 15 -7800 41 -274 217 -534 464 -685 66 -40 203 -93 291
-112 96 -21 25176 -21 25260 0 239 59 408 164 551 341 69 85 146 224 173 315
48 158 46 -46 46 4110 0 3527 -1 3890 -16 3976 -29 170 -107 342 -203 449 -23
25 -41 48 -41 52 0 3 -36 36 -79 72 -88 74 -200 139 -306 179 -162 61 242 57
-5552 57 l-5293 0 0 3400 c0 3034 -2 3409 -16 3478 -75 375 -357 663 -739 753
-78 18 -251 18 -6900 18 -5758 -1 -6830 -3 -6884 -14z m11669 -4765 l0 -1910
-4772 -2 c-2625 -2 -4779 -1 -4785 1 -10 2 -13 393 -13 1912 l0 1909 4785 0
4785 0 0 -1910z m0 -7655 l0 -1915 -4785 0 -4785 0 0 1915 0 1915 4785 0 4785
0 0 -1915z m11490 0 l0 -1915 -4310 0 -4310 0 0 1915 0 1915 4310 0 4310 0 0
-1915z"/>
</g>
</svg>
