<?xml version="1.0" standalone="no"?>
<!DOCTYPE svg PUBLIC "-//W3C//DTD SVG 20010904//EN"
 "http://www.w3.org/TR/2001/REC-SVG-20010904/DTD/svg10.dtd">
<svg version="1.0" xmlns="http://www.w3.org/2000/svg"
 width="3840.000000pt" height="4387.000000pt" viewBox="0 0 3840.000000 4387.000000"
 preserveAspectRatio="xMidYMid meet">
<metadata>
Created by potrace 1.16, written by Peter Selinger 2001-2019
</metadata>
<g transform="translate(0.000000,4387.000000) scale(0.100000,-0.100000)"
fill="#000000" stroke="none">
<path d="M17380 41084 c-206 -25 -432 -67 -595 -110 -69 -18 -390 -121 -420
-134 -11 -5 -67 -28 -125 -51 -202 -82 -486 -235 -703 -381 -89 -59 -301 -218
-342 -255 -11 -10 -65 -57 -120 -105 -418 -363 -827 -940 -1040 -1468 -14 -36
-32 -78 -40 -95 -14 -32 -92 -260 -105 -310 -87 -315 -134 -570 -159 -855 -15
-172 -16 -30602 -1 -30769 22 -242 70 -522 128 -741 30 -113 111 -366 137
-425 7 -16 39 -91 71 -165 54 -127 73 -166 154 -315 190 -353 513 -772 789
-1023 161 -146 172 -155 293 -250 231 -178 455 -319 703 -441 83 -40 158 -77
168 -82 9 -5 52 -23 95 -39 42 -17 86 -35 97 -40 122 -56 526 -166 750 -204
341 -58 266 -56 2085 -56 1819 0 1744 -2 2085 56 129 22 353 74 450 104 165
51 330 110 367 130 10 6 22 10 28 10 14 0 80 30 258 118 189 92 358 192 542
319 71 49 247 187 335 262 261 223 550 554 747 856 167 257 241 401 388 750
25 60 91 251 110 320 84 298 127 526 155 815 13 137 15 1964 15 15424 0 10613
-3 15305 -11 15385 -43 478 -145 888 -322 1301 -66 155 -85 193 -167 345 -192
357 -523 784 -801 1035 -149 133 -154 138 -259 221 -152 120 -263 196 -444
306 -84 52 -392 212 -461 240 -17 7 -59 24 -95 38 -36 14 -74 30 -85 35 -38
16 -290 99 -370 121 -119 32 -184 46 -360 78 -347 63 -267 61 -2120 60 -1387
-1 -1711 -4 -1805 -15z m3190 -19149 l0 -15065 -1370 0 -1370 0 0 15065 0
15065 1370 0 1370 0 0 -15065z"/>
<path d="M31215 35620 c-38 -5 -101 -11 -140 -14 -115 -11 -412 -61 -505 -86
-51 -13 -149 -40 -195 -52 -67 -19 -316 -102 -350 -118 -11 -5 -68 -29 -127
-54 -443 -189 -850 -460 -1236 -820 -40 -38 -210 -222 -275 -297 -132 -155
-301 -395 -418 -594 -82 -138 -212 -403 -259 -525 -11 -30 -25 -64 -30 -75 -7
-17 -45 -129 -100 -300 -54 -169 -122 -511 -145 -729 -13 -124 -15 -1668 -15
-12757 0 -13629 -4 -12702 49 -13011 125 -727 424 -1375 905 -1958 146 -177
455 -472 651 -621 118 -90 379 -265 435 -292 8 -4 51 -28 95 -53 240 -136 627
-290 910 -363 224 -58 354 -82 587 -111 162 -19 217 -20 1840 -20 1616 0 1679
1 1843 20 200 24 406 63 605 115 73 18 354 110 385 125 11 5 56 23 100 40 69
28 242 105 285 129 8 4 56 29 105 56 50 26 106 57 125 70 19 12 70 43 113 69
152 93 422 296 552 416 27 25 74 68 104 95 69 64 262 273 338 366 132 163 322
440 399 584 6 11 25 47 43 80 133 241 262 560 331 820 12 44 25 91 30 105 8
23 30 126 50 230 10 52 34 191 52 305 16 106 25 25215 8 25445 -12 168 -26
292 -41 370 -25 127 -31 158 -46 225 -22 101 -77 294 -118 414 -52 152 -75
210 -168 416 -40 90 -110 223 -159 303 -21 34 -38 65 -38 68 0 6 -117 182
-189 284 -109 156 -248 318 -426 496 -104 104 -203 201 -220 215 -323 263
-529 401 -830 553 -210 106 -241 120 -470 203 -124 46 -247 83 -435 133 -96
26 -395 76 -505 85 -39 3 -108 10 -155 15 -102 12 -3241 11 -3345 0z m3045
-16425 l0 -12325 -1367 2 -1368 3 -3 12323 -2 12322 1370 0 1370 0 0 -12325z"/>
<path d="M3750 24660 c-30 -4 -102 -13 -160 -20 -205 -23 -479 -84 -720 -161
-109 -35 -126 -41 -270 -99 -125 -51 -333 -146 -390 -180 -99 -58 -174 -100
-178 -100 -17 0 -368 -246 -482 -337 -160 -128 -461 -425 -580 -573 -526 -651
-814 -1327 -922 -2165 -20 -151 -19 -14450 0 -14610 57 -463 180 -896 369
-1295 25 -52 52 -108 59 -125 8 -16 18 -37 24 -45 5 -8 41 -71 81 -140 188
-325 377 -568 654 -845 358 -357 731 -617 1190 -830 346 -160 816 -296 1160
-335 50 -5 124 -14 165 -20 46 -6 715 -9 1750 -10 1611 0 1682 1 1845 20 162
19 350 50 425 70 19 5 82 21 140 35 296 74 626 203 920 360 58 31 112 62 120
68 8 7 31 21 50 31 99 54 362 240 511 363 122 100 404 381 513 512 249 297
447 614 613 981 166 367 279 788 328 1230 22 192 22 14351 0 14556 -42 398
-157 847 -300 1169 -93 210 -148 322 -210 427 -5 9 -25 43 -44 74 -94 162
-262 396 -399 560 -105 124 -351 370 -482 481 -151 127 -405 308 -550 392 -30
18 -62 36 -70 41 -86 53 -223 121 -435 215 -129 57 -390 145 -560 189 -175 44
-227 55 -355 75 -336 53 -249 51 -2065 50 -929 -1 -1715 -5 -1745 -9z m3125
-10940 l0 -6845 -1367 -3 -1368 -2 0 6850 0 6850 1368 -2 1367 -3 0 -6845z"/>
</g>
</svg>
