<?xml version="1.0" standalone="no"?>
<!DOCTYPE svg PUBLIC "-//W3C//DTD SVG 20010904//EN"
 "http://www.w3.org/TR/2001/REC-SVG-20010904/DTD/svg10.dtd">
<svg version="1.0" xmlns="http://www.w3.org/2000/svg"
 width="3840.000000pt" height="3074.000000pt" viewBox="0 0 3840.000000 3074.000000"
 preserveAspectRatio="xMidYMid meet">
<metadata>
Created by potrace 1.16, written by Peter Selinger 2001-2019
</metadata>
<g transform="translate(0.000000,3074.000000) scale(0.100000,-0.100000)"
fill="#000000" stroke="none">
<path d="M4735 30662 c-163 -56 -289 -179 -344 -337 l-21 -59 0 -2663 0 -2662
-1302 -4 c-1428 -4 -1351 -1 -1598 -65 -189 -50 -314 -103 -495 -210 -60 -36
-133 -84 -163 -106 -130 -100 -307 -278 -377 -380 -22 -32 -44 -63 -50 -70
-22 -26 -85 -136 -85 -147 0 -5 -4 -9 -10 -9 -5 0 -10 -4 -10 -10 0 -5 -15
-43 -34 -82 -54 -116 -66 -145 -66 -162 0 -9 -6 -27 -14 -39 -17 -28 -69 -243
-87 -362 -12 -75 -14 -1922 -14 -11460 0 -10610 1 -11373 17 -11422 60 -187
274 -353 454 -353 57 0 162 30 209 60 17 11 39 24 50 29 56 26 172 177 202
264 17 50 18 476 23 11422 l5 11370 22 65 c12 36 26 82 32 102 7 21 16 40 21
43 6 4 10 12 10 20 0 16 63 126 94 164 156 189 316 295 542 359 55 15 643 17
8276 19 l8218 3 0 2421 c0 2160 2 2432 16 2518 29 177 84 303 193 441 34 44
83 97 108 117 25 21 60 50 78 66 18 15 38 27 44 27 6 0 11 4 11 8 0 10 152 82
172 82 8 0 18 4 24 10 5 5 53 19 106 30 97 20 118 20 4070 17 3609 -3 3978 -4
4023 -19 172 -54 238 -86 343 -164 163 -123 267 -264 331 -450 54 -156 51 233
51 -5521 l0 -5323 4393 -3 4392 -3 70 -21 c228 -68 356 -151 515 -333 69 -79
137 -220 182 -380 10 -36 14 -1745 18 -8540 4 -7177 7 -8500 19 -8530 56 -142
109 -210 224 -287 123 -82 228 -100 353 -62 89 28 155 71 229 150 67 72 97
126 120 215 14 54 15 935 12 8555 -3 7943 -4 8500 -20 8589 -45 257 -129 489
-246 685 -17 28 -33 57 -37 65 -31 62 -216 278 -316 367 -98 87 -105 93 -222
172 -113 75 -241 141 -362 185 -38 15 -78 30 -89 36 -34 15 -217 59 -326 77
-97 16 -376 17 -4026 20 l-3923 3 -3 4888 c-3 4538 -4 4894 -20 4982 -22 127
-50 236 -87 345 -34 100 -121 285 -165 355 -16 25 -34 54 -40 65 -28 50 -158
208 -240 290 -109 109 -149 142 -286 234 -95 63 -295 171 -318 171 -5 0 -22 7
-37 15 -16 8 -36 15 -44 15 -9 0 -20 4 -25 9 -14 14 -222 67 -345 88 -100 17
-293 18 -4120 18 -4365 0 -4079 4 -4321 -56 -162 -40 -389 -129 -464 -183 -16
-12 -50 -32 -75 -45 -130 -69 -414 -322 -495 -442 -16 -24 -33 -46 -36 -49
-20 -16 -117 -179 -160 -270 -62 -130 -79 -169 -79 -184 0 -8 -6 -27 -14 -43
-17 -32 -37 -105 -60 -208 -8 -38 -21 -97 -28 -130 -10 -48 -13 -476 -16
-2092 l-2 -2033 -2155 0 -2155 0 0 2648 c0 2553 -1 2649 -19 2712 -10 36 -28
84 -40 107 -28 57 -124 159 -186 198 -62 40 -171 75 -234 75 -184 0 -388 -160
-460 -360 -14 -41 -16 -285 -18 -2712 l-3 -2668 -3350 0 -3350 0 0 2663 0
2663 -21 59 c-27 77 -33 88 -86 158 -118 153 -325 231 -478 179z"/>
<path d="M21385 26350 c-160 -37 -251 -80 -389 -187 -67 -52 -113 -98 -153
-151 -31 -42 -59 -79 -62 -82 -15 -12 -73 -142 -95 -210 -48 -151 -47 -105
-43 -1775 3 -1409 5 -1585 19 -1630 42 -135 73 -210 88 -220 6 -4 8 -10 6 -14
-12 -18 228 -301 255 -301 4 0 15 -7 23 -15 44 -45 229 -123 366 -157 82 -19
3179 -19 3260 0 128 32 187 55 315 126 103 57 244 199 304 306 45 82 81 156
81 170 0 9 4 20 9 26 5 5 17 45 27 89 18 76 19 152 19 1655 0 1479 -1 1580
-18 1650 -10 41 -25 95 -34 120 -20 54 -97 204 -115 226 -7 8 -33 38 -58 67
-25 29 -69 73 -98 97 -29 25 -58 50 -65 56 -21 18 -130 79 -177 98 -83 34 -91
36 -181 56 -87 19 -128 20 -1646 19 -1474 0 -1562 -2 -1638 -19z m3075 -2365
l0 -1435 -1435 0 -1435 0 0 1435 0 1435 1435 0 1435 0 0 -1435z"/>
<path d="M4165 20611 c-160 -35 -284 -95 -402 -193 -84 -71 -103 -90 -175
-183 -45 -58 -118 -198 -118 -227 0 -8 -4 -18 -9 -23 -4 -6 -17 -46 -27 -90
-18 -77 -19 -148 -19 -1660 0 -1489 1 -1584 18 -1650 10 -38 23 -83 29 -100
12 -35 79 -175 90 -190 49 -64 108 -137 137 -168 42 -45 145 -127 159 -127 6
0 12 -3 14 -8 3 -8 135 -73 183 -90 17 -6 62 -19 100 -29 66 -17 162 -18 1665
-18 1512 0 1598 1 1655 18 88 27 172 58 205 77 8 5 39 21 68 36 28 15 52 31
52 35 0 4 9 11 20 14 40 13 190 176 240 262 28 46 50 90 50 98 0 7 4 16 10 20
5 3 14 22 21 43 6 20 20 66 32 102 21 65 21 68 25 1635 4 1668 4 1634 -44
1785 -64 196 -155 322 -344 473 -86 70 -233 131 -382 161 -68 14 -264 16
-1625 15 -1439 0 -1554 -2 -1628 -18z m3075 -2366 l0 -1435 -1435 0 -1435 0 0
1435 0 1435 1435 0 1435 0 0 -1435z"/>
<path d="M11875 20624 c-193 -42 -299 -87 -424 -182 -97 -74 -127 -103 -193
-189 -89 -116 -152 -264 -178 -415 -7 -44 -10 -545 -8 -1638 l3 -1575 27 -85
c39 -125 79 -206 149 -299 58 -79 174 -201 190 -201 4 0 14 -7 23 -15 21 -22
152 -90 216 -114 166 -60 31 -56 1770 -56 1517 0 1588 1 1665 19 44 10 84 23
90 27 5 5 16 9 25 9 14 0 88 36 170 81 107 60 249 201 306 304 73 132 91 174
120 285 17 60 18 180 21 1615 4 1410 2 1559 -13 1645 -61 351 -275 605 -620
739 -121 47 -42 45 -1734 47 -872 1 -1594 0 -1605 -2z m3015 -2379 l0 -1435
-1435 0 -1435 0 0 1435 0 1435 1435 0 1435 0 0 -1435z"/>
<path d="M21490 18714 c-203 -31 -371 -98 -484 -195 -32 -27 -65 -55 -75 -62
-24 -17 -153 -177 -144 -177 4 0 3 -4 -3 -8 -16 -10 -70 -119 -93 -189 -54
-160 -52 -78 -49 -1788 3 -1501 4 -1583 21 -1645 11 -36 23 -69 28 -75 5 -5 9
-16 9 -25 0 -14 31 -79 81 -170 21 -38 152 -192 185 -218 16 -12 47 -36 69
-53 83 -64 253 -134 395 -161 99 -20 3093 -19 3200 1 114 20 298 88 308 113 2
4 9 8 15 8 39 0 267 204 283 252 3 10 9 18 13 18 4 0 20 24 35 53 15 28 31 59
36 67 9 16 30 65 48 115 6 17 19 64 29 105 17 70 18 175 18 1640 0 1492 -1
1569 -19 1658 -10 51 -22 95 -27 98 -5 3 -9 13 -9 23 0 21 -56 132 -103 203
-108 160 -266 284 -457 355 -172 65 -119 63 -1780 62 -828 -1 -1516 -3 -1530
-5z m2970 -2389 l0 -1435 -1435 0 -1435 0 0 1435 0 1435 1435 0 1435 0 0
-1435z"/>
<path d="M4205 12964 c-99 -16 -233 -62 -310 -108 -49 -29 -182 -131 -218
-168 -10 -10 -42 -49 -70 -86 -28 -37 -53 -69 -56 -72 -10 -9 -68 -133 -85
-180 -55 -161 -51 -34 -51 -1760 0 -1522 1 -1588 19 -1659 40 -158 84 -249
179 -370 76 -97 87 -109 162 -166 135 -102 269 -160 444 -189 83 -14 268 -16
1579 -16 1289 0 1498 2 1586 15 55 9 110 20 121 25 11 5 31 12 45 15 29 8 86
31 115 47 10 6 38 21 61 33 87 46 198 144 269 235 52 68 120 193 145 269 52
157 50 80 50 1753 0 1489 -1 1557 -19 1643 -22 105 -27 118 -89 243 -38 77
-148 229 -173 240 -4 2 -20 14 -36 28 -107 94 -171 132 -303 181 -173 65 -124
63 -1777 62 -1230 -1 -1514 -4 -1588 -15z m3035 -2379 l0 -1435 -1435 0 -1435
0 0 1435 0 1435 1435 0 1435 0 0 -1435z"/>
<path d="M11869 12965 c-342 -54 -641 -302 -748 -622 -54 -161 -52 -77 -48
-1793 3 -1570 3 -1586 23 -1650 55 -170 102 -258 207 -380 68 -79 164 -161
226 -194 105 -54 136 -68 192 -86 166 -51 145 -50 1738 -50 1693 0 1577 -5
1824 83 21 8 43 19 49 25 7 7 18 12 25 12 7 0 13 5 13 10 0 6 6 10 13 10 24 0
123 74 192 144 141 143 224 307 260 512 23 130 23 3068 0 3198 -72 414 -383
719 -795 781 -140 21 -3036 21 -3171 0z m3021 -2380 l0 -1435 -1435 0 -1435 0
0 1435 0 1435 1435 0 1435 0 0 -1435z"/>
<path d="M31009 12965 c-47 -8 -115 -23 -150 -35 -60 -21 -168 -68 -179 -80
-3 -3 -17 -12 -32 -20 -60 -34 -171 -135 -233 -212 -65 -80 -145 -223 -145
-257 0 -9 -4 -21 -9 -27 -6 -5 -19 -51 -31 -102 -20 -93 -20 -105 -17 -1680 3
-1702 0 -1601 48 -1727 17 -43 77 -166 97 -196 51 -80 152 -190 219 -240 84
-63 214 -131 273 -144 19 -4 41 -11 50 -16 8 -5 61 -15 116 -24 87 -13 306
-15 1586 -15 1693 0 1573 -5 1821 83 21 8 43 19 49 25 7 7 18 12 25 12 7 0 13
5 13 10 0 6 6 10 13 10 24 0 123 74 192 144 72 73 121 140 172 236 29 55 35
71 76 205 l21 70 3 1554 c4 1678 5 1636 -48 1793 -114 339 -403 579 -760 633
-139 21 -3035 21 -3170 0z m3021 -2380 l0 -1435 -1435 0 -1435 0 0 1435 0
1435 1435 0 1435 0 0 -1435z"/>
<path d="M21385 11040 c-160 -37 -251 -80 -389 -187 -67 -52 -113 -98 -153
-151 -31 -42 -59 -79 -62 -82 -15 -12 -73 -142 -95 -210 -48 -151 -47 -105
-43 -1775 3 -1699 0 -1576 49 -1725 23 -71 68 -158 118 -225 50 -69 187 -215
201 -215 4 0 15 -7 24 -16 27 -28 177 -101 261 -127 153 -49 142 -48 1784 -44
1367 3 1551 5 1600 19 138 39 161 49 295 122 85 47 208 165 274 262 50 75 111
192 111 214 0 9 4 20 9 26 5 5 17 45 27 89 18 76 19 152 19 1655 0 1479 -1
1580 -18 1650 -10 41 -25 95 -34 120 -20 53 -101 212 -112 220 -4 3 -12 13
-17 22 -17 30 -124 137 -201 199 -34 27 -143 89 -158 89 -8 0 -16 4 -19 9 -7
11 -114 46 -203 65 -64 14 -244 16 -1630 15 -1474 0 -1562 -2 -1638 -19z
m3075 -2365 l0 -1435 -1435 0 -1435 0 0 1435 0 1435 1435 0 1435 0 0 -1435z"/>
<path d="M4155 5299 c-49 -10 -94 -24 -99 -29 -6 -6 -18 -10 -27 -10 -20 0
-162 -70 -167 -82 -2 -4 -8 -8 -14 -8 -13 0 -155 -118 -188 -157 -59 -67 -100
-122 -100 -132 0 -6 -4 -11 -8 -11 -10 0 -82 -152 -82 -172 0 -8 -4 -18 -9
-23 -4 -6 -17 -46 -27 -90 -18 -77 -19 -148 -19 -1660 0 -1489 1 -1584 18
-1650 10 -38 23 -83 29 -100 15 -42 79 -176 89 -189 5 -6 26 -33 46 -61 71
-96 220 -235 251 -235 6 0 12 -3 14 -8 3 -8 135 -73 183 -90 17 -6 62 -19 100
-29 66 -17 162 -18 1665 -18 1512 0 1598 1 1655 18 66 20 104 33 150 52 17 7
37 16 45 19 22 9 119 65 133 76 7 6 37 30 67 54 153 123 270 324 314 539 14
67 16 254 16 1626 0 1670 2 1601 -51 1756 -64 186 -154 308 -339 458 -38 31
-142 87 -208 112 -170 64 -34 59 -1767 61 -1531 3 -1583 2 -1670 -17z m3085
-2364 l0 -1435 -1404 0 c-772 0 -1418 -3 -1435 -6 l-31 -6 0 1441 0 1441 1435
0 1435 0 0 -1435z"/>
<path d="M11880 5314 c-159 -26 -304 -87 -429 -182 -97 -73 -109 -85 -184
-180 -95 -118 -160 -267 -187 -424 -7 -44 -10 -545 -8 -1638 l3 -1575 28 -89
c36 -116 85 -213 155 -305 55 -73 168 -191 183 -191 4 0 14 -6 21 -13 45 -45
202 -116 338 -154 61 -17 154 -18 1655 -18 1522 0 1593 1 1665 19 41 10 79 22
85 27 5 5 16 9 25 9 14 0 103 42 170 81 82 47 199 154 267 244 36 48 103 173
126 235 54 148 51 44 54 1729 4 1683 5 1624 -49 1791 -86 265 -297 480 -571
584 -140 53 -36 50 -1742 52 -869 1 -1591 0 -1605 -2z m3010 -2381 l0 -1438
-1423 2 c-782 2 -1428 3 -1434 3 -10 0 -13 294 -13 1435 l0 1435 1435 0 1435
0 0 -1437z"/>
<path d="M31020 5314 c-82 -14 -208 -53 -289 -91 -60 -29 -210 -138 -255 -187
-131 -142 -212 -298 -251 -484 -22 -108 -22 -3140 0 -3246 32 -150 85 -268
173 -385 55 -73 168 -191 183 -191 4 0 14 -6 21 -13 45 -45 202 -116 338 -154
61 -17 154 -18 1650 -18 1517 0 1588 1 1665 19 44 10 84 23 90 27 5 5 16 9 25
9 9 0 47 16 85 36 39 20 84 44 100 52 17 9 35 20 40 24 6 5 21 18 35 29 170
138 285 322 337 539 17 70 18 171 18 1650 0 1479 -1 1580 -18 1650 -47 198
-155 384 -288 495 -82 69 -117 95 -128 95 -6 0 -11 4 -11 8 0 15 -178 93 -274
119 -56 16 -196 17 -1641 19 -869 1 -1591 0 -1605 -2z m3010 -2381 l0 -1438
-1423 2 c-782 2 -1428 3 -1434 3 -10 0 -13 294 -13 1435 l0 1435 1435 0 1435
0 0 -1437z"/>
</g>
</svg>
