<?xml version="1.0" standalone="no"?>
<!DOCTYPE svg PUBLIC "-//W3C//DTD SVG 20010904//EN"
 "http://www.w3.org/TR/2001/REC-SVG-20010904/DTD/svg10.dtd">
<svg version="1.0" xmlns="http://www.w3.org/2000/svg"
 width="3840.000000pt" height="3414.000000pt" viewBox="0 0 3840.000000 3414.000000"
 preserveAspectRatio="xMidYMid meet">
<metadata>
Created by potrace 1.16, written by Peter Selinger 2001-2019
</metadata>
<g transform="translate(0.000000,3414.000000) scale(0.100000,-0.100000)"
fill="#000000" stroke="none">
<path d="M19040 34059 c-138 -16 -310 -84 -451 -179 -44 -30 -891 -870 -2660
-2639 -2697 -2697 -2644 -2642 -2786 -2864 -52 -81 -130 -235 -161 -317 -58
-155 -73 -199 -83 -245 -6 -27 -15 -61 -20 -75 -5 -14 -19 -86 -31 -160 l-23
-135 -3 -3912 -2 -3912 -33 -24 c-17 -14 -55 -37 -84 -53 -28 -16 -103 -60
-167 -99 -64 -38 -151 -91 -194 -116 -170 -101 -388 -233 -412 -249 -14 -9
-56 -35 -95 -57 -82 -47 -198 -117 -503 -300 -48 -29 -118 -71 -157 -94 -72
-42 -206 -123 -285 -172 -25 -15 -94 -57 -155 -92 -60 -35 -123 -73 -140 -84
-65 -41 -685 -411 -689 -411 -3 0 -54 -31 -113 -68 -60 -38 -116 -72 -126 -75
-10 -4 -64 -39 -120 -78 -56 -39 -118 -82 -137 -95 -69 -47 -233 -201 -315
-294 -214 -247 -401 -608 -461 -890 -58 -272 -64 -374 -64 -1101 l0 -618 -22
-21 c-12 -11 -27 -20 -33 -20 -11 0 -177 -70 -336 -141 -36 -16 -69 -29 -72
-29 -4 0 -51 -20 -104 -44 -54 -24 -159 -70 -233 -101 -74 -32 -157 -68 -185
-80 -27 -12 -126 -55 -220 -95 -93 -39 -262 -112 -375 -160 -113 -49 -229 -98
-259 -110 -30 -11 -80 -33 -110 -47 -53 -24 -78 -34 -146 -63 -16 -7 -149 -64
-295 -127 -146 -63 -314 -135 -373 -159 -60 -24 -121 -50 -135 -58 -36 -19
-358 -156 -367 -156 -4 0 -37 -14 -73 -31 -37 -18 -80 -38 -97 -45 -66 -28
-178 -76 -350 -149 -99 -42 -204 -87 -233 -101 -29 -13 -55 -24 -58 -24 -3 0
-65 -25 -137 -57 -222 -95 -287 -123 -417 -177 -69 -29 -261 -112 -427 -185
-166 -72 -304 -131 -307 -131 -3 0 -29 -11 -58 -24 -87 -39 -547 -236 -636
-273 -46 -18 -107 -44 -135 -58 -29 -13 -212 -92 -407 -175 -506 -215 -523
-223 -545 -237 -11 -7 -26 -13 -34 -13 -22 0 -290 -134 -362 -181 -135 -90
-328 -268 -426 -394 -236 -302 -407 -688 -483 -1090 -47 -253 -45 -13 -45
-4585 l0 -4305 33 -130 c18 -71 40 -140 48 -152 8 -12 14 -27 14 -32 0 -5 13
-39 30 -74 16 -36 30 -70 30 -76 0 -6 4 -11 8 -11 4 0 23 -26 42 -57 50 -85
192 -227 287 -289 46 -30 88 -54 95 -54 7 0 25 -7 40 -14 15 -8 58 -22 95 -31
60 -14 152 -16 823 -12 751 3 796 5 860 37 9 4 31 11 50 15 45 10 193 81 244
117 243 172 385 379 458 666 l22 87 3 3950 3 3950 48 18 c55 22 81 33 102 46
8 5 49 23 90 39 103 42 340 142 370 157 14 7 59 27 100 45 41 17 92 40 113 51
22 10 43 19 47 19 5 0 39 14 77 31 73 32 115 50 233 99 41 17 89 38 105 45 83
38 144 65 149 65 4 0 25 9 49 19 132 60 415 181 422 181 3 0 30 11 58 24 29
13 86 38 127 56 41 18 93 41 115 50 22 10 117 51 210 91 94 39 198 85 233 100
35 16 66 29 70 29 4 0 25 9 47 20 22 11 74 33 115 50 41 17 89 38 105 45 27
13 296 127 465 198 68 28 516 220 565 242 28 13 66 29 85 38 19 8 73 31 120
51 118 52 188 81 235 101 22 9 58 25 80 35 22 10 112 48 200 85 88 37 187 80
221 96 33 15 85 37 115 49 30 11 73 30 96 40 24 11 47 20 52 20 5 0 14 7 21
15 7 8 25 15 41 15 l29 0 3 -5092 c3 -4625 5 -5099 19 -5158 44 -179 109 -312
218 -444 113 -139 305 -279 455 -331 28 -9 59 -21 70 -26 11 -4 55 -15 99 -23
66 -14 180 -16 730 -16 385 1 669 5 696 11 25 5 63 12 85 16 22 3 45 9 50 13
6 4 26 11 45 15 19 4 40 11 45 15 6 5 30 16 55 26 113 45 282 177 377 297 122
152 178 267 221 457 16 70 17 535 22 7213 l5 7139 50 29 c28 16 57 32 65 36 8
4 51 29 95 55 44 27 87 53 95 58 72 42 600 360 690 416 63 38 122 73 130 77 8
4 31 17 51 30 20 12 70 42 110 66 41 24 85 51 99 60 65 41 184 111 186 111 2
0 63 36 136 81 73 44 140 84 148 89 8 5 58 35 110 67 52 32 104 63 115 70 11
7 29 17 40 22 11 6 48 27 82 48 149 91 395 239 411 248 34 19 197 118 232 139
19 13 76 46 125 76 50 29 115 68 145 87 30 19 87 52 125 75 39 22 86 50 105
63 19 12 84 51 143 86 59 35 125 74 145 87 20 12 54 32 76 45 21 12 46 27 55
32 105 65 173 105 177 105 3 0 24 13 47 28 23 16 62 39 87 53 25 13 52 29 61
36 8 7 35 23 60 36 l44 24 3 4504 2 4504 1588 1588 c1071 1072 1593 1587 1605
1585 9 -2 730 -716 1602 -1588 l1585 -1585 0 -4503 0 -4502 48 -23 c26 -12 53
-28 60 -34 12 -12 113 -72 187 -112 16 -9 47 -28 69 -44 21 -15 45 -27 53 -27
7 0 13 -4 13 -10 0 -5 6 -10 14 -10 7 0 30 -13 51 -30 21 -16 44 -30 51 -30 8
0 14 -3 14 -8 0 -4 13 -13 28 -19 15 -7 63 -36 106 -64 43 -27 88 -54 99 -60
12 -5 51 -27 86 -49 34 -22 66 -40 71 -40 4 0 24 -13 45 -30 21 -16 44 -30 51
-30 8 0 14 -4 14 -10 0 -5 5 -10 10 -10 6 0 36 -16 66 -35 30 -19 58 -35 63
-35 4 0 21 -11 37 -25 16 -14 33 -25 38 -25 5 0 37 -18 72 -40 35 -22 68 -40
74 -40 5 0 10 -4 10 -10 0 -5 6 -10 14 -10 7 0 25 -11 40 -25 15 -14 38 -28
51 -31 14 -3 25 -10 25 -15 0 -5 5 -9 10 -9 6 0 35 -15 64 -34 29 -18 62 -37
74 -40 12 -4 22 -12 22 -17 0 -5 7 -9 15 -9 8 0 15 -4 15 -10 0 -5 5 -10 12
-10 10 0 106 -56 118 -70 3 -3 26 -16 53 -29 26 -13 52 -30 58 -38 6 -7 16
-13 22 -13 10 0 108 -58 214 -126 28 -19 56 -34 62 -34 6 0 11 -3 11 -8 0 -4
34 -25 75 -46 41 -21 79 -44 85 -51 5 -6 28 -20 50 -30 22 -10 40 -22 40 -27
0 -4 5 -8 11 -8 15 0 143 -80 147 -92 2 -4 9 -8 16 -8 6 0 63 -31 126 -69 63
-38 149 -89 190 -114 41 -24 163 -97 270 -161 107 -65 256 -154 330 -198 74
-44 151 -90 170 -102 73 -46 241 -146 246 -146 3 0 31 -17 62 -39 31 -21 72
-46 90 -55 l32 -17 0 -7107 c1 -6828 2 -7111 19 -7212 17 -97 60 -233 92 -291
137 -247 339 -430 574 -519 177 -67 126 -63 870 -67 616 -4 689 -3 770 13 50
10 95 21 100 25 6 4 25 10 44 14 18 4 48 15 65 25 17 10 42 21 55 25 81 24
266 174 359 289 131 162 186 283 223 486 18 102 19 239 19 5157 0 3048 4 5054
9 5057 9 6 41 -5 71 -23 8 -5 35 -18 60 -29 40 -18 63 -28 145 -63 11 -4 139
-59 285 -122 146 -63 306 -131 355 -152 119 -50 219 -93 280 -120 28 -12 82
-35 120 -50 39 -15 75 -30 80 -34 6 -4 48 -23 95 -43 47 -20 191 -81 321 -137
130 -56 239 -101 242 -101 3 0 43 -17 89 -39 85 -39 156 -70 313 -136 50 -21
97 -42 105 -46 8 -4 47 -20 85 -37 39 -16 147 -62 240 -102 94 -39 193 -83
222 -96 28 -13 54 -24 58 -24 5 0 177 -74 640 -275 17 -7 64 -27 105 -44 41
-17 89 -38 105 -45 17 -8 38 -17 47 -19 14 -5 235 -100 423 -182 96 -42 171
-74 295 -125 69 -29 136 -58 150 -65 14 -7 66 -29 115 -50 50 -20 127 -54 172
-74 l83 -36 3 -3950 3 -3950 22 -86 c29 -114 68 -220 110 -294 44 -78 171
-236 219 -272 21 -15 40 -30 43 -33 47 -51 260 -171 330 -185 19 -4 40 -11 45
-14 6 -4 37 -14 70 -22 49 -11 200 -14 825 -14 792 0 803 1 883 41 16 8 34 14
41 14 29 0 181 107 251 177 149 149 242 324 309 578 l31 120 0 4300 c0 3508
-2 4317 -13 4390 -48 323 -110 551 -218 790 -130 288 -276 499 -490 706 -174
167 -333 264 -654 399 -41 17 -95 39 -120 50 -63 27 -206 88 -265 115 -27 12
-75 32 -105 45 -63 26 -390 165 -435 185 -112 50 -161 71 -245 104 -52 21
-129 54 -170 73 -41 19 -91 41 -110 48 -19 7 -39 17 -45 21 -5 4 -46 21 -90
39 -44 17 -98 39 -120 49 -33 15 -175 76 -260 112 -11 4 -140 60 -288 124
-147 63 -270 115 -272 115 -3 0 -44 17 -92 38 -49 22 -117 52 -153 67 -36 15
-97 43 -137 61 -40 19 -75 34 -78 34 -3 0 -40 16 -83 34 -136 61 -521 226
-527 226 -4 0 -30 11 -58 24 -29 13 -81 36 -117 51 -36 15 -83 36 -105 46 -22
9 -74 32 -115 49 -101 42 -360 155 -439 191 -35 16 -67 29 -72 29 -5 0 -32 11
-61 24 -29 14 -118 53 -198 87 -80 34 -181 77 -225 96 -44 19 -96 41 -116 48
-20 7 -45 18 -55 23 -28 16 -153 72 -159 72 -3 0 -90 36 -193 81 -103 45 -250
108 -327 140 -77 33 -149 64 -160 69 -34 16 -466 201 -530 227 -33 13 -78 33
-100 43 -57 28 -317 137 -404 171 -41 15 -78 34 -83 41 -4 7 -8 292 -8 633 0
663 -8 835 -50 1030 -97 452 -343 870 -684 1164 -94 81 -320 238 -449 312 -40
23 -106 63 -147 89 -81 51 -110 68 -210 126 -36 21 -95 57 -132 81 -36 24 -68
43 -71 43 -2 0 -64 37 -138 81 -74 45 -159 96 -189 114 -30 17 -109 65 -175
105 -151 92 -199 121 -327 194 -57 33 -380 226 -718 429 -879 528 -927 557
-939 557 -6 0 -13 10 -16 23 -3 12 -7 1777 -8 3922 l-3 3900 -21 125 c-64 377
-187 668 -412 975 -60 81 -556 583 -2670 2697 -2284 2284 -2606 2603 -2681
2651 -230 148 -459 199 -750 166z"/>
<path d="M18925 12810 c-251 -18 -384 -37 -640 -92 -244 -51 -532 -146 -735
-240 -162 -76 -347 -172 -411 -213 -38 -25 -71 -45 -74 -45 -11 0 -172 -105
-241 -157 -43 -33 -114 -85 -156 -116 -188 -138 -567 -512 -712 -702 -33 -44
-78 -102 -101 -130 -166 -206 -411 -638 -545 -960 -34 -82 -66 -159 -71 -170
-18 -40 -89 -268 -89 -286 0 -10 -4 -21 -10 -24 -11 -7 -15 -22 -59 -215 -54
-236 -69 -313 -81 -410 -7 -52 -19 -144 -28 -205 -14 -98 -16 -512 -19 -3940
-3 -2912 -1 -3851 8 -3920 18 -141 57 -255 135 -395 33 -60 162 -210 221 -259
32 -25 66 -53 76 -63 32 -28 240 -136 277 -143 19 -4 40 -11 45 -15 6 -4 47
-15 93 -24 75 -15 369 -16 3392 -16 2979 0 3317 2 3387 16 43 9 85 19 93 24 9
4 31 11 50 15 44 10 174 73 237 116 207 141 353 329 429 554 58 172 54 -99 54
4099 0 4028 0 3979 -40 4266 -89 624 -312 1214 -658 1740 -261 396 -577 738
-952 1031 -104 81 -411 289 -469 318 -20 10 -54 28 -76 41 -65 38 -313 160
-325 160 -6 0 -21 6 -33 14 -25 17 -260 107 -357 137 -36 12 -76 25 -90 31
-63 25 -358 97 -490 118 -30 5 -82 14 -115 19 -223 38 -678 58 -920 41z"/>
</g>
</svg>
