<?xml version="1.0" standalone="no"?>
<!DOCTYPE svg PUBLIC "-//W3C//DTD SVG 20010904//EN"
 "http://www.w3.org/TR/2001/REC-SVG-20010904/DTD/svg10.dtd">
<svg version="1.0" xmlns="http://www.w3.org/2000/svg"
 width="3840.000000pt" height="3074.000000pt" viewBox="0 0 3840.000000 3074.000000"
 preserveAspectRatio="xMidYMid meet">
<metadata>
Created by potrace 1.16, written by Peter Selinger 2001-2019
</metadata>
<g transform="translate(0.000000,3074.000000) scale(0.100000,-0.100000)"
fill="#000000" stroke="none">
<path d="M18960 30674 c-585 -51 -915 -134 -1470 -369 -69 -29 -192 -80 -275
-114 -82 -34 -175 -73 -205 -86 -53 -23 -171 -72 -505 -210 -88 -36 -185 -77
-215 -90 -30 -13 -122 -52 -205 -86 -263 -108 -458 -189 -520 -216 -33 -14
-69 -29 -80 -34 -59 -24 -406 -168 -630 -262 -71 -30 -193 -80 -270 -112 -77
-31 -169 -70 -205 -85 -82 -35 -302 -127 -540 -225 -102 -42 -264 -109 -360
-150 -96 -40 -213 -89 -260 -108 -170 -69 -338 -140 -485 -202 -82 -35 -188
-79 -235 -98 -47 -19 -200 -83 -340 -142 -140 -59 -298 -124 -350 -145 -52
-22 -210 -87 -350 -145 -305 -128 -448 -187 -595 -248 -60 -25 -171 -71 -245
-103 -74 -31 -187 -78 -250 -104 -63 -26 -171 -71 -240 -99 -69 -29 -163 -68
-210 -87 -47 -19 -114 -48 -150 -64 -36 -16 -121 -52 -190 -80 -69 -28 -134
-55 -145 -60 -11 -5 -72 -30 -135 -56 -63 -25 -160 -66 -215 -90 -55 -23 -167
-71 -250 -104 -82 -34 -231 -96 -330 -137 -163 -67 -263 -109 -740 -308 -82
-34 -244 -102 -360 -150 -611 -254 -913 -380 -1070 -446 -77 -32 -144 -59
-147 -59 -4 0 -35 -13 -70 -29 -35 -16 -124 -54 -198 -85 -74 -30 -238 -99
-365 -151 -126 -53 -293 -123 -370 -155 -141 -58 -402 -167 -595 -247 -58 -24
-152 -64 -210 -87 -58 -24 -175 -73 -260 -109 -85 -35 -238 -99 -340 -142
-179 -74 -458 -191 -530 -221 -40 -18 -39 -17 -185 -77 -60 -25 -191 -80 -290
-121 -99 -42 -184 -76 -188 -76 -5 0 -64 -27 -133 -60 -68 -33 -128 -60 -132
-60 -4 0 -53 -26 -109 -59 -55 -32 -109 -61 -118 -65 -10 -3 -56 -32 -104 -63
-47 -31 -117 -76 -156 -101 -319 -208 -723 -595 -961 -920 -35 -48 -77 -105
-93 -127 -151 -207 -405 -699 -474 -920 -9 -27 -30 -89 -46 -136 -74 -214
-131 -471 -174 -789 l-21 -155 -3 -9835 c-3 -7031 -1 -9859 7 -9920 13 -102
62 -251 112 -340 98 -176 294 -345 490 -423 152 -61 140 -60 789 -64 567 -4
601 -3 692 16 100 21 216 63 277 100 19 11 44 25 55 30 37 16 191 158 242 222
85 108 135 210 181 374 16 56 17 713 22 9865 5 9408 6 9808 23 9890 53 251
177 474 358 646 123 116 233 183 452 275 67 28 136 57 152 64 17 7 64 27 105
44 172 69 399 164 448 187 29 13 55 24 59 24 3 0 69 27 147 59 78 33 245 103
371 156 127 53 239 100 250 104 11 5 70 29 130 54 61 25 182 76 270 113 88 37
208 86 268 110 59 24 115 48 125 53 9 5 53 24 97 41 44 18 108 45 142 61 35
16 68 29 74 29 6 0 23 6 37 14 15 8 47 22 72 31 25 9 53 21 62 26 10 5 63 27
118 49 55 22 108 44 118 49 9 5 83 37 165 70 198 82 428 177 507 211 36 15
126 52 200 83 188 77 467 193 715 297 241 101 530 221 690 287 61 24 151 62
200 83 50 21 160 68 245 104 147 61 233 97 535 221 184 76 345 143 530 220 88
37 185 78 215 90 249 104 393 163 565 234 110 46 218 91 240 101 22 10 78 34
125 53 117 47 568 235 605 252 17 7 77 32 135 55 58 23 130 53 160 67 30 14
82 36 115 48 66 26 268 110 300 125 11 5 72 30 135 56 63 25 140 57 170 71 30
14 87 37 125 52 39 15 126 51 195 80 69 29 150 63 180 76 30 13 127 53 215 90
88 36 225 94 305 127 80 33 170 70 200 83 30 13 120 51 200 84 379 156 469
193 520 215 30 14 120 51 200 84 80 33 244 101 365 152 121 50 238 99 260 108
22 8 63 25 90 37 28 13 74 32 103 44 115 47 159 65 207 86 28 12 68 29 90 37
22 9 137 57 255 106 118 50 280 117 360 150 80 33 228 95 330 138 205 85 367
152 540 224 63 26 241 100 395 165 154 65 314 128 355 141 125 39 269 57 400
51 197 -10 327 -47 665 -189 174 -74 503 -211 700 -293 88 -36 250 -104 360
-150 110 -46 272 -113 360 -150 88 -36 252 -105 365 -152 113 -47 270 -112
350 -145 80 -33 174 -72 210 -88 63 -28 202 -86 510 -212 80 -33 159 -66 175
-73 34 -16 308 -131 430 -180 136 -55 737 -305 795 -330 30 -14 127 -54 215
-90 322 -133 452 -188 537 -226 47 -21 89 -39 92 -39 6 0 233 -93 271 -111 11
-5 92 -39 180 -75 88 -36 214 -89 280 -116 66 -28 156 -65 200 -83 44 -18 152
-63 240 -100 88 -37 212 -89 275 -115 63 -27 225 -94 360 -150 135 -56 297
-124 360 -150 63 -26 185 -77 270 -112 85 -36 234 -98 330 -137 96 -40 199
-83 228 -97 29 -13 55 -24 57 -24 3 0 108 -43 233 -96 125 -52 291 -122 370
-155 329 -136 435 -180 582 -242 85 -36 206 -86 268 -111 63 -26 198 -82 300
-125 178 -75 426 -179 667 -278 114 -47 305 -128 340 -143 11 -5 61 -25 110
-45 50 -20 99 -40 110 -45 32 -14 440 -184 565 -235 63 -26 138 -58 167 -71
28 -13 55 -24 59 -24 4 0 28 -9 53 -21 83 -37 105 -46 216 -92 61 -25 207 -86
325 -135 118 -49 283 -118 365 -152 83 -34 247 -102 365 -152 118 -49 280
-116 360 -149 80 -33 208 -87 285 -119 77 -32 239 -100 360 -150 563 -234 684
-289 790 -365 244 -174 403 -413 483 -725 l27 -105 5 -9810 5 -9810 22 -79
c51 -179 119 -299 236 -419 94 -96 126 -121 211 -172 97 -57 193 -94 305 -117
88 -18 133 -19 690 -15 571 3 599 4 672 25 85 23 181 61 231 92 18 11 42 24
53 29 38 17 180 148 236 217 92 113 149 231 186 384 17 72 18 438 18 9930 0
9488 -1 9861 -18 10010 -25 205 -62 423 -93 540 -8 30 -26 96 -39 145 -33 123
-107 336 -168 480 -101 240 -304 606 -419 758 -24 31 -63 85 -88 119 -117 164
-394 459 -590 629 -158 137 -392 305 -565 407 -253 148 -370 203 -970 451 -82
35 -174 73 -203 87 -29 13 -55 24 -58 24 -4 0 -74 29 -158 64 -83 35 -187 79
-231 97 -44 18 -127 52 -185 76 -58 25 -154 65 -215 90 -60 24 -134 56 -164
70 -30 13 -70 30 -90 37 -20 8 -108 44 -196 80 -88 37 -209 88 -270 112 -60
25 -138 59 -173 75 -35 16 -67 29 -71 29 -5 0 -35 12 -67 26 -53 23 -175 74
-334 139 -30 12 -154 64 -275 115 -121 51 -256 107 -300 125 -100 40 -393 162
-420 175 -11 5 -60 25 -110 46 -49 20 -104 42 -121 50 -31 13 -202 84 -364
151 -47 19 -98 41 -115 48 -28 13 -241 102 -515 215 -69 29 -150 62 -180 75
-30 13 -138 58 -240 100 -102 43 -239 100 -305 127 -66 28 -145 61 -175 73
-337 140 -780 324 -805 335 -19 9 -99 42 -515 215 -102 42 -198 82 -215 90
-16 7 -136 57 -265 110 -129 53 -275 114 -325 135 -149 64 -405 171 -485 201
-41 16 -84 34 -95 39 -11 5 -78 34 -150 64 -71 29 -191 79 -265 111 -74 32
-157 66 -185 77 -27 11 -117 48 -200 83 -197 83 -439 184 -600 250 -71 29
-175 72 -230 95 -55 23 -152 63 -215 90 -63 26 -131 54 -150 63 -19 9 -102 44
-185 77 -228 93 -433 178 -505 210 -36 16 -126 53 -200 84 -294 120 -457 188
-510 211 -30 13 -127 54 -215 90 -88 36 -169 70 -180 75 -11 5 -76 32 -145 60
-69 28 -160 66 -202 85 -43 19 -80 35 -83 35 -7 0 -301 123 -373 156 -29 13
-55 24 -58 24 -3 0 -76 30 -162 66 -86 36 -222 93 -302 126 -80 33 -169 71
-198 84 -29 13 -55 24 -58 24 -5 0 -71 27 -494 205 -101 43 -234 97 -295 121
-60 25 -119 49 -130 54 -41 19 -272 108 -345 132 -305 102 -544 155 -870 194
-127 15 -579 27 -680 18z"/>
<path d="M8025 19190 c-680 -46 -1333 -402 -1742 -951 -242 -325 -384 -664
-455 -1086 l-22 -128 -3 -8023 c-3 -7130 -2 -8035 12 -8125 16 -109 62 -243
107 -318 15 -25 28 -49 28 -53 0 -3 30 -42 67 -86 142 -170 307 -275 533 -338
46 -13 155 -16 649 -19 522 -4 604 -2 680 13 166 31 295 88 412 182 201 159
314 339 364 580 13 65 15 914 15 7783 l0 7709 10530 0 10530 0 0 -7709 c0
-7069 1 -7715 16 -7787 20 -96 72 -235 112 -299 152 -244 394 -411 665 -460
80 -14 166 -16 682 -12 623 4 595 2 746 51 59 18 155 63 194 90 68 47 196 159
222 194 15 20 37 48 49 62 28 31 114 198 137 266 9 28 24 95 32 150 14 89 15
911 13 8114 l-3 8015 -22 136 c-25 156 -26 158 -64 299 -120 442 -378 855
-719 1154 -362 316 -744 495 -1240 579 l-125 21 -11145 2 c-6130 0 -11194 -2
-11255 -6z"/>
<path d="M16975 14430 c-140 -8 -409 -43 -510 -65 -38 -9 -88 -20 -110 -25
-22 -5 -65 -14 -95 -21 -30 -6 -89 -22 -130 -36 -41 -13 -100 -30 -130 -39
-85 -25 -170 -55 -225 -79 -27 -12 -84 -35 -125 -50 -87 -33 -370 -175 -484
-243 -43 -26 -98 -59 -123 -73 -81 -47 -328 -227 -433 -315 -132 -112 -352
-326 -450 -438 -52 -60 -99 -114 -105 -120 -24 -27 -85 -107 -130 -171 -27
-38 -53 -74 -57 -80 -48 -60 -198 -294 -198 -309 0 -2 -17 -33 -38 -67 -109
-184 -264 -553 -327 -776 -14 -48 -29 -102 -35 -120 -13 -39 -40 -136 -50
-183 -4 -19 -18 -73 -30 -120 -13 -47 -26 -101 -30 -120 -4 -19 -18 -73 -30
-120 -13 -47 -26 -101 -30 -120 -5 -19 -126 -503 -270 -1075 -144 -572 -265
-1061 -269 -1087 -7 -46 -33 -88 -55 -88 -16 0 -239 -93 -325 -135 -515 -253
-951 -669 -1233 -1174 -32 -57 -58 -106 -58 -107 0 -2 -19 -42 -42 -91 -49
-105 -98 -239 -152 -413 -14 -46 -33 -128 -59 -260 -40 -195 -42 -258 -42
-1205 0 -989 -3 -924 50 -1123 15 -56 53 -156 88 -232 33 -71 128 -219 172
-270 28 -31 59 -68 71 -81 70 -81 346 -289 383 -289 6 0 27 -9 48 -19 21 -11
59 -29 85 -40 l47 -20 4 -1068 c4 -1174 1 -1122 66 -1289 38 -97 69 -150 146
-249 100 -128 271 -253 422 -306 157 -56 81 -53 1245 -56 1040 -3 1080 -3
1171 16 186 39 333 113 464 235 146 135 224 263 286 471 21 69 21 87 24 1108
l4 1037 3829 0 3829 0 4 -1038 c4 -1118 1 -1059 56 -1206 76 -204 222 -376
416 -490 109 -65 202 -100 316 -121 75 -14 216 -15 1160 -13 854 3 1082 6
1114 17 22 7 69 22 104 32 260 80 499 309 596 575 61 166 59 121 63 1282 l3
1063 27 10 c15 6 54 24 87 39 33 15 67 31 75 34 8 3 29 15 45 26 17 11 37 23
45 27 70 31 248 187 341 298 132 156 241 376 295 595 l29 115 3 880 c4 925 -1
1047 -44 1255 -9 41 -20 98 -26 125 -44 226 -195 601 -334 831 -346 571 -888
1014 -1494 1220 -58 20 -108 39 -113 43 -9 8 -37 112 -82 301 -7 30 -24 100
-38 155 -14 55 -37 147 -51 205 -14 58 -33 130 -41 160 -8 30 -27 102 -41 160
-14 58 -33 132 -41 165 -8 33 -19 76 -23 95 -4 19 -18 73 -30 120 -13 47 -26
101 -30 120 -4 19 -18 73 -30 120 -13 47 -26 101 -30 120 -4 19 -18 73 -30
120 -13 47 -26 101 -30 120 -4 19 -18 73 -30 120 -13 47 -26 101 -30 120 -4
19 -18 73 -30 120 -13 47 -26 101 -30 120 -39 183 -172 650 -214 755 -14 33
-40 101 -60 151 -46 120 -186 402 -264 532 -34 57 -62 105 -62 107 0 4 -51 79
-144 212 -233 329 -623 716 -961 953 -241 168 -492 310 -740 417 -205 89 -544
199 -730 238 -44 9 -105 23 -135 30 -85 21 -369 56 -530 65 -175 10 -4194 10
-4365 0z m4405 -2897 c180 -49 271 -89 400 -176 224 -150 411 -388 494 -628
22 -64 463 -1800 486 -1914 5 -22 13 -53 19 -68 6 -16 11 -39 11 -53 l0 -24
-3619 0 c-1991 0 -3622 3 -3624 8 -7 11 484 1965 517 2056 107 303 377 594
661 715 44 19 85 38 90 42 13 10 161 48 250 64 56 11 471 13 2135 11 l2065 -2
115 -31z m-7260 -5002 c244 -72 467 -217 716 -465 414 -415 614 -879 503
-1171 -30 -81 -128 -180 -220 -223 -183 -86 -366 -105 -924 -99 -434 5 -452 6
-597 51 -59 18 -176 77 -233 116 -112 77 -233 226 -292 358 -67 151 -87 262
-87 467 0 257 42 415 158 594 142 220 387 364 671 395 78 8 240 -4 305 -23z
m10578 4 c366 -83 614 -339 699 -723 22 -97 24 -388 5 -477 -90 -408 -322
-651 -707 -741 -108 -25 -846 -32 -1052 -10 -256 28 -383 76 -494 186 -93 92
-113 146 -113 305 0 140 19 222 87 375 96 214 236 410 441 616 180 179 338
299 513 387 82 42 227 90 303 100 59 9 247 -3 318 -18z"/>
</g>
</svg>
