<?xml version="1.0" standalone="no"?>
<!DOCTYPE svg PUBLIC "-//W3C//DTD SVG 20010904//EN"
 "http://www.w3.org/TR/2001/REC-SVG-20010904/DTD/svg10.dtd">
<svg version="1.0" xmlns="http://www.w3.org/2000/svg"
 width="3840.000000pt" height="3840.000000pt" viewBox="0 0 3840.000000 3840.000000"
 preserveAspectRatio="xMidYMid meet">
<metadata>
Created by potrace 1.16, written by Peter Selinger 2001-2019
</metadata>
<g transform="translate(0.000000,3840.000000) scale(0.100000,-0.100000)"
fill="#000000" stroke="none">
<path d="M23650 38323 c-384 -5 -990 -23 -1265 -38 -602 -32 -674 -36 -785
-45 -63 -6 -286 -24 -495 -40 -379 -30 -512 -43 -805 -80 -85 -11 -258 -31
-385 -45 -234 -26 -339 -41 -685 -94 -107 -17 -287 -44 -400 -61 -113 -17
-236 -38 -275 -46 -38 -8 -108 -22 -155 -29 -47 -8 -116 -21 -155 -29 -38 -8
-171 -34 -295 -56 -269 -50 -328 -62 -485 -100 -66 -16 -169 -41 -230 -54
-521 -117 -544 -123 -1140 -290 -66 -18 -156 -43 -200 -55 -44 -12 -210 -64
-370 -116 -159 -51 -342 -110 -405 -130 -63 -19 -198 -67 -300 -106 -102 -38
-292 -110 -422 -160 -130 -49 -305 -119 -388 -154 -83 -36 -152 -65 -155 -65
-23 0 -705 -327 -855 -410 -47 -26 -123 -67 -170 -92 -190 -101 -574 -331
-710 -425 -19 -14 -82 -57 -140 -96 -217 -147 -530 -390 -730 -566 -288 -255
-623 -620 -744 -809 -45 -71 -156 -290 -156 -309 0 -5 -9 -28 -20 -51 -11 -22
-20 -50 -20 -60 0 -11 -6 -35 -14 -53 -8 -19 -23 -83 -34 -144 -119 -634 134
-1279 668 -1704 300 -239 714 -381 1109 -381 284 0 541 60 785 181 204 102
343 211 528 416 144 159 260 273 338 334 30 24 96 75 145 115 127 100 444 306
615 398 80 44 192 105 250 137 58 31 150 76 204 98 55 23 104 45 110 50 48 38
678 295 991 403 370 128 461 157 740 238 61 17 171 50 245 72 74 22 151 44
170 48 19 4 64 15 100 24 109 28 172 43 240 60 36 9 135 34 220 55 85 22 223
53 305 71 83 17 229 49 326 70 164 36 342 69 484 91 33 5 119 20 190 34 171
33 384 68 570 95 83 12 206 30 275 40 215 32 425 59 715 91 452 50 628 66 995
93 118 9 271 21 340 26 69 6 229 15 355 20 127 6 311 15 410 20 311 18 413 20
1115 27 664 6 790 4 1535 -28 212 -8 663 -34 960 -54 87 -6 254 -20 410 -35
55 -5 152 -14 215 -20 274 -25 1087 -124 1240 -150 30 -5 116 -19 190 -30 388
-60 376 -58 845 -149 55 -11 141 -27 190 -36 134 -24 280 -54 365 -75 41 -10
147 -35 235 -55 88 -20 241 -56 340 -80 179 -43 279 -70 540 -145 39 -11 123
-34 188 -50 158 -41 910 -291 1122 -374 94 -37 224 -87 290 -113 161 -62 732
-319 830 -373 17 -9 80 -43 140 -75 185 -98 205 -109 370 -210 202 -123 216
-133 415 -284 274 -208 437 -389 498 -553 23 -63 24 -73 13 -121 -32 -142
-301 -460 -552 -650 -196 -150 -401 -288 -549 -372 -47 -26 -101 -58 -120 -70
-60 -38 -338 -179 -506 -258 -192 -90 -354 -158 -729 -307 -55 -22 -221 -82
-370 -135 -286 -101 -400 -152 -530 -237 -196 -127 -380 -310 -512 -508 -133
-201 -230 -431 -280 -670 -24 -112 -26 -147 -27 -345 0 -189 3 -235 22 -326
24 -117 54 -216 77 -257 8 -15 34 -70 58 -122 133 -290 422 -618 714 -811 98
-65 127 -80 277 -149 204 -93 494 -150 691 -136 126 9 210 31 530 142 154 53
300 102 325 110 44 13 101 34 245 89 39 15 90 33 115 39 25 7 78 27 118 45 40
18 112 47 160 66 48 18 117 47 152 63 36 16 94 42 130 57 85 35 390 187 396
197 3 4 12 8 20 8 8 0 38 16 66 35 28 20 59 34 67 33 15 -3 16 -158 19 -1643
l2 -1640 -22 -55 c-75 -187 -331 -459 -642 -683 -90 -64 -333 -227 -340 -227
-3 0 -26 -13 -53 -29 -154 -92 -235 -137 -388 -215 -93 -48 -196 -99 -228
-112 -32 -14 -95 -42 -140 -63 -128 -61 -376 -163 -557 -231 -91 -33 -185 -70
-210 -80 -25 -11 -139 -51 -254 -90 -357 -119 -513 -203 -772 -415 -79 -64
-248 -252 -325 -360 -82 -115 -197 -344 -239 -475 -77 -240 -109 -495 -91
-722 21 -247 61 -398 159 -588 129 -252 294 -456 506 -625 226 -180 441 -286
714 -349 176 -41 260 -50 489 -48 319 1 443 28 738 159 50 22 122 53 160 68
39 15 93 37 120 50 63 30 190 81 275 110 36 12 99 38 140 57 74 34 125 56 226
97 28 11 80 34 115 50 35 16 93 41 128 56 34 14 100 45 145 69 44 23 90 47
101 53 11 5 38 18 60 28 22 11 66 34 97 53 48 29 60 32 73 22 13 -11 15 -200
15 -1645 l0 -1632 -22 -54 c-22 -55 -98 -181 -125 -207 -8 -8 -45 -52 -83 -97
-165 -195 -520 -469 -885 -682 -149 -87 -425 -235 -496 -267 -30 -13 -83 -38
-119 -56 -64 -31 -547 -240 -556 -240 -6 0 -183 -69 -223 -87 -18 -8 -45 -19
-60 -23 -59 -18 -402 -140 -491 -174 -310 -121 -601 -353 -801 -641 -138 -199
-250 -465 -301 -715 -19 -99 -23 -145 -22 -330 0 -182 3 -231 22 -321 26 -126
51 -206 85 -274 14 -27 41 -84 60 -125 31 -68 125 -221 192 -310 71 -94 208
-241 304 -322 94 -81 287 -218 307 -218 4 0 15 -6 23 -14 23 -20 234 -110 326
-140 164 -52 379 -82 515 -71 129 10 206 29 430 105 113 39 261 89 330 111
121 39 177 60 268 100 23 10 51 19 60 19 10 0 22 4 27 9 6 5 58 25 117 45 59
19 115 40 125 45 29 16 163 72 313 131 58 23 116 48 130 55 14 7 72 33 130 58
333 142 823 392 1148 585 59 35 127 75 152 89 25 14 84 52 132 84 49 33 90 59
93 59 3 0 27 15 53 33 26 19 85 60 132 92 145 99 378 277 540 412 194 162 539
502 703 693 156 182 357 457 450 615 38 66 89 152 112 190 52 87 180 358 211
447 13 36 38 102 55 145 53 132 134 424 149 538 5 33 13 80 19 105 6 25 21
122 33 215 l23 170 0 7940 c0 6091 -3 7976 -12 8093 -21 266 -75 554 -155 827
-65 222 -266 672 -380 855 -138 219 -195 302 -307 448 -229 301 -517 601 -842
879 -185 158 -507 403 -668 510 -53 34 -121 79 -151 100 -120 83 -489 303
-725 431 -110 60 -476 242 -625 311 -52 24 -126 58 -165 76 -38 18 -135 61
-215 95 -80 34 -154 65 -165 70 -11 5 -47 20 -80 33 -33 14 -104 44 -158 66
-54 23 -102 41 -107 41 -6 0 -18 4 -28 10 -9 5 -48 21 -87 35 -38 14 -92 34
-120 45 -27 10 -95 34 -150 53 -55 19 -176 62 -270 95 -175 62 -261 90 -495
162 -183 56 -241 74 -335 100 -44 12 -96 28 -115 35 -19 7 -73 22 -120 34 -47
12 -109 29 -138 37 -197 57 -1024 260 -1192 293 -30 6 -212 43 -405 82 -192
40 -368 75 -390 79 -220 40 -534 92 -730 121 -38 5 -92 14 -120 19 -27 5 -84
14 -125 20 -41 6 -115 17 -165 25 -49 8 -130 19 -180 25 -49 5 -157 19 -240
30 -82 11 -208 27 -280 35 -71 7 -188 21 -260 29 -71 9 -168 21 -215 26 -143
17 -773 71 -1060 90 -91 6 -219 15 -285 20 -377 30 -1812 75 -2135 68 -47 -2
-173 -4 -280 -5z"/>
<path d="M13710 28680 c-441 -9 -1062 -33 -1305 -51 -77 -5 -277 -18 -445 -29
-398 -26 -760 -58 -1200 -106 -124 -14 -265 -29 -314 -35 -48 -5 -177 -21
-285 -35 -108 -14 -230 -29 -271 -34 -41 -5 -151 -20 -245 -35 -93 -14 -260
-39 -370 -55 -110 -17 -234 -37 -275 -45 -41 -8 -158 -28 -260 -45 -162 -27
-287 -51 -745 -141 -352 -70 -1197 -272 -1437 -343 -62 -19 -158 -46 -213 -61
-732 -197 -1859 -604 -2370 -855 -55 -27 -156 -75 -225 -106 -119 -55 -168
-80 -460 -232 -69 -36 -213 -117 -320 -180 -167 -98 -233 -139 -354 -215 -233
-147 -599 -410 -746 -536 -36 -31 -103 -88 -150 -126 -293 -238 -704 -686
-924 -1005 -172 -250 -361 -598 -441 -810 -20 -52 -49 -129 -65 -170 -58 -149
-124 -410 -161 -633 -61 -370 -58 58 -58 -8387 0 -8453 -4 -8000 59 -8373 38
-231 120 -540 180 -682 5 -11 21 -51 35 -90 47 -126 65 -165 155 -341 172
-335 395 -655 680 -974 143 -161 420 -431 580 -565 46 -38 115 -98 154 -131
39 -34 121 -97 182 -141 61 -44 138 -100 170 -125 94 -72 520 -354 589 -390
17 -8 107 -61 200 -116 94 -55 227 -130 295 -166 180 -96 691 -345 802 -392
35 -14 77 -32 93 -39 17 -8 64 -28 105 -46 41 -17 111 -47 155 -66 44 -19 125
-52 180 -73 135 -51 221 -85 339 -132 54 -22 157 -59 230 -83 72 -24 156 -53
186 -65 61 -24 166 -59 340 -114 63 -19 192 -60 285 -90 94 -29 204 -63 245
-74 41 -12 145 -42 230 -66 194 -56 318 -89 490 -131 74 -18 216 -53 315 -78
99 -24 227 -54 285 -66 58 -13 159 -36 225 -52 160 -38 625 -131 822 -164 87
-14 212 -37 278 -50 104 -21 283 -51 515 -87 36 -5 90 -13 120 -18 501 -77
1298 -174 1775 -215 263 -23 645 -53 760 -60 55 -3 206 -12 335 -20 1221 -77
2548 -80 3755 -9 138 8 326 19 418 24 155 10 347 24 837 65 102 8 304 29 450
45 146 17 303 35 350 40 238 25 738 92 975 130 275 44 523 83 575 90 30 4 91
15 135 23 44 9 166 33 270 53 290 55 562 109 765 154 52 12 120 26 150 31 55
11 341 80 415 100 22 7 69 18 105 26 36 8 92 21 125 28 33 8 83 20 110 28 113
34 283 80 320 88 22 4 78 20 125 34 114 35 156 47 285 84 317 92 738 233 1165
389 192 70 551 214 669 268 31 15 90 39 131 56 178 69 910 430 1093 539 32 19
144 85 250 148 679 401 1295 894 1725 1381 85 96 180 209 211 250 31 41 86
113 122 160 216 284 512 860 594 1157 42 150 54 195 78 293 26 105 57 286 79
455 17 127 24 15850 8 16135 -19 339 -98 748 -194 1008 -104 282 -232 557
-336 722 -25 41 -75 120 -109 175 -250 397 -681 861 -1177 1267 -246 201 -709
517 -1031 705 -337 196 -1018 538 -1253 629 -47 18 -114 47 -149 64 -35 18
-94 43 -130 56 -72 27 -234 91 -266 104 -11 5 -76 30 -145 55 -69 26 -168 64
-220 84 -52 21 -122 46 -155 56 -33 10 -112 35 -175 57 -63 22 -133 46 -155
53 -59 20 -406 129 -505 158 -47 14 -130 39 -185 55 -55 17 -138 40 -185 52
-47 13 -105 28 -130 35 -25 7 -83 23 -130 35 -47 12 -116 30 -155 41 -60 16
-234 58 -470 114 -237 55 -529 119 -685 150 -47 9 -114 23 -150 30 -89 19
-420 82 -500 95 -93 14 -286 48 -345 60 -27 6 -140 23 -250 40 -110 16 -274
40 -365 54 -91 14 -201 30 -245 35 -163 21 -563 70 -655 81 -52 6 -133 15
-180 20 -387 44 -817 83 -1240 110 -168 11 -368 24 -445 30 -591 42 -1908 66
-2725 50z m1755 -3519 c337 -14 628 -28 830 -41 381 -25 472 -31 640 -45 246
-20 503 -44 605 -55 261 -30 566 -66 820 -99 191 -25 193 -25 675 -103 109
-17 567 -103 820 -153 39 -7 108 -21 155 -30 141 -27 394 -85 485 -110 28 -8
77 -19 110 -24 63 -12 320 -76 440 -111 39 -11 107 -29 153 -40 45 -11 108
-28 140 -39 31 -10 93 -29 137 -40 133 -36 841 -265 970 -314 22 -9 70 -27
108 -41 73 -28 121 -47 335 -130 160 -63 312 -128 477 -206 61 -29 132 -61
160 -72 43 -17 183 -89 509 -263 49 -27 123 -69 165 -96 42 -26 114 -71 161
-100 85 -52 244 -166 375 -268 39 -30 126 -111 195 -180 183 -185 265 -335
245 -451 -9 -55 -64 -164 -119 -237 -53 -70 -266 -278 -347 -339 -123 -91
-207 -152 -249 -181 -161 -108 -344 -218 -495 -298 -60 -32 -148 -79 -195
-106 -47 -26 -170 -86 -275 -134 -104 -48 -226 -104 -270 -124 -74 -35 -210
-90 -585 -237 -161 -63 -499 -181 -719 -250 -80 -25 -152 -49 -160 -53 -9 -5
-61 -21 -116 -36 -55 -15 -152 -42 -215 -61 -316 -91 -489 -138 -680 -184 -96
-23 -209 -50 -250 -59 -41 -10 -109 -26 -150 -35 -41 -9 -131 -29 -200 -45
-69 -16 -233 -50 -365 -75 -132 -26 -334 -64 -450 -86 -115 -22 -291 -51 -390
-65 -99 -14 -208 -29 -242 -35 -333 -54 -523 -80 -833 -115 -967 -108 -1432
-141 -2660 -185 -351 -12 -1210 -12 -1580 1 -687 23 -1301 54 -1585 79 -66 6
-172 15 -235 20 -189 16 -498 47 -790 80 -253 28 -393 47 -620 85 -47 8 -123
19 -170 24 -120 13 -502 69 -553 81 -60 15 -567 110 -692 131 -74 13 -320 67
-565 124 -63 15 -140 33 -170 40 -308 71 -474 114 -705 182 -55 17 -138 40
-185 52 -155 41 -221 62 -625 197 -220 73 -503 174 -630 225 -126 50 -270 107
-320 127 -49 20 -158 69 -241 109 -84 40 -157 73 -164 73 -15 0 -347 166 -440
220 -36 21 -97 53 -137 73 -39 19 -97 53 -130 75 -32 21 -110 70 -173 108
-193 115 -448 314 -596 465 -187 192 -258 322 -240 444 9 57 63 167 120 242
55 72 279 291 345 335 25 18 82 60 126 94 44 34 127 91 185 127 58 36 143 90
189 119 104 66 133 82 394 220 197 104 253 131 527 252 58 26 132 60 165 75
33 15 85 37 115 48 56 22 172 67 380 150 114 45 908 313 1005 339 28 7 82 22
120 33 60 18 245 70 530 151 39 10 113 29 165 40 52 12 120 27 150 35 30 7 80
19 110 26 112 24 167 37 245 58 115 31 317 73 575 121 124 22 331 61 460 85
129 25 323 58 430 75 107 17 222 35 255 40 33 5 150 21 260 35 110 14 229 29
265 34 36 6 108 15 160 20 52 6 152 18 221 26 132 16 177 21 624 60 273 24
340 28 820 59 209 13 479 25 995 45 277 10 1545 5 1865 -8z m-11715 -7494 c30
-18 84 -46 120 -61 36 -16 122 -57 192 -92 70 -35 167 -80 215 -100 49 -20
108 -45 131 -56 24 -11 78 -33 120 -50 43 -17 102 -43 132 -58 59 -28 86 -39
305 -120 77 -29 174 -66 215 -83 89 -36 740 -258 855 -292 44 -13 121 -35 170
-49 50 -14 149 -44 220 -66 72 -22 263 -75 425 -117 162 -42 354 -91 425 -110
72 -18 173 -42 225 -52 52 -11 169 -38 260 -59 158 -38 219 -51 585 -123 88
-17 192 -37 230 -45 200 -41 624 -112 970 -164 77 -12 196 -30 265 -40 69 -11
220 -31 335 -45 116 -14 244 -29 285 -35 524 -69 1303 -137 2060 -180 745 -42
1119 -52 1920 -52 813 0 1214 11 1945 53 323 18 967 66 1215 89 209 19 508 50
625 65 66 8 197 24 290 35 367 44 501 62 740 100 33 5 152 23 265 40 113 17
239 37 280 45 41 7 131 23 200 35 230 39 607 111 790 151 52 11 138 29 190 40
248 53 743 170 925 220 39 10 115 30 170 44 55 13 138 36 185 50 103 31 197
58 375 109 104 30 262 79 310 96 28 10 131 44 230 76 99 32 281 96 405 141
124 46 272 101 330 123 111 40 503 202 605 249 108 50 133 61 140 61 4 0 78
34 164 76 86 42 176 86 201 98 25 11 71 36 104 56 56 33 59 34 72 15 12 -16
14 -267 12 -1670 -3 -1848 4 -1669 -79 -1806 -49 -81 -160 -203 -297 -325
-184 -164 -543 -404 -837 -559 -60 -32 -153 -81 -205 -110 -104 -57 -664 -313
-800 -365 -47 -19 -134 -53 -195 -78 -188 -76 -592 -220 -780 -278 -44 -13
-147 -47 -230 -75 -82 -28 -204 -64 -270 -80 -66 -17 -178 -48 -250 -69 -165
-49 -291 -83 -430 -115 -60 -14 -175 -42 -255 -61 -80 -19 -174 -42 -210 -50
-36 -8 -121 -28 -190 -44 -69 -16 -163 -36 -210 -44 -47 -8 -143 -26 -215 -40
-231 -44 -596 -112 -675 -126 -30 -5 -93 -14 -140 -20 -87 -11 -192 -27 -405
-61 -184 -29 -385 -56 -550 -74 -82 -9 -226 -25 -320 -35 -150 -17 -314 -33
-720 -70 -329 -30 -943 -62 -1705 -90 -359 -13 -1191 -12 -1580 1 -724 25
-1376 59 -1705 89 -408 37 -586 55 -860 85 -283 32 -378 45 -665 91 -52 8
-131 19 -175 24 -218 23 -559 79 -860 140 -54 10 -292 55 -390 72 -33 6 -130
26 -215 45 -85 20 -174 39 -198 44 -24 5 -47 11 -52 14 -9 6 -165 41 -245 55
-53 10 -296 71 -455 115 -52 15 -106 29 -120 32 -14 2 -52 13 -85 23 -33 10
-118 34 -190 54 -222 62 -249 71 -670 210 -225 74 -466 158 -535 186 -69 28
-147 59 -175 69 -175 66 -379 152 -502 212 -77 38 -146 69 -153 69 -11 0 -385
184 -405 200 -5 4 -53 29 -105 56 -52 26 -133 73 -180 102 -47 30 -134 84
-195 121 -179 107 -416 290 -563 435 -145 142 -213 234 -249 336 l-23 65 0
1646 c0 1630 1 1669 30 1669 3 0 30 -15 60 -33z m1 -7770 c30 -18 83 -45 119
-61 36 -16 126 -59 200 -96 74 -37 167 -80 205 -95 39 -15 93 -38 120 -50 28
-13 93 -41 145 -63 52 -22 137 -58 188 -81 51 -23 97 -41 102 -41 6 0 49 -15
98 -34 278 -109 389 -150 692 -253 184 -63 407 -134 495 -159 88 -24 178 -50
200 -58 99 -36 292 -91 550 -157 691 -176 943 -234 1480 -339 88 -18 192 -38
230 -46 176 -36 718 -126 985 -164 85 -12 205 -31 265 -41 61 -10 187 -27 280
-39 94 -11 224 -27 290 -35 263 -33 460 -55 665 -75 118 -11 258 -25 310 -30
52 -5 163 -14 245 -20 83 -6 231 -17 330 -25 99 -7 225 -16 280 -19 414 -24
630 -36 755 -41 80 -3 271 -10 425 -16 364 -14 1648 -14 2020 0 160 6 358 13
440 16 194 8 904 50 1155 70 592 45 875 74 1470 146 91 11 221 26 290 34 143
17 350 47 525 76 66 11 230 37 365 59 318 52 548 93 815 146 72 14 150 29 175
34 25 5 97 20 160 34 63 13 178 38 255 54 146 32 327 75 600 143 88 22 223 56
300 75 131 32 223 58 320 88 22 8 74 23 115 35 122 34 440 130 505 152 33 11
148 49 255 84 217 71 329 112 720 259 161 60 567 230 646 270 29 14 55 26 59
26 10 0 57 21 215 97 74 36 155 75 180 87 25 11 71 36 104 56 56 33 59 34 72
15 12 -16 14 -267 12 -1670 -3 -1847 4 -1667 -79 -1807 -57 -96 -294 -334
-449 -449 -214 -159 -464 -317 -698 -441 -64 -34 -153 -81 -197 -106 -44 -24
-154 -77 -245 -119 -91 -41 -203 -93 -248 -115 -81 -38 -205 -91 -342 -144
-36 -14 -99 -39 -140 -56 -207 -83 -397 -150 -720 -257 -469 -155 -454 -150
-540 -172 -41 -11 -136 -37 -210 -59 -74 -21 -227 -63 -340 -93 -192 -51 -244
-64 -475 -117 -195 -44 -224 -51 -325 -74 -102 -24 -421 -87 -805 -160 -104
-20 -296 -52 -425 -71 -129 -19 -296 -44 -370 -55 -260 -40 -396 -59 -570 -79
-1027 -119 -1452 -149 -2775 -200 -294 -11 -1448 -6 -1845 8 -1169 42 -2206
132 -2980 256 -52 9 -129 20 -170 24 -149 18 -488 68 -545 81 -22 5 -112 23
-200 39 -88 17 -243 46 -345 66 -102 19 -195 35 -207 35 -12 0 -61 9 -110 20
-226 53 -262 61 -313 75 -30 8 -93 23 -140 34 -230 52 -450 104 -495 116 -174
48 -221 61 -320 90 -60 18 -146 43 -190 55 -189 52 -272 78 -815 258 -178 59
-219 74 -451 166 -317 125 -432 173 -530 222 -47 24 -130 61 -183 83 -143 59
-637 316 -728 379 -24 16 -96 61 -161 101 -202 122 -446 312 -593 462 -137
141 -189 214 -223 316 -21 62 -21 66 -21 1706 0 1634 1 1667 30 1667 3 0 31
-15 61 -33z"/>
</g>
</svg>
