<?xml version="1.0" standalone="no"?>
<!DOCTYPE svg PUBLIC "-//W3C//DTD SVG 20010904//EN"
 "http://www.w3.org/TR/2001/REC-SVG-20010904/DTD/svg10.dtd">
<svg version="1.0" xmlns="http://www.w3.org/2000/svg"
 width="3840.000000pt" height="3840.000000pt" viewBox="0 0 3840.000000 3840.000000"
 preserveAspectRatio="xMidYMid meet">
<metadata>
Created by potrace 1.16, written by Peter Selinger 2001-2019
</metadata>
<g transform="translate(0.000000,3840.000000) scale(0.100000,-0.100000)"
fill="#000000" stroke="none">
<path d="M18390 35920 c-219 -7 -372 -16 -745 -41 -82 -5 -213 -14 -290 -19
-77 -5 -230 -18 -340 -29 -110 -12 -288 -30 -395 -41 -333 -34 -523 -59 -725
-95 -44 -8 -116 -19 -160 -24 -244 -31 -394 -54 -510 -76 -71 -15 -152 -30
-180 -34 -27 -5 -120 -22 -205 -39 -85 -16 -211 -40 -280 -52 -69 -12 -159
-30 -200 -40 -68 -17 -135 -33 -320 -75 -331 -75 -581 -135 -685 -165 -64 -18
-190 -53 -305 -84 -25 -7 -90 -25 -145 -40 -55 -15 -134 -37 -175 -48 -41 -10
-127 -37 -190 -58 -63 -21 -194 -63 -290 -93 -312 -100 -544 -175 -610 -200
-212 -79 -467 -172 -540 -199 -47 -16 -110 -39 -140 -50 -30 -11 -131 -53
-225 -93 -93 -41 -215 -92 -270 -113 -55 -22 -149 -61 -210 -87 -60 -26 -126
-53 -145 -60 -19 -7 -105 -47 -190 -88 -252 -121 -351 -167 -357 -167 -21 0
-626 -305 -766 -386 -32 -19 -63 -34 -68 -34 -6 0 -31 -12 -57 -27 -26 -14
-64 -35 -86 -46 -21 -10 -102 -56 -180 -101 -77 -45 -177 -102 -220 -127 -119
-66 -135 -76 -148 -86 -7 -6 -44 -27 -83 -48 -38 -21 -87 -49 -107 -62 -21
-12 -40 -23 -42 -23 -3 0 -82 -49 -176 -110 -94 -60 -173 -110 -175 -110 -3 0
-54 -33 -114 -72 -59 -40 -148 -98 -196 -128 -100 -62 -585 -400 -747 -520
-34 -25 -83 -61 -109 -80 -56 -41 -108 -81 -324 -250 -88 -69 -178 -138 -200
-155 -49 -36 -253 -204 -315 -260 -25 -22 -62 -53 -81 -70 -19 -16 -68 -59
-109 -95 -41 -36 -97 -83 -125 -105 -81 -65 -583 -533 -720 -671 -263 -267
-574 -593 -660 -694 -55 -63 -115 -133 -135 -155 -19 -21 -62 -69 -95 -106
-98 -109 -168 -191 -206 -239 -62 -80 -182 -231 -321 -405 -74 -93 -202 -264
-283 -380 -82 -115 -165 -232 -185 -260 -81 -111 -158 -222 -180 -260 -12 -22
-53 -87 -90 -145 -202 -314 -303 -476 -357 -575 -33 -60 -112 -204 -177 -319
-379 -674 -693 -1385 -973 -2201 -41 -121 -79 -233 -83 -250 -12 -46 -67 -232
-90 -305 -37 -119 -110 -399 -169 -645 -38 -160 -114 -539 -160 -795 -20 -112
-89 -627 -110 -825 -53 -488 -74 -1137 -56 -1730 6 -191 46 -751 65 -920 32
-281 86 -656 115 -810 19 -99 46 -245 60 -325 14 -80 50 -244 80 -365 29 -121
68 -278 85 -349 17 -71 40 -156 51 -190 20 -65 76 -252 111 -376 11 -41 32
-106 45 -145 14 -38 62 -178 108 -310 81 -234 268 -709 358 -910 118 -263 247
-535 324 -685 176 -339 196 -377 246 -465 28 -49 67 -117 87 -150 20 -33 75
-127 122 -210 47 -82 121 -205 164 -272 44 -67 128 -197 187 -290 116 -180
412 -603 542 -773 190 -250 365 -473 456 -580 53 -63 143 -171 200 -240 57
-68 136 -158 174 -200 191 -207 341 -374 354 -393 12 -20 2 -49 -102 -307
-317 -784 -784 -1681 -1277 -2455 -46 -71 -110 -173 -143 -225 -51 -80 -198
-301 -297 -445 -108 -157 -327 -460 -444 -615 -77 -102 -188 -249 -248 -328
-59 -78 -123 -161 -142 -185 -19 -23 -110 -134 -202 -247 -154 -190 -218 -264
-416 -490 -252 -287 -343 -400 -405 -503 -128 -213 -216 -456 -248 -687 -20
-144 -21 -406 -1 -493 7 -34 17 -83 20 -109 23 -158 172 -474 328 -693 86
-121 231 -276 349 -372 237 -194 582 -334 899 -364 230 -23 972 -1 1450 41 63
5 178 15 255 20 195 14 865 97 1050 130 61 11 166 29 235 40 69 11 159 27 200
35 41 7 127 23 190 35 63 12 142 28 175 37 33 8 80 19 105 23 64 12 256 54
385 84 61 15 119 29 130 32 37 8 319 84 390 104 97 28 210 59 270 74 91 24
268 78 415 127 80 27 195 64 255 83 61 19 189 62 285 96 96 34 186 65 200 70
14 4 57 20 95 35 39 15 111 42 160 60 50 18 140 54 200 80 61 25 136 55 167
66 32 10 83 31 115 46 32 14 114 50 183 78 171 72 269 115 370 163 47 22 150
69 230 105 139 63 768 375 840 416 19 12 89 49 155 84 171 90 256 138 285 157
14 9 50 30 80 47 120 65 321 180 425 243 61 37 164 100 230 140 279 169 376
231 758 484 209 139 274 178 300 178 29 0 67 -10 182 -47 22 -7 105 -32 185
-55 80 -22 206 -59 280 -80 153 -45 323 -90 550 -145 85 -21 216 -53 290 -72
74 -20 169 -41 210 -49 41 -8 102 -20 135 -28 285 -66 593 -129 800 -166 66
-12 167 -29 225 -40 103 -18 197 -34 375 -65 87 -14 316 -47 460 -65 178 -23
382 -50 405 -55 24 -4 337 -36 545 -55 55 -5 165 -16 245 -24 80 -8 298 -24
485 -36 187 -11 426 -25 530 -32 256 -16 1706 -16 2005 0 609 32 958 57 1290
93 47 5 177 18 290 29 244 24 432 46 515 60 33 6 92 15 130 19 39 5 144 21
236 35 91 14 205 30 255 36 89 10 175 25 354 60 96 19 381 73 585 110 61 11
148 29 195 40 181 41 317 71 360 80 114 24 280 63 325 75 28 8 97 26 155 40
58 15 119 30 135 35 109 31 347 96 520 141 44 12 107 30 140 40 33 10 132 41
220 68 225 68 527 165 680 216 210 71 690 244 765 275 25 10 113 46 195 79 83
33 195 78 250 101 55 23 182 75 283 116 101 41 245 103 320 138 75 35 178 82
227 105 50 23 98 46 108 51 30 17 51 27 77 38 43 18 301 141 395 189 50 25
131 65 180 90 50 24 99 49 110 55 11 6 45 25 75 41 30 17 66 37 80 47 14 9 45
25 70 35 25 10 57 27 72 37 14 10 31 18 37 18 6 0 38 18 72 40 33 21 71 42 82
46 12 4 33 15 47 24 26 19 59 37 230 133 19 11 47 28 62 38 14 11 29 19 33 19
4 0 19 8 33 18 15 11 52 32 82 48 30 15 73 40 95 54 54 34 71 44 133 80 29 18
88 56 132 86 44 30 83 54 86 54 8 0 116 72 138 92 11 10 25 18 32 18 7 0 14 4
16 8 2 5 35 26 73 47 39 21 72 41 75 44 3 3 12 11 21 16 9 6 42 28 73 50 32
22 72 49 90 60 17 11 40 28 51 38 11 10 40 30 65 44 24 15 53 35 64 45 11 10
25 18 32 18 7 0 14 4 16 8 2 5 41 35 88 67 47 32 87 61 90 64 3 3 19 15 35 27
118 82 171 119 180 126 6 4 44 33 85 65 41 31 77 59 80 62 3 4 48 39 100 78
52 39 104 78 115 87 11 9 54 41 95 73 41 31 77 60 80 63 3 3 39 31 80 62 42
32 84 65 95 75 11 10 47 41 80 68 33 28 62 52 65 55 3 3 32 28 65 55 33 28 62
53 65 56 3 3 70 61 150 130 164 141 196 169 485 439 253 236 314 297 611 605
279 290 712 780 907 1027 78 99 173 219 210 267 95 119 220 287 304 406 39 55
123 174 187 264 64 90 161 234 215 320 54 86 146 231 205 324 58 92 138 225
177 295 261 465 336 604 442 822 202 415 259 534 272 570 7 19 32 78 55 130
151 336 387 981 504 1375 20 66 42 140 50 165 8 25 26 90 41 145 15 55 38 138
50 185 28 102 110 446 130 545 8 39 27 135 44 215 74 359 140 807 181 1225 6
61 12 130 15 155 75 718 61 1726 -36 2570 -62 544 -205 1312 -324 1745 -7 28
-30 111 -50 185 -134 493 -321 1038 -518 1515 -171 411 -230 542 -426 935
-147 294 -465 868 -572 1032 -24 37 -108 170 -187 295 -128 203 -262 401 -440
648 -32 44 -87 121 -122 170 -56 79 -130 173 -479 615 -41 52 -123 149 -181
215 -58 66 -175 199 -259 295 -140 159 -529 570 -706 745 -257 253 -749 701
-994 904 -36 30 -100 84 -141 121 -41 36 -144 119 -229 185 -85 66 -200 156
-256 200 -202 158 -302 233 -440 330 -461 324 -594 416 -729 501 -83 53 -187
120 -231 149 -131 87 -436 275 -490 302 -27 14 -84 47 -125 73 -65 40 -170
100 -500 285 -41 23 -120 65 -175 92 -55 28 -167 86 -250 130 -144 77 -415
211 -540 268 -33 15 -91 42 -130 60 -71 34 -130 62 -383 179 -79 37 -171 77
-205 90 -34 13 -97 40 -141 60 -43 20 -83 36 -87 36 -5 0 -82 31 -172 69 -89
38 -211 88 -272 111 -103 39 -164 63 -243 96 -18 8 -38 14 -45 14 -7 0 -70 23
-142 51 -71 27 -164 62 -205 76 -41 14 -97 34 -125 44 -179 64 -278 98 -335
113 -36 10 -87 26 -115 37 -43 15 -152 50 -470 148 -62 19 -123 37 -335 96
-212 60 -273 77 -320 91 -25 8 -65 18 -90 23 -25 5 -94 22 -155 39 -60 16
-123 32 -140 35 -16 3 -95 21 -175 41 -177 43 -205 50 -550 127 -47 10 -170
35 -275 54 -104 20 -229 45 -276 56 -48 10 -98 19 -112 19 -14 0 -95 14 -179
31 -159 31 -634 104 -773 119 -44 4 -107 13 -140 19 -79 14 -262 37 -405 51
-63 6 -178 17 -255 25 -372 39 -545 55 -710 65 -99 6 -315 20 -480 31 -246 16
-435 20 -1055 23 -415 2 -861 0 -990 -4z m1765 -3594 c121 -8 303 -20 405 -26
102 -6 232 -15 290 -20 200 -18 446 -42 585 -56 77 -9 178 -19 225 -24 89 -9
401 -52 505 -69 33 -6 107 -17 165 -26 58 -9 150 -24 205 -35 55 -10 156 -28
225 -39 175 -30 345 -63 560 -110 47 -11 130 -29 185 -41 162 -35 219 -48 445
-105 206 -51 445 -113 540 -140 25 -7 79 -22 120 -33 41 -12 179 -53 305 -92
127 -40 257 -80 290 -90 79 -23 238 -77 400 -135 72 -26 141 -50 155 -55 108
-36 489 -179 522 -196 15 -8 60 -26 100 -40 243 -87 1147 -504 1523 -702 247
-130 418 -223 445 -242 14 -9 59 -34 100 -55 41 -21 104 -57 140 -81 73 -47
165 -103 290 -177 106 -63 270 -167 420 -267 155 -103 437 -295 481 -328 20
-15 74 -55 120 -90 46 -34 117 -86 156 -115 165 -119 657 -517 783 -633 30
-28 114 -102 185 -165 167 -145 572 -539 720 -699 232 -250 388 -426 562 -636
455 -547 805 -1057 1190 -1729 22 -38 75 -140 118 -225 43 -85 99 -195 126
-245 26 -49 66 -133 89 -185 23 -52 51 -115 62 -140 61 -132 181 -420 207
-492 16 -46 61 -171 100 -278 68 -191 90 -258 170 -526 261 -882 398 -1974
362 -2901 -24 -621 -102 -1208 -237 -1788 -25 -110 -50 -218 -54 -240 -8 -38
-55 -194 -154 -520 -25 -82 -73 -222 -106 -310 -34 -88 -76 -203 -94 -255 -43
-123 -283 -668 -346 -785 -26 -49 -85 -164 -130 -255 -46 -91 -146 -270 -222
-398 -76 -129 -138 -236 -138 -238 0 -3 -87 -136 -194 -297 -318 -479 -722
-1000 -1099 -1417 -190 -209 -682 -705 -842 -848 -271 -242 -443 -392 -531
-463 -364 -294 -483 -387 -664 -519 -221 -161 -812 -560 -975 -658 -55 -33
-176 -105 -268 -161 -93 -56 -203 -121 -245 -145 -42 -23 -95 -53 -117 -66
-22 -13 -74 -41 -115 -63 -41 -22 -105 -57 -142 -78 -92 -54 -846 -427 -938
-465 -41 -18 -196 -85 -345 -151 -148 -66 -313 -136 -365 -156 -52 -20 -189
-72 -305 -117 -229 -89 -650 -239 -840 -300 -236 -75 -581 -181 -655 -202
-359 -99 -774 -205 -955 -244 -203 -43 -242 -52 -342 -75 -145 -34 -528 -106
-868 -163 -115 -20 -237 -40 -270 -46 -33 -5 -132 -19 -220 -30 -88 -11 -171
-23 -185 -26 -27 -6 -75 -12 -400 -43 -118 -12 -282 -28 -365 -36 -473 -48
-1389 -85 -1970 -80 -392 4 -535 9 -1020 35 -334 19 -946 73 -1175 104 -639
89 -773 108 -955 141 -349 62 -407 73 -565 106 -52 11 -133 28 -180 39 -47 10
-130 28 -185 40 -158 35 -463 110 -545 135 -41 12 -120 32 -175 44 -55 12
-167 43 -250 68 -82 25 -197 59 -255 76 -58 16 -127 38 -155 47 -27 10 -88 28
-135 41 -47 12 -134 37 -195 56 -352 109 -515 159 -660 201 -70 20 -375 115
-490 152 -33 10 -114 35 -180 55 -66 19 -148 44 -182 55 -43 14 -70 17 -85 11
-13 -5 -73 -42 -135 -82 -61 -41 -183 -120 -270 -177 -87 -56 -236 -153 -330
-215 -95 -61 -212 -137 -260 -168 -348 -223 -513 -334 -653 -441 -89 -68 -198
-149 -243 -180 -264 -185 -447 -309 -562 -380 -71 -44 -166 -103 -210 -130
-141 -89 -568 -330 -745 -421 -329 -169 -881 -421 -1120 -512 -408 -155 -595
-223 -775 -280 -115 -37 -255 -82 -310 -100 -112 -37 -132 -34 -101 18 11 18
36 61 56 97 72 127 163 286 215 375 123 212 486 910 663 1275 223 462 478
1046 583 1335 10 28 43 122 74 210 53 151 68 193 114 318 11 28 70 194 131
367 61 173 117 331 125 350 8 19 28 76 46 125 49 143 94 271 143 404 25 69 46
137 46 153 0 29 -3 33 -419 487 -108 118 -200 219 -206 225 -5 6 -48 54 -95
106 -47 52 -155 172 -240 265 -85 94 -178 195 -205 226 -59 67 -277 306 -460
504 -349 378 -696 809 -991 1229 -133 189 -397 598 -479 741 -32 55 -76 132
-100 170 -126 210 -397 752 -507 1015 -105 251 -193 474 -224 565 -18 55 -55
165 -83 245 -58 168 -178 579 -201 690 -5 25 -18 86 -29 135 -62 283 -83 392
-116 600 -46 295 -42 260 -70 551 -13 138 -29 384 -36 545 -37 946 104 2036
381 2954 29 94 62 206 75 250 43 143 241 665 325 855 45 102 97 219 115 260
18 41 78 165 135 275 56 110 119 232 138 270 85 166 374 643 531 879 162 241
428 607 565 777 167 207 424 507 545 638 75 80 159 170 186 200 101 110 563
561 680 663 66 57 172 151 235 208 63 56 136 119 162 139 26 20 82 65 125 101
170 140 340 277 373 300 19 13 114 82 210 154 96 71 207 152 245 180 106 78
692 466 703 466 5 0 15 6 21 14 7 8 40 29 74 47 34 17 134 77 222 132 161 101
217 133 490 280 83 44 161 88 175 97 56 38 856 431 970 476 52 21 104 43 115
50 37 23 389 171 615 259 124 48 279 109 345 135 66 27 194 73 285 104 91 30
203 69 250 86 99 37 287 97 415 134 50 14 155 46 235 71 209 66 223 70 460
130 118 30 247 64 285 75 134 39 298 80 318 80 12 0 50 7 86 15 36 9 107 25
156 36 50 12 106 25 125 30 70 19 256 58 305 64 53 7 148 23 310 55 295 58
362 69 675 110 212 28 185 24 505 70 71 10 147 18 445 45 91 8 210 19 265 25
55 5 179 14 275 20 96 5 252 15 345 21 441 30 1560 33 1990 5z"/>
<path d="M10680 22780 c-310 -21 -605 -96 -885 -224 -245 -113 -540 -327 -721
-526 -32 -36 -62 -67 -65 -70 -4 -3 -43 -53 -87 -113 -242 -321 -393 -691
-451 -1102 -27 -192 -33 -335 -22 -500 39 -565 240 -1050 601 -1456 42 -47 98
-105 125 -130 27 -24 67 -60 88 -78 21 -19 60 -51 86 -70 27 -20 64 -48 82
-63 57 -44 248 -157 349 -205 198 -95 464 -177 651 -203 46 -6 86 -13 89 -15
3 -2 76 -9 163 -15 302 -22 658 29 982 139 65 23 63 22 175 74 41 19 98 45
125 58 66 30 303 182 364 234 425 354 684 760 820 1285 50 193 66 336 66 595
0 258 -16 399 -66 595 -113 439 -314 796 -623 1104 -202 202 -407 345 -661
463 -368 171 -789 250 -1185 223z"/>
<path d="M19045 22780 c-227 -16 -491 -70 -684 -141 -112 -41 -317 -139 -373
-177 -24 -16 -61 -39 -84 -50 -81 -41 -282 -202 -403 -322 -359 -357 -578
-798 -662 -1331 -31 -202 -32 -522 -1 -724 62 -399 200 -742 424 -1056 115
-161 295 -347 448 -464 36 -27 74 -58 85 -68 11 -10 49 -35 85 -55 36 -19 83
-48 105 -62 33 -23 97 -55 300 -151 46 -21 268 -88 375 -112 449 -100 851 -80
1315 64 104 33 123 40 295 121 120 55 102 45 245 136 353 225 655 569 836 950
22 47 52 115 65 151 14 36 34 89 45 117 31 81 77 276 101 429 28 185 30 501 4
685 -72 509 -271 940 -605 1309 -272 299 -696 557 -1086 661 -44 12 -103 28
-131 36 -28 8 -87 19 -130 24 -43 6 -104 14 -134 19 -82 14 -310 20 -435 11z"/>
<path d="M27415 22780 c-604 -42 -1127 -276 -1545 -690 -352 -348 -579 -799
-662 -1314 -31 -191 -31 -575 -1 -762 95 -572 352 -1042 782 -1428 35 -32 80
-68 100 -80 20 -13 52 -37 71 -54 19 -17 58 -43 85 -58 28 -15 70 -41 95 -57
71 -47 255 -136 370 -178 114 -42 381 -110 500 -128 308 -45 601 -32 913 41
222 52 342 95 547 197 241 121 389 229 596 435 312 313 515 675 616 1101 82
343 94 595 47 940 -98 712 -501 1328 -1109 1697 -104 63 -299 156 -415 198
-300 108 -678 162 -990 140z"/>
</g>
</svg>
