<?xml version="1.0" standalone="no"?>
<!DOCTYPE svg PUBLIC "-//W3C//DTD SVG 20010904//EN"
 "http://www.w3.org/TR/2001/REC-SVG-20010904/DTD/svg10.dtd">
<svg version="1.0" xmlns="http://www.w3.org/2000/svg"
 width="3840.000000pt" height="4474.000000pt" viewBox="0 0 3840.000000 4474.000000"
 preserveAspectRatio="xMidYMid meet">
<metadata>
Created by potrace 1.16, written by Peter Selinger 2001-2019
</metadata>
<g transform="translate(0.000000,4474.000000) scale(0.100000,-0.100000)"
fill="#000000" stroke="none">
<path d="M32510 44670 c-91 -4 -302 -9 -470 -10 -168 -2 -289 -5 -270 -7 19
-3 38 -9 41 -14 3 -6 143 -19 310 -30 422 -29 538 -39 344 -32 -195 8 -177 9
-280 -15 -49 -11 -126 -25 -170 -32 -107 -15 -218 -36 -345 -65 -58 -13 -139
-29 -180 -36 -41 -6 -147 -33 -237 -59 -89 -27 -195 -56 -235 -65 -268 -62
-265 -61 -371 -128 -56 -36 -183 -108 -282 -162 -99 -54 -184 -100 -190 -103
-5 -3 -4 2 4 11 8 11 9 17 2 17 -12 0 -106 -55 -136 -80 -11 -9 -41 -25 -67
-34 -26 -10 -50 -22 -54 -27 -3 -5 -20 -15 -37 -23 -18 -7 -42 -23 -54 -35
-12 -11 -24 -21 -27 -21 -8 0 -178 -130 -241 -184 -33 -29 -89 -74 -125 -101
-36 -27 -67 -52 -70 -56 -3 -3 -27 -25 -55 -49 -88 -75 -228 -203 -295 -270
-96 -96 -432 -487 -537 -625 -50 -66 -101 -129 -112 -139 -12 -11 -21 -24 -21
-31 0 -7 -13 -31 -30 -53 -16 -23 -30 -44 -30 -46 0 -3 -13 -25 -30 -49 -16
-25 -30 -49 -30 -55 0 -5 -6 -15 -14 -21 -8 -7 -18 -26 -21 -42 -4 -16 -17
-42 -30 -58 -14 -15 -28 -47 -34 -70 -10 -48 -21 -64 -21 -35 -1 12 -10 3 -25
-26 -27 -50 -30 -65 -14 -54 8 5 8 1 0 -14 -6 -12 -17 -24 -24 -28 -9 -5 -9
-4 1 7 17 19 15 34 -3 19 -9 -7 -14 -19 -11 -27 3 -7 -9 -37 -27 -66 -18 -28
-48 -86 -66 -127 -19 -41 -49 -102 -67 -136 -53 -99 -102 -235 -141 -392 -19
-81 -53 -187 -75 -235 -49 -109 -69 -175 -62 -202 3 -12 -2 -41 -10 -65 -43
-129 -79 -371 -142 -965 -18 -168 -20 -567 -5 -780 15 -200 48 -435 72 -514
10 -35 28 -121 39 -190 11 -69 25 -144 30 -166 5 -22 10 -61 10 -88 0 -33 14
-84 46 -165 26 -64 55 -144 64 -177 25 -84 56 -166 90 -239 17 -35 30 -69 30
-76 0 -7 17 -45 38 -84 21 -39 44 -87 52 -106 83 -218 160 -361 243 -449 65
-68 97 -120 97 -155 0 -22 -70 -55 -132 -62 -56 -6 -253 10 -328 28 -25 5 -70
18 -100 28 -100 33 -307 58 -580 70 -107 5 -271 15 -365 22 -250 19 -14297 19
-14490 0 -652 -66 -888 -102 -1030 -157 -130 -51 -227 -85 -246 -85 -30 0
-197 -57 -227 -78 -15 -10 -35 -22 -45 -25 -9 -4 -49 -27 -88 -53 -39 -25 -87
-52 -107 -60 -20 -8 -58 -26 -84 -40 -26 -13 -52 -23 -59 -22 -7 2 -13 -2 -14
-9 0 -6 -4 -15 -9 -20 -5 -5 -6 -3 -2 5 4 6 5 12 2 12 -11 0 -154 -91 -166
-105 -7 -8 -17 -15 -23 -15 -15 0 -167 -102 -167 -112 0 -4 -5 -8 -10 -8 -20
0 -350 -276 -350 -292 0 -5 -17 -17 -37 -27 -43 -20 -173 -141 -173 -160 0 -7
-53 -70 -119 -141 -65 -70 -140 -156 -167 -191 -26 -35 -71 -91 -100 -124 -68
-79 -146 -194 -139 -205 6 -10 -59 -136 -86 -166 -11 -11 -19 -27 -19 -35 -1
-8 -12 -32 -25 -54 -14 -22 -28 -47 -32 -55 -3 -8 -19 -31 -35 -51 -15 -20
-28 -43 -28 -50 0 -8 -14 -34 -30 -59 -16 -25 -30 -51 -30 -58 0 -6 -9 -28
-19 -48 -11 -20 -23 -65 -26 -100 -4 -35 -11 -61 -16 -59 -11 8 -43 -101 -42
-145 1 -19 -3 -42 -8 -50 -7 -11 -8 -8 -3 9 4 15 3 21 -5 17 -15 -9 -31 -73
-31 -123 0 -24 -14 -76 -31 -120 -44 -110 -55 -151 -78 -298 -62 -391 -83
-833 -53 -1110 17 -162 68 -462 104 -618 16 -70 26 -138 23 -150 -4 -15 -3
-18 3 -9 13 19 36 -39 34 -85 -1 -20 7 -56 18 -82 10 -25 29 -80 42 -121 22
-72 23 -74 28 -40 4 26 7 14 11 -48 4 -63 11 -90 27 -112 12 -16 22 -34 22
-40 0 -7 14 -25 30 -42 19 -18 30 -40 30 -57 0 -18 10 -37 30 -54 18 -17 30
-37 30 -53 0 -15 12 -36 31 -54 26 -24 31 -34 27 -61 -5 -29 1 -41 43 -90 27
-31 49 -65 49 -78 0 -29 41 -98 80 -136 16 -16 30 -36 30 -46 0 -17 39 -71 40
-55 0 6 13 -10 28 -35 16 -25 54 -73 85 -108 31 -34 59 -72 63 -84 4 -12 48
-65 99 -117 51 -52 106 -111 121 -130 16 -19 45 -48 64 -65 19 -16 69 -63 110
-105 86 -86 149 -139 200 -166 19 -10 66 -49 103 -86 38 -38 80 -69 96 -73 15
-3 41 -19 56 -35 16 -17 35 -30 42 -30 7 0 13 -6 13 -12 0 -7 13 -20 29 -29
26 -15 30 -15 45 -1 16 17 14 19 31 -33 2 -8 13 -15 24 -15 11 0 21 -4 23 -8
5 -13 74 -52 91 -52 16 0 138 -66 147 -79 3 -4 17 -11 31 -14 15 -4 37 -18 50
-32 13 -13 32 -25 41 -25 26 0 87 -33 88 -47 0 -8 15 -13 40 -13 27 0 43 -5
46 -15 4 -8 16 -15 28 -15 11 0 30 -7 40 -15 11 -8 33 -15 48 -15 16 0 31 -6
34 -14 3 -8 20 -17 37 -20 18 -4 72 -22 122 -40 49 -19 117 -39 150 -46 33 -6
105 -22 160 -35 55 -13 129 -27 165 -30 36 -4 143 -17 238 -31 367 -51 452
-53 2452 -54 1934 -2 1852 -3 2105 35 26 4 46 2 58 -7 16 -12 16 -17 -9 -92
-29 -88 -100 -237 -147 -305 -16 -24 -56 -73 -88 -108 -55 -60 -75 -94 -47
-77 7 4 2 -7 -11 -24 -12 -18 -26 -30 -31 -27 -4 3 -14 -3 -21 -12 -10 -12
-10 -14 -1 -9 23 14 12 -7 -71 -133 -125 -189 -133 -202 -177 -303 -35 -78
-124 -259 -184 -373 -9 -16 -16 -40 -16 -52 0 -31 -23 -90 -85 -218 -84 -174
-115 -244 -115 -263 0 -9 -6 -28 -13 -42 -18 -33 -34 -100 -43 -175 -3 -33
-15 -76 -25 -97 -54 -106 -150 -413 -159 -508 -4 -47 -17 -125 -29 -175 -12
-49 -26 -149 -31 -221 -6 -72 -21 -207 -34 -300 -58 -397 -67 -781 -27 -1109
33 -261 34 -471 2 -574 -19 -63 -30 -81 -74 -122 -362 -340 -587 -566 -587
-589 0 -6 -5 -10 -11 -10 -5 0 -91 -81 -190 -179 -99 -99 -187 -182 -194 -185
-8 -3 -15 -10 -15 -16 0 -15 -80 -94 -102 -103 -10 -3 -18 -13 -18 -20 0 -8
-19 -30 -42 -49 -24 -20 -74 -68 -113 -108 -156 -163 -231 -236 -247 -243 -10
-3 -18 -11 -18 -17 0 -13 -389 -400 -401 -400 -4 0 -10 -8 -13 -17 -7 -21 -78
-103 -89 -103 -13 0 -127 -122 -143 -152 -8 -16 -30 -38 -48 -49 -18 -10 -38
-30 -44 -44 -6 -13 -34 -41 -62 -61 -27 -20 -50 -42 -50 -50 0 -17 -39 -54
-57 -54 -18 0 -169 -151 -177 -178 -4 -11 -16 -24 -27 -27 -26 -9 -154 -137
-174 -175 -8 -16 -26 -32 -39 -36 -13 -3 -35 -20 -49 -38 -39 -48 -75 -86 -83
-86 -10 0 -33 -31 -49 -68 -8 -17 -24 -36 -37 -41 -13 -5 -38 -27 -56 -50 -18
-22 -46 -48 -62 -56 -16 -9 -32 -26 -36 -39 -3 -13 -22 -32 -43 -44 -20 -12
-58 -44 -84 -72 -25 -27 -50 -50 -55 -50 -14 0 -42 -35 -42 -53 0 -8 -15 -26
-32 -38 -34 -22 -98 -89 -98 -100 0 -4 -13 -12 -28 -18 -16 -7 -35 -26 -43
-44 -8 -17 -33 -44 -56 -60 -23 -15 -51 -43 -63 -62 -12 -19 -25 -35 -30 -35
-17 0 -70 -52 -70 -69 0 -19 -43 -65 -52 -56 -3 3 -26 -22 -52 -55 -26 -33
-54 -60 -61 -60 -8 0 -28 -20 -44 -44 -17 -25 -43 -48 -60 -54 -17 -6 -37 -24
-45 -41 -9 -16 -36 -44 -60 -61 -26 -17 -46 -39 -48 -52 -2 -13 -21 -34 -44
-50 -22 -15 -53 -45 -69 -68 -15 -22 -39 -43 -51 -46 -13 -4 -24 -10 -24 -14
0 -16 -83 -100 -98 -100 -10 0 -23 -14 -31 -31 -8 -19 -34 -44 -63 -62 -34
-21 -47 -35 -43 -47 5 -17 -18 -43 -68 -73 -15 -10 -38 -35 -52 -57 -14 -22
-33 -40 -43 -40 -9 -1 -34 -25 -55 -55 -26 -39 -44 -55 -60 -55 -15 0 -28 -12
-42 -37 -11 -21 -38 -49 -60 -64 -22 -15 -42 -36 -45 -47 -3 -10 -27 -38 -55
-62 -27 -24 -54 -52 -60 -64 -6 -12 -23 -27 -37 -34 -15 -7 -43 -35 -63 -62
-21 -28 -45 -50 -55 -50 -10 0 -34 -22 -54 -50 -20 -28 -47 -56 -61 -62 -14
-6 -27 -18 -30 -27 -5 -16 -268 -291 -278 -291 -11 0 -360 -360 -378 -390 -10
-16 -25 -30 -33 -30 -8 0 -30 -19 -48 -43 -18 -23 -114 -122 -213 -220 -353
-347 -741 -734 -780 -778 -23 -24 -95 -97 -160 -161 -133 -130 -245 -248 -245
-257 0 -3 -13 -17 -30 -31 -16 -14 -30 -28 -30 -33 0 -4 -18 -27 -39 -50 -22
-23 -49 -54 -61 -69 -11 -15 -39 -47 -62 -70 -51 -54 -181 -215 -242 -302 -47
-65 -75 -111 -118 -196 -12 -25 -33 -58 -45 -73 -13 -16 -23 -37 -23 -48 0
-10 -4 -19 -10 -19 -5 0 -23 -26 -40 -57 -17 -32 -37 -69 -44 -83 -28 -52 -66
-137 -85 -190 -10 -30 -31 -86 -44 -125 -14 -38 -51 -151 -83 -250 -32 -99
-66 -198 -75 -221 -10 -22 -37 -116 -59 -210 -54 -224 -80 -470 -87 -834 -5
-255 -3 -291 21 -485 31 -252 39 -292 76 -415 16 -52 45 -167 65 -255 19 -88
42 -176 51 -195 9 -19 29 -69 44 -110 16 -41 45 -113 65 -160 20 -47 43 -104
52 -128 8 -23 24 -47 34 -53 13 -6 19 -21 19 -43 0 -19 6 -39 13 -45 8 -6 22
-30 32 -53 26 -61 36 -72 46 -56 6 8 9 0 10 -22 0 -19 9 -48 19 -65 11 -16 26
-43 33 -60 8 -16 24 -39 36 -49 11 -11 21 -30 21 -43 0 -12 4 -23 9 -23 7 0
65 -82 106 -149 6 -9 26 -34 46 -57 20 -23 42 -52 50 -65 7 -13 24 -36 38 -51
14 -15 60 -63 101 -108 41 -45 102 -109 135 -144 33 -34 85 -89 116 -122 31
-32 91 -90 134 -129 43 -38 99 -91 126 -117 26 -27 53 -48 58 -48 6 0 14 -6
18 -13 10 -15 177 -140 253 -189 73 -47 227 -132 267 -147 17 -7 34 -19 37
-27 3 -8 14 -14 24 -14 10 0 22 -4 27 -9 18 -16 160 -88 188 -95 15 -3 25 -10
23 -15 -6 -9 3 -13 104 -49 30 -11 84 -34 120 -50 99 -46 402 -134 535 -157
49 -8 198 -37 330 -63 l240 -47 315 1 c491 0 743 36 1145 164 55 17 123 35
150 40 28 4 75 15 105 25 95 30 325 116 335 126 5 5 17 9 26 9 10 0 33 14 51
30 18 17 40 30 50 30 10 0 18 4 18 9 0 5 12 14 28 20 15 6 43 21 62 32 19 12
53 32 75 43 22 12 65 38 95 58 31 19 101 58 156 87 55 28 121 69 146 89 25 20
84 67 130 104 45 37 108 91 139 121 117 112 271 247 281 247 11 0 187 169 272
260 28 30 80 83 116 118 36 34 72 69 80 78 8 8 67 69 130 134 214 221 247 255
295 300 27 25 126 124 221 220 95 96 182 184 194 195 12 11 90 93 174 183 84
89 180 183 214 208 34 25 62 49 62 54 0 16 300 323 357 364 32 24 82 72 110
107 43 54 190 204 374 384 92 89 376 374 433 434 109 115 1099 1113 1171 1180
38 36 130 129 205 205 74 77 405 410 735 741 893 895 1286 1294 1330 1350 131
166 181 204 251 190 75 -14 -62 120 2591 -2540 429 -431 775 -785 797 -818
l39 -57 1 -1998 c1 -1859 2 -2007 19 -2142 26 -212 123 -679 182 -880 38 -130
102 -283 141 -336 12 -17 26 -48 29 -70 4 -21 13 -46 20 -54 8 -8 17 -28 21
-45 4 -16 18 -43 31 -58 12 -16 25 -41 29 -55 8 -41 33 -88 71 -131 18 -22 33
-50 33 -64 0 -14 11 -39 25 -55 14 -17 25 -37 25 -46 0 -9 4 -16 9 -16 5 0 14
-14 21 -30 7 -17 16 -30 21 -30 4 0 9 -10 11 -22 2 -13 15 -29 31 -36 18 -9
27 -21 27 -38 0 -13 4 -24 8 -24 5 0 17 -17 28 -38 10 -20 39 -60 64 -88 25
-28 58 -70 73 -92 21 -31 35 -42 53 -42 23 0 25 -3 20 -28 -5 -24 6 -39 92
-127 156 -160 374 -365 387 -365 3 0 13 -8 23 -17 10 -10 29 -25 42 -33 13 -8
34 -27 48 -43 14 -15 29 -27 33 -27 7 0 22 -13 131 -108 27 -23 56 -42 66 -42
18 0 204 -107 235 -134 9 -9 23 -16 31 -16 8 0 21 -6 28 -12 17 -16 48 -36 68
-45 8 -3 31 -19 51 -35 20 -15 42 -28 49 -28 7 0 18 -6 24 -13 6 -7 31 -22 56
-32 25 -10 52 -24 60 -30 22 -17 107 -38 125 -31 9 3 14 2 11 -3 -3 -5 0 -13
7 -19 25 -20 234 -82 277 -82 26 0 71 -12 105 -26 191 -83 291 -108 495 -124
74 -6 225 -23 335 -37 295 -40 527 -38 800 6 310 50 473 80 519 97 69 26 277
94 284 94 4 0 0 -5 -8 -10 -31 -20 30 -10 72 11 23 12 71 32 107 46 36 14 73
30 81 37 8 7 29 13 47 14 41 3 83 19 83 32 0 5 5 10 11 10 16 0 82 32 97 47 7
7 22 13 32 13 11 0 35 14 53 30 19 17 40 30 46 30 6 0 30 13 53 30 26 19 53
30 75 30 18 0 33 5 33 10 0 6 10 15 23 20 27 12 56 31 75 48 7 6 23 17 35 24
12 6 28 19 35 30 7 10 24 18 38 18 13 0 33 9 45 21 11 11 35 25 52 31 18 6 52
30 77 54 25 23 106 97 180 165 391 357 593 579 745 814 21 33 51 76 66 96 27
35 59 91 141 249 21 41 45 81 52 90 7 8 21 35 31 60 10 25 25 52 32 61 7 8 13
21 13 27 0 6 14 40 30 75 17 36 30 69 30 74 0 7 38 90 76 163 58 114 111 310
149 550 8 52 21 129 30 170 22 107 52 358 67 555 10 133 13 707 13 2610 0
2514 -1 2573 -40 2895 -7 63 -19 176 -25 250 -6 74 -17 171 -25 215 -8 44 -26
148 -39 231 -25 150 -70 307 -181 639 -29 88 -59 180 -65 205 -26 102 -86 235
-175 388 -25 44 -47 92 -49 108 -1 16 -14 45 -28 65 -14 21 -31 51 -38 68 -7
17 -16 31 -21 31 -5 0 -9 9 -9 20 0 11 -13 42 -30 68 -16 27 -30 52 -30 55 0
3 -13 26 -30 50 -16 25 -30 51 -30 59 0 8 -12 33 -28 54 -15 21 -33 51 -41 66
-7 15 -38 59 -68 98 -29 40 -60 84 -68 99 -7 14 -53 73 -102 131 -49 58 -105
128 -125 155 -20 28 -51 64 -69 80 -17 17 -58 65 -90 108 -112 149 -394 438
-1966 2016 -590 592 -1080 1083 -1088 1091 -8 8 -105 105 -216 215 -111 110
-272 277 -358 370 -85 94 -182 195 -216 225 -33 30 -107 100 -163 155 -57 55
-111 104 -120 109 -26 13 -190 176 -223 220 -16 21 -29 50 -29 64 0 26 38 77
76 102 53 36 434 420 434 439 0 6 18 24 39 39 22 16 70 62 106 103 89 98 312
327 399 409 61 58 1898 1903 2287 2297 85 87 186 188 225 225 136 130 1413
1424 1456 1474 43 52 108 128 289 338 104 121 290 364 338 443 17 28 31 58 31
68 0 18 59 104 106 155 21 23 152 246 195 332 11 20 23 39 28 42 5 4 17 30 27
59 9 28 25 68 35 87 11 19 19 40 19 47 0 7 11 36 23 65 13 29 39 91 57 138 18
47 50 127 71 178 22 51 51 141 65 200 24 103 51 194 127 442 62 200 66 217 99
469 l33 246 0 545 0 545 -34 190 c-18 105 -37 210 -41 235 -4 25 -16 81 -28
125 -11 44 -23 100 -27 125 -6 47 -32 137 -108 380 -45 144 -55 173 -141 409
-26 69 -46 132 -46 140 0 21 -91 206 -146 296 -79 131 -199 302 -261 374 -35
39 -63 80 -63 90 0 58 102 69 246 27 246 -71 523 -130 714 -150 386 -42 668
-46 935 -12 66 9 206 25 310 36 376 42 551 82 825 188 36 14 77 25 92 26 14 1
24 4 22 8 -2 3 21 16 51 27 64 24 69 25 60 11 -4 -7 3 -9 22 -4 37 8 138 33
185 45 55 14 183 83 180 97 -1 7 11 12 32 12 19 0 49 11 70 25 20 14 41 25 46
25 5 0 32 14 58 30 27 17 60 30 74 30 14 0 36 13 53 30 16 17 34 30 39 30 6 0
16 8 23 19 6 10 27 21 46 25 19 4 52 20 72 36 21 17 48 30 61 30 14 0 24 6 24
14 0 16 13 21 75 31 42 7 122 66 111 83 -3 5 5 7 17 5 14 -3 33 6 52 21 51 43
123 96 132 96 4 0 22 14 40 30 18 17 34 30 37 30 3 0 16 9 28 19 13 11 55 45
95 78 229 186 500 426 578 513 223 249 345 396 479 579 48 66 95 126 102 132
8 6 14 19 14 28 0 9 9 24 20 34 25 21 85 114 95 147 4 14 16 34 26 45 10 11
37 56 59 100 23 44 46 85 51 91 5 6 7 18 3 27 -7 19 23 79 71 141 49 65 193
342 216 419 57 184 131 525 158 732 35 262 60 409 80 486 28 103 38 223 52
597 10 279 8 619 -6 762 -2 19 -7 89 -10 155 -4 66 -14 149 -22 185 -8 36 -23
129 -33 207 -11 79 -30 178 -44 221 -13 43 -30 116 -36 163 -10 78 -40 230
-90 459 -36 169 -69 248 -193 475 -66 121 -133 238 -147 260 -39 57 -92 164
-86 174 3 4 -5 23 -16 42 -12 19 -32 53 -45 77 -12 23 -41 67 -63 97 -22 30
-40 58 -40 63 0 5 -10 20 -21 33 -12 13 -44 58 -72 99 -70 104 -288 370 -504
614 -39 43 -127 127 -196 185 -69 58 -188 160 -264 226 -76 66 -174 147 -218
179 -44 33 -95 71 -114 85 -18 14 -40 31 -50 36 -9 6 -47 31 -86 56 -135 89
-269 169 -282 169 -7 0 -86 41 -175 92 -220 123 -342 183 -473 231 -127 46
-331 102 -425 117 -127 20 -628 129 -652 141 -26 14 -203 38 -335 45 -68 4
-123 11 -123 16 0 9 -20 8 292 16 177 5 251 11 260 20 6 6 20 12 29 12 9 0 22
6 28 14 10 12 -45 15 -361 20 -761 12 -967 13 -1128 6z m448 -107 c-60 -2
-156 -2 -215 0 -60 1 -11 3 107 3 118 0 167 -2 108 -3z m265 -2653 c111 -13
288 -56 417 -103 364 -131 402 -146 450 -178 14 -9 41 -21 60 -27 40 -11 192
-102 264 -159 27 -21 58 -43 69 -50 11 -6 22 -15 26 -20 3 -6 51 -44 106 -85
90 -68 157 -132 268 -255 20 -23 37 -46 37 -50 0 -4 16 -25 35 -46 19 -21 35
-42 35 -47 0 -5 12 -18 27 -30 15 -11 34 -33 44 -48 9 -15 31 -42 48 -60 17
-18 31 -37 31 -41 0 -5 7 -14 15 -21 18 -15 81 -122 77 -133 -3 -11 45 -103
83 -155 20 -29 50 -99 78 -182 25 -74 62 -178 82 -230 39 -102 87 -290 107
-417 16 -94 15 -569 -1 -748 -12 -146 -74 -398 -126 -517 -45 -101 -60 -145
-75 -221 -7 -35 -20 -65 -32 -75 -11 -10 -29 -35 -40 -57 -11 -22 -27 -47 -35
-56 -8 -9 -15 -27 -16 -40 -1 -27 -120 -213 -173 -272 -19 -21 -34 -41 -34
-44 0 -3 -26 -35 -58 -72 -32 -36 -74 -87 -94 -112 -20 -25 -90 -101 -156
-170 -87 -90 -135 -133 -176 -153 -31 -16 -56 -31 -56 -35 0 -7 -39 -37 -166
-127 -94 -68 -104 -72 -74 -39 20 21 7 16 -60 -26 -47 -29 -94 -60 -105 -69
-11 -9 -34 -22 -52 -29 -17 -7 -39 -21 -49 -32 -9 -10 -23 -19 -29 -19 -7 0
-33 -9 -57 -20 -25 -11 -69 -25 -99 -31 -30 -6 -134 -37 -231 -70 -104 -35
-218 -66 -275 -75 -222 -34 -689 -26 -939 16 -70 12 -181 41 -268 70 -81 27
-154 50 -162 50 -18 0 -274 125 -377 184 -43 25 -84 43 -91 40 -42 -16 -456
317 -617 497 -223 250 -343 427 -423 625 -24 61 -55 132 -68 159 -85 170 -120
283 -172 555 -42 219 -50 307 -50 530 0 221 12 341 55 555 40 202 61 265 183
563 25 62 46 118 46 124 0 18 106 192 169 278 126 173 154 207 272 332 179
190 398 379 547 472 26 16 82 52 125 78 42 27 82 46 88 43 5 -4 15 -3 22 3 15
11 72 34 222 88 66 23 173 63 238 88 140 55 269 79 507 96 293 19 428 19 603
0z m-5516 -4412 c-3 -8 -6 -5 -6 6 -1 11 2 17 5 13 3 -3 4 -12 1 -19z m-18777
-2946 c0 -5 -7 -17 -15 -28 -14 -18 -14 -17 -4 9 12 27 19 34 19 19z m17380
-875 l785 -2 160 -27 c88 -15 185 -32 215 -38 30 -6 80 -15 110 -20 58 -10
179 -59 241 -98 20 -12 43 -22 50 -22 8 0 25 -7 37 -16 12 -8 46 -23 74 -34
63 -22 175 -78 183 -91 4 -5 14 -9 23 -9 9 -1 33 -14 52 -30 19 -17 42 -30 50
-30 9 0 30 -13 46 -30 16 -16 36 -30 45 -30 9 0 35 -20 59 -43 23 -24 57 -50
76 -57 19 -8 34 -19 34 -25 0 -11 76 -85 86 -85 3 0 28 -23 57 -50 158 -153
297 -309 297 -335 0 -14 72 -91 83 -87 4 1 7 -11 7 -27 0 -16 10 -39 25 -55
14 -15 25 -31 25 -35 0 -4 13 -26 28 -47 16 -22 31 -51 35 -65 4 -14 20 -45
37 -70 16 -24 30 -50 30 -56 0 -7 4 -13 9 -13 5 0 11 -8 15 -17 3 -10 10 -26
16 -35 45 -77 60 -116 60 -157 0 -24 3 -32 9 -22 13 21 25 -8 51 -127 12 -57
37 -150 56 -208 19 -58 34 -122 34 -144 0 -21 7 -66 16 -100 9 -36 16 -110 17
-175 1 -62 6 -111 11 -108 11 7 -3 -499 -15 -552 -6 -22 -18 -78 -29 -125 -10
-47 -31 -113 -45 -148 -14 -35 -37 -109 -50 -165 -13 -56 -34 -126 -45 -156
-29 -75 -170 -362 -185 -378 -7 -7 -23 -29 -36 -50 -13 -21 -47 -69 -77 -106
-30 -37 -52 -70 -49 -74 13 -12 -155 -205 -350 -402 -68 -69 -123 -127 -123
-131 0 -3 -18 -19 -40 -36 -22 -16 -40 -32 -40 -36 0 -8 -37 -48 -44 -48 -7 0
-76 -72 -76 -79 0 -7 -37 -41 -45 -41 -3 0 -53 -50 -113 -111 -59 -60 -168
-173 -244 -250 -75 -77 -139 -146 -142 -155 -3 -8 -17 -19 -31 -24 -14 -5 -25
-14 -25 -20 0 -6 -57 -66 -126 -133 -211 -204 -763 -760 -768 -774 -3 -7 -12
-16 -21 -19 -21 -8 -390 -377 -398 -399 -4 -9 -15 -19 -25 -21 -9 -3 -25 -18
-34 -35 -9 -16 -24 -29 -33 -29 -8 0 -15 -4 -15 -10 0 -13 -456 -470 -470
-470 -5 0 -10 -4 -10 -9 0 -5 -267 -278 -593 -607 -326 -330 -677 -687 -779
-794 -103 -107 -248 -253 -324 -325 -76 -71 -280 -274 -453 -450 -173 -176
-520 -525 -770 -775 -387 -387 -669 -675 -883 -905 -26 -27 -60 -68 -76 -90
-16 -22 -40 -49 -53 -60 l-24 -20 20 25 c52 63 41 59 -24 -9 -39 -41 -71 -79
-71 -85 0 -6 7 0 16 12 23 33 37 27 19 -8 -16 -30 -15 -32 16 -71 39 -49 173
-169 230 -204 22 -15 132 -119 243 -232 300 -308 467 -475 712 -713 121 -118
309 -309 418 -423 109 -114 269 -272 355 -352 87 -79 236 -228 331 -332 95
-103 254 -267 354 -363 266 -259 501 -494 781 -784 138 -143 794 -804 1459
-1470 1069 -1072 1288 -1297 1412 -1452 45 -57 124 -173 124 -182 0 -4 27 -48
60 -97 33 -50 60 -95 60 -101 0 -7 6 -14 14 -17 8 -3 24 -25 35 -49 28 -57 62
-118 84 -148 10 -14 17 -43 17 -68 0 -27 18 -96 44 -171 97 -277 123 -394 151
-659 14 -129 16 -457 15 -2612 0 -2866 6 -2657 -95 -2957 -32 -93 -72 -199
-90 -238 -49 -105 -248 -349 -307 -376 -37 -16 -60 -31 -133 -85 -93 -68 -159
-104 -284 -154 -147 -58 -253 -81 -406 -87 -168 -6 -289 12 -469 71 -76 26
-142 46 -148 46 -20 0 -242 154 -352 245 -56 46 -188 199 -257 300 -55 79 -99
189 -114 280 -4 22 -15 81 -25 130 -23 116 -26 137 -52 405 l-22 225 3 2095
c1 1175 7 2133 12 2181 5 48 7 100 4 115 -2 16 -9 74 -16 129 l-12 100 -336
336 c-185 185 -343 344 -351 353 -8 10 -100 102 -205 206 -104 103 -197 196
-205 205 -8 9 -102 103 -207 208 -106 106 -205 206 -221 222 -15 17 -111 112
-212 212 -269 266 -589 596 -610 629 -9 16 -71 80 -136 143 -185 177 -217 206
-247 225 -15 9 -31 24 -34 33 -4 9 -99 110 -212 225 -113 114 -264 268 -336
341 -71 73 -168 169 -215 214 -47 44 -96 93 -110 109 -14 16 -109 111 -210
211 -102 101 -221 220 -265 266 -44 45 -92 94 -107 107 -15 14 -252 250 -527
525 -274 275 -504 505 -509 510 -6 6 -300 302 -654 660 -353 357 -776 782
-938 945 -276 276 -306 310 -460 515 -90 121 -176 233 -190 248 -14 16 -55 75
-92 130 -36 56 -78 116 -92 133 -14 18 -26 36 -26 40 -1 5 -21 41 -46 79 -24
39 -57 97 -72 130 -14 33 -55 119 -90 190 -35 72 -68 141 -73 154 -8 21 -8 22
6 11 8 -7 15 -10 15 -6 0 6 -58 127 -86 178 -8 15 -21 67 -29 115 -8 49 -47
214 -86 368 -67 264 -72 289 -81 445 -5 91 -8 311 -5 490 l6 325 45 220 c49
232 65 306 96 420 11 39 24 97 29 129 6 33 20 74 31 93 11 19 20 41 20 50 0 9
8 35 18 57 11 23 24 59 30 81 13 49 73 213 100 276 33 75 157 292 204 355 56
78 128 196 132 221 8 39 62 112 211 284 236 273 479 512 785 769 80 67 147
126 148 131 2 5 36 33 75 63 40 30 108 86 152 125 44 39 105 88 135 108 30 21
91 69 135 108 83 73 186 161 270 230 26 22 118 105 204 184 86 79 197 177 246
217 50 41 137 114 195 163 58 50 157 132 221 183 109 88 275 229 503 427 147
127 287 245 304 256 19 12 44 34 197 169 66 59 145 123 175 143 62 41 153 118
249 212 37 35 90 81 118 103 92 68 236 189 308 260 39 37 89 82 111 100 104
82 474 424 474 438 0 3 -30 17 -67 31 -81 29 -148 29 -339 4 -91 -13 -158 -16
-227 -11 -53 3 -2440 6 -5303 6 -3612 0 -5250 3 -5352 11 -81 6 -192 19 -248
29 -120 23 -315 85 -402 129 -34 17 -68 31 -76 31 -36 0 -308 247 -391 355
-70 92 -168 287 -200 400 -43 146 -55 222 -61 375 -7 150 7 275 41 380 8 25
22 79 30 120 9 41 24 84 34 95 10 11 44 67 75 125 100 182 107 193 191 275
158 155 344 278 495 327 25 7 44 19 43 25 -2 8 9 10 30 6 18 -2 102 8 187 23
91 16 211 30 290 33 126 6 12148 4 13880 -2z m-10103 -13581 c23 -15 49 -43
57 -61 9 -19 28 -47 41 -64 14 -16 44 -56 68 -89 45 -63 80 -111 168 -231 31
-42 59 -87 62 -101 4 -14 41 -65 82 -115 41 -49 99 -119 128 -154 58 -71 895
-916 941 -950 36 -27 154 -159 168 -188 14 -30 -17 -70 -181 -239 -72 -73
-157 -164 -189 -201 -32 -37 -233 -241 -446 -453 -213 -212 -404 -402 -424
-422 -20 -21 -323 -325 -673 -675 -349 -351 -1458 -1466 -2465 -2477 -2177
-2189 -2386 -2396 -2427 -2416 -18 -8 -68 -42 -112 -76 -131 -99 -356 -203
-530 -245 -145 -35 -352 -23 -640 37 -66 14 -149 38 -184 55 -127 59 -306 193
-419 314 -151 162 -246 311 -278 438 -9 34 -26 94 -39 132 -18 55 -26 113 -35
265 -14 229 -1 376 45 495 14 39 32 90 39 115 16 55 129 246 207 351 92 122
159 190 1508 1543 1426 1430 2762 2769 3267 3278 182 183 481 482 663 663 183
182 431 434 553 560 245 255 272 282 510 508 133 125 179 176 227 250 79 121
99 146 135 169 44 27 118 20 173 -16z"/>
<path d="M31610 41619 c0 -5 5 -7 10 -4 6 3 10 8 10 11 0 2 -4 4 -10 4 -5 0
-10 -5 -10 -11z"/>
<path d="M37570 41931 c0 -5 5 -13 10 -16 6 -3 10 -2 10 4 0 5 -4 13 -10 16
-5 3 -10 2 -10 -4z"/>
<path d="M38276 40888 c-4 -29 -11 -332 -17 -673 -5 -341 -13 -759 -18 -930
-4 -170 -4 -409 0 -530 4 -121 8 -350 9 -510 0 -165 7 -359 15 -450 8 -88 15
-192 15 -232 0 -39 4 -74 9 -77 48 -30 61 2450 16 3334 -2 47 -4 93 -5 103 -1
38 -18 14 -24 -35z"/>
<path d="M1262 11669 c-103 -12 -168 -31 -332 -96 -176 -70 -290 -134 -339
-189 -20 -23 -60 -83 -89 -135 -174 -312 -207 -364 -242 -381 -48 -24 -132
-24 -153 0 -10 10 -18 25 -18 33 -1 8 -7 -20 -15 -61 -8 -49 -13 -172 -13
-355 -1 -268 14 -743 25 -795 l6 -25 24 30 c13 17 24 35 24 41 0 6 7 17 16 25
13 11 19 8 38 -16 14 -18 29 -26 38 -22 34 13 54 -15 234 -317 99 -165 138
-211 398 -466 132 -129 458 -455 725 -724 267 -269 734 -737 1036 -1040 303
-303 926 -930 1385 -1394 459 -464 1031 -1041 1271 -1283 240 -242 462 -465
492 -497 31 -31 61 -62 67 -69 7 -6 21 -20 32 -31 11 -11 24 -24 29 -28 5 -5
65 -65 133 -134 183 -186 293 -289 366 -344 36 -27 83 -66 105 -86 22 -20 78
-63 125 -95 47 -32 121 -89 164 -127 43 -37 83 -68 88 -68 8 0 78 -48 115 -80
7 -5 19 -10 27 -10 8 0 23 -8 33 -18 34 -34 91 -71 134 -88 24 -10 49 -25 56
-35 7 -9 31 -19 53 -23 22 -3 48 -15 57 -26 10 -11 29 -20 43 -20 14 0 40 -9
59 -21 32 -19 185 -79 261 -101 19 -5 40 -14 45 -18 6 -4 26 -11 45 -15 19 -4
41 -11 50 -15 36 -19 98 -39 135 -45 22 -4 45 -10 50 -15 6 -4 21 -10 35 -13
14 -3 39 -10 55 -16 172 -61 536 -116 921 -138 128 -7 381 10 572 38 73 11
174 24 225 29 108 10 199 27 244 46 17 8 43 14 57 14 15 0 45 12 68 26 29 18
61 28 102 32 43 3 70 12 92 28 24 19 43 24 87 24 32 0 57 5 57 10 0 6 -4 10
-10 10 -5 0 -10 4 -10 8 0 5 42 14 92 21 70 10 96 18 106 32 7 11 21 19 31 19
10 0 25 8 35 18 14 16 37 26 115 48 7 2 10 11 7 19 -4 11 2 15 23 15 42 0 61
10 72 36 7 19 16 24 46 24 46 1 154 57 168 88 6 15 19 22 36 22 15 0 32 7 39
15 7 8 18 15 24 15 7 0 23 12 37 26 28 31 77 54 114 54 17 0 25 5 25 18 0 9
16 34 36 55 27 28 41 36 58 31 18 -4 25 1 36 28 9 19 35 46 62 63 26 17 68 51
95 76 26 24 71 61 98 81 28 20 71 60 95 90 25 29 75 84 111 123 37 38 74 88
83 110 10 22 28 51 41 65 82 87 142 219 156 345 6 44 21 143 36 219 29 156 27
249 -6 373 -10 37 -22 88 -25 113 -4 25 -13 59 -21 75 -8 17 -33 78 -56 138
-23 59 -45 110 -50 113 -5 3 -23 33 -41 67 -17 34 -59 92 -94 130 -35 37 -64
71 -64 75 0 10 -146 127 -240 194 -156 110 -255 149 -494 193 -114 20 -170 25
-310 25 -94 0 -200 -5 -235 -11 -73 -11 -180 -58 -261 -114 -192 -133 -272
-183 -308 -192 -13 -3 -46 -24 -72 -47 -92 -79 -210 -166 -224 -166 -3 0 -16
-9 -29 -20 -13 -11 -57 -38 -98 -59 -41 -21 -86 -45 -100 -54 -13 -8 -42 -19
-64 -23 -22 -4 -56 -14 -75 -24 -19 -9 -78 -28 -130 -41 -80 -20 -118 -24
-240 -23 -169 1 -259 14 -390 53 -52 16 -113 32 -135 36 -51 9 -75 22 -75 40
0 8 -9 15 -19 15 -11 0 -32 10 -48 23 -15 13 -54 38 -86 57 -32 19 -82 55
-110 80 -29 25 -72 58 -97 74 -32 20 -1316 1298 -1497 1490 -32 34 -405 405
-482 479 -41 40 -138 137 -215 216 -78 79 -172 173 -211 209 -38 36 -131 129
-205 206 -74 77 -327 331 -561 565 -234 235 -538 541 -675 681 -137 140 -303
308 -369 372 -66 65 -239 239 -385 388 -146 149 -321 325 -390 392 -69 68
-163 163 -210 212 -180 189 -528 534 -581 576 -30 25 -98 79 -150 121 -131
106 -307 213 -421 254 -91 34 -150 45 -309 60 -179 16 -190 16 -297 4z m10938
-6429 c0 -5 -2 -10 -4 -10 -3 0 -8 5 -11 10 -3 6 -1 10 4 10 6 0 11 -4 11 -10z"/>
<path d="M34072 6169 c-101 -9 -176 -33 -349 -110 -72 -33 -136 -59 -141 -59
-6 0 -24 -12 -41 -26 -17 -14 -42 -27 -55 -28 -22 -3 -148 -106 -221 -183 -45
-47 -174 -205 -190 -234 -35 -59 -55 -106 -55 -127 0 -13 -7 -38 -16 -55 -30
-57 -33 -64 -40 -103 -3 -22 -11 -47 -16 -57 -5 -9 -17 -63 -28 -120 -10 -56
-28 -136 -39 -177 -12 -41 -21 -98 -21 -126 0 -28 -9 -93 -20 -145 -10 -52
-22 -125 -26 -164 -7 -76 -14 -95 -52 -140 -14 -16 -41 -64 -59 -105 -62 -136
-100 -191 -217 -317 -27 -29 -43 -53 -35 -53 15 -1 -1 -16 -121 -112 -72 -57
-175 -118 -202 -118 -7 0 -37 -11 -65 -25 -29 -13 -55 -20 -58 -15 -3 5 -31
-2 -63 -16 -31 -15 -95 -40 -142 -58 l-85 -31 -4175 -6 c-3188 -4 -4197 -8
-4270 -17 -139 -18 -244 -39 -340 -68 -185 -55 -231 -79 -376 -190 -69 -51
-126 -94 -129 -94 -2 0 17 21 43 46 29 30 19 23 -28 -18 -81 -70 -220 -225
-220 -245 0 -7 -9 -17 -20 -23 -11 -6 -20 -19 -20 -28 0 -10 -16 -42 -36 -72
-97 -149 -152 -296 -173 -459 -31 -243 7 -604 77 -738 11 -21 23 -45 26 -53 4
-8 15 -28 26 -45 11 -16 23 -37 27 -45 3 -8 18 -31 33 -50 15 -19 29 -42 33
-50 6 -15 156 -200 192 -235 30 -30 144 -115 154 -115 5 0 11 -6 14 -13 3 -7
59 -41 125 -75 129 -66 222 -94 444 -132 291 -50 256 -50 4348 -50 2513 0
3861 4 3949 10 74 6 180 17 235 26 56 8 182 19 281 24 99 6 200 15 225 21 25
6 81 14 125 19 44 5 105 16 135 25 211 59 283 77 340 85 63 8 123 31 135 51 4
5 17 9 31 9 14 0 27 7 30 15 4 8 12 15 19 15 7 0 18 7 25 15 7 8 27 15 45 15
20 0 35 6 39 15 3 8 12 15 19 15 8 0 20 7 27 15 7 8 25 15 41 15 18 0 29 5 29
14 0 14 69 36 113 36 20 0 24 4 20 20 -4 16 0 20 18 20 13 0 37 11 53 25 16
14 35 25 42 25 7 0 26 11 42 25 17 14 47 32 68 41 21 9 43 22 49 28 5 7 30 19
55 26 44 13 117 61 133 87 4 7 17 13 28 13 10 0 36 17 57 38 46 48 88 76 101
68 6 -4 15 2 21 14 6 11 26 30 44 42 54 37 277 239 401 363 67 68 100 106 178
205 20 25 47 59 60 75 13 17 59 82 102 145 42 63 91 132 109 155 36 46 52 72
65 100 5 11 25 44 45 72 20 29 36 57 36 61 0 5 9 21 20 35 12 14 26 41 32 59
6 18 19 40 28 48 18 16 140 233 140 250 0 6 -4 10 -9 10 -9 0 46 131 84 203 8
16 15 37 15 47 0 11 13 61 29 112 16 51 37 122 46 158 10 36 24 82 31 103 8
20 14 47 14 60 0 12 6 33 13 47 34 65 75 323 87 547 23 430 8 643 -57 808 -26
66 -106 228 -129 260 -99 140 -174 231 -241 295 -93 87 -215 179 -252 190 -15
4 -69 28 -121 52 -202 96 -437 132 -698 107z"/>
<path d="M25150 5496 c0 -2 7 -7 16 -10 8 -3 12 -2 9 4 -6 10 -25 14 -25 6z"/>
<path d="M32814 4615 c-3 -8 -4 -20 -2 -27 3 -7 7 -1 10 15 6 29 1 36 -8 12z"/>
</g>
</svg>
