<?xml version="1.0" standalone="no"?>
<!DOCTYPE svg PUBLIC "-//W3C//DTD SVG 20010904//EN"
 "http://www.w3.org/TR/2001/REC-SVG-20010904/DTD/svg10.dtd">
<svg version="1.0" xmlns="http://www.w3.org/2000/svg"
 width="3840.000000pt" height="4387.000000pt" viewBox="0 0 3840.000000 4387.000000"
 preserveAspectRatio="xMidYMid meet">
<metadata>
Created by potrace 1.16, written by Peter Selinger 2001-2019
</metadata>
<g transform="translate(0.000000,4387.000000) scale(0.100000,-0.100000)"
fill="#000000" stroke="none">
<path d="M13380 43834 c-210 -11 -468 -45 -720 -95 -103 -20 -345 -79 -425
-103 -27 -8 -68 -20 -90 -26 -77 -23 -211 -69 -305 -105 -52 -20 -106 -40
-120 -44 -14 -5 -50 -20 -80 -34 -30 -14 -84 -37 -120 -52 -157 -66 -496 -244
-650 -342 -223 -143 -580 -400 -630 -453 -3 -3 -39 -34 -80 -69 -106 -89 -444
-425 -559 -556 -111 -126 -248 -300 -353 -448 -78 -110 -225 -333 -235 -357
-3 -8 -14 -27 -24 -41 -62 -89 -272 -513 -341 -689 -16 -41 -36 -89 -44 -107
-8 -17 -14 -38 -14 -46 0 -9 -4 -19 -10 -22 -5 -3 -10 -13 -10 -22 0 -8 -6
-29 -14 -46 -20 -45 -104 -307 -126 -397 -10 -41 -28 -111 -39 -155 -59 -232
-103 -507 -133 -820 -20 -210 -19 -25323 0 -25530 18 -181 57 -463 83 -590 25
-122 95 -412 116 -480 85 -275 182 -532 282 -750 22 -48 124 -253 139 -281 16
-29 204 -350 227 -387 32 -53 175 -257 225 -321 25 -32 63 -82 85 -112 116
-154 209 -259 445 -494 248 -248 308 -301 544 -483 101 -78 320 -234 383 -272
18 -11 77 -47 130 -80 109 -67 110 -67 208 -120 496 -269 945 -433 1536 -559
126 -28 420 -71 539 -80 41 -3 122 -10 180 -16 144 -13 19705 -13 19855 0 61
5 142 12 180 15 134 10 381 48 560 85 125 26 188 41 345 80 235 59 648 215
930 353 187 92 352 180 425 227 17 11 44 27 60 36 26 15 248 161 309 204 321
225 727 593 972 880 49 58 91 107 94 110 7 7 135 171 194 248 67 88 229 329
283 421 144 243 239 427 338 656 7 17 23 52 35 79 12 28 35 86 51 130 16 45
34 90 39 101 11 24 80 227 91 270 4 17 15 55 24 85 39 135 105 409 105 438 0
12 4 31 9 44 5 13 14 61 21 108 6 47 18 121 25 165 41 251 40 -108 40 9865 0
9078 -1 9522 -18 9665 -10 83 -22 173 -27 200 -4 28 -14 86 -20 130 -7 44 -21
123 -32 175 -11 52 -24 113 -28 135 -12 57 -77 307 -96 368 -145 460 -283 790
-486 1152 -208 373 -433 690 -715 1006 -175 197 -6685 6694 -6828 6816 -325
275 -623 476 -1012 687 -78 42 -170 89 -205 105 -35 16 -94 43 -133 61 -38 18
-104 45 -145 62 -41 16 -88 35 -105 42 -61 27 -270 100 -460 159 -141 44 -459
119 -620 146 -275 46 -354 56 -575 71 -117 8 -13323 11 -13480 4z m11303
-7691 l3 -3588 22 -125 c24 -127 75 -349 90 -385 5 -11 19 -51 32 -90 12 -38
28 -83 36 -100 7 -16 22 -52 34 -80 208 -483 553 -893 1000 -1189 97 -65 379
-208 490 -250 41 -16 84 -32 95 -36 53 -21 250 -75 330 -91 28 -6 102 -20 165
-32 l115 -22 3583 -3 3582 -2 -3 -8308 -2 -8307 -23 -100 c-20 -88 -34 -136
-61 -210 -40 -107 -117 -244 -194 -344 -233 -301 -583 -490 -962 -519 -123
-10 -19272 -9 -19410 1 -190 13 -368 64 -531 152 -118 63 -196 120 -287 205
-191 179 -317 392 -385 650 -50 187 -47 -572 -47 12680 0 12745 -1 12483 35
12620 50 193 120 354 208 480 69 98 236 264 337 335 107 75 310 175 353 175
12 0 23 4 26 9 3 5 27 12 52 16 26 4 54 10 63 15 9 5 48 13 86 18 42 5 2294
10 5617 10 l5548 2 3 -3587z"/>
<path d="M3740 35610 c-158 -17 -297 -38 -405 -61 -106 -23 -221 -51 -240 -59
-11 -5 -36 -12 -55 -16 -84 -16 -360 -117 -535 -194 -238 -106 -472 -239 -696
-396 -104 -74 -251 -185 -269 -204 -3 -3 -50 -45 -105 -92 -471 -406 -894
-1004 -1124 -1590 -128 -326 -202 -610 -258 -998 -17 -120 -18 -641 -18
-13525 0 -10605 3 -13418 12 -13485 7 -47 15 -112 18 -145 3 -33 10 -85 15
-115 9 -50 28 -165 51 -295 4 -27 12 -66 18 -85 5 -19 21 -84 36 -145 56 -238
184 -622 274 -820 10 -22 24 -56 32 -75 30 -75 229 -461 288 -560 35 -58 119
-188 187 -290 141 -209 216 -308 398 -524 80 -95 482 -496 576 -575 41 -35 86
-73 100 -85 14 -12 72 -58 130 -101 58 -44 107 -82 110 -85 15 -16 193 -138
320 -217 210 -131 303 -184 505 -283 538 -266 1082 -434 1665 -514 63 -8 151
-21 195 -28 105 -16 21195 -24 21400 -8 469 36 898 148 1355 354 541 244 1091
665 1470 1126 56 69 110 134 119 145 50 61 191 269 262 386 69 114 103 176
164 301 26 51 50 101 55 110 47 86 178 452 234 648 74 264 131 653 131 900 l0
125 -11775 6 c-7819 4 -11800 9 -11850 16 -182 25 -524 107 -590 142 -9 5 -30
12 -48 15 -17 4 -34 12 -37 17 -4 5 -14 9 -24 9 -10 0 -96 39 -192 88 -289
145 -481 283 -705 506 -146 147 -230 249 -340 413 -75 113 -193 330 -234 433
-12 30 -29 69 -36 87 -8 17 -14 36 -14 42 0 6 -4 19 -9 29 -26 46 -101 333
-120 457 -43 277 -41 -575 -41 14777 l0 14458 -117 -1 c-65 -1 -192 -9 -283
-19z"/>
</g>
</svg>
