<?xml version="1.0" standalone="no"?>
<!DOCTYPE svg PUBLIC "-//W3C//DTD SVG 20010904//EN"
 "http://www.w3.org/TR/2001/REC-SVG-20010904/DTD/svg10.dtd">
<svg version="1.0" xmlns="http://www.w3.org/2000/svg"
 width="3840.000000pt" height="3074.000000pt" viewBox="0 0 3840.000000 3074.000000"
 preserveAspectRatio="xMidYMid meet">
<metadata>
Created by potrace 1.16, written by Peter Selinger 2001-2019
</metadata>
<g transform="translate(0.000000,3074.000000) scale(0.100000,-0.100000)"
fill="#000000" stroke="none">
<path d="M875 30669 c-248 -36 -506 -202 -654 -420 -72 -108 -130 -256 -151
-389 -14 -93 -14 -6860 1 -6965 27 -197 114 -374 256 -520 153 -159 258 -221
473 -283 46 -13 144 -16 612 -19 l558 -4 3 -10362 c2 -8653 4 -10373 16
-10427 21 -104 49 -211 70 -272 31 -91 119 -265 163 -323 145 -192 293 -331
439 -414 86 -50 229 -116 289 -134 116 -35 157 -46 225 -59 104 -20 5147 -19
5250 0 161 31 290 75 425 144 313 159 562 437 687 768 23 60 49 154 75 275 8
35 13 1000 18 3275 5 2918 8 3245 23 3435 22 268 62 634 88 795 10 69 26 170
35 225 42 271 161 802 241 1075 13 47 38 130 55 185 16 55 33 114 37 131 9 34
101 302 153 444 506 1385 1306 2653 2318 3671 303 305 468 457 745 685 701
578 1561 1095 2350 1411 88 35 196 79 240 98 112 47 536 187 680 226 66 17
163 44 215 60 80 24 350 88 510 121 137 28 456 81 595 98 88 11 194 24 236 30
41 6 138 15 215 20 76 6 195 15 264 21 163 15 1009 15 1165 0 66 -6 183 -15
260 -21 77 -5 172 -14 210 -20 39 -5 129 -17 200 -26 335 -41 879 -148 1210
-237 478 -129 1043 -330 1433 -511 78 -36 145 -66 148 -66 7 0 327 -160 434
-218 365 -195 768 -444 1050 -649 63 -46 144 -104 180 -130 109 -79 347 -270
494 -398 77 -66 155 -133 175 -149 149 -123 607 -589 825 -841 444 -512 762
-959 1093 -1535 209 -363 430 -819 573 -1180 33 -85 70 -177 82 -205 26 -63
193 -562 212 -635 7 -30 30 -111 50 -180 72 -243 175 -723 236 -1095 19 -117
69 -563 87 -770 16 -193 18 -486 23 -3650 l6 -3440 23 -100 c87 -385 289 -688
599 -899 176 -119 341 -185 582 -232 114 -22 5116 -21 5235 1 161 30 280 68
410 131 375 183 665 542 755 934 10 47 25 110 32 140 9 44 13 2187 15 10417
l3 10362 558 4 c606 4 589 3 742 65 136 55 214 107 323 214 150 149 228 296
271 510 14 69 16 447 16 3506 0 3054 -2 3439 -15 3513 -36 192 -102 328 -232
476 -74 84 -162 153 -266 208 -107 57 -179 82 -292 100 -79 13 -2375 15
-18345 14 -10215 -1 -18281 -5 -18315 -10z m34595 -4294 l0 -1435 -16270 0
-16270 0 0 1435 0 1435 16270 0 16270 0 0 -1435z m-1912 -13877 l2 -9568 -959
0 -960 0 -4 2683 c-3 2377 -6 2703 -20 2867 -9 102 -21 250 -28 330 -18 237
-86 756 -135 1035 -65 367 -69 385 -104 535 -18 74 -36 155 -41 180 -5 25 -13
59 -18 75 -5 17 -16 66 -26 110 -9 44 -23 98 -30 120 -7 22 -21 69 -30 105
-10 36 -30 108 -45 160 -15 52 -35 124 -45 160 -16 57 -64 202 -191 580 -19
58 -49 141 -66 185 -208 534 -381 923 -598 1344 -116 225 -308 572 -340 616
-4 6 -22 37 -40 70 -18 33 -47 83 -65 110 -18 28 -93 145 -168 261 -391 611
-940 1307 -1448 1836 -366 380 -862 838 -1181 1091 -57 44 -143 113 -193 152
-391 309 -977 706 -1390 940 -293 166 -355 200 -615 333 -323 166 -632 307
-960 438 -74 30 -144 59 -155 64 -183 83 -885 313 -1315 429 -347 94 -1097
246 -1405 285 -433 55 -531 66 -710 80 -110 9 -261 22 -335 28 -223 20 -1275
17 -1545 -5 -502 -39 -880 -84 -1277 -152 -324 -56 -810 -161 -998 -216 -58
-17 -180 -51 -272 -75 -92 -24 -248 -72 -345 -106 -98 -34 -218 -74 -268 -89
-49 -15 -148 -51 -220 -79 -71 -28 -193 -76 -270 -105 -133 -52 -271 -109
-380 -160 -48 -22 -86 -38 -185 -81 -25 -10 -184 -89 -355 -175 -336 -168
-608 -317 -805 -439 -69 -42 -168 -103 -220 -135 -232 -142 -637 -422 -932
-646 -220 -166 -633 -508 -765 -631 -48 -46 -128 -119 -178 -163 -123 -109
-537 -524 -664 -665 -57 -63 -132 -144 -166 -180 -102 -108 -470 -554 -639
-774 -195 -256 -452 -622 -604 -861 -63 -99 -136 -214 -162 -255 -101 -157
-362 -626 -496 -890 -210 -412 -365 -756 -526 -1165 -21 -55 -45 -115 -53
-133 -8 -18 -15 -40 -15 -50 0 -9 -7 -26 -15 -36 -8 -11 -15 -27 -15 -37 0 -9
-7 -30 -15 -45 -8 -16 -15 -39 -15 -51 0 -12 -4 -24 -9 -27 -5 -3 -20 -41 -34
-83 -14 -43 -35 -103 -47 -133 -12 -30 -28 -77 -36 -105 -8 -27 -19 -63 -24
-80 -5 -16 -14 -50 -21 -75 -6 -25 -18 -58 -25 -75 -7 -16 -20 -57 -30 -90 -9
-33 -28 -94 -41 -135 -13 -41 -28 -93 -33 -115 -4 -22 -25 -103 -45 -180 -21
-77 -41 -156 -46 -175 -4 -19 -15 -62 -24 -95 -16 -62 -54 -234 -99 -455 -14
-69 -30 -145 -36 -170 -10 -45 -19 -101 -45 -265 -8 -49 -23 -142 -34 -206
-22 -127 -79 -589 -96 -769 -50 -555 -54 -789 -54 -3302 l-1 -2268 -960 0
-960 0 0 9563 c0 5260 3 9567 7 9570 3 4 6464 6 14357 5 l14351 -3 3 -9567z"/>
<path d="M17235 15144 c-463 -434 -1102 -1088 -1428 -1463 -336 -387 -420
-486 -589 -695 -224 -276 -697 -903 -864 -1144 -148 -215 -311 -456 -345 -513
-15 -24 -76 -122 -138 -217 -283 -441 -627 -1069 -854 -1558 -135 -290 -307
-711 -363 -889 -19 -60 -41 -126 -49 -145 -77 -195 -189 -634 -239 -935 -41
-246 -51 -377 -50 -680 2 -737 109 -1402 341 -2110 66 -203 163 -459 225 -595
19 -41 43 -95 54 -120 36 -86 215 -434 291 -564 119 -203 223 -366 355 -553
85 -121 303 -401 365 -468 10 -11 61 -69 113 -130 285 -329 785 -776 1154
-1033 182 -126 395 -265 481 -312 33 -18 92 -52 130 -75 84 -50 406 -215 525
-269 448 -202 998 -381 1465 -475 146 -29 381 -69 450 -76 33 -3 107 -12 165
-20 346 -45 964 -55 1335 -21 110 10 202 19 205 21 3 2 53 9 110 15 92 10 183
24 404 61 57 10 153 30 231 49 22 5 81 19 130 31 240 55 613 173 855 269 692
276 1241 594 1805 1045 636 508 1169 1116 1597 1823 37 62 68 115 68 118 0 3
8 18 19 32 43 63 204 378 301 592 155 342 313 802 399 1160 50 210 63 270 76
345 7 44 21 121 30 170 68 378 108 974 86 1300 -52 793 -422 1884 -1035 3053
-689 1314 -1612 2557 -2592 3489 l-191 182 -164 -151 c-253 -233 -707 -687
-954 -953 -206 -222 -502 -557 -568 -643 -15 -21 -32 -38 -36 -40 -9 -3 -33
26 -191 234 -113 148 -391 494 -501 624 -53 63 -138 165 -190 225 -327 388
-824 922 -1277 1373 -356 354 -885 852 -904 852 -7 0 -116 -98 -243 -216z
m510 -4517 c409 -536 533 -701 1593 -2112 574 -764 1047 -1391 1051 -1393 4
-1 147 163 317 365 169 202 367 438 439 523 72 85 248 295 390 465 143 171
300 357 349 415 48 58 118 140 154 183 35 43 68 75 72 70 37 -39 292 -522 391
-739 558 -1232 456 -2677 -263 -3736 -342 -502 -825 -908 -1397 -1175 -64 -29
-125 -58 -136 -63 -66 -32 -309 -116 -443 -155 -416 -119 -829 -166 -1257
-145 -315 16 -483 40 -874 126 -74 17 -380 116 -464 150 -32 14 -87 38 -123
54 -36 17 -92 41 -125 55 -119 48 -412 220 -559 329 -222 164 -516 442 -667
631 -263 330 -458 684 -597 1085 -217 624 -282 1388 -166 1960 159 786 609
1559 1765 3035 138 176 261 334 273 352 13 18 28 30 35 27 7 -3 116 -141 242
-307z"/>
</g>
</svg>
