<?xml version="1.0" standalone="no"?>
<!DOCTYPE svg PUBLIC "-//W3C//DTD SVG 20010904//EN"
 "http://www.w3.org/TR/2001/REC-SVG-20010904/DTD/svg10.dtd">
<svg version="1.0" xmlns="http://www.w3.org/2000/svg"
 width="3840.000000pt" height="3074.000000pt" viewBox="0 0 3840.000000 3074.000000"
 preserveAspectRatio="xMidYMid meet">
<metadata>
Created by potrace 1.16, written by Peter Selinger 2001-2019
</metadata>
<g transform="translate(0.000000,3074.000000) scale(0.100000,-0.100000)"
fill="#000000" stroke="none">
<path d="M10415 28759 c-147 -9 -403 -49 -515 -80 -41 -11 -93 -24 -115 -29
-142 -31 -491 -185 -676 -299 -107 -66 -145 -91 -272 -184 -64 -46 -257 -218
-306 -271 -20 -22 -62 -68 -94 -102 -90 -96 -307 -393 -307 -419 0 -2 -11 -21
-25 -41 -27 -40 -162 -313 -176 -354 -4 -14 -24 -70 -44 -125 -36 -99 -57
-169 -75 -253 -5 -24 -12 -47 -15 -52 -6 -10 -19 -76 -47 -240 -20 -117 -21
-171 -25 -828 -4 -571 -7 -704 -18 -708 -7 -3 -53 9 -101 26 -109 38 -305 85
-479 112 -125 20 -174 21 -1205 25 -1124 4 -1303 0 -1530 -37 -116 -19 -166
-30 -340 -75 -105 -28 -276 -93 -397 -151 -62 -30 -116 -54 -120 -54 -16 -1
-312 -186 -379 -237 -38 -29 -88 -66 -111 -83 -136 -101 -364 -338 -495 -515
-66 -89 -93 -130 -162 -245 -188 -312 -317 -658 -370 -995 -40 -246 -39 -214
-43 -3252 l-4 -2962 -757 -4 c-665 -2 -763 -5 -803 -19 -170 -60 -282 -174
-331 -338 -20 -67 -19 -1133 1 -1205 28 -98 98 -200 174 -251 23 -16 44 -31
47 -34 10 -11 87 -40 145 -55 50 -13 172 -15 792 -15 l733 0 0 -2858 c0 -1806
4 -2916 10 -3017 13 -205 43 -405 87 -575 34 -134 41 -155 93 -300 121 -335
374 -730 640 -999 72 -73 200 -188 249 -224 31 -22 58 -44 59 -49 2 -4 8 -8
14 -8 6 0 32 -18 59 -41 59 -49 303 -197 379 -230 30 -13 75 -34 100 -47 62
-34 290 -120 375 -142 189 -50 240 -61 360 -80 229 -37 399 -41 1512 -37 1047
3 1071 4 1208 26 223 35 454 92 541 133 12 6 30 8 40 6 18 -3 19 -28 25 -708
l5 -705 27 -155 c39 -227 87 -402 175 -635 38 -100 145 -312 204 -403 10 -15
27 -45 39 -67 30 -55 193 -270 251 -330 26 -27 67 -72 90 -100 23 -27 62 -67
87 -89 25 -21 74 -64 107 -96 34 -32 88 -75 120 -98 33 -22 70 -50 84 -62 33
-29 158 -110 170 -110 6 0 10 -4 10 -9 0 -5 8 -11 18 -15 9 -3 31 -15 47 -26
17 -11 42 -26 58 -32 15 -7 27 -16 27 -20 0 -4 6 -8 13 -8 6 0 64 -25 127 -56
63 -31 126 -60 140 -64 14 -5 70 -25 125 -45 55 -20 118 -40 140 -44 22 -5 76
-18 120 -31 91 -26 78 -23 245 -49 241 -38 423 -43 1515 -38 622 3 1072 9
1120 15 324 42 441 70 735 175 197 70 515 242 665 359 6 5 33 25 60 45 256
188 531 495 710 792 69 115 205 389 205 413 0 8 4 18 9 23 11 12 65 170 87
251 44 166 53 207 69 304 9 58 22 128 28 155 8 36 12 1399 14 4977 l3 4928
3830 0 3830 0 3 -4932 c2 -3656 6 -4945 14 -4978 7 -25 19 -92 28 -150 16 -96
25 -139 68 -301 17 -64 43 -145 57 -174 4 -11 18 -47 29 -80 18 -54 117 -269
141 -305 6 -8 15 -26 21 -40 5 -13 14 -27 18 -30 5 -3 19 -25 32 -49 13 -24
29 -51 34 -60 174 -274 421 -546 665 -729 41 -31 84 -64 94 -74 11 -10 52 -37
90 -60 39 -24 73 -46 74 -50 2 -5 8 -8 14 -8 5 0 42 -19 81 -43 181 -109 431
-211 667 -273 36 -9 88 -23 115 -30 66 -17 212 -40 355 -56 163 -18 2286 -19
2445 0 294 33 476 72 665 143 47 17 105 37 129 45 68 22 305 139 426 212 215
129 465 333 617 502 37 41 78 86 91 100 46 50 177 230 224 307 26 43 58 94 71
113 27 40 145 280 174 355 33 84 79 217 93 270 7 28 23 86 35 130 11 44 33
150 47 235 26 154 26 159 32 857 3 386 9 704 13 708 4 4 65 -11 135 -33 153
-49 262 -74 443 -103 132 -22 162 -22 1210 -26 674 -3 1135 -1 1235 6 486 31
899 158 1310 402 406 241 741 574 988 986 77 129 187 346 207 410 5 15 18 53
30 83 70 181 114 364 150 615 27 196 30 480 30 3247 l0 2857 758 4 c664 2 763
5 802 19 53 19 103 40 110 48 3 3 25 19 49 35 52 35 113 110 141 171 49 106
50 126 50 684 0 572 -1 583 -58 700 -28 57 -142 180 -168 180 -8 0 -14 4 -14
9 0 5 -8 11 -17 14 -10 3 -45 16 -78 29 l-60 23 -757 3 -758 3 -3 2957 c-3
2145 -7 2983 -15 3052 -18 149 -42 300 -57 355 -7 28 -20 79 -30 115 -28 111
-32 122 -74 240 -23 63 -72 179 -110 257 -295 605 -759 1067 -1365 1357 -76
36 -142 66 -146 66 -5 0 -50 16 -102 36 -145 55 -334 104 -518 134 -227 37
-407 41 -1525 37 -1038 -4 -1074 -4 -1202 -25 -182 -30 -348 -68 -473 -108
-57 -19 -110 -32 -116 -30 -10 4 -13 169 -17 708 l-4 703 -26 155 c-14 85 -36
191 -48 235 -11 44 -27 103 -34 130 -47 179 -187 502 -279 643 -24 37 -50 81
-59 98 -49 96 -278 375 -414 504 -132 126 -170 159 -276 238 -367 275 -801
462 -1242 536 -228 39 -312 41 -1455 41 -861 0 -1139 -3 -1220 -13 -164 -21
-328 -50 -405 -72 -38 -11 -83 -23 -100 -26 -31 -6 -81 -22 -228 -73 -179 -63
-507 -243 -702 -386 -131 -96 -305 -256 -436 -400 -72 -80 -269 -343 -269
-361 0 -2 -24 -41 -53 -87 -57 -88 -172 -324 -206 -422 -11 -33 -30 -85 -41
-115 -11 -30 -24 -71 -29 -90 -5 -19 -19 -71 -31 -115 -24 -91 -33 -130 -62
-305 l-22 -125 -3 -4922 -3 -4923 -3830 0 -3830 0 -3 4923 c-3 3712 -6 4937
-15 4982 -7 33 -19 105 -28 160 -15 91 -25 135 -67 295 -49 183 -194 520 -289
670 -98 154 -116 181 -200 291 -81 107 -280 320 -388 415 -100 88 -283 219
-420 301 -97 58 -343 179 -404 198 -23 7 -81 28 -131 45 -195 71 -325 100
-605 137 -107 14 -278 16 -1200 18 -591 2 -1133 -1 -1205 -6z m2325 -1935
c203 -64 362 -167 487 -314 81 -97 82 -98 134 -200 41 -82 66 -161 84 -271 13
-84 15 -1233 15 -10674 0 -9555 -2 -10589 -16 -10670 -29 -170 -74 -273 -176
-411 -122 -165 -282 -285 -454 -342 -158 -53 -137 -52 -1270 -52 -914 0 -1065
2 -1132 16 -161 32 -274 83 -399 180 -200 156 -327 363 -368 601 -13 75 -15
1355 -15 10683 0 9516 2 10606 15 10686 67 383 369 694 756 779 53 11 256 13
1169 11 1080 -2 1106 -2 1170 -22z m15310 -1 c36 -12 81 -26 100 -32 19 -6 66
-29 104 -51 37 -22 70 -40 73 -40 11 0 130 -101 174 -147 143 -149 219 -299
254 -502 13 -73 15 -1410 15 -10686 0 -9420 -2 -10612 -15 -10682 -31 -162
-83 -282 -175 -403 -124 -163 -284 -281 -457 -339 -156 -52 -123 -51 -1263
-51 -919 0 -1071 2 -1138 16 -164 33 -280 86 -407 188 -110 89 -189 181 -252
295 -61 110 -85 180 -107 306 -14 81 -16 1103 -16 10675 0 9559 2 10594 16
10675 21 120 45 192 100 294 54 99 92 149 188 245 127 126 320 227 488 255 30
5 535 8 1153 7 1089 -2 1101 -2 1165 -23z m-21115 -3812 c130 -32 250 -83 352
-148 68 -43 216 -190 271 -269 35 -51 86 -157 110 -231 50 -150 47 271 47
-6993 0 -7264 3 -6843 -47 -6993 -10 -32 -23 -66 -28 -75 -4 -9 -17 -35 -27
-57 -34 -73 -105 -168 -190 -252 -150 -148 -293 -223 -508 -264 -102 -20
-2127 -20 -2230 -1 -163 31 -295 92 -427 197 -160 126 -272 291 -335 490 l-28
90 0 6860 0 6860 23 80 c34 122 112 270 189 364 148 178 368 308 573 341 111
17 118 17 1175 15 784 -1 1042 -4 1080 -14z m26810 -3 c220 -56 420 -178 538
-327 28 -36 54 -68 57 -71 4 -3 22 -32 42 -65 40 -68 78 -159 105 -255 17 -63
18 -307 18 -6915 l0 -6850 -22 -83 c-12 -46 -35 -111 -50 -145 -26 -59 -80
-156 -93 -167 -3 -3 -28 -34 -55 -69 -105 -134 -310 -268 -482 -311 -147 -38
-244 -41 -1273 -38 -887 4 -1003 6 -1070 21 -190 42 -272 82 -425 208 -175
143 -293 341 -336 564 -12 59 -14 1156 -14 6865 0 7248 -3 6844 46 6990 55
169 155 314 299 436 89 76 89 76 143 104 27 14 63 33 80 42 63 33 216 72 322
82 22 2 506 2 1075 1 892 -1 1043 -4 1095 -17z"/>
</g>
</svg>
