<?xml version="1.0" standalone="no"?>
<!DOCTYPE svg PUBLIC "-//W3C//DTD SVG 20010904//EN"
 "http://www.w3.org/TR/2001/REC-SVG-20010904/DTD/svg10.dtd">
<svg version="1.0" xmlns="http://www.w3.org/2000/svg"
 width="3840.000000pt" height="3840.000000pt" viewBox="0 0 3840.000000 3840.000000"
 preserveAspectRatio="xMidYMid meet">
<metadata>
Created by potrace 1.16, written by Peter Selinger 2001-2019
</metadata>
<g transform="translate(0.000000,3840.000000) scale(0.100000,-0.100000)"
fill="#000000" stroke="none">
<path d="M32100 35923 c-189 -10 -668 -45 -735 -53 -44 -6 -195 -23 -335 -40
-140 -16 -291 -36 -335 -44 -44 -7 -168 -28 -275 -45 -169 -27 -408 -73 -670
-128 -41 -8 -136 -31 -210 -50 -74 -19 -171 -44 -215 -54 -246 -61 -426 -111
-672 -190 -35 -11 -91 -28 -125 -39 -65 -19 -303 -101 -373 -127 -81 -31 -291
-105 -320 -113 -16 -4 -57 -20 -90 -34 -69 -31 -71 -32 -185 -79 -47 -19 -129
-54 -183 -76 -54 -23 -102 -41 -108 -41 -5 0 -49 -19 -97 -41 -115 -55 -232
-109 -312 -144 -133 -59 -763 -382 -865 -444 -37 -23 -69 -41 -71 -41 -2 0
-41 -22 -86 -49 -46 -27 -126 -72 -178 -101 -52 -29 -127 -73 -165 -99 -39
-25 -80 -51 -90 -58 -124 -74 -356 -223 -460 -294 -71 -50 -188 -130 -260
-178 -71 -48 -157 -109 -190 -135 -33 -26 -150 -113 -260 -195 -110 -81 -243
-183 -295 -227 -52 -44 -160 -132 -240 -196 -380 -307 -797 -692 -1266 -1170
-374 -381 -803 -871 -1148 -1312 -181 -232 -266 -341 -286 -370 -61 -87 -202
-283 -245 -341 -29 -38 -86 -122 -128 -185 -42 -63 -108 -162 -147 -220 -245
-360 -533 -837 -783 -1295 -33 -60 -63 -114 -67 -120 -25 -34 -341 -669 -458
-920 -151 -323 -378 -854 -462 -1080 -29 -77 -72 -189 -95 -250 -43 -107 -67
-175 -144 -400 -92 -269 -161 -475 -180 -540 -85 -285 -158 -509 -166 -512 -6
-2 -19 11 -29 29 -38 67 -171 276 -231 363 -248 362 -253 369 -450 639 -226
308 -632 814 -889 1106 -460 522 -1031 1094 -1531 1531 -370 324 -776 647
-1165 927 -115 82 -682 462 -800 536 -121 75 -352 213 -445 266 -16 9 -97 55
-180 102 -223 127 -244 138 -445 238 -102 51 -237 118 -300 150 -63 32 -140
68 -170 80 -30 13 -110 50 -177 82 -67 32 -124 58 -128 58 -3 0 -43 16 -88 36
-45 20 -97 43 -114 50 -48 20 -91 39 -157 68 -32 14 -65 26 -72 26 -7 0 -35
10 -61 21 -27 12 -57 26 -68 31 -11 5 -63 24 -115 42 -52 19 -111 39 -130 46
-19 7 -44 17 -54 22 -10 6 -42 18 -70 28 -28 9 -105 36 -171 59 -66 24 -136
46 -155 50 -19 5 -53 15 -75 23 -22 9 -71 25 -110 37 -38 12 -119 37 -179 56
-60 19 -116 35 -124 35 -9 0 -43 9 -76 19 -34 11 -88 26 -121 34 -33 9 -87 23
-120 32 -33 9 -105 27 -160 41 -55 13 -131 33 -170 44 -38 11 -104 26 -145 34
-270 52 -501 98 -540 106 -51 11 -272 47 -370 60 -36 4 -112 15 -170 24 -369
54 -704 86 -1165 111 -227 12 -758 15 -3302 15 l-3032 0 -1 -807 c-1 -1265 14
-1767 75 -2606 8 -109 21 -256 30 -325 8 -70 28 -253 45 -406 17 -154 40 -336
51 -405 11 -69 24 -151 29 -181 5 -30 24 -158 44 -285 19 -126 49 -297 66
-380 17 -82 55 -274 86 -425 72 -360 232 -997 345 -1380 162 -546 169 -570
269 -850 26 -74 74 -209 105 -300 56 -164 288 -758 367 -940 136 -317 365
-805 527 -1125 162 -320 256 -492 534 -980 28 -49 121 -200 205 -335 85 -135
162 -258 171 -274 24 -43 124 -191 266 -396 70 -102 148 -214 173 -250 88
-128 138 -197 217 -300 45 -58 141 -184 215 -280 120 -156 304 -387 320 -400
3 -3 37 -43 75 -90 180 -219 402 -470 630 -710 40 -41 92 -97 118 -125 25 -27
143 -147 263 -265 119 -118 228 -228 243 -244 14 -15 145 -135 291 -265 146
-130 290 -259 320 -287 30 -28 78 -68 105 -90 28 -21 52 -42 55 -45 3 -3 46
-36 95 -74 50 -37 92 -71 95 -75 16 -20 360 -293 475 -375 204 -147 274 -198
345 -250 92 -68 236 -165 244 -165 4 0 12 -5 19 -10 24 -20 113 -80 142 -96
17 -9 59 -38 95 -63 69 -49 259 -171 266 -171 3 0 31 -17 62 -38 31 -20 75
-46 97 -57 22 -11 42 -23 45 -26 3 -3 24 -16 48 -28 23 -12 109 -61 190 -110
187 -112 263 -154 387 -214 55 -27 147 -74 205 -105 58 -31 107 -57 110 -57 8
-2 99 -48 150 -77 25 -14 70 -36 100 -48 30 -12 73 -31 95 -41 22 -10 80 -36
128 -59 49 -22 90 -40 93 -40 2 0 72 -32 155 -70 82 -39 183 -81 222 -95 40
-13 110 -39 157 -59 47 -19 112 -44 145 -56 33 -13 76 -28 95 -35 19 -8 73
-29 120 -48 89 -37 139 -54 385 -132 83 -27 237 -77 344 -112 107 -34 200 -63
208 -63 13 0 52 -10 218 -55 28 -7 88 -23 135 -35 47 -12 112 -30 145 -40 66
-20 195 -50 320 -74 228 -43 308 -59 390 -77 50 -11 108 -24 130 -29 22 -5
123 -20 225 -35 290 -41 450 -64 510 -75 69 -11 198 -25 410 -44 554 -50 789
-56 2098 -56 l1202 0 0 -4236 c0 -3827 2 -4246 16 -4333 16 -96 40 -179 75
-258 11 -24 19 -47 19 -53 0 -5 4 -10 9 -10 5 0 21 -26 36 -57 22 -49 94 -155
115 -173 3 -3 23 -27 45 -54 22 -27 63 -66 92 -88 29 -21 60 -46 70 -56 47
-49 246 -159 318 -176 17 -4 44 -13 60 -20 17 -7 68 -21 115 -30 74 -14 179
-16 815 -16 631 0 742 2 820 16 50 9 104 22 120 29 17 8 43 17 60 21 16 4 60
22 97 41 37 18 70 33 73 33 3 0 34 19 68 42 244 165 424 396 501 646 60 193
56 -363 56 6889 l0 6623 1189 0 c655 0 1281 4 1393 10 553 27 951 63 1313 119
33 5 143 21 245 35 102 14 223 33 270 42 47 8 99 18 115 20 35 6 146 28 265
54 86 19 221 47 360 76 88 19 199 47 290 74 152 45 263 74 340 90 25 6 63 16
85 24 22 8 121 39 220 70 99 32 248 80 330 107 83 28 164 55 180 59 28 8 80
27 210 78 84 33 185 72 295 114 58 22 218 89 355 149 138 60 254 109 258 109
4 0 17 9 29 20 12 11 31 20 43 20 11 0 25 4 31 8 5 5 29 17 54 26 48 19 172
78 180 86 3 3 19 11 35 19 32 14 42 20 114 57 24 13 49 24 54 24 6 0 18 6 26
14 17 14 82 48 176 92 33 16 62 32 63 36 2 4 11 8 20 8 10 0 28 9 42 20 14 11
31 20 38 20 6 0 12 4 12 8 0 4 17 14 38 21 20 8 39 17 42 20 3 3 21 14 40 24
48 24 106 59 127 77 10 9 47 30 83 48 81 41 111 58 180 102 30 20 73 45 95 55
22 11 48 28 59 38 11 9 24 17 29 17 5 0 34 17 65 38 32 21 91 61 132 87 41 27
77 53 78 57 2 4 9 8 17 8 7 0 18 7 25 14 6 8 31 24 54 35 23 12 52 30 64 41
11 11 24 20 27 20 19 0 485 331 756 536 150 114 531 419 650 521 654 558 1353
1261 1894 1907 244 291 302 362 438 541 255 334 339 446 407 545 316 456 393
569 455 670 39 63 128 206 198 317 109 174 196 322 412 703 23 41 65 116 92
165 70 125 391 761 440 870 23 50 52 115 66 145 151 325 258 573 347 800 20
52 60 151 88 220 90 222 124 312 177 470 29 85 83 241 120 345 61 173 211 658
304 981 66 229 231 914 286 1184 35 173 75 371 89 440 15 69 33 172 42 230 8
58 26 173 39 255 13 83 35 222 49 310 14 88 48 365 75 615 44 401 61 612 101
1225 18 265 30 1068 30 1913 l0 822 -3087 -2 c-1699 -1 -3113 -3 -3143 -5z
m2536 -3588 c5 -13 -12 -157 -62 -510 -31 -218 -123 -751 -144 -835 -5 -19
-25 -111 -44 -205 -19 -93 -42 -199 -50 -235 -31 -142 -169 -670 -217 -833
-76 -257 -139 -458 -144 -467 -3 -5 -19 -51 -35 -102 -47 -151 -146 -430 -206
-582 -31 -77 -71 -181 -89 -231 -32 -88 -83 -210 -223 -530 -65 -150 -330
-706 -357 -750 -7 -11 -68 -123 -135 -250 -899 -1687 -2163 -3177 -3620 -4266
-259 -194 -574 -412 -716 -497 -27 -16 -87 -53 -134 -82 -195 -121 -225 -138
-586 -338 -182 -102 -807 -402 -835 -402 -5 0 -44 -16 -86 -36 -43 -20 -94
-41 -113 -48 -19 -7 -114 -42 -210 -78 -350 -131 -566 -203 -855 -285 -104
-29 -572 -145 -620 -153 -27 -5 -115 -22 -195 -39 -194 -40 -451 -80 -775
-120 -130 -17 -440 -41 -660 -51 -196 -10 -2414 -15 -2423 -6 -3 3 3 61 12
128 9 68 26 193 36 278 11 85 29 209 41 275 11 66 24 145 29 175 31 196 76
436 114 611 24 112 50 231 56 264 13 66 161 652 190 755 134 461 144 493 250
805 123 360 285 784 405 1055 42 96 92 211 110 255 45 108 286 603 387 795
184 349 410 741 566 982 169 261 302 460 402 602 117 165 492 657 573 752 29
33 95 112 147 174 126 150 171 201 310 350 64 69 139 150 166 180 79 88 518
518 634 620 58 52 134 121 170 154 78 73 462 391 552 458 35 26 86 64 113 85
161 125 236 180 366 268 79 54 160 109 179 121 19 13 55 38 79 55 71 51 159
109 167 109 4 0 35 17 68 38 227 143 311 194 381 232 44 23 89 48 100 54 159
92 272 153 403 216 57 28 107 50 112 50 5 0 31 13 57 28 60 35 162 84 233 112
30 12 66 27 80 35 36 19 93 43 140 60 22 8 91 36 153 64 61 27 177 72 257 100
80 29 181 66 225 82 44 17 116 42 160 55 44 13 109 33 145 44 36 11 97 29 135
41 39 11 86 27 105 35 58 23 625 160 765 184 72 12 168 31 215 41 152 35 173
38 370 64 107 13 229 29 270 35 148 20 520 50 735 59 94 4 664 9 1268 9 966 2
1098 0 1103 -13z m-28531 -4776 c105 -4 251 -13 325 -19 251 -22 435 -40 505
-50 481 -66 446 -60 720 -115 1053 -210 2058 -579 3015 -1107 551 -305 1198
-742 1662 -1124 252 -207 307 -254 422 -359 60 -55 151 -137 200 -181 236
-211 790 -792 1011 -1059 55 -66 105 -126 113 -134 33 -34 156 -185 229 -281
43 -58 115 -152 160 -210 251 -328 587 -830 833 -1245 151 -254 173 -292 237
-415 31 -58 89 -167 130 -244 202 -373 491 -1005 663 -1451 110 -283 125 -322
171 -455 70 -203 195 -583 218 -665 13 -44 28 -98 35 -120 7 -22 23 -71 34
-110 12 -38 28 -92 36 -120 8 -27 33 -122 55 -210 22 -88 54 -214 71 -280 17
-66 46 -192 65 -280 19 -88 46 -214 60 -280 26 -121 58 -287 69 -360 4 -22 13
-76 21 -120 54 -308 65 -377 95 -620 10 -77 26 -193 36 -268 5 -37 4 -51 -7
-58 -19 -12 -1840 -11 -2209 1 -162 5 -349 14 -415 20 -66 6 -196 17 -290 25
-93 8 -199 19 -235 24 -36 6 -148 21 -250 35 -211 28 -226 31 -335 57 -44 10
-145 30 -225 44 -271 47 -686 154 -1019 264 -85 28 -160 51 -167 51 -8 0 -28
6 -46 14 -18 7 -49 19 -68 26 -19 6 -64 23 -100 37 -36 14 -76 28 -90 33 -14
5 -56 20 -95 35 -38 14 -90 33 -115 41 -25 9 -67 27 -95 41 -46 23 -229 101
-335 143 -47 18 -443 208 -540 259 -30 15 -122 65 -205 111 -82 45 -179 98
-215 118 -36 19 -76 43 -90 52 -14 10 -70 45 -125 78 -55 33 -149 90 -209 126
-117 73 -522 349 -621 424 -33 25 -77 58 -97 74 -20 15 -95 72 -166 126 -72
53 -179 138 -238 189 -60 50 -154 129 -209 175 -369 306 -1011 946 -1317 1309
-34 42 -111 133 -170 202 -185 218 -438 548 -665 867 -102 144 -167 242 -408
615 -43 67 -135 220 -320 535 -108 184 -400 754 -533 1040 -88 191 -283 648
-326 765 -20 55 -48 125 -61 155 -30 71 -97 256 -201 560 -75 216 -113 336
-159 500 -7 25 -32 108 -55 185 -23 77 -57 199 -75 270 -19 72 -52 202 -75
290 -22 88 -63 266 -90 395 -28 129 -54 253 -59 275 -28 119 -109 590 -140
811 -78 554 -75 526 -55 541 16 11 197 13 1079 12 583 -1 1146 -6 1250 -10z"/>
</g>
</svg>
