<?xml version="1.0" standalone="no"?>
<!DOCTYPE svg PUBLIC "-//W3C//DTD SVG 20010904//EN"
 "http://www.w3.org/TR/2001/REC-SVG-20010904/DTD/svg10.dtd">
<svg version="1.0" xmlns="http://www.w3.org/2000/svg"
 width="3840.000000pt" height="4386.000000pt" viewBox="0 0 3840.000000 4386.000000"
 preserveAspectRatio="xMidYMid meet">
<metadata>
Created by potrace 1.16, written by Peter Selinger 2001-2019
</metadata>
<g transform="translate(0.000000,4386.000000) scale(0.100000,-0.100000)"
fill="#000000" stroke="none">
<path d="M14250 41033 c-338 -58 -572 -174 -790 -391 -199 -200 -316 -418
-377 -702 -17 -81 -18 -301 -18 -5150 l0 -5065 27 -360 c49 -640 108 -1136
198 -1650 10 -60 29 -166 40 -235 12 -69 32 -172 45 -230 13 -58 42 -190 65
-295 23 -104 50 -226 60 -270 10 -44 22 -96 26 -115 3 -19 14 -62 24 -95 18
-59 40 -139 78 -280 57 -211 124 -442 141 -490 11 -30 163 -492 202 -615 12
-36 31 -90 44 -120 13 -30 42 -104 65 -165 23 -60 60 -157 82 -215 22 -58 51
-134 65 -170 24 -65 134 -319 179 -415 13 -27 54 -122 92 -210 73 -169 404
-834 482 -970 67 -115 183 -322 215 -380 55 -99 139 -242 208 -350 70 -110 81
-128 212 -336 80 -127 162 -250 239 -359 29 -41 113 -161 187 -265 74 -105
163 -228 199 -274 336 -433 471 -601 701 -867 147 -170 356 -402 465 -515 110
-113 264 -275 344 -359 80 -85 199 -211 265 -280 175 -183 471 -525 636 -737
25 -32 79 -101 121 -153 240 -304 637 -904 896 -1355 150 -262 404 -757 491
-958 28 -65 64 -146 79 -180 66 -144 135 -315 257 -632 63 -166 227 -655 264
-790 12 -44 30 -111 41 -150 34 -120 107 -398 113 -430 4 -16 20 -91 37 -165
58 -246 76 -339 140 -720 16 -96 39 -249 50 -340 11 -91 27 -217 35 -280 8
-63 24 -239 35 -390 10 -151 22 -302 25 -335 4 -33 10 -1675 14 -3650 7 -3587
7 -3590 28 -3677 29 -121 74 -246 117 -328 45 -86 99 -171 124 -196 16 -16 50
-57 76 -92 26 -34 63 -75 83 -90 19 -15 68 -54 108 -87 99 -81 295 -185 420
-223 209 -64 203 -63 1130 -59 803 3 844 4 930 24 50 11 107 28 129 37 21 9
45 16 53 16 14 0 204 90 213 101 3 4 25 18 50 32 89 49 252 199 345 315 123
155 208 335 258 547 l21 90 3 3430 c3 2170 0 3560 -6 3785 -9 298 -48 942 -66
1085 -3 22 -16 135 -30 250 -49 401 -67 531 -105 755 -21 124 -40 241 -43 260
-21 130 -63 337 -107 530 -28 124 -55 248 -61 275 -18 96 -64 279 -110 435
-10 36 -48 175 -85 310 -36 135 -74 268 -84 295 -10 28 -72 212 -138 410 -66
198 -136 403 -157 455 -20 52 -54 140 -75 195 -21 55 -59 154 -85 220 -41 107
-212 503 -330 765 -71 156 -395 793 -492 965 -236 420 -286 505 -448 760 -59
94 -140 222 -180 285 -39 63 -108 167 -153 230 -45 63 -109 153 -141 200 -204
289 -256 360 -366 500 -66 85 -168 216 -226 290 -234 302 -666 790 -1049 1185
-223 231 -487 509 -545 575 -182 205 -412 479 -521 620 -70 91 -146 188 -169
216 -23 28 -77 102 -121 165 -44 63 -124 176 -176 251 -87 124 -164 241 -345
528 -54 86 -106 177 -298 515 -81 143 -318 617 -385 770 -28 66 -67 152 -85
190 -54 116 -115 266 -245 604 -54 140 -215 618 -255 756 -12 44 -35 125 -50
180 -15 55 -40 145 -55 200 -32 117 -49 188 -85 345 -14 63 -32 144 -40 180
-36 160 -46 212 -65 320 -11 63 -31 178 -45 255 -42 233 -103 743 -125 1040
-11 154 -23 300 -26 325 -3 25 -9 2279 -13 5010 l-7 4965 -22 95 c-34 151 -51
193 -174 429 -18 35 -61 95 -95 135 -35 39 -63 74 -63 78 0 9 -196 177 -245
209 -73 49 -179 106 -235 126 -30 12 -75 29 -100 38 -25 10 -83 27 -130 38
-82 20 -116 20 -945 23 -473 1 -871 0 -885 -3z"/>
<path d="M1215 35561 c-133 -24 -265 -69 -394 -136 -138 -72 -224 -136 -343
-256 -187 -189 -296 -392 -365 -679 -16 -71 -18 -200 -21 -2185 -2 -1313 1
-2233 8 -2435 8 -276 47 -879 65 -1030 3 -25 16 -139 30 -255 42 -357 65 -522
102 -730 19 -110 39 -227 44 -260 22 -144 62 -346 109 -550 28 -121 55 -242
60 -270 13 -74 55 -253 73 -310 17 -57 47 -166 76 -275 81 -300 177 -622 217
-720 8 -19 27 -78 43 -130 37 -117 65 -202 101 -300 43 -120 169 -451 190
-500 11 -25 31 -76 45 -115 15 -38 48 -119 75 -180 27 -60 58 -135 70 -165 12
-30 25 -59 30 -65 4 -5 20 -39 35 -75 76 -182 149 -338 319 -675 102 -203 200
-395 218 -425 32 -57 98 -173 233 -415 73 -130 143 -244 349 -568 44 -71 95
-153 113 -182 17 -30 80 -123 139 -207 59 -84 139 -198 177 -253 169 -242 197
-280 610 -810 34 -44 82 -102 106 -130 75 -86 86 -99 277 -322 103 -120 316
-353 474 -518 158 -165 320 -336 361 -380 41 -43 128 -136 193 -205 66 -69
180 -195 255 -280 74 -85 144 -164 154 -175 35 -38 351 -434 438 -550 106
-140 363 -512 454 -655 54 -85 128 -202 165 -260 209 -331 549 -971 703 -1325
36 -82 79 -181 97 -220 41 -91 205 -505 263 -665 25 -69 81 -235 125 -370 74
-228 97 -303 142 -470 10 -36 30 -105 44 -155 27 -96 85 -335 110 -450 8 -38
24 -113 36 -165 11 -52 36 -183 56 -290 19 -107 41 -231 49 -275 8 -44 16
-100 19 -125 3 -25 15 -112 26 -195 37 -285 49 -401 69 -670 11 -148 23 -301
26 -340 4 -38 10 -1681 14 -3650 6 -3377 8 -3584 25 -3655 49 -210 156 -442
250 -544 19 -21 55 -64 79 -96 25 -32 62 -70 84 -86 21 -15 65 -51 98 -80 76
-65 295 -184 400 -217 44 -14 130 -35 190 -47 108 -20 131 -21 955 -17 814 3
848 4 935 24 132 31 254 75 327 120 21 13 44 23 53 23 8 0 15 4 15 9 0 5 15
16 33 24 67 32 246 185 314 268 168 205 241 350 306 609 l21 85 3 3410 c4
3281 -1 3964 -26 4275 -5 63 -15 189 -21 280 -23 356 -96 964 -155 1305 -20
116 -41 237 -45 270 -14 102 -47 268 -110 555 -91 413 -106 477 -173 715 -14
50 -51 185 -82 300 -54 200 -135 462 -175 570 -11 28 -40 118 -66 200 -43 136
-93 273 -221 605 -24 63 -62 161 -83 218 -22 57 -55 138 -74 180 -19 42 -84
192 -146 332 -119 271 -435 913 -565 1145 -148 267 -259 461 -325 570 -90 148
-388 620 -423 670 -70 98 -223 317 -277 395 -144 210 -538 721 -700 911 -45
51 -153 178 -240 280 -163 191 -366 411 -621 674 -80 82 -181 188 -225 235
-43 47 -126 135 -185 195 -58 61 -128 135 -155 166 -188 214 -354 410 -442
523 -57 72 -141 178 -186 236 -135 171 -408 560 -551 785 -48 77 -114 181
-146 230 -74 117 -338 581 -387 682 -21 43 -86 173 -145 290 -59 116 -107 214
-107 216 0 3 -18 44 -40 91 -22 47 -40 88 -40 91 0 2 -20 47 -45 99 -24 52
-53 116 -64 143 -10 26 -38 95 -61 153 -23 58 -59 150 -80 205 -20 56 -42 110
-48 121 -17 33 -227 668 -266 804 -83 298 -106 380 -125 460 -37 154 -93 404
-103 459 -5 30 -11 58 -14 63 -5 8 -13 52 -83 453 -16 94 -39 247 -50 340 -12
94 -28 222 -36 285 -8 63 -22 203 -30 310 -8 107 -20 260 -26 340 -8 99 -14
854 -19 2365 -7 2182 -7 2221 -27 2305 -36 151 -63 223 -132 354 -169 320
-436 552 -766 664 -201 69 -152 66 -1090 68 -778 3 -858 1 -950 -15z"/>
<path d="M27220 35574 c-238 -40 -468 -133 -638 -259 -99 -73 -252 -231 -317
-329 -59 -90 -155 -275 -155 -301 0 -8 -9 -38 -19 -67 -11 -29 -30 -103 -41
-165 l-21 -112 4 -2318 c3 -2016 6 -2343 20 -2513 9 -107 21 -267 27 -355 27
-385 99 -966 165 -1345 14 -80 28 -161 31 -180 19 -116 66 -369 74 -399 5 -20
16 -67 24 -106 16 -78 63 -292 101 -460 28 -123 60 -247 82 -315 8 -25 30
-103 49 -175 60 -228 115 -421 133 -470 6 -16 59 -173 116 -348 58 -176 116
-347 129 -380 13 -34 42 -111 65 -172 23 -60 53 -137 66 -170 13 -33 35 -91
50 -130 14 -38 32 -85 40 -103 8 -18 15 -37 15 -42 0 -5 15 -42 34 -82 38 -80
123 -272 222 -499 65 -150 411 -843 482 -966 22 -37 52 -90 67 -118 250 -444
252 -448 398 -680 294 -465 281 -445 462 -700 81 -115 173 -246 204 -290 31
-44 141 -190 246 -325 105 -135 215 -276 245 -315 30 -38 140 -169 245 -290
105 -121 217 -251 249 -290 32 -38 188 -205 346 -370 158 -165 327 -343 376
-395 49 -52 141 -149 204 -215 63 -66 167 -181 231 -255 63 -74 122 -142 130
-150 30 -30 217 -259 314 -383 371 -477 723 -1010 1018 -1539 15 -26 47 -83
71 -127 66 -116 320 -630 405 -821 41 -91 104 -239 141 -330 64 -159 88 -219
163 -415 47 -121 228 -668 257 -775 12 -47 31 -114 41 -150 10 -36 28 -98 39
-139 127 -446 265 -1168 320 -1671 5 -47 14 -116 19 -155 6 -38 19 -191 30
-340 11 -148 23 -295 26 -325 4 -30 10 -1677 14 -3660 l7 -3605 22 -85 c52
-212 151 -430 235 -520 18 -19 54 -63 80 -97 26 -33 66 -76 89 -94 24 -18 68
-54 98 -79 154 -129 368 -226 595 -270 108 -20 130 -21 955 -17 808 3 849 4
935 24 50 11 107 28 129 37 21 9 45 16 52 16 20 0 221 100 235 116 6 8 17 14
23 14 12 1 57 33 134 97 95 78 145 130 207 208 143 184 224 357 272 585 17 81
18 259 18 3770 l0 3685 -28 375 c-53 731 -108 1164 -243 1927 -14 78 -50 251
-80 385 -30 134 -59 266 -64 293 -13 64 -46 200 -70 290 -11 39 -33 120 -49
180 -98 359 -154 549 -263 880 -66 204 -133 402 -149 440 -15 39 -51 131 -79
205 -114 300 -187 484 -265 660 -45 102 -108 246 -140 320 -74 172 -423 864
-545 1080 -51 91 -113 201 -138 245 -25 44 -62 109 -82 145 -85 152 -446 721
-554 875 -51 72 -99 140 -107 151 -366 541 -943 1252 -1443 1780 -133 140
-301 319 -375 397 -73 78 -179 189 -235 247 -56 58 -140 148 -187 200 -248
281 -351 402 -419 490 -41 53 -111 143 -155 200 -147 188 -197 254 -256 340
-32 47 -103 148 -156 225 -54 77 -109 158 -123 180 -13 22 -52 83 -85 135
-403 625 -802 1406 -1054 2065 -34 88 -71 183 -82 210 -52 124 -246 716 -294
895 -13 47 -33 119 -44 160 -33 116 -123 492 -176 735 -30 140 -114 644 -135
810 -11 94 -27 224 -35 290 -8 66 -24 239 -35 385 -10 146 -22 294 -25 330 -4
36 -10 1064 -14 2285 -7 2208 -8 2220 -29 2310 -22 94 -50 184 -76 247 -35 82
-151 276 -190 318 -23 25 -54 62 -70 82 -31 41 -173 164 -251 216 -119 81
-268 144 -460 195 -78 20 -99 21 -940 23 -473 1 -871 0 -885 -2z"/>
</g>
</svg>
