<?xml version="1.0" standalone="no"?>
<!DOCTYPE svg PUBLIC "-//W3C//DTD SVG 20010904//EN"
 "http://www.w3.org/TR/2001/REC-SVG-20010904/DTD/svg10.dtd">
<svg version="1.0" xmlns="http://www.w3.org/2000/svg"
 width="3840.000000pt" height="3413.000000pt" viewBox="0 0 3840.000000 3413.000000"
 preserveAspectRatio="xMidYMid meet">
<metadata>
Created by potrace 1.16, written by Peter Selinger 2001-2019
</metadata>
<g transform="translate(0.000000,3413.000000) scale(0.100000,-0.100000)"
fill="#000000" stroke="none">
<path d="M18019 34017 c-58 -51 -190 -164 -294 -252 -166 -140 -431 -365 -505
-429 -122 -104 -611 -518 -640 -541 -21 -16 -102 -86 -181 -153 -79 -68 -171
-147 -205 -175 -107 -91 -558 -474 -809 -687 -82 -70 -216 -183 -296 -251 -81
-68 -200 -169 -264 -224 -122 -104 -145 -123 -461 -390 -104 -88 -239 -203
-300 -255 -61 -52 -185 -157 -275 -234 -160 -135 -324 -274 -700 -593 -102
-87 -255 -216 -339 -288 -260 -220 -751 -637 -954 -810 -77 -66 -168 -142
-202 -170 -33 -27 -108 -90 -165 -140 -58 -49 -188 -160 -289 -245 -101 -85
-249 -211 -330 -280 -193 -164 -479 -407 -661 -561 -594 -504 -825 -699 -994
-844 -71 -62 -173 -147 -225 -191 -52 -44 -189 -160 -305 -258 -115 -98 -228
-193 -250 -212 -22 -18 -108 -91 -190 -161 -83 -71 -225 -191 -315 -268 -254
-215 -478 -405 -666 -565 -94 -80 -251 -212 -349 -295 -98 -82 -214 -181 -259
-220 -45 -38 -198 -169 -341 -290 -227 -191 -410 -346 -590 -500 -27 -24 -115
-98 -195 -165 -80 -68 -214 -182 -299 -254 -321 -273 -379 -322 -431 -366 -30
-25 -115 -97 -189 -160 -75 -64 -224 -190 -331 -280 -107 -91 -261 -221 -341
-290 -80 -69 -213 -181 -295 -250 -82 -69 -225 -190 -319 -270 -93 -80 -258
-220 -365 -310 -107 -91 -258 -219 -336 -285 -77 -66 -207 -176 -289 -245 -81
-69 -158 -134 -171 -145 -12 -11 -102 -87 -200 -170 -97 -82 -228 -193 -289
-245 -62 -52 -197 -167 -300 -255 -104 -88 -254 -216 -334 -283 -81 -68 -168
-143 -195 -165 -134 -113 -287 -251 -341 -308 -187 -198 -312 -426 -391 -717
-25 -89 -27 -116 -31 -340 -5 -245 1 -319 33 -427 100 -329 208 -515 449 -773
142 -151 387 -306 595 -376 175 -58 267 -71 515 -71 235 0 330 11 495 60 244
70 491 205 670 364 47 42 115 101 150 131 35 30 125 109 200 175 75 66 165
145 200 175 35 30 71 62 80 70 8 8 63 56 120 105 57 50 111 97 120 105 9 8 45
40 80 70 35 30 82 71 104 91 45 40 226 199 266 233 14 12 60 52 102 89 l78 68
3 -6878 c2 -3783 6 -6891 9 -6908 4 -16 11 -79 18 -140 49 -485 209 -1021 434
-1459 342 -663 826 -1202 1447 -1613 499 -329 1094 -562 1659 -647 189 -29
243 -35 385 -46 195 -14 21735 -14 21930 0 142 11 196 17 385 46 551 83 1150
314 1631 629 155 102 290 201 417 307 53 44 99 84 102 87 3 4 38 36 79 71 177
155 455 483 615 725 400 604 612 1188 703 1935 16 137 18 534 20 7018 l3 6873
78 -68 c42 -37 88 -77 102 -89 14 -12 88 -77 166 -145 77 -68 160 -141 185
-162 63 -55 372 -325 579 -507 97 -85 205 -180 240 -210 35 -30 103 -89 150
-131 147 -131 391 -251 700 -343 426 -128 906 -71 1295 153 68 39 196 134 262
195 54 49 217 249 265 326 58 91 125 230 157 325 80 241 76 212 76 520 0 274
-1 282 -27 382 -107 395 -277 648 -643 953 -49 41 -167 140 -260 220 -94 80
-256 217 -359 305 -104 88 -255 216 -336 285 -81 69 -198 168 -260 220 -63 52
-195 165 -295 250 -100 85 -265 225 -365 310 -101 85 -231 196 -289 246 -58
49 -167 142 -242 205 -75 63 -311 263 -524 444 -429 365 -555 472 -731 620
-65 55 -166 141 -225 190 -58 50 -188 160 -289 245 -100 85 -251 214 -335 285
-84 72 -235 200 -335 285 -101 85 -263 223 -360 305 -97 83 -244 207 -326 276
-82 70 -159 135 -171 145 -11 11 -85 73 -163 139 -78 66 -209 176 -290 245
-81 69 -229 195 -330 280 -100 85 -262 223 -359 305 -97 83 -262 222 -366 310
-104 88 -241 205 -305 260 -64 55 -138 117 -163 138 -52 43 -279 235 -616 522
-123 105 -288 244 -366 310 -78 66 -231 196 -341 289 -109 94 -242 206 -294
250 -52 44 -143 121 -201 171 -58 49 -188 160 -289 245 -101 85 -247 209 -324
275 -78 66 -271 231 -430 365 -159 135 -353 299 -431 365 -78 66 -178 152
-224 190 -46 39 -165 140 -265 225 -101 85 -234 198 -297 252 -210 177 -451
382 -628 533 -97 83 -190 161 -207 175 -39 31 -628 531 -778 660 -100 85 -285
242 -595 504 -58 49 -140 119 -182 155 -41 36 -97 84 -124 106 -61 50 -454
383 -930 789 -127 108 -462 391 -639 541 -39 33 -134 114 -212 180 -77 66
-210 178 -295 250 -85 71 -159 134 -165 140 -6 5 -33 29 -60 52 -27 22 -130
110 -229 194 -99 83 -278 235 -397 336 -119 101 -220 188 -223 193 -4 7 -385
10 -1083 9 l-1077 -1 -106 -91z m1307 -3349 c66 -57 171 -146 233 -198 63 -52
143 -121 180 -152 36 -31 145 -123 242 -205 329 -278 494 -417 600 -508 58
-49 127 -108 154 -130 26 -22 85 -71 130 -110 101 -86 170 -145 360 -305 82
-69 228 -192 325 -275 166 -141 460 -390 505 -427 11 -9 90 -76 176 -150 86
-73 237 -200 335 -283 98 -82 229 -193 290 -245 62 -52 195 -165 295 -250 101
-85 247 -209 324 -275 78 -66 163 -138 190 -160 26 -22 98 -83 160 -135 62
-52 194 -165 295 -250 101 -85 234 -198 295 -250 62 -52 131 -111 155 -130 23
-19 52 -44 65 -55 13 -11 89 -76 171 -145 81 -69 227 -192 324 -275 97 -82
228 -193 290 -245 62 -52 118 -100 124 -105 6 -6 38 -33 71 -60 33 -28 108
-90 166 -140 58 -49 128 -109 155 -132 27 -22 114 -97 194 -165 80 -67 226
-190 323 -273 98 -82 247 -208 331 -280 84 -71 220 -186 301 -255 82 -69 214
-181 295 -250 81 -69 169 -143 196 -165 26 -22 98 -83 160 -135 61 -52 162
-138 224 -190 62 -52 152 -129 200 -170 48 -41 167 -142 266 -225 98 -82 212
-179 254 -215 42 -36 98 -83 125 -105 27 -22 112 -94 189 -160 78 -66 197
-167 266 -225 69 -57 146 -122 171 -145 25 -22 67 -58 94 -80 27 -22 115 -96
195 -165 81 -69 214 -181 296 -250 81 -69 209 -177 284 -240 147 -126 355
-302 518 -438 l102 -86 0 -8131 c-1 -5048 -5 -8151 -10 -8185 -17 -99 -32
-165 -39 -175 -4 -5 -13 -30 -20 -55 -16 -54 -58 -140 -108 -217 -47 -74 -191
-224 -269 -279 -86 -62 -233 -130 -349 -162 l-100 -27 -10765 -3 c-8172 -2
-10787 0 -10855 9 -175 22 -344 87 -480 184 -76 54 -221 204 -268 278 -74 115
-124 234 -155 370 -15 67 -17 681 -22 8184 l-5 8111 -22 24 -22 23 72 60 c102
85 308 259 472 399 186 158 201 171 480 407 132 111 272 230 311 263 39 34
138 117 219 186 152 128 400 338 490 415 28 24 158 134 290 246 132 111 272
230 311 263 39 34 151 129 249 211 168 142 350 296 460 390 28 24 190 161 360
305 171 144 390 330 489 413 98 84 231 196 295 251 64 54 139 117 166 141 28
23 77 65 110 93 33 27 173 145 310 262 138 116 330 280 429 363 306 260 409
348 465 395 29 26 70 60 91 77 20 16 217 182 436 369 219 186 421 357 448 380
27 22 100 84 161 136 61 52 149 127 195 165 46 39 100 84 119 101 32 28 272
231 670 567 79 67 210 178 291 247 80 69 184 157 230 195 46 39 120 102 165
140 124 105 235 199 500 423 421 357 597 506 645 547 26 22 97 83 159 135 62
52 195 165 295 250 100 85 249 211 331 280 81 69 214 181 295 250 81 69 227
193 325 275 98 83 234 198 304 258 69 59 128 107 131 107 3 0 59 -46 126 -102z"/>
<path d="M18820 23840 c-193 -19 -207 -21 -395 -55 -840 -153 -1631 -577
-2251 -1207 -418 -424 -710 -866 -929 -1403 -211 -518 -305 -1012 -305 -1596
0 -152 2 -283 4 -290 3 -8 7 -48 10 -89 27 -370 135 -824 287 -1202 316 -790
865 -1467 1574 -1942 422 -284 865 -477 1395 -611 167 -42 422 -81 675 -102
116 -10 514 -10 630 0 341 29 606 78 920 168 78 23 331 112 379 134 17 7 65
28 106 45 190 80 463 230 665 366 614 411 1134 1006 1442 1644 17 36 41 85 53
110 48 100 130 314 179 463 94 291 159 609 189 927 10 102 9 686 -1 785 -12
124 -46 353 -63 430 -94 417 -184 686 -338 1005 -210 438 -464 796 -820 1158
-481 489 -1042 841 -1694 1064 -526 179 -1163 253 -1712 198z"/>
<path d="M16580 13184 c-74 -7 -155 -15 -180 -19 -88 -12 -295 -45 -315 -49
-11 -3 -63 -14 -115 -25 -253 -53 -469 -115 -709 -203 -91 -33 -184 -68 -206
-78 -22 -9 -85 -37 -140 -61 -319 -137 -740 -383 -1015 -593 -192 -147 -240
-186 -381 -314 -448 -405 -809 -853 -1101 -1367 -46 -81 -208 -400 -208 -409
0 -3 -12 -31 -26 -63 -180 -393 -335 -944 -395 -1403 -37 -283 -41 -353 -43
-625 -1 -253 0 -275 22 -355 109 -402 369 -664 777 -782 l80 -23 6528 -3
c6949 -2 6583 -5 6751 42 162 45 327 143 451 270 125 126 201 254 255 425 45
143 54 234 46 491 -18 626 -137 1206 -371 1800 -31 80 -60 150 -64 155 -4 6
-14 26 -21 45 -7 19 -44 97 -81 172 -305 621 -709 1153 -1238 1630 -141 128
-190 168 -381 314 -322 245 -690 453 -1165 659 -78 34 -382 140 -489 171 -233
68 -509 130 -706 159 -391 57 -264 54 -2955 53 -1956 0 -2498 -3 -2605 -14z"/>
</g>
</svg>
