<?xml version="1.0" standalone="no"?>
<!DOCTYPE svg PUBLIC "-//W3C//DTD SVG 20010904//EN"
 "http://www.w3.org/TR/2001/REC-SVG-20010904/DTD/svg10.dtd">
<svg version="1.0" xmlns="http://www.w3.org/2000/svg"
 width="3840.000000pt" height="3414.000000pt" viewBox="0 0 3840.000000 3414.000000"
 preserveAspectRatio="xMidYMid meet">
<metadata>
Created by potrace 1.16, written by Peter Selinger 2001-2019
</metadata>
<g transform="translate(0.000000,3414.000000) scale(0.100000,-0.100000)"
fill="#000000" stroke="none">
<path d="M19020 34064 c-532 -65 -1130 -303 -1509 -602 -51 -41 -163 -138
-249 -216 -85 -77 -198 -179 -251 -226 -117 -103 -479 -428 -541 -486 -25 -23
-65 -59 -90 -79 -25 -21 -112 -99 -195 -175 -82 -75 -170 -154 -195 -175 -25
-22 -72 -64 -105 -95 -33 -30 -161 -145 -285 -255 -123 -110 -279 -250 -345
-310 -66 -61 -176 -160 -245 -220 -69 -60 -177 -157 -240 -215 -63 -58 -178
-162 -255 -230 -77 -68 -185 -165 -240 -215 -55 -51 -125 -114 -156 -141 -30
-27 -115 -103 -188 -169 -74 -66 -157 -140 -185 -165 -28 -25 -163 -146 -300
-270 -136 -124 -272 -245 -301 -270 -62 -53 -287 -255 -435 -390 -110 -101
-123 -113 -285 -255 -55 -49 -118 -105 -140 -125 -22 -21 -94 -86 -160 -145
-66 -59 -161 -145 -211 -191 -50 -46 -114 -103 -141 -126 -90 -77 -417 -371
-478 -429 -33 -31 -80 -74 -105 -95 -73 -63 -217 -192 -335 -299 -60 -55 -135
-122 -165 -149 -164 -146 -327 -292 -425 -381 -61 -55 -236 -212 -390 -350
-154 -137 -307 -275 -340 -305 -97 -89 -254 -230 -340 -305 -44 -38 -132 -117
-195 -175 -120 -110 -301 -273 -495 -445 -144 -128 -466 -417 -525 -471 -25
-23 -117 -106 -205 -184 -211 -189 -300 -269 -355 -320 -25 -24 -76 -70 -115
-103 -82 -70 -421 -375 -515 -462 -36 -34 -101 -92 -145 -130 -44 -39 -132
-117 -196 -175 -63 -58 -281 -253 -484 -435 -203 -181 -425 -382 -494 -445
-70 -63 -160 -144 -201 -180 -41 -35 -145 -128 -230 -205 -85 -77 -218 -197
-295 -265 -77 -69 -192 -172 -256 -230 -122 -111 -134 -121 -519 -465 -135
-120 -272 -243 -306 -274 -33 -31 -119 -108 -190 -172 -71 -64 -219 -197 -329
-295 -345 -310 -803 -720 -1000 -898 -104 -94 -208 -187 -230 -206 -67 -60
-350 -314 -355 -320 -3 -3 -85 -78 -184 -165 -98 -88 -211 -189 -251 -225 -40
-36 -133 -119 -207 -185 -587 -528 -592 -533 -681 -683 -58 -97 -106 -217
-138 -337 -29 -110 -32 -312 -6 -410 35 -138 47 -177 60 -203 8 -15 31 -62 51
-104 20 -43 43 -84 50 -91 8 -8 29 -38 47 -68 18 -30 36 -56 39 -59 3 -3 63
-70 134 -150 72 -80 135 -149 141 -155 6 -5 20 -22 32 -37 20 -27 113 -132
219 -247 28 -31 66 -74 85 -96 209 -248 440 -385 744 -441 132 -24 255 -13
450 41 33 9 71 23 85 30 14 7 67 34 117 59 102 51 167 95 253 171 103 91 303
270 324 290 12 11 82 74 156 140 74 65 164 146 200 180 57 52 180 163 244 218
48 42 86 76 191 172 107 97 236 212 380 339 39 33 98 90 133 124 39 39 69 62
78 58 12 -5 14 -1007 17 -7433 2 -7002 4 -7434 20 -7528 73 -419 189 -736 374
-1022 18 -28 33 -55 33 -60 0 -5 19 -31 41 -58 23 -28 57 -73 75 -101 44 -69
231 -270 346 -372 208 -185 435 -332 688 -445 30 -13 71 -30 90 -36 19 -7 78
-29 130 -48 122 -44 207 -67 405 -106 l160 -32 12510 0 12510 0 165 32 c295
57 479 115 688 217 51 25 96 46 100 46 16 0 256 155 367 237 154 114 382 341
506 503 169 222 304 469 389 710 7 19 19 52 26 73 22 58 70 252 88 352 9 50
21 115 28 145 9 43 13 1746 17 7497 4 4093 9 7444 12 7447 3 3 25 -14 50 -38
40 -39 110 -102 214 -194 42 -37 82 -74 230 -208 50 -45 108 -97 130 -115 21
-19 64 -57 95 -85 30 -28 70 -64 89 -80 19 -16 76 -67 125 -113 50 -46 123
-112 162 -145 116 -100 237 -209 534 -481 47 -43 116 -103 153 -134 72 -59
232 -161 253 -161 7 0 28 -8 46 -19 18 -10 74 -29 123 -42 76 -20 115 -23 250
-24 88 0 189 5 225 11 78 14 242 76 325 122 143 80 204 140 605 592 90 102
207 233 260 291 143 158 207 254 285 434 46 102 84 288 85 403 0 152 -73 390
-170 547 -100 163 -168 232 -659 664 -58 51 -167 148 -241 216 -259 234 -844
760 -895 805 -58 50 -402 359 -713 640 -113 102 -231 208 -262 235 -63 55
-498 444 -570 511 -25 23 -115 104 -200 180 -86 77 -223 200 -306 274 -82 74
-163 146 -180 160 -16 14 -34 32 -39 40 -6 9 -12 1666 -16 4475 -5 3972 -7
4468 -21 4535 -60 289 -165 516 -337 729 -245 303 -586 501 -981 568 -100 17
-278 18 -3450 18 -3186 0 -3350 -1 -3440 -18 -342 -65 -613 -203 -849 -431
-216 -210 -364 -463 -431 -736 -31 -126 -50 -251 -50 -330 0 -41 -3 -105 -6
-141 l-7 -67 -206 186 c-113 101 -250 225 -303 273 -53 49 -118 108 -145 131
-28 24 -92 81 -144 128 -52 47 -313 280 -579 519 -267 239 -512 459 -545 490
-33 31 -208 189 -389 351 -181 162 -470 421 -641 575 -402 362 -552 495 -595
532 -361 302 -891 539 -1420 634 -111 20 -430 34 -520 23z m357 -3521 c98 -86
225 -200 283 -253 94 -86 201 -182 569 -509 58 -52 131 -117 162 -145 64 -59
308 -278 669 -602 140 -125 342 -307 449 -404 107 -96 215 -193 241 -215 44
-37 281 -250 685 -615 94 -85 187 -169 206 -185 19 -17 126 -113 239 -214 113
-102 241 -217 285 -255 44 -39 104 -94 135 -122 67 -62 236 -213 350 -314 46
-41 114 -102 150 -135 36 -33 126 -114 200 -180 74 -66 202 -181 284 -255 83
-74 261 -234 396 -354 135 -121 270 -242 300 -270 64 -59 197 -178 255 -227
22 -19 51 -45 65 -59 15 -14 48 -45 76 -69 27 -25 72 -65 99 -90 28 -25 88
-80 135 -121 46 -41 129 -115 183 -165 55 -49 127 -114 161 -144 33 -29 84
-74 111 -100 28 -25 68 -61 90 -80 22 -18 60 -52 85 -75 25 -23 95 -86 155
-140 61 -55 130 -118 155 -140 25 -23 81 -72 125 -111 44 -38 105 -93 135
-121 30 -28 102 -93 160 -144 58 -51 128 -114 155 -139 28 -25 70 -63 95 -84
25 -21 70 -62 100 -90 30 -29 96 -88 145 -133 84 -75 114 -102 173 -152 18
-16 153 -138 206 -187 32 -29 196 -176 231 -206 32 -28 96 -85 151 -134 6 -5
58 -53 115 -106 57 -53 124 -113 149 -135 25 -21 93 -82 151 -134 218 -197
273 -246 293 -263 12 -10 39 -35 61 -55 22 -20 76 -68 120 -107 44 -38 109
-97 145 -131 36 -34 103 -94 150 -135 47 -41 101 -88 120 -106 19 -17 49 -43
65 -58 17 -15 48 -43 70 -63 95 -87 270 -245 385 -347 69 -60 132 -117 140
-125 15 -16 197 -180 260 -235 54 -47 230 -205 277 -249 23 -21 57 -50 75 -65
18 -14 45 -39 60 -56 l28 -29 0 -8478 0 -8478 -1592 2 -1593 3 -6 740 c-7 911
-18 1042 -129 1620 -21 107 -50 224 -113 460 -14 50 -52 171 -86 271 -290 867
-774 1676 -1392 2328 -367 389 -709 678 -1129 958 -601 400 -1347 725 -2035
887 -294 70 -624 122 -960 153 -202 19 -5119 19 -5310 0 -207 -20 -381 -42
-505 -63 -263 -46 -457 -90 -780 -178 -81 -22 -378 -124 -475 -164 -33 -13
-98 -39 -145 -57 -47 -17 -89 -35 -95 -40 -5 -4 -50 -24 -100 -45 -209 -88
-553 -274 -800 -433 -393 -252 -751 -539 -1064 -853 -234 -233 -343 -358 -553
-625 -151 -193 -392 -546 -450 -659 -8 -16 -38 -69 -66 -118 -60 -103 -194
-367 -246 -487 -21 -47 -46 -103 -57 -125 -71 -150 -236 -620 -279 -795 -5
-19 -22 -87 -38 -150 -16 -63 -37 -151 -46 -195 -10 -44 -22 -98 -27 -120 -5
-22 -14 -71 -20 -110 -5 -38 -14 -88 -19 -110 -5 -22 -16 -98 -25 -170 -47
-383 -48 -398 -54 -1170 l-6 -750 -1593 -3 -1592 -2 0 8479 0 8479 142 129
c78 70 210 188 292 262 83 74 199 178 257 230 58 53 161 146 229 206 68 61
149 133 179 161 77 70 99 90 177 159 38 33 114 101 168 150 55 50 167 150 250
224 83 74 194 173 246 220 52 47 115 104 139 126 25 22 75 67 111 100 36 33
102 92 145 130 44 39 129 115 190 170 60 55 150 136 200 180 49 44 160 143
245 220 86 77 214 192 285 255 71 63 181 162 245 220 64 58 174 157 245 221
72 64 180 161 240 215 61 54 187 167 279 249 93 83 183 164 200 180 18 17 68
62 112 101 43 39 171 154 284 255 361 325 393 353 444 398 28 24 96 85 151
136 55 50 147 134 205 185 166 147 344 307 464 415 61 55 116 105 122 110 114
100 181 161 234 210 57 54 305 276 485 435 168 149 342 305 451 405 66 60 196
178 289 260 92 83 173 155 179 160 6 6 58 53 116 104 58 52 121 108 140 125
19 18 78 70 130 116 52 47 106 96 120 110 14 14 61 57 105 95 192 169 274 242
330 294 107 99 157 144 285 256 69 60 154 136 190 170 36 33 105 96 155 140
49 44 116 105 150 135 33 31 101 91 150 135 50 44 92 82 95 85 3 3 68 61 145
129 77 69 201 179 275 246 358 323 487 439 606 545 70 63 158 142 195 175 36
33 122 110 190 171 68 62 192 173 274 248 83 74 151 135 152 136 2 0 83 -71
180 -157z m11513 -3913 c0 -1171 -2 -2130 -5 -2130 -3 0 -83 70 -178 156 -321
292 -352 320 -497 449 -80 71 -213 190 -296 265 -82 74 -210 189 -284 255 -74
66 -186 167 -250 225 -64 58 -262 236 -440 395 -178 160 -399 358 -490 440
-92 83 -182 164 -201 180 -19 17 -123 111 -233 210 -109 99 -225 202 -257 228
l-59 48 0 704 0 705 1595 0 1595 0 0 -2130z"/>
<path d="M18825 21305 c-161 -16 -368 -47 -505 -77 -185 -40 -208 -46 -256
-61 -27 -8 -96 -30 -154 -47 -444 -137 -899 -375 -1297 -677 -242 -185 -588
-528 -772 -767 -226 -294 -442 -663 -561 -961 -18 -44 -38 -93 -45 -110 -39
-87 -128 -368 -154 -485 -58 -256 -63 -278 -96 -495 -17 -111 -35 -390 -35
-550 0 -282 35 -632 85 -857 54 -241 45 -208 110 -423 35 -117 48 -152 86
-245 10 -25 34 -86 53 -136 38 -97 166 -354 231 -467 69 -117 243 -376 303
-451 32 -39 70 -88 85 -109 16 -20 38 -48 50 -60 12 -12 72 -76 132 -142 61
-65 130 -137 155 -159 24 -23 91 -85 149 -139 57 -53 138 -122 180 -152 42
-30 103 -75 136 -100 119 -89 143 -105 307 -204 396 -238 804 -403 1243 -504
1231 -283 2523 0 3530 773 83 63 182 144 220 180 39 36 99 92 135 124 153 139
441 480 587 696 120 178 288 483 372 678 321 738 425 1572 296 2369 -23 139
-31 180 -69 343 -37 159 -117 408 -184 570 -108 261 -310 637 -446 825 -251
349 -451 568 -785 859 -262 228 -733 514 -1076 653 -363 147 -758 249 -1165
299 -177 22 -664 27 -845 9z"/>
</g>
</svg>
