<?xml version="1.0" standalone="no"?>
<!DOCTYPE svg PUBLIC "-//W3C//DTD SVG 20010904//EN"
 "http://www.w3.org/TR/2001/REC-SVG-20010904/DTD/svg10.dtd">
<svg version="1.0" xmlns="http://www.w3.org/2000/svg"
 width="3840.000000pt" height="3840.000000pt" viewBox="0 0 3840.000000 3840.000000"
 preserveAspectRatio="xMidYMid meet">
<metadata>
Created by potrace 1.16, written by Peter Selinger 2001-2019
</metadata>
<g transform="translate(0.000000,3840.000000) scale(0.100000,-0.100000)"
fill="#000000" stroke="none">
<path d="M18800 38304 c-240 -4 -644 -23 -880 -40 -113 -9 -261 -19 -330 -24
-69 -5 -168 -14 -220 -19 -52 -6 -164 -18 -249 -26 -85 -9 -186 -20 -225 -25
-39 -6 -129 -17 -201 -25 -71 -9 -182 -24 -245 -35 -63 -11 -167 -27 -230 -35
-106 -15 -408 -68 -660 -117 -58 -11 -125 -24 -150 -29 -108 -20 -350 -71
-400 -84 -84 -22 -219 -52 -280 -64 -30 -5 -89 -19 -130 -31 -41 -12 -93 -26
-115 -30 -38 -8 -73 -17 -295 -76 -105 -29 -183 -52 -218 -65 -13 -5 -31 -9
-40 -9 -10 0 -51 -11 -92 -24 -41 -13 -109 -34 -150 -45 -41 -12 -83 -26 -92
-32 -10 -5 -26 -9 -36 -9 -9 0 -42 -9 -72 -21 -52 -20 -99 -33 -162 -46 -15
-3 -33 -11 -39 -19 -6 -8 -29 -14 -50 -14 -21 0 -41 -6 -46 -14 -8 -13 -36
-22 -103 -33 -19 -3 -40 -12 -48 -19 -7 -8 -24 -14 -37 -14 -13 0 -27 -4 -30
-10 -3 -5 -18 -10 -33 -10 -15 0 -36 -7 -46 -15 -11 -8 -30 -15 -42 -15 -12 0
-24 -5 -26 -10 -2 -6 -32 -17 -68 -26 -36 -9 -72 -22 -80 -29 -8 -7 -32 -15
-52 -19 -21 -4 -38 -11 -38 -17 0 -6 -5 -7 -10 -4 -6 4 -22 0 -35 -9 -13 -9
-35 -16 -48 -16 -14 0 -30 -7 -37 -15 -7 -8 -21 -15 -31 -15 -10 0 -21 -4 -24
-10 -3 -5 -22 -10 -41 -10 -19 0 -34 -4 -34 -9 0 -5 -26 -17 -57 -27 -32 -9
-65 -23 -74 -31 -8 -7 -21 -13 -28 -13 -7 0 -25 -6 -39 -14 -15 -8 -47 -20
-72 -27 -25 -7 -52 -19 -61 -26 -8 -7 -25 -13 -36 -13 -11 0 -26 -7 -33 -15
-7 -8 -16 -12 -21 -9 -5 3 -16 -2 -25 -10 -8 -9 -26 -16 -39 -16 -13 0 -30 -7
-39 -15 -8 -8 -21 -15 -30 -15 -8 0 -18 -4 -21 -10 -3 -5 -17 -10 -29 -10 -13
0 -29 -7 -36 -15 -7 -8 -23 -15 -36 -15 -15 0 -24 -6 -24 -15 0 -8 -7 -15 -16
-15 -24 0 -114 -33 -114 -42 0 -5 -11 -8 -25 -8 -14 0 -25 -4 -25 -10 0 -5
-11 -10 -25 -10 -16 0 -25 -6 -25 -15 0 -10 -10 -15 -28 -15 -15 0 -37 -7 -48
-15 -12 -8 -24 -11 -28 -8 -3 3 -6 1 -6 -5 0 -6 -18 -16 -40 -22 -22 -6 -40
-15 -40 -20 0 -6 -7 -10 -15 -10 -14 0 -35 -9 -75 -32 -8 -4 -22 -11 -30 -14
-8 -3 -22 -10 -30 -15 -8 -5 -22 -12 -30 -15 -8 -3 -23 -10 -32 -15 -10 -5
-24 -9 -32 -9 -8 0 -19 -6 -23 -13 -4 -7 -27 -19 -50 -25 -24 -7 -43 -16 -43
-21 0 -4 -18 -14 -40 -21 -22 -7 -40 -16 -40 -20 0 -3 -22 -14 -50 -24 -27
-10 -50 -21 -50 -25 0 -4 -17 -13 -37 -20 -21 -8 -40 -17 -43 -20 -6 -7 -104
-56 -142 -70 -16 -6 -28 -15 -28 -21 0 -5 -9 -10 -19 -10 -11 0 -23 -4 -26
-10 -3 -5 -14 -10 -25 -10 -10 0 -20 -7 -24 -15 -3 -8 -14 -15 -25 -15 -11 0
-22 -4 -26 -9 -7 -12 -64 -41 -81 -41 -7 0 -17 -6 -21 -12 -4 -7 -37 -28 -73
-46 -36 -19 -78 -42 -95 -52 -16 -10 -38 -19 -47 -19 -10 -1 -18 -8 -18 -16 0
-9 -9 -15 -25 -15 -14 0 -25 -3 -25 -7 0 -5 -24 -19 -53 -33 -28 -14 -59 -33
-68 -42 -9 -10 -26 -18 -38 -18 -12 0 -24 -6 -27 -14 -3 -8 -20 -20 -37 -27
-18 -7 -38 -19 -45 -26 -7 -7 -22 -13 -33 -13 -10 0 -19 -7 -19 -15 0 -9 -9
-15 -25 -15 -14 0 -25 -4 -25 -8 0 -5 -18 -17 -40 -28 -22 -10 -40 -22 -40
-26 0 -5 -4 -8 -9 -8 -6 0 -30 -13 -54 -30 -25 -16 -50 -30 -56 -30 -6 0 -11
-4 -11 -10 0 -5 -11 -10 -25 -10 -15 0 -25 -6 -25 -14 0 -8 -18 -21 -40 -30
-22 -9 -40 -20 -40 -25 0 -5 -10 -13 -22 -17 -12 -3 -31 -15 -42 -25 -11 -11
-28 -19 -37 -19 -10 0 -22 -6 -26 -13 -4 -7 -23 -19 -40 -26 -18 -8 -33 -20
-33 -27 0 -8 -9 -14 -20 -14 -10 0 -30 -11 -44 -25 -14 -14 -34 -25 -46 -25
-11 0 -20 -7 -20 -15 0 -8 -7 -15 -15 -15 -8 0 -15 -4 -15 -10 0 -5 -9 -10
-19 -10 -10 0 -21 -7 -25 -15 -3 -8 -12 -15 -20 -15 -7 0 -16 -7 -20 -15 -3
-8 -15 -15 -26 -15 -11 0 -20 -4 -20 -10 0 -5 -7 -10 -15 -10 -8 0 -15 -4 -15
-10 0 -5 -15 -16 -34 -25 -19 -9 -37 -23 -40 -31 -3 -8 -17 -14 -31 -14 -15 0
-25 -6 -25 -14 0 -7 -16 -21 -35 -30 -19 -9 -35 -20 -35 -24 0 -9 -49 -32 -67
-32 -7 0 -13 -7 -13 -15 0 -8 -7 -15 -15 -15 -8 0 -15 -5 -15 -10 0 -6 -18
-18 -40 -27 -22 -10 -40 -23 -40 -30 0 -7 -9 -13 -19 -13 -11 0 -28 -11 -39
-25 -11 -14 -23 -25 -27 -25 -3 0 -21 -11 -39 -25 -18 -14 -38 -25 -43 -25 -6
0 -13 -7 -17 -15 -3 -8 -18 -21 -33 -27 -15 -7 -41 -25 -57 -39 -15 -15 -41
-33 -57 -39 -16 -7 -29 -19 -29 -26 0 -8 -8 -14 -18 -14 -10 0 -29 -11 -42
-25 -13 -14 -29 -25 -37 -25 -7 0 -13 -6 -13 -13 0 -8 -12 -20 -27 -28 -16 -8
-32 -20 -36 -26 -4 -7 -15 -13 -22 -13 -8 0 -15 -4 -15 -9 0 -5 -8 -12 -18
-15 -10 -3 -35 -22 -55 -41 -20 -19 -42 -35 -47 -35 -6 0 -10 -4 -10 -10 0 -5
-15 -17 -32 -26 -34 -17 -52 -32 -90 -71 -12 -13 -30 -23 -40 -23 -10 0 -18
-7 -18 -15 0 -8 -5 -15 -10 -15 -6 0 -24 -12 -40 -27 -41 -40 -86 -73 -99 -73
-6 0 -11 -7 -11 -15 0 -8 -4 -15 -9 -15 -6 0 -22 -11 -37 -25 -15 -14 -33 -25
-40 -25 -8 0 -14 -7 -14 -15 0 -8 -4 -15 -9 -15 -6 0 -32 -20 -58 -45 -26 -25
-58 -48 -70 -51 -13 -4 -23 -11 -23 -16 0 -13 -26 -38 -39 -38 -6 0 -11 -7
-11 -15 0 -8 -8 -15 -18 -15 -10 0 -28 -11 -40 -25 -12 -14 -26 -25 -32 -25
-5 0 -10 -7 -10 -15 0 -8 -7 -15 -15 -15 -8 0 -15 -4 -15 -10 0 -5 -7 -10 -15
-10 -8 0 -15 -5 -15 -10 0 -12 -61 -69 -74 -70 -4 0 -37 -29 -72 -65 -35 -36
-67 -65 -70 -65 -8 0 -104 -84 -185 -161 -32 -30 -99 -92 -150 -139 -51 -47
-124 -115 -163 -152 -38 -38 -73 -68 -78 -68 -4 0 -8 -7 -8 -15 0 -8 -5 -15
-11 -15 -14 0 -39 -25 -39 -39 0 -6 -7 -11 -15 -11 -8 0 -15 -6 -15 -14 0 -7
-9 -16 -21 -19 -11 -3 -23 -15 -26 -26 -3 -12 -10 -21 -15 -21 -13 0 -38 -26
-38 -39 0 -6 -4 -11 -9 -11 -14 0 -151 -135 -151 -148 0 -7 -5 -12 -11 -12
-14 0 -39 -25 -39 -39 0 -6 -5 -11 -11 -11 -14 0 -39 -25 -39 -39 0 -6 -4 -11
-10 -11 -13 0 -70 -57 -70 -70 0 -5 -7 -10 -15 -10 -8 0 -15 -4 -15 -9 0 -5
-39 -49 -87 -99 -107 -109 -217 -230 -221 -243 -2 -5 -10 -9 -18 -9 -8 0 -14
-4 -14 -10 0 -5 -17 -27 -37 -48 -83 -85 -130 -140 -148 -170 -11 -18 -25 -32
-32 -32 -7 0 -13 -4 -13 -9 0 -9 -16 -27 -122 -143 -21 -22 -38 -44 -38 -49 0
-5 -4 -9 -10 -9 -5 0 -10 -7 -10 -15 0 -8 -7 -15 -15 -15 -8 0 -15 -4 -15 -9
0 -7 -14 -25 -65 -83 -8 -10 -15 -20 -15 -23 0 -3 -20 -26 -45 -51 -25 -24
-45 -48 -45 -52 0 -4 -14 -21 -30 -39 -17 -18 -30 -37 -30 -42 0 -6 -7 -11
-15 -11 -8 0 -15 -6 -15 -14 0 -7 -11 -25 -25 -40 -14 -15 -25 -31 -25 -37 0
-5 -7 -9 -15 -9 -8 0 -15 -7 -15 -15 0 -8 -3 -15 -7 -15 -5 0 -19 -17 -33 -38
-14 -20 -33 -44 -42 -53 -10 -9 -18 -21 -18 -28 0 -6 -7 -11 -15 -11 -8 0 -15
-8 -15 -17 0 -10 -9 -26 -20 -38 -45 -44 -90 -101 -90 -112 0 -7 -4 -13 -10
-13 -5 0 -10 -4 -10 -10 0 -5 -18 -29 -40 -52 -22 -24 -40 -49 -40 -55 0 -7
-4 -13 -10 -13 -5 0 -10 -6 -10 -14 0 -8 -7 -16 -15 -19 -8 -4 -21 -22 -29
-42 -9 -20 -20 -34 -26 -30 -5 3 -10 1 -10 -5 0 -7 -11 -25 -25 -42 -14 -16
-25 -36 -25 -44 0 -8 -6 -14 -12 -14 -7 0 -26 -23 -43 -50 -16 -27 -35 -50
-42 -50 -6 0 -14 -14 -18 -30 -4 -17 -15 -36 -26 -43 -10 -6 -19 -17 -19 -24
0 -7 -4 -13 -9 -13 -5 0 -12 -8 -15 -17 -10 -28 -36 -69 -36 -58 -1 17 -40
-39 -40 -57 0 -10 -6 -18 -13 -18 -7 0 -19 -16 -27 -35 -7 -19 -19 -36 -27
-39 -7 -3 -13 -12 -13 -21 0 -8 -7 -15 -15 -15 -8 0 -15 -7 -15 -15 0 -19 -21
-57 -36 -67 -6 -4 -17 -21 -24 -38 -7 -16 -19 -30 -26 -30 -8 0 -14 -8 -14
-18 0 -9 -10 -29 -23 -43 -24 -27 -43 -56 -54 -79 -4 -8 -9 -17 -12 -20 -9 -8
-30 -42 -41 -67 -5 -13 -13 -23 -18 -23 -4 0 -14 -16 -22 -35 -8 -19 -20 -35
-27 -35 -7 0 -13 -8 -13 -17 0 -10 -11 -31 -25 -47 -14 -16 -25 -35 -25 -43 0
-7 -7 -16 -15 -19 -8 -3 -20 -21 -27 -40 -6 -19 -16 -34 -20 -34 -5 0 -15 -18
-24 -40 -9 -22 -20 -40 -25 -40 -5 0 -9 -6 -9 -14 0 -7 -11 -25 -25 -40 -14
-15 -25 -34 -25 -42 0 -8 -9 -22 -20 -31 -11 -10 -20 -25 -20 -35 0 -10 -4
-18 -10 -18 -5 0 -10 -7 -10 -15 0 -8 -4 -15 -10 -15 -5 0 -10 -6 -10 -13 0
-7 -13 -31 -30 -53 -16 -21 -30 -44 -30 -51 0 -6 -3 -13 -7 -15 -11 -4 -43
-67 -43 -84 0 -8 -7 -14 -15 -14 -8 0 -15 -9 -15 -19 0 -11 -6 -26 -14 -34 -8
-8 -22 -29 -30 -48 -18 -39 -55 -102 -65 -109 -3 -3 -17 -29 -31 -57 -14 -29
-28 -53 -32 -53 -5 0 -8 -11 -8 -25 0 -16 -6 -25 -15 -25 -9 0 -15 -9 -15 -25
0 -14 -3 -25 -8 -25 -4 0 -12 -9 -17 -20 -35 -69 -81 -156 -86 -160 -3 -3 -14
-23 -25 -45 -10 -22 -24 -46 -31 -53 -7 -7 -13 -20 -13 -27 0 -8 -11 -31 -25
-51 -14 -20 -25 -43 -25 -50 0 -8 -4 -14 -9 -14 -4 0 -16 -21 -26 -47 -10 -27
-21 -50 -24 -53 -10 -8 -71 -134 -71 -146 0 -7 -6 -14 -13 -17 -6 -2 -18 -25
-26 -51 -7 -25 -17 -46 -22 -46 -4 0 -14 -18 -20 -40 -7 -22 -16 -40 -20 -40
-5 0 -14 -19 -21 -42 -6 -24 -17 -46 -23 -50 -6 -4 -18 -26 -25 -50 -7 -24
-20 -50 -27 -59 -7 -8 -13 -23 -13 -31 0 -9 -7 -21 -15 -28 -8 -7 -15 -19 -15
-26 0 -13 -9 -34 -32 -74 -4 -8 -11 -22 -14 -30 -3 -8 -17 -40 -31 -70 -14
-30 -32 -71 -41 -90 -8 -19 -19 -43 -23 -52 -5 -10 -9 -25 -9 -33 0 -8 -3 -15
-8 -15 -9 0 -42 -90 -42 -114 0 -9 -7 -16 -15 -16 -9 0 -15 -9 -15 -22 0 -12
-6 -29 -13 -37 -7 -9 -20 -36 -27 -61 -8 -25 -20 -51 -27 -58 -7 -7 -13 -24
-13 -37 0 -13 -7 -30 -15 -39 -8 -8 -15 -21 -15 -30 0 -8 -4 -18 -10 -21 -5
-3 -10 -16 -10 -27 0 -12 -6 -29 -13 -37 -7 -9 -19 -36 -27 -61 -18 -61 -53
-140 -62 -140 -5 0 -8 -7 -8 -16 0 -23 -31 -113 -41 -120 -5 -3 -9 -18 -9 -34
0 -16 -5 -32 -10 -35 -6 -3 -10 -14 -10 -24 0 -10 -7 -24 -15 -31 -8 -7 -15
-22 -15 -34 0 -11 -7 -34 -15 -50 -8 -15 -12 -32 -9 -37 3 -5 1 -9 -5 -9 -6 0
-13 -17 -17 -37 -4 -21 -12 -45 -19 -53 -7 -8 -18 -40 -26 -70 -7 -30 -19 -62
-26 -71 -7 -8 -13 -24 -13 -35 0 -11 -7 -29 -15 -40 -8 -10 -15 -31 -15 -46 0
-15 -4 -30 -10 -33 -5 -3 -10 -16 -10 -29 0 -12 -7 -31 -15 -42 -8 -10 -15
-28 -15 -39 0 -23 -20 -79 -38 -112 -7 -12 -12 -35 -12 -51 0 -16 -6 -35 -14
-41 -8 -6 -16 -24 -19 -39 -11 -51 -26 -107 -47 -172 -49 -150 -118 -382 -142
-475 -6 -22 -14 -49 -19 -60 -5 -11 -13 -38 -18 -60 -10 -44 -50 -195 -77
-290 -9 -33 -18 -76 -21 -95 -2 -19 -8 -44 -13 -55 -28 -66 -218 -929 -250
-1135 -5 -30 -18 -104 -29 -165 -22 -114 -66 -385 -81 -490 -4 -33 -17 -123
-28 -200 -36 -244 -62 -447 -72 -555 -6 -58 -17 -168 -25 -245 -9 -77 -20
-203 -25 -280 -5 -77 -16 -228 -25 -335 -31 -414 -37 -707 -32 -1430 3 -393
10 -785 16 -870 38 -561 70 -913 112 -1255 11 -88 24 -198 30 -245 19 -172
115 -774 149 -940 5 -25 21 -108 35 -185 25 -135 49 -246 100 -480 77 -349 91
-408 121 -507 8 -26 14 -56 14 -67 0 -11 4 -30 9 -43 5 -13 16 -50 25 -83 64
-249 94 -356 130 -475 8 -25 19 -65 26 -90 7 -25 25 -83 40 -130 15 -47 34
-110 41 -140 7 -30 19 -64 26 -75 7 -11 13 -28 13 -38 0 -16 49 -173 69 -222
26 -61 31 -78 31 -100 0 -13 4 -26 9 -29 5 -4 17 -32 26 -64 21 -69 42 -127
61 -165 8 -16 14 -37 14 -47 0 -10 11 -45 24 -77 13 -32 36 -92 51 -133 25
-71 46 -123 66 -162 5 -10 9 -24 9 -33 0 -8 6 -29 14 -47 26 -61 94 -232 112
-281 9 -26 21 -50 25 -53 5 -3 9 -12 9 -19 0 -8 11 -38 24 -67 14 -29 28 -66
31 -81 4 -15 10 -27 14 -27 7 0 31 -72 31 -95 0 -9 7 -18 15 -21 8 -4 15 -17
15 -30 0 -15 6 -24 16 -24 12 0 15 -7 12 -25 -3 -14 -2 -25 3 -25 5 0 14 -18
20 -40 7 -22 16 -40 21 -40 4 0 8 -11 8 -25 0 -14 5 -25 10 -25 6 0 10 -11 10
-24 0 -13 7 -29 15 -36 8 -7 15 -20 15 -29 0 -9 9 -29 20 -46 11 -16 25 -47
30 -67 6 -21 15 -38 20 -38 6 0 10 -7 10 -15 0 -14 9 -35 32 -75 4 -8 11 -22
14 -30 3 -8 10 -22 15 -30 5 -8 12 -22 15 -30 3 -8 10 -23 15 -32 5 -10 9 -24
9 -32 0 -7 6 -19 13 -25 8 -6 19 -29 26 -51 6 -22 15 -40 20 -40 4 0 13 -18
20 -40 6 -22 16 -40 21 -40 6 0 10 -9 10 -19 0 -11 5 -23 10 -26 6 -3 10 -15
10 -26 0 -11 6 -22 14 -25 8 -3 16 -18 19 -33 3 -16 12 -35 19 -42 8 -8 20
-30 28 -49 8 -19 17 -37 20 -40 4 -3 15 -26 25 -52 10 -27 21 -48 25 -48 4 0
13 -18 20 -40 7 -22 17 -40 21 -40 4 0 13 -16 19 -35 6 -19 16 -35 21 -35 5 0
9 -9 9 -20 0 -11 5 -20 10 -20 6 0 10 -9 10 -20 0 -11 7 -23 15 -26 8 -4 15
-13 15 -20 0 -8 10 -31 23 -52 42 -69 47 -77 67 -119 11 -24 25 -43 30 -43 6
0 10 -11 10 -25 0 -14 5 -25 10 -25 6 0 10 -9 10 -20 0 -11 4 -20 9 -20 5 0
14 -15 22 -32 7 -18 21 -40 31 -49 10 -9 18 -26 18 -37 0 -12 6 -25 13 -29 7
-4 19 -23 26 -41 8 -17 17 -32 21 -32 5 0 13 -14 19 -30 5 -17 15 -30 20 -30
6 0 11 -9 11 -20 0 -12 9 -30 20 -42 10 -12 17 -25 14 -30 -3 -4 -2 -8 3 -8 4
0 14 -13 21 -29 7 -16 22 -39 32 -51 11 -13 20 -29 20 -37 0 -7 5 -13 10 -13
6 0 10 -7 10 -15 0 -8 5 -15 10 -15 6 0 10 -11 10 -25 0 -14 6 -25 13 -25 14
0 37 -40 37 -65 0 -8 7 -15 15 -15 8 0 15 -9 15 -20 0 -11 6 -23 14 -26 7 -3
21 -23 31 -45 10 -21 21 -39 25 -39 3 0 12 -16 19 -35 7 -19 19 -35 27 -35 8
0 14 -9 14 -20 0 -10 11 -30 25 -44 14 -14 25 -34 25 -46 0 -11 6 -20 13 -20
7 0 19 -16 27 -35 8 -19 17 -35 21 -35 4 0 17 -20 29 -45 12 -25 25 -45 30
-45 4 0 10 -8 14 -17 7 -22 25 -50 49 -77 10 -11 20 -31 23 -43 4 -13 12 -23
19 -23 7 0 18 -14 25 -30 7 -17 18 -34 24 -38 15 -10 36 -48 36 -67 0 -8 7
-15 15 -15 8 0 15 -7 15 -15 0 -8 5 -15 10 -15 6 0 18 -18 27 -40 10 -22 23
-40 30 -40 7 0 13 -7 13 -15 0 -22 30 -66 41 -59 5 3 9 0 9 -6 0 -6 11 -26 25
-44 14 -18 25 -37 25 -42 0 -5 9 -15 19 -21 11 -7 22 -26 26 -43 4 -16 12 -30
18 -30 7 0 26 -23 42 -50 17 -27 36 -50 43 -50 6 0 12 -6 12 -14 0 -8 11 -28
25 -44 14 -17 25 -35 25 -42 0 -6 5 -8 10 -5 6 4 17 -9 25 -28 8 -19 21 -37
30 -40 8 -4 15 -13 15 -22 0 -8 5 -15 10 -15 6 0 10 -6 10 -13 0 -6 18 -31 40
-55 22 -23 40 -47 40 -52 0 -6 5 -10 10 -10 6 0 10 -6 10 -12 0 -12 45 -69 90
-113 11 -12 20 -28 20 -38 0 -9 7 -17 15 -17 8 0 15 -5 15 -11 0 -7 8 -19 18
-28 9 -9 28 -33 42 -53 14 -21 28 -38 33 -38 4 0 7 -7 7 -15 0 -8 7 -15 15
-15 8 0 15 -4 15 -9 0 -6 11 -22 25 -37 14 -15 25 -33 25 -40 0 -8 7 -14 15
-14 8 0 15 -5 15 -11 0 -5 13 -24 30 -42 16 -18 30 -35 30 -39 0 -4 20 -27 45
-52 25 -26 45 -48 45 -51 0 -3 7 -13 15 -22 51 -59 65 -77 65 -84 0 -5 7 -9
15 -9 8 0 15 -7 15 -15 0 -8 5 -15 10 -15 6 0 10 -4 10 -9 0 -5 17 -26 37 -48
73 -77 123 -136 123 -144 0 -5 5 -9 11 -9 12 0 39 -25 39 -36 0 -4 25 -35 55
-69 30 -34 51 -65 48 -69 -3 -3 -1 -6 5 -6 6 0 38 -27 72 -60 34 -33 59 -60
57 -60 -6 0 83 -97 185 -201 43 -44 78 -83 78 -88 0 -4 11 -14 25 -21 14 -7
25 -17 25 -22 0 -12 58 -68 70 -68 6 0 10 -5 10 -11 0 -14 25 -39 39 -39 6 0
11 -5 11 -11 0 -12 188 -199 201 -199 5 0 9 -5 9 -11 0 -14 25 -39 39 -39 6 0
11 -5 11 -11 0 -14 25 -39 39 -39 6 0 11 -7 11 -15 0 -8 7 -15 15 -15 8 0 15
-5 15 -11 0 -14 25 -39 39 -39 6 0 11 -7 11 -15 0 -8 4 -15 9 -15 4 0 49 -39
98 -87 49 -49 116 -110 147 -138 32 -27 103 -94 159 -147 56 -54 107 -98 112
-98 6 0 19 -11 29 -25 10 -14 23 -25 27 -25 5 0 38 -29 73 -65 35 -36 68 -65
72 -65 13 -1 74 -58 74 -70 0 -5 7 -10 15 -10 8 0 15 -4 15 -10 0 -5 7 -10 15
-10 8 0 15 -6 15 -14 0 -8 9 -18 20 -21 11 -3 25 -15 30 -26 6 -10 20 -19 30
-19 11 0 20 -7 20 -15 0 -8 5 -15 10 -15 6 0 31 -20 56 -45 24 -25 49 -45 55
-45 5 0 23 -14 39 -30 16 -17 34 -30 40 -30 5 0 10 -7 10 -15 0 -8 11 -17 25
-21 14 -3 25 -10 25 -15 0 -5 11 -15 25 -21 14 -6 25 -17 25 -25 0 -7 5 -13
11 -13 10 0 51 -31 106 -80 12 -11 27 -20 33 -20 5 0 10 -6 10 -14 0 -8 14
-19 30 -25 17 -5 30 -14 30 -20 0 -5 9 -13 20 -16 11 -3 20 -12 20 -18 0 -7
18 -21 40 -31 22 -11 40 -23 40 -28 0 -4 5 -8 11 -8 6 0 28 -18 50 -40 22 -22
46 -40 54 -40 8 0 15 -4 15 -10 0 -5 7 -10 15 -10 8 0 19 -8 24 -19 6 -10 22
-22 36 -25 14 -4 25 -13 25 -21 0 -8 5 -15 12 -15 6 0 26 -11 44 -25 18 -14
37 -25 43 -25 6 0 11 -6 11 -14 0 -8 13 -19 30 -25 17 -5 30 -14 30 -20 0 -5
9 -13 20 -16 11 -3 20 -12 20 -20 0 -7 14 -16 30 -20 17 -4 36 -15 43 -26 6
-10 16 -19 21 -19 5 0 24 -11 42 -25 18 -14 38 -25 44 -25 6 0 8 -5 5 -10 -4
-6 11 -18 34 -27 23 -9 41 -21 41 -28 0 -6 18 -17 40 -24 23 -7 40 -18 40 -26
0 -8 7 -15 15 -15 9 0 18 -6 21 -13 3 -8 20 -20 39 -27 19 -8 35 -17 35 -22 0
-5 16 -16 35 -25 19 -9 35 -23 35 -30 0 -7 8 -13 18 -13 9 0 29 -11 44 -25 15
-14 34 -25 41 -25 8 0 17 -7 21 -15 3 -8 12 -15 21 -15 8 0 15 -4 15 -10 0 -5
9 -10 20 -10 11 0 20 -5 20 -10 0 -6 11 -15 25 -20 14 -5 25 -13 25 -18 0 -4
16 -14 35 -22 19 -8 35 -20 35 -27 0 -7 10 -13 23 -13 12 0 29 -9 37 -20 8
-10 27 -22 42 -25 15 -4 28 -11 28 -17 0 -15 31 -37 53 -38 9 0 17 -7 17 -15
0 -10 10 -15 26 -15 15 0 34 -8 43 -19 9 -10 26 -21 39 -25 12 -4 22 -13 22
-20 0 -7 18 -18 40 -25 23 -7 40 -18 40 -26 0 -9 10 -15 25 -15 14 0 25 -4 25
-10 0 -5 5 -10 11 -10 6 0 31 -13 56 -30 24 -16 48 -30 54 -30 5 0 9 -4 9 -10
0 -5 7 -10 15 -10 8 0 15 -4 15 -9 0 -5 11 -12 25 -15 14 -4 25 -11 25 -16 0
-6 11 -10 25 -10 16 0 25 -6 25 -15 0 -8 9 -15 19 -15 11 0 27 -7 35 -15 8 -9
29 -21 46 -26 16 -6 30 -17 30 -25 0 -8 10 -14 26 -14 15 0 34 -8 43 -18 9
-10 31 -24 49 -31 17 -8 32 -17 32 -22 0 -5 9 -9 20 -9 11 0 20 -4 20 -10 0
-5 11 -10 25 -10 16 0 25 -6 25 -15 0 -8 8 -15 18 -16 9 0 31 -9 47 -19 17
-10 59 -33 95 -52 36 -18 69 -39 73 -45 4 -7 17 -13 27 -13 11 0 20 -4 20 -10
0 -5 7 -10 16 -10 8 0 22 -7 30 -15 9 -8 24 -15 35 -15 11 0 22 -7 25 -15 3
-8 22 -19 42 -26 21 -6 44 -17 52 -24 8 -7 32 -18 53 -26 20 -7 37 -16 37 -19
0 -4 18 -13 40 -20 22 -7 40 -17 40 -21 0 -5 18 -14 40 -20 22 -7 40 -16 40
-20 0 -4 23 -15 50 -25 28 -10 50 -21 50 -26 0 -4 18 -13 40 -19 22 -7 40 -16
40 -20 0 -5 19 -14 43 -21 23 -6 46 -18 50 -25 4 -7 17 -13 27 -13 10 0 22 -5
25 -10 3 -6 17 -10 31 -10 14 0 27 -7 30 -15 4 -8 14 -15 24 -15 10 0 23 -7
30 -15 7 -8 21 -15 31 -15 10 0 21 -4 24 -10 3 -5 15 -10 26 -10 10 0 19 -4
19 -10 0 -5 18 -14 40 -20 22 -6 40 -16 40 -22 0 -6 3 -8 6 -5 4 3 16 0 28 -8
11 -8 31 -15 44 -15 12 0 25 -7 28 -15 4 -8 17 -15 30 -15 13 0 24 -4 24 -10
0 -5 8 -10 18 -10 9 0 39 -11 66 -25 27 -14 58 -25 68 -25 10 0 21 -7 24 -15
4 -8 17 -15 30 -15 14 0 27 -7 30 -15 4 -8 19 -15 34 -15 16 0 32 -4 35 -10 3
-5 15 -10 26 -10 11 0 22 -7 25 -15 4 -8 18 -15 34 -15 16 0 36 -7 44 -16 9
-8 20 -13 25 -10 5 3 14 -1 21 -9 7 -8 22 -15 33 -15 11 0 28 -6 36 -13 9 -7
36 -19 61 -27 25 -7 72 -25 105 -41 33 -15 84 -35 113 -45 29 -9 55 -20 58
-25 3 -5 18 -9 34 -9 16 0 32 -4 35 -10 3 -5 14 -10 24 -10 10 0 24 -7 31 -15
7 -8 24 -15 39 -15 15 0 37 -7 49 -16 12 -8 27 -12 32 -9 6 3 10 2 10 -4 0 -6
17 -13 38 -17 20 -4 43 -12 51 -17 20 -17 82 -37 114 -37 15 0 30 -7 33 -15 4
-8 16 -15 28 -15 12 0 31 -7 42 -15 10 -8 31 -15 46 -15 15 0 30 -5 33 -10 3
-6 17 -10 30 -10 13 0 30 -7 39 -15 8 -8 30 -15 50 -15 19 0 38 -4 41 -10 3
-5 15 -10 26 -10 11 0 27 -7 35 -15 9 -8 30 -15 48 -15 19 0 39 -6 45 -14 6
-8 24 -16 39 -19 59 -12 110 -26 162 -45 73 -26 214 -69 286 -87 33 -9 75 -21
94 -29 19 -7 60 -19 90 -26 30 -6 73 -18 95 -25 35 -12 84 -25 295 -81 30 -8
71 -19 90 -24 91 -24 250 -63 290 -71 25 -5 81 -18 125 -28 44 -11 134 -32
200 -46 66 -14 147 -32 180 -40 91 -21 228 -47 590 -114 232 -43 697 -115 845
-131 52 -6 120 -14 150 -19 56 -10 133 -18 405 -46 276 -29 349 -35 565 -50
118 -8 283 -20 365 -26 83 -6 495 -13 917 -16 623 -4 820 -2 1050 11 323 18
657 42 803 56 315 31 431 43 530 56 61 8 184 23 275 34 91 11 221 29 290 40
69 11 197 31 285 44 88 13 216 35 285 50 69 14 166 32 215 40 50 8 155 29 235
47 80 17 174 37 210 45 356 75 585 129 612 144 10 6 31 10 47 10 17 0 40 4 53
9 13 5 50 16 83 24 104 27 259 69 290 79 44 15 94 28 140 38 22 5 67 17 100
28 33 11 94 30 135 42 41 12 82 24 90 27 8 4 42 14 75 24 33 9 74 22 90 27 17
6 50 16 75 23 25 7 54 17 65 23 11 5 31 12 45 14 14 2 38 9 55 16 70 31 87 36
110 36 13 0 26 4 29 9 4 5 32 17 64 26 69 21 127 42 165 61 16 8 37 14 47 14
10 0 40 9 67 21 26 12 69 27 95 35 25 8 59 21 75 29 15 8 34 15 41 15 8 0 28
7 45 16 60 32 67 34 91 34 14 0 27 4 31 9 3 5 29 17 58 27 28 9 79 30 113 45
34 16 66 29 73 29 6 0 19 4 29 9 16 8 53 25 117 52 17 7 34 12 38 11 4 -1 15
4 23 13 9 8 26 15 38 15 13 0 29 7 36 15 7 8 21 15 31 15 10 0 21 5 24 10 3 6
19 10 35 10 15 0 30 7 34 15 3 8 17 15 31 15 16 0 25 6 25 15 0 9 9 15 23 15
12 0 45 12 72 25 28 14 58 25 68 25 9 0 17 4 17 9 0 5 12 11 28 13 15 2 26 8
24 16 -1 7 9 12 26 12 15 0 37 7 48 15 12 8 24 11 28 8 3 -3 6 -1 6 5 0 6 18
16 40 22 22 6 40 15 40 20 0 6 9 10 19 10 11 0 23 5 26 10 3 6 17 10 30 10 12
0 25 7 29 15 3 8 13 15 21 15 9 0 23 7 31 15 9 8 24 15 34 15 10 0 22 5 25 10
3 6 15 10 25 10 10 0 23 6 27 13 4 7 27 19 51 25 23 7 42 16 42 21 0 4 18 14
40 21 22 7 40 16 40 20 0 3 23 14 50 24 28 10 50 21 50 25 0 4 18 13 40 20 22
6 40 15 40 20 0 4 18 14 40 21 22 7 40 16 40 20 0 3 17 12 38 19 20 8 44 19
52 26 8 6 31 18 50 25 19 8 39 20 43 27 4 7 16 13 27 13 10 0 25 6 32 12 21
20 56 38 72 38 8 0 19 6 23 12 4 7 35 26 68 43 33 16 77 39 97 52 21 13 44 23
53 23 8 0 15 7 15 15 0 9 9 15 25 15 14 0 25 3 25 8 0 4 24 18 53 32 28 14 59
33 68 43 9 9 26 17 38 17 12 0 24 7 27 15 3 8 21 19 40 25 19 6 34 15 34 20 0
5 14 11 30 15 17 4 30 13 30 21 0 8 10 14 25 14 14 0 25 4 25 10 0 5 11 12 25
16 14 3 25 10 25 15 0 5 7 9 15 9 8 0 15 3 15 8 0 7 22 21 73 44 15 7 27 16
27 20 0 4 7 8 15 8 8 0 15 5 15 10 0 6 11 10 25 10 14 0 25 6 25 13 0 14 40
37 65 37 8 0 15 6 15 14 0 8 10 18 22 22 12 3 26 10 32 15 27 23 88 59 99 59
17 1 47 25 47 39 0 6 9 11 20 11 10 0 30 11 44 25 14 14 34 25 46 25 11 0 20
7 20 15 0 8 7 15 15 15 8 0 15 5 15 10 0 6 9 10 20 10 10 0 23 6 27 12 9 15
41 36 66 44 9 4 17 10 17 15 0 5 7 9 15 9 9 0 18 7 21 15 4 8 13 15 21 15 7 0
26 11 41 25 15 14 35 25 44 25 10 0 18 5 18 11 0 16 31 38 53 39 9 0 17 6 17
13 0 12 44 37 67 37 7 0 13 7 13 15 0 8 7 15 15 15 8 0 15 5 15 10 0 6 18 18
40 27 22 10 40 23 40 30 0 7 9 13 19 13 11 0 28 10 38 22 21 25 49 46 76 54 9
4 17 10 17 15 0 5 4 9 10 9 5 0 20 11 34 25 14 14 34 25 46 25 11 0 20 6 20
13 0 12 50 50 82 63 10 3 18 12 18 20 0 8 8 14 18 14 10 0 29 11 42 25 13 14
29 25 37 25 7 0 13 7 13 15 0 8 11 17 25 21 14 3 30 15 36 25 5 11 16 19 24
19 8 0 15 5 15 10 0 6 7 10 15 10 8 0 32 18 54 40 22 22 44 40 50 40 6 0 11 4
11 8 0 5 18 17 40 28 22 10 40 25 40 32 0 6 4 12 9 12 6 0 22 11 37 25 15 14
33 25 40 25 8 0 14 7 14 15 0 8 6 15 13 15 7 0 21 11 31 25 10 14 24 25 30 25
6 0 23 11 38 25 15 14 32 25 38 25 5 0 10 6 10 13 0 8 11 19 25 25 14 6 25 16
25 21 0 5 11 12 25 15 14 4 25 13 25 21 0 8 6 15 13 15 7 0 19 9 27 21 8 11
26 27 40 34 14 7 44 32 68 54 24 23 47 41 52 41 6 0 10 7 10 15 0 8 9 15 20
15 10 0 24 9 30 19 5 11 19 23 30 26 11 3 20 13 20 21 0 8 7 14 15 14 8 0 15
5 15 10 0 6 7 10 15 10 8 0 15 6 15 13 1 6 19 26 41 42 22 17 58 47 80 67 22
21 45 38 50 38 5 0 9 5 9 11 0 13 25 39 39 39 5 0 36 24 67 54 32 30 62 52 66
50 4 -3 8 -1 8 5 0 14 56 71 70 71 5 0 10 5 10 11 0 10 24 39 33 39 6 0 118
105 240 222 38 38 73 68 78 68 5 0 9 7 9 15 0 8 5 15 11 15 14 0 39 25 39 39
0 6 7 11 15 11 8 0 15 7 15 15 0 8 5 15 10 15 6 0 28 18 50 40 22 22 40 45 40
50 0 6 4 10 10 10 12 0 200 188 200 200 0 6 5 10 11 10 14 0 39 25 39 39 0 6
4 11 10 11 13 0 70 57 70 70 0 5 7 10 15 10 8 0 15 4 15 9 0 5 30 40 68 78
122 126 221 233 214 233 -3 0 4 9 16 20 12 11 26 20 32 20 5 0 10 4 10 10 0 5
19 29 42 53 24 25 63 68 88 97 25 29 57 65 73 82 15 16 27 31 27 33 0 3 15 19
33 37 17 18 48 54 67 80 19 26 41 48 48 48 6 0 12 7 12 15 0 8 5 15 10 15 6 0
10 7 10 15 0 8 7 15 15 15 8 0 15 4 15 9 0 4 11 20 25 35 14 15 25 34 25 42 0
7 7 14 15 14 8 0 15 5 15 10 0 6 12 23 28 39 15 15 43 47 62 71 19 24 41 49
48 56 6 7 12 17 12 23 0 6 6 11 13 11 7 0 17 8 22 18 29 53 51 82 63 82 6 0
12 5 12 11 0 10 31 51 80 106 11 12 20 27 20 33 0 5 7 10 15 10 8 0 15 7 15
16 0 9 10 27 23 40 39 41 53 58 73 92 10 17 22 32 26 32 4 0 8 5 8 10 0 6 11
22 24 35 14 14 33 38 42 55 10 16 22 30 26 30 4 0 8 7 8 15 0 8 9 19 19 24 10
6 24 25 30 42 6 17 15 28 21 24 5 -3 10 -1 10 5 0 7 11 25 25 42 14 16 25 36
25 44 0 8 6 14 14 14 8 0 17 8 20 17 12 31 51 83 61 83 6 0 17 16 24 36 7 19
19 38 27 41 8 3 14 10 14 16 0 5 11 25 25 43 14 18 25 38 25 44 0 6 5 8 10 5
6 -4 18 11 28 34 9 22 22 41 28 41 5 0 16 16 24 35 7 19 19 36 27 39 7 3 13
12 13 21 0 8 7 15 15 15 8 0 15 6 15 13 0 19 30 77 40 77 4 0 13 14 20 30 7
17 19 30 26 30 8 0 14 7 14 15 0 9 18 40 40 70 22 30 40 59 40 65 0 5 5 10 10
10 6 0 10 9 10 19 0 10 7 21 15 25 8 3 15 10 15 16 0 6 11 26 25 44 14 18 25
38 25 44 0 7 7 12 15 12 9 0 15 9 15 23 0 12 9 29 20 37 10 8 22 27 25 42 4
15 13 28 20 28 8 0 19 16 26 35 7 19 17 35 21 35 4 0 14 16 23 35 8 20 21 43
30 51 8 9 15 22 15 30 0 8 6 14 14 14 7 0 16 13 19 30 4 16 16 38 27 47 11 10
20 25 20 35 0 10 5 18 10 18 6 0 10 5 10 11 0 6 18 38 40 70 22 32 40 63 40
68 0 5 3 11 8 13 10 4 42 67 42 84 0 8 7 14 15 14 8 0 15 9 15 19 0 11 7 26
15 35 9 8 22 31 30 50 8 19 19 37 25 41 5 3 10 13 10 22 0 9 8 23 18 32 9 9
28 40 42 68 14 29 28 53 33 53 4 0 7 11 7 25 0 16 6 25 15 25 8 0 15 9 15 19
0 11 5 23 10 26 6 3 10 15 10 26 0 10 4 19 9 19 4 0 24 30 42 68 19 37 37 69
40 72 3 3 14 23 25 45 10 22 24 46 31 53 7 7 13 22 13 33 0 11 7 22 15 25 8 3
20 24 26 45 7 21 16 39 20 39 4 0 15 22 25 50 10 28 21 50 24 50 4 0 13 18 20
40 7 22 17 40 21 40 5 0 14 18 20 40 7 22 16 40 20 40 4 0 15 23 25 50 10 28
21 50 26 50 4 0 13 18 19 40 7 22 16 40 20 40 4 0 13 17 19 38 7 20 18 44 25
52 7 8 19 33 26 55 8 22 20 46 27 53 6 7 12 22 12 31 0 10 7 24 15 31 8 7 15
21 15 31 0 10 5 21 10 24 6 3 10 15 10 26 0 10 4 19 10 19 5 0 14 18 20 40 6
22 15 40 20 40 5 0 7 6 4 13 -3 8 2 20 11 27 8 7 15 20 15 29 0 9 7 25 15 35
8 11 15 28 15 38 0 10 5 18 10 18 6 0 10 11 10 24 0 14 4 27 9 30 4 3 19 33
31 66 12 33 26 60 31 60 5 0 9 11 9 24 0 13 7 29 15 36 8 7 15 21 15 31 0 10
11 38 25 63 14 25 25 51 25 60 0 8 11 37 25 64 14 28 25 55 25 62 0 7 6 24 14
38 7 15 18 38 24 52 5 14 24 59 40 100 53 128 82 206 82 216 0 6 11 32 24 60
13 27 26 60 30 74 4 14 11 34 17 45 10 22 42 113 66 190 9 28 21 64 28 80 23
53 43 109 60 167 9 32 21 60 26 64 5 3 9 16 9 29 0 22 6 43 31 100 5 11 22 65
39 120 17 55 35 114 41 130 6 17 17 53 25 80 8 28 28 93 44 145 17 52 41 136
55 185 14 50 34 117 45 150 10 33 35 121 54 195 19 74 42 162 52 195 9 33 18
76 21 95 2 19 8 44 13 55 11 25 36 121 61 238 10 49 23 105 28 125 22 83 105
468 114 527 3 17 10 57 16 90 49 255 91 483 101 550 6 44 18 114 25 155 16 84
37 231 66 455 10 83 21 161 24 175 24 115 95 959 120 1425 18 331 21 1451 5
1767 -13 251 -46 750 -59 878 -6 52 -17 167 -26 255 -45 454 -151 1198 -215
1505 -5 25 -21 108 -35 185 -27 142 -56 282 -100 480 -14 61 -36 162 -50 225
-31 138 -64 266 -76 298 -5 13 -9 34 -9 47 0 13 -4 34 -9 47 -5 13 -16 50 -24
83 -25 96 -67 253 -94 345 -60 212 -75 261 -104 355 -16 55 -39 127 -50 160
-11 33 -24 76 -28 95 -5 19 -16 55 -25 80 -10 25 -21 62 -26 84 -4 21 -12 41
-17 45 -10 6 -20 40 -30 101 -3 19 -12 40 -19 48 -8 7 -14 24 -14 37 0 13 -4
27 -10 30 -5 3 -10 17 -10 30 0 22 -5 35 -44 113 -9 19 -16 43 -16 53 0 11
-11 44 -24 72 -12 29 -29 72 -37 97 -7 25 -19 56 -26 70 -7 14 -13 35 -13 46
0 12 -7 27 -15 34 -8 7 -15 21 -15 31 0 10 -4 21 -10 24 -5 3 -10 19 -10 35 0
16 -4 31 -9 34 -5 4 -17 32 -27 63 -10 32 -31 82 -46 112 -15 30 -28 62 -28
70 0 9 -12 39 -25 66 -14 28 -25 57 -25 66 0 9 -7 22 -15 29 -8 6 -14 15 -13
18 1 4 -4 20 -10 35 -7 16 -12 34 -12 41 0 8 -6 18 -13 24 -7 6 -19 34 -27 62
-8 28 -20 56 -27 62 -7 6 -13 17 -13 26 0 8 -6 23 -13 31 -7 9 -22 42 -32 74
-11 31 -23 57 -27 57 -4 0 -8 11 -8 25 0 14 -4 25 -10 25 -5 0 -10 7 -10 16 0
9 -6 28 -14 42 -7 15 -26 54 -41 87 -16 33 -32 67 -37 75 -4 8 -11 22 -14 30
-3 8 -10 23 -15 32 -5 10 -9 24 -9 32 0 7 -6 19 -14 25 -8 7 -18 26 -21 42 -4
16 -11 29 -16 29 -5 0 -9 9 -9 19 0 11 -4 23 -10 26 -5 3 -10 14 -10 24 0 10
-6 24 -13 30 -8 6 -19 29 -26 51 -6 22 -15 40 -20 40 -4 0 -14 18 -21 40 -7
22 -17 40 -22 40 -4 0 -8 6 -8 13 0 15 -30 79 -40 87 -4 3 -10 17 -13 32 -4
15 -13 33 -21 40 -7 7 -19 30 -25 51 -7 20 -16 37 -20 37 -4 0 -15 23 -25 50
-10 28 -21 50 -25 50 -4 0 -14 18 -21 39 -7 22 -19 42 -26 45 -8 3 -14 14 -14
25 0 11 -6 26 -13 33 -7 7 -21 31 -31 53 -11 22 -22 42 -25 45 -3 3 -21 34
-39 70 -19 36 -42 79 -52 95 -10 17 -19 38 -19 48 -1 9 -8 17 -16 17 -9 0 -15
9 -15 25 0 14 -4 25 -10 25 -5 0 -10 9 -10 20 0 11 -4 20 -9 20 -5 0 -15 15
-22 33 -7 17 -21 41 -31 51 -10 11 -18 25 -18 32 0 7 -6 19 -13 26 -7 7 -19
28 -26 46 -7 17 -17 32 -22 32 -5 0 -9 7 -9 15 0 8 -9 24 -20 35 -11 11 -20
23 -20 27 0 15 -34 83 -42 83 -4 0 -8 6 -8 13 0 6 -14 30 -30 51 -17 22 -30
46 -30 53 0 7 -4 13 -10 13 -5 0 -10 7 -10 15 0 8 -4 15 -10 15 -5 0 -10 11
-10 25 0 15 -6 25 -14 25 -8 0 -20 16 -26 36 -7 19 -18 38 -26 41 -8 3 -14 11
-14 18 0 8 -7 20 -15 29 -9 8 -22 31 -30 51 -9 19 -19 35 -23 35 -4 0 -14 15
-20 34 -7 19 -19 37 -27 40 -8 3 -15 12 -15 19 0 8 -11 27 -25 43 -14 16 -25
37 -25 47 0 9 -6 17 -13 17 -7 0 -19 16 -27 35 -8 19 -17 35 -21 35 -4 0 -17
20 -29 45 -12 25 -26 45 -31 45 -5 0 -9 7 -9 15 0 8 -4 15 -9 15 -5 0 -13 10
-17 22 -3 12 -17 33 -30 47 -13 14 -24 34 -24 43 0 10 -6 18 -14 18 -8 0 -20
16 -26 35 -6 19 -17 35 -23 35 -13 0 -37 45 -37 67 0 7 -7 13 -15 13 -8 0 -15
7 -15 15 0 9 -7 18 -15 21 -8 4 -15 12 -15 19 0 6 -11 24 -25 39 -14 15 -25
31 -25 37 0 15 -31 59 -39 55 -3 -2 -15 13 -25 35 -11 21 -23 39 -28 39 -4 0
-8 6 -8 13 0 7 -9 18 -19 24 -11 7 -22 26 -26 43 -4 16 -13 30 -20 30 -8 0
-17 10 -20 21 -4 12 -22 37 -40 55 -18 18 -36 42 -39 52 -4 11 -15 27 -26 37
-11 10 -20 24 -20 32 0 8 -4 11 -10 8 -5 -3 -16 10 -24 30 -8 19 -22 38 -31
41 -8 3 -15 12 -15 20 0 8 -4 14 -8 14 -4 0 -16 14 -26 30 -9 17 -28 41 -42
55 -13 13 -24 29 -24 35 0 5 -4 10 -10 10 -5 0 -10 6 -10 13 0 7 -25 40 -55
72 -30 33 -55 68 -55 78 0 9 -7 17 -15 17 -8 0 -15 5 -15 11 0 7 -8 19 -18 28
-9 9 -28 33 -42 53 -14 21 -28 38 -32 38 -5 0 -8 7 -8 15 0 8 -6 15 -12 15 -7
0 -26 23 -43 50 -16 27 -36 50 -42 50 -7 0 -13 5 -13 11 0 5 -13 24 -30 42
-16 18 -30 35 -30 39 0 4 -20 28 -45 52 -25 25 -45 48 -45 51 0 3 -7 13 -15
23 -51 58 -65 76 -65 83 0 5 -7 9 -15 9 -8 0 -15 7 -15 15 0 8 -4 15 -10 15
-5 0 -10 5 -10 10 0 6 -18 26 -40 46 -22 20 -40 41 -40 46 0 6 -29 39 -65 74
-36 35 -65 67 -65 72 0 9 -78 98 -170 193 -36 37 -90 95 -120 130 -30 34 -94
102 -142 152 -49 49 -88 93 -88 98 0 5 -7 9 -15 9 -8 0 -15 5 -15 11 0 14 -25
39 -39 39 -6 0 -11 7 -11 15 0 8 -7 15 -15 15 -8 0 -15 5 -15 11 0 14 -25 39
-39 39 -6 0 -11 5 -11 11 0 14 -25 39 -39 39 -6 0 -11 4 -11 10 0 13 -57 70
-70 70 -5 0 -10 5 -10 11 0 14 -25 39 -39 39 -6 0 -11 7 -11 15 0 8 -7 15 -15
15 -8 0 -15 5 -15 11 0 14 -25 39 -39 39 -6 0 -11 5 -11 11 0 14 -25 39 -39
39 -6 0 -11 7 -11 15 0 8 -7 15 -15 15 -8 0 -15 5 -15 11 0 14 -25 39 -39 39
-6 0 -11 5 -11 11 0 11 -24 39 -34 39 -3 0 -34 28 -69 63 -98 96 -217 206
-217 200 0 -3 -28 24 -62 59 -71 71 -191 178 -202 178 -11 0 -36 27 -36 39 0
6 -7 11 -15 11 -8 0 -15 6 -15 13 0 8 -11 20 -25 27 -14 7 -25 17 -25 21 0 5
-12 15 -27 23 -16 8 -47 33 -70 55 -23 23 -47 41 -53 41 -5 0 -10 6 -10 14 0
8 -9 18 -20 21 -11 3 -25 15 -30 26 -6 10 -20 19 -30 19 -11 0 -20 7 -20 15 0
8 -5 15 -11 15 -14 0 -39 25 -39 39 0 6 -7 11 -15 11 -8 0 -20 9 -27 20 -7 11
-19 20 -26 20 -7 0 -26 14 -42 30 -16 17 -34 30 -40 30 -5 0 -10 7 -10 15 0 8
-11 17 -25 21 -14 3 -25 10 -25 15 0 5 -11 15 -25 21 -14 6 -25 17 -25 25 0 7
-7 13 -15 13 -8 0 -15 3 -15 8 0 4 -17 18 -38 32 -20 14 -44 33 -53 42 -9 10
-21 18 -28 18 -6 0 -11 7 -11 15 0 8 -8 15 -17 15 -10 0 -45 25 -78 55 -32 30
-65 55 -72 55 -7 0 -13 5 -13 10 0 6 -4 10 -10 10 -5 0 -29 18 -52 40 -24 22
-49 40 -55 40 -7 0 -13 5 -13 10 0 6 -6 10 -14 10 -8 0 -17 7 -20 15 -3 9 -19
21 -36 26 -16 6 -30 17 -30 25 0 8 -5 14 -11 14 -6 0 -24 11 -41 25 -16 14
-36 25 -44 25 -8 0 -14 6 -14 14 0 8 -8 17 -17 20 -32 12 -83 51 -83 63 0 6
-14 14 -30 18 -17 4 -36 15 -43 26 -6 10 -17 19 -24 19 -7 0 -13 4 -13 9 0 5
-8 11 -17 15 -27 8 -55 29 -76 54 -10 12 -27 22 -38 22 -10 0 -19 6 -19 13 0
8 -18 20 -40 27 -22 7 -40 19 -40 27 0 7 -7 13 -15 13 -8 0 -15 7 -15 15 0 8
-7 15 -15 15 -19 0 -57 21 -67 36 -4 6 -21 17 -38 24 -16 7 -30 19 -30 26 0 8
-10 14 -24 14 -13 0 -31 11 -42 25 -10 14 -27 25 -37 25 -10 0 -20 7 -23 15
-4 8 -12 15 -20 15 -8 0 -14 4 -14 8 0 5 -18 17 -40 28 -22 10 -40 22 -40 27
0 4 -18 15 -40 24 -22 10 -40 23 -40 30 0 7 -10 13 -23 13 -12 0 -29 9 -37 20
-8 10 -27 22 -42 25 -15 4 -28 11 -28 17 0 15 -31 37 -52 38 -10 0 -18 5 -18
10 0 6 -18 17 -40 26 -22 9 -40 20 -40 25 0 5 -7 9 -15 9 -8 0 -23 9 -32 20
-10 11 -32 25 -50 31 -18 6 -33 17 -33 25 0 8 -10 14 -25 14 -14 0 -25 5 -25
10 0 6 -5 10 -11 10 -6 0 -31 14 -56 30 -24 17 -48 30 -54 30 -5 0 -9 5 -9 10
0 6 -7 10 -15 10 -8 0 -15 4 -15 9 0 5 -11 12 -25 15 -14 4 -25 11 -25 16 0 6
-11 10 -25 10 -15 0 -25 6 -25 14 0 8 -13 17 -30 21 -16 4 -30 10 -30 15 0 5
-15 14 -34 20 -19 6 -37 17 -40 25 -3 8 -15 15 -27 15 -12 0 -29 8 -38 18 -9
10 -31 24 -48 31 -18 8 -33 17 -33 22 0 5 -9 9 -20 9 -11 0 -20 5 -20 10 0 6
-11 10 -25 10 -16 0 -25 6 -25 15 0 8 -7 15 -16 15 -9 0 -28 8 -42 18 -15 10
-58 34 -97 53 -38 19 -74 40 -78 47 -4 6 -14 12 -21 12 -17 0 -74 29 -81 41
-4 5 -15 9 -25 9 -10 0 -23 6 -27 13 -4 7 -24 19 -43 27 -19 7 -42 19 -50 25
-8 7 -32 18 -52 26 -21 7 -38 16 -38 19 0 4 -18 13 -40 20 -22 7 -40 17 -40
21 0 5 -18 14 -40 20 -22 7 -40 16 -40 20 0 4 -22 15 -50 25 -27 10 -50 21
-50 24 0 4 -18 13 -40 20 -22 7 -40 17 -40 21 0 5 -18 14 -40 20 -22 7 -45 18
-51 26 -6 7 -20 13 -30 13 -10 0 -21 5 -24 10 -3 6 -17 10 -31 10 -14 0 -27 7
-30 15 -4 8 -15 15 -25 15 -11 0 -22 7 -25 15 -4 8 -17 15 -29 15 -13 0 -27 5
-30 10 -3 6 -14 10 -24 10 -10 0 -24 7 -31 15 -7 8 -21 15 -31 15 -9 0 -25 7
-33 16 -9 8 -16 13 -16 9 0 -3 -10 1 -22 9 -12 9 -35 16 -50 16 -18 0 -28 5
-28 15 0 9 -9 15 -25 15 -14 0 -25 5 -25 10 0 6 -11 10 -25 10 -14 0 -25 4
-25 8 0 5 -18 15 -40 22 -22 7 -40 16 -40 20 0 4 -11 5 -25 2 -18 -3 -25 0
-25 12 0 10 -9 16 -24 16 -13 0 -29 7 -36 15 -7 8 -23 15 -36 15 -12 0 -26 5
-29 10 -3 6 -14 10 -24 10 -10 0 -24 7 -31 15 -7 8 -19 15 -27 15 -8 0 -39 11
-69 25 -30 14 -58 25 -62 25 -4 0 -29 11 -57 25 -27 13 -59 25 -71 25 -11 0
-24 4 -30 9 -5 6 -45 24 -89 41 -44 17 -93 37 -110 44 -16 8 -50 19 -75 27
-25 7 -54 19 -65 26 -11 7 -26 13 -33 13 -8 0 -28 7 -45 15 -30 14 -73 29
-207 75 -30 10 -80 29 -110 40 -30 12 -68 25 -85 30 -43 12 -86 26 -115 38
-14 5 -45 16 -70 23 -25 7 -56 19 -70 26 -14 7 -34 13 -45 13 -11 0 -31 6 -45
13 -14 7 -45 18 -70 25 -25 7 -58 18 -75 24 -16 5 -57 18 -90 27 -33 10 -67
20 -75 24 -8 3 -46 15 -85 26 -38 11 -124 36 -189 56 -65 19 -125 35 -133 35
-7 0 -21 4 -31 10 -18 10 -83 28 -212 59 -41 10 -156 40 -255 66 -99 26 -216
55 -260 65 -44 10 -109 25 -145 33 -167 39 -424 94 -495 107 -27 5 -84 16
-125 25 -41 9 -102 20 -135 24 -33 5 -105 18 -160 29 -91 19 -247 45 -620 102
-71 11 -173 25 -225 30 -52 6 -120 15 -150 20 -30 5 -143 19 -250 30 -107 10
-240 24 -295 30 -55 6 -156 15 -225 20 -69 5 -183 14 -255 19 -406 33 -1246
54 -1755 45z m1125 -2454 c280 -11 847 -53 1030 -76 66 -8 165 -19 220 -24
143 -13 285 -33 725 -101 171 -27 453 -79 640 -119 80 -17 190 -40 245 -51 55
-11 123 -26 150 -34 28 -7 100 -25 160 -39 143 -33 344 -84 425 -107 19 -6 53
-14 75 -19 22 -4 54 -12 70 -18 17 -5 48 -14 70 -20 22 -6 85 -25 140 -42 55
-17 118 -35 140 -41 22 -6 55 -17 73 -25 18 -8 39 -14 48 -14 14 0 186 -53
229 -70 11 -5 94 -33 185 -63 91 -31 203 -70 250 -87 47 -17 99 -35 115 -39
17 -4 51 -18 77 -29 26 -12 52 -22 58 -22 6 0 36 -11 66 -25 30 -14 58 -25 63
-25 5 0 22 -7 37 -15 16 -8 37 -15 46 -15 9 0 20 -4 23 -10 3 -5 13 -10 21
-10 7 0 42 -13 76 -29 35 -16 82 -35 106 -42 23 -7 47 -18 53 -26 6 -7 21 -13
33 -13 12 0 44 -11 72 -23 131 -63 163 -77 172 -77 5 0 30 -11 56 -25 26 -14
56 -25 67 -25 10 0 19 -4 19 -10 0 -5 5 -10 12 -10 6 0 34 -11 62 -24 28 -13
83 -38 121 -56 115 -52 239 -111 255 -121 8 -5 26 -14 40 -20 56 -23 135 -64
138 -71 2 -5 11 -8 20 -9 10 0 31 -9 47 -20 17 -10 37 -21 45 -25 41 -16 146
-70 157 -81 7 -6 26 -14 43 -18 16 -4 30 -10 30 -14 0 -8 70 -41 87 -41 6 0
13 -7 17 -15 3 -8 15 -15 26 -15 11 0 20 -7 20 -15 0 -10 10 -15 31 -15 17 0
28 -4 24 -10 -3 -5 3 -10 13 -10 11 0 25 -7 32 -15 7 -8 19 -15 28 -15 8 0 30
-11 48 -25 18 -14 39 -25 47 -25 8 0 17 -7 21 -15 3 -8 15 -15 26 -15 11 0 20
-4 20 -10 0 -5 9 -10 20 -10 10 0 23 -6 27 -13 4 -7 24 -19 43 -27 19 -8 39
-20 43 -27 4 -7 17 -13 27 -13 11 0 20 -7 20 -15 0 -8 7 -15 15 -15 19 0 58
-21 68 -37 4 -7 17 -13 27 -13 12 0 20 -7 20 -16 0 -12 7 -15 25 -12 16 3 25
1 25 -7 0 -7 10 -15 23 -19 12 -3 32 -14 44 -26 12 -11 29 -20 37 -20 7 0 16
-7 20 -15 3 -8 12 -15 19 -15 8 0 20 -7 27 -15 7 -9 19 -14 27 -11 7 3 13 -1
13 -9 0 -8 9 -15 20 -15 10 0 23 -6 27 -13 4 -7 25 -21 46 -31 20 -9 37 -21
37 -26 0 -6 6 -10 14 -10 7 0 19 -7 26 -15 7 -9 19 -14 27 -11 7 3 13 -1 13
-8 0 -8 11 -17 25 -20 14 -4 25 -11 25 -16 0 -6 7 -10 15 -10 8 0 15 -4 15 -9
0 -5 8 -12 18 -15 38 -15 62 -31 62 -43 0 -7 8 -13 19 -13 10 0 29 -10 42 -23
13 -13 39 -29 57 -36 17 -8 32 -20 32 -27 0 -8 8 -14 18 -14 9 0 29 -11 43
-24 14 -13 35 -27 47 -30 12 -4 22 -12 22 -17 0 -5 7 -9 15 -9 8 0 15 -4 15
-8 0 -5 18 -17 40 -28 22 -10 40 -24 40 -31 0 -6 16 -17 35 -24 19 -7 35 -19
35 -26 0 -7 6 -13 13 -13 6 0 25 -11 41 -25 16 -14 35 -25 43 -25 7 0 13 -7
13 -15 0 -8 17 -19 40 -26 22 -7 40 -16 40 -21 0 -14 27 -38 43 -38 8 0 17 -7
21 -15 3 -8 12 -15 21 -15 8 0 15 -6 15 -12 0 -13 44 -38 67 -38 7 0 13 -5 13
-11 0 -13 25 -39 38 -39 6 0 12 -7 16 -15 3 -8 15 -15 26 -15 11 0 20 -7 20
-15 0 -8 5 -15 10 -15 6 0 23 -11 37 -25 15 -13 40 -29 55 -36 15 -6 28 -18
28 -25 0 -8 7 -14 15 -14 8 0 15 -7 15 -15 0 -8 8 -15 18 -15 9 0 34 -16 54
-35 20 -19 40 -35 45 -35 5 0 15 -9 23 -20 8 -11 20 -20 27 -20 7 0 13 -4 13
-10 0 -5 5 -10 11 -10 14 0 39 -25 39 -39 0 -6 7 -11 15 -11 8 0 15 -4 15 -10
0 -5 7 -10 15 -10 8 0 32 -18 54 -40 22 -22 43 -40 47 -40 4 0 16 -9 28 -20
49 -47 98 -90 103 -90 3 0 21 -16 40 -35 19 -19 38 -35 44 -35 5 0 27 -18 49
-40 22 -22 44 -40 50 -40 5 0 10 -7 10 -15 0 -8 5 -15 11 -15 7 0 33 -19 58
-42 93 -85 121 -108 131 -108 5 0 10 -7 10 -15 0 -8 7 -15 16 -15 8 0 13 -4 9
-9 -3 -5 8 -18 25 -27 16 -10 30 -24 30 -31 0 -7 7 -13 15 -13 8 0 22 -11 31
-25 9 -14 22 -25 30 -25 7 0 18 -9 24 -19 5 -11 19 -23 30 -26 11 -3 20 -13
20 -21 0 -8 5 -14 11 -14 14 0 69 -55 69 -69 0 -6 6 -11 13 -11 16 0 717 -703
717 -719 0 -7 4 -10 9 -6 5 3 18 -8 27 -25 10 -16 24 -30 31 -30 7 0 13 -4 13
-10 0 -8 25 -39 80 -95 11 -12 20 -26 20 -33 0 -7 6 -12 13 -12 7 0 21 -14 31
-30 9 -17 22 -28 27 -25 5 4 9 -1 9 -9 0 -9 7 -16 15 -16 8 0 15 -5 15 -11 0
-7 17 -31 38 -54 20 -23 54 -61 75 -84 20 -23 37 -46 37 -51 0 -6 7 -10 15
-10 8 0 15 -5 15 -10 0 -6 18 -28 40 -50 22 -22 40 -44 40 -49 0 -6 16 -25 35
-44 19 -19 35 -39 35 -46 0 -6 7 -11 15 -11 8 0 15 -4 15 -8 0 -10 29 -48 58
-77 12 -12 22 -25 22 -29 0 -4 11 -18 24 -31 14 -14 33 -38 42 -55 10 -16 22
-30 26 -30 4 0 8 -7 8 -15 0 -8 7 -15 15 -15 8 0 15 -3 15 -7 0 -8 30 -48 64
-85 9 -10 16 -20 16 -23 0 -3 12 -18 26 -33 14 -15 30 -39 36 -54 5 -16 16
-28 24 -28 8 0 14 -7 14 -15 0 -8 6 -15 14 -15 7 0 19 -13 25 -28 7 -15 23
-40 36 -55 14 -14 25 -31 25 -37 0 -5 5 -10 10 -10 6 0 15 -11 20 -25 5 -14
14 -25 20 -25 5 0 10 -5 10 -10 0 -6 11 -22 24 -35 13 -13 30 -37 37 -54 8
-17 19 -31 25 -31 7 0 14 -8 18 -17 8 -26 27 -53 59 -86 15 -16 27 -35 27 -43
0 -7 9 -19 20 -26 11 -7 20 -17 20 -21 0 -5 11 -23 25 -41 14 -18 25 -38 25
-44 0 -7 6 -12 14 -12 8 0 20 -16 26 -35 6 -19 18 -35 26 -35 8 0 14 -7 14
-15 0 -9 7 -18 15 -21 8 -4 15 -15 15 -25 0 -10 5 -19 10 -19 6 0 10 -7 10
-15 0 -8 4 -15 10 -15 5 0 16 -16 25 -35 9 -19 23 -39 31 -46 8 -6 14 -17 14
-23 0 -6 8 -19 18 -28 9 -8 31 -39 47 -68 17 -29 37 -60 45 -69 8 -10 24 -34
34 -54 11 -20 23 -37 28 -37 4 0 8 -7 8 -15 0 -8 4 -15 8 -15 5 0 17 -20 28
-45 10 -25 22 -45 26 -45 5 0 13 -11 18 -25 5 -14 13 -25 17 -25 5 0 15 -15
23 -32 14 -33 22 -44 51 -77 8 -9 13 -23 11 -31 -3 -7 1 -18 9 -24 17 -14 37
-45 45 -68 4 -10 10 -18 13 -18 4 0 18 -20 30 -45 12 -25 27 -45 32 -45 6 0 8
-4 5 -9 -3 -5 1 -14 9 -21 8 -7 15 -21 15 -31 0 -10 6 -22 13 -26 16 -10 37
-49 37 -68 0 -8 7 -15 15 -15 8 0 15 -9 15 -20 0 -10 6 -23 13 -27 7 -4 19
-24 27 -43 8 -19 20 -39 27 -43 7 -4 13 -17 13 -27 0 -11 5 -20 10 -20 6 0 10
-9 10 -19 0 -10 7 -21 15 -25 8 -3 15 -14 15 -25 0 -11 5 -23 11 -27 6 -3 18
-22 26 -41 8 -20 25 -53 39 -74 13 -21 24 -46 24 -54 0 -9 7 -18 15 -21 8 -4
15 -15 15 -25 0 -11 7 -22 15 -25 8 -4 15 -11 15 -17 0 -16 33 -87 41 -87 4 0
10 -12 14 -27 3 -15 21 -52 39 -82 17 -31 38 -72 46 -91 7 -19 18 -42 24 -50
21 -29 36 -60 36 -75 0 -8 4 -15 8 -15 4 0 14 -16 21 -35 7 -19 16 -35 19 -35
4 0 14 -20 21 -46 7 -25 19 -50 25 -57 6 -7 18 -31 25 -55 8 -23 20 -47 28
-53 7 -6 13 -20 13 -30 0 -10 4 -20 9 -24 14 -8 41 -65 41 -85 0 -10 7 -23 15
-30 8 -7 15 -21 15 -31 0 -10 5 -21 10 -24 6 -3 10 -15 10 -26 0 -10 3 -19 8
-19 8 0 52 -92 52 -109 0 -6 4 -19 9 -29 24 -44 61 -132 61 -145 0 -8 7 -17
15 -21 8 -3 15 -13 15 -23 0 -10 11 -40 25 -67 14 -27 25 -57 25 -65 0 -9 11
-38 25 -65 14 -27 25 -59 25 -72 0 -12 7 -24 15 -28 8 -3 15 -14 15 -24 0 -10
7 -27 15 -38 8 -10 15 -29 15 -41 0 -12 4 -24 9 -27 5 -3 12 -22 15 -41 4 -19
11 -35 16 -35 6 0 10 -9 10 -20 0 -11 11 -45 25 -76 14 -31 25 -61 25 -66 0
-6 7 -26 16 -46 26 -60 31 -73 59 -157 15 -44 40 -114 55 -155 37 -98 183
-549 221 -685 5 -16 22 -73 38 -125 49 -161 72 -243 81 -285 4 -22 16 -65 25
-95 10 -30 23 -80 30 -110 7 -30 20 -84 29 -120 17 -66 55 -224 81 -335 7 -33
20 -89 29 -125 8 -36 27 -123 41 -195 15 -71 33 -158 41 -191 14 -60 76 -418
114 -659 21 -134 75 -537 85 -630 3 -33 12 -114 20 -180 8 -66 19 -183 25
-260 6 -77 17 -221 25 -320 24 -299 35 -664 35 -1190 0 -521 -10 -835 -35
-1165 -9 -107 -20 -251 -25 -320 -6 -69 -15 -165 -20 -215 -6 -49 -15 -133
-21 -185 -26 -240 -97 -734 -135 -945 -8 -44 -21 -118 -29 -165 -8 -47 -22
-121 -31 -165 -9 -44 -20 -100 -24 -125 -12 -68 -50 -248 -65 -310 -8 -30 -37
-154 -66 -275 -54 -231 -62 -265 -103 -411 -14 -50 -26 -103 -26 -117 0 -14
-4 -28 -9 -32 -5 -3 -12 -20 -16 -38 -8 -38 -39 -149 -65 -227 -10 -30 -23
-77 -30 -105 -7 -27 -18 -64 -26 -82 -8 -17 -14 -37 -14 -44 0 -7 -11 -44 -24
-83 -14 -39 -43 -127 -65 -196 -22 -69 -45 -141 -52 -160 -27 -77 -51 -146
-59 -165 -5 -11 -14 -38 -21 -60 -7 -22 -16 -44 -20 -50 -4 -5 -10 -26 -14
-45 -4 -19 -18 -58 -31 -87 -13 -28 -24 -55 -24 -60 0 -7 -36 -99 -66 -170 -8
-17 -14 -38 -14 -46 0 -9 -4 -19 -10 -22 -5 -3 -10 -13 -10 -22 0 -9 -13 -45
-30 -80 -16 -34 -30 -68 -30 -73 0 -6 -9 -29 -19 -53 -49 -107 -71 -158 -71
-164 0 -3 -14 -35 -30 -70 -16 -34 -30 -70 -30 -77 0 -8 -4 -17 -9 -21 -5 -3
-15 -22 -22 -43 -12 -38 -45 -109 -179 -389 -43 -89 -84 -179 -92 -200 -7 -21
-15 -40 -19 -43 -3 -3 -22 -39 -42 -80 -21 -41 -42 -82 -47 -90 -5 -8 -24 -46
-42 -85 -18 -38 -36 -71 -41 -73 -4 -2 -7 -10 -7 -18 0 -14 -20 -55 -31 -64
-3 -3 -16 -25 -27 -50 -12 -25 -51 -99 -87 -165 -36 -66 -72 -135 -80 -152 -9
-18 -20 -33 -25 -33 -6 0 -10 -9 -10 -20 0 -11 -4 -20 -10 -20 -5 0 -10 -6
-10 -14 0 -7 -6 -19 -13 -25 -8 -6 -20 -29 -27 -51 -7 -22 -17 -40 -21 -40 -4
0 -11 -10 -15 -22 -4 -13 -17 -37 -30 -54 -13 -17 -24 -36 -24 -41 0 -6 -7
-13 -15 -17 -8 -3 -15 -13 -15 -21 0 -9 -7 -23 -15 -32 -8 -8 -13 -19 -10 -24
4 -5 2 -9 -4 -9 -5 0 -19 -20 -31 -45 -12 -25 -25 -45 -30 -45 -4 0 -10 -8
-14 -17 -6 -21 -25 -51 -44 -71 -7 -8 -11 -21 -8 -28 3 -8 -1 -14 -9 -14 -8 0
-15 -6 -15 -14 0 -8 -6 -21 -12 -28 -7 -7 -20 -26 -28 -43 -8 -16 -19 -33 -23
-36 -11 -8 -34 -47 -43 -71 -3 -10 -10 -18 -14 -18 -4 0 -11 -11 -14 -25 -4
-14 -11 -25 -16 -25 -6 0 -10 -5 -10 -10 0 -6 -9 -21 -20 -33 -12 -12 -23 -32
-26 -44 -4 -13 -12 -23 -18 -23 -7 0 -18 -15 -24 -34 -7 -19 -19 -36 -26 -39
-8 -3 -19 -22 -26 -41 -6 -20 -18 -36 -26 -36 -8 0 -14 -8 -14 -18 0 -9 -11
-29 -24 -43 -13 -14 -27 -35 -30 -47 -4 -12 -12 -22 -17 -22 -5 0 -9 -7 -9
-15 0 -8 -4 -15 -10 -15 -5 0 -10 -9 -10 -19 0 -10 -7 -21 -15 -25 -8 -3 -15
-12 -15 -21 0 -8 -6 -15 -14 -15 -8 0 -20 -16 -27 -35 -7 -19 -19 -35 -26 -35
-7 0 -13 -5 -13 -11 0 -6 -11 -24 -25 -41 -14 -16 -25 -35 -25 -43 0 -7 -7
-15 -15 -19 -8 -3 -15 -11 -15 -18 0 -7 -16 -30 -35 -50 -19 -20 -35 -43 -35
-51 0 -8 -7 -17 -15 -21 -8 -3 -15 -12 -15 -21 0 -8 -6 -15 -13 -15 -7 0 -19
-16 -27 -35 -8 -19 -24 -43 -37 -52 -13 -10 -23 -23 -23 -30 0 -7 -5 -13 -10
-13 -6 0 -15 -11 -20 -25 -5 -14 -14 -25 -20 -25 -5 0 -10 -7 -10 -15 0 -8 -3
-15 -8 -15 -4 0 -22 -22 -40 -50 -18 -27 -37 -50 -42 -50 -6 0 -10 -7 -10 -15
0 -8 -7 -15 -15 -15 -8 0 -15 -8 -15 -17 0 -10 -16 -35 -35 -55 -19 -20 -35
-40 -35 -45 0 -4 -9 -14 -20 -21 -11 -7 -20 -19 -20 -27 0 -8 -4 -15 -10 -15
-5 0 -10 -5 -10 -11 0 -6 -16 -25 -35 -43 -19 -19 -35 -37 -35 -42 0 -5 -18
-28 -40 -52 -22 -23 -40 -44 -40 -47 0 -4 -8 -14 -75 -88 -19 -21 -35 -41 -35
-44 0 -3 -16 -21 -35 -40 -19 -19 -35 -38 -35 -43 0 -5 -18 -27 -40 -49 -22
-22 -40 -44 -40 -50 0 -6 -7 -11 -15 -11 -8 0 -15 -5 -15 -11 0 -7 -19 -33
-42 -58 -85 -93 -108 -121 -108 -131 0 -5 -7 -10 -15 -10 -8 0 -15 -7 -15 -16
0 -8 -4 -13 -9 -9 -5 3 -18 -8 -27 -25 -10 -16 -24 -30 -31 -30 -7 0 -13 -7
-13 -15 0 -8 -11 -22 -25 -31 -14 -9 -25 -22 -25 -29 0 -7 -11 -20 -25 -29
-14 -9 -25 -23 -25 -31 0 -8 -7 -15 -15 -15 -8 0 -15 -4 -15 -8 0 -13 -56 -72
-68 -72 -7 0 -12 -5 -12 -12 0 -15 -672 -688 -687 -688 -7 0 -13 -7 -13 -15 0
-8 -7 -15 -16 -15 -8 0 -13 -4 -9 -9 3 -5 -8 -18 -25 -27 -16 -10 -30 -24 -30
-30 0 -7 -9 -16 -20 -19 -11 -3 -25 -15 -30 -26 -6 -10 -17 -19 -24 -19 -8 0
-21 -11 -30 -25 -9 -14 -23 -25 -31 -25 -8 0 -15 -6 -15 -13 0 -7 -14 -21 -30
-31 -17 -9 -28 -22 -25 -27 4 -5 -1 -9 -9 -9 -9 0 -16 -7 -16 -15 0 -8 -5 -15
-10 -15 -6 0 -21 -10 -34 -23 -12 -12 -44 -40 -71 -62 -26 -22 -61 -52 -77
-68 -16 -15 -31 -27 -34 -27 -3 0 -22 -18 -44 -40 -22 -22 -44 -40 -49 -40 -6
0 -25 -16 -44 -35 -19 -19 -36 -35 -40 -35 -4 0 -31 -23 -103 -90 -12 -11 -24
-20 -28 -20 -3 0 -25 -18 -48 -40 -24 -22 -47 -40 -52 -40 -5 0 -23 -16 -42
-35 -18 -19 -35 -35 -38 -35 -3 0 -15 -8 -25 -18 -33 -29 -50 -42 -56 -42 -4
0 -23 -16 -43 -35 -20 -19 -45 -35 -54 -35 -10 0 -18 -7 -18 -15 0 -8 -7 -15
-15 -15 -8 0 -15 -6 -15 -14 0 -7 -15 -21 -32 -29 -18 -9 -43 -25 -55 -36 -12
-12 -27 -21 -33 -21 -5 0 -10 -7 -10 -15 0 -9 -9 -15 -25 -15 -14 0 -25 -6
-25 -13 0 -8 -11 -20 -25 -27 -14 -7 -25 -17 -25 -21 0 -5 -16 -16 -36 -25
-20 -9 -38 -23 -41 -31 -3 -7 -11 -13 -18 -13 -7 0 -15 -7 -19 -15 -3 -8 -13
-15 -21 -15 -18 0 -45 -23 -45 -38 0 -5 -18 -15 -40 -22 -22 -7 -40 -19 -40
-27 0 -7 -6 -13 -13 -13 -8 0 -27 -11 -43 -25 -16 -14 -35 -25 -41 -25 -7 0
-13 -6 -13 -14 0 -8 -11 -17 -24 -20 -13 -3 -40 -22 -60 -41 -20 -19 -43 -35
-51 -35 -8 0 -15 -4 -15 -10 0 -5 -7 -10 -15 -10 -8 0 -15 -5 -15 -10 0 -6
-11 -15 -25 -20 -14 -5 -25 -14 -25 -20 0 -6 -4 -9 -9 -6 -5 3 -14 -1 -21 -9
-7 -8 -21 -15 -31 -15 -11 0 -19 -6 -19 -14 0 -7 -15 -21 -32 -29 -18 -9 -43
-25 -55 -36 -12 -12 -31 -21 -43 -21 -11 0 -20 -7 -20 -15 0 -8 -7 -15 -15
-15 -9 0 -18 -7 -21 -15 -4 -8 -15 -15 -25 -15 -10 0 -19 -4 -19 -10 0 -5 -6
-10 -14 -10 -8 0 -16 -7 -20 -15 -3 -8 -15 -15 -26 -15 -11 0 -20 -7 -20 -15
0 -8 -3 -14 -7 -13 -13 2 -83 -32 -83 -40 0 -5 -16 -14 -35 -22 -19 -7 -36
-19 -39 -27 -3 -7 -15 -13 -26 -13 -11 0 -20 -7 -20 -15 0 -8 -6 -12 -13 -9
-8 3 -20 -2 -27 -11 -7 -8 -18 -15 -26 -15 -7 0 -17 -6 -21 -12 -8 -13 -28
-26 -88 -57 -16 -9 -33 -21 -38 -28 -4 -7 -14 -10 -22 -7 -8 4 -18 -1 -21 -10
-3 -9 -14 -16 -25 -16 -10 0 -22 -6 -26 -12 -10 -17 -49 -38 -68 -38 -8 0 -15
-5 -15 -10 0 -6 -11 -15 -25 -20 -14 -5 -25 -13 -25 -18 0 -5 -18 -15 -39 -22
-22 -7 -42 -19 -45 -26 -3 -8 -15 -14 -26 -14 -11 0 -20 -4 -20 -10 0 -5 -9
-10 -19 -10 -10 0 -21 -7 -25 -15 -3 -8 -13 -15 -21 -15 -9 0 -31 -11 -49 -25
-18 -14 -40 -25 -49 -25 -9 0 -19 -5 -22 -10 -3 -6 -26 -19 -50 -30 -24 -11
-47 -24 -50 -30 -3 -5 -15 -10 -26 -10 -11 0 -22 -7 -25 -15 -4 -8 -12 -15
-20 -15 -14 0 -47 -16 -74 -36 -8 -6 -32 -17 -52 -24 -21 -6 -38 -15 -38 -18
0 -4 -25 -18 -55 -32 -30 -14 -55 -28 -55 -32 0 -5 -11 -8 -24 -8 -14 0 -27
-4 -31 -9 -7 -13 -64 -41 -82 -41 -7 0 -13 -4 -13 -8 0 -4 -16 -14 -35 -21
-19 -7 -35 -17 -35 -22 0 -5 -6 -9 -13 -9 -7 0 -45 -16 -84 -35 -39 -19 -76
-35 -82 -35 -6 0 -11 -4 -11 -10 0 -5 -6 -10 -12 -10 -7 0 -42 -14 -78 -31
-113 -53 -163 -77 -215 -99 -27 -12 -58 -26 -67 -31 -10 -5 -22 -9 -28 -9 -6
0 -28 -11 -50 -25 -22 -14 -46 -25 -53 -25 -7 0 -38 -12 -68 -26 -98 -47 -134
-62 -174 -74 -22 -7 -44 -16 -50 -20 -5 -4 -30 -14 -55 -21 -25 -8 -69 -26
-99 -41 -30 -16 -62 -28 -70 -28 -9 0 -38 -12 -66 -25 -27 -14 -56 -25 -64
-25 -7 0 -34 -11 -60 -23 -26 -13 -63 -27 -84 -31 -20 -4 -37 -10 -37 -14 0
-4 -21 -13 -47 -20 -27 -7 -61 -19 -78 -26 -31 -13 -131 -49 -265 -93 -41 -13
-91 -31 -110 -38 -19 -7 -109 -37 -200 -65 -91 -29 -183 -58 -205 -65 -22 -7
-60 -18 -85 -25 -25 -7 -79 -24 -120 -37 -77 -25 -236 -70 -280 -79 -37 -7
-101 -25 -131 -36 -15 -5 -53 -15 -85 -23 -33 -7 -88 -20 -124 -30 -36 -9
-110 -27 -165 -40 -55 -13 -148 -35 -207 -50 -59 -14 -131 -30 -160 -35 -29
-5 -93 -19 -143 -29 -49 -11 -153 -32 -230 -46 -77 -15 -171 -33 -210 -40 -38
-8 -104 -19 -145 -25 -41 -6 -111 -18 -155 -26 -44 -7 -132 -21 -195 -29 -63
-9 -178 -25 -255 -37 -77 -11 -178 -24 -225 -28 -47 -4 -170 -17 -275 -29
-263 -29 -678 -58 -1005 -72 -314 -13 -1427 -6 -1660 11 -423 30 -668 50 -840
71 -41 5 -120 13 -175 19 -55 5 -158 18 -230 29 -71 11 -170 25 -220 31 -105
13 -502 77 -560 90 -22 5 -103 21 -180 35 -202 37 -562 116 -720 157 -44 11
-100 24 -125 29 -25 5 -63 13 -85 20 -22 6 -65 16 -96 24 -55 12 -112 29 -157
46 -13 5 -33 9 -45 9 -12 0 -39 6 -62 14 -22 8 -60 19 -85 26 -25 6 -88 25
-140 41 -52 15 -135 41 -185 55 -176 53 -666 214 -680 224 -5 3 -30 12 -55 19
-25 7 -57 19 -72 27 -14 8 -33 14 -42 14 -8 0 -40 11 -70 25 -30 14 -63 25
-72 25 -10 0 -25 6 -33 13 -9 7 -36 19 -61 26 -41 12 -88 31 -132 52 -10 5
-26 9 -35 9 -10 0 -27 7 -37 15 -11 8 -30 15 -43 15 -13 0 -23 6 -23 13 0 7
-23 18 -52 25 -28 6 -58 18 -67 25 -9 7 -38 19 -66 26 -27 7 -57 19 -66 27 -8
8 -25 14 -37 14 -11 0 -25 6 -29 13 -9 13 -69 37 -95 37 -9 0 -18 7 -22 15 -3
8 -17 15 -31 15 -14 0 -25 5 -25 10 0 6 -11 10 -25 10 -14 0 -25 4 -25 8 0 5
-18 14 -40 21 -22 6 -40 16 -40 21 0 6 -8 10 -18 10 -22 0 -79 27 -87 41 -4 5
-17 9 -30 9 -13 0 -27 5 -30 10 -3 6 -14 10 -25 10 -10 0 -20 7 -24 15 -3 8
-12 15 -20 15 -8 0 -36 11 -62 25 -26 14 -53 25 -59 25 -7 0 -18 6 -24 14 -7
8 -32 20 -56 27 -25 7 -45 17 -45 21 0 3 -16 12 -35 19 -19 7 -35 17 -35 21 0
4 -8 8 -17 9 -10 0 -31 9 -48 20 -16 10 -37 21 -45 25 -41 16 -146 70 -157 81
-7 6 -26 14 -43 18 -16 4 -30 10 -30 14 0 8 -70 41 -87 41 -6 0 -13 7 -17 15
-3 8 -14 15 -25 15 -10 0 -21 7 -25 15 -3 8 -13 15 -23 16 -10 0 -31 9 -48 20
-16 10 -42 24 -57 30 -16 6 -28 15 -28 21 0 5 -4 7 -9 4 -5 -3 -14 1 -21 9 -7
8 -21 15 -32 15 -10 0 -21 7 -24 15 -4 8 -15 15 -25 15 -10 0 -19 5 -19 10 0
6 -9 10 -20 10 -10 0 -23 6 -27 13 -4 7 -24 19 -43 27 -19 8 -41 20 -48 27 -7
7 -20 13 -28 13 -8 0 -14 7 -14 15 0 8 -7 15 -15 15 -19 0 -58 21 -68 38 -4 6
-16 12 -26 12 -11 0 -22 7 -25 16 -4 9 -13 14 -21 10 -9 -3 -18 1 -21 8 -3 8
-15 17 -27 20 -13 3 -32 13 -43 23 -25 23 -53 40 -81 52 -11 6 -24 14 -27 20
-4 6 -13 8 -21 4 -9 -3 -15 1 -15 11 0 9 -6 16 -14 16 -8 0 -21 6 -28 13 -7 7
-30 21 -50 30 -21 10 -38 21 -38 25 0 8 -62 37 -72 34 -5 -1 -8 4 -8 12 0 8
-11 17 -25 20 -14 4 -25 11 -25 16 0 6 -5 10 -10 10 -6 0 -21 9 -33 20 -12 12
-32 23 -44 26 -13 4 -23 12 -23 20 0 8 -7 14 -15 14 -9 0 -38 16 -66 35 -28
19 -55 35 -60 35 -5 0 -9 7 -9 15 0 8 -7 15 -15 15 -15 0 -107 59 -113 73 -2
4 -8 7 -13 7 -6 0 -20 9 -32 20 -12 12 -32 23 -44 26 -13 4 -23 12 -23 19 0 8
-16 19 -35 26 -19 7 -35 19 -35 26 0 7 -5 13 -11 13 -6 0 -24 11 -41 25 -16
14 -35 25 -41 25 -7 0 -18 9 -24 19 -7 11 -26 22 -43 26 -16 4 -30 11 -30 17
0 16 -47 52 -82 64 -10 4 -18 13 -18 20 0 8 -7 14 -15 14 -8 0 -15 5 -15 10 0
6 -8 10 -19 10 -10 0 -27 11 -37 25 -10 14 -24 25 -30 25 -7 0 -14 7 -18 15
-3 8 -15 15 -26 15 -11 0 -20 7 -20 15 0 8 -5 15 -11 15 -7 0 -22 11 -34 24
-12 13 -31 27 -42 30 -24 8 -73 51 -73 64 0 6 -10 12 -22 16 -13 3 -37 19 -55
36 -18 16 -36 30 -40 30 -5 0 -14 9 -21 20 -7 11 -19 20 -27 20 -8 0 -15 5
-15 10 0 6 -5 10 -11 10 -6 0 -25 16 -43 35 -19 19 -38 35 -44 35 -6 0 -29 18
-51 40 -22 22 -42 40 -45 40 -3 0 -16 10 -29 22 -13 13 -39 34 -56 47 -18 14
-53 44 -78 68 -26 24 -49 43 -52 43 -3 0 -25 18 -49 40 -23 22 -47 40 -52 40
-6 0 -10 7 -10 15 0 8 -5 15 -11 15 -7 0 -19 8 -28 18 -9 10 -29 28 -46 41
-16 12 -47 38 -67 57 -20 19 -42 34 -48 34 -5 0 -10 7 -10 15 0 8 -7 15 -16
15 -8 0 -13 4 -9 9 3 5 -8 18 -25 27 -16 10 -30 24 -30 30 0 7 -11 15 -25 18
-14 4 -25 13 -25 21 0 8 -4 15 -10 15 -5 0 -23 13 -40 30 -17 16 -35 30 -40
30 -6 0 -10 7 -10 15 0 8 -4 15 -10 15 -15 0 -50 33 -44 42 3 4 0 8 -7 8 -15
0 -719 702 -719 718 0 6 -5 12 -11 12 -14 0 -69 55 -69 69 0 6 -6 11 -14 11
-8 0 -17 11 -20 25 -4 14 -13 25 -21 25 -8 0 -19 10 -26 21 -6 12 -27 37 -45
56 -19 18 -41 45 -50 58 -9 14 -20 22 -25 19 -5 -3 -9 2 -9 10 0 9 -7 16 -15
16 -8 0 -15 6 -15 14 0 8 -3 16 -8 18 -4 1 -30 30 -57 63 -28 33 -58 67 -67
76 -10 9 -18 21 -18 28 0 6 -7 11 -15 11 -8 0 -15 5 -15 11 0 6 -18 28 -40 50
-22 22 -40 45 -40 51 0 6 -16 25 -35 44 -19 18 -35 35 -35 37 0 3 -16 23 -35
44 -68 76 -75 84 -75 90 0 3 -8 13 -18 22 -10 9 -29 32 -42 51 -13 19 -39 49
-57 67 -18 17 -33 36 -33 42 0 6 -4 11 -10 11 -5 0 -10 7 -10 15 0 8 -9 20
-20 27 -11 7 -20 16 -20 21 0 4 -11 20 -25 34 -13 15 -29 40 -36 55 -6 15 -18
28 -25 28 -8 0 -14 7 -14 15 0 8 -4 15 -10 15 -5 0 -24 23 -42 50 -18 28 -36
50 -40 50 -5 0 -8 7 -8 15 0 8 -5 15 -10 15 -6 0 -15 11 -20 25 -5 14 -14 25
-20 25 -5 0 -10 6 -10 13 0 7 -10 20 -23 30 -13 9 -29 33 -37 52 -8 19 -19 35
-26 35 -6 0 -14 8 -18 18 -8 23 -26 50 -58 87 -16 16 -28 36 -28 42 0 7 -9 18
-20 25 -11 7 -20 18 -20 24 0 6 -11 24 -25 40 -14 16 -25 35 -25 42 0 6 -4 12
-10 12 -5 0 -17 16 -26 35 -9 19 -22 35 -29 35 -7 0 -16 8 -19 18 -13 32 -31
62 -38 62 -5 0 -8 6 -8 14 0 8 -3 16 -7 18 -14 6 -73 98 -73 113 0 8 -6 15
-14 15 -8 0 -20 16 -26 36 -7 19 -18 38 -26 41 -7 3 -19 20 -26 39 -6 19 -18
34 -24 34 -7 0 -15 13 -19 28 -3 15 -15 34 -25 42 -11 8 -20 20 -20 27 0 7 -4
13 -10 13 -5 0 -12 11 -16 25 -3 14 -12 25 -20 25 -8 0 -11 6 -7 16 4 10 0 20
-10 26 -10 5 -17 16 -17 23 0 8 -4 15 -10 15 -5 0 -17 17 -27 37 -9 21 -23 44
-30 51 -7 7 -13 20 -13 28 0 8 -7 14 -16 14 -8 0 -12 5 -9 10 4 6 1 18 -6 27
-17 20 -37 54 -45 76 -3 9 -10 17 -14 17 -5 0 -18 20 -30 45 -12 25 -26 45
-31 45 -4 0 -6 7 -3 15 4 8 -1 17 -10 21 -9 3 -16 14 -16 25 0 10 -6 22 -12
26 -17 10 -38 49 -38 68 0 8 -7 15 -15 15 -8 0 -15 9 -15 20 0 10 -6 23 -14
27 -8 4 -14 10 -14 13 0 13 -28 66 -39 73 -7 4 -13 17 -13 27 0 11 -4 20 -10
20 -5 0 -10 9 -10 20 0 11 -7 23 -15 26 -8 4 -15 14 -15 24 0 11 -5 22 -11 26
-6 3 -19 25 -30 48 -10 22 -28 55 -38 71 -11 17 -20 38 -20 48 -1 10 -8 20
-16 23 -8 4 -15 15 -15 25 0 11 -7 22 -15 25 -8 4 -15 11 -15 17 0 17 -33 87
-41 87 -4 0 -10 14 -14 30 -4 17 -12 36 -18 43 -7 6 -27 44 -45 82 -18 39 -37
77 -42 85 -17 29 -210 426 -258 530 -11 25 -38 83 -59 130 -22 47 -52 117 -68
155 -28 71 -54 130 -100 229 -14 30 -25 61 -25 68 0 8 -6 22 -14 33 -7 11 -19
38 -25 60 -7 22 -25 67 -40 100 -15 33 -33 76 -40 95 -38 105 -55 149 -72 187
-10 23 -19 48 -19 55 0 7 -6 24 -13 38 -8 14 -27 66 -45 115 -17 50 -45 128
-62 175 -17 47 -51 146 -75 220 -24 74 -59 182 -78 240 -32 99 -49 155 -116
380 -56 188 -73 246 -81 285 -4 22 -17 69 -29 105 -11 36 -21 72 -21 81 0 9
-7 39 -15 65 -8 27 -31 117 -50 199 -20 83 -49 204 -64 270 -16 66 -32 138
-35 160 -4 22 -16 78 -26 125 -37 166 -70 341 -109 585 -11 66 -27 161 -35
210 -19 111 -73 500 -86 615 -5 47 -15 146 -24 220 -14 123 -29 303 -56 655
-30 394 -41 1357 -20 1850 13 295 52 816 81 1055 5 47 14 126 19 175 10 102
63 485 86 620 8 50 19 119 24 155 21 141 94 525 125 662 14 59 25 117 25 129
0 12 6 45 14 73 8 28 22 80 30 116 41 177 88 370 100 415 14 53 27 101 52 200
8 33 26 96 40 140 13 44 24 84 24 90 0 5 13 53 30 105 16 52 41 136 56 185 47
157 175 547 201 615 14 36 32 85 40 110 8 25 21 59 29 77 8 17 14 38 14 47 0
8 11 40 25 70 14 30 25 60 25 66 0 6 11 36 25 66 14 30 25 63 25 74 0 11 4 20
10 20 5 0 12 16 16 35 3 19 10 38 15 41 5 3 9 15 9 27 0 12 7 31 15 41 8 11
15 28 15 38 0 10 7 21 15 24 8 4 15 14 15 23 0 24 25 90 38 103 7 7 12 21 12
32 0 12 12 44 25 71 14 28 25 57 25 66 0 9 6 19 13 22 7 3 19 28 27 56 8 29
20 57 27 63 7 6 13 21 13 34 0 13 5 24 10 24 6 0 10 11 10 25 0 14 4 25 8 25
5 0 14 18 21 40 6 22 16 40 21 40 6 0 10 9 10 19 0 11 5 23 10 26 6 3 10 14
10 24 0 10 7 24 15 31 8 7 15 23 15 36 0 13 5 24 10 24 6 0 10 11 10 24 0 13
7 26 15 30 8 3 15 14 15 24 0 11 6 25 13 31 8 6 20 30 28 53 7 24 19 48 25 55
6 7 18 32 25 57 7 26 17 46 20 46 4 0 13 16 19 35 6 19 16 35 21 35 5 0 9 9 9
19 0 11 5 23 10 26 6 3 10 14 10 25 0 10 6 20 13 23 6 2 18 21 26 42 7 21 28
63 46 94 19 32 37 69 40 84 4 15 10 27 14 27 8 0 41 71 41 87 0 6 7 13 15 17
8 3 15 14 15 25 0 10 7 21 15 25 8 3 15 17 15 31 0 15 4 24 10 20 6 -3 10 3
10 13 0 11 6 25 14 31 8 7 17 23 20 36 4 14 11 25 17 25 6 0 8 4 5 9 -3 5 1
14 9 21 8 7 15 20 15 30 0 10 7 20 15 24 8 3 15 15 15 26 0 11 5 20 10 20 6 0
10 9 10 20 0 10 6 23 13 27 7 4 19 24 27 43 8 19 20 39 27 43 7 4 13 17 13 27
0 11 7 20 15 20 8 0 15 7 15 15 0 17 18 52 38 73 6 7 12 19 12 26 0 8 7 19 15
26 8 7 12 16 10 21 -3 4 0 11 7 16 7 4 22 25 32 46 11 20 23 37 28 37 4 0 8 9
8 20 0 10 6 23 13 27 17 11 48 69 40 77 -3 3 1 6 10 6 9 0 17 6 17 14 0 8 6
21 13 28 7 7 20 28 28 46 7 17 17 32 22 32 4 0 12 11 17 25 5 14 14 25 20 25
5 0 10 9 10 20 0 11 4 20 9 20 5 0 12 11 15 25 4 14 11 25 16 25 6 0 10 5 10
10 0 6 9 21 20 33 12 12 23 32 26 44 4 13 11 23 18 23 6 0 19 17 29 38 31 66
62 112 75 112 6 0 12 7 12 15 0 15 59 107 73 113 4 2 7 10 7 18 0 8 5 14 10
14 6 0 10 9 10 19 0 10 7 21 15 25 8 3 15 12 15 21 0 8 5 15 11 15 16 0 38 31
39 53 0 9 7 17 15 17 8 0 15 6 15 13 0 6 11 25 25 41 14 16 25 34 25 40 0 6 9
17 20 24 11 7 20 18 20 25 0 6 13 26 28 42 15 17 31 37 35 45 10 23 30 50 54
78 13 14 23 30 23 37 0 7 11 21 25 31 14 10 25 24 25 31 0 7 7 13 15 13 8 0
15 9 15 20 0 11 7 23 15 26 8 4 15 12 15 20 0 8 3 14 8 14 4 0 22 23 40 50 18
28 37 50 42 50 6 0 10 7 10 15 0 8 6 15 14 15 8 0 16 10 20 23 3 12 19 36 36
54 16 18 30 36 30 40 0 5 9 15 20 23 11 8 20 20 20 27 0 7 5 13 10 13 6 0 10
5 10 11 0 14 25 39 39 39 6 0 11 7 11 15 0 8 5 15 10 15 6 0 10 6 10 13 0 6
18 31 40 55 22 23 40 45 40 48 0 4 9 16 20 28 47 49 90 98 90 103 0 3 16 21
35 40 19 19 35 40 35 48 0 7 9 17 20 20 11 3 20 12 20 18 0 7 9 19 20 27 11 8
20 18 20 23 0 4 15 22 33 40 17 18 48 53 68 78 20 24 53 61 73 82 20 21 36 43
36 48 0 6 4 8 9 4 5 -3 18 8 27 25 10 16 24 30 31 30 7 0 13 7 13 15 0 8 11
22 25 31 14 9 25 22 25 29 0 7 11 20 25 29 14 9 25 23 25 31 0 8 6 15 13 15 7
0 21 14 31 30 9 17 22 28 27 25 5 -4 9 -1 9 6 0 16 701 719 718 719 6 0 12 7
12 15 0 8 7 15 16 15 8 0 13 4 9 9 -3 5 8 18 25 27 16 10 30 24 30 31 0 7 7
13 15 13 8 0 22 11 31 25 9 14 22 25 29 25 7 0 20 11 29 25 9 14 23 25 31 25
8 0 15 7 15 15 0 8 14 22 30 30 17 9 28 20 25 25 -4 6 1 10 9 10 9 0 16 7 16
15 0 8 5 15 11 15 5 0 30 19 54 41 25 23 55 49 67 57 13 9 29 24 36 34 7 10
20 18 28 18 8 0 14 7 14 15 0 8 7 15 15 15 8 0 15 4 15 8 0 5 11 15 25 22 13
7 27 21 31 32 3 10 12 18 19 18 8 0 29 16 48 35 19 19 39 35 46 35 6 0 11 7
11 15 0 8 4 15 8 15 10 0 48 29 77 58 12 12 25 22 29 22 3 0 25 18 48 40 24
22 49 40 55 40 7 0 13 5 13 10 0 6 7 10 15 10 8 0 15 5 15 11 0 14 25 39 39
39 6 0 11 5 11 10 0 6 6 10 13 10 7 0 19 9 27 20 8 11 18 20 23 20 4 0 22 14
40 30 18 17 42 33 55 36 12 4 22 12 22 20 0 8 7 14 15 14 8 0 15 6 15 14 0 7
13 19 28 25 15 7 40 23 55 36 14 14 30 25 35 25 6 0 12 7 16 15 3 8 15 15 26
15 11 0 20 7 20 15 0 8 6 15 13 15 7 0 20 10 30 23 9 13 33 29 52 37 19 8 35
19 35 26 0 6 8 14 18 18 25 8 54 28 77 53 11 12 35 27 53 34 17 6 32 17 32 25
0 8 6 14 13 14 8 0 27 11 43 25 16 14 35 25 42 25 6 0 12 6 12 13 0 7 16 19
35 26 19 7 35 18 35 24 0 7 18 21 40 31 22 11 40 23 40 28 0 4 7 8 15 8 8 0
15 4 15 9 0 5 10 13 22 17 12 3 33 17 47 30 14 13 34 24 43 24 10 0 18 6 18
13 0 14 40 37 65 37 8 0 15 5 15 11 0 16 31 38 53 39 9 0 17 6 17 14 0 8 10
16 23 20 12 3 32 14 44 26 12 11 27 20 33 20 5 0 10 4 10 10 0 5 11 12 25 16
14 3 25 12 25 20 0 7 6 11 13 8 8 -3 20 2 27 11 7 8 18 15 26 15 7 0 17 6 21
13 4 6 22 19 38 27 17 8 36 21 43 28 7 6 20 12 28 12 8 0 14 6 14 14 0 9 7 12
20 9 12 -3 22 1 26 11 3 9 13 16 20 16 8 0 17 7 20 15 4 8 15 15 25 15 10 0
19 4 19 8 0 5 17 17 38 28 20 10 40 24 45 31 4 7 14 10 22 7 8 -4 18 1 21 10
3 9 14 16 25 16 10 0 22 6 26 13 10 16 49 37 68 37 8 0 15 5 15 10 0 6 11 15
25 20 14 5 25 13 25 18 0 5 18 15 40 22 22 7 40 19 40 27 0 7 11 13 25 13 14
0 25 5 25 10 0 6 9 10 20 10 11 0 23 7 26 15 4 8 14 15 24 15 10 0 23 7 30 15
7 8 16 13 20 10 4 -3 10 2 14 10 3 8 14 15 24 15 11 0 25 7 32 15 7 8 21 15
32 15 10 0 16 5 13 10 -4 6 7 10 24 10 21 0 31 5 31 15 0 8 9 15 20 15 11 0
23 7 26 15 4 8 11 15 17 15 17 0 87 33 87 41 0 4 14 10 30 14 17 4 36 12 43
18 11 11 116 65 157 81 8 4 29 15 45 25 17 11 38 20 48 20 9 1 17 5 17 9 0 4
16 14 35 21 19 7 35 17 35 22 0 5 7 9 15 9 8 0 23 4 33 9 9 5 24 12 32 15 8 3
22 10 30 14 63 35 122 62 135 62 9 0 18 7 21 15 4 8 14 15 24 15 11 0 22 5 25
10 3 6 17 10 29 10 13 0 29 7 36 15 7 8 21 15 31 15 11 0 19 5 19 10 0 6 11
10 25 10 14 0 25 4 25 10 0 5 18 15 40 21 22 7 40 16 40 21 0 4 11 8 25 8 14
0 25 5 25 10 0 6 11 10 24 10 13 0 26 7 30 15 3 8 13 15 22 15 27 0 88 24 97
37 4 7 18 13 29 13 12 0 29 6 37 14 9 8 39 21 66 28 28 7 53 18 57 24 4 6 35
17 68 25 35 8 60 18 60 26 0 7 10 13 23 13 13 0 32 7 43 15 10 8 29 15 41 15
12 0 24 4 27 9 3 5 22 12 41 15 19 4 35 11 35 16 0 6 8 10 18 10 22 0 86 23
103 37 8 5 31 13 52 17 20 4 37 10 37 14 0 4 21 13 48 20 26 7 61 19 77 27 17
7 57 22 90 33 85 28 331 111 390 132 97 34 220 73 255 81 38 8 95 27 122 40
10 5 25 9 35 9 9 0 58 13 108 29 49 16 110 35 135 41 25 7 65 18 90 26 25 7
74 21 110 30 36 9 97 24 135 34 112 29 193 49 300 75 55 13 138 33 185 44 122
29 366 82 425 91 28 5 73 14 100 19 28 6 100 20 160 31 61 10 151 26 200 35
211 37 273 46 510 80 138 20 295 40 350 46 55 5 132 14 170 18 134 18 831 72
1025 80 285 12 1215 12 1505 1z"/>
<path d="M19035 28139 c-33 -4 -85 -12 -115 -18 -30 -6 -73 -14 -95 -17 -22
-3 -53 -12 -70 -19 -16 -7 -50 -19 -75 -25 -25 -7 -57 -18 -72 -26 -14 -8 -33
-14 -42 -14 -9 0 -19 -7 -22 -15 -4 -8 -15 -15 -25 -15 -23 0 -134 -56 -172
-87 -16 -13 -35 -23 -43 -23 -8 0 -14 -4 -14 -10 0 -5 -5 -10 -11 -10 -7 0
-19 -8 -28 -17 -19 -21 -49 -41 -73 -49 -10 -4 -18 -13 -18 -20 0 -8 -7 -14
-15 -14 -8 0 -15 -7 -15 -15 0 -8 -4 -15 -9 -15 -11 0 -171 -158 -171 -169 0
-4 -11 -17 -25 -29 -14 -12 -25 -27 -25 -34 0 -7 -10 -22 -22 -33 -23 -20 -42
-47 -55 -75 -3 -8 -12 -18 -19 -23 -7 -4 -11 -14 -8 -22 4 -8 -1 -18 -10 -21
-9 -3 -16 -14 -16 -24 0 -10 -6 -23 -13 -29 -8 -6 -20 -30 -28 -53 -7 -24 -19
-47 -25 -53 -6 -5 -15 -26 -18 -45 -3 -20 -15 -52 -26 -73 -11 -20 -20 -52
-20 -70 0 -18 -6 -41 -14 -52 -16 -24 -21 -54 -42 -250 -14 -127 -15 -171 -5
-285 15 -170 17 -183 36 -250 9 -30 20 -75 26 -99 5 -25 14 -48 21 -52 6 -4 8
-14 5 -23 -4 -9 -2 -16 3 -16 5 0 15 -20 21 -45 6 -25 15 -45 20 -45 5 0 9 -9
9 -19 0 -11 5 -23 10 -26 6 -3 10 -15 10 -26 0 -11 6 -22 14 -25 8 -3 18 -19
21 -35 4 -16 11 -29 17 -29 6 0 9 -3 5 -6 -6 -6 0 -15 33 -53 8 -9 22 -30 30
-46 8 -17 21 -34 27 -38 7 -4 13 -13 13 -20 0 -7 9 -18 20 -25 11 -7 20 -18
20 -25 0 -7 14 -26 30 -42 17 -16 30 -35 30 -42 0 -7 6 -13 13 -13 6 0 38 -27
71 -60 32 -33 62 -57 67 -54 5 3 9 0 9 -6 0 -6 11 -16 25 -22 14 -6 25 -17 25
-25 0 -7 5 -13 11 -13 6 0 25 -11 43 -25 18 -14 38 -25 44 -25 7 0 12 -7 12
-15 0 -9 9 -15 25 -15 14 0 25 -4 25 -9 0 -5 20 -19 45 -31 25 -12 47 -25 49
-29 3 -4 24 -14 48 -21 24 -7 49 -18 57 -24 19 -15 82 -36 108 -36 12 0 24 -4
28 -9 3 -5 30 -15 60 -22 30 -7 55 -15 55 -19 0 -4 26 -10 58 -13 31 -4 91
-11 132 -16 94 -13 283 -13 375 -1 39 5 95 12 125 15 30 4 69 13 87 21 17 8
40 14 50 14 11 0 28 7 39 15 10 8 28 15 39 15 24 0 87 22 106 36 8 5 32 16 54
23 22 8 42 17 45 21 3 3 26 17 53 29 26 13 47 27 47 32 0 5 11 9 25 9 16 0 25
6 25 15 0 8 7 15 15 15 8 0 15 3 15 8 0 7 30 25 63 38 9 3 17 11 17 18 0 6 19
22 41 36 46 29 163 139 172 163 3 9 13 17 22 17 8 0 21 16 29 35 8 19 22 38
31 41 8 3 15 13 15 20 0 8 6 17 14 20 8 3 20 20 27 37 7 17 20 39 29 48 23 26
36 43 37 49 4 20 30 66 40 73 7 4 13 17 13 27 0 10 5 22 10 25 6 3 10 15 10
26 0 10 4 19 10 19 5 0 12 16 16 35 3 19 12 39 19 45 8 6 11 18 8 26 -3 8 -1
20 5 27 9 11 29 77 53 172 5 22 16 103 25 180 12 116 13 168 3 300 -6 88 -15
170 -20 183 -5 13 -9 36 -9 52 0 16 -4 31 -9 35 -6 3 -13 27 -17 53 -4 26 -15
63 -25 82 -11 19 -22 50 -25 70 -3 19 -11 40 -18 45 -6 6 -17 28 -25 50 -7 22
-26 58 -40 80 -15 22 -35 57 -45 78 -16 35 -27 51 -61 91 -5 6 -21 27 -35 46
-51 73 -290 310 -312 310 -7 0 -16 7 -70 53 -12 9 -27 17 -33 17 -7 0 -18 6
-24 14 -6 7 -60 37 -119 66 -136 67 -157 76 -212 90 -25 6 -58 18 -75 25 -16
7 -48 16 -70 19 -22 3 -62 11 -90 16 -138 28 -322 36 -450 19z"/>
<path d="M19015 22844 c-102 -16 -205 -45 -282 -80 -28 -13 -58 -24 -67 -24
-8 0 -21 -6 -28 -13 -7 -7 -28 -20 -45 -28 -18 -7 -33 -17 -33 -22 0 -4 -11
-12 -25 -17 -14 -5 -25 -14 -25 -20 0 -5 -6 -10 -14 -10 -31 0 -286 -250 -286
-280 0 -5 -11 -22 -25 -39 -29 -34 -125 -217 -125 -237 0 -8 -4 -22 -10 -32
-5 -9 -17 -44 -26 -77 -46 -168 -44 115 -44 -6003 0 -3964 3 -5794 11 -5860
10 -93 43 -227 61 -247 4 -5 8 -15 8 -23 0 -13 40 -108 63 -147 6 -11 18 -34
27 -51 9 -17 26 -44 38 -59 12 -15 22 -31 22 -36 0 -4 12 -20 28 -36 15 -16
39 -42 53 -58 35 -41 138 -135 147 -135 4 0 16 -11 26 -25 10 -14 24 -25 31
-25 7 0 24 -11 39 -25 15 -14 33 -25 41 -25 8 0 17 -5 20 -11 9 -13 170 -89
191 -89 8 0 24 -5 35 -11 85 -45 357 -70 539 -50 98 11 208 36 224 52 6 5 20
9 32 9 13 0 26 4 29 10 3 6 13 10 22 10 9 0 24 6 32 13 9 7 35 19 58 27 23 7
44 19 47 26 3 8 12 14 21 14 9 0 28 11 43 25 15 14 35 25 44 25 10 0 18 7 18
15 0 8 3 15 8 15 18 0 209 186 218 212 3 10 12 18 20 18 8 0 14 8 14 18 0 10
11 29 25 42 14 13 25 29 25 36 0 7 6 19 13 26 6 7 17 24 24 38 45 97 63 141
63 155 0 9 7 23 15 31 8 9 15 25 15 36 0 11 6 34 14 51 8 18 19 82 25 142 15
152 16 11559 0 11707 -5 57 -14 110 -18 118 -4 8 -14 39 -20 68 -7 28 -17 52
-22 52 -5 0 -9 10 -9 22 0 27 -83 198 -114 235 -13 15 -26 38 -30 51 -4 12
-14 22 -22 22 -8 0 -14 6 -14 14 0 7 -37 51 -82 98 -108 110 -169 161 -210
174 -10 4 -18 10 -18 15 0 4 -17 16 -37 26 -21 9 -44 23 -51 30 -7 7 -20 13
-29 13 -8 0 -37 11 -65 25 -27 14 -57 25 -66 25 -9 0 -29 6 -43 14 -25 13 -63
24 -104 31 -159 28 -299 31 -440 9z"/>
</g>
</svg>
