<?xml version="1.0" standalone="no"?>
<!DOCTYPE svg PUBLIC "-//W3C//DTD SVG 20010904//EN"
 "http://www.w3.org/TR/2001/REC-SVG-20010904/DTD/svg10.dtd">
<svg version="1.0" xmlns="http://www.w3.org/2000/svg"
 width="3840.000000pt" height="3414.000000pt" viewBox="0 0 3840.000000 3414.000000"
 preserveAspectRatio="xMidYMid meet">
<metadata>
Created by potrace 1.16, written by Peter Selinger 2001-2019
</metadata>
<g transform="translate(0.000000,3414.000000) scale(0.100000,-0.100000)"
fill="#000000" stroke="none">
<path d="M6250 29810 c-323 -44 -607 -172 -870 -390 -63 -52 -206 -159 -330
-246 -806 -567 -1796 -993 -2865 -1235 -142 -32 -455 -94 -550 -109 -111 -17
-480 -68 -535 -75 -213 -24 -362 -69 -514 -157 -234 -133 -398 -342 -483 -613
l-28 -90 -3 -690 c-3 -741 -2 -752 50 -915 25 -79 84 -200 133 -274 85 -128
254 -280 385 -346 132 -66 302 -109 432 -110 117 0 642 57 918 100 230 36 578
100 710 130 47 10 121 26 165 36 44 9 132 30 195 47 63 16 133 33 155 37 147
30 956 277 1050 320 11 5 52 20 90 34 39 13 95 34 125 46 30 12 84 32 120 45
36 13 88 33 115 45 28 12 59 25 70 29 11 5 31 13 45 19 14 6 79 34 145 62 155
67 151 65 345 155 206 96 625 312 690 355 14 9 61 36 105 60 102 54 185 103
257 151 31 22 64 39 73 39 8 0 44 -17 78 -38 143 -89 287 -172 357 -207 41
-21 86 -45 100 -55 33 -23 301 -160 475 -242 241 -114 430 -195 815 -345 57
-22 302 -110 415 -148 133 -45 459 -143 595 -180 36 -10 85 -23 110 -31 78
-22 342 -87 525 -128 305 -69 800 -157 1040 -186 50 -6 99 -13 110 -16 32 -7
373 -44 560 -60 613 -52 1269 -66 1780 -40 358 19 657 40 835 61 69 8 152 17
185 21 237 23 772 108 1045 165 52 11 118 24 145 29 52 9 108 21 315 71 221
54 404 100 445 114 22 7 76 23 120 35 127 36 276 81 330 101 28 9 100 34 160
53 61 20 155 52 210 72 55 19 123 44 150 54 28 10 109 41 180 70 72 29 147 59
169 66 222 83 1038 480 1158 565 14 11 29 19 33 19 3 0 73 41 154 90 82 50
154 90 161 90 12 0 136 -71 293 -167 49 -30 98 -58 110 -62 12 -5 90 -46 172
-92 444 -247 1224 -577 1760 -744 66 -21 145 -46 175 -55 90 -30 355 -105 500
-143 118 -30 203 -51 465 -112 214 -50 686 -136 930 -170 66 -9 149 -21 185
-26 98 -16 393 -48 595 -64 552 -46 885 -59 1344 -52 903 14 1701 97 2516 263
192 39 262 54 435 94 19 5 64 15 100 23 94 22 242 62 415 112 50 14 108 30
131 35 22 5 51 13 65 19 13 5 98 33 189 61 91 29 197 63 235 77 179 65 262 95
285 102 34 11 377 148 415 166 17 7 124 54 238 104 196 86 655 313 777 386
317 188 403 238 418 242 10 2 91 -40 192 -100 544 -323 1080 -585 1670 -814
63 -24 133 -51 155 -60 186 -72 643 -223 875 -288 69 -20 164 -47 211 -60 47
-14 106 -29 130 -34 24 -5 98 -23 164 -39 108 -28 158 -39 375 -87 36 -8 101
-21 145 -29 44 -9 114 -22 155 -30 41 -8 118 -21 170 -30 52 -9 138 -23 190
-32 52 -9 127 -20 165 -24 39 -5 160 -20 270 -33 502 -63 627 -59 855 25 150
56 324 193 445 353 56 73 139 239 161 320 49 181 46 148 51 807 3 393 0 661
-6 719 -34 307 -201 581 -452 745 -136 89 -361 162 -549 180 -36 3 -157 19
-270 36 -113 16 -232 33 -265 38 -123 17 -583 113 -720 150 -38 10 -99 26
-135 35 -36 9 -78 20 -95 25 -86 24 -219 64 -290 87 -44 14 -93 29 -110 34
-25 6 -160 53 -345 120 -307 111 -820 343 -1053 477 -59 34 -110 62 -113 62
-8 0 -268 156 -379 228 -154 99 -337 230 -480 342 -328 256 -514 346 -850 411
-104 21 -415 18 -532 -4 -262 -50 -512 -159 -703 -308 -595 -465 -1015 -724
-1625 -1001 -194 -88 -237 -106 -435 -183 -326 -128 -857 -292 -1115 -345 -22
-5 -80 -18 -130 -30 -382 -90 -858 -162 -1325 -200 -932 -76 -1915 -8 -2785
190 -44 10 -116 26 -159 35 -44 9 -82 18 -85 20 -4 2 -79 22 -166 45 -88 22
-178 47 -200 55 -22 7 -94 30 -160 50 -66 20 -165 52 -220 72 -240 84 -273 96
-335 120 -36 14 -92 36 -125 50 -33 14 -78 32 -100 41 -183 72 -598 274 -839
408 -282 157 -602 370 -908 604 -189 145 -296 212 -428 268 -200 85 -363 121
-580 129 -394 14 -753 -104 -1064 -351 -129 -102 -301 -230 -444 -331 -201
-142 -606 -382 -862 -510 -489 -245 -1087 -471 -1585 -600 -77 -20 -160 -42
-185 -49 -25 -8 -83 -22 -130 -31 -47 -10 -130 -28 -185 -41 -88 -20 -212 -43
-395 -75 -710 -123 -1622 -161 -2345 -98 -416 36 -731 80 -1090 155 -240 49
-380 81 -480 109 -49 13 -117 31 -150 39 -33 8 -127 36 -210 62 -82 26 -170
52 -195 59 -141 40 -616 220 -815 309 -33 15 -69 31 -80 36 -92 40 -442 215
-530 265 -60 34 -141 79 -180 100 -189 103 -494 308 -770 516 -121 91 -247
182 -279 203 -151 97 -340 169 -556 212 -89 18 -386 27 -480 14z"/>
<path d="M19080 19718 c-320 -23 -634 -146 -885 -348 -540 -434 -1096 -765
-1780 -1060 -236 -102 -652 -252 -860 -310 -16 -5 -61 -18 -100 -30 -144 -43
-524 -137 -695 -172 -613 -123 -1318 -196 -1920 -198 -365 -1 -897 37 -1290
92 -242 33 -323 46 -370 57 -25 5 -97 20 -160 31 -180 33 -535 117 -720 170
-293 85 -705 223 -865 291 -11 5 -69 28 -130 53 -171 68 -316 134 -530 239
-428 211 -802 444 -1210 753 -276 209 -353 257 -516 322 -191 76 -324 103
-551 109 -264 8 -426 -21 -683 -121 -79 -30 -247 -129 -335 -196 -525 -402
-704 -523 -1122 -756 -100 -55 -387 -199 -458 -229 -35 -15 -92 -40 -125 -55
-405 -189 -1131 -425 -1635 -531 -188 -40 -446 -89 -515 -99 -38 -5 -131 -18
-205 -29 -74 -11 -166 -23 -205 -26 -142 -13 -367 -56 -444 -85 -374 -138
-626 -434 -691 -814 -7 -40 -10 -297 -8 -741 l3 -680 28 -100 c116 -426 456
-730 877 -785 84 -10 122 -9 315 9 604 59 1159 152 1745 292 185 44 203 49
452 119 429 120 871 271 1243 423 166 68 176 72 375 160 223 98 711 343 908
455 78 45 144 82 146 82 8 0 171 99 213 129 23 17 52 31 64 31 20 0 91 -39
311 -172 54 -32 100 -58 104 -58 4 0 71 -36 149 -80 534 -300 1435 -664 2120
-857 50 -14 144 -41 210 -60 255 -73 810 -197 1110 -248 55 -9 120 -21 145
-26 72 -15 441 -67 631 -89 886 -104 1843 -122 2699 -50 257 22 462 43 640 66
171 22 449 63 500 73 25 5 90 17 145 26 339 57 916 188 1170 266 33 10 94 27
135 38 150 39 695 218 820 269 14 5 54 21 90 35 36 14 119 47 185 73 356 139
1052 474 1267 610 21 13 40 24 42 24 2 0 63 36 134 80 72 44 140 80 152 80 20
0 90 -39 280 -155 47 -29 113 -66 147 -82 34 -17 89 -47 122 -68 74 -44 489
-247 696 -340 273 -122 729 -299 995 -385 340 -110 415 -133 665 -201 171 -46
525 -131 685 -164 96 -20 204 -42 240 -50 160 -35 642 -108 1025 -155 150 -18
669 -59 905 -71 615 -31 1573 1 2140 71 403 50 584 76 865 125 350 61 876 180
1165 265 36 10 92 26 125 35 74 21 294 88 395 121 197 64 544 190 660 239 30
13 97 40 149 60 362 142 927 425 1322 661 86 52 166 94 177 94 12 0 41 -13 64
-29 139 -93 562 -327 858 -473 406 -200 708 -330 1125 -486 65 -24 375 -131
440 -152 219 -70 322 -102 405 -124 52 -15 151 -42 220 -61 170 -47 546 -137
680 -162 14 -3 102 -20 195 -38 376 -73 803 -134 1200 -170 311 -28 529 27
750 190 167 124 329 353 380 540 49 179 48 157 52 809 3 401 0 655 -7 720 -40
381 -279 700 -623 832 -50 20 -101 40 -112 45 -30 14 -172 37 -355 59 -91 11
-206 27 -256 36 -50 8 -122 19 -160 23 -134 16 -608 117 -805 171 -59 17 -113
30 -122 30 -8 0 -63 15 -123 34 -60 19 -136 42 -169 51 -33 9 -82 25 -110 34
-27 10 -95 33 -150 50 -170 56 -335 118 -565 214 -654 272 -1231 607 -1755
1018 -105 82 -258 185 -330 222 -218 110 -464 167 -721 168 -308 0 -574 -72
-834 -227 -78 -46 -92 -56 -362 -264 -665 -513 -1504 -936 -2398 -1211 -238
-73 -571 -162 -708 -189 -26 -5 -78 -16 -117 -25 -229 -51 -638 -115 -955
-150 -236 -26 -767 -54 -1010 -54 -499 0 -1178 62 -1655 150 -259 48 -329 64
-580 126 -99 25 -191 47 -205 50 -53 11 -512 154 -660 206 -193 68 -503 191
-635 252 -55 26 -116 53 -135 62 -94 42 -409 203 -520 266 -321 180 -606 369
-890 587 -204 157 -283 209 -418 272 -248 117 -518 166 -802 146z"/>
<path d="M6210 9564 c-52 -8 -143 -28 -203 -44 -246 -70 -381 -145 -672 -374
-313 -245 -702 -499 -1020 -666 -66 -34 -124 -66 -130 -70 -13 -10 -324 -157
-445 -211 -366 -162 -906 -344 -1365 -457 -396 -98 -746 -161 -1215 -217 -140
-17 -324 -51 -350 -65 -8 -5 -42 -18 -75 -29 -82 -29 -231 -120 -315 -193
-148 -127 -257 -297 -314 -488 l-31 -105 -3 -684 c-3 -763 -3 -770 65 -951 56
-148 133 -269 243 -380 52 -53 122 -113 155 -135 217 -142 454 -197 711 -165
70 9 144 17 439 50 88 10 329 44 415 59 30 6 98 17 150 26 310 53 872 176
1070 234 36 10 119 33 185 51 225 60 654 200 905 295 69 26 152 58 185 70 131
49 458 187 646 273 337 155 960 490 1146 617 46 31 63 31 111 2 401 -252 1168
-636 1522 -763 41 -14 116 -44 165 -65 208 -88 772 -275 1020 -339 66 -17 130
-35 143 -40 33 -14 492 -129 597 -149 28 -6 104 -22 170 -36 113 -24 180 -36
465 -86 190 -33 609 -90 800 -110 234 -23 309 -29 625 -50 646 -42 1531 -25
2170 41 412 43 543 61 1190 170 107 18 384 80 765 171 358 86 935 270 1329
424 208 81 449 180 516 213 33 16 112 53 175 82 128 59 517 257 625 317 123
70 308 179 359 211 28 18 57 32 65 32 9 0 88 -43 176 -96 363 -218 897 -485
1310 -654 154 -62 435 -171 515 -199 47 -16 130 -45 185 -64 152 -54 437 -142
555 -172 58 -15 141 -38 184 -51 103 -32 454 -117 646 -157 41 -9 118 -25 170
-36 332 -69 828 -143 1245 -186 83 -8 170 -17 195 -20 145 -17 745 -46 1026
-50 430 -6 1063 18 1424 54 499 51 1024 125 1345 192 28 6 115 24 195 40 135
28 323 71 450 104 30 8 87 22 125 31 39 9 115 30 170 46 55 16 125 36 155 44
106 28 468 145 645 209 55 20 114 40 130 45 17 4 48 16 70 25 22 10 85 35 140
55 291 109 668 281 1105 506 114 58 514 288 549 315 13 11 32 19 42 19 10 0
76 -35 146 -77 324 -195 828 -459 1148 -601 133 -59 536 -229 575 -242 14 -5
95 -35 180 -67 293 -110 667 -229 1095 -347 146 -41 656 -159 755 -176 30 -5
114 -20 185 -35 72 -14 157 -30 190 -34 33 -5 152 -22 265 -39 113 -17 266
-37 340 -46 74 -9 196 -23 270 -32 378 -46 660 44 906 290 164 164 252 333
305 586 11 51 14 208 14 745 l0 680 -28 100 c-55 193 -139 340 -270 468 -116
112 -237 189 -382 241 -134 47 -143 49 -620 112 -192 25 -427 67 -625 111 -63
14 -135 29 -160 33 -61 9 -320 76 -465 120 -33 10 -96 28 -140 40 -90 26 -334
106 -440 146 -38 14 -88 31 -110 38 -22 7 -65 23 -95 36 -30 12 -91 37 -135
55 -44 18 -105 43 -135 55 -130 53 -538 249 -668 322 -57 32 -107 58 -109 58
-8 0 -312 183 -423 255 -155 100 -327 224 -483 347 -225 177 -379 266 -572
329 -350 114 -754 103 -1095 -29 -172 -67 -281 -137 -610 -391 -232 -180 -640
-444 -905 -586 -560 -300 -1091 -511 -1757 -699 -478 -135 -1051 -238 -1643
-296 -659 -64 -1496 -45 -2150 49 -77 11 -156 22 -175 24 -164 19 -765 147
-990 212 -25 7 -81 23 -125 35 -250 71 -562 176 -755 253 -330 131 -473 194
-745 329 -454 224 -838 465 -1242 777 -168 131 -272 198 -388 251 -120 55
-151 66 -255 94 -417 113 -887 51 -1240 -162 -80 -49 -122 -79 -349 -254 -236
-182 -483 -347 -801 -535 -99 -58 -454 -241 -585 -300 -256 -117 -316 -143
-380 -166 -38 -13 -137 -50 -220 -80 -259 -96 -563 -194 -715 -231 -14 -4
-101 -26 -195 -50 -393 -101 -921 -195 -1285 -230 -30 -3 -102 -10 -160 -16
-304 -30 -584 -40 -965 -35 -442 5 -759 27 -1160 80 -185 25 -242 34 -470 76
-325 60 -682 148 -1020 251 -130 39 -214 67 -355 118 -63 23 -130 46 -149 52
-19 5 -84 32 -145 58 -61 26 -133 55 -160 64 -27 9 -107 43 -177 76 -71 33
-132 60 -136 60 -12 0 -391 194 -523 268 -303 169 -621 379 -890 587 -292 227
-453 312 -714 380 -168 44 -436 56 -626 29z"/>
</g>
</svg>
