<?xml version="1.0" standalone="no"?>
<!DOCTYPE svg PUBLIC "-//W3C//DTD SVG 20010904//EN"
 "http://www.w3.org/TR/2001/REC-SVG-20010904/DTD/svg10.dtd">
<svg version="1.0" xmlns="http://www.w3.org/2000/svg"
 width="3840.000000pt" height="3840.000000pt" viewBox="0 0 3840.000000 3840.000000"
 preserveAspectRatio="xMidYMid meet">
<metadata>
Created by potrace 1.16, written by Peter Selinger 2001-2019
</metadata>
<g transform="translate(0.000000,3840.000000) scale(0.100000,-0.100000)"
fill="#000000" stroke="none">
<path d="M24825 38319 c-268 -8 -834 -45 -1020 -68 -363 -44 -592 -75 -710
-96 -77 -13 -234 -41 -350 -60 -115 -20 -284 -54 -375 -76 -187 -45 -255 -60
-390 -90 -52 -11 -144 -35 -205 -54 -60 -18 -180 -52 -265 -75 -141 -38 -448
-136 -610 -194 -36 -13 -96 -34 -135 -46 -265 -83 -1105 -442 -1440 -616 -82
-42 -215 -110 -294 -151 -79 -40 -180 -95 -225 -122 -44 -26 -155 -90 -246
-142 -91 -51 -242 -143 -337 -203 -94 -61 -221 -142 -283 -181 -61 -38 -163
-108 -228 -155 -64 -47 -187 -135 -272 -195 -85 -60 -200 -146 -255 -191 -55
-44 -161 -127 -235 -184 -74 -57 -137 -106 -140 -109 -3 -4 -36 -33 -75 -66
-38 -33 -77 -67 -85 -75 -8 -9 -53 -48 -100 -87 -317 -265 -929 -871 -1215
-1202 -232 -269 -302 -352 -364 -430 -36 -46 -121 -153 -188 -237 -67 -85
-153 -198 -191 -251 -38 -54 -127 -180 -199 -279 -71 -100 -157 -226 -191
-280 -34 -55 -105 -164 -157 -244 -96 -149 -343 -569 -448 -765 -106 -197
-314 -617 -372 -750 -31 -71 -78 -177 -105 -235 -114 -248 -360 -890 -420
-1095 -5 -16 -20 -64 -35 -105 -29 -82 -61 -185 -75 -240 -4 -19 -27 -98 -50
-175 -23 -77 -50 -174 -62 -215 -59 -218 -69 -259 -77 -300 -5 -25 -19 -88
-31 -140 -42 -187 -49 -216 -70 -308 -26 -119 -109 -583 -120 -682 -5 -41 -16
-124 -25 -185 -45 -325 -57 -438 -80 -730 -60 -750 -56 -1555 10 -2265 26
-280 35 -359 61 -535 14 -93 29 -207 35 -252 5 -46 21 -145 35 -220 14 -76 32
-176 40 -222 8 -46 26 -136 40 -200 14 -64 30 -138 34 -165 5 -26 13 -62 19
-80 5 -17 19 -76 31 -131 20 -94 36 -153 74 -285 8 -30 29 -109 46 -175 17
-66 53 -185 80 -265 99 -296 114 -351 104 -376 -5 -14 -2716 -2732 -6025
-6042 -3309 -3309 -6034 -6039 -6055 -6067 -22 -27 -62 -81 -89 -120 -27 -38
-53 -71 -57 -73 -4 -2 -8 -8 -8 -13 0 -6 -18 -36 -39 -68 -41 -60 -178 -344
-192 -396 -8 -31 -16 -56 -44 -140 -10 -27 -21 -68 -25 -90 -4 -22 -14 -67
-23 -100 -9 -33 -24 -118 -34 -190 -17 -123 -18 -320 -18 -3910 l0 -3780 4255
0 4255 0 95 22 c91 20 175 47 250 80 58 25 105 48 110 53 3 3 17 11 32 19 15
8 36 22 46 31 10 10 29 23 41 30 58 30 184 160 257 262 30 42 54 81 54 87 0 6
3 11 8 11 15 0 104 221 123 305 39 168 39 167 39 2057 l0 1828 1893 3 c2074 4
1925 -1 2097 63 433 159 716 514 780 979 6 43 10 778 10 1903 l0 1832 2183 0
c2105 0 2186 1 2297 20 131 21 187 39 315 100 101 48 146 77 255 163 41 33
620 605 1286 1270 l1212 1209 38 -5 c22 -2 93 -16 159 -30 426 -90 609 -123
955 -173 58 -9 161 -24 230 -35 342 -52 735 -88 1294 -120 276 -15 1044 -6
1336 16 400 31 656 54 765 70 61 8 180 24 265 35 85 11 193 27 240 35 47 8
139 24 205 35 163 28 311 56 425 81 52 11 124 26 160 34 119 25 404 96 468
116 34 10 70 19 79 19 18 0 65 13 248 70 66 21 158 48 205 60 99 27 163 47
280 90 47 17 130 46 185 65 150 50 272 93 350 125 39 16 87 33 107 40 21 6 40
16 43 21 4 5 17 9 30 9 13 0 26 4 29 9 4 5 61 30 129 56 67 26 158 64 202 85
102 48 152 71 360 166 94 43 197 92 230 109 33 18 158 83 279 144 120 62 248
131 284 153 36 22 122 71 191 110 69 38 146 83 171 98 25 15 113 69 195 120
83 51 164 103 180 116 17 12 68 46 115 74 130 80 594 410 765 545 39 31 113
89 165 130 52 41 122 96 155 122 53 42 138 114 404 344 42 36 164 149 271 250
107 101 203 191 212 199 10 8 136 139 281 290 247 257 318 335 582 645 104
121 396 489 497 626 256 346 615 887 775 1170 39 68 104 180 144 249 39 69 98
175 129 235 206 399 254 495 308 615 33 74 73 164 90 200 16 36 46 101 67 145
56 122 260 642 314 800 27 77 74 214 105 305 90 262 234 770 291 1020 8 36 21
92 29 125 49 208 72 317 111 535 25 135 52 280 60 323 8 44 33 221 55 395 91
725 126 1392 108 2027 -8 281 -45 858 -68 1060 -62 542 -154 1110 -236 1455
-24 99 -38 160 -85 360 -24 103 -45 185 -70 265 -10 33 -43 148 -73 256 -112
396 -369 1106 -540 1492 -197 445 -422 900 -583 1180 -190 331 -226 391 -305
517 -144 229 -309 481 -377 575 -35 50 -90 126 -121 170 -188 268 -530 703
-700 890 -25 28 -83 96 -129 150 -140 166 -504 547 -747 780 -631 607 -1305
1140 -2030 1605 -186 120 -318 200 -414 254 -41 24 -149 85 -240 138 -549 316
-1456 731 -2010 918 -47 16 -143 50 -215 75 -199 71 -200 71 -365 118 -85 25
-184 54 -220 65 -36 11 -101 30 -145 42 -44 11 -105 27 -135 35 -292 78 -616
150 -1025 226 -165 31 -347 60 -465 74 -74 9 -198 24 -275 35 -281 37 -790 76
-1120 85 -121 3 -283 7 -360 9 -77 2 -275 0 -440 -5z m795 -1199 c394 -16 732
-46 1200 -105 234 -30 435 -65 775 -136 385 -81 472 -101 655 -154 63 -18 144
-41 180 -50 201 -50 862 -273 1095 -368 61 -25 151 -62 200 -82 119 -49 303
-130 448 -199 65 -31 120 -56 123 -56 15 0 496 -248 644 -333 58 -33 130 -73
160 -90 318 -176 820 -506 1207 -795 140 -105 508 -394 523 -412 3 -3 83 -73
179 -155 96 -83 233 -206 305 -275 72 -69 163 -154 201 -190 107 -98 484 -497
649 -686 133 -154 470 -568 572 -704 40 -53 232 -320 320 -445 105 -149 367
-569 480 -769 21 -38 46 -81 54 -95 109 -186 324 -601 410 -791 28 -63 82
-182 120 -265 60 -130 179 -423 265 -650 15 -38 71 -200 125 -360 136 -402
218 -691 315 -1110 29 -129 83 -383 94 -445 6 -36 25 -139 41 -230 27 -145 69
-446 100 -710 51 -435 78 -1139 62 -1633 -17 -517 -76 -1154 -143 -1536 -19
-111 -56 -317 -80 -451 -6 -36 -31 -148 -55 -250 -24 -102 -53 -225 -64 -275
-20 -87 -44 -177 -80 -300 -10 -33 -35 -121 -55 -195 -64 -228 -221 -687 -326
-953 -124 -313 -127 -319 -230 -547 -155 -343 -346 -726 -456 -915 -22 -38
-82 -142 -134 -230 -140 -241 -132 -229 -360 -578 -107 -164 -321 -465 -439
-617 -264 -340 -342 -437 -495 -612 -418 -480 -941 -995 -1390 -1367 -136
-114 -495 -394 -600 -469 -177 -127 -258 -184 -365 -257 -145 -99 -530 -343
-615 -390 -38 -21 -89 -51 -112 -67 -23 -15 -44 -28 -48 -28 -3 0 -63 -33
-134 -73 -70 -41 -197 -109 -282 -152 -85 -42 -167 -85 -184 -95 -16 -10 -91
-46 -165 -80 -74 -34 -193 -89 -265 -123 -142 -66 -340 -150 -480 -204 -49
-20 -112 -44 -140 -55 -235 -92 -855 -296 -1055 -347 -25 -6 -76 -20 -115 -31
-71 -20 -306 -78 -445 -110 -252 -57 -692 -140 -870 -164 -456 -62 -560 -73
-875 -96 -679 -50 -1274 -45 -1885 15 -280 28 -341 35 -507 60 -93 14 -197 30
-233 35 -36 5 -144 23 -240 40 -96 17 -200 35 -230 40 -30 5 -109 21 -175 35
-66 15 -136 29 -155 31 -19 3 -71 14 -115 24 -230 55 -265 60 -408 60 -405 -1
-641 -56 -847 -198 -42 -29 -519 -498 -1330 -1308 l-1265 -1264 -2180 0
c-2377 0 -2268 2 -2450 -56 -105 -34 -247 -105 -313 -157 -30 -23 -70 -55 -90
-70 -62 -48 -91 -78 -172 -183 -113 -145 -184 -302 -227 -504 -17 -80 -18
-195 -21 -1947 l-2 -1863 -1883 -3 -1882 -3 -85 -21 c-166 -43 -210 -60 -350
-141 -95 -54 -232 -174 -312 -273 -42 -52 -77 -100 -77 -106 -1 -7 -5 -13 -11
-13 -5 0 -10 -4 -10 -10 0 -5 -13 -31 -29 -57 -32 -54 -90 -219 -117 -333 -17
-70 -18 -193 -21 -1948 l-3 -1872 -3585 0 -3585 0 3 3183 c2 2895 4 3186 19
3227 8 25 26 79 38 120 13 41 29 82 36 91 8 8 14 21 14 28 0 7 13 31 28 54 16
23 41 65 57 92 56 98 188 239 875 930 382 384 1095 1102 1585 1594 490 493
1234 1242 1655 1665 421 424 1134 1141 1585 1595 451 454 874 879 940 946 66
67 809 814 1650 1660 842 847 1582 1591 1645 1655 63 64 493 496 956 960 1185
1192 1236 1245 1320 1370 64 97 118 211 157 335 29 90 40 178 40 315 0 113 -4
154 -27 250 -26 108 -40 156 -130 455 -40 133 -162 614 -195 770 -150 696
-224 1205 -271 1865 -38 538 -35 1094 10 1655 27 339 101 948 135 1104 7 36
23 118 35 181 53 284 56 301 126 588 19 79 39 162 44 185 8 42 54 206 129 462
57 197 217 661 290 842 33 84 61 154 61 158 0 3 8 24 19 48 26 60 39 92 76
182 125 305 403 866 593 1195 52 91 120 208 150 260 30 52 83 138 117 190 34
52 99 154 145 225 46 72 131 198 190 280 59 83 136 191 171 240 35 50 111 150
169 223 58 73 134 170 169 215 35 45 113 140 175 211 61 71 142 165 181 210
101 117 411 446 519 551 243 235 463 440 580 540 71 61 151 130 179 155 43 39
178 147 297 238 19 15 92 72 162 127 70 55 186 141 258 190 149 102 160 110
204 146 34 29 187 129 254 166 23 13 82 51 130 85 47 33 192 121 322 196 129
74 251 145 270 157 19 12 125 68 235 125 110 56 241 124 290 150 50 25 149 73
220 104 72 32 184 83 250 113 347 157 1054 417 1370 503 44 12 130 37 190 55
178 53 245 72 330 89 44 9 116 25 160 36 256 63 343 82 436 95 57 9 111 18
121 21 9 2 56 11 105 19 48 7 120 21 158 29 39 9 210 34 380 56 665 84 1346
115 1965 90z"/>
<path d="M27295 31139 c-221 -13 -612 -93 -815 -165 -269 -96 -544 -222 -691
-316 -46 -30 -111 -70 -145 -90 -103 -60 -329 -234 -467 -361 -258 -234 -491
-516 -670 -809 -89 -146 -251 -469 -277 -553 -7 -22 -28 -80 -46 -128 -19 -48
-41 -111 -48 -140 -8 -29 -26 -97 -42 -152 -15 -55 -30 -118 -34 -140 -65
-359 -86 -633 -70 -903 13 -202 57 -488 101 -660 17 -64 35 -133 40 -152 4
-19 19 -64 32 -100 13 -36 43 -116 67 -179 73 -198 230 -494 372 -704 292
-431 715 -830 1173 -1105 126 -75 402 -210 520 -254 44 -16 107 -40 140 -53
57 -23 89 -32 305 -89 148 -39 447 -84 648 -97 142 -9 223 -9 365 1 201 13
528 65 677 106 52 14 111 30 130 34 19 4 85 26 145 48 61 23 142 52 180 66 99
36 387 185 540 280 382 235 723 547 1003 918 269 357 481 787 599 1217 48 176
59 229 94 461 29 194 32 654 5 852 -48 354 -95 532 -242 925 -13 34 -58 130
-100 215 -359 720 -916 1285 -1627 1651 -89 46 -187 93 -217 105 -30 11 -109
41 -174 67 -65 25 -142 52 -170 60 -28 7 -62 17 -76 23 -59 23 -247 63 -405
88 -272 42 -524 52 -820 33z m610 -1205 c565 -88 1004 -307 1379 -689 349
-355 567 -801 648 -1325 29 -189 29 -519 0 -705 -38 -240 -96 -445 -182 -638
-226 -504 -604 -900 -1095 -1145 -232 -115 -466 -189 -730 -229 -163 -24 -560
-24 -720 0 -1050 162 -1837 947 -2002 1997 -13 88 -18 174 -18 365 0 191 5
277 18 365 64 409 212 764 455 1093 93 125 318 351 446 448 366 275 792 436
1266 479 129 12 413 3 535 -16z"/>
</g>
</svg>
