<?xml version="1.0" standalone="no"?>
<!DOCTYPE svg PUBLIC "-//W3C//DTD SVG 20010904//EN"
 "http://www.w3.org/TR/2001/REC-SVG-20010904/DTD/svg10.dtd">
<svg version="1.0" xmlns="http://www.w3.org/2000/svg"
 width="3840.000000pt" height="3074.000000pt" viewBox="0 0 3840.000000 3074.000000"
 preserveAspectRatio="xMidYMid meet">
<metadata>
Created by potrace 1.16, written by Peter Selinger 2001-2019
</metadata>
<g transform="translate(0.000000,3074.000000) scale(0.100000,-0.100000)"
fill="#000000" stroke="none">
<path d="M13335 30673 c-82 -7 -226 -34 -310 -58 -99 -29 -302 -124 -387 -182
-126 -84 -214 -176 -851 -883 -364 -404 -698 -775 -743 -825 -45 -49 -169
-187 -275 -305 -106 -118 -227 -253 -269 -300 -43 -47 -182 -202 -310 -345
-128 -143 -256 -285 -284 -315 -28 -31 -127 -141 -221 -245 -236 -262 -605
-674 -756 -840 -156 -174 -563 -627 -718 -800 -64 -71 -161 -179 -216 -240
-55 -60 -141 -155 -190 -210 -49 -55 -126 -140 -171 -190 -45 -49 -128 -142
-184 -205 -121 -136 -146 -163 -311 -346 -119 -131 -233 -259 -408 -454 -42
-47 -101 -112 -132 -145 -66 -72 -275 -305 -343 -384 -26 -31 -98 -110 -160
-177 -61 -67 -178 -197 -261 -290 -82 -92 -177 -198 -210 -234 -33 -36 -154
-171 -270 -299 -115 -129 -257 -287 -315 -351 -58 -64 -180 -199 -271 -300
-331 -368 -545 -606 -589 -656 -25 -28 -124 -138 -221 -245 -284 -313 -363
-429 -446 -649 -70 -185 -96 -327 -95 -520 1 -315 97 -599 288 -850 214 -282
497 -458 874 -546 64 -15 144 -18 533 -22 l458 -4 -38 -47 c-21 -25 -158 -188
-304 -361 -147 -173 -360 -425 -474 -560 -114 -135 -266 -315 -339 -400 -72
-85 -190 -224 -261 -309 -72 -84 -173 -204 -225 -266 -52 -61 -138 -163 -191
-226 -262 -310 -518 -613 -584 -689 -40 -47 -225 -265 -410 -485 -186 -220
-361 -427 -390 -460 -185 -215 -300 -444 -356 -707 -18 -84 -23 -136 -23 -278
0 -212 19 -316 90 -509 142 -383 464 -698 856 -836 170 -60 274 -76 540 -82
223 -5 246 -7 238 -22 -4 -9 -192 -230 -417 -492 -224 -261 -586 -682 -803
-935 -217 -252 -531 -619 -699 -814 -168 -195 -326 -380 -352 -410 -26 -30
-94 -109 -151 -175 -377 -435 -892 -1042 -939 -1105 -116 -157 -196 -337 -245
-555 -23 -103 -27 -143 -27 -285 -1 -325 82 -581 274 -850 201 -281 498 -474
864 -561 l100 -24 5118 -3 5117 -2 0 -737 0 -737 -447 -716 c-246 -393 -470
-751 -498 -795 -28 -44 -109 -172 -179 -285 -190 -305 -263 -422 -285 -455
-133 -203 -415 -668 -431 -713 -50 -132 -63 -202 -64 -342 0 -143 10 -210 50
-325 113 -319 386 -559 714 -627 98 -20 6027 -20 6115 1 348 80 604 306 717
631 77 223 66 478 -31 693 -27 60 -159 271 -1274 2052 -287 457 -529 846 -539
866 -17 33 -18 75 -16 760 l3 724 5125 5 5125 5 107 28 c214 54 382 132 541
249 278 206 471 508 548 853 21 97 24 133 23 305 -1 173 -4 208 -27 305 -48
208 -129 385 -247 544 -32 44 -129 161 -215 260 -85 100 -224 261 -308 359
-84 97 -238 276 -342 397 -104 121 -221 256 -259 301 -119 135 -427 493 -496
574 -62 73 -341 398 -625 726 -71 82 -209 242 -305 354 -96 111 -220 255 -276
319 -257 297 -544 634 -544 640 0 3 53 4 117 3 436 -13 773 83 1061 302 487
370 683 1019 482 1602 -71 208 -160 346 -415 644 -135 158 -201 237 -441 520
-113 135 -252 299 -308 364 -129 153 -248 293 -411 487 -71 85 -182 215 -245
289 -64 74 -213 249 -331 389 -117 140 -258 306 -312 370 -54 64 -152 179
-217 256 -267 317 -306 363 -364 431 -34 39 -119 140 -191 225 -71 85 -162
192 -202 238 -40 46 -73 88 -73 95 0 8 92 10 337 8 491 -4 666 14 882 94 192
72 345 168 494 313 264 256 411 578 433 946 22 384 -103 738 -375 1055 -31 36
-119 135 -196 220 -77 85 -194 216 -261 290 -67 74 -266 297 -444 495 -178
198 -416 464 -530 590 -114 127 -274 304 -355 395 -82 91 -201 224 -265 295
-310 344 -613 682 -795 885 -110 124 -229 256 -265 295 -36 39 -117 129 -180
200 -63 71 -142 159 -175 195 -33 36 -132 146 -220 245 -177 198 -428 477
-755 840 -118 131 -296 329 -395 440 -99 111 -239 267 -312 346 -72 80 -191
213 -264 295 -73 82 -214 239 -314 349 -99 110 -295 328 -435 484 -140 157
-340 379 -444 495 -104 116 -242 269 -305 341 -64 71 -165 184 -226 250 -60
67 -281 312 -490 545 -209 233 -447 499 -530 590 -82 92 -204 227 -270 301
-252 282 -355 372 -529 465 -240 127 -555 191 -831 167z m227 -3666 c51 -57
127 -141 169 -188 41 -46 163 -181 270 -300 512 -568 718 -797 759 -843 25
-28 146 -163 270 -300 124 -137 243 -270 265 -295 62 -70 1185 -1319 1475
-1640 198 -220 535 -595 625 -696 50 -56 191 -214 315 -351 303 -336 283 -315
629 -699 460 -511 491 -546 491 -556 0 -5 -713 -9 -1835 -9 -1009 0 -1835 -4
-1835 -8 0 -9 80 -105 420 -507 129 -153 264 -312 299 -354 35 -42 197 -233
360 -425 163 -192 312 -368 331 -391 39 -46 124 -148 435 -515 283 -335 309
-365 512 -606 98 -115 214 -253 257 -305 44 -52 116 -137 161 -189 44 -52 143
-169 220 -260 76 -91 175 -208 220 -260 45 -52 168 -198 275 -325 107 -126
228 -270 270 -320 42 -49 143 -169 224 -265 81 -96 180 -213 220 -260 144
-170 452 -534 481 -569 131 -158 485 -574 517 -608 22 -22 37 -46 33 -52 -4
-8 -479 -11 -1727 -11 -946 0 -1722 -1 -1725 -3 -4 -5 34 -52 208 -253 81 -93
193 -223 250 -289 163 -189 387 -449 607 -705 211 -244 353 -409 482 -560 41
-49 158 -184 260 -302 101 -117 267 -310 369 -428 102 -118 246 -285 321 -371
74 -86 171 -198 215 -250 44 -51 130 -150 190 -220 61 -70 157 -182 215 -249
58 -68 139 -162 180 -209 41 -48 167 -194 280 -326 113 -131 237 -275 276
-319 72 -83 255 -296 539 -626 158 -184 291 -338 659 -765 104 -121 211 -243
239 -272 27 -28 46 -56 43 -62 -9 -14 -17622 -16 -17630 -2 -3 5 2 15 11 22 9
8 39 41 67 75 28 33 159 186 292 340 132 153 368 428 525 610 156 182 381 443
499 580 886 1029 1122 1303 1467 1704 364 424 537 625 938 1090 394 458 484
562 860 1000 220 255 460 534 533 619 73 85 131 158 130 163 -2 5 -752 8
-1725 8 -947 0 -1724 3 -1726 7 -3 5 25 44 62 88 38 44 209 247 380 450 172
204 382 451 466 550 84 99 228 270 321 380 92 110 243 288 334 395 91 107 210
248 265 314 182 216 337 399 580 686 245 290 278 329 709 840 137 162 286 338
331 390 45 52 180 212 300 355 121 143 294 347 385 454 91 107 228 269 305
361 77 92 161 191 186 221 25 30 124 146 219 259 95 113 194 229 219 259 25
30 76 90 113 135 l66 81 -1839 3 c-1011 1 -1839 5 -1839 8 0 10 66 84 785 883
369 409 693 770 720 801 28 31 273 303 545 605 272 302 515 572 540 599 25 28
146 163 270 300 124 137 248 275 275 306 40 46 499 556 1531 1700 315 349 516
573 599 667 55 62 105 113 112 113 6 0 53 -46 105 -103z"/>
<path d="M32500 23474 c-286 -24 -550 -127 -780 -305 -41 -32 -120 -93 -175
-135 -55 -43 -129 -97 -165 -122 -36 -24 -92 -64 -125 -87 -165 -116 -501
-312 -735 -428 -585 -291 -1109 -473 -1845 -640 -240 -55 -624 -114 -940 -146
-634 -63 -1336 -53 -1955 30 -774 102 -1514 305 -2221 608 -129 56 -248 101
-263 101 -20 0 -41 -12 -67 -39 -34 -33 -39 -45 -39 -84 0 -49 3 -54 293 -375
187 -208 339 -377 837 -932 156 -173 315 -355 355 -405 312 -389 398 -919 225
-1396 -35 -97 -44 -133 -41 -167 1 -17 53 -38 111 -45 25 -4 144 -19 265 -36
216 -29 284 -36 595 -65 618 -58 1546 -54 2190 9 258 25 423 44 530 60 58 9
178 27 268 40 140 21 275 46 522 96 110 22 396 87 500 114 66 17 288 80 458
129 172 50 566 185 735 252 78 31 170 67 203 80 34 13 127 53 207 89 80 36
148 65 151 65 32 0 601 299 833 438 169 101 195 112 221 89 24 -21 251 -156
412 -244 163 -90 583 -298 770 -381 609 -272 1389 -529 2030 -668 41 -8 102
-22 135 -29 33 -8 98 -21 145 -29 47 -9 119 -23 160 -31 41 -7 120 -21 175
-30 55 -9 125 -20 155 -25 30 -5 105 -16 165 -25 485 -65 702 -75 843 -37 295
79 531 296 644 592 58 150 58 154 58 841 0 349 -5 650 -10 669 -28 108 -44
153 -84 235 -124 253 -368 433 -666 491 -41 8 -149 23 -240 34 -1115 137
-2212 500 -3090 1024 -236 140 -424 269 -697 476 -76 58 -167 122 -203 144
-82 48 -202 106 -221 106 -8 0 -19 4 -24 8 -12 11 -137 49 -185 56 -19 3 -55
10 -80 15 -52 11 -274 20 -340 15z"/>
<path d="M32465 14380 c-270 -28 -518 -126 -732 -288 -422 -320 -444 -335
-673 -477 -387 -241 -690 -394 -1118 -564 -259 -104 -665 -239 -837 -280 -22
-5 -76 -19 -120 -30 -463 -122 -1021 -209 -1575 -247 -303 -20 -796 -20 -1070
1 l-215 16 -120 -118 c-174 -172 -353 -284 -562 -352 -125 -41 -231 -60 -399
-70 -78 -5 -151 -14 -163 -20 -51 -28 -68 -126 -29 -177 12 -16 63 -76 113
-134 155 -179 332 -385 560 -650 121 -140 359 -417 530 -615 371 -431 358
-415 469 -546 49 -57 103 -117 120 -133 l31 -28 355 6 c908 14 1713 110 2555
302 110 25 265 64 345 86 80 22 169 46 199 54 103 27 406 123 551 174 80 28
163 57 185 64 38 12 141 52 400 156 66 26 164 69 218 94 53 25 99 46 101 46 2
0 70 32 151 70 81 39 149 70 151 70 2 0 43 22 91 48 49 27 129 70 178 97 129
69 145 78 301 171 77 46 148 84 156 84 8 0 26 -8 39 -19 90 -69 488 -289 834
-460 132 -65 251 -122 265 -126 13 -4 58 -24 100 -43 330 -153 899 -361 1300
-476 30 -9 93 -27 140 -41 98 -28 403 -104 538 -134 50 -12 131 -30 180 -41
48 -10 125 -26 172 -34 47 -9 123 -23 170 -31 416 -76 999 -143 1140 -131 246
22 475 147 631 343 94 118 136 202 192 383 19 62 21 97 25 680 4 654 2 684
-44 828 -55 168 -145 301 -278 410 -181 148 -339 203 -711 247 -194 23 -510
75 -675 111 -41 9 -106 23 -145 31 -235 50 -659 172 -915 263 -247 88 -271 97
-430 165 -85 37 -184 80 -220 95 -88 37 -397 194 -545 276 -253 141 -553 341
-785 523 -215 168 -348 246 -522 302 -190 61 -422 88 -603 69z"/>
<path d="M21005 5250 c-192 -18 -361 -66 -530 -150 -92 -45 -164 -92 -310
-204 -378 -288 -694 -491 -1065 -684 -425 -220 -946 -422 -1447 -561 -216 -60
-228 -65 -253 -106 -26 -41 -25 -71 1 -120 12 -22 305 -494 653 -1050 600
-961 632 -1015 662 -1110 18 -55 37 -122 44 -150 13 -60 25 -75 57 -75 31 0
474 146 623 205 19 8 89 35 155 60 66 26 135 53 153 61 17 8 47 20 65 28 17 8
61 26 97 41 209 86 721 339 887 438 34 20 64 37 68 37 4 0 27 14 52 30 24 17
46 30 48 30 3 0 37 20 77 45 40 25 76 45 81 45 4 0 70 -38 145 -83 75 -46 178
-105 227 -132 50 -27 128 -69 175 -95 389 -215 1075 -501 1580 -659 74 -23
153 -49 175 -56 130 -45 657 -181 875 -226 243 -50 348 -70 512 -99 163 -28
220 -36 508 -75 744 -99 1716 -123 2500 -59 543 43 963 102 1475 205 333 67
813 188 1020 258 17 5 91 29 165 52 74 23 176 56 225 74 50 18 131 48 180 65
50 18 146 55 215 82 69 28 141 57 161 64 20 7 60 24 90 37 30 14 122 55 204
92 278 124 686 337 942 493 56 34 105 62 109 62 3 0 76 -42 162 -94 701 -418
1451 -748 2262 -995 124 -38 234 -71 245 -74 11 -2 56 -15 100 -27 68 -18 241
-62 400 -100 371 -90 957 -188 1385 -232 192 -20 388 -16 483 10 288 79 540
316 638 600 56 162 54 136 54 832 l0 645 -28 90 c-71 227 -193 390 -384 515
-144 95 -296 142 -558 174 -758 93 -1443 266 -2115 533 -258 103 -639 282
-829 390 -332 189 -552 335 -897 598 -146 112 -196 143 -304 194 -190 89 -393
133 -609 134 -270 0 -526 -70 -756 -207 -48 -29 -151 -105 -320 -237 -334
-261 -815 -547 -1265 -751 -348 -158 -819 -328 -1150 -415 -30 -8 -98 -25
-150 -39 -121 -31 -371 -86 -520 -113 -63 -12 -140 -26 -170 -31 -182 -34
-615 -83 -900 -101 -234 -15 -804 -15 -1020 0 -573 40 -1172 136 -1615 258
-49 13 -108 29 -130 34 -121 29 -621 194 -750 247 -27 11 -95 38 -150 61 -570
228 -1154 562 -1615 922 -177 138 -274 198 -415 259 -205 88 -464 130 -680
110z"/>
</g>
</svg>
