<?xml version="1.0" standalone="no"?>
<!DOCTYPE svg PUBLIC "-//W3C//DTD SVG 20010904//EN"
 "http://www.w3.org/TR/2001/REC-SVG-20010904/DTD/svg10.dtd">
<svg version="1.0" xmlns="http://www.w3.org/2000/svg"
 width="3840.000000pt" height="3840.000000pt" viewBox="0 0 3840.000000 3840.000000"
 preserveAspectRatio="xMidYMid meet">
<metadata>
Created by potrace 1.16, written by Peter Selinger 2001-2019
</metadata>
<g transform="translate(0.000000,3840.000000) scale(0.100000,-0.100000)"
fill="#000000" stroke="none">
<path d="M18745 37720 c-318 -7 -779 -31 -970 -50 -55 -6 -224 -21 -376 -35
-152 -13 -323 -31 -380 -39 -57 -8 -194 -27 -304 -41 -282 -37 -786 -119
-1010 -165 -104 -21 -239 -48 -300 -60 -60 -12 -213 -46 -340 -76 -126 -31
-297 -71 -380 -91 -82 -19 -220 -55 -305 -80 -85 -25 -184 -53 -220 -63 -179
-47 -275 -75 -380 -110 -63 -21 -205 -66 -315 -100 -110 -34 -240 -77 -290
-95 -182 -67 -353 -129 -470 -170 -152 -54 -712 -280 -853 -344 -59 -27 -174
-79 -257 -116 -237 -106 -382 -173 -495 -231 -58 -29 -141 -69 -185 -89 -44
-20 -156 -77 -250 -127 -440 -236 -565 -304 -635 -345 -41 -25 -100 -60 -130
-78 -30 -18 -116 -67 -190 -110 -74 -43 -156 -93 -181 -111 -26 -19 -50 -34
-53 -34 -4 0 -57 -33 -119 -73 -62 -40 -120 -76 -129 -79 -17 -7 -482 -318
-583 -391 -33 -24 -67 -46 -75 -49 -8 -3 -45 -28 -81 -54 -138 -102 -347 -255
-434 -318 -49 -36 -133 -99 -185 -141 -348 -275 -497 -396 -664 -538 -103 -89
-227 -195 -275 -236 -47 -41 -142 -127 -211 -191 -69 -64 -179 -166 -245 -227
-281 -260 -928 -928 -1147 -1183 -64 -74 -164 -191 -223 -259 -191 -219 -517
-626 -686 -855 -68 -92 -149 -200 -180 -240 -30 -39 -89 -120 -130 -181 -90
-131 -154 -224 -190 -274 -75 -107 -299 -448 -355 -541 -21 -36 -42 -66 -46
-68 -5 -2 -8 -8 -8 -13 0 -5 -30 -56 -67 -112 -36 -56 -99 -158 -139 -227 -39
-69 -94 -163 -121 -210 -138 -237 -178 -308 -326 -585 -158 -297 -458 -905
-522 -1060 -18 -44 -54 -127 -80 -185 -143 -321 -294 -689 -402 -980 -35 -96
-74 -200 -85 -230 -87 -234 -261 -769 -349 -1070 -23 -80 -52 -181 -65 -225
-27 -94 -73 -265 -85 -315 -4 -19 -20 -80 -34 -135 -15 -55 -33 -127 -40 -160
-8 -33 -36 -157 -63 -275 -28 -118 -58 -253 -67 -300 -9 -47 -26 -127 -36
-178 -29 -138 -105 -565 -119 -657 -6 -44 -15 -105 -20 -135 -52 -303 -113
-810 -151 -1255 -56 -658 -76 -1436 -54 -2100 16 -467 17 -490 45 -830 11
-126 27 -315 35 -419 9 -104 23 -239 31 -300 8 -61 19 -145 24 -186 37 -307
70 -533 116 -785 14 -77 29 -165 34 -195 28 -177 91 -489 161 -795 44 -192 87
-381 96 -420 17 -76 110 -414 174 -635 10 -36 36 -128 58 -205 22 -77 60 -201
86 -275 25 -74 59 -175 75 -225 24 -78 125 -375 174 -518 10 -26 26 -69 37
-95 11 -26 45 -110 74 -187 155 -404 200 -517 280 -695 86 -191 179 -401 235
-530 57 -128 400 -808 487 -965 310 -554 391 -698 432 -760 37 -58 179 -284
297 -475 66 -106 257 -390 340 -505 20 -27 84 -120 142 -205 58 -85 154 -218
214 -295 59 -77 185 -241 279 -365 94 -124 199 -256 231 -295 140 -164 282
-331 416 -489 198 -233 715 -780 1021 -1079 353 -346 596 -566 987 -896 133
-112 133 -112 179 -146 45 -34 81 -64 103 -85 35 -34 217 -179 257 -204 16
-11 39 -28 50 -39 11 -10 54 -44 95 -75 41 -31 80 -60 85 -64 6 -5 62 -47 125
-93 63 -46 120 -88 126 -93 5 -5 39 -30 75 -56 35 -25 69 -50 74 -54 6 -4 56
-39 113 -76 57 -37 118 -80 135 -95 18 -16 124 -88 237 -160 113 -73 214 -142
226 -152 11 -10 26 -19 32 -19 7 0 12 -4 12 -9 0 -5 9 -13 21 -16 26 -8 123
-67 127 -77 2 -5 8 -8 13 -8 5 0 56 -30 112 -66 150 -98 550 -331 817 -476
570 -310 1048 -542 1663 -808 104 -45 225 -95 270 -112 45 -16 143 -54 217
-83 74 -30 190 -74 258 -99 68 -25 135 -52 150 -60 41 -20 972 -329 1087 -360
94 -25 142 -39 440 -123 273 -77 366 -101 625 -162 284 -67 515 -115 805 -170
61 -12 133 -25 160 -31 28 -5 122 -21 210 -34 88 -14 187 -30 220 -35 76 -13
167 -25 375 -51 91 -11 215 -27 275 -35 306 -39 370 -46 810 -79 599 -46 1142
-61 1750 -47 237 6 444 13 460 15 17 3 125 10 240 16 277 14 911 72 1200 110
127 17 264 35 305 40 72 10 174 26 564 90 246 41 774 149 1051 216 385 92 435
104 565 140 69 19 168 46 220 60 52 14 115 32 140 40 25 7 128 39 230 69 226
69 535 169 690 225 63 23 189 68 280 99 198 70 403 150 685 267 116 47 230 94
255 104 25 10 84 36 131 58 47 22 126 57 175 77 189 79 895 424 1109 542 55
30 159 86 230 125 134 71 237 130 480 274 77 45 156 91 175 101 19 10 55 32
79 48 52 35 59 40 128 82 30 18 56 33 59 33 2 0 10 5 17 10 7 6 35 25 62 42
57 35 175 112 284 184 41 27 86 57 100 66 14 9 31 21 36 26 6 4 33 21 60 37
28 16 55 33 60 37 66 52 100 77 159 115 37 24 78 53 89 64 11 10 25 19 29 19
5 0 18 8 29 19 11 10 45 36 77 57 31 21 59 41 62 44 3 3 34 27 70 53 74 54
105 78 123 92 14 12 111 83 143 105 35 25 179 133 184 140 5 5 66 55 151 122
19 14 50 41 69 58 19 18 51 44 70 58 54 41 342 282 486 407 495 429 1204 1133
1624 1610 274 311 385 444 631 751 492 617 796 1046 1259 1778 113 179 124
197 180 296 20 36 76 133 124 215 49 83 110 188 136 235 65 116 337 627 382
720 248 508 255 523 451 970 113 257 290 693 330 811 9 25 31 86 51 135 107
273 294 841 426 1294 12 41 28 95 35 120 8 25 28 99 46 165 17 66 46 179 65
250 33 125 70 279 135 560 65 284 172 843 214 1120 107 708 139 999 185 1680
27 415 58 1372 45 1430 -2 11 -9 193 -15 405 -12 425 -71 1210 -115 1545 -13
105 -38 294 -55 420 -17 127 -33 246 -36 265 -7 44 -40 230 -60 335 -33 184
-86 473 -94 520 -5 28 -18 91 -30 140 -12 50 -28 117 -35 150 -59 264 -144
617 -181 750 -25 88 -54 194 -66 235 -11 41 -28 102 -38 135 -10 33 -30 105
-45 160 -60 223 -325 1007 -440 1300 -47 121 -115 294 -150 385 -35 91 -104
257 -155 370 -50 113 -126 284 -168 380 -84 193 -487 1000 -574 1150 -30 52
-115 203 -188 335 -74 132 -168 294 -209 360 -41 66 -102 165 -136 220 -191
310 -433 682 -474 728 -16 19 -157 222 -234 337 -24 36 -117 161 -208 278 -90
118 -173 226 -184 241 -105 142 -239 310 -383 481 -323 381 -438 516 -516 600
-844 906 -1400 1427 -2267 2122 -212 170 -859 641 -1103 804 -199 133 -589
382 -724 463 -193 116 -382 226 -482 281 -63 35 -160 89 -215 120 -334 190
-1020 529 -1446 715 -399 174 -424 184 -904 370 -66 26 -142 56 -170 67 -79
31 -371 134 -583 205 -107 35 -203 68 -215 73 -33 12 -173 55 -247 75 -82 22
-158 44 -285 83 -55 17 -154 44 -220 61 -66 17 -160 42 -210 56 -164 45 -552
138 -665 158 -14 3 -88 19 -165 36 -201 46 -304 67 -435 91 -63 12 -146 28
-185 35 -38 8 -133 24 -210 35 -77 12 -176 27 -220 35 -44 8 -118 19 -165 25
-47 6 -112 15 -145 20 -101 16 -663 79 -795 89 -69 6 -170 15 -225 20 -185 19
-617 41 -990 51 -393 10 -421 10 -920 0z m1511 -3620 c225 -17 535 -46 689
-66 154 -19 314 -39 355 -44 75 -9 506 -81 715 -120 61 -11 133 -25 160 -30
28 -5 88 -18 135 -29 47 -11 186 -43 310 -71 224 -52 601 -149 655 -170 16 -6
72 -22 125 -36 170 -44 833 -266 1020 -341 63 -25 171 -67 240 -94 69 -26 159
-62 200 -79 41 -17 115 -47 165 -67 49 -19 119 -50 155 -68 36 -18 94 -45 130
-60 236 -99 838 -396 1075 -532 50 -28 191 -108 315 -179 214 -121 378 -221
590 -359 357 -233 363 -236 785 -540 61 -43 211 -160 335 -258 363 -289 401
-319 501 -408 41 -37 135 -119 209 -184 324 -282 983 -942 1244 -1245 26 -30
71 -82 100 -115 28 -33 85 -100 126 -149 41 -49 102 -121 135 -160 123 -146
492 -628 613 -801 295 -421 613 -915 770 -1194 232 -413 317 -572 459 -861
151 -304 183 -373 278 -590 21 -47 52 -116 70 -155 17 -38 58 -135 89 -215 32
-80 66 -165 76 -190 116 -281 360 -989 442 -1280 116 -415 163 -592 208 -785
22 -99 47 -207 55 -240 32 -136 55 -247 75 -360 12 -66 30 -165 40 -220 51
-272 59 -329 135 -910 34 -262 73 -773 85 -1120 5 -159 12 -335 15 -390 9
-170 -13 -871 -40 -1265 -13 -206 -27 -386 -30 -400 -2 -14 -21 -160 -40 -325
-32 -271 -145 -980 -179 -1130 -18 -79 -106 -478 -116 -531 -11 -50 -76 -303
-95 -364 -7 -25 -30 -106 -50 -180 -62 -231 -73 -267 -172 -570 -154 -476
-365 -1039 -500 -1335 -30 -66 -84 -187 -120 -270 -108 -248 -413 -847 -595
-1168 -227 -402 -526 -879 -734 -1172 -20 -27 -94 -132 -164 -231 -71 -100
-148 -205 -172 -235 -24 -30 -73 -92 -109 -139 -209 -272 -389 -492 -573 -700
-17 -19 -60 -69 -96 -110 -210 -242 -621 -662 -980 -1000 -330 -311 -750 -666
-1125 -950 -160 -121 -233 -175 -310 -230 -166 -118 -300 -212 -328 -232 -62
-43 -237 -158 -332 -218 -106 -67 -126 -80 -244 -154 -380 -242 -1247 -701
-1680 -891 -95 -41 -196 -86 -225 -100 -76 -35 -226 -98 -361 -150 -66 -25
-188 -73 -271 -106 -168 -66 -442 -163 -609 -214 -60 -19 -157 -51 -215 -70
-58 -20 -186 -59 -285 -86 -99 -28 -223 -63 -275 -79 -118 -35 -227 -63 -350
-90 -52 -12 -149 -34 -215 -50 -180 -44 -403 -91 -595 -125 -334 -58 -603
-101 -765 -120 -110 -14 -270 -34 -355 -45 -218 -28 -806 -69 -1185 -81 -366
-12 -924 -5 -1260 17 -341 21 -716 52 -835 68 -111 15 -328 42 -445 56 -38 5
-140 21 -225 35 -85 15 -177 30 -205 34 -186 30 -383 68 -553 106 -108 25
-251 57 -317 71 -170 38 -463 114 -620 162 -55 17 -116 33 -135 37 -61 12
-138 35 -415 128 -148 49 -283 93 -300 98 -56 14 -203 67 -362 129 -87 34
-174 68 -193 75 -146 56 -287 113 -355 142 -96 42 -350 156 -420 188 -28 13
-98 44 -155 69 -58 25 -184 86 -280 136 -96 50 -233 119 -305 154 -192 93
-824 460 -1105 641 -347 223 -390 252 -525 351 -66 48 -190 137 -275 197 -178
126 -719 555 -860 682 -52 47 -147 129 -210 183 -104 88 -413 379 -666 628
-127 124 -523 548 -630 674 -226 263 -400 471 -437 520 -23 30 -95 124 -160
208 -66 84 -139 179 -163 210 -111 144 -478 677 -589 857 -33 53 -108 171
-166 263 -99 157 -177 292 -394 682 -115 207 -380 738 -465 930 -34 80 -92
210 -127 289 -55 123 -126 296 -218 536 -13 33 -44 114 -70 180 -63 160 -295
860 -334 1005 -29 109 -43 159 -91 325 -24 81 -119 469 -149 607 -11 51 -30
134 -41 183 -19 81 -91 461 -110 575 -4 25 -17 101 -28 170 -21 120 -34 214
-87 625 -64 494 -108 1354 -99 1925 7 457 45 1072 84 1390 11 85 29 234 40
330 22 178 130 845 155 955 8 33 21 92 29 130 114 523 118 542 151 660 21 74
123 449 146 535 11 41 37 127 59 190 21 63 72 219 113 345 64 195 143 413 252
690 13 33 48 123 78 200 48 123 157 374 249 575 16 36 37 83 46 105 33 83 379
758 477 930 56 99 135 239 175 310 107 190 452 727 619 965 80 113 170 241
200 285 30 44 89 123 130 175 41 52 95 122 120 154 288 372 611 752 860 1014
86 90 203 215 261 276 184 198 703 686 920 866 63 52 139 118 170 146 51 48
149 128 286 235 33 25 133 104 224 175 147 116 230 176 493 359 40 28 119 85
177 127 58 42 137 96 175 119 39 23 93 56 120 74 315 203 455 291 535 335 52
30 188 107 302 171 205 117 804 426 928 479 87 37 332 146 400 177 154 72 467
203 484 203 7 0 128 46 302 115 134 54 247 94 294 105 19 4 67 19 105 32 272
95 478 161 585 188 69 18 159 42 200 55 41 13 121 35 178 49 56 14 122 32 145
40 23 7 116 30 207 50 91 20 176 39 190 42 14 4 75 17 135 29 61 13 151 33
200 44 50 12 115 25 145 31 30 5 177 29 325 55 241 41 856 123 1040 139 618
53 937 65 1581 60 423 -3 549 -8 900 -34z"/>
<path d="M18985 31136 c-261 -43 -519 -168 -709 -346 -166 -155 -6886 -6879
-6954 -6958 -113 -132 -220 -328 -252 -462 -7 -30 -19 -74 -27 -98 -22 -72
-36 -240 -30 -367 12 -237 82 -462 210 -675 72 -120 214 -274 348 -377 30 -23
111 -71 180 -106 174 -89 310 -128 511 -147 79 -8 2182 -10 7013 -8 l6900 3
115 27 c115 26 288 85 340 116 15 10 59 35 97 56 198 114 384 320 505 561 61
120 90 208 124 380 24 118 26 144 21 280 -9 200 -44 356 -120 517 -53 114
-119 218 -194 308 -55 65 -6801 6822 -6943 6954 -169 157 -404 279 -640 331
-101 22 -388 29 -495 11z"/>
<path d="M12234 16799 c-356 -32 -724 -238 -939 -525 -257 -345 -347 -787
-241 -1186 18 -69 43 -146 55 -170 11 -24 21 -49 21 -55 0 -5 17 -37 38 -69
20 -33 45 -76 55 -96 10 -19 63 -87 116 -149 54 -63 1639 -1654 3523 -3535
3473 -3470 3497 -3494 3658 -3587 49 -28 189 -90 258 -113 171 -59 434 -80
625 -50 242 38 429 118 632 270 102 76 6941 6912 7041 7039 217 272 314 565
301 907 -8 202 -52 380 -139 555 -201 403 -517 649 -958 747 l-105 23 -6925 1
c-3809 1 -6966 -2 -7016 -7z"/>
</g>
</svg>
