<?xml version="1.0" standalone="no"?>
<!DOCTYPE svg PUBLIC "-//W3C//DTD SVG 20010904//EN"
 "http://www.w3.org/TR/2001/REC-SVG-20010904/DTD/svg10.dtd">
<svg version="1.0" xmlns="http://www.w3.org/2000/svg"
 width="3840.000000pt" height="3840.000000pt" viewBox="0 0 3840.000000 3840.000000"
 preserveAspectRatio="xMidYMid meet">
<metadata>
Created by potrace 1.16, written by Peter Selinger 2001-2019
</metadata>
<g transform="translate(0.000000,3840.000000) scale(0.100000,-0.100000)"
fill="#000000" stroke="none">
<path d="M18989 38225 c-142 -15 -374 -70 -493 -116 -173 -67 -323 -155 -466
-274 -257 -215 -421 -478 -505 -815 -52 -207 -49 -82 -52 -2205 -3 -1860 -4
-1970 -21 -1987 -13 -13 -94 -29 -342 -68 -179 -28 -341 -55 -360 -60 -19 -5
-138 -30 -265 -55 -126 -25 -295 -62 -375 -81 -80 -20 -161 -40 -180 -44 -64
-13 -434 -111 -475 -124 -22 -8 -80 -26 -130 -41 -49 -15 -128 -39 -175 -53
-142 -43 -313 -100 -565 -189 -238 -84 -307 -111 -480 -184 -49 -21 -153 -63
-230 -93 -78 -30 -194 -80 -259 -111 -65 -31 -166 -77 -224 -102 -99 -42 -494
-235 -517 -253 -5 -4 -83 -44 -172 -89 -89 -46 -177 -92 -195 -104 -18 -12
-53 -33 -78 -46 -25 -13 -64 -37 -88 -53 -24 -15 -45 -28 -48 -28 -2 0 -21
-11 -42 -23 -20 -13 -75 -44 -122 -69 -47 -26 -136 -80 -198 -122 -63 -42
-115 -76 -117 -76 -2 0 -34 -21 -71 -46 -36 -25 -74 -48 -83 -51 -9 -3 -37
-21 -64 -40 -26 -18 -49 -33 -51 -33 -5 0 -129 -85 -263 -180 -65 -47 -126
-89 -135 -95 -9 -5 -42 -30 -75 -55 -32 -25 -78 -58 -103 -75 -25 -16 -67 -48
-95 -70 -151 -124 -267 -216 -325 -255 -36 -25 -69 -50 -75 -56 -5 -6 -46 -42
-90 -80 -44 -37 -82 -71 -85 -75 -3 -4 -50 -44 -105 -89 -233 -192 -622 -557
-862 -811 -334 -353 -326 -345 -513 -563 -14 -16 -30 -34 -36 -40 -5 -6 -48
-56 -93 -111 -46 -55 -90 -107 -97 -115 -34 -37 -327 -416 -414 -536 -30 -41
-63 -86 -74 -100 -51 -69 -126 -175 -142 -203 -10 -17 -22 -31 -26 -31 -4 0
-8 -5 -8 -11 0 -6 -26 -47 -59 -93 -32 -45 -60 -86 -62 -92 -8 -18 -84 -129
-91 -132 -5 -2 -8 -8 -8 -13 0 -5 -15 -33 -34 -62 -80 -126 -103 -163 -109
-179 -4 -10 -11 -18 -17 -18 -5 0 -10 -6 -10 -14 0 -7 -10 -26 -23 -42 -25
-32 -107 -173 -107 -185 0 -4 -6 -14 -13 -21 -12 -13 -43 -63 -94 -158 -14
-25 -29 -50 -34 -56 -5 -6 -33 -58 -63 -115 -30 -57 -73 -138 -96 -179 -118
-214 -457 -929 -539 -1139 -10 -26 -49 -120 -86 -211 -37 -91 -84 -212 -105
-270 -21 -58 -50 -136 -65 -175 -41 -109 -214 -630 -242 -730 -13 -49 -35
-126 -47 -170 -13 -44 -33 -114 -44 -155 -28 -101 -131 -514 -142 -570 -5 -25
-20 -94 -34 -155 -68 -304 -129 -650 -172 -967 l-29 -207 -2000 -4 c-1592 -2
-2013 -5 -2065 -16 -276 -55 -437 -113 -611 -221 -286 -177 -511 -450 -634
-770 -106 -274 -149 -575 -127 -887 6 -92 16 -184 21 -203 6 -19 24 -91 42
-160 57 -228 136 -395 278 -585 206 -276 514 -482 842 -564 236 -59 86 -55
2246 -61 1090 -3 1983 -7 1986 -10 2 -3 14 -75 26 -160 12 -85 34 -234 48
-330 29 -201 162 -882 198 -1015 43 -161 67 -259 76 -305 5 -25 18 -74 28
-110 11 -36 29 -101 41 -145 11 -44 37 -129 56 -190 19 -60 53 -168 75 -240
95 -303 295 -852 386 -1060 22 -49 81 -186 132 -304 76 -176 203 -445 241
-511 5 -8 23 -44 41 -80 99 -202 148 -299 167 -330 12 -19 30 -51 40 -70 11
-19 38 -69 62 -110 24 -41 51 -91 62 -110 11 -19 25 -44 31 -55 7 -11 30 -51
52 -90 21 -38 41 -72 44 -75 3 -3 17 -25 30 -50 14 -25 32 -56 42 -70 15 -22
54 -84 160 -250 16 -25 34 -52 39 -60 6 -8 51 -78 101 -155 50 -77 96 -147
102 -156 54 -76 276 -381 296 -405 53 -64 61 -74 61 -79 0 -5 74 -107 102
-140 10 -11 32 -39 50 -62 68 -86 195 -239 218 -264 14 -14 36 -40 50 -59 75
-99 160 -197 320 -370 59 -63 160 -173 226 -245 65 -71 149 -159 185 -195 143
-143 567 -547 608 -580 24 -19 51 -42 60 -51 9 -8 45 -39 81 -69 36 -29 97
-81 135 -115 39 -35 103 -90 144 -123 41 -33 78 -68 83 -76 5 -9 14 -16 19
-16 6 0 29 -16 52 -35 22 -19 45 -35 50 -35 5 0 19 -9 31 -19 59 -54 79 -71
85 -71 3 0 26 -18 51 -40 25 -22 50 -40 57 -40 7 0 16 -6 20 -13 8 -13 93 -80
167 -132 24 -16 49 -36 57 -43 34 -31 98 -76 153 -110 34 -20 66 -40 71 -44 9
-8 76 -53 130 -88 34 -22 167 -117 190 -136 11 -9 30 -21 43 -27 12 -5 22 -14
22 -19 0 -4 5 -8 11 -8 6 0 31 -15 57 -32 48 -33 101 -64 158 -92 17 -8 36
-22 44 -30 7 -9 17 -16 22 -16 5 0 35 -16 66 -37 78 -50 154 -93 175 -100 9
-3 17 -9 17 -14 0 -4 17 -16 38 -25 20 -10 44 -24 53 -31 19 -16 31 -23 254
-138 149 -77 289 -151 460 -245 28 -15 106 -52 175 -83 69 -30 170 -76 225
-102 55 -26 138 -65 185 -87 102 -48 322 -139 515 -213 77 -29 185 -72 240
-94 55 -23 141 -54 190 -70 50 -16 140 -45 200 -64 61 -20 182 -61 270 -93 88
-31 185 -62 215 -69 85 -20 233 -60 370 -100 225 -67 336 -95 510 -130 41 -9
125 -27 185 -40 283 -64 339 -76 475 -98 80 -14 208 -35 285 -47 77 -12 179
-28 228 -36 48 -8 100 -14 116 -14 17 0 33 -6 38 -13 4 -6 11 -912 14 -2012 6
-2139 3 -2012 53 -2218 34 -139 110 -316 198 -462 57 -95 214 -270 317 -355
24 -19 49 -41 56 -47 8 -7 24 -17 37 -23 13 -6 48 -28 78 -50 30 -22 62 -40
71 -40 9 0 33 -11 53 -25 20 -14 42 -25 49 -25 7 0 29 -11 49 -25 20 -14 47
-25 59 -25 12 0 38 -9 58 -19 76 -41 293 -85 508 -103 204 -17 444 3 630 53
39 10 83 19 98 19 14 0 38 9 54 21 15 11 48 23 72 26 24 4 50 12 57 20 7 7 20
13 28 13 8 0 14 5 14 10 0 6 9 10 19 10 11 0 32 11 47 25 15 14 39 25 55 25
18 0 32 7 39 20 6 11 22 23 35 26 14 3 25 10 25 15 0 5 17 18 38 29 48 27 98
63 126 92 13 13 31 30 42 39 10 9 26 25 34 35 9 10 29 30 45 44 17 14 65 72
107 129 155 211 240 417 294 711 17 88 18 237 21 2060 3 1538 6 1967 16 1976
6 7 98 24 202 39 471 65 664 99 1125 196 117 25 328 75 395 95 28 8 79 20 115
28 61 13 139 33 290 76 102 29 388 118 460 144 36 13 106 36 155 51 104 32
488 174 670 247 55 22 263 111 310 133 17 8 102 46 190 85 186 83 264 120 285
135 8 6 33 17 55 24 22 8 45 19 50 26 6 6 28 17 50 25 22 7 45 18 50 25 6 6
28 17 50 25 22 7 45 19 50 25 6 7 27 18 48 25 20 6 37 16 37 21 0 5 11 9 25 9
14 0 25 4 25 9 0 11 56 41 77 41 7 0 13 3 13 8 0 4 42 29 93 56 50 27 117 63
147 82 30 18 75 45 100 59 25 14 61 35 80 47 19 11 59 34 89 49 30 16 57 32
60 36 3 5 27 19 54 33 26 13 47 28 47 32 0 3 10 10 23 14 12 4 24 10 27 13 8
11 71 54 106 73 17 9 63 38 103 65 40 26 107 69 148 95 41 26 98 65 127 86 28
21 62 45 76 52 14 7 32 19 40 27 8 7 58 44 110 82 187 136 243 177 307 229 36
28 68 52 72 52 3 0 22 15 42 33 21 17 50 41 65 52 15 11 35 27 44 35 9 8 42
35 75 60 33 24 85 67 116 95 31 27 70 61 86 75 149 122 186 154 253 215 42 39
109 99 149 135 220 195 731 705 913 911 266 300 342 388 419 484 36 44 112
139 170 210 209 258 548 721 727 995 130 199 258 400 302 475 26 44 91 154
145 245 54 91 118 203 143 250 25 47 78 145 119 219 87 157 331 650 396 801
25 58 60 134 77 169 17 35 38 80 45 100 7 20 39 97 70 171 207 496 423 1110
550 1565 20 72 44 159 55 195 24 84 62 232 100 395 17 72 38 157 47 190 9 33
21 89 28 125 7 36 29 146 49 245 42 205 42 206 90 493 20 117 36 223 36 236 0
13 6 29 13 35 10 8 557 12 1973 14 1782 3 1968 4 2055 20 218 38 358 81 509
157 104 52 234 135 264 169 11 11 24 21 30 21 19 0 205 201 252 272 25 37 50
68 55 68 5 0 9 8 9 18 0 10 11 28 25 40 14 12 25 33 25 46 0 13 11 40 25 60
14 20 25 41 25 46 0 9 31 80 73 169 11 23 24 64 28 90 4 25 12 64 18 86 49
179 69 424 53 630 -7 81 -16 166 -21 189 -41 187 -57 249 -77 299 -13 32 -24
67 -24 78 0 11 -11 37 -25 59 -14 22 -25 47 -25 56 0 9 -11 29 -25 46 -14 16
-25 37 -25 47 0 10 -10 26 -21 37 -12 10 -25 28 -30 39 -21 45 -55 94 -119
170 -253 296 -549 461 -975 542 -83 16 -245 18 -2050 20 -1078 2 -1965 3
-1972 3 -22 0 -31 33 -57 196 -46 280 -108 613 -155 829 -36 164 -100 439
-116 500 -58 215 -109 401 -129 470 -13 44 -40 134 -59 200 -42 142 -179 555
-212 640 -13 33 -53 139 -89 235 -57 155 -186 477 -246 615 -112 261 -357 767
-498 1030 -112 210 -158 294 -194 353 -21 34 -38 64 -38 67 0 4 -130 220 -241
400 -10 17 -26 44 -35 60 -9 17 -87 136 -173 265 -135 204 -215 319 -388 558
-70 97 -357 465 -477 612 -267 327 -513 596 -866 950 -427 428 -699 674 -1136
1027 -155 126 -361 286 -414 322 -19 14 -75 54 -125 91 -178 132 -564 391
-844 566 -400 250 -1145 644 -1626 859 -248 111 -769 320 -925 371 -74 24
-144 48 -155 53 -11 5 -67 23 -125 41 -58 19 -125 41 -150 51 -73 28 -331 108
-380 118 -25 5 -76 18 -115 30 -38 11 -115 32 -170 47 -55 14 -147 39 -205 54
-58 16 -150 38 -205 50 -55 12 -134 30 -175 40 -69 18 -272 58 -480 95 -87 16
-376 59 -510 76 -41 6 -100 15 -130 22 l-55 12 -5 1965 c-5 1822 -7 1972 -23
2060 -85 459 -288 792 -633 1037 -180 129 -352 207 -592 268 -230 58 -474 75
-703 50z m431 -8735 c201 -5 412 -14 470 -19 58 -6 179 -18 270 -27 91 -8 208
-22 260 -29 52 -8 131 -19 175 -24 151 -18 426 -68 815 -150 349 -73 942 -248
1305 -386 39 -15 99 -37 135 -50 77 -28 325 -131 525 -218 100 -44 480 -230
603 -296 198 -107 543 -309 672 -392 286 -187 640 -436 764 -539 17 -14 58
-46 91 -70 70 -52 87 -65 129 -103 17 -16 47 -41 66 -55 19 -15 69 -56 110
-91 41 -36 86 -74 99 -86 139 -118 563 -532 738 -720 882 -946 1563 -2017
2060 -3245 83 -205 89 -222 174 -465 348 -994 538 -1990 589 -3095 15 -324
-11 -853 -60 -1215 -31 -227 -48 -358 -65 -490 -14 -113 -30 -201 -75 -405
-11 -47 -22 -103 -26 -125 -24 -142 -93 -428 -159 -660 -43 -148 -83 -295 -91
-326 -11 -49 -100 -303 -195 -559 -15 -41 -45 -124 -67 -185 -22 -60 -88 -218
-147 -350 -59 -132 -129 -288 -156 -348 -26 -59 -69 -147 -95 -195 -26 -48
-100 -186 -164 -307 -128 -238 -166 -307 -226 -402 -310 -491 -396 -620 -534
-798 -56 -71 -109 -141 -118 -155 -45 -67 -211 -276 -294 -371 -51 -59 -146
-169 -212 -245 -142 -166 -704 -727 -864 -863 -286 -243 -392 -330 -512 -421
-40 -30 -99 -75 -131 -100 -74 -57 -90 -68 -284 -202 -432 -299 -1060 -659
-1435 -823 -41 -18 -135 -60 -209 -94 -73 -33 -222 -95 -330 -137 -108 -42
-225 -87 -260 -101 -131 -51 -524 -176 -786 -249 -132 -37 -547 -135 -685
-163 -1016 -200 -1913 -247 -3005 -156 -165 13 -338 31 -385 40 -47 8 -159 26
-250 40 -324 48 -368 55 -525 91 -88 20 -194 44 -235 54 -258 59 -435 102
-450 110 -16 8 -59 22 -230 70 -36 11 -90 27 -120 38 -30 10 -95 31 -145 46
-131 40 -527 189 -645 242 -19 9 -79 33 -135 53 -55 21 -161 69 -235 106 -74
37 -234 115 -355 172 -217 102 -281 137 -585 318 -85 50 -186 109 -225 130
-149 82 -666 438 -855 589 -36 29 -96 76 -134 105 -339 262 -793 681 -1127
1041 -314 338 -521 590 -830 1010 -138 187 -437 650 -547 845 -144 257 -193
351 -307 580 -109 222 -255 541 -255 559 0 3 -20 52 -44 109 -101 239 -262
709 -331 972 -15 55 -38 138 -50 185 -13 47 -36 137 -50 200 -14 63 -34 153
-45 200 -21 90 -66 329 -80 420 -5 30 -18 114 -29 185 -99 630 -133 1476 -82
2090 6 66 15 192 21 280 15 210 109 865 155 1075 19 91 47 219 62 285 46 214
91 385 169 650 42 143 84 287 93 320 17 58 72 207 231 625 43 113 117 291 165
395 48 105 110 240 137 300 50 111 183 370 223 435 12 19 50 89 85 155 88 167
126 233 264 450 66 105 149 237 184 295 36 58 102 155 146 215 45 61 146 199
225 308 79 108 186 248 238 310 52 61 113 135 135 162 22 28 62 75 89 105 27
30 79 91 116 135 116 136 593 623 712 725 35 30 101 89 145 130 238 218 326
293 527 445 58 44 161 123 230 176 68 53 178 132 244 176 199 133 566 373 571
373 2 0 23 12 47 27 85 54 215 128 332 188 66 35 170 89 230 121 173 92 632
301 815 372 30 11 107 41 170 65 130 51 549 192 625 212 28 7 113 30 190 52
321 91 614 157 955 213 527 88 890 122 1475 138 28 1 214 -3 415 -8z"/>
<path d="M18700 25674 c-91 -7 -217 -20 -280 -29 -63 -8 -133 -17 -155 -20
-82 -10 -325 -57 -470 -91 -388 -90 -773 -216 -1095 -360 -55 -24 -144 -64
-197 -87 -234 -104 -551 -283 -831 -470 -338 -224 -485 -338 -761 -592 -90
-82 -193 -177 -230 -210 -68 -61 -85 -79 -334 -352 -140 -154 -334 -393 -420
-518 -26 -39 -65 -95 -86 -125 -158 -226 -291 -450 -436 -735 -396 -782 -615
-1560 -685 -2430 -16 -192 -16 -704 -1 -905 85 -1113 438 -2137 1064 -3085
178 -270 370 -521 524 -687 48 -52 143 -155 210 -229 235 -259 571 -555 908
-800 169 -123 402 -277 518 -341 51 -28 103 -58 117 -68 40 -27 276 -151 380
-198 52 -24 142 -66 200 -92 221 -103 571 -230 850 -309 899 -255 1865 -305
2800 -145 185 31 452 88 550 117 30 9 98 28 150 43 350 101 622 208 1010 398
402 197 623 335 1055 656 235 175 499 415 742 672 171 181 232 251 324 369 15
19 70 88 124 154 116 145 393 559 497 745 214 383 219 394 390 785 63 144 182
473 258 710 39 124 169 652 180 733 5 37 18 121 29 187 99 582 94 536 94 835
l0 275 -52 310 c-47 283 -58 349 -76 470 -4 22 -42 182 -85 355 -82 328 -221
763 -305 955 -159 363 -212 480 -254 560 -237 446 -493 850 -696 1095 -39 47
-100 124 -137 171 -109 140 -465 513 -635 665 -265 237 -328 288 -588 473
-210 150 -253 178 -605 383 -162 95 -653 325 -761 356 -19 6 -86 29 -149 52
-63 23 -133 47 -155 54 -22 8 -58 20 -80 29 -69 27 -325 99 -435 122 -41 9
-124 27 -185 40 -227 48 -505 86 -795 110 -218 18 -770 18 -1000 -1z m850
-3579 c504 -71 930 -223 1325 -472 754 -474 1232 -1268 1330 -2208 19 -175 19
-253 0 -430 -42 -405 -166 -815 -350 -1159 -65 -122 -78 -143 -172 -278 -92
-134 -175 -230 -328 -383 -363 -363 -796 -610 -1345 -767 -92 -26 -334 -74
-475 -94 -150 -22 -602 -25 -775 -6 -1022 115 -1848 658 -2269 1492 -143 283
-228 562 -283 927 -20 131 -22 187 -22 493 1 325 2 355 28 510 107 661 362
1174 792 1590 353 342 776 574 1289 708 167 44 322 70 570 96 96 10 574 -3
685 -19z"/>
</g>
</svg>
