<?xml version="1.0" standalone="no"?>
<!DOCTYPE svg PUBLIC "-//W3C//DTD SVG 20010904//EN"
 "http://www.w3.org/TR/2001/REC-SVG-20010904/DTD/svg10.dtd">
<svg version="1.0" xmlns="http://www.w3.org/2000/svg"
 width="3840.000000pt" height="3421.000000pt" viewBox="0 0 3840.000000 3421.000000"
 preserveAspectRatio="xMidYMid meet">
<metadata>
Created by potrace 1.16, written by Peter Selinger 2001-2019
</metadata>
<g transform="translate(0.000000,3421.000000) scale(0.100000,-0.100000)"
fill="#000000" stroke="none">
<path d="M19043 33783 c-35 -2 -63 -8 -63 -13 0 -6 -18 -10 -40 -10 -28 0 -40
-4 -40 -14 0 -16 -41 -29 -65 -20 -16 7 -55 -25 -55 -46 0 -5 -13 -10 -30 -10
-20 0 -30 -5 -30 -15 0 -8 -6 -15 -14 -15 -8 0 -16 -7 -20 -15 -3 -8 -16 -15
-30 -15 -40 0 -56 -11 -56 -36 0 -21 -4 -24 -40 -24 -27 0 -43 -5 -46 -15 -4
-8 -12 -15 -20 -15 -8 0 -14 -5 -14 -11 0 -15 -65 -79 -80 -79 -5 0 -10 -7
-10 -15 0 -8 -7 -15 -15 -15 -8 0 -15 -7 -15 -15 0 -8 -7 -15 -15 -15 -8 0
-15 -7 -15 -15 0 -8 -7 -15 -15 -15 -8 0 -15 -7 -15 -15 0 -10 -10 -15 -30
-15 -20 0 -30 -5 -30 -15 0 -8 -7 -15 -15 -15 -8 0 -15 -7 -15 -15 0 -8 -7
-15 -15 -15 -8 0 -15 -7 -15 -15 0 -8 -7 -15 -15 -15 -8 0 -15 -7 -15 -15 0
-8 -7 -15 -15 -15 -8 0 -15 -4 -15 -10 0 -11 -36 -50 -46 -50 -11 0 -74 -68
-74 -80 0 -5 -7 -10 -15 -10 -8 0 -15 -7 -15 -15 0 -11 -12 -15 -45 -15 -43 0
-45 -1 -45 -30 0 -20 -5 -30 -15 -30 -8 0 -15 -7 -15 -15 0 -8 -7 -15 -15 -15
-8 0 -15 -7 -15 -15 0 -10 -10 -15 -30 -15 -27 0 -30 -3 -30 -30 0 -27 -3 -30
-30 -30 -22 0 -28 -4 -24 -15 4 -10 -5 -21 -25 -32 -17 -10 -31 -24 -31 -31 0
-22 -27 -42 -54 -42 -18 0 -44 -18 -86 -60 -34 -34 -65 -58 -69 -55 -11 6 -28
-14 -33 -40 -2 -11 -10 -19 -16 -17 -7 1 -12 -5 -12 -13 0 -9 -9 -15 -25 -15
-14 0 -28 -7 -31 -15 -4 -8 -12 -15 -20 -15 -9 0 -14 -11 -14 -30 0 -26 -4
-30 -26 -30 -17 0 -42 -17 -80 -55 -31 -30 -58 -55 -62 -55 -16 -1 -62 -51
-68 -74 -4 -19 -13 -26 -29 -26 -13 0 -25 -7 -29 -15 -3 -8 -12 -15 -21 -15
-8 0 -15 -7 -15 -15 0 -8 -7 -15 -15 -15 -8 0 -15 -7 -15 -15 0 -8 -4 -15 -10
-15 -5 0 -19 -9 -30 -20 -11 -11 -20 -24 -20 -30 0 -5 -13 -10 -30 -10 -16 0
-30 -4 -30 -10 0 -5 -9 -19 -20 -30 -11 -11 -24 -20 -30 -20 -5 0 -10 -7 -10
-15 0 -8 -7 -15 -15 -15 -8 0 -15 -7 -15 -15 0 -8 -7 -15 -15 -15 -8 0 -15 -8
-15 -18 0 -27 -20 -42 -57 -42 -23 0 -33 -5 -33 -15 0 -8 -7 -15 -15 -15 -8 0
-15 -7 -15 -15 0 -9 -9 -15 -24 -15 -26 0 -36 -16 -36 -58 -1 -28 -42 -68 -59
-57 -5 3 -21 1 -35 -5 -19 -7 -26 -17 -26 -35 0 -21 -5 -25 -30 -25 -27 0 -30
-3 -30 -30 0 -27 -3 -30 -30 -30 -25 0 -30 -4 -30 -23 0 -18 -11 -28 -50 -45
-28 -12 -55 -22 -60 -22 -6 0 -10 -7 -10 -15 0 -8 -7 -15 -15 -15 -8 0 -15 -7
-15 -15 0 -8 -7 -15 -15 -15 -8 0 -15 -7 -15 -15 0 -8 -7 -15 -15 -15 -8 0
-15 -7 -15 -15 0 -8 -7 -15 -15 -15 -8 0 -15 -7 -15 -15 0 -8 -7 -15 -15 -15
-8 0 -15 -7 -15 -15 0 -8 -7 -15 -15 -15 -8 0 -15 -7 -15 -15 0 -10 -10 -15
-30 -15 -25 0 -30 -4 -30 -23 0 -12 -7 -33 -16 -45 -13 -19 -22 -22 -45 -17
-23 5 -31 3 -36 -12 -3 -10 -17 -28 -30 -40 -13 -12 -23 -27 -23 -33 0 -5 -4
-10 -10 -10 -13 0 -50 -37 -50 -50 0 -5 -7 -10 -15 -10 -8 0 -15 -7 -15 -15 0
-8 -5 -15 -10 -15 -21 0 -110 -87 -110 -107 0 -8 -12 -13 -31 -13 -26 0 -31
-3 -26 -20 3 -11 1 -17 -5 -14 -5 3 -20 3 -34 0 -17 -5 -24 -13 -24 -31 0 -21
-5 -25 -29 -25 -25 0 -30 -4 -33 -27 -2 -22 -9 -29 -30 -31 -20 -2 -28 -9 -28
-22 0 -21 -27 -40 -57 -40 -22 0 -63 -42 -63 -64 0 -18 -34 -56 -50 -56 -5 0
-10 -7 -10 -15 0 -8 -6 -15 -14 -15 -7 0 -19 -6 -26 -14 -6 -8 -26 -16 -43
-18 -27 -2 -33 -8 -35 -30 -2 -16 -8 -28 -13 -28 -11 0 -49 -37 -49 -49 0 -5
-13 -11 -30 -14 -24 -5 -30 -12 -30 -32 0 -21 -5 -25 -29 -25 -24 0 -30 -5
-34 -30 -5 -21 -12 -30 -26 -30 -28 0 -90 -33 -91 -47 0 -7 -7 -13 -15 -13 -8
0 -15 -7 -15 -15 0 -8 -7 -15 -15 -15 -8 0 -15 -6 -15 -13 0 -16 -62 -77 -78
-77 -7 0 -12 -7 -12 -15 0 -8 -8 -15 -19 -15 -20 0 -45 -23 -35 -33 10 -9 -38
-57 -57 -57 -9 0 -59 -42 -112 -92 -52 -51 -108 -105 -124 -120 -15 -15 -39
-41 -53 -58 -18 -22 -32 -30 -57 -30 -23 0 -36 -6 -40 -17 -10 -25 -29 -43
-47 -43 -9 0 -16 -11 -18 -27 -2 -21 -9 -29 -27 -31 -13 -2 -35 -17 -49 -33
-13 -17 -26 -28 -29 -26 -10 10 -73 -67 -73 -89 0 -21 -4 -24 -40 -24 -39 0
-80 -26 -80 -50 0 -5 -7 -10 -15 -10 -8 0 -15 -7 -15 -15 0 -8 -7 -15 -15 -15
-8 0 -15 -7 -15 -15 0 -8 -8 -15 -18 -15 -23 0 -42 -19 -42 -42 0 -10 -7 -18
-15 -18 -8 0 -15 -7 -15 -15 0 -8 -7 -15 -15 -15 -8 0 -15 -7 -15 -15 0 -8 -8
-15 -18 -15 -23 0 -42 -19 -42 -42 0 -13 -8 -18 -30 -18 -20 0 -30 -5 -30 -15
0 -8 -5 -15 -11 -15 -6 0 -24 -13 -41 -30 -16 -16 -33 -30 -37 -30 -16 0 -91
-85 -91 -102 0 -11 -7 -18 -18 -18 -10 0 -37 -9 -60 -20 -33 -16 -42 -26 -42
-45 0 -21 -5 -25 -30 -25 -24 0 -30 -4 -30 -21 0 -14 -10 -24 -30 -32 -16 -6
-30 -15 -30 -19 0 -11 -38 -48 -50 -48 -5 0 -10 -7 -10 -15 0 -8 -7 -15 -15
-15 -8 0 -15 -7 -15 -15 0 -8 -7 -15 -15 -15 -8 0 -15 -7 -15 -15 0 -8 -7 -15
-15 -15 -8 0 -15 -7 -15 -15 0 -8 -7 -15 -15 -15 -8 0 -15 -7 -15 -15 0 -8 -8
-15 -19 -15 -10 0 -24 -7 -31 -15 -7 -8 -19 -15 -26 -15 -8 0 -14 -7 -14 -15
0 -8 -7 -15 -15 -15 -8 0 -15 -7 -15 -15 0 -10 -10 -15 -30 -15 -27 0 -30 -3
-30 -29 0 -25 -4 -30 -27 -33 -22 -2 -29 -9 -31 -30 -3 -24 -8 -28 -33 -28
-26 0 -29 -3 -29 -30 0 -27 -3 -30 -30 -30 -20 0 -30 -5 -30 -15 0 -8 -7 -15
-16 -15 -12 0 -15 -7 -12 -29 4 -28 3 -29 -16 -15 -26 18 -46 18 -46 -1 0 -8
-7 -15 -15 -15 -10 0 -15 -10 -15 -30 0 -20 -5 -30 -15 -30 -8 0 -15 -7 -15
-15 0 -10 -10 -15 -30 -15 -20 0 -30 -5 -30 -15 0 -8 -7 -15 -15 -15 -8 0 -15
-7 -15 -15 0 -8 -7 -15 -15 -15 -8 0 -15 -7 -15 -15 0 -8 -7 -15 -15 -15 -8 0
-15 -6 -15 -14 0 -8 -10 -16 -22 -18 -13 -2 -29 -15 -36 -30 -7 -16 -17 -28
-23 -28 -5 0 -9 -7 -9 -16 0 -12 -6 -15 -25 -10 -19 5 -31 1 -48 -18 -36 -40
-47 -55 -47 -66 0 -5 -4 -10 -10 -10 -5 0 -25 -16 -45 -35 -19 -20 -35 -40
-35 -45 0 -6 -8 -10 -19 -10 -10 0 -24 -7 -31 -15 -7 -8 -20 -15 -30 -15 -23
0 -38 -19 -42 -55 -3 -28 -7 -30 -45 -33 -28 -2 -43 -8 -43 -17 0 -7 -7 -15
-15 -19 -8 -3 -15 -17 -15 -31 0 -21 -5 -25 -29 -25 -24 0 -30 -5 -34 -30 -5
-24 -12 -30 -32 -30 -14 0 -25 -6 -25 -13 0 -17 -32 -47 -49 -47 -21 0 -71
-43 -71 -62 0 -27 -36 -58 -69 -58 -30 0 -45 -13 -46 -40 0 -9 -11 -16 -27
-18 -21 -3 -27 -9 -30 -30 -2 -21 -9 -28 -30 -30 -21 -3 -27 -9 -30 -30 -3
-23 -8 -27 -38 -30 -37 -3 -69 -33 -70 -64 0 -10 -4 -18 -9 -18 -12 0 -61 -47
-61 -60 0 -5 -7 -10 -15 -10 -8 0 -15 -7 -15 -15 0 -10 -10 -15 -30 -15 -20 0
-30 -5 -30 -15 0 -8 -7 -15 -15 -15 -8 0 -15 -4 -15 -10 0 -13 -37 -50 -50
-50 -5 0 -10 -7 -10 -15 0 -8 -7 -15 -15 -15 -8 0 -15 -7 -15 -15 0 -8 -7 -15
-15 -15 -8 0 -15 -7 -15 -15 0 -8 -7 -15 -15 -15 -8 0 -15 -7 -15 -15 0 -8 -6
-15 -14 -15 -8 0 -16 -7 -20 -15 -3 -8 -13 -15 -23 -15 -20 0 -93 -63 -93 -79
0 -6 -7 -11 -15 -11 -8 0 -15 -7 -15 -15 0 -8 -4 -15 -10 -15 -5 0 -20 -9 -32
-20 -13 -12 -30 -27 -38 -34 -8 -8 -31 -22 -50 -32 -19 -11 -35 -25 -36 -31
-2 -29 -4 -34 -13 -29 -5 3 -14 -1 -21 -9 -7 -8 -25 -15 -41 -15 -24 0 -29 -4
-29 -25 0 -20 -6 -27 -30 -31 -26 -6 -30 -11 -30 -39 0 -29 -2 -31 -30 -27
-26 4 -30 1 -30 -18 0 -15 -9 -25 -30 -33 -16 -6 -30 -17 -30 -24 0 -8 -12
-13 -30 -13 -20 0 -30 -5 -30 -15 0 -8 -7 -15 -15 -15 -8 0 -15 -7 -15 -15 0
-8 -7 -15 -15 -15 -8 0 -15 -7 -15 -15 0 -8 -4 -15 -10 -15 -15 0 -50 -33 -50
-47 0 -7 -8 -13 -18 -13 -23 0 -42 -19 -42 -41 0 -12 -9 -19 -27 -21 -22 -2
-29 -9 -31 -30 -2 -16 -9 -28 -18 -28 -8 0 -14 -7 -14 -15 0 -10 -10 -15 -30
-15 -20 0 -30 -5 -30 -15 0 -8 -7 -15 -15 -15 -10 0 -15 -10 -15 -30 0 -27 -3
-30 -30 -30 -20 0 -30 -5 -30 -15 0 -8 -6 -15 -14 -15 -8 0 -17 -11 -20 -25
-5 -18 -13 -25 -31 -25 -14 0 -33 -8 -43 -18 -39 -41 -69 -78 -75 -95 -3 -9
-11 -17 -17 -17 -7 0 -25 -13 -42 -30 -16 -16 -36 -30 -44 -30 -8 0 -14 -6
-14 -14 0 -9 -12 -16 -27 -18 -20 -2 -29 -9 -31 -26 -3 -16 -12 -25 -33 -29
-16 -3 -29 -12 -29 -19 0 -8 -7 -14 -15 -14 -8 0 -15 -7 -15 -15 0 -8 -7 -15
-15 -15 -8 0 -15 -7 -15 -15 0 -8 -7 -15 -15 -15 -8 0 -15 -7 -15 -15 0 -8 -6
-15 -13 -15 -7 0 -17 -10 -22 -22 -6 -13 -20 -27 -32 -33 -13 -5 -23 -15 -23
-22 0 -8 -13 -13 -31 -13 -26 0 -30 -3 -26 -19 3 -14 1 -18 -10 -14 -16 6 -53
-24 -53 -44 0 -7 -4 -13 -10 -13 -13 0 -50 -37 -50 -50 0 -5 -13 -10 -30 -10
-27 0 -30 -3 -30 -30 0 -27 -3 -30 -30 -30 -27 0 -30 -3 -30 -30 0 -27 -3 -30
-30 -30 -20 0 -30 -5 -30 -15 0 -8 -7 -15 -15 -15 -8 0 -15 -7 -15 -15 0 -8
-8 -15 -19 -15 -10 0 -24 -7 -31 -15 -7 -8 -19 -15 -26 -15 -8 0 -14 -7 -14
-15 0 -8 -6 -15 -13 -15 -14 0 -47 -35 -47 -50 0 -6 -7 -10 -15 -10 -8 0 -15
-7 -15 -15 0 -8 -7 -15 -15 -15 -8 0 -15 -6 -15 -13 0 -7 -13 -18 -30 -24 -20
-8 -30 -18 -30 -32 0 -17 -6 -21 -30 -21 -23 0 -30 -5 -30 -19 0 -11 -7 -26
-15 -35 -8 -8 -15 -19 -15 -25 0 -15 -27 -14 -33 2 -5 14 -17 5 -21 -15 -1 -7
-13 -30 -25 -50 -17 -28 -30 -38 -48 -38 -13 0 -22 -4 -18 -9 3 -6 -4 -15 -15
-21 -11 -6 -34 -24 -50 -40 -17 -17 -35 -30 -40 -30 -6 0 -10 -5 -10 -11 0
-16 -26 -39 -44 -39 -9 0 -16 -4 -16 -10 0 -15 -35 -47 -59 -55 -12 -3 -21
-11 -21 -16 0 -5 -9 -9 -20 -9 -12 0 -20 -7 -20 -16 0 -19 -24 -44 -42 -44 -7
0 -18 -10 -23 -22 -6 -13 -20 -27 -33 -33 -12 -5 -22 -15 -22 -22 0 -7 -7 -13
-15 -13 -8 0 -15 -7 -15 -15 0 -10 -10 -15 -30 -15 -20 0 -30 -5 -30 -15 0 -8
-7 -15 -15 -15 -8 0 -15 -7 -15 -16 0 -20 -24 -44 -44 -44 -9 0 -16 -7 -16
-15 0 -10 -10 -15 -30 -15 -27 0 -30 -3 -30 -30 0 -27 -3 -30 -30 -30 -27 0
-30 -3 -30 -30 0 -27 -3 -30 -30 -30 -20 0 -30 -5 -30 -15 0 -8 -7 -15 -15
-15 -8 0 -15 -7 -15 -15 0 -9 -9 -15 -25 -15 -14 0 -28 -7 -31 -15 -4 -8 -12
-15 -20 -15 -8 0 -14 -4 -14 -10 0 -12 -68 -80 -80 -80 -6 0 -10 -7 -10 -15 0
-8 -7 -15 -15 -15 -8 0 -15 -7 -15 -15 0 -8 -7 -15 -15 -15 -8 0 -15 -7 -15
-15 0 -8 -7 -15 -15 -15 -8 0 -15 -6 -15 -14 0 -9 -12 -16 -27 -18 -22 -2 -29
-9 -31 -30 -2 -16 -9 -28 -18 -28 -8 0 -14 -7 -14 -15 0 -10 -10 -15 -30 -15
-20 0 -30 -5 -30 -15 0 -8 -7 -15 -15 -15 -8 0 -15 -7 -15 -15 0 -8 -7 -15
-15 -15 -8 0 -15 -7 -15 -16 0 -10 -6 -14 -15 -10 -10 4 -15 -1 -15 -14 0 -12
-5 -17 -14 -14 -8 3 -16 -4 -19 -17 -4 -13 -9 -20 -12 -17 -4 3 -25 -11 -48
-33 -80 -73 -124 -109 -136 -109 -6 0 -11 -7 -11 -15 0 -8 -4 -15 -10 -15 -13
0 -50 -37 -50 -50 0 -5 -13 -10 -30 -10 -22 0 -30 -5 -30 -18 0 -23 -19 -42
-42 -42 -13 0 -18 -8 -18 -30 0 -27 -3 -30 -30 -30 -27 0 -30 -3 -30 -33 0
-32 -2 -33 -30 -29 -23 3 -30 0 -30 -12 0 -9 -7 -16 -15 -16 -8 0 -15 -7 -15
-15 0 -8 -7 -15 -15 -15 -10 0 -15 -10 -15 -30 0 -29 -2 -30 -45 -30 -33 0
-45 -4 -45 -15 0 -8 -7 -15 -15 -15 -8 0 -15 -7 -15 -15 0 -8 -4 -15 -10 -15
-13 0 -50 -37 -50 -49 0 -5 -12 -11 -27 -13 -21 -2 -29 -9 -31 -28 -2 -20 -14
-31 -47 -45 -25 -11 -45 -26 -45 -32 0 -7 -7 -13 -15 -13 -10 0 -15 -10 -15
-30 0 -27 -3 -30 -30 -30 -20 0 -30 -5 -30 -15 0 -8 -8 -15 -19 -15 -10 0 -24
-7 -31 -15 -7 -8 -19 -15 -27 -15 -19 0 -43 -25 -43 -44 0 -9 -4 -16 -9 -16
-22 0 -66 -52 -63 -74 4 -28 -23 -54 -32 -31 -7 20 -46 20 -46 0 0 -8 -7 -15
-15 -15 -10 0 -15 -10 -15 -30 0 -27 -3 -30 -30 -30 -22 0 -30 -5 -30 -17 0
-18 -60 -73 -79 -73 -6 0 -11 -7 -11 -15 0 -8 -7 -15 -15 -15 -8 0 -15 -7 -15
-15 0 -8 -7 -15 -15 -15 -8 0 -15 -7 -15 -15 0 -8 -7 -15 -15 -15 -8 0 -15 -7
-15 -15 0 -8 -7 -15 -15 -15 -8 0 -15 -7 -15 -15 0 -8 -9 -15 -20 -15 -11 0
-20 -4 -20 -10 0 -5 -11 -12 -25 -16 -14 -3 -25 -12 -25 -20 0 -9 -11 -14 -30
-14 -27 0 -30 -3 -30 -30 0 -27 -3 -30 -30 -30 -27 0 -30 -3 -30 -30 0 -27 -3
-30 -31 -30 -19 0 -28 -4 -24 -11 4 -6 -2 -13 -13 -16 -13 -3 -18 -11 -15 -19
3 -9 -2 -14 -14 -14 -16 0 -19 -5 -15 -30 4 -28 2 -30 -26 -30 -17 0 -37 -6
-44 -13 -7 -7 -21 -16 -31 -20 -9 -3 -17 -11 -17 -16 0 -5 -11 -12 -25 -15
-15 -4 -27 -16 -31 -30 -3 -14 -16 -27 -30 -30 -14 -4 -26 -16 -30 -31 -3 -14
-12 -25 -20 -25 -8 0 -14 -6 -14 -14 0 -8 -11 -17 -25 -20 -14 -4 -25 -11 -25
-16 0 -6 -7 -10 -15 -10 -9 0 -18 -7 -21 -15 -4 -8 -12 -15 -20 -15 -8 0 -14
-7 -14 -15 0 -8 -5 -15 -10 -15 -6 0 -19 -8 -29 -17 -11 -10 -33 -29 -48 -44
-15 -14 -36 -28 -46 -32 -9 -3 -17 -11 -17 -17 0 -5 -7 -10 -15 -10 -8 0 -15
-7 -15 -15 0 -8 -7 -15 -15 -15 -8 0 -15 -6 -15 -13 0 -17 -59 -86 -60 -69 0
22 -18 13 -24 -13 -4 -14 -13 -25 -21 -25 -8 0 -15 -7 -15 -15 0 -10 -10 -15
-30 -15 -26 0 -30 -4 -30 -27 0 -23 -8 -31 -45 -48 -25 -11 -45 -25 -45 -32 0
-7 -7 -13 -15 -13 -8 0 -15 -7 -15 -16 0 -19 -24 -44 -42 -44 -7 0 -18 -10
-23 -22 -6 -13 -20 -27 -32 -33 -13 -5 -23 -15 -23 -22 0 -7 -7 -13 -15 -13
-8 0 -15 -7 -15 -15 0 -11 -12 -15 -45 -15 -43 0 -45 -1 -45 -30 0 -22 -5 -30
-18 -30 -23 0 -42 -19 -42 -42 0 -13 -8 -18 -30 -18 -27 0 -30 -3 -30 -30 0
-27 -3 -30 -30 -30 -27 0 -30 -3 -30 -30 0 -27 -3 -30 -30 -30 -21 0 -30 -5
-30 -16 0 -23 -25 -44 -55 -44 -14 0 -28 -7 -31 -15 -4 -8 -13 -15 -21 -15
-11 0 -13 -7 -8 -30 6 -25 4 -30 -13 -30 -11 0 -25 -7 -32 -15 -7 -8 -21 -15
-31 -15 -11 0 -19 -7 -19 -16 0 -10 -6 -14 -15 -10 -10 4 -15 -1 -15 -14 0
-11 -7 -20 -15 -20 -8 0 -15 -7 -15 -16 0 -10 -6 -14 -15 -10 -10 4 -15 -1
-15 -14 0 -13 -5 -18 -15 -14 -9 4 -15 0 -15 -10 0 -9 -6 -16 -14 -16 -8 0
-31 -15 -50 -34 -20 -18 -38 -31 -40 -29 -6 6 -46 -35 -46 -47 0 -5 -7 -10
-15 -10 -8 0 -15 -7 -15 -15 0 -8 -7 -15 -15 -15 -8 0 -15 -6 -15 -13 0 -14
-58 -39 -72 -31 -5 3 -6 -6 -2 -20 4 -16 2 -26 -5 -26 -6 0 -11 -7 -11 -15 0
-11 -12 -15 -45 -15 -43 0 -45 -1 -45 -29 0 -33 -22 -61 -49 -61 -22 0 -41
-19 -41 -42 0 -10 -7 -18 -15 -18 -8 0 -15 -7 -15 -15 0 -10 -10 -15 -29 -15
-25 0 -30 -4 -33 -27 -2 -22 -9 -29 -30 -31 -24 -3 -28 -8 -28 -33 0 -26 -3
-29 -30 -29 -16 0 -30 -4 -30 -10 0 -15 -38 -50 -55 -50 -8 0 -15 -4 -15 -10
0 -5 -11 -12 -25 -16 -14 -3 -25 -12 -25 -20 0 -8 -10 -14 -25 -14 -20 0 -27
-6 -31 -30 -4 -20 -13 -30 -24 -30 -11 0 -24 -13 -32 -30 -7 -16 -20 -30 -28
-30 -21 0 -40 -20 -40 -42 0 -13 -8 -18 -30 -18 -18 0 -30 -5 -30 -13 0 -7 -6
-19 -12 -25 -7 -7 -13 -20 -13 -29 0 -10 -9 -17 -25 -17 -22 -1 -70 -36 -70
-51 0 -9 -40 -45 -50 -45 -6 0 -10 -4 -10 -10 0 -5 -6 -10 -13 -10 -8 0 -28
-16 -46 -35 -17 -19 -39 -35 -47 -35 -10 0 -14 -6 -10 -15 3 -10 -1 -15 -12
-15 -9 -1 -28 -14 -42 -30 -14 -17 -34 -30 -47 -30 -16 0 -21 -4 -17 -15 4 -9
0 -15 -10 -15 -9 0 -16 -7 -16 -15 0 -8 -7 -15 -15 -15 -8 0 -15 -7 -15 -15 0
-8 -7 -15 -15 -15 -8 0 -15 -7 -15 -15 0 -8 -7 -15 -15 -15 -8 0 -15 -5 -15
-10 0 -16 -31 -44 -74 -65 -21 -11 -40 -26 -43 -32 -3 -7 -11 -13 -19 -13 -8
0 -14 -6 -14 -14 0 -8 -7 -16 -15 -20 -8 -3 -15 -16 -15 -29 0 -34 -36 -64
-59 -50 -21 13 -41 0 -58 -39 -9 -20 -20 -28 -37 -28 -19 0 -25 -6 -28 -27 -2
-22 -9 -29 -30 -31 -17 -2 -28 -9 -28 -18 0 -20 -24 -44 -44 -44 -9 0 -16 -7
-16 -15 0 -8 -7 -15 -15 -15 -8 0 -15 -6 -15 -14 0 -8 -14 -17 -30 -21 -17 -4
-30 -11 -30 -16 0 -5 -7 -9 -15 -9 -8 0 -15 -7 -15 -15 0 -8 -7 -15 -15 -15
-8 0 -15 -7 -15 -15 0 -8 -7 -15 -15 -15 -8 0 -15 -6 -15 -14 0 -8 -11 -17
-25 -20 -14 -4 -27 -16 -30 -29 -4 -13 -16 -27 -28 -32 -12 -6 -26 -20 -32
-32 -5 -13 -13 -23 -17 -23 -12 0 -48 -38 -48 -50 0 -5 -7 -10 -15 -10 -8 0
-15 -8 -15 -19 0 -10 -7 -24 -15 -31 -8 -7 -15 -19 -15 -27 0 -18 -24 -43 -41
-43 -21 0 -38 -32 -26 -51 7 -12 5 -23 -9 -42 -10 -15 -25 -27 -31 -27 -8 0
-13 -13 -13 -30 0 -20 -5 -30 -15 -30 -8 0 -15 -5 -15 -11 0 -6 -7 -17 -15
-26 -8 -8 -12 -19 -9 -25 4 -6 -1 -17 -10 -24 -12 -8 -20 -32 -23 -74 -3 -33
-10 -63 -14 -66 -13 -7 -11 -351 1 -359 5 -3 10 -28 10 -54 0 -34 6 -55 20
-71 20 -23 24 -34 20 -59 -3 -21 21 -61 37 -61 8 0 13 -12 13 -30 0 -16 4 -30
10 -30 5 0 20 -10 31 -21 19 -19 20 -25 9 -43 -9 -14 -10 -21 -1 -24 6 -2 11
-10 11 -17 0 -8 23 -35 51 -62 29 -26 58 -54 65 -60 7 -7 17 -13 23 -13 6 0
11 -6 11 -14 0 -8 6 -16 14 -19 8 -3 16 -16 18 -29 2 -19 10 -24 41 -26 36 -3
77 -31 77 -52 0 -5 6 -10 14 -10 8 0 16 -7 20 -15 3 -10 19 -15 46 -15 38 0
40 -2 40 -30 l0 -30 60 0 c47 0 60 -3 60 -15 0 -9 10 -16 28 -17 15 -1 52 -3
82 -6 186 -14 480 0 504 23 7 8 31 15 52 17 34 3 39 6 42 31 3 26 5 27 63 27
48 0 59 3 59 16 0 22 29 43 58 44 12 0 25 7 28 15 4 8 18 15 34 15 37 0 60 24
60 61 0 26 4 29 30 29 18 0 42 11 63 30 19 17 37 30 41 30 10 0 46 39 46 50 0
6 7 10 15 10 8 0 15 5 15 10 0 13 37 50 50 50 5 0 10 7 10 15 0 8 7 15 15 15
8 0 15 6 15 14 0 8 11 17 25 20 15 4 27 16 31 31 5 19 13 25 35 25 16 0 29 5
29 11 0 14 60 69 88 80 12 5 25 17 29 26 3 10 19 30 35 45 15 15 28 31 28 36
0 6 10 12 23 16 12 3 34 17 49 31 15 14 32 25 38 25 5 0 10 7 10 15 0 10 10
15 30 15 27 0 30 3 30 31 0 19 4 29 12 27 11 -4 31 8 68 43 9 8 22 13 28 11 8
-2 12 8 12 27 0 28 3 31 30 31 24 0 30 4 30 21 0 14 10 24 30 32 17 6 30 17
30 24 0 7 5 13 11 13 6 0 17 7 25 15 9 8 24 15 35 15 10 0 19 7 19 15 0 8 7
15 15 15 8 0 15 7 15 15 0 8 4 15 10 15 13 0 50 37 50 50 0 6 8 10 18 10 10 0
23 5 30 12 7 7 12 20 12 30 0 10 7 18 16 18 18 0 44 23 44 40 0 6 13 13 29 16
23 5 31 12 33 33 3 23 8 26 45 29 35 3 42 7 49 30 4 15 6 32 5 39 -1 7 10 15
24 19 14 3 25 10 25 15 0 5 6 9 13 9 15 0 87 65 87 79 0 6 11 13 25 17 14 3
25 12 25 19 0 8 12 15 28 17 21 2 28 9 30 31 2 15 9 27 18 27 8 0 14 4 14 9 0
5 10 13 23 17 12 4 42 27 67 53 25 25 56 55 70 67 14 11 39 37 57 57 17 21 35
37 40 37 13 1 46 32 77 74 17 22 72 82 123 134 l94 94 22 -18 c49 -41 57 -54
57 -88 0 -23 6 -38 18 -45 16 -9 17 -379 22 -7488 3 -4113 7 -7469 9 -7458 7
34 19 -94 20 -215 1 -114 18 -239 40 -293 6 -16 11 -48 11 -72 0 -32 8 -56 30
-88 22 -34 30 -56 30 -90 0 -29 5 -49 14 -54 9 -6 15 -36 18 -100 3 -62 9 -98
19 -110 8 -10 24 -35 34 -56 11 -20 23 -37 27 -37 5 0 8 -13 8 -30 0 -18 5
-30 13 -30 8 0 22 -9 32 -20 10 -11 15 -20 11 -20 -4 0 0 -10 8 -22 10 -14 16
-44 16 -75 0 -29 4 -53 8 -53 5 0 15 -11 22 -25 7 -14 22 -25 32 -25 10 0 21
-8 25 -18 15 -45 45 -101 64 -118 14 -12 18 -25 14 -41 -4 -18 5 -33 41 -70
25 -27 52 -63 60 -81 8 -18 19 -30 24 -27 6 3 10 1 10 -5 0 -21 86 -110 107
-110 7 0 13 -7 13 -15 0 -8 5 -15 10 -15 6 0 10 -13 10 -28 0 -28 26 -62 47
-62 6 0 16 -14 22 -30 7 -23 16 -30 35 -30 22 0 26 -5 26 -28 0 -22 7 -30 30
-39 16 -6 30 -17 30 -25 0 -8 14 -22 30 -31 17 -10 30 -27 30 -38 0 -14 7 -19
26 -19 25 0 84 -48 84 -68 0 -5 12 -13 26 -16 14 -4 38 -20 54 -36 16 -17 34
-30 40 -30 5 0 10 -7 10 -15 0 -10 10 -15 30 -15 17 0 30 -4 30 -10 0 -13 37
-50 50 -50 5 0 10 -4 10 -10 0 -5 12 -13 27 -16 15 -4 34 -13 41 -21 7 -7 21
-13 30 -13 10 0 23 -14 30 -30 11 -23 20 -30 41 -30 18 0 44 -14 72 -39 36
-31 55 -39 101 -45 31 -4 62 -14 69 -22 6 -8 18 -14 25 -14 8 0 14 -5 14 -11
0 -20 45 -48 76 -49 17 0 37 -7 44 -15 7 -8 23 -15 37 -15 13 0 26 -7 29 -15
3 -8 22 -17 42 -20 105 -16 158 -30 165 -42 5 -8 28 -13 62 -13 31 0 55 -5 55
-10 0 -20 119 -52 260 -70 331 -42 -341 -40 12020 -40 10337 0 11698 2 11795
15 297 41 385 58 436 84 22 12 59 21 82 21 23 0 51 6 62 13 11 8 56 21 100 31
44 10 91 23 105 30 14 7 37 16 53 20 15 3 27 11 27 16 0 6 14 10 30 10 20 0
30 5 30 15 0 8 6 15 14 15 8 0 16 7 20 15 3 8 15 15 26 15 11 0 31 6 43 14 12
8 41 17 65 21 23 4 42 10 42 14 0 4 20 17 45 29 25 12 45 26 45 32 0 5 13 10
29 10 23 0 30 5 33 21 3 23 6 25 81 59 26 12 47 25 47 29 0 4 30 22 68 41 37
19 85 54 107 76 22 23 50 45 63 48 12 4 22 12 22 17 0 5 4 9 8 9 5 0 31 21 59
47 27 27 77 73 109 103 70 66 154 159 154 171 0 5 7 9 15 9 8 0 15 7 15 15 0
8 6 15 14 15 8 0 16 10 20 23 3 13 17 29 31 35 14 6 25 17 25 24 0 7 21 36 45
63 25 28 45 54 45 59 0 4 14 25 30 46 17 21 30 45 30 53 0 8 6 17 13 20 6 3
21 22 32 43 11 22 25 43 32 47 7 4 13 19 13 32 0 18 5 25 20 25 18 0 43 30 38
47 -1 4 6 20 16 36 10 15 16 36 13 47 -3 11 -1 20 4 20 5 0 9 7 9 15 0 8 9 24
20 35 11 11 20 23 20 26 0 3 7 12 15 20 8 9 15 28 15 44 0 18 11 42 30 63 17
19 30 46 30 60 0 13 7 30 15 37 10 8 15 31 15 68 0 35 5 61 15 72 8 9 15 31
17 49 1 17 8 37 15 43 7 6 13 18 13 27 0 9 7 25 15 35 9 12 15 42 15 79 0 40
7 75 24 110 17 38 25 80 30 152 4 54 10 102 14 105 4 3 8 59 10 125 2 66 7
172 12 235 6 70 10 2965 10 7330 0 4581 3 7264 10 7350 5 74 9 174 10 222 0
107 4 118 42 118 29 0 99 -35 106 -52 2 -4 8 -8 13 -8 6 0 21 -12 35 -27 14
-16 35 -39 47 -53 13 -14 34 -41 47 -60 32 -47 180 -190 196 -190 7 0 17 -6
21 -13 4 -7 22 -23 39 -35 17 -11 59 -48 93 -82 35 -33 70 -60 77 -60 8 0 14
-5 14 -10 0 -20 61 -70 85 -70 21 0 25 -5 25 -30 0 -18 5 -30 13 -30 7 0 29
-13 47 -30 18 -16 40 -30 47 -30 7 0 13 -8 13 -18 0 -23 19 -42 42 -42 10 0
18 -7 18 -15 0 -8 7 -15 15 -15 8 0 15 -7 15 -15 0 -8 6 -15 13 -15 8 0 22 -9
32 -20 10 -11 23 -20 28 -20 5 0 20 -11 33 -25 13 -14 28 -25 34 -25 5 0 10
-7 10 -15 0 -8 7 -15 15 -15 8 0 15 -7 15 -15 0 -8 6 -15 14 -15 8 0 16 -7 20
-15 3 -8 17 -15 31 -15 18 0 25 -5 25 -20 0 -11 12 -27 28 -37 15 -10 37 -28
49 -40 12 -13 26 -23 30 -23 5 0 14 -13 21 -29 8 -18 22 -31 40 -34 15 -3 52
-30 82 -60 30 -30 61 -52 68 -50 7 3 12 -4 12 -17 0 -12 5 -18 10 -15 6 3 10
2 10 -3 0 -14 72 -82 87 -82 7 0 13 -7 13 -15 0 -8 7 -15 15 -15 8 0 15 -7 15
-15 0 -8 6 -15 13 -15 13 0 55 -33 114 -90 17 -16 34 -30 37 -30 9 0 76 -70
76 -80 0 -6 7 -10 15 -10 8 0 15 -7 15 -15 0 -9 9 -15 25 -15 14 0 28 -7 31
-15 4 -8 12 -15 20 -15 8 0 14 -7 14 -15 0 -8 7 -15 16 -15 18 0 44 -23 44
-39 0 -13 36 -51 49 -51 5 0 11 -7 15 -15 3 -8 10 -15 16 -15 6 0 25 -13 43
-30 18 -16 38 -30 45 -30 6 0 12 -7 12 -15 0 -8 7 -15 15 -15 8 0 15 -6 15
-12 1 -15 62 -48 88 -48 9 0 29 -11 44 -25 14 -13 38 -27 52 -31 14 -3 26 -12
26 -20 0 -9 12 -14 34 -14 18 0 39 -7 46 -15 7 -8 19 -15 26 -15 8 0 14 -4 14
-10 0 -5 17 -12 38 -16 20 -4 48 -14 62 -23 36 -24 438 -21 475 3 13 9 31 16
40 16 21 0 115 42 115 52 0 4 15 8 34 8 19 0 41 7 50 15 8 8 21 15 29 15 8 0
20 7 27 15 7 8 21 15 31 15 11 0 19 7 19 15 0 8 7 15 15 15 8 0 15 7 15 15 0
8 7 15 15 15 17 0 165 142 165 158 0 5 7 12 15 16 8 3 15 12 15 20 0 7 10 16
21 19 14 4 20 11 16 21 -3 8 1 20 9 26 8 7 14 18 14 25 0 7 7 15 15 19 8 3 15
17 15 31 0 14 4 25 8 25 9 0 37 61 47 103 4 15 11 27 16 27 4 0 11 17 14 38 4
20 11 51 16 69 16 51 13 309 -4 383 -8 36 -18 83 -22 104 -5 29 -9 36 -16 25
-6 -10 -9 -3 -9 24 0 21 -6 45 -12 52 -32 36 -38 45 -38 64 0 11 -6 24 -12 28
-18 11 -48 71 -48 94 0 11 -7 22 -15 25 -8 4 -15 12 -15 20 0 8 -7 14 -15 14
-9 0 -15 9 -15 23 0 21 -30 57 -48 57 -12 0 -42 39 -42 55 0 8 -7 15 -15 15
-8 0 -15 7 -15 15 0 8 -4 15 -10 15 -13 0 -50 37 -50 50 0 6 -7 10 -15 10 -8
0 -15 6 -15 14 0 8 -11 17 -25 20 -14 4 -29 14 -32 24 -11 29 -47 62 -69 62
-14 0 -24 8 -28 23 -3 13 -17 29 -31 37 -14 7 -25 17 -25 22 0 4 -7 8 -15 8
-8 0 -15 7 -15 15 0 8 -5 15 -10 15 -6 0 -21 10 -33 23 -12 12 -42 39 -67 59
-25 20 -60 50 -78 67 -18 17 -35 31 -37 31 -3 0 -20 15 -39 33 -62 57 -100 87
-113 87 -7 0 -13 5 -13 10 0 13 -37 50 -50 50 -5 0 -10 7 -10 15 0 8 -5 15
-12 15 -6 0 -18 7 -27 15 -67 62 -83 75 -90 75 -5 0 -11 7 -15 15 -3 8 -13 15
-21 15 -9 0 -13 5 -10 11 4 6 -2 13 -14 16 -11 3 -18 10 -15 15 3 5 -3 12 -15
15 -11 3 -18 9 -15 14 3 5 -6 14 -20 20 -14 7 -28 21 -32 31 -3 11 -19 25 -34
32 -16 6 -57 38 -92 70 -179 165 -215 196 -228 196 -6 0 -10 5 -10 10 0 13
-37 50 -50 50 -5 0 -10 7 -10 15 0 8 -9 15 -19 15 -11 0 -26 8 -33 18 -7 10
-25 27 -40 36 -16 10 -28 24 -28 31 0 7 -13 19 -30 27 -16 7 -30 19 -30 25 0
7 -4 13 -10 13 -5 0 -31 21 -57 48 -27 26 -70 65 -97 87 -26 22 -57 48 -67 58
-11 9 -21 17 -24 17 -9 0 -45 40 -45 50 0 6 -13 10 -30 10 -26 0 -30 3 -30 29
0 22 -6 30 -23 35 -13 3 -36 17 -51 31 -15 14 -31 25 -37 25 -5 0 -9 8 -9 18
0 10 -12 25 -27 33 -16 8 -33 21 -40 29 -7 8 -13 12 -13 8 0 -7 -32 17 -65 49
-7 7 -16 9 -19 5 -4 -3 -9 4 -13 16 -3 12 -9 20 -13 17 -4 -2 -24 16 -45 40
-21 25 -44 45 -51 45 -8 0 -14 7 -14 15 0 8 -5 15 -10 15 -6 0 -27 18 -49 40
-21 22 -41 40 -43 40 -2 0 -35 29 -74 65 -38 35 -75 65 -81 65 -7 0 -13 7 -13
15 0 8 -7 15 -15 15 -8 0 -15 7 -15 15 0 8 -4 15 -9 15 -6 0 -22 11 -37 25
-15 14 -38 28 -51 31 -13 4 -23 12 -23 20 0 8 -4 14 -10 14 -13 0 -50 37 -50
50 0 6 -7 10 -15 10 -8 0 -15 7 -15 15 0 8 -5 15 -11 15 -6 0 -30 20 -55 45
-24 25 -52 45 -64 45 -13 0 -20 7 -20 18 0 10 -5 23 -12 30 -7 7 -20 12 -30
12 -10 0 -18 7 -18 15 0 8 -7 15 -15 15 -8 0 -15 7 -15 15 0 8 -5 15 -10 15
-6 0 -27 17 -48 39 -44 45 -128 111 -142 111 -6 0 -10 7 -10 15 0 8 -8 15 -18
15 -23 0 -42 19 -42 42 0 11 -7 18 -19 18 -10 0 -24 7 -31 15 -7 8 -18 15 -25
15 -7 0 -16 11 -19 25 -4 15 -13 25 -25 25 -10 0 -29 16 -42 35 -13 19 -30 35
-36 35 -7 0 -13 7 -13 15 0 8 -4 15 -10 15 -5 0 -19 9 -30 20 -11 11 -20 25
-20 30 0 6 -7 10 -15 10 -8 0 -15 9 -15 19 0 11 -4 32 -10 46 -7 17 -11 1609
-14 4653 -2 2705 -8 4673 -13 4737 -8 98 -13 117 -46 179 -20 38 -37 79 -37
92 0 12 -3 24 -7 26 -16 6 -53 68 -53 86 0 11 -7 25 -15 32 -8 7 -15 29 -15
50 0 35 -9 47 -117 155 -115 115 -117 117 -154 111 -32 -5 -39 -2 -53 19 -14
21 -24 25 -64 25 -44 0 -48 2 -59 31 -12 31 -13 32 -65 26 -45 -4 -57 -2 -76
17 -19 16 -35 21 -78 20 -39 -1 -54 2 -54 12 0 7 -17 15 -42 19 -24 3 -1488 5
-3254 3 -2351 -2 -3215 -6 -3225 -14 -8 -6 -45 -14 -83 -17 -48 -3 -74 -10
-82 -21 -6 -9 -24 -16 -41 -16 -19 0 -39 -10 -58 -30 -20 -21 -38 -30 -60 -30
-22 0 -40 -9 -60 -30 -24 -26 -34 -29 -62 -24 -21 4 -33 2 -33 -5 0 -6 -7 -11
-16 -11 -22 0 -214 -197 -226 -232 -6 -15 -14 -28 -18 -28 -4 0 -6 -9 -3 -19
3 -12 -7 -37 -26 -65 -17 -24 -31 -56 -31 -70 0 -14 -4 -26 -9 -26 -15 0 -51
-69 -51 -98 0 -15 -6 -39 -14 -54 -32 -61 -46 -378 -50 -1128 -1 -239 2 -549
7 -689 8 -198 7 -272 -3 -337 -16 -104 -34 -111 -75 -30 -19 39 -34 55 -52 59
-22 4 -22 3 -8 -13 8 -9 15 -21 15 -27 0 -6 -27 17 -60 51 -33 35 -60 67 -60
73 0 6 -11 13 -24 17 -12 3 -35 23 -49 44 -15 21 -45 49 -67 62 -22 14 -40 28
-40 33 0 4 -7 7 -15 7 -8 0 -15 7 -15 15 0 9 -13 24 -30 33 -16 9 -30 23 -30
30 0 6 -7 12 -15 12 -8 0 -15 8 -15 18 0 20 -18 42 -36 42 -13 0 -115 90 -189
168 -27 29 -54 52 -58 52 -14 0 -77 54 -77 66 0 7 -10 9 -25 6 -18 -3 -26 1
-31 14 -11 36 -22 49 -37 46 -9 -1 -23 10 -31 26 -8 16 -23 32 -33 35 -38 13
-83 49 -83 67 0 16 -41 49 -62 50 -9 0 -27 13 -41 29 -13 16 -35 31 -48 33
-15 2 -25 12 -29 28 -4 15 -15 26 -30 30 -18 4 -26 14 -28 33 -2 15 -7 27 -10
27 -4 0 -22 14 -40 30 -18 17 -40 30 -48 30 -8 0 -20 11 -26 25 -6 14 -15 25
-20 25 -4 0 -16 8 -26 18 -26 25 -100 82 -106 82 -9 0 -76 70 -76 80 0 6 -7
10 -15 10 -8 0 -15 7 -15 15 0 9 -9 15 -25 15 -30 0 -65 32 -65 60 0 15 -9 22
-30 27 -16 3 -30 12 -30 19 0 8 -7 14 -15 14 -8 0 -15 7 -15 15 0 8 -5 15 -11
15 -7 0 -43 33 -82 73 -39 39 -86 81 -103 92 -52 32 -134 107 -134 122 0 7 -5
13 -11 13 -6 0 -38 27 -71 60 -32 33 -67 60 -78 60 -13 0 -20 8 -22 28 -2 21
-9 28 -30 30 -16 2 -28 9 -28 18 0 8 -7 14 -15 14 -8 0 -15 7 -15 15 0 8 -7
15 -15 15 -8 0 -15 4 -15 9 0 5 -13 12 -30 16 -21 5 -30 12 -30 27 0 13 -10
24 -30 31 -16 6 -30 16 -30 22 0 6 -10 15 -22 20 -13 6 -27 20 -33 33 -7 15
-18 22 -37 22 -24 0 -28 4 -28 30 0 27 -3 30 -30 30 -20 0 -30 5 -30 15 0 8
-7 15 -15 15 -8 0 -15 7 -15 15 0 9 -9 15 -25 15 -14 0 -28 7 -31 15 -4 8 -12
15 -20 15 -8 0 -14 4 -14 10 0 12 -68 80 -80 80 -6 0 -10 6 -10 13 0 7 -10 17
-22 22 -13 6 -27 20 -33 33 -5 12 -15 22 -22 22 -7 0 -13 7 -13 15 0 10 -10
15 -30 15 -24 0 -30 4 -30 23 0 27 -41 67 -69 67 -12 0 -21 6 -21 15 0 8 -7
15 -15 15 -8 0 -15 5 -15 10 0 6 -9 19 -20 30 -11 11 -24 20 -30 20 -5 0 -10
7 -10 15 0 8 -4 15 -10 15 -5 0 -19 9 -30 20 -11 11 -20 25 -20 30 0 6 -7 10
-15 10 -8 0 -15 7 -15 15 0 8 -7 15 -15 15 -8 0 -15 7 -15 15 0 8 -7 15 -15
15 -8 0 -15 7 -15 15 0 8 -4 15 -10 15 -12 0 -80 68 -80 80 0 4 -13 11 -30 15
-16 4 -30 11 -30 16 0 5 -13 9 -29 9 -24 0 -30 5 -34 30 -5 24 -12 30 -32 30
-21 0 -25 5 -25 30 0 27 -3 30 -30 30 -20 0 -30 5 -30 15 0 8 -4 15 -10 15 -5
0 -19 8 -29 18 -11 9 -26 22 -33 28 -22 19 -48 54 -48 64 0 6 -9 10 -19 10
-11 0 -26 7 -35 15 -8 8 -18 15 -23 15 -11 0 -43 37 -43 50 0 6 -7 10 -15 10
-8 0 -15 7 -15 15 0 8 -7 15 -15 15 -8 0 -15 7 -15 15 0 8 -9 15 -19 15 -11 0
-33 14 -49 30 -17 17 -33 30 -36 30 -10 0 -106 101 -106 111 0 6 -5 7 -10 4
-6 -3 -13 1 -16 9 -3 9 -12 16 -19 16 -7 0 -26 14 -42 30 -15 17 -32 30 -38
30 -5 0 -23 14 -39 30 -16 17 -38 30 -48 30 -19 0 -22 5 -32 53 -5 19 -13 27
-27 27 -34 0 -59 19 -59 45 0 18 -6 24 -27 27 -16 2 -28 8 -29 13 -2 25 -18
45 -35 45 -10 0 -19 4 -19 10 0 15 -33 50 -47 50 -7 0 -13 7 -13 15 0 10 -10
15 -30 15 -20 0 -30 5 -30 15 0 8 -7 15 -15 15 -8 0 -15 7 -15 15 0 8 -7 15
-15 15 -8 0 -15 6 -15 14 0 8 -12 16 -27 18 -20 2 -29 10 -33 28 -4 18 -13 26
-33 28 -22 3 -27 8 -27 33 0 26 -3 29 -30 29 -27 0 -30 3 -30 30 0 20 -5 30
-15 30 -8 0 -15 5 -15 10 0 6 -10 10 -22 10 -47 0 -68 12 -68 36 0 14 -7 27
-15 30 -8 4 -15 12 -15 20 0 8 -7 14 -15 14 -8 0 -15 4 -15 9 0 5 -13 12 -30
16 -16 4 -30 13 -30 21 0 8 -7 14 -15 14 -8 0 -15 7 -15 15 0 8 -7 15 -15 15
-8 0 -15 7 -15 15 0 8 -4 15 -10 15 -5 0 -19 9 -30 20 -11 11 -20 25 -20 30 0
6 -13 10 -30 10 -20 0 -30 5 -30 15 0 8 -7 15 -15 15 -8 0 -15 5 -15 10 0 6
-5 10 -11 10 -25 0 -77 33 -82 51 -4 16 -14 19 -60 19 -53 0 -56 1 -59 28 -3
24 -7 27 -41 28 -21 0 -42 5 -45 11 -4 6 -25 15 -47 19 -22 4 -45 12 -51 19
-12 11 -253 16 -391 8z m187 -2452 c0 -5 14 -12 30 -16 17 -4 30 -13 30 -21 0
-10 13 -14 45 -14 43 0 45 -2 45 -28 0 -26 29 -62 49 -62 5 0 11 -7 15 -15 3
-8 17 -15 31 -15 21 0 25 -5 25 -30 0 -26 3 -30 29 -30 24 0 30 -5 35 -30 4
-24 11 -30 31 -30 16 0 25 -6 25 -15 0 -8 7 -15 15 -15 8 0 15 -7 15 -15 0
-10 10 -15 30 -15 20 0 30 -5 30 -15 0 -8 7 -15 15 -15 9 0 15 -9 15 -25 0
-14 7 -28 15 -31 8 -4 15 -12 15 -20 0 -9 12 -14 36 -14 31 0 37 -4 47 -30 6
-16 16 -30 22 -30 6 0 22 -13 35 -30 14 -16 35 -29 48 -30 18 0 22 -6 22 -30
0 -27 3 -30 34 -30 36 0 66 -21 66 -46 0 -8 -6 -14 -12 -14 -20 -1 24 -30 44
-30 10 0 21 -7 24 -15 4 -8 12 -15 20 -15 15 0 94 -74 94 -88 0 -16 48 -62 65
-62 9 0 18 -7 21 -15 4 -8 12 -15 20 -15 8 0 14 -4 14 -9 0 -5 17 -20 38 -32
20 -12 49 -35 63 -51 14 -15 31 -28 37 -28 7 0 12 -7 12 -15 0 -8 7 -15 15
-15 8 0 15 -7 15 -15 0 -8 7 -15 15 -15 8 0 15 -6 15 -13 0 -14 35 -47 49 -47
5 0 11 -7 15 -15 3 -8 17 -15 31 -15 16 0 25 -6 25 -15 0 -8 5 -15 10 -15 10
0 50 -36 50 -45 0 -13 72 -73 94 -79 19 -5 26 -13 26 -31 0 -21 5 -25 29 -25
17 0 29 -5 28 -12 -1 -37 4 -48 24 -48 11 0 32 -13 47 -29 15 -15 43 -37 62
-47 19 -10 47 -32 62 -49 15 -16 28 -25 29 -20 0 6 4 0 10 -13 5 -13 13 -20
19 -17 5 3 10 -1 10 -9 0 -9 7 -16 15 -16 8 0 15 -7 15 -15 0 -8 5 -15 10 -15
6 0 19 -9 30 -20 11 -11 20 -24 20 -30 0 -5 14 -10 30 -10 20 0 30 -5 30 -15
0 -8 7 -15 15 -15 9 0 15 -9 15 -25 0 -26 4 -29 52 -39 19 -4 30 -15 34 -31 3
-14 12 -25 20 -25 8 0 14 -7 14 -15 0 -8 7 -15 15 -15 8 0 15 -7 15 -15 0 -8
5 -15 10 -15 6 0 52 -40 103 -90 139 -135 156 -150 172 -150 8 0 15 -7 15 -15
0 -10 10 -15 30 -15 27 0 30 -3 30 -30 0 -27 3 -30 30 -30 20 0 30 -5 30 -15
0 -8 7 -15 15 -15 8 0 15 -7 15 -15 0 -8 7 -15 15 -15 8 0 15 -7 15 -15 0 -8
7 -15 15 -15 8 0 15 -7 15 -15 0 -8 6 -15 13 -15 7 0 18 -13 24 -30 8 -20 18
-30 32 -30 12 0 21 -6 21 -15 0 -8 5 -15 11 -15 6 0 17 -7 25 -15 9 -8 31 -15
50 -15 30 0 34 -3 34 -26 0 -31 58 -91 92 -96 17 -2 24 -11 26 -30 3 -24 8
-28 33 -28 19 0 29 -5 29 -15 0 -8 7 -15 15 -15 8 0 15 -7 15 -15 0 -8 7 -15
15 -15 8 0 15 -7 15 -15 0 -8 5 -15 10 -15 12 0 50 -36 50 -47 0 -5 19 -17 41
-28 23 -10 44 -25 46 -32 3 -7 11 -13 19 -13 8 0 14 -7 14 -15 0 -8 7 -15 15
-15 8 0 15 -7 15 -15 0 -8 7 -15 15 -15 8 0 15 -7 15 -15 0 -8 7 -15 15 -15 8
0 15 -7 15 -15 0 -8 7 -15 15 -15 8 0 15 -7 15 -15 0 -10 10 -15 30 -15 18 0
30 -5 30 -13 0 -12 65 -77 76 -77 8 0 44 -40 44 -50 0 -5 7 -10 15 -10 8 0 15
-7 15 -15 0 -8 7 -15 15 -15 8 0 15 -7 15 -15 0 -8 5 -15 10 -15 6 0 24 -13
40 -30 16 -16 38 -30 50 -30 11 0 20 -6 20 -13 0 -7 14 -18 30 -24 19 -7 30
-18 30 -31 0 -13 9 -22 25 -26 14 -4 31 -18 37 -31 7 -16 19 -25 35 -25 19 0
23 -5 23 -30 0 -27 3 -30 30 -30 20 0 30 -5 30 -15 0 -8 7 -15 15 -15 8 0 15
-7 15 -15 0 -8 7 -15 15 -15 8 0 15 -7 15 -15 0 -8 7 -15 15 -15 8 0 15 -7 15
-15 0 -10 10 -15 30 -15 20 0 30 -5 30 -15 0 -8 7 -15 15 -15 8 0 15 -7 15
-15 0 -8 7 -15 15 -15 8 0 15 -7 15 -15 0 -8 7 -15 15 -15 8 0 15 -6 15 -14 0
-9 12 -16 28 -18 21 -2 28 -9 30 -30 2 -19 10 -28 25 -30 12 -2 27 -14 33 -26
7 -13 29 -36 50 -50 22 -15 41 -30 42 -34 2 -5 10 -8 18 -8 8 0 14 -7 14 -15
0 -8 9 -15 20 -15 13 0 28 -12 38 -30 9 -16 22 -31 29 -32 6 -2 45 -36 87 -75
42 -40 78 -73 81 -73 9 0 45 -40 45 -50 0 -5 8 -10 18 -10 10 0 75 -56 145
-125 69 -69 133 -125 140 -125 8 0 25 -11 38 -24 13 -13 34 -26 46 -30 12 -4
23 -17 25 -29 2 -15 11 -23 30 -25 19 -2 28 -10 30 -25 2 -12 13 -26 24 -32
12 -6 29 -17 38 -24 9 -7 16 -10 17 -5 0 5 4 -1 10 -14 5 -13 13 -20 19 -17 6
4 10 -6 10 -24 0 -28 3 -31 30 -31 20 0 30 -5 30 -15 0 -8 8 -15 19 -15 10 0
24 -7 31 -15 7 -8 19 -15 26 -15 8 0 14 -7 14 -15 0 -8 7 -15 15 -15 10 0 15
-10 15 -27 0 -36 27 -63 62 -63 18 0 28 -5 28 -15 0 -8 7 -15 15 -15 8 0 15
-7 15 -15 0 -8 4 -15 10 -15 15 0 50 -33 50 -47 0 -7 5 -13 10 -13 6 0 19 -9
30 -20 11 -11 20 -24 20 -30 0 -5 8 -10 19 -10 10 0 24 -7 31 -15 7 -8 17 -15
22 -15 13 0 40 -28 53 -54 6 -12 20 -25 33 -31 12 -5 22 -15 22 -22 0 -7 5
-13 10 -13 6 0 21 -10 33 -22 29 -30 83 -68 97 -68 5 0 10 -7 10 -15 0 -8 7
-15 15 -15 8 0 15 -8 15 -17 0 -30 30 -53 61 -46 22 4 29 2 29 -10 0 -8 7 -20
15 -27 8 -7 15 -21 15 -31 0 -14 7 -19 29 -19 25 0 30 -4 33 -27 2 -22 9 -29
31 -31 15 -2 27 -9 27 -18 0 -8 7 -14 15 -14 8 0 15 -7 15 -15 0 -8 7 -15 15
-15 8 0 15 -7 15 -15 0 -8 7 -15 15 -15 8 0 15 -7 15 -15 0 -8 7 -15 15 -15 8
0 15 -7 15 -15 0 -8 7 -15 15 -15 8 0 15 -4 15 -10 0 -5 6 -10 13 -10 8 0 22
-9 32 -20 10 -11 24 -20 32 -20 7 0 13 -7 13 -15 0 -10 10 -15 30 -15 27 0 30
-3 30 -30 0 -22 5 -30 18 -30 23 0 42 -19 42 -42 0 -11 7 -18 19 -18 10 0 24
-7 31 -15 7 -8 19 -15 26 -15 8 0 14 -7 14 -15 0 -8 6 -15 13 -15 7 0 17 -10
22 -22 6 -13 20 -27 33 -33 12 -5 22 -15 22 -22 0 -8 13 -13 30 -13 20 0 30
-5 30 -15 0 -8 7 -15 15 -15 8 0 15 -7 15 -15 0 -8 7 -15 15 -15 8 0 15 -7 15
-15 0 -8 7 -15 15 -15 8 0 15 -7 15 -15 0 -8 7 -15 15 -15 8 0 15 -7 15 -15 0
-8 7 -15 15 -15 8 0 15 -7 15 -15 0 -8 5 -15 10 -15 11 0 38 -21 78 -62 14
-16 34 -28 44 -28 10 0 18 -7 18 -15 0 -8 7 -15 15 -15 8 0 15 -7 15 -15 0 -8
7 -15 15 -15 8 0 15 -7 15 -15 0 -8 6 -15 13 -15 14 0 47 -35 47 -50 0 -6 7
-10 15 -10 8 0 15 -7 15 -15 0 -8 6 -15 13 -15 6 0 31 -20 55 -45 24 -25 52
-45 62 -45 11 0 20 -7 20 -15 0 -10 10 -15 29 -15 24 0 30 -5 35 -30 4 -24 11
-30 31 -30 17 0 25 -5 25 -18 0 -10 5 -23 12 -30 7 -7 20 -12 30 -12 10 0 18
-7 18 -15 0 -8 7 -15 15 -15 8 0 15 -7 15 -15 0 -8 6 -15 14 -15 8 0 16 -7 20
-15 3 -8 17 -15 31 -15 16 0 25 -6 25 -15 0 -8 6 -15 13 -15 20 0 38 -16 41
-36 2 -12 12 -20 29 -22 19 -2 27 -10 29 -30 2 -18 10 -28 28 -32 15 -4 26
-15 30 -30 4 -16 14 -26 29 -28 12 -2 25 -10 28 -18 3 -8 11 -14 19 -14 8 0
14 -8 14 -18 0 -10 5 -23 12 -30 7 -7 20 -12 30 -12 10 0 18 -7 18 -15 0 -8 7
-15 15 -15 10 0 15 -10 15 -30 0 -29 2 -30 45 -30 33 0 45 -4 45 -15 0 -8 5
-15 11 -15 6 0 9 -9 6 -20 -4 -17 3 -24 34 -38 21 -9 39 -20 39 -24 0 -5 7 -8
15 -8 8 0 15 -7 15 -15 0 -8 7 -15 15 -15 8 0 15 -7 15 -15 0 -8 7 -15 15 -15
8 0 15 -7 15 -15 0 -8 5 -15 10 -15 6 0 10 -6 10 -13 0 -19 34 -44 69 -52 17
-4 31 -11 31 -16 0 -5 7 -9 15 -9 8 0 15 -7 15 -15 0 -8 7 -15 15 -15 8 0 15
-7 15 -15 0 -8 7 -15 15 -15 8 0 15 -4 15 -10 0 -11 36 -50 46 -50 3 0 18 -15
35 -32 16 -18 29 -28 30 -23 0 6 4 0 10 -13 5 -13 13 -21 18 -18 5 3 11 -4 14
-15 3 -12 10 -18 16 -14 6 3 11 -1 11 -9 0 -9 7 -16 15 -16 8 0 15 -4 15 -9 0
-5 11 -12 25 -15 31 -8 65 -36 65 -53 0 -7 7 -13 15 -13 8 0 15 -7 15 -15 0
-8 7 -15 15 -15 8 0 15 -6 15 -14 0 -7 13 -16 29 -19 21 -4 30 -13 33 -29 2
-17 11 -24 31 -26 23 -3 27 -8 27 -33 0 -26 3 -29 30 -29 27 0 30 -3 30 -30 0
-25 4 -30 25 -30 14 0 28 -7 31 -15 4 -8 14 -15 23 -15 10 0 30 -13 46 -30 16
-16 35 -30 42 -30 7 0 13 -7 13 -15 0 -8 7 -15 15 -15 8 0 15 -7 15 -15 0 -8
7 -15 15 -15 8 0 15 -6 15 -13 0 -6 14 -18 30 -25 18 -8 30 -21 30 -33 0 -14
7 -19 30 -19 20 0 30 -5 30 -15 0 -8 6 -15 13 -15 7 0 18 -13 24 -30 6 -16 18
-30 27 -30 18 0 56 -34 56 -50 0 -5 7 -10 15 -10 8 0 15 -7 15 -15 0 -8 5 -15
10 -15 6 0 27 -18 49 -40 21 -22 43 -40 47 -40 5 0 26 -16 47 -35 21 -19 42
-35 48 -35 5 0 9 -7 9 -15 0 -8 7 -15 15 -15 8 0 15 -7 15 -15 0 -8 6 -15 13
-15 17 0 72 -50 80 -72 4 -11 17 -18 31 -18 19 0 25 -6 28 -27 2 -22 9 -29 31
-31 15 -2 27 -9 27 -18 0 -8 7 -14 15 -14 8 0 15 -7 15 -15 0 -8 7 -15 15 -15
8 0 15 -7 15 -15 0 -8 7 -15 15 -15 8 0 15 -7 15 -15 0 -8 7 -15 15 -15 8 0
15 -7 15 -15 0 -8 7 -15 15 -15 8 0 15 -7 15 -15 0 -8 7 -15 15 -15 8 0 15 -4
15 -9 0 -5 14 -12 30 -16 17 -4 30 -13 30 -21 0 -9 11 -14 30 -14 27 0 30 -3
30 -29 0 -25 4 -30 28 -33 21 -2 28 -9 30 -30 3 -24 8 -28 33 -28 26 0 29 -3
29 -30 0 -27 3 -30 30 -30 20 0 30 -5 30 -15 0 -8 7 -15 15 -15 8 0 15 -7 15
-15 0 -8 7 -15 15 -15 8 0 15 -7 15 -15 0 -8 7 -15 15 -15 9 0 18 -6 21 -14 3
-7 23 -22 44 -32 22 -11 40 -25 40 -31 0 -7 7 -13 15 -13 8 0 15 -7 15 -15 0
-8 7 -15 15 -15 8 0 15 -7 15 -15 0 -8 7 -15 15 -15 8 0 15 -6 15 -14 0 -8 10
-16 22 -18 13 -2 29 -15 36 -30 7 -16 17 -28 23 -28 5 0 9 -7 9 -15 0 -10 10
-15 31 -15 29 0 31 -2 27 -30 -4 -26 -1 -30 19 -30 13 0 26 -7 29 -15 4 -8 14
-15 25 -15 10 0 23 -10 30 -22 15 -30 97 -105 132 -120 15 -7 27 -19 27 -25 0
-7 6 -13 14 -13 8 0 16 -6 19 -14 3 -8 16 -16 29 -18 17 -2 24 -11 26 -30 2
-16 8 -28 13 -28 12 0 49 -37 49 -50 0 -5 13 -10 29 -10 25 0 30 -4 33 -27 2
-22 9 -29 31 -31 15 -2 27 -9 27 -18 0 -8 5 -14 10 -14 6 0 30 -20 53 -45 34
-35 51 -45 76 -45 27 0 32 -4 37 -30 4 -16 10 -30 15 -30 12 0 49 -38 49 -49
0 -5 12 -11 28 -13 19 -2 28 -9 30 -26 2 -13 14 -27 28 -32 13 -5 29 -21 34
-35 5 -14 14 -25 20 -25 6 0 23 -13 38 -28 16 -16 41 -32 56 -36 15 -4 53 -31
84 -61 31 -30 60 -55 64 -55 4 0 8 -7 8 -15 0 -8 7 -15 15 -15 8 0 15 -7 15
-15 0 -8 6 -15 14 -15 7 0 18 -10 22 -22 10 -27 22 -16597 12 -16743 -4 -55
-11 -170 -17 -256 -10 -162 -17 -186 -74 -250 -8 -9 -17 -33 -20 -54 -3 -21
-10 -41 -15 -44 -4 -3 -16 -28 -27 -56 -20 -54 -74 -136 -112 -172 -12 -12
-23 -24 -23 -26 0 -3 -33 -39 -73 -81 -59 -61 -79 -76 -102 -76 -17 0 -43 -9
-60 -20 -16 -11 -42 -20 -56 -20 -15 0 -41 -13 -60 -30 -24 -21 -44 -30 -70
-30 -20 0 -42 -7 -49 -15 -7 -9 -32 -20 -56 -26 -24 -6 -41 -15 -38 -20 3 -5
-441 -10 -1048 -11 -1097 -3 -1238 -1 -1251 12 -5 4 -15 124 -23 266 -7 143
-23 331 -33 419 -11 88 -23 192 -26 230 -4 39 -13 108 -22 155 -8 47 -19 114
-23 150 -5 36 -18 106 -29 155 -12 50 -25 117 -30 150 -9 58 -41 189 -56 230
-6 17 -5 18 5 5 11 -13 11 -13 7 0 -40 132 -52 167 -64 181 -7 8 -13 28 -13
43 0 15 -6 40 -14 54 -8 15 -19 52 -25 82 -21 99 -42 174 -61 215 -11 22 -22
57 -25 77 -3 21 -9 38 -13 38 -12 0 -42 60 -42 83 0 12 -7 35 -15 51 -8 15
-15 36 -15 46 0 10 -6 23 -14 29 -8 7 -17 27 -20 46 -4 19 -11 35 -16 35 -6 0
-10 14 -10 30 0 18 -6 33 -15 36 -8 4 -15 18 -15 33 -1 14 -12 44 -25 66 -14
22 -27 47 -30 55 -4 8 -13 28 -21 43 -7 16 -14 39 -14 52 0 12 -7 28 -15 35
-8 7 -15 20 -15 30 0 10 -7 23 -15 30 -8 7 -15 19 -15 27 0 7 -7 16 -15 19 -9
4 -15 19 -15 35 0 16 -4 29 -9 29 -13 0 -51 68 -51 91 0 11 -7 22 -15 25 -8 4
-15 17 -15 30 0 14 -7 27 -15 30 -8 4 -15 14 -15 24 0 10 -7 25 -15 34 -8 8
-15 19 -15 24 0 5 -7 15 -15 22 -8 7 -15 21 -15 31 0 11 -7 19 -15 19 -9 0
-15 9 -15 25 0 22 -30 77 -51 95 -3 3 -9 17 -13 33 -3 15 -11 27 -16 27 -6 0
-10 5 -10 11 0 6 -13 27 -30 46 -16 18 -30 40 -30 48 0 8 -7 15 -15 15 -9 0
-15 9 -15 25 0 14 -7 28 -15 31 -8 4 -15 10 -15 15 0 12 -42 73 -52 77 -5 2
-8 10 -8 18 0 8 -7 14 -15 14 -8 0 -15 9 -15 19 0 11 -7 26 -15 35 -8 8 -15
17 -15 21 0 8 -43 69 -52 73 -5 2 -8 10 -8 18 0 8 -4 14 -8 14 -5 0 -15 12
-23 27 -8 16 -24 37 -36 49 -13 12 -23 26 -23 31 0 5 -11 20 -25 33 -14 13
-25 28 -25 35 0 6 -9 17 -19 25 -11 7 -17 18 -14 22 3 5 -4 12 -16 15 -11 3
-19 9 -16 13 2 4 -7 18 -20 30 -14 13 -25 29 -25 37 0 7 -9 22 -19 32 -11 11
-27 31 -36 45 -10 14 -24 26 -31 26 -8 0 -14 7 -14 16 0 20 -24 44 -44 44 -8
0 -16 10 -18 22 -2 12 -14 28 -27 34 -13 7 -28 22 -35 35 -6 13 -22 25 -34 27
-16 3 -22 10 -22 28 0 14 -7 27 -15 30 -8 4 -15 13 -15 21 0 16 -62 83 -76 83
-15 0 -89 82 -102 113 -7 15 -17 25 -22 22 -6 -3 -10 1 -10 9 0 9 -4 16 -10
16 -18 0 -82 59 -172 159 -21 22 -42 41 -46 41 -5 0 -17 9 -27 20 -10 11 -24
20 -32 20 -7 0 -13 7 -13 15 0 8 -6 15 -13 15 -7 0 -23 14 -37 30 -14 17 -34
30 -47 30 -17 0 -23 6 -23 23 -1 20 -47 63 -102 92 -10 5 -18 15 -18 22 0 7
-5 13 -10 13 -6 0 -21 11 -33 24 -12 13 -33 27 -46 31 -13 4 -43 25 -65 47
-23 21 -51 41 -63 45 -13 3 -23 11 -23 19 0 8 -7 14 -15 14 -8 0 -15 7 -15 15
0 8 -7 15 -15 15 -8 0 -15 5 -15 10 0 6 -10 15 -22 20 -34 15 -60 33 -85 57
-12 12 -33 25 -47 29 -14 3 -26 12 -26 20 0 8 -7 14 -15 14 -8 0 -15 5 -15 10
0 6 -7 10 -15 10 -8 0 -24 9 -35 20 -11 11 -23 20 -27 20 -5 0 -26 14 -47 30
-22 17 -48 30 -58 30 -10 0 -21 7 -24 15 -4 8 -12 15 -20 15 -8 0 -14 4 -14 9
0 5 -13 12 -30 16 -16 4 -30 13 -30 21 0 8 -7 14 -15 14 -8 0 -15 4 -15 9 0 5
-13 12 -30 16 -16 4 -30 13 -30 21 0 9 -11 14 -30 14 -16 0 -30 5 -30 10 0 19
-40 50 -65 50 -16 0 -25 6 -25 15 0 10 -10 15 -29 15 -16 0 -31 6 -35 15 -3 8
-16 15 -30 15 -13 0 -26 7 -30 15 -3 8 -16 15 -30 15 -13 0 -26 7 -30 15 -3
10 -19 15 -45 15 -36 0 -40 3 -43 28 -2 20 -9 28 -28 31 -14 1 -28 7 -31 12
-3 6 -23 12 -45 16 -21 3 -43 12 -47 20 -4 7 -21 13 -37 13 -17 0 -30 4 -30 9
0 5 -10 13 -22 17 -12 3 -28 13 -36 20 -7 8 -24 14 -38 14 -13 0 -24 4 -24 8
0 5 -17 18 -38 30 -28 15 -42 18 -49 11 -8 -8 -13 -5 -18 10 -3 12 -11 18 -17
15 -9 -6 -28 0 -91 32 -16 8 -41 14 -57 14 -15 0 -33 7 -40 15 -7 8 -25 15
-41 15 -17 0 -28 5 -26 12 1 6 -17 15 -40 20 -24 5 -43 13 -43 19 0 5 -13 9
-29 9 -16 0 -36 7 -45 15 -8 8 -21 15 -28 15 -8 0 -23 7 -34 15 -10 8 -35 15
-54 15 -19 0 -44 7 -54 15 -11 8 -38 15 -61 15 -22 0 -49 6 -60 14 -11 7 -39
17 -62 21 -24 4 -43 11 -43 16 0 5 -12 9 -28 9 -15 0 -37 6 -48 14 -11 8 -41
17 -67 21 -26 4 -47 11 -47 15 0 4 -25 11 -55 15 -30 3 -55 10 -55 14 0 7 -80
24 -190 41 -30 5 -116 22 -192 39 -75 16 -189 35 -253 41 -64 6 -140 16 -169
21 -28 6 -99 14 -158 19 -59 5 -112 11 -118 15 -5 3 -92 13 -192 22 -160 14
-468 17 -2408 21 -2213 4 -2437 2 -2730 -30 -52 -5 -151 -15 -220 -23 -299
-31 -459 -53 -640 -89 -74 -15 -180 -35 -235 -46 -113 -22 -337 -83 -497 -135
-60 -19 -116 -35 -125 -35 -27 0 -128 -34 -145 -47 -8 -7 -24 -10 -36 -6 -15
4 -22 1 -22 -10 0 -10 -16 -17 -55 -22 -38 -4 -55 -11 -55 -21 0 -9 -11 -14
-34 -14 -25 0 -44 -9 -68 -30 -24 -22 -42 -30 -69 -30 -24 0 -39 -5 -43 -15
-4 -10 -19 -15 -49 -15 -27 0 -49 -6 -57 -15 -7 -8 -17 -15 -22 -15 -5 0 -16
-7 -24 -15 -9 -8 -31 -15 -50 -15 -24 0 -34 -5 -34 -15 0 -10 -10 -15 -30 -15
-22 0 -30 -5 -30 -18 0 -24 -36 -44 -69 -37 -19 4 -35 0 -53 -15 -14 -11 -33
-20 -42 -20 -9 0 -16 -7 -16 -15 0 -15 -15 -19 -58 -15 -26 2 -62 -25 -62 -47
0 -7 -9 -13 -20 -13 -10 0 -34 -14 -51 -31 -27 -26 -35 -30 -51 -20 -20 12
-58 -4 -58 -26 0 -6 -13 -14 -30 -18 -16 -4 -30 -11 -30 -16 0 -5 -13 -9 -30
-9 -27 0 -30 -3 -30 -30 0 -27 -3 -30 -30 -30 -20 0 -30 -5 -30 -15 0 -11 -11
-15 -40 -15 -27 0 -43 -5 -46 -15 -4 -8 -12 -15 -20 -15 -8 0 -14 -7 -14 -15
0 -9 -9 -15 -25 -15 -14 0 -28 -7 -31 -15 -4 -9 -19 -15 -35 -15 -26 0 -29 -4
-29 -30 0 -27 -3 -30 -30 -30 -20 0 -30 -5 -30 -15 0 -9 -9 -15 -25 -15 -13 0
-28 -6 -32 -14 -4 -8 -19 -16 -33 -18 -19 -2 -26 -10 -28 -30 -3 -24 -8 -28
-33 -28 -19 0 -29 -5 -29 -15 0 -8 -7 -15 -15 -15 -8 0 -15 -7 -15 -15 0 -8
-9 -15 -19 -15 -11 0 -26 -7 -35 -15 -8 -8 -19 -15 -25 -15 -6 0 -11 -7 -11
-15 0 -8 -6 -15 -13 -15 -7 0 -26 -14 -42 -30 -16 -16 -37 -30 -47 -30 -10 0
-18 -7 -18 -15 0 -8 -6 -15 -14 -15 -8 0 -16 -7 -20 -15 -3 -8 -15 -15 -26
-15 -21 0 -60 -33 -60 -50 0 -5 -13 -10 -30 -10 -27 0 -30 -3 -30 -30 0 -27
-3 -30 -30 -30 -18 0 -30 -5 -30 -13 0 -13 -35 -47 -49 -47 -9 0 -61 -58 -77
-86 -6 -10 -20 -23 -32 -29 -12 -5 -22 -15 -22 -22 0 -7 -7 -13 -15 -13 -8 0
-15 -7 -15 -15 0 -10 -10 -15 -27 -15 -29 0 -63 -25 -63 -47 0 -7 -7 -13 -15
-13 -8 0 -15 -7 -15 -15 0 -8 -7 -15 -15 -15 -8 0 -15 -7 -15 -15 0 -8 -7 -15
-15 -15 -8 0 -15 -7 -15 -15 0 -8 -7 -15 -15 -15 -8 0 -15 -7 -15 -15 0 -10
-10 -15 -30 -15 -16 0 -30 -4 -30 -10 0 -5 -9 -19 -20 -30 -11 -11 -23 -19
-27 -17 -5 1 -9 -12 -11 -30 -2 -23 -7 -30 -18 -26 -20 7 -44 -15 -44 -41 0
-17 -6 -22 -27 -21 -21 0 -29 -5 -31 -22 -2 -11 -57 -75 -123 -141 -108 -109
-119 -123 -119 -156 0 -30 -3 -36 -21 -36 -12 0 -39 -17 -60 -39 -22 -21 -39
-48 -39 -60 0 -16 -6 -21 -25 -21 -16 0 -28 -7 -31 -18 -17 -49 -30 -72 -41
-72 -13 0 -17 -11 -14 -43 1 -9 -4 -17 -13 -17 -9 0 -16 -7 -16 -15 0 -8 -4
-15 -10 -15 -13 0 -50 -37 -50 -50 0 -5 -7 -10 -15 -10 -10 0 -15 -10 -15 -30
0 -20 -5 -30 -15 -30 -8 0 -15 -7 -15 -15 0 -8 -7 -15 -15 -15 -8 0 -15 -7
-15 -15 0 -8 -7 -15 -15 -15 -8 0 -15 -5 -15 -11 0 -6 -7 -17 -15 -25 -8 -9
-15 -31 -15 -49 0 -29 -4 -34 -27 -37 -25 -3 -28 -7 -31 -46 -2 -28 -8 -42
-18 -42 -8 0 -14 -7 -14 -15 0 -8 -7 -15 -15 -15 -9 0 -15 -9 -15 -24 0 -14
-4 -27 -9 -31 -5 -3 -12 -19 -16 -35 -5 -25 -11 -30 -36 -30 -27 0 -29 -2 -29
-40 0 -27 -5 -43 -15 -46 -8 -4 -15 -12 -15 -20 0 -8 -4 -14 -9 -14 -5 0 -12
-14 -16 -30 -4 -17 -13 -30 -21 -30 -9 0 -14 -11 -14 -30 0 -20 -5 -30 -15
-30 -8 0 -15 -8 -15 -18 0 -10 -13 -31 -30 -45 -21 -19 -30 -36 -30 -57 0 -35
-22 -74 -62 -110 -24 -21 -28 -32 -28 -77 0 -52 0 -53 -30 -53 -23 0 -30 -5
-30 -19 0 -10 -7 -24 -15 -31 -10 -8 -15 -31 -15 -71 0 -46 -3 -59 -15 -59
-10 0 -15 -10 -15 -30 0 -27 -3 -30 -30 -30 -29 0 -30 -2 -30 -44 0 -30 -5
-46 -15 -50 -8 -3 -15 -17 -15 -31 0 -14 -5 -25 -10 -25 -6 0 -14 -8 -17 -17
-4 -10 -13 -24 -21 -32 -9 -9 -12 -25 -8 -47 9 -45 -3 -114 -20 -114 -8 0 -14
-10 -14 -23 0 -13 -13 -33 -30 -47 -23 -20 -29 -33 -30 -66 0 -28 -5 -44 -15
-48 -10 -3 -15 -19 -15 -46 0 -22 -4 -40 -8 -40 -16 0 -32 -76 -27 -123 4 -32
2 -48 -8 -54 -27 -16 -47 -58 -47 -98 0 -22 -7 -49 -15 -59 -8 -11 -15 -30
-15 -42 0 -12 -4 -24 -10 -26 -5 -1 -12 -23 -14 -47 -3 -26 -11 -48 -20 -53
-9 -5 -16 -19 -16 -31 0 -12 -7 -31 -15 -41 -11 -15 -15 -49 -15 -130 0 -91
-4 -117 -21 -153 -11 -23 -25 -45 -30 -49 -5 -3 -9 -41 -9 -85 0 -64 -3 -79
-15 -79 -10 0 -15 -10 -15 -28 0 -16 -3 -32 -7 -36 -4 -3 -8 -32 -9 -64 -1
-31 -6 -68 -12 -82 -5 -14 -13 -62 -17 -105 -4 -44 -14 -109 -22 -145 -12 -49
-16 -153 -20 -420 l-5 -355 -24 -30 -24 -30 -1084 -3 c-1079 -2 -1085 -2
-1096 18 -8 15 -21 20 -54 20 -27 0 -48 6 -56 15 -7 9 -29 15 -53 15 -47 0
-117 28 -117 47 0 8 -12 13 -30 13 -19 0 -30 5 -30 14 0 9 -17 17 -52 21 -60
9 -83 19 -117 58 -14 15 -31 27 -38 27 -16 0 -93 73 -93 89 0 7 -13 24 -30 38
-16 13 -30 31 -30 39 0 8 -7 14 -15 14 -15 0 -20 21 -16 71 1 14 -5 32 -14 39
-8 7 -15 16 -15 21 0 14 -33 49 -47 49 -9 0 -13 18 -13 60 0 33 -4 60 -10 60
-5 0 -10 5 -10 11 0 6 -9 22 -20 36 -14 18 -20 41 -20 77 0 29 -7 59 -15 70
-13 17 -15 1057 -15 8478 0 7512 2 8458 15 8458 10 0 15 10 15 34 0 19 7 41
15 50 8 8 15 19 15 25 0 6 7 11 15 11 8 0 15 8 15 18 0 23 19 42 42 42 10 0
18 7 18 15 0 10 10 15 29 15 16 0 31 6 35 15 3 8 12 15 20 15 8 0 20 14 28 30
7 17 19 30 25 30 7 0 13 7 13 15 0 8 7 15 15 15 8 0 15 7 15 15 0 8 6 15 14
15 8 0 16 7 20 15 3 10 19 15 46 15 37 0 40 2 40 28 0 19 7 30 22 37 13 6 27
20 33 33 7 15 18 22 37 22 24 0 28 4 28 30 0 26 3 30 29 30 22 0 30 6 35 25 4
15 16 27 31 31 14 3 25 12 25 20 0 8 7 14 15 14 8 0 15 7 15 15 0 8 7 15 15
15 8 0 15 4 15 9 0 5 14 12 30 16 19 4 30 13 30 23 0 17 61 72 79 72 6 0 11 7
11 15 0 8 6 15 14 15 8 0 17 11 20 25 4 15 16 27 31 31 14 3 25 12 25 20 0 9
11 14 30 14 27 0 30 3 30 30 0 27 3 30 30 30 20 0 30 5 30 15 0 8 7 15 15 15
8 0 15 8 15 18 0 23 19 42 43 42 13 0 17 5 13 15 -4 10 1 15 15 15 11 0 17 5
14 10 -3 6 1 13 9 16 9 3 16 12 16 20 0 8 7 14 15 14 8 0 15 7 15 15 0 8 7 15
15 15 8 0 15 7 15 15 0 8 6 15 14 15 8 0 16 7 20 15 3 8 17 15 31 15 16 0 25
6 25 15 0 8 7 15 15 15 8 0 15 7 15 15 0 8 7 15 15 15 8 0 15 7 15 15 0 10 10
15 30 15 27 0 30 3 30 30 0 27 3 30 30 30 22 0 30 5 30 18 0 23 19 42 42 42
13 0 18 8 18 30 0 26 3 30 29 30 16 0 31 6 35 15 3 8 17 15 31 15 14 0 25 5
25 10 0 13 37 50 50 50 6 0 10 7 10 15 0 8 7 15 15 15 8 0 15 7 15 15 0 8 7
15 15 15 8 0 15 7 15 15 0 8 7 15 15 15 8 0 15 7 15 15 0 8 7 15 15 15 8 0 15
6 15 14 0 8 11 17 25 20 15 4 27 16 31 31 5 19 13 25 35 25 19 0 29 5 29 15 0
8 7 15 15 15 8 0 15 7 15 15 0 8 7 15 15 15 8 0 15 7 15 15 0 9 9 15 21 15 25
0 78 51 96 93 8 17 20 27 33 27 11 0 23 7 26 15 4 8 12 15 20 15 8 0 14 7 14
15 0 8 7 15 15 15 8 0 15 7 15 15 0 10 10 15 30 15 23 0 30 4 30 20 0 11 7 20
15 20 8 0 15 5 15 10 0 6 7 10 15 10 8 0 15 7 15 15 0 8 7 15 15 15 8 0 15 7
15 15 0 8 7 15 15 15 8 0 15 7 15 15 0 8 7 15 15 15 8 0 15 7 15 15 0 8 7 15
15 15 8 0 15 9 15 19 0 12 12 25 30 33 17 7 30 19 30 25 0 8 13 13 30 13 20 0
30 5 30 15 0 10 10 15 30 15 27 0 30 3 30 30 0 27 3 30 30 30 26 0 30 3 30 29
0 24 5 30 30 35 24 4 30 11 30 31 0 21 5 25 30 25 27 0 30 3 30 30 0 27 3 30
30 30 20 0 30 5 30 15 0 8 6 15 14 15 7 0 19 7 26 15 7 8 21 15 31 15 11 0 19
7 19 15 0 8 7 15 15 15 8 0 15 9 15 19 0 16 23 40 87 91 7 6 17 10 23 10 5 0
10 7 10 15 0 8 4 15 10 15 15 0 50 33 50 47 0 7 7 13 15 13 8 0 15 7 15 15 0
8 9 15 19 15 11 0 26 6 33 13 17 14 45 33 76 49 12 6 22 17 22 23 0 14 98 115
112 115 9 0 23 10 58 42 10 9 29 18 42 20 19 2 24 11 28 43 5 39 6 40 48 43
28 2 42 8 42 18 0 8 7 14 15 14 10 0 15 10 15 30 0 27 3 30 30 30 20 0 30 5
30 15 0 8 7 15 15 15 8 0 15 7 15 15 0 8 6 15 14 15 8 0 16 7 20 15 3 8 14 15
24 15 10 0 29 13 42 30 14 16 31 29 38 30 6 0 12 7 12 15 0 8 7 15 15 15 8 0
15 7 15 15 0 8 7 15 15 15 8 0 15 4 15 10 0 14 61 72 93 89 15 8 27 21 27 28
0 8 14 26 30 40 17 13 28 29 25 33 -3 5 9 10 27 12 29 3 33 7 33 31 -1 23 3
27 27 27 22 0 28 5 28 21 0 14 10 24 30 32 17 6 30 17 30 24 0 7 7 13 15 13 8
0 15 7 15 15 0 9 9 15 24 15 13 0 26 7 30 15 3 8 12 15 21 15 8 0 15 5 15 11
0 13 67 79 80 79 6 0 10 7 10 15 0 8 7 15 15 15 8 0 15 7 15 15 0 8 7 15 15
15 8 0 15 6 15 13 0 6 20 21 45 32 25 11 45 25 45 32 0 7 7 13 15 13 8 0 15 7
15 15 0 8 7 15 15 15 8 0 15 7 15 15 0 8 7 15 15 15 8 0 15 7 15 15 0 8 7 15
15 15 8 0 15 7 15 15 0 8 7 15 15 15 8 0 15 7 15 15 0 8 5 15 11 15 20 0 79
53 79 71 0 11 6 19 14 19 7 0 19 7 26 15 7 8 28 15 46 15 31 0 34 3 34 30 0
27 3 30 30 30 27 0 30 3 30 30 0 27 3 30 30 30 27 0 30 3 30 30 0 27 3 30 30
30 20 0 30 5 30 15 0 8 7 15 15 15 8 0 15 7 15 15 0 8 7 15 15 15 8 0 15 6 15
14 0 8 14 17 30 21 17 4 30 11 30 16 0 5 4 9 10 9 13 0 50 37 50 50 0 6 7 10
15 10 8 0 15 7 15 15 0 8 7 15 15 15 8 0 15 6 15 14 0 9 12 16 28 18 21 2 28
9 30 31 2 15 9 27 18 27 8 0 14 7 14 15 0 9 9 15 25 15 22 0 65 30 65 45 0 9
40 45 49 45 5 0 14 7 21 15 7 8 21 15 31 15 11 0 19 5 19 12 0 6 28 40 63 75
34 35 76 78 93 96 47 48 61 57 89 57 16 0 25 6 25 15 0 8 7 15 15 15 8 0 15 6
15 13 0 14 35 47 50 47 6 0 10 7 10 15 0 8 7 15 15 15 8 0 15 7 15 15 0 8 7
15 15 15 8 0 15 7 15 15 0 8 7 15 15 15 8 0 15 7 15 15 0 8 7 15 15 15 8 0 15
8 15 18 0 27 20 42 57 42 23 0 33 5 33 15 0 8 7 15 15 15 8 0 15 7 15 15 0 10
10 15 30 15 27 0 30 3 30 30 0 27 3 30 30 30 27 0 30 3 30 30 0 27 3 30 30 30
19 0 30 5 30 14 0 7 14 16 30 20 24 4 30 11 30 31 0 16 6 25 15 25 8 0 15 7
15 15 0 8 6 15 14 15 7 0 19 7 26 15 7 8 21 15 31 15 11 0 19 7 19 15 0 8 7
15 15 15 8 0 15 7 15 15 0 8 7 15 15 15 8 0 15 7 15 15 0 8 7 15 15 15 8 0 15
7 15 15 0 8 7 15 15 15 8 0 15 7 15 16 0 8 5 12 10 9 6 -3 14 4 19 17 6 13 10
19 10 14 1 -6 42 32 91 82 66 67 97 92 115 92 14 0 25 5 25 10 0 13 165 172
191 184 10 5 19 13 19 17 0 5 14 16 31 24 17 9 28 19 25 22 -9 9 35 43 56 43
10 0 21 7 24 15 4 8 12 15 19 15 8 0 15 12 17 28 2 21 9 28 31 30 19 2 27 9
27 24 0 13 10 24 30 31 17 6 30 15 30 19 0 14 34 48 47 48 7 0 13 4 13 10 0 5
11 12 25 16 18 4 28 15 32 35 3 16 11 29 18 29 8 0 15 5 17 10 2 6 13 12 25
14 26 5 63 36 63 53 0 8 12 13 30 13 27 0 30 3 30 30 0 25 4 30 25 30 20 0 27
6 32 30 4 25 10 30 34 30 19 0 29 5 29 15 0 8 7 15 15 15 8 0 15 7 15 15 0 8
7 15 15 15 8 0 15 7 15 15 0 9 9 15 24 15 13 0 26 7 30 15 3 8 12 15 21 15 8
0 15 7 15 15 0 8 7 15 15 15 8 0 15 7 15 15 0 8 7 15 15 15 8 0 15 7 15 15 0
8 7 15 15 15 8 0 15 7 15 15 0 8 7 15 15 15 8 0 15 5 15 10 0 11 36 50 46 50
3 0 12 7 20 15 9 8 24 15 35 15 11 0 22 8 26 18 7 20 60 72 74 72 5 0 9 7 9
15 0 8 7 15 15 15 8 0 15 7 15 15 0 8 7 15 15 15 8 0 15 7 15 15 0 8 7 15 15
15 8 0 15 7 15 15 0 8 7 15 15 15 8 0 15 7 15 15 0 8 7 15 15 15 8 0 15 7 15
15 0 8 7 15 15 15 8 0 15 7 15 15 0 10 10 15 30 15 20 0 30 5 30 15 0 10 10
15 30 15 27 0 30 3 30 30 0 27 3 30 30 30 23 0 30 5 30 19 0 12 12 25 30 33
23 10 30 19 30 40 0 24 4 28 30 28 20 0 30 5 30 15 0 8 7 15 15 15 8 0 15 7
15 15 0 8 7 15 15 15 8 0 15 7 15 15 0 8 5 15 10 15 19 0 50 40 50 65 0 23 4
25 43 25 41 0 77 23 77 50 0 6 7 10 15 10 8 0 15 7 15 15 0 8 7 15 15 15 8 0
15 7 15 15 0 8 6 15 13 15 14 0 47 35 47 50 0 6 7 10 15 10 8 0 15 7 15 15 0
8 7 15 15 15 8 0 15 6 15 14 0 7 14 16 30 20 24 4 30 11 30 31 0 21 5 25 30
25 18 0 33 6 36 15 4 8 17 15 30 15 13 0 24 5 24 11 0 15 65 79 80 79 5 0 10
7 10 15 0 9 6 18 14 21 8 3 17 16 20 30 5 20 13 24 42 24 22 0 37 6 40 15 4 8
12 15 20 15 8 0 14 9 14 19 0 12 12 25 30 33 17 7 30 18 30 23 0 13 36 45 50
45 6 0 10 7 10 15 0 8 7 15 15 15 8 0 15 7 15 15 0 8 7 15 15 15 8 0 15 7 15
15 0 8 7 15 15 15 8 0 15 7 15 15 0 8 7 15 15 15 8 0 15 6 15 13 0 14 35 47
50 47 6 0 10 6 10 14 0 8 14 17 30 21 17 4 30 11 30 16 0 5 7 9 15 9 8 0 15 7
15 15 0 8 7 15 15 15 8 0 15 7 15 16 0 11 6 15 18 12 20 -6 38 10 44 38 2 10
10 19 18 19 25 1 40 15 40 38 0 18 6 23 28 22 22 0 28 5 30 28 3 21 9 27 27
27 13 0 28 6 32 14 4 7 24 21 43 31 37 19 89 65 74 66 -5 0 1 4 14 10 13 5 20
13 17 19 -3 5 1 10 9 10 9 0 16 7 16 15 0 8 7 15 15 15 8 0 15 7 15 15 0 8 7
15 15 15 8 0 15 6 15 13 0 6 14 18 30 25 18 8 30 21 30 33 0 14 7 19 30 19 20
0 30 5 30 15 0 8 7 15 15 15 8 0 15 5 15 12 0 22 33 48 62 48 21 0 28 5 28 20
0 22 134 160 156 160 8 0 17 7 20 15 4 9 19 15 35 15 26 0 29 4 29 30 0 20 5
30 15 30 8 0 15 7 15 15 0 10 10 15 30 15 20 0 30 5 30 15 0 8 7 15 15 15 9 0
15 9 15 25 0 20 6 27 30 32 21 4 30 11 30 25 0 13 11 24 30 31 17 6 30 17 30
24 0 7 7 13 15 13 8 0 15 7 15 15 0 8 5 15 11 15 6 0 17 7 25 15 9 8 24 15 35
15 10 0 19 7 19 15 0 9 9 15 25 15 20 0 27 6 32 30 4 25 10 30 34 30 26 0 29
4 29 30 0 27 3 30 30 30 27 0 30 3 30 30 0 27 3 30 30 30 27 0 30 3 30 30 0
28 2 30 38 30 43 0 65 18 76 63 3 15 13 27 21 27 8 0 15 7 15 15 0 8 7 15 15
15 8 0 15 7 15 15 0 8 6 15 14 15 8 0 16 7 20 15 3 8 17 15 31 15 16 0 25 6
25 15 0 8 7 15 15 15 8 0 15 8 15 18 0 23 19 42 42 42 10 0 18 7 18 15 0 8 7
15 15 15 8 0 15 7 15 15 0 8 7 15 15 15 8 0 15 7 15 15 0 10 10 15 30 15 20 0
30 5 30 15 0 8 7 15 15 15 9 0 18 7 21 15 7 16 54 21 54 6z m12497 -1715 c3
-3 10 -29 15 -58 15 -90 8 -6266 -7 -6335 -7 -29 -25 -47 -25 -25 -1 14 -109
120 -166 162 -31 24 -106 92 -165 152 -59 59 -110 108 -114 108 -3 0 -25 20
-48 45 -26 26 -53 45 -65 45 -12 0 -22 5 -22 12 0 16 -61 78 -77 78 -7 0 -13
7 -13 15 0 8 -7 15 -15 15 -8 0 -15 7 -15 15 0 8 -7 15 -15 15 -8 0 -15 7 -15
15 0 8 -7 15 -15 15 -8 0 -15 4 -15 9 0 5 -13 12 -30 16 -16 4 -30 13 -30 21
0 8 -7 14 -15 14 -8 0 -15 7 -15 15 0 8 -7 15 -15 15 -8 0 -15 7 -15 15 0 8
-5 15 -10 15 -16 0 -80 61 -80 77 0 8 -12 13 -30 13 -27 0 -30 3 -30 30 0 27
-3 30 -30 30 -20 0 -30 5 -30 15 0 8 -7 15 -15 15 -8 0 -15 7 -15 15 0 8 -9
15 -20 15 -11 0 -20 4 -20 8 0 5 -11 14 -25 20 -15 7 -25 20 -25 33 0 12 -8
23 -20 26 -11 3 -20 9 -20 13 0 5 -9 12 -21 15 -28 9 -61 43 -54 55 4 6 -10
10 -31 10 -35 0 -36 1 -32 30 4 24 1 30 -13 30 -10 0 -23 13 -31 30 -7 17 -20
30 -28 30 -9 0 -28 12 -42 28 -40 41 -67 62 -78 62 -5 0 -10 7 -10 15 0 8 -6
15 -14 15 -7 0 -19 7 -26 15 -7 8 -20 15 -29 15 -9 0 -21 10 -26 23 -6 12 -20
26 -32 32 -13 5 -23 15 -23 22 0 7 -7 13 -15 13 -8 0 -15 7 -15 15 0 8 -7 15
-15 15 -8 0 -15 7 -15 15 0 8 -7 15 -15 15 -8 0 -15 7 -15 15 0 10 -10 15 -30
15 -20 0 -30 5 -30 15 0 8 -5 15 -10 15 -6 0 -14 8 -17 18 -10 25 -29 42 -47
42 -9 0 -16 7 -16 15 0 8 -4 15 -10 15 -5 0 -19 9 -30 20 -11 11 -20 25 -20
30 0 6 -4 10 -10 10 -5 0 -19 9 -30 20 -11 11 -20 25 -20 30 0 6 -7 10 -15 10
-8 0 -15 7 -15 15 0 8 -4 15 -9 15 -6 0 -39 28 -74 63 -82 79 -93 87 -112 87
-8 0 -15 6 -15 13 0 7 -10 17 -22 22 -13 6 -27 20 -33 33 -7 15 -18 22 -36 22
-21 0 -28 6 -32 30 -5 24 -12 30 -32 30 -16 0 -25 6 -25 15 0 8 -7 15 -15 15
-8 0 -15 7 -15 15 0 8 -7 15 -15 15 -8 0 -15 7 -15 16 0 21 -20 39 -53 48 -15
3 -27 11 -27 16 0 6 -9 10 -20 10 -11 0 -20 7 -20 15 0 8 -7 15 -15 15 -8 0
-15 7 -15 15 0 8 -7 15 -15 15 -8 0 -15 6 -15 14 0 8 -11 17 -25 20 -15 4 -27
16 -31 31 -3 14 -12 25 -20 25 -8 0 -14 6 -14 13 0 6 -19 20 -41 31 -23 10
-44 29 -50 42 -5 14 -20 29 -34 34 -14 5 -25 14 -25 20 0 5 -4 10 -10 10 -5 0
-19 9 -30 20 -11 11 -20 25 -20 30 0 6 -6 10 -14 10 -7 0 -40 27 -72 60 -32
33 -67 60 -76 60 -10 0 -18 7 -18 15 0 8 -4 15 -10 15 -12 0 -50 37 -50 49 0
5 -13 11 -30 15 -16 3 -30 11 -30 19 0 18 -56 77 -74 77 -9 0 -16 5 -16 10 0
6 -7 10 -15 10 -8 0 -15 6 -15 14 0 8 -13 23 -30 33 -16 9 -30 23 -30 30 0 7
-7 13 -15 13 -8 0 -15 7 -15 16 0 8 -4 13 -9 10 -5 -3 -14 1 -21 9 -7 8 -19
15 -27 15 -9 0 -50 34 -92 77 -42 42 -89 84 -106 94 -70 43 -255 224 -255 250
0 9 -11 24 -25 33 -20 13 -25 25 -25 60 0 41 -2 44 -22 39 -19 -5 -21 -3 -10
8 9 10 12 288 12 1319 0 1232 1 1308 18 1322 9 9 24 18 32 21 19 8 4109 1
4117 -7z m-10029 -21914 c74 -6 157 -19 185 -27 28 -8 85 -15 126 -15 51 -1
82 -5 95 -15 12 -9 41 -15 71 -15 28 0 77 -7 108 -15 32 -8 67 -15 77 -15 22
0 89 -29 108 -47 8 -8 40 -13 78 -13 36 0 77 -6 92 -14 15 -7 44 -16 64 -20
21 -4 57 -18 80 -31 27 -16 59 -25 86 -25 31 0 42 -4 42 -15 0 -10 10 -15 29
-15 16 0 31 -6 35 -15 3 -8 16 -15 28 -15 13 0 32 -7 42 -15 12 -9 42 -15 72
-15 34 0 56 -5 64 -15 7 -8 25 -15 41 -15 16 0 29 -4 29 -10 0 -5 9 -10 20
-10 11 0 23 -7 26 -15 4 -8 16 -15 28 -15 37 0 66 -12 66 -26 0 -9 11 -14 30
-14 20 0 30 -5 30 -15 0 -8 7 -15 15 -15 8 0 15 -4 15 -10 0 -5 11 -10 24 -10
14 0 32 -7 40 -16 9 -8 32 -18 51 -21 20 -3 35 -11 35 -19 0 -8 8 -14 18 -14
9 0 26 -7 36 -15 11 -8 28 -15 38 -15 9 0 23 -10 29 -22 15 -29 28 -38 57 -38
12 0 25 -7 28 -15 4 -8 17 -15 30 -15 14 0 27 -7 30 -15 4 -8 12 -15 19 -15 7
0 15 -7 19 -15 3 -10 19 -15 43 -15 40 -1 65 -14 76 -42 3 -9 16 -18 29 -20
13 -2 22 -9 20 -16 -1 -6 7 -12 17 -12 23 0 74 -27 110 -58 70 -60 151 -122
161 -122 5 0 10 -7 10 -15 0 -10 10 -15 29 -15 24 0 30 -5 35 -30 4 -23 11
-30 28 -30 16 0 27 -9 36 -30 8 -16 20 -30 27 -30 7 0 15 -7 19 -15 3 -8 12
-15 21 -15 8 0 15 -6 15 -14 0 -7 8 -16 18 -20 24 -8 51 -27 83 -58 16 -16 33
-28 39 -28 5 0 10 -7 10 -15 0 -8 6 -15 14 -15 8 0 16 -7 20 -15 3 -8 15 -15
26 -15 12 0 24 -9 30 -24 9 -24 59 -66 78 -66 6 0 12 -10 14 -22 3 -19 29 -41
76 -64 6 -3 12 -11 12 -16 0 -12 67 -78 80 -78 6 0 10 -13 10 -30 0 -20 5 -30
15 -30 8 0 15 -7 15 -15 0 -8 7 -15 15 -15 8 0 15 -7 15 -15 0 -8 6 -15 13
-15 6 0 21 -19 32 -42 21 -45 49 -78 65 -78 6 0 10 -7 10 -15 0 -8 5 -15 10
-15 6 0 10 -7 10 -15 0 -8 4 -15 10 -15 5 0 16 -13 25 -30 9 -18 23 -30 36
-30 11 0 23 -10 28 -23 5 -13 21 -31 35 -40 14 -10 26 -26 26 -36 0 -10 7 -21
15 -25 8 -3 15 -14 15 -25 0 -11 6 -24 13 -28 6 -4 18 -20 26 -35 8 -16 23
-28 33 -28 13 0 18 -8 18 -30 0 -19 5 -30 14 -30 8 0 22 -20 33 -45 10 -25 24
-45 31 -45 6 0 12 -8 12 -19 0 -10 7 -24 15 -31 8 -7 15 -27 15 -44 0 -36 15
-56 42 -56 13 0 18 -8 18 -30 0 -18 6 -33 15 -36 9 -4 15 -19 15 -38 0 -20 7
-35 20 -44 11 -7 20 -19 20 -27 0 -8 5 -15 10 -15 6 0 10 -6 10 -14 0 -7 7
-19 15 -26 8 -7 15 -25 15 -41 0 -18 5 -29 13 -29 19 0 50 -36 43 -49 -4 -5 3
-27 14 -48 11 -21 20 -48 20 -60 0 -16 4 -21 15 -17 11 5 15 -1 15 -24 0 -17
6 -32 15 -36 8 -3 15 -15 15 -26 0 -11 7 -23 15 -26 8 -4 15 -18 15 -33 0 -15
7 -36 15 -47 8 -10 15 -29 15 -42 0 -12 6 -25 14 -28 16 -6 50 -100 43 -119
-7 -17 12 -109 23 -113 6 -2 10 -19 10 -38 0 -23 5 -34 14 -34 8 0 17 -14 21
-30 4 -17 11 -30 16 -30 5 0 9 -10 9 -21 0 -21 7 -46 49 -181 12 -37 21 -83
21 -102 0 -19 5 -38 10 -41 6 -3 10 -19 10 -34 0 -16 7 -45 15 -64 8 -20 15
-49 15 -65 0 -16 9 -55 20 -88 32 -90 38 -126 55 -314 9 -96 23 -198 31 -227
9 -33 14 -100 14 -193 0 -127 -2 -146 -21 -176 l-21 -34 -7273 0 c-6940 0
-7275 1 -7284 18 -15 28 5 664 24 737 8 33 15 77 15 98 0 24 5 37 14 37 18 0
28 78 16 121 -11 37 8 79 35 79 12 0 15 16 15 75 0 60 3 75 15 75 8 0 15 7 15
16 0 8 7 23 16 31 11 12 14 26 9 50 -9 51 4 143 21 143 8 0 14 6 14 14 0 8 7
16 15 20 11 4 15 21 15 61 0 30 5 55 10 55 5 0 19 9 30 20 16 16 20 33 20 90
0 56 3 70 15 70 8 0 15 9 15 19 0 11 5 23 11 27 7 4 9 22 5 49 -5 30 -3 45 8
54 7 6 12 21 9 31 -3 12 1 22 11 26 9 3 16 12 16 20 0 8 7 14 15 14 11 0 15
12 15 45 0 33 4 45 15 45 8 0 15 7 15 16 0 10 6 14 15 10 9 -3 15 0 15 10 0 8
7 22 15 30 8 9 15 33 15 55 0 39 22 86 47 102 7 4 13 15 13 22 0 8 7 15 15 15
10 0 15 10 15 30 0 17 5 30 11 30 27 0 79 83 79 125 0 16 6 25 15 25 11 0 15
11 15 40 0 37 3 41 30 47 25 4 30 10 30 34 0 19 5 29 15 29 11 0 15 12 15 45
0 33 4 45 15 45 9 0 15 9 15 25 0 14 7 28 15 31 8 4 15 12 15 20 0 8 7 14 15
14 10 0 15 10 15 30 0 27 3 30 30 30 25 0 30 4 30 25 0 14 7 28 15 31 8 4 15
12 15 20 0 8 7 14 15 14 8 0 15 7 15 15 0 8 7 15 16 15 19 0 44 24 44 43 0 8
7 20 15 27 8 7 15 21 15 31 0 11 7 19 15 19 8 0 15 7 15 15 0 8 7 15 15 15 8
0 15 7 15 15 0 8 7 15 15 15 8 0 15 8 15 18 0 27 38 67 63 67 17 0 23 7 25 28
4 30 34 67 55 67 19 0 37 21 37 42 0 10 6 18 13 18 6 0 18 14 26 31 15 35 53
79 68 79 5 0 18 9 28 20 10 11 24 20 32 20 7 0 13 7 13 15 0 8 4 15 8 15 5 0
23 20 41 45 22 31 39 45 55 45 13 0 29 7 36 15 7 8 19 15 26 15 9 0 14 11 14
30 0 27 3 30 30 30 20 0 30 5 30 15 0 8 6 15 14 15 9 0 16 12 18 28 2 21 9 28
31 30 15 2 27 9 27 18 0 8 7 14 15 14 8 0 15 7 15 15 0 8 7 15 15 15 8 0 15 7
15 15 0 8 6 15 14 15 8 0 16 7 20 15 3 8 17 15 31 15 15 0 25 6 25 14 0 9 12
16 28 18 21 2 28 9 30 31 3 23 8 27 33 27 26 0 29 3 29 30 0 26 4 30 28 30 19
0 44 14 77 45 37 33 58 45 81 45 17 0 37 7 44 15 7 8 9 15 5 15 -5 0 11 14 33
30 23 17 48 30 56 30 8 0 27 12 43 26 19 18 34 23 50 19 17 -4 23 -1 23 11 0
12 6 14 29 9 30 -6 61 14 61 41 0 9 11 14 30 14 20 0 30 5 30 15 0 8 7 15 15
15 8 0 15 6 15 14 0 8 11 17 25 20 14 4 25 11 25 16 0 6 9 10 20 10 11 0 20 7
20 15 0 16 19 19 81 16 22 -2 42 4 52 13 8 9 20 16 25 16 5 0 17 11 26 25 20
30 56 47 106 49 28 1 36 5 38 24 2 12 10 22 18 22 8 0 14 6 14 14 0 11 24 15
112 18 78 2 113 7 116 16 2 6 19 12 38 12 24 0 34 5 34 15 0 10 10 15 30 15
19 0 30 5 30 14 0 16 41 29 64 20 19 -7 78 28 105 62 18 23 25 24 118 24 72 0
105 4 119 15 10 8 30 15 44 15 15 0 31 5 37 11 28 28 119 48 214 49 73 0 100
4 109 15 9 11 33 15 86 15 40 0 96 5 124 11 28 6 106 19 173 29 115 17 265 17
2502 16 1719 -2 2417 -6 2513 -14z m-11811 -4144 c-3 -7 -5 -2 -5 12 0 14 2
19 5 13 2 -7 2 -19 0 -25z m-10 -50 c-3 -8 -6 -5 -6 6 -1 11 2 17 5 13 3 -3 4
-12 1 -19z"/>
<path d="M24855 26420 c3 -5 8 -10 11 -10 2 0 4 5 4 10 0 6 -5 10 -11 10 -5 0
-7 -4 -4 -10z"/>
<path d="M18660 22293 c-204 -17 -459 -60 -503 -84 -10 -6 -42 -13 -70 -16
-29 -3 -54 -10 -57 -14 -6 -8 -92 -26 -170 -36 -24 -3 -53 -11 -65 -19 -11 -7
-39 -16 -62 -20 -23 -3 -44 -13 -47 -20 -4 -9 -21 -14 -51 -14 -33 0 -45 -4
-45 -15 0 -8 -6 -15 -14 -15 -8 0 -16 -7 -20 -15 -3 -10 -19 -15 -44 -15 -23
0 -45 -6 -52 -15 -7 -9 -29 -15 -51 -15 -21 0 -40 -4 -43 -8 -3 -5 -26 -9 -53
-11 -26 -1 -49 -6 -51 -12 -2 -5 -14 -6 -28 -3 -17 4 -26 1 -30 -10 -3 -9 -12
-16 -20 -16 -8 0 -14 -7 -14 -15 0 -10 -10 -15 -29 -15 -16 0 -34 -7 -41 -15
-7 -8 -21 -15 -31 -15 -11 0 -19 -7 -19 -15 0 -8 -7 -15 -15 -15 -8 0 -15 -7
-15 -15 0 -12 -13 -15 -60 -15 -47 0 -60 -3 -60 -15 0 -8 -7 -15 -15 -15 -8 0
-15 -7 -15 -15 0 -10 -10 -15 -30 -15 -20 0 -30 -5 -30 -15 0 -10 -10 -15 -30
-15 -16 0 -30 -5 -30 -10 0 -18 -34 -47 -62 -54 -16 -3 -28 -11 -28 -16 0 -6
-18 -10 -40 -10 -27 0 -43 -5 -46 -15 -4 -9 -19 -15 -35 -15 -26 0 -29 -4 -29
-30 0 -28 -2 -30 -40 -30 -37 0 -80 -25 -80 -48 0 -4 -9 -13 -21 -20 -17 -11
-23 -11 -36 0 -12 10 -17 9 -28 -5 -7 -9 -17 -17 -24 -17 -6 0 -11 -7 -11 -15
0 -8 -7 -15 -15 -15 -8 0 -15 -7 -15 -15 0 -8 -9 -15 -19 -15 -11 0 -26 -7
-35 -15 -8 -8 -19 -15 -25 -15 -6 0 -11 -7 -11 -15 0 -8 -7 -15 -15 -15 -8 0
-15 -7 -15 -15 0 -8 -7 -15 -15 -15 -8 0 -15 -7 -15 -15 0 -8 -7 -15 -15 -15
-8 0 -15 -7 -15 -15 0 -8 -7 -15 -15 -15 -8 0 -15 -7 -15 -15 0 -8 -6 -15 -14
-15 -8 0 -16 -7 -20 -15 -3 -8 -17 -15 -31 -15 -16 0 -25 -6 -25 -15 0 -8 -7
-15 -15 -15 -8 0 -15 -7 -15 -15 0 -10 -10 -15 -30 -15 -27 0 -30 -3 -30 -30
0 -27 -3 -30 -30 -30 -20 0 -30 -5 -30 -15 0 -8 -7 -15 -15 -15 -8 0 -15 -7
-15 -15 0 -8 -7 -15 -15 -15 -8 0 -15 -7 -15 -15 0 -8 -9 -15 -19 -15 -11 0
-26 -7 -35 -15 -8 -8 -17 -15 -20 -15 -10 0 -46 -39 -46 -50 0 -5 -7 -10 -15
-10 -8 0 -15 -7 -15 -15 0 -8 -7 -15 -15 -15 -8 0 -15 -7 -15 -15 0 -8 -6 -15
-13 -15 -14 0 -47 -35 -47 -50 0 -6 -7 -10 -15 -10 -8 0 -15 -7 -15 -15 0 -8
-7 -15 -15 -15 -8 0 -15 -7 -15 -15 0 -8 -7 -15 -15 -15 -8 0 -15 -7 -15 -15
0 -8 -7 -15 -15 -15 -9 0 -15 -9 -15 -25 0 -14 -7 -28 -15 -31 -8 -4 -15 -12
-15 -20 0 -8 -6 -14 -13 -14 -14 0 -47 -35 -47 -50 0 -6 -7 -10 -15 -10 -8 0
-15 -6 -15 -13 0 -14 -35 -47 -50 -47 -6 0 -10 -13 -10 -29 0 -25 -4 -30 -27
-33 -22 -2 -29 -9 -31 -30 -2 -16 -9 -28 -18 -28 -8 0 -14 -7 -14 -15 0 -8 -7
-15 -15 -15 -8 0 -15 -7 -15 -15 0 -9 -7 -18 -15 -21 -8 -4 -15 -15 -15 -26 0
-11 -8 -22 -20 -25 -11 -3 -20 -12 -20 -19 0 -8 -4 -14 -10 -14 -5 0 -10 -7
-10 -15 0 -8 -7 -15 -15 -15 -8 0 -15 -7 -15 -15 0 -9 -7 -18 -15 -22 -9 -3
-23 -19 -32 -36 -8 -17 -29 -42 -44 -56 -16 -14 -29 -33 -29 -42 0 -9 -7 -22
-15 -29 -8 -7 -15 -23 -15 -35 0 -13 -7 -25 -15 -29 -8 -3 -15 -16 -15 -28 -1
-13 -14 -34 -30 -48 -17 -13 -30 -34 -30 -46 0 -12 -7 -24 -15 -28 -9 -3 -15
-18 -15 -39 0 -23 -8 -41 -26 -58 -29 -27 -64 -93 -64 -120 0 -12 -9 -19 -27
-21 -22 -2 -28 -8 -29 -28 0 -14 -6 -35 -12 -47 -7 -12 -12 -40 -12 -62 0 -30
-4 -41 -15 -41 -8 0 -15 -7 -15 -15 0 -8 -7 -15 -15 -15 -8 0 -15 -7 -15 -15
0 -8 -7 -15 -15 -15 -12 0 -15 -13 -15 -60 l0 -60 -30 0 c-26 0 -30 -4 -30
-26 0 -14 -7 -32 -15 -40 -11 -11 -15 -38 -15 -92 -1 -52 -5 -83 -15 -96 -8
-11 -15 -39 -15 -63 0 -24 -4 -43 -9 -43 -5 0 -12 -13 -16 -30 -4 -16 -13 -30
-21 -30 -10 0 -14 -13 -14 -45 0 -33 -4 -45 -15 -45 -10 0 -15 -10 -15 -30 0
-20 -5 -30 -15 -30 -8 0 -15 -7 -15 -15 0 -9 -7 -26 -16 -40 -13 -19 -13 -31
-4 -65 8 -30 8 -46 1 -53 -6 -6 -11 -24 -11 -39 0 -18 -5 -28 -15 -28 -12 0
-15 -13 -15 -57 -1 -52 -4 -61 -30 -83 -29 -23 -30 -27 -30 -109 0 -56 -5 -90
-13 -100 -38 -45 -59 -398 -55 -896 5 -433 28 -818 53 -845 8 -9 14 -49 17
-104 2 -60 7 -91 16 -94 6 -2 12 -10 12 -18 0 -8 7 -17 15 -20 11 -5 15 -24
15 -80 0 -56 3 -74 14 -74 14 0 26 -78 26 -168 0 -35 3 -43 15 -38 12 4 15 -3
15 -29 0 -20 4 -43 8 -53 5 -9 16 -32 25 -50 9 -19 17 -53 17 -76 0 -45 13
-66 42 -66 15 0 18 -8 18 -45 0 -33 4 -45 15 -45 12 0 15 -13 15 -58 0 -32 5
-63 11 -69 6 -6 14 -26 18 -45 5 -27 12 -34 35 -36 27 -3 27 -5 25 -60 -2 -43
1 -58 12 -60 18 -3 40 -49 32 -68 -3 -8 1 -14 11 -14 9 0 16 -6 17 -12 4 -51
19 -88 34 -88 8 0 10 -9 7 -26 -3 -19 0 -26 16 -31 12 -3 18 -11 15 -19 -3 -7
2 -21 11 -29 9 -9 16 -26 16 -39 0 -12 13 -33 30 -46 16 -14 29 -32 30 -41 0
-9 7 -22 15 -29 8 -7 15 -19 15 -27 0 -14 8 -26 43 -64 9 -10 17 -22 17 -25 0
-3 14 -26 30 -51 17 -24 30 -53 30 -65 0 -11 13 -37 29 -57 16 -20 30 -44 32
-54 2 -10 8 -18 12 -17 5 1 24 -16 43 -37 19 -21 41 -45 49 -54 8 -9 15 -25
15 -37 0 -13 6 -22 15 -22 10 0 15 -10 15 -30 0 -27 3 -30 30 -30 27 0 30 -3
30 -30 0 -16 4 -30 10 -30 15 0 50 -33 50 -47 0 -7 11 -13 24 -13 25 0 36 -16
36 -56 0 -27 28 -64 47 -64 7 0 13 -7 13 -15 0 -8 5 -15 10 -15 13 0 50 -37
50 -50 0 -5 4 -10 10 -10 5 0 12 -11 16 -24 3 -14 22 -35 42 -49 21 -13 48
-36 62 -50 14 -15 31 -27 38 -27 6 0 12 -8 12 -18 0 -23 19 -42 41 -42 11 0
19 -9 21 -22 2 -13 12 -27 24 -32 11 -5 28 -22 37 -38 9 -16 25 -28 37 -28 11
0 20 -4 20 -10 0 -15 33 -50 47 -50 7 0 13 -7 13 -15 0 -8 7 -15 15 -15 8 0
15 -7 15 -15 0 -8 7 -15 15 -15 8 0 15 -4 15 -10 0 -19 40 -50 65 -50 16 0 25
-6 25 -15 0 -8 7 -15 15 -15 8 0 15 -7 15 -15 0 -8 4 -15 10 -15 15 0 50 -33
50 -47 0 -8 12 -13 30 -13 27 0 30 -3 30 -30 0 -25 4 -30 25 -30 29 0 94 -31
95 -45 1 -13 65 -45 90 -45 11 0 20 -7 20 -15 0 -8 -4 -15 -10 -15 -5 0 -10
-4 -10 -9 0 -15 60 -41 92 -41 21 0 39 -10 61 -35 23 -26 39 -35 62 -35 34 0
55 -15 55 -39 0 -9 20 -25 45 -36 25 -11 45 -23 45 -27 0 -5 8 -8 19 -8 20 0
71 -43 71 -60 0 -6 25 -10 60 -10 l60 0 0 -30 c0 -27 3 -30 30 -30 20 0 30 -5
30 -15 0 -12 13 -15 60 -15 47 0 60 -3 60 -15 0 -8 8 -15 19 -15 10 0 24 -7
31 -15 7 -8 19 -15 26 -15 8 0 14 -7 14 -15 0 -11 12 -15 44 -15 40 0 44 -2
50 -30 4 -23 11 -30 29 -30 13 0 32 -7 43 -15 12 -9 44 -14 92 -15 57 0 72 -3
72 -15 0 -11 12 -15 44 -15 30 0 46 -5 50 -15 3 -8 12 -15 19 -15 8 0 20 -7
27 -15 7 -9 29 -15 55 -15 26 0 48 -6 55 -15 7 -8 28 -15 46 -15 25 0 32 -4
28 -14 -4 -11 8 -16 53 -21 32 -4 63 -11 68 -15 6 -4 32 -10 60 -13 27 -3 51
-10 53 -16 2 -6 31 -11 70 -11 43 -1 74 -6 86 -15 11 -8 34 -15 52 -15 17 0
34 -6 37 -13 3 -9 30 -14 83 -16 44 -1 99 -8 124 -16 86 -27 304 -39 764 -42
333 -3 461 0 466 8 5 6 62 14 141 19 74 5 157 13 184 19 28 5 85 10 128 10 56
1 83 5 93 16 9 8 31 15 50 15 24 0 34 5 34 15 0 11 12 15 44 15 30 0 46 5 50
15 4 11 20 15 55 15 30 0 51 5 53 12 3 7 19 11 41 10 25 -2 37 2 37 10 0 11 2
11 8 0 11 -17 89 -5 96 14 3 9 21 14 46 14 29 0 40 4 40 15 0 10 10 15 30 15
20 0 30 5 30 15 0 10 10 15 30 15 20 0 30 5 30 15 0 12 13 15 60 15 47 0 60 3
60 15 0 11 11 15 37 15 43 0 112 29 113 48 0 8 16 12 45 12 33 0 45 4 45 15 0
10 10 15 30 15 20 0 30 5 30 15 0 8 6 15 14 15 7 0 19 7 26 15 7 8 21 15 31
15 11 0 19 7 19 15 0 12 13 15 60 15 47 0 60 3 60 15 0 10 10 15 28 15 29 0
62 26 62 48 0 7 13 12 29 12 16 0 34 7 41 15 7 8 21 15 32 15 11 0 32 13 46
30 15 16 34 30 42 30 9 0 25 7 36 15 10 8 31 15 47 15 23 0 27 4 27 30 0 29 2
30 45 30 33 0 45 4 45 15 0 8 7 15 15 15 8 0 15 7 15 15 0 8 6 15 14 15 7 0
19 7 26 15 7 8 28 15 46 15 26 0 34 4 34 18 0 23 19 42 41 42 9 0 22 7 29 15
7 8 21 15 31 15 12 0 19 7 19 20 0 11 7 20 15 20 8 0 15 5 15 10 0 6 7 10 15
10 8 0 15 7 15 15 0 8 7 15 15 15 8 0 15 7 15 15 0 8 7 15 15 15 8 0 15 7 15
15 0 8 9 15 19 15 11 0 26 7 35 15 8 8 19 15 25 15 6 0 11 7 11 15 0 8 7 15
15 15 8 0 15 7 15 15 0 10 10 15 30 15 27 0 30 3 30 30 0 27 3 30 30 30 20 0
30 5 30 15 0 8 7 15 15 15 8 0 15 7 15 15 0 8 7 15 15 15 8 0 15 7 15 15 0 9
9 15 25 15 14 0 28 7 31 15 4 8 12 15 20 15 8 0 14 7 14 15 0 8 7 15 15 15 8
0 15 7 15 15 0 8 7 15 15 15 8 0 15 7 15 15 0 8 7 15 15 15 8 0 15 7 15 15 0
8 7 15 15 15 8 0 15 7 15 15 0 8 7 15 15 15 8 0 15 7 15 15 0 8 7 15 15 15 8
0 15 7 15 15 0 8 7 15 15 15 8 0 15 4 15 10 0 5 15 25 34 45 19 19 40 48 48
65 7 16 19 30 25 30 7 0 13 7 13 15 0 8 7 15 15 15 8 0 15 7 15 15 0 8 7 15
15 15 10 0 15 10 15 30 0 27 3 30 30 30 27 0 30 3 30 30 0 20 5 30 15 30 8 0
15 7 15 15 0 8 7 15 15 15 8 0 15 5 15 10 0 12 41 73 53 78 4 2 7 10 7 18 0 8
7 14 15 14 8 0 15 7 15 15 0 8 7 15 15 15 8 0 15 6 15 14 0 8 7 16 15 20 8 3
15 13 15 23 0 10 14 31 30 47 17 16 30 37 30 47 0 9 7 19 15 23 8 3 15 13 15
23 0 10 13 31 29 46 17 15 33 36 36 47 4 11 11 20 16 20 5 0 9 9 9 19 0 10 7
21 15 25 8 3 15 13 15 22 0 9 14 33 30 54 17 21 30 45 30 53 0 8 7 17 15 21 8
3 15 17 15 31 0 14 4 25 10 25 5 0 21 22 35 49 13 27 29 52 35 56 5 3 10 15
10 25 0 10 7 26 16 34 8 9 12 16 8 16 -4 0 2 10 13 23 12 12 25 39 28 60 4 20
11 40 16 42 4 3 6 11 3 18 -2 7 7 24 20 36 14 13 23 28 20 32 -3 5 1 19 8 31
7 13 12 26 13 30 0 4 6 13 13 20 6 6 12 20 12 30 0 10 14 44 30 75 17 31 30
62 30 69 0 8 4 14 9 14 5 0 12 21 16 46 3 25 13 63 20 84 7 21 16 51 18 68 4
27 19 58 43 92 16 23 52 148 60 210 8 52 8 53 14 20 6 -38 7 -35 46 205 15 93
26 141 60 255 14 46 45 324 64 580 8 103 9 247 2 500 -12 419 -28 550 -97 795
-8 28 -16 73 -19 100 -6 62 -34 243 -42 269 -5 15 -8 16 -15 5 -6 -9 -9 0 -9
27 0 46 -16 101 -36 125 -8 8 -14 31 -14 51 0 24 -8 42 -25 58 -14 13 -28 39
-31 59 -4 20 -11 42 -17 49 -5 7 -13 47 -17 89 -5 51 -13 79 -22 84 -10 5 -14
18 -10 34 3 18 0 25 -12 25 -11 0 -16 9 -16 30 0 20 -5 30 -15 30 -10 0 -15
10 -15 33 0 39 -9 54 -35 58 -16 3 -21 13 -23 47 -2 29 -8 42 -18 42 -10 0
-15 8 -13 23 3 26 -9 67 -20 67 -5 0 -6 12 -3 26 3 19 0 26 -16 30 -13 4 -18
12 -15 23 2 10 -3 23 -11 30 -9 8 -16 24 -16 38 0 13 -7 26 -15 29 -8 3 -24
26 -35 50 -12 24 -26 44 -31 44 -5 0 -9 9 -9 20 0 37 -51 130 -71 130 -14 0
-19 7 -19 25 0 14 -7 28 -15 31 -8 4 -15 17 -15 30 0 12 -6 27 -13 31 -6 4
-18 20 -26 36 -8 15 -23 27 -33 27 -13 0 -18 7 -18 25 0 14 -7 28 -15 31 -8 4
-15 17 -15 30 0 13 -6 24 -12 24 -7 0 -22 14 -33 30 -11 16 -26 30 -32 30 -7
0 -13 11 -13 25 0 14 -7 28 -15 31 -8 4 -15 12 -15 20 0 8 -4 14 -10 14 -5 0
-19 9 -30 20 -11 11 -20 25 -20 30 0 6 -7 10 -15 10 -10 0 -15 10 -15 30 0 20
-5 30 -15 30 -8 0 -15 7 -15 15 0 8 -7 15 -15 15 -10 0 -15 10 -15 30 0 27 -3
30 -30 30 -26 0 -30 3 -30 29 0 22 -6 30 -25 35 -15 4 -27 16 -31 31 -5 19
-13 25 -35 25 -26 0 -29 4 -29 30 0 17 -5 30 -12 30 -7 0 -21 18 -31 40 -10
22 -25 40 -32 40 -7 0 -63 50 -124 110 -61 61 -115 110 -121 110 -5 0 -10 7
-10 15 0 8 -7 15 -15 15 -8 0 -15 7 -15 15 0 8 -4 15 -10 15 -5 0 -19 9 -30
20 -11 11 -20 25 -20 30 0 6 -13 10 -30 10 -27 0 -30 3 -30 30 0 27 -3 30 -30
30 -20 0 -30 5 -30 15 0 8 -7 15 -15 15 -8 0 -15 7 -15 15 0 8 -7 15 -15 15
-8 0 -15 7 -15 15 0 9 -9 15 -24 15 -13 0 -26 7 -30 15 -3 8 -12 15 -21 15 -8
0 -15 7 -15 15 0 8 -7 15 -15 15 -8 0 -15 6 -15 14 0 8 -10 16 -22 18 -13 2
-28 15 -35 29 -7 14 -29 34 -50 44 -21 10 -45 22 -53 27 -8 5 -23 11 -32 14
-10 4 -18 13 -18 20 0 8 -7 14 -15 14 -8 0 -15 4 -15 9 0 5 -13 12 -30 16 -16
4 -30 13 -30 21 0 8 -10 14 -25 14 -14 0 -28 7 -31 15 -4 8 -19 15 -34 15 -22
0 -29 5 -32 21 -2 12 -10 25 -18 29 -8 4 -30 14 -48 23 -19 9 -45 17 -58 17
-15 0 -24 6 -24 15 0 8 -6 15 -14 15 -8 0 -16 7 -20 15 -3 8 -17 15 -31 15
-16 0 -25 6 -25 15 0 10 -10 15 -30 15 -17 0 -30 5 -30 13 0 6 -20 21 -45 32
-25 11 -45 25 -45 32 0 8 -14 13 -40 13 -44 0 -109 28 -110 48 0 7 -13 12 -30
12 -20 0 -30 5 -30 15 0 11 -12 15 -45 15 -33 0 -45 4 -45 15 0 8 -8 15 -17
15 -9 0 -25 7 -35 16 -15 14 -20 15 -34 3 -13 -11 -17 -10 -25 4 -6 9 -19 17
-29 17 -10 0 -22 5 -25 10 -3 6 -21 10 -40 10 -20 0 -35 6 -39 15 -3 9 -19 15
-41 15 -22 0 -38 6 -41 15 -4 8 -12 15 -20 15 -8 0 -14 7 -14 15 0 11 -12 15
-45 15 -33 0 -45 4 -45 15 0 10 -10 15 -32 15 -17 0 -39 6 -47 14 -9 8 -38 17
-66 21 -39 5 -47 4 -35 -5 12 -10 10 -11 -10 -6 -14 3 -49 9 -77 12 -29 4 -53
11 -53 15 0 5 -13 9 -29 9 -16 0 -36 7 -45 15 -9 9 -33 15 -60 15 -33 0 -46 4
-46 14 0 13 -44 25 -92 27 -10 0 -20 4 -23 10 -4 5 -29 9 -56 9 -28 0 -58 4
-68 9 -9 5 -71 12 -136 16 -66 4 -196 13 -290 21 -211 18 -711 16 -925 -3z
m-815 -173 c-3 -5 -14 -10 -23 -10 -15 0 -15 2 -2 10 20 13 33 13 25 0z m1758
-1895 c15 -4 24 -11 21 -16 -3 -5 1 -9 8 -9 79 -3 142 -13 155 -25 10 -11 38
-15 103 -15 l89 0 3 -27 c3 -27 6 -28 61 -31 42 -2 57 -7 57 -17 0 -15 34 -19
141 -15 39 1 50 -3 67 -24 11 -15 34 -29 52 -32 17 -4 34 -13 37 -20 3 -8 14
-14 25 -14 11 0 41 -20 66 -45 39 -39 51 -45 87 -45 49 0 98 -22 139 -62 17
-15 38 -28 47 -28 10 0 22 -6 26 -12 9 -15 75 -54 116 -69 15 -6 27 -17 27
-25 0 -9 11 -14 30 -14 27 0 30 -3 30 -30 0 -27 3 -30 30 -30 20 0 30 -5 30
-15 0 -10 10 -15 30 -15 20 0 30 -5 30 -15 0 -8 7 -15 15 -15 8 0 15 -7 15
-15 0 -8 7 -15 15 -15 8 0 15 -4 15 -10 0 -5 9 -19 20 -30 11 -11 25 -20 30
-20 6 0 10 -4 10 -9 0 -5 10 -13 22 -17 27 -8 43 -24 43 -44 0 -9 11 -16 28
-18 15 -2 27 -9 27 -18 0 -8 7 -14 15 -14 8 0 15 -7 15 -15 0 -8 7 -15 15 -15
8 0 15 -7 15 -15 0 -8 7 -15 15 -15 8 0 15 -7 15 -15 0 -8 7 -15 15 -15 8 0
15 -4 15 -10 0 -13 37 -50 50 -50 6 0 10 -7 10 -15 0 -8 4 -15 9 -15 5 0 14
-13 20 -30 5 -16 15 -30 20 -30 6 0 11 -7 11 -15 0 -8 7 -15 15 -15 8 0 15 -7
15 -15 0 -8 7 -15 15 -15 8 0 15 -7 15 -15 0 -8 7 -15 15 -15 8 0 15 -8 15
-19 0 -10 6 -24 14 -31 8 -6 16 -24 18 -38 2 -21 9 -28 31 -30 23 -3 27 -8 27
-33 0 -19 5 -29 15 -29 8 0 15 -8 15 -19 0 -10 7 -24 15 -31 8 -7 15 -18 15
-25 0 -8 5 -15 11 -17 5 -2 12 -19 15 -38 3 -19 12 -40 20 -46 8 -6 14 -16 14
-23 0 -6 7 -11 15 -11 8 0 15 -7 15 -15 0 -8 7 -15 15 -15 8 0 15 -7 15 -15 0
-8 4 -15 10 -15 13 0 30 -70 24 -97 -5 -17 -2 -23 10 -23 11 0 16 -9 16 -27 0
-29 25 -63 47 -63 8 0 13 -12 13 -34 0 -18 7 -39 15 -46 8 -7 15 -18 15 -25 0
-8 5 -15 12 -17 6 -2 12 -20 12 -40 1 -20 4 -34 7 -32 16 9 27 -27 31 -99 3
-43 10 -83 17 -90 6 -6 11 -30 11 -54 0 -32 4 -43 15 -43 10 0 15 -10 15 -31
0 -17 7 -37 15 -45 10 -10 15 -35 15 -74 0 -32 4 -60 10 -62 5 -1 13 -25 16
-53 4 -27 11 -55 16 -62 11 -14 11 -883 -1 -897 -5 -6 -12 -30 -16 -53 -4 -24
-11 -45 -16 -49 -5 -3 -9 -34 -9 -70 0 -50 -3 -64 -15 -64 -10 0 -15 -10 -15
-29 0 -16 -6 -36 -12 -43 -7 -7 -14 -31 -16 -53 -2 -22 -10 -64 -18 -94 -9
-30 -16 -74 -17 -98 -2 -31 -6 -43 -17 -43 -11 0 -15 -12 -16 -42 0 -23 -5
-43 -12 -46 -7 -2 -12 -15 -12 -28 0 -14 -7 -27 -15 -30 -9 -4 -15 -19 -15
-35 0 -19 -5 -29 -15 -29 -8 0 -15 -6 -15 -14 0 -8 -7 -17 -16 -20 -10 -4 -13
-13 -9 -25 3 -10 -1 -23 -9 -30 -8 -7 -17 -30 -21 -52 -4 -24 -12 -39 -21 -39
-8 0 -14 -10 -14 -23 0 -13 -13 -33 -30 -47 -16 -14 -29 -31 -30 -37 0 -7 -6
-13 -14 -13 -8 0 -15 -16 -19 -41 -3 -23 -10 -45 -15 -48 -6 -3 -14 -19 -17
-34 -4 -15 -11 -27 -16 -27 -5 0 -9 -7 -9 -15 0 -8 -7 -15 -15 -15 -10 0 -15
-10 -15 -30 0 -27 -3 -30 -30 -30 -26 0 -30 -3 -30 -29 0 -16 -7 -34 -15 -41
-8 -7 -15 -21 -15 -31 0 -11 -7 -19 -15 -19 -8 0 -15 -7 -15 -15 0 -8 -7 -15
-15 -15 -8 0 -15 -7 -15 -15 0 -8 -7 -15 -15 -15 -8 0 -15 -7 -15 -15 0 -8 -7
-15 -15 -15 -8 0 -15 -6 -15 -14 0 -7 -7 -19 -15 -26 -8 -7 -15 -21 -15 -31 0
-12 -7 -19 -19 -19 -12 0 -25 -12 -33 -30 -7 -16 -19 -30 -25 -30 -7 0 -13 -7
-13 -15 0 -8 -7 -15 -15 -15 -8 0 -15 -7 -15 -15 0 -8 -7 -15 -15 -15 -8 0
-15 -7 -15 -15 0 -8 -7 -15 -15 -15 -8 0 -15 -7 -15 -15 0 -8 -6 -15 -13 -15
-14 0 -47 -35 -47 -49 0 -5 -13 -12 -30 -16 -16 -4 -30 -11 -30 -16 0 -5 -7
-9 -15 -9 -8 0 -15 -7 -15 -15 0 -8 -7 -15 -15 -15 -8 0 -15 -7 -15 -15 0 -8
-7 -15 -15 -15 -8 0 -15 -7 -15 -15 0 -8 -7 -15 -15 -15 -8 0 -15 -7 -15 -15
0 -8 -9 -15 -19 -15 -11 0 -26 -6 -34 -14 -7 -8 -25 -16 -38 -18 -18 -2 -25
-10 -27 -30 -3 -24 -8 -28 -33 -28 -16 0 -29 -4 -29 -10 0 -19 -35 -50 -57
-50 -12 0 -28 -7 -37 -15 -8 -8 -22 -15 -30 -15 -9 0 -16 -5 -16 -11 0 -5 -15
-16 -34 -24 -19 -8 -50 -31 -69 -50 -30 -31 -40 -35 -86 -35 -39 0 -51 -4 -51
-15 0 -10 -10 -15 -27 -15 -18 -1 -37 -11 -53 -30 -13 -17 -34 -30 -46 -30
-12 0 -24 -6 -27 -14 -3 -7 -23 -16 -45 -20 -22 -3 -42 -9 -44 -13 -1 -5 -20
-17 -40 -27 -30 -15 -41 -16 -52 -7 -10 8 -16 9 -21 1 -3 -5 -19 -10 -34 -10
-15 0 -36 -7 -47 -15 -10 -8 -38 -15 -61 -15 -23 0 -48 -7 -57 -15 -8 -8 -21
-15 -29 -15 -8 0 -20 -6 -26 -14 -6 -7 -41 -16 -82 -19 -39 -3 -76 -10 -82
-16 -11 -8 -67 -17 -272 -41 -85 -11 -637 -11 -612 -1 16 6 -227 34 -295 34
-17 0 -28 5 -28 13 0 10 -14 14 -49 14 -31 0 -53 5 -61 15 -7 8 -25 15 -40 15
-16 0 -30 7 -34 15 -4 11 -21 15 -62 15 -38 0 -63 5 -75 16 -11 10 -40 16 -88
17 -64 2 -70 4 -65 21 5 16 2 18 -22 13 -21 -4 -34 2 -57 24 -20 20 -39 29
-61 29 -23 0 -39 8 -56 30 -17 19 -34 29 -53 30 -16 0 -35 7 -43 15 -9 8 -26
15 -40 15 -14 0 -27 7 -30 15 -4 8 -16 15 -28 15 -12 0 -33 13 -46 30 -14 16
-35 29 -47 30 -12 0 -26 6 -30 14 -4 7 -27 23 -50 35 -24 12 -43 26 -43 31 0
6 -11 10 -25 10 -14 0 -25 6 -25 13 0 7 -20 21 -45 32 -25 11 -45 26 -45 33 0
6 -7 12 -15 12 -8 0 -15 7 -15 15 0 8 -9 15 -20 15 -11 0 -40 20 -63 45 -24
25 -49 45 -55 45 -7 0 -12 5 -12 10 0 6 -9 19 -20 30 -11 11 -24 20 -30 20 -5
0 -10 7 -10 15 0 8 -4 15 -10 15 -5 0 -38 27 -72 61 -35 33 -74 67 -88 76 -26
15 -70 74 -70 93 0 5 -4 10 -10 10 -5 0 -19 9 -30 20 -11 11 -20 25 -20 30 0
6 -7 10 -15 10 -8 0 -15 4 -15 10 0 12 -68 80 -80 80 -6 0 -10 14 -10 30 0 20
-5 30 -15 30 -8 0 -15 5 -15 10 0 6 -9 19 -20 30 -11 11 -24 20 -30 20 -8 0
-15 34 -12 61 1 3 -12 20 -29 38 -16 18 -29 36 -29 42 0 5 -7 9 -15 9 -11 0
-15 12 -15 45 0 43 -1 45 -30 45 -26 0 -30 3 -30 29 0 16 -6 31 -15 35 -10 3
-15 19 -15 45 0 25 -5 41 -15 45 -8 3 -15 18 -15 34 0 32 -16 52 -42 52 -14 0
-18 8 -18 40 0 30 -6 47 -24 63 -13 12 -27 33 -31 47 -4 14 -12 28 -18 32 -6
4 -13 37 -15 75 -3 44 -9 71 -18 76 -8 4 -14 19 -14 32 0 32 -30 108 -47 118
-9 6 -13 33 -13 92 0 69 -3 85 -15 85 -10 0 -15 11 -15 35 0 19 -4 35 -10 35
-6 0 -10 28 -10 65 0 49 -4 67 -15 71 -8 4 -15 13 -15 21 0 9 6 13 15 9 8 -3
15 -1 15 5 0 5 -7 12 -15 15 -14 6 -15 57 -13 421 2 335 6 415 17 422 8 6 13
30 14 70 0 33 4 61 9 61 4 0 8 11 8 25 0 16 6 25 15 25 12 0 15 17 15 96 l0
96 30 11 c25 10 30 17 30 47 0 19 7 53 15 75 8 22 14 71 15 108 0 51 4 69 15
73 8 4 15 12 15 19 0 7 7 18 15 25 8 7 15 21 15 31 0 11 7 19 15 19 11 0 15
12 15 45 0 37 3 45 18 45 27 0 42 20 42 57 0 23 5 33 15 33 11 0 15 12 15 45
0 33 4 45 15 45 10 0 15 10 15 30 0 27 3 30 30 30 29 0 30 2 30 45 0 33 4 45
15 45 8 0 15 7 15 15 0 8 7 15 15 15 8 0 15 7 15 15 0 8 7 15 15 15 10 0 15
10 15 34 0 25 8 43 30 64 17 17 30 35 30 41 0 6 7 11 15 11 9 0 15 9 15 21 0
14 10 24 30 32 20 7 31 20 35 39 4 15 11 28 16 28 5 0 9 7 9 15 0 8 7 15 15
15 8 0 15 7 15 15 0 8 7 15 15 15 8 0 15 7 15 15 0 8 7 15 15 15 8 0 15 5 15
10 0 6 7 18 15 28 9 9 31 35 50 56 19 21 35 42 35 45 0 4 13 15 30 24 16 10
42 31 59 47 16 17 34 30 40 30 6 0 11 7 11 15 0 8 7 15 15 15 8 0 15 7 15 15
0 8 7 15 15 15 8 0 15 7 15 15 0 8 7 15 15 15 8 0 15 6 15 13 0 6 20 21 45 32
38 16 45 24 45 47 0 24 4 28 30 28 20 0 30 5 30 15 0 8 6 15 13 15 6 1 28 14
47 30 20 18 46 30 63 30 16 0 26 4 22 10 -3 6 3 14 14 18 11 4 20 12 20 17 0
6 9 11 20 13 11 2 25 10 31 18 7 8 23 14 36 14 17 0 23 6 26 28 2 20 9 28 28
30 14 2 29 10 33 18 5 9 25 14 56 14 31 0 53 5 61 15 7 8 23 15 36 15 17 0 23
6 26 28 3 25 7 27 54 30 46 3 57 8 98 48 30 30 53 45 68 44 13 -1 56 -2 96 -1
57 1 72 4 72 16 0 12 13 15 60 15 47 0 60 3 60 15 0 8 6 15 14 15 8 0 16 7 20
15 4 11 22 15 73 15 45 0 76 5 90 15 12 8 52 17 90 19 75 5 131 15 138 25 5 9
753 14 788 6z"/>
</g>
</svg>
