<?xml version="1.0" standalone="no"?>
<!DOCTYPE svg PUBLIC "-//W3C//DTD SVG 20010904//EN"
 "http://www.w3.org/TR/2001/REC-SVG-20010904/DTD/svg10.dtd">
<svg version="1.0" xmlns="http://www.w3.org/2000/svg"
 width="3840.000000pt" height="3074.000000pt" viewBox="0 0 3840.000000 3074.000000"
 preserveAspectRatio="xMidYMid meet">
<metadata>
Created by potrace 1.16, written by Peter Selinger 2001-2019
</metadata>
<g transform="translate(0.000000,3074.000000) scale(0.100000,-0.100000)"
fill="#000000" stroke="none">
<path d="M27480 30670 c-215 -10 -437 -33 -685 -71 -177 -27 -290 -50 -590
-118 -113 -26 -420 -116 -518 -152 -45 -17 -131 -48 -192 -69 -60 -21 -150
-56 -200 -78 -49 -22 -130 -56 -180 -77 -413 -173 -1102 -593 -1461 -890 -225
-186 -308 -258 -443 -386 -165 -155 -384 -383 -516 -539 -44 -51 -96 -112
-116 -134 -20 -23 -51 -62 -70 -87 -19 -26 -71 -94 -117 -153 l-83 -106 -447
0 c-453 0 -648 -10 -892 -46 -610 -88 -1158 -290 -1688 -621 -130 -81 -387
-272 -512 -380 -126 -108 -388 -374 -487 -493 -504 -608 -827 -1329 -947
-2115 -37 -245 -48 -432 -43 -725 7 -394 41 -654 136 -1020 131 -510 377
-1023 694 -1445 423 -562 916 -979 1532 -1295 508 -260 1091 -423 1664 -466
l93 -7 25 -55 c68 -154 113 -349 84 -366 -5 -4 -49 -17 -98 -31 -528 -149
-1153 -364 -1508 -518 -44 -19 -155 -67 -247 -106 -92 -39 -238 -105 -324
-147 -86 -41 -202 -96 -257 -121 -96 -44 -183 -88 -272 -138 -22 -12 -103 -55
-180 -95 -77 -41 -196 -106 -263 -147 -68 -40 -126 -73 -128 -73 -2 0 -65 -37
-141 -83 -120 -72 -223 -137 -533 -337 -38 -25 -116 -77 -172 -117 -57 -40
-153 -107 -215 -150 -139 -98 -437 -322 -566 -428 -54 -44 -124 -100 -156
-125 -407 -319 -1117 -999 -1517 -1455 -77 -88 -153 -173 -168 -190 -16 -16
-74 -86 -129 -155 -56 -69 -134 -165 -175 -215 -360 -439 -888 -1215 -1158
-1700 -6 -11 -36 -63 -66 -115 -30 -52 -81 -144 -113 -205 -447 -851 -703
-1461 -994 -2370 -30 -95 -41 -130 -92 -315 -17 -63 -37 -133 -44 -155 -7 -22
-29 -105 -48 -185 -87 -352 -120 -499 -152 -670 -7 -41 -27 -147 -44 -235 -17
-88 -42 -239 -56 -335 -14 -96 -30 -200 -35 -230 -32 -181 -78 -687 -111
-1200 -7 -112 -13 -778 -16 -1839 l-5 -1664 -346 6 c-278 5 -373 10 -479 26
-533 83 -1005 330 -1382 725 -331 347 -557 801 -625 1261 -8 55 -18 116 -22
135 -4 19 -10 3604 -13 7965 -6 7520 -7 7937 -24 8070 -46 360 -136 747 -232
995 -8 19 -30 77 -50 129 -103 268 -264 569 -450 842 -40 59 -78 114 -84 121
-6 7 -39 49 -73 93 -148 190 -392 446 -586 614 -345 298 -819 580 -1252 743
-123 47 -264 94 -335 113 -27 7 -84 22 -125 34 -426 117 -988 166 -1435 126
-471 -42 -854 -131 -1260 -292 -552 -219 -1027 -532 -1450 -957 -214 -214
-393 -431 -523 -631 -25 -38 -60 -92 -78 -120 -275 -425 -494 -998 -588 -1545
-64 -370 -61 -231 -61 -2590 0 -2031 1 -2150 18 -2234 80 -395 305 -727 642
-952 153 -102 347 -178 550 -216 97 -18 358 -15 465 5 539 101 995 518 1136
1037 51 187 47 26 54 2280 7 2245 4 2117 53 2296 133 481 535 880 1022 1013
88 25 281 51 370 51 81 0 259 -26 350 -51 250 -69 450 -185 642 -374 217 -214
333 -425 410 -750 16 -65 18 -634 23 -7985 5 -5825 10 -7944 18 -8025 39 -374
82 -621 163 -935 36 -136 134 -450 159 -505 5 -11 19 -45 31 -75 12 -30 28
-69 35 -87 8 -17 14 -33 14 -36 0 -9 90 -200 152 -322 197 -390 440 -751 723
-1075 97 -111 422 -437 480 -481 17 -13 32 -26 35 -29 27 -32 224 -186 379
-299 674 -487 1480 -809 2318 -926 378 -53 -265 -49 8018 -52 5640 -3 7651 -1
7710 7 370 53 667 303 776 657 32 102 51 257 44 358 -22 317 -85 565 -199 793
-105 210 -198 337 -371 508 -280 278 -615 447 -1034 521 -72 13 -248 16 -1111
19 -564 2 -1040 6 -1057 9 -43 8 -42 18 5 46 20 12 195 140 387 283 193 144
360 268 371 276 12 8 120 89 240 180 121 90 298 223 394 294 96 71 209 155
250 186 136 103 272 205 562 421 844 630 1065 794 1513 1129 270 202 633 474
809 606 372 279 368 276 379 265 5 -5 15 -33 22 -63 7 -29 20 -80 30 -113 9
-33 29 -109 45 -170 15 -60 43 -164 60 -230 41 -153 187 -705 240 -905 16 -58
37 -139 48 -180 21 -76 107 -400 169 -635 18 -71 63 -238 98 -370 l64 -240 4
-975 c3 -939 4 -979 25 -1090 77 -421 246 -752 528 -1034 292 -292 657 -472
1089 -537 135 -21 4238 -20 4370 0 437 68 817 258 1100 553 290 301 456 641
522 1069 16 101 18 194 18 824 -1 704 -6 854 -41 1235 -26 287 -93 652 -165
905 -15 55 -82 318 -148 585 -134 542 -350 1415 -497 2005 -53 215 -100 406
-104 425 -4 19 -19 80 -34 135 -23 92 -119 476 -435 1755 -66 267 -181 730
-255 1030 -133 539 -273 1106 -487 1970 -61 245 -164 661 -229 925 -66 264
-190 764 -275 1110 -295 1192 -377 1521 -496 2000 -65 264 -119 485 -119 491
0 7 46 74 103 150 265 357 484 733 664 1139 24 55 48 109 53 120 43 93 156
396 210 561 l43 131 86 7 c277 20 586 74 846 146 44 12 96 26 116 31 46 11
152 48 299 106 383 149 700 322 1010 551 136 101 244 187 320 255 696 629
1144 1389 1349 2286 35 152 73 411 90 624 36 429 -15 966 -135 1417 -296 1109
-1001 2033 -1995 2611 -164 95 -387 204 -529 259 -30 11 -68 27 -85 34 -105
47 -414 139 -626 186 -340 75 -534 92 -1139 99 l-505 6 -130 167 c-619 792
-1317 1396 -2157 1868 -128 72 -487 246 -648 313 -632 265 -1270 423 -1959
487 -237 22 -697 32 -941 20z m607 -2871 c426 -35 809 -127 1184 -285 218 -92
395 -186 634 -339 163 -104 476 -362 620 -509 297 -306 559 -676 735 -1041
164 -339 264 -649 325 -1005 52 -306 50 -239 50 -2080 0 -1606 -1 -1734 -18
-1860 -79 -590 -245 -1067 -537 -1539 -391 -633 -935 -1132 -1590 -1459 -318
-159 -608 -258 -955 -327 -562 -112 -1213 -85 -1745 72 -47 14 -98 29 -115 33
-70 19 -225 78 -360 135 -254 109 -515 263 -780 459 -544 404 -990 973 -1259
1608 -133 315 -232 698 -266 1028 -6 58 -13 125 -15 150 -3 24 -5 793 -5 1708
0 1419 2 1685 15 1810 73 698 321 1329 749 1902 98 131 343 410 413 469 15 14
73 66 128 116 98 90 316 257 425 327 329 211 589 339 902 443 306 102 592 157
973 188 97 8 375 6 492 -4z m-6864 -2960 c0 -19 -17 -119 -37 -224 -70 -377
-69 -347 -73 -1430 -2 -539 -8 -984 -13 -988 -4 -5 -25 1 -46 12 -22 11 -66
33 -99 48 -190 85 -430 296 -560 493 -69 105 -156 283 -174 356 -5 22 -19 75
-31 119 -34 124 -39 362 -11 521 48 277 164 516 346 712 154 165 368 306 580
379 38 14 77 29 85 34 25 14 35 4 33 -32z m13338 -19 c346 -140 594 -360 750
-662 95 -185 144 -371 155 -585 25 -478 -234 -968 -656 -1238 -108 -69 -272
-145 -287 -133 -9 7 -13 254 -16 1021 -4 1046 -6 1089 -47 1292 -23 114 -60
321 -60 337 0 28 28 22 161 -32z m-11104 -8728 c367 -334 751 -611 1193 -860
233 -132 600 -305 820 -387 19 -7 71 -27 115 -43 109 -41 338 -114 460 -147
55 -15 125 -34 155 -42 210 -57 594 -126 875 -157 505 -56 1052 -52 1535 9
161 21 307 43 360 54 25 5 83 17 130 26 330 67 738 184 1045 301 142 54 390
157 458 190 81 40 81 40 115 -98 17 -68 139 -555 272 -1083 133 -528 327
-1300 431 -1715 105 -415 291 -1155 414 -1645 389 -1545 691 -2746 875 -3480
98 -390 302 -1203 453 -1805 l275 -1095 41 -300 c46 -340 69 -573 73 -755 l3
-125 -957 -3 -958 -2 0 570 0 570 -59 148 c-57 139 -107 338 -946 3692 -487
1950 -890 3562 -896 3583 -7 27 -15 37 -24 33 -11 -4 -9450 -7076 -9605 -7196
-19 -15 -129 -97 -245 -184 -115 -86 -232 -174 -260 -195 -27 -21 -223 -168
-435 -326 -212 -158 -401 -300 -420 -315 -107 -81 -450 -338 -478 -357 l-33
-23 -1915 0 -1916 0 5 1638 c4 1534 6 1655 25 1922 21 285 26 331 62 634 33
276 105 686 183 1036 33 147 122 481 167 625 17 55 40 131 51 169 18 61 36
115 129 381 221 628 590 1390 952 1964 157 250 175 277 303 461 761 1096 1777
2086 2880 2808 88 57 178 117 200 132 37 25 161 99 405 242 126 74 347 190
550 289 91 45 197 97 235 116 321 162 1140 469 1520 572 61 16 175 47 255 69
176 49 502 127 625 148 50 9 140 27 200 39 181 37 166 42 302 -83z"/>
<path d="M25733 24445 c-231 -42 -438 -164 -580 -341 -114 -143 -172 -279
-200 -472 -36 -257 32 -512 194 -719 133 -171 270 -263 488 -330 84 -25 102
-27 265 -27 162 0 182 2 265 28 393 120 640 418 686 830 9 85 9 119 -5 214
-38 259 -145 456 -331 608 -49 41 -120 90 -158 110 -188 99 -421 136 -624 99z"/>
<path d="M29572 24449 c-337 -49 -648 -314 -753 -642 -88 -275 -48 -597 101
-820 182 -272 441 -421 758 -434 288 -13 531 78 725 271 119 117 197 252 248
427 32 112 37 323 11 451 -33 157 -105 308 -205 424 -64 75 -201 186 -280 226
-182 92 -398 126 -605 97z"/>
</g>
</svg>
