<?xml version="1.0" standalone="no"?>
<!DOCTYPE svg PUBLIC "-//W3C//DTD SVG 20010904//EN"
 "http://www.w3.org/TR/2001/REC-SVG-20010904/DTD/svg10.dtd">
<svg version="1.0" xmlns="http://www.w3.org/2000/svg"
 width="3840.000000pt" height="3414.000000pt" viewBox="0 0 3840.000000 3414.000000"
 preserveAspectRatio="xMidYMid meet">
<metadata>
Created by potrace 1.16, written by Peter Selinger 2001-2019
</metadata>
<g transform="translate(0.000000,3414.000000) scale(0.100000,-0.100000)"
fill="#000000" stroke="none">
<path d="M11365 34064 c-345 -12 -909 -72 -1245 -133 -250 -45 -293 -54 -525
-108 -132 -30 -310 -75 -395 -100 -85 -25 -180 -51 -210 -59 -106 -28 -506
-168 -650 -226 -80 -33 -191 -77 -248 -98 -202 -77 -762 -351 -1012 -495 -69
-40 -152 -87 -185 -105 -33 -18 -127 -76 -209 -129 -82 -53 -178 -114 -212
-136 -91 -57 -362 -250 -452 -320 -42 -33 -89 -69 -103 -80 -346 -257 -807
-678 -1166 -1063 -413 -443 -712 -832 -1098 -1427 -154 -238 -470 -820 -575
-1060 -40 -91 -90 -200 -100 -217 -5 -10 -35 -82 -66 -160 -30 -79 -74 -188
-96 -243 -59 -145 -176 -493 -228 -675 -18 -63 -38 -135 -46 -160 -26 -88 -52
-186 -68 -260 -9 -41 -23 -100 -31 -130 -25 -93 -63 -271 -79 -365 -8 -49 -26
-153 -40 -230 -14 -77 -34 -214 -45 -305 -12 -91 -26 -199 -31 -240 -34 -251
-63 -904 -55 -1220 12 -421 61 -959 120 -1305 49 -286 56 -323 90 -480 55
-249 56 -251 141 -565 43 -155 166 -536 225 -690 17 -47 40 -107 49 -135 65
-184 344 -793 473 -1031 24 -44 63 -116 87 -160 127 -234 422 -703 569 -904
34 -47 82 -114 108 -150 133 -187 461 -589 567 -693 36 -37 45 -52 37 -60 -9
-9 -365 -13 -1364 -18 -1487 -6 -1386 -2 -1647 -69 -541 -141 -1004 -494
-1299 -992 -36 -60 -112 -219 -133 -278 -11 -30 -26 -69 -34 -87 -8 -17 -14
-37 -14 -44 0 -7 -8 -38 -19 -68 -20 -61 -42 -160 -63 -286 -11 -65 -13 -521
-13 -2430 0 -2229 1 -2355 18 -2450 80 -438 247 -785 526 -1093 67 -73 214
-210 267 -247 15 -11 42 -31 59 -45 155 -129 467 -276 723 -340 272 -68 140
-64 2015 -67 l1697 -4 0 -2710 c0 -1756 4 -2762 10 -2857 11 -148 37 -394 45
-422 3 -8 12 -55 20 -105 100 -576 363 -1193 713 -1676 159 -219 168 -230 351
-428 152 -166 378 -372 526 -481 177 -131 238 -175 254 -185 9 -5 51 -31 94
-57 43 -27 81 -48 84 -48 4 0 14 -6 22 -14 20 -18 85 -54 171 -97 199 -97 315
-150 400 -183 52 -21 106 -42 120 -48 48 -19 126 -44 325 -102 150 -43 364
-85 640 -123 125 -17 478 -18 8450 -18 6822 0 8336 2 8410 13 50 7 149 22 221
33 131 19 363 67 459 95 282 83 328 99 568 201 134 56 315 148 402 201 28 18
61 36 74 42 24 10 69 39 226 143 245 161 523 404 753 656 294 322 573 747 747
1136 122 274 259 719 294 958 5 34 17 107 26 162 9 55 24 203 33 328 l17 228
60 -45 c33 -25 64 -46 69 -46 4 0 25 -13 45 -29 20 -16 57 -42 83 -57 25 -16
179 -119 342 -229 163 -110 309 -207 323 -215 15 -8 32 -19 38 -23 18 -14 225
-154 360 -244 72 -47 141 -94 155 -104 14 -11 36 -25 50 -32 14 -6 30 -16 37
-22 38 -31 574 -385 584 -385 4 0 9 -4 11 -8 2 -5 95 -71 208 -147 113 -76
214 -144 225 -152 19 -13 233 -156 350 -233 90 -59 136 -90 253 -169 62 -42
125 -83 140 -91 15 -8 29 -18 32 -21 3 -3 25 -19 49 -35 24 -16 74 -49 112
-74 37 -25 96 -64 131 -87 34 -23 74 -50 87 -60 13 -10 45 -31 71 -48 73 -46
320 -211 361 -240 20 -15 46 -32 57 -38 20 -11 289 -190 397 -264 28 -19 115
-78 195 -131 80 -53 150 -101 155 -105 12 -10 270 -182 325 -217 62 -40 254
-168 265 -177 6 -5 31 -22 57 -38 27 -17 48 -33 48 -37 0 -5 4 -8 10 -8 5 0
39 -20 74 -44 100 -68 304 -182 371 -207 33 -12 65 -25 70 -29 16 -11 143 -48
244 -71 114 -25 240 -38 377 -39 239 0 578 90 794 212 30 17 64 36 75 42 167
91 403 313 522 491 103 153 196 357 230 500 8 33 21 92 30 130 15 64 17 685
20 7605 3 6819 2 7545 -12 7640 -18 116 -50 258 -70 305 -8 16 -26 62 -41 100
-76 189 -196 368 -353 526 -228 229 -516 390 -826 462 -178 42 -254 49 -443
43 -161 -5 -201 -10 -331 -40 -81 -20 -177 -47 -212 -62 -35 -14 -82 -33 -104
-42 -91 -37 -277 -154 -770 -483 -286 -192 -542 -363 -570 -382 -90 -62 -583
-391 -654 -437 -39 -25 -366 -243 -727 -485 -361 -242 -694 -465 -740 -495
-92 -61 -453 -302 -496 -331 -36 -25 -1990 -1331 -2040 -1364 -9 -5 -36 -25
-61 -42 l-45 -33 -6 98 c-21 330 -63 628 -120 852 -55 212 -66 251 -114 385
-97 274 -214 526 -345 745 -116 192 -107 167 -72 196 17 14 55 38 85 53 57 28
398 239 485 300 28 19 120 83 205 141 218 150 255 177 456 336 816 645 1476
1348 2035 2169 717 1050 1223 2253 1458 3465 136 700 190 1301 177 1975 -12
700 -90 1360 -232 1970 -8 39 -20 89 -25 112 -52 254 -250 889 -374 1203 -31
80 -66 170 -77 200 -66 175 -432 933 -498 1030 -9 14 -50 84 -90 155 -128 224
-309 504 -489 755 -505 702 -1119 1352 -1776 1881 -447 360 -894 660 -1415
949 -131 73 -492 256 -565 287 -33 14 -125 54 -205 90 -354 157 -744 299
-1110 404 -96 27 -204 58 -240 69 -57 16 -126 33 -285 70 -22 5 -78 18 -125
29 -115 27 -207 45 -385 76 -82 14 -157 27 -165 30 -8 2 -51 9 -95 14 -44 6
-170 21 -280 35 -387 48 -603 60 -1115 61 -303 0 -537 -5 -645 -13 -275 -21
-689 -69 -835 -96 -41 -8 -93 -17 -115 -21 -105 -16 -167 -27 -250 -45 -49
-11 -144 -31 -210 -45 -575 -123 -1346 -384 -1880 -636 -82 -39 -186 -89 -230
-110 -139 -66 -395 -203 -520 -275 -66 -39 -142 -83 -170 -99 -206 -116 -744
-483 -965 -659 -63 -51 -129 -101 -146 -113 -16 -12 -119 -98 -228 -191 l-199
-170 -176 151 c-331 285 -570 466 -940 713 -352 236 -650 410 -1016 594 -401
201 -658 314 -985 432 -91 32 -181 65 -200 73 -68 27 -494 160 -575 179 -33 7
-96 24 -140 36 -164 44 -193 52 -330 80 -77 16 -169 36 -205 44 -36 8 -110 22
-165 30 -55 9 -122 21 -150 26 -169 33 -479 70 -795 96 -176 14 -863 26 -1095
18z m875 -3200 c921 -75 1783 -341 2595 -800 441 -249 858 -555 1275 -934 63
-58 158 -143 210 -190 52 -47 171 -154 265 -239 287 -260 346 -314 456 -412
58 -52 242 -218 409 -369 168 -151 374 -338 460 -415 85 -77 169 -152 185
-167 17 -15 36 -28 43 -28 7 0 58 42 114 93 56 50 124 112 152 137 76 67 353
316 506 455 382 346 498 451 625 565 76 69 239 215 360 325 571 515 684 610
982 822 452 322 949 587 1478 786 222 84 557 186 745 227 544 120 910 162
1415 162 456 0 828 -36 1260 -123 1578 -317 2985 -1226 3923 -2536 343 -479
583 -932 809 -1528 26 -69 120 -357 138 -425 10 -36 23 -85 30 -110 172 -594
251 -1436 200 -2110 -20 -270 -69 -627 -115 -835 -30 -140 -44 -199 -75 -317
-59 -223 -72 -267 -130 -438 -224 -652 -530 -1229 -940 -1775 -121 -161 -151
-198 -299 -370 -380 -439 -891 -878 -1381 -1186 -207 -130 -265 -164 -450
-261 -716 -377 -1497 -615 -2290 -698 -347 -36 -205 -35 -7055 -35 -6304 0
-6676 1 -6875 18 -277 23 -610 70 -790 111 -33 8 -121 28 -195 44 -151 34
-210 50 -355 94 -125 38 -377 123 -402 136 -10 6 -63 26 -118 47 -284 104
-735 334 -1063 542 -594 377 -1147 876 -1593 1438 -378 477 -698 1033 -926
1610 -57 145 -144 392 -168 480 -7 28 -25 91 -40 140 -96 328 -184 831 -217
1240 -26 335 -10 981 32 1265 6 36 15 101 20 145 52 406 202 968 371 1390 345
865 825 1590 1470 2220 554 541 1141 944 1842 1267 222 101 595 241 802 299
38 11 102 28 140 39 667 188 1460 262 2165 204z m13538 -15940 c375 -77 686
-348 807 -705 59 -171 55 162 55 -5126 0 -4326 -2 -4868 -15 -4948 -44 -257
-170 -474 -374 -644 -138 -116 -280 -184 -463 -224 l-103 -22 -8085 0 -8085 0
-115 27 c-422 101 -743 441 -815 863 -13 80 -15 571 -15 4383 l0 4292 -2655 0
-2655 0 0 1060 0 1060 11220 0 c10197 0 11228 -1 11298 -16z m9360 -5819 c1
-2972 -1 -4532 -8 -4539 -6 -6 -17 -3 -32 11 -32 29 -474 326 -4105 2750
l-1163 776 0 991 c1 1106 -6 1008 70 1050 19 10 44 26 55 35 17 15 68 49 126
86 30 19 102 67 427 284 178 119 354 236 391 261 101 66 267 177 336 224 33
22 116 77 185 123 69 45 130 86 135 91 17 14 107 74 199 132 48 30 106 69 129
86 33 25 984 661 1166 780 105 69 205 136 618 413 241 162 656 440 923 619
267 178 494 332 505 343 11 10 24 18 30 16 7 -3 11 -1463 13 -4532z"/>
<path d="M11560 27689 c-173 -12 -373 -42 -525 -81 -66 -16 -145 -36 -175 -43
-174 -40 -558 -210 -752 -333 -202 -128 -331 -223 -471 -349 -317 -286 -578
-632 -750 -996 -327 -687 -399 -1447 -208 -2189 125 -485 385 -963 725 -1332
56 -60 119 -126 141 -145 22 -20 71 -65 110 -101 96 -90 284 -229 434 -323
586 -363 1310 -529 1996 -456 236 25 528 90 720 159 50 18 108 39 130 47 83
29 325 150 455 227 262 155 571 413 775 646 363 415 643 998 728 1520 48 289
61 504 47 734 -30 465 -135 865 -330 1256 -318 635 -830 1140 -1473 1450 -127
62 -373 159 -452 180 -16 4 -73 20 -125 34 -161 45 -394 80 -625 96 -167 11
-183 11 -375 -1z"/>
<path d="M24405 27693 c-390 -24 -680 -81 -995 -196 -152 -55 -391 -169 -503
-239 -45 -28 -104 -65 -131 -81 -128 -75 -351 -256 -516 -419 -164 -161 -339
-383 -470 -598 -86 -140 -213 -399 -249 -507 -11 -34 -30 -85 -41 -113 -19
-49 -39 -115 -82 -280 -10 -41 -33 -158 -50 -260 -30 -178 -31 -196 -31 -490
0 -296 1 -311 31 -495 18 -104 40 -221 51 -260 10 -38 27 -99 36 -135 55 -209
190 -518 326 -745 421 -705 1121 -1234 1904 -1441 378 -100 785 -133 1155 -93
193 21 343 49 506 95 28 8 58 14 66 14 8 0 37 9 64 19 27 11 101 38 164 61
434 155 913 480 1231 836 430 482 687 1018 792 1654 29 177 30 198 30 485 0
276 -2 314 -26 470 -84 537 -287 1020 -608 1450 -239 319 -558 607 -906 816
-122 74 -371 200 -433 219 -14 5 -70 25 -125 45 -55 21 -120 43 -145 50 -25 7
-84 24 -131 38 -87 26 -180 44 -369 71 -107 16 -397 37 -460 34 -19 -1 -57 -3
-85 -5z"/>
</g>
</svg>
