<?xml version="1.0" standalone="no"?>
<!DOCTYPE svg PUBLIC "-//W3C//DTD SVG 20010904//EN"
 "http://www.w3.org/TR/2001/REC-SVG-20010904/DTD/svg10.dtd">
<svg version="1.0" xmlns="http://www.w3.org/2000/svg"
 width="3840.000000pt" height="3840.000000pt" viewBox="0 0 3840.000000 3840.000000"
 preserveAspectRatio="xMidYMid meet">
<metadata>
Created by potrace 1.16, written by Peter Selinger 2001-2019
</metadata>
<g transform="translate(0.000000,3840.000000) scale(0.100000,-0.100000)"
fill="#000000" stroke="none">
<path d="M3375 33530 c-176 -11 -408 -49 -570 -95 -49 -14 -112 -30 -140 -36
-55 -11 -115 -31 -245 -79 -47 -18 -96 -35 -110 -40 -53 -17 -389 -185 -455
-228 -38 -25 -106 -67 -150 -93 -44 -26 -96 -62 -115 -78 -19 -17 -60 -48 -90
-68 -51 -34 -162 -123 -185 -147 -5 -6 -50 -47 -99 -91 -49 -44 -108 -100
-130 -125 -23 -24 -71 -77 -108 -117 -68 -74 -163 -194 -207 -261 -13 -21 -27
-39 -30 -42 -19 -16 -77 -102 -148 -221 -75 -125 -235 -440 -253 -499 -7 -22
-40 -112 -86 -235 -9 -22 -26 -85 -40 -140 -13 -55 -33 -131 -44 -170 -19 -69
-49 -241 -70 -400 -5 -44 -15 -174 -20 -290 -14 -299 -14 -21474 1 -21765 9
-200 30 -378 64 -560 22 -119 91 -378 120 -455 15 -38 40 -108 57 -155 29 -84
186 -412 230 -481 13 -20 44 -74 71 -119 26 -45 64 -103 85 -129 37 -44 120
-158 153 -207 15 -23 40 -52 143 -164 28 -31 65 -71 82 -90 31 -35 178 -172
267 -248 26 -23 78 -63 115 -89 37 -26 99 -72 137 -103 39 -31 96 -70 127 -86
32 -16 58 -32 58 -36 0 -5 4 -8 10 -8 5 0 37 -18 72 -40 94 -62 409 -212 530
-254 24 -8 75 -26 113 -41 39 -14 99 -32 135 -40 36 -8 106 -26 155 -40 89
-24 205 -47 420 -82 105 -17 779 -18 15975 -18 l15865 0 145 23 c233 37 300
50 380 71 41 11 109 29 150 40 41 12 104 32 140 45 36 13 101 38 145 54 428
161 844 425 1198 762 348 330 685 831 844 1255 103 274 110 294 139 435 3 14
14 54 24 90 17 59 43 208 70 400 5 41 15 158 20 259 14 265 14 21503 -1 21786
-9 179 -30 361 -69 590 -5 28 -20 95 -35 150 -15 55 -31 118 -35 140 -8 38
-54 167 -106 302 -13 34 -24 64 -24 67 0 4 -34 77 -76 164 -169 351 -385 665
-648 938 -110 115 -287 279 -353 326 -18 13 -79 58 -136 100 -124 92 -333 221
-472 291 -113 56 -300 138 -360 156 -22 7 -58 21 -80 30 -22 10 -65 25 -95 34
-287 84 -301 88 -360 97 -30 5 -129 21 -220 37 l-165 28 -15795 1 c-8687 0
-15849 -2 -15915 -6z m30997 -3581 c150 -31 270 -128 329 -264 l34 -80 0
-10400 c0 -10351 0 -10400 -20 -10455 -56 -157 -163 -252 -330 -295 -53 -13
-1639 -15 -15185 -15 -13546 0 -15132 2 -15185 15 -153 39 -258 126 -316 261
l-34 79 0 10400 c0 10082 1 10402 18 10450 64 173 174 267 362 308 11 3 6827
5 15147 6 11009 1 15141 -2 15180 -10z"/>
<path d="M9419 26959 c-221 -15 -560 -83 -724 -144 -38 -15 -106 -39 -150 -54
-160 -56 -409 -190 -596 -320 -189 -131 -246 -179 -417 -350 -194 -193 -294
-317 -429 -531 -73 -115 -233 -431 -233 -459 0 -9 -5 -22 -11 -28 -6 -6 -14
-26 -19 -44 -4 -19 -24 -79 -43 -134 -60 -176 -77 -250 -111 -480 -32 -216
-41 -429 -27 -620 13 -179 43 -390 72 -500 12 -44 25 -98 30 -120 4 -22 22
-78 39 -125 18 -47 35 -98 40 -115 11 -44 49 -130 147 -330 81 -165 255 -419
401 -585 96 -110 276 -284 357 -345 39 -29 84 -65 100 -80 45 -39 125 -93 265
-177 186 -110 263 -147 455 -219 33 -12 75 -28 92 -36 136 -58 417 -121 688
-154 116 -15 463 -15 580 -1 324 40 601 109 858 216 127 53 319 150 401 204
39 26 83 53 97 60 48 25 255 187 367 286 193 172 392 415 539 658 82 135 184
336 216 423 8 22 31 85 52 140 47 129 108 374 134 545 42 270 42 604 1 877
-27 180 -75 385 -118 503 -66 183 -89 240 -151 366 -540 1105 -1679 1761
-2902 1673z"/>
<path d="M23845 24794 c-120 -19 -284 -87 -390 -162 -27 -19 -2072 -2056
-4543 -4526 l-4492 -4491 -1478 1476 c-812 812 -1510 1503 -1550 1537 -168
142 -430 220 -650 194 -158 -19 -337 -90 -449 -179 -32 -25 -730 -717 -1551
-1537 l-1492 -1491 0 -1792 0 -1793 11950 0 11950 0 0 2992 0 2991 -3272 3271
c-1906 1904 -3304 3295 -3348 3328 -90 69 -209 129 -310 158 -57 17 -108 23
-210 25 -74 2 -148 1 -165 -1z"/>
</g>
</svg>
