<?xml version="1.0" standalone="no"?>
<!DOCTYPE svg PUBLIC "-//W3C//DTD SVG 20010904//EN"
 "http://www.w3.org/TR/2001/REC-SVG-20010904/DTD/svg10.dtd">
<svg version="1.0" xmlns="http://www.w3.org/2000/svg"
 width="3840.000000pt" height="3074.000000pt" viewBox="0 0 3840.000000 3074.000000"
 preserveAspectRatio="xMidYMid meet">
<metadata>
Created by potrace 1.16, written by Peter Selinger 2001-2019
</metadata>
<g transform="translate(0.000000,3074.000000) scale(0.100000,-0.100000)"
fill="#000000" stroke="none">
<path d="M1260 30670 c-110 -19 -159 -29 -177 -38 -10 -5 -45 -18 -78 -28
-116 -36 -295 -136 -411 -229 -103 -84 -294 -292 -294 -321 0 -3 -13 -23 -28
-43 -45 -58 -140 -262 -149 -320 -3 -20 -10 -41 -14 -47 -10 -12 -23 -72 -39
-169 -13 -78 -12 -383 0 -460 22 -133 27 -156 38 -167 7 -7 12 -21 12 -33 0
-76 139 -345 245 -475 56 -68 225 -228 288 -272 18 -12 34 -25 37 -29 3 -3 37
-30 75 -60 39 -29 75 -58 82 -64 27 -23 39 -32 55 -41 15 -8 54 -40 137 -109
20 -17 50 -39 66 -49 30 -19 40 -27 83 -66 12 -11 26 -20 30 -20 4 0 19 -13
32 -30 14 -16 30 -29 35 -30 6 0 25 -13 43 -30 18 -16 36 -30 40 -30 4 0 15
-8 24 -17 9 -10 49 -43 89 -73 40 -30 91 -71 114 -90 23 -19 52 -42 65 -50 13
-8 36 -27 52 -42 16 -16 32 -28 36 -28 4 0 15 -8 24 -17 26 -28 46 -43 57 -43
6 0 14 -6 18 -13 4 -7 40 -37 78 -67 39 -30 72 -58 73 -62 2 -5 9 -8 15 -8 7
0 28 -15 48 -33 55 -49 109 -93 159 -128 25 -18 51 -39 59 -47 8 -7 26 -21 40
-30 33 -21 46 -31 80 -62 15 -14 46 -38 69 -54 23 -16 58 -44 78 -62 19 -19
39 -34 44 -34 5 0 22 -13 38 -30 17 -16 35 -30 42 -30 6 0 13 -7 16 -15 4 -8
10 -15 15 -15 5 0 17 -8 28 -17 10 -10 34 -29 52 -43 18 -14 41 -33 51 -42 10
-10 21 -18 24 -18 3 0 27 -17 52 -37 26 -21 53 -43 62 -50 77 -61 136 -109
138 -115 2 -5 10 -8 18 -8 8 0 14 -4 14 -10 0 -5 4 -10 10 -10 9 0 34 -19 88
-67 14 -13 28 -23 33 -23 4 0 25 -16 46 -36 21 -20 50 -42 65 -50 16 -8 28
-19 28 -24 0 -6 5 -10 10 -10 6 0 18 -8 29 -17 10 -10 35 -31 56 -48 21 -16
44 -36 51 -42 7 -7 17 -13 22 -13 6 0 12 -4 14 -9 2 -5 35 -32 73 -62 82 -62
80 -61 125 -99 19 -16 38 -30 41 -30 3 0 19 -11 35 -25 16 -14 42 -36 58 -48
16 -12 37 -30 47 -39 11 -10 23 -18 28 -18 5 0 11 -7 15 -15 3 -8 10 -15 16
-15 6 0 25 -13 43 -30 18 -16 35 -30 40 -30 4 0 15 -8 25 -17 28 -27 63 -56
102 -83 19 -14 42 -32 51 -40 26 -25 63 -54 90 -72 14 -9 32 -23 40 -30 8 -8
55 -45 104 -83 50 -38 96 -76 104 -83 8 -7 26 -21 40 -30 36 -23 50 -34 69
-54 9 -10 22 -18 30 -18 7 0 15 -7 18 -15 4 -8 11 -15 18 -15 6 -1 22 -14 36
-30 13 -17 29 -30 36 -30 7 0 14 -7 18 -15 3 -8 12 -15 21 -15 8 0 15 -4 15
-8 0 -5 20 -23 45 -41 24 -17 51 -39 60 -47 8 -9 38 -31 66 -50 27 -19 59 -44
69 -54 10 -10 31 -27 47 -37 15 -9 32 -23 36 -30 4 -7 13 -13 19 -13 6 0 21
-11 34 -25 13 -14 27 -25 31 -25 4 0 27 -17 50 -38 65 -59 94 -82 101 -82 4 0
24 -16 45 -35 21 -19 42 -35 48 -35 5 0 9 -4 9 -9 0 -5 8 -12 18 -15 9 -3 33
-21 53 -38 48 -43 93 -79 149 -119 25 -18 47 -35 50 -38 4 -5 64 -54 115 -94
6 -4 21 -16 34 -27 13 -11 27 -20 30 -20 3 0 23 -15 43 -33 67 -59 90 -77 97
-77 5 0 24 -15 44 -32 39 -37 82 -70 136 -108 19 -14 45 -35 57 -47 12 -13 25
-23 29 -23 4 0 24 -15 45 -32 21 -18 52 -44 71 -58 18 -14 54 -42 79 -63 68
-56 69 -57 76 -57 6 0 46 -33 114 -93 14 -12 50 -40 80 -62 30 -22 57 -43 58
-47 2 -5 10 -8 18 -8 8 0 14 -7 14 -15 0 -8 5 -15 11 -15 10 0 111 -75 154
-114 11 -10 31 -25 45 -34 23 -15 53 -39 217 -172 34 -27 65 -50 69 -50 4 0
14 -7 23 -15 49 -46 97 -85 104 -85 5 0 20 -11 35 -25 49 -44 107 -91 142
-115 19 -13 53 -40 76 -59 22 -20 51 -43 63 -51 13 -8 47 -34 75 -57 45 -37
127 -101 210 -166 43 -33 119 -94 139 -112 9 -8 19 -15 23 -15 3 0 19 -13 37
-30 18 -16 38 -30 45 -30 6 0 12 -5 12 -10 0 -6 8 -14 17 -17 10 -4 27 -16 38
-28 11 -11 45 -39 75 -62 30 -23 66 -51 80 -62 32 -27 156 -122 184 -141 11
-8 25 -20 29 -27 4 -7 12 -13 17 -13 5 0 26 -16 47 -36 21 -19 50 -42 66 -50
15 -8 27 -19 27 -24 0 -6 5 -10 11 -10 11 0 48 -29 122 -95 15 -14 30 -25 32
-25 6 0 98 -70 105 -79 3 -4 30 -24 60 -46 30 -22 66 -50 80 -62 32 -29 101
-84 130 -103 13 -8 42 -31 65 -50 22 -19 61 -51 85 -70 24 -19 52 -43 62 -52
10 -10 22 -18 28 -18 5 0 23 -13 40 -30 17 -16 35 -30 40 -30 5 0 13 -6 17
-13 4 -7 25 -23 45 -37 21 -14 38 -28 38 -32 0 -5 6 -8 13 -8 7 0 24 -12 37
-27 14 -16 51 -46 83 -67 31 -22 57 -42 57 -45 0 -4 18 -17 40 -31 22 -14 40
-28 40 -32 0 -5 4 -8 10 -8 5 0 26 -16 46 -35 19 -19 40 -35 45 -35 4 0 22
-13 38 -29 17 -16 52 -44 78 -62 26 -18 49 -36 51 -41 2 -4 10 -8 18 -8 8 0
14 -7 14 -15 0 -8 6 -15 13 -15 7 0 24 -13 38 -29 14 -15 35 -31 47 -35 12 -4
22 -12 22 -17 0 -5 4 -9 10 -9 5 0 26 -16 46 -35 19 -19 40 -35 45 -35 5 0 22
-11 37 -24 80 -71 98 -86 104 -86 4 0 22 -14 40 -30 18 -17 51 -43 73 -58 37
-25 50 -35 115 -92 14 -12 36 -30 50 -39 32 -21 45 -31 78 -61 15 -15 47 -40
72 -57 25 -17 61 -45 80 -62 19 -17 38 -31 41 -31 3 0 17 -10 31 -22 13 -13
37 -33 54 -45 114 -87 250 -194 293 -231 14 -13 38 -30 54 -38 15 -8 27 -19
27 -24 0 -6 5 -10 11 -10 6 0 24 -13 41 -30 16 -16 34 -30 39 -30 5 0 23 -13
39 -30 16 -16 34 -30 40 -30 5 0 10 -4 10 -8 0 -4 12 -15 28 -24 15 -9 39 -27
53 -40 14 -13 40 -34 58 -48 75 -56 147 -113 156 -124 6 -6 28 -23 50 -38 22
-15 54 -39 70 -54 17 -14 41 -34 55 -42 14 -9 29 -22 33 -29 4 -7 12 -13 18
-13 5 0 20 -10 32 -23 12 -12 41 -35 65 -51 23 -16 42 -33 42 -37 0 -5 7 -9
15 -9 8 0 15 -5 15 -10 0 -6 12 -16 27 -23 15 -6 39 -23 53 -37 49 -47 107
-93 115 -91 4 1 12 -4 18 -12 10 -12 95 -80 142 -115 49 -35 191 -150 217
-174 10 -10 22 -18 27 -18 5 0 23 -13 39 -30 17 -16 35 -30 41 -30 6 0 11 -4
11 -9 0 -4 19 -21 42 -37 23 -16 50 -36 59 -44 18 -16 47 -39 124 -97 28 -20
61 -48 75 -60 14 -13 28 -23 31 -23 3 0 22 -15 42 -32 43 -40 54 -48 87 -69
14 -9 36 -27 50 -39 14 -12 45 -36 70 -53 25 -17 55 -41 67 -54 12 -13 26 -23
30 -23 5 0 20 -13 33 -30 14 -16 30 -29 37 -30 6 0 27 -15 46 -32 20 -18 45
-40 57 -48 13 -8 41 -30 64 -49 22 -19 65 -52 95 -74 29 -22 61 -47 71 -56 9
-9 27 -23 40 -31 12 -8 50 -37 84 -65 33 -27 66 -53 71 -57 6 -4 27 -21 48
-39 20 -17 37 -27 37 -23 0 5 5 2 10 -8 6 -9 40 -38 78 -64 37 -27 78 -59 92
-71 14 -13 28 -23 31 -23 3 0 17 -10 31 -22 41 -38 72 -62 98 -79 14 -9 37
-27 51 -40 15 -13 41 -35 59 -49 18 -14 51 -40 74 -58 22 -17 46 -35 51 -40 6
-4 31 -24 57 -44 25 -21 49 -38 53 -38 3 0 18 -11 33 -25 57 -51 110 -95 116
-95 6 0 12 -5 91 -70 49 -41 57 -47 150 -120 78 -61 74 -58 130 -101 45 -34
87 -67 154 -122 25 -20 51 -42 58 -47 7 -6 16 -10 20 -10 4 0 25 -16 45 -35
20 -19 41 -35 47 -35 6 0 11 -4 11 -9 0 -4 17 -20 38 -34 20 -14 49 -37 64
-51 15 -14 31 -26 37 -26 5 0 11 -4 13 -9 2 -5 35 -32 73 -62 39 -29 75 -57
80 -61 6 -4 32 -26 59 -49 27 -22 66 -51 85 -64 20 -13 50 -36 68 -53 17 -16
38 -32 47 -35 9 -4 16 -11 16 -17 0 -5 6 -10 13 -10 7 0 26 -13 42 -30 16 -16
35 -30 42 -30 7 0 13 -4 13 -8 0 -5 30 -31 67 -58 37 -27 77 -58 90 -69 12
-11 52 -42 89 -70 36 -27 88 -68 114 -90 26 -22 57 -47 70 -55 13 -8 42 -31
64 -50 23 -20 67 -55 99 -78 31 -24 57 -47 57 -52 0 -6 6 -10 14 -10 8 0 27
-13 43 -28 15 -16 36 -31 46 -35 9 -3 17 -11 17 -17 0 -5 6 -10 13 -10 7 0 20
-8 28 -17 9 -10 26 -25 39 -33 13 -8 36 -27 52 -43 16 -15 31 -27 33 -27 6 0
98 -70 105 -79 3 -4 19 -17 35 -29 62 -46 88 -67 106 -84 11 -10 22 -18 27
-18 4 0 25 -16 47 -35 47 -41 42 -37 130 -104 39 -30 72 -57 73 -62 2 -5 10
-9 18 -9 8 0 14 -6 14 -14 0 -8 10 -16 23 -19 12 -4 42 -24 65 -47 24 -22 47
-40 52 -40 4 0 11 -7 14 -16 4 -9 9 -14 12 -11 3 3 13 -1 22 -8 10 -8 35 -29
58 -47 22 -18 55 -44 73 -58 18 -14 52 -40 74 -58 23 -17 47 -36 52 -40 90
-69 125 -98 125 -104 0 -5 5 -8 10 -8 12 0 14 -2 75 -55 22 -19 43 -35 47 -35
6 0 40 -27 77 -60 9 -8 32 -26 51 -40 19 -13 40 -29 45 -36 6 -6 39 -33 75
-59 36 -27 67 -52 70 -55 3 -4 45 -37 94 -74 49 -38 103 -81 120 -97 17 -16
35 -29 39 -29 5 0 14 -6 21 -12 8 -7 24 -20 36 -28 13 -8 32 -23 42 -32 10
-10 21 -18 26 -18 4 -1 18 -14 32 -30 13 -17 28 -30 32 -30 9 0 24 -11 59 -42
10 -10 23 -18 28 -18 5 0 11 -4 13 -9 2 -5 35 -32 73 -62 39 -29 75 -58 82
-64 29 -24 46 -38 148 -115 59 -45 115 -90 124 -99 31 -29 85 -71 92 -71 5 0
25 -16 46 -36 21 -19 56 -47 78 -61 36 -24 62 -45 115 -94 9 -9 37 -30 61 -46
24 -17 55 -41 69 -53 14 -12 36 -30 50 -39 33 -21 46 -31 80 -63 16 -14 50
-41 75 -58 25 -17 59 -45 76 -61 16 -16 34 -29 39 -29 4 0 22 -13 38 -30 17
-16 34 -30 39 -30 5 0 20 -13 33 -30 14 -16 30 -29 35 -30 12 0 44 -23 84 -60
15 -14 45 -37 67 -53 23 -15 49 -35 60 -45 10 -9 51 -42 89 -72 39 -30 72 -58
73 -62 2 -5 8 -8 14 -8 5 0 15 -6 22 -12 7 -7 25 -22 41 -33 15 -11 44 -35 64
-54 20 -19 57 -47 84 -63 26 -16 47 -34 47 -39 0 -5 7 -9 15 -9 8 0 15 -7 15
-15 0 -8 6 -15 13 -15 14 0 44 -21 88 -63 16 -15 32 -27 34 -27 3 0 13 -8 23
-18 10 -9 29 -24 42 -32 12 -8 28 -19 34 -25 6 -5 34 -28 61 -50 28 -22 55
-44 61 -50 7 -5 24 -19 40 -30 50 -36 139 -108 142 -117 2 -4 8 -6 12 -3 5 3
14 -4 20 -15 6 -11 15 -18 19 -15 5 3 11 -2 15 -10 3 -8 10 -15 16 -15 6 0 25
-13 43 -30 18 -16 36 -30 40 -30 4 0 20 -13 35 -28 15 -16 49 -44 76 -62 27
-18 57 -40 66 -49 27 -26 63 -55 91 -73 14 -9 33 -24 42 -32 8 -9 55 -46 104
-83 48 -37 99 -78 113 -90 14 -13 28 -23 32 -23 3 0 13 -7 22 -15 23 -23 105
-85 114 -85 4 -1 18 -14 32 -30 13 -17 28 -30 32 -30 9 0 24 -11 59 -43 10 -9
21 -17 23 -17 3 0 18 -12 34 -27 16 -16 38 -35 50 -43 55 -40 250 -193 273
-215 9 -8 20 -15 25 -15 5 -1 27 -19 49 -40 22 -22 47 -43 56 -45 10 -3 20
-12 23 -20 3 -8 11 -15 17 -15 6 0 28 -15 49 -32 68 -60 102 -88 107 -88 5 0
84 -61 98 -76 5 -6 48 -39 95 -74 47 -35 101 -77 121 -94 19 -17 46 -38 59
-46 20 -13 64 -48 138 -110 13 -11 26 -20 29 -20 5 0 55 -41 116 -95 15 -14
31 -25 36 -25 4 0 16 -9 26 -20 10 -11 22 -20 27 -20 5 0 19 -10 31 -22 12
-13 36 -33 52 -46 106 -79 145 -109 180 -139 54 -46 63 -53 69 -53 3 0 22 -16
43 -35 21 -19 42 -35 47 -35 5 0 18 -10 30 -23 11 -12 46 -40 76 -62 30 -22
57 -43 58 -47 2 -5 10 -8 18 -8 8 0 14 -7 14 -15 0 -8 5 -15 11 -15 6 0 30
-16 53 -36 54 -46 64 -54 70 -54 3 0 22 -16 42 -35 19 -19 40 -35 45 -35 9 0
36 -22 88 -69 14 -13 37 -31 51 -40 26 -17 57 -41 98 -78 14 -13 29 -23 34
-23 5 0 19 -11 32 -25 13 -14 26 -25 30 -25 4 0 20 -14 36 -30 16 -17 34 -30
39 -30 5 0 23 -13 39 -30 17 -16 34 -30 38 -30 3 0 25 -16 48 -36 56 -48 64
-54 72 -54 4 0 28 -18 53 -41 25 -22 51 -44 57 -49 7 -5 52 -39 100 -76 49
-37 103 -79 120 -93 18 -14 41 -33 52 -41 10 -8 44 -34 73 -58 114 -90 162
-127 178 -137 9 -5 20 -16 24 -22 4 -7 12 -13 18 -13 5 0 20 -10 32 -23 12
-13 54 -47 92 -77 39 -29 72 -55 75 -59 3 -3 24 -19 48 -35 23 -16 57 -43 75
-60 19 -17 51 -43 73 -58 21 -15 53 -39 69 -54 17 -14 41 -34 55 -42 14 -9 29
-22 33 -29 4 -7 12 -13 18 -13 5 0 20 -10 32 -23 12 -12 41 -35 65 -51 23 -16
42 -33 42 -37 0 -5 7 -9 15 -9 8 0 15 -3 15 -7 0 -5 17 -19 37 -33 21 -14 45
-32 53 -40 26 -25 101 -84 129 -101 14 -9 40 -30 57 -45 16 -16 48 -41 70 -57
23 -15 49 -35 60 -45 10 -10 35 -29 54 -42 19 -14 42 -32 50 -40 35 -33 84
-70 95 -70 6 0 22 -13 35 -30 14 -16 29 -29 33 -30 7 0 93 -65 107 -81 3 -3
46 -36 95 -74 50 -38 92 -71 95 -75 3 -3 21 -17 40 -30 19 -14 46 -35 60 -47
61 -53 74 -63 81 -63 5 0 22 -13 38 -29 17 -16 52 -44 78 -62 26 -18 58 -43
70 -56 12 -13 26 -23 30 -23 5 0 20 -13 33 -30 14 -16 30 -29 36 -30 10 0 53
-33 102 -78 14 -12 28 -22 31 -22 3 0 22 -14 41 -30 47 -40 50 -42 89 -70 19
-14 42 -32 51 -40 32 -29 67 -58 82 -66 17 -10 93 -71 118 -94 8 -8 32 -26 53
-40 20 -14 37 -28 37 -32 0 -5 7 -8 15 -8 8 0 15 -4 15 -9 0 -4 19 -21 42 -37
44 -30 80 -58 107 -84 9 -8 32 -26 51 -40 19 -13 44 -33 55 -43 11 -11 37 -30
58 -44 36 -23 80 -58 116 -94 9 -8 32 -26 51 -39 40 -28 138 -103 161 -125 9
-8 19 -15 23 -15 4 0 21 -13 38 -30 16 -16 35 -30 41 -30 7 -1 23 -14 37 -30
13 -17 28 -30 32 -30 4 0 16 -6 25 -14 10 -8 51 -42 91 -75 41 -34 77 -61 81
-61 3 0 20 -12 37 -27 17 -16 68 -57 115 -93 46 -35 95 -75 109 -87 14 -13 28
-23 32 -23 4 0 22 -16 41 -35 19 -19 39 -35 45 -35 6 0 12 -3 14 -7 2 -5 22
-21 46 -37 23 -16 42 -33 42 -37 0 -5 7 -9 15 -9 8 0 15 -4 15 -8 0 -4 12 -15
28 -24 15 -9 39 -27 53 -40 38 -34 109 -92 128 -102 8 -5 25 -18 36 -29 11
-10 33 -28 49 -40 15 -12 42 -34 60 -48 17 -14 72 -57 121 -94 50 -38 94 -75
98 -82 4 -7 14 -13 21 -13 7 0 25 -13 41 -30 16 -16 33 -30 37 -30 5 0 19 -10
31 -23 12 -13 46 -40 75 -61 29 -21 63 -47 75 -57 12 -10 74 -59 137 -108 63
-50 120 -94 125 -99 6 -4 18 -13 27 -18 9 -5 33 -23 54 -41 117 -97 164 -133
171 -133 5 0 20 -13 34 -29 14 -15 35 -31 47 -35 12 -4 22 -12 22 -17 0 -5 7
-9 15 -9 8 0 15 -7 15 -15 0 -8 7 -15 15 -15 7 0 18 -6 22 -13 4 -7 25 -23 45
-37 21 -14 38 -28 38 -31 0 -3 21 -21 48 -39 26 -19 63 -47 83 -64 19 -17 46
-38 59 -46 36 -24 105 -81 108 -91 2 -5 9 -9 14 -9 6 0 18 -7 27 -15 24 -23
99 -83 160 -128 29 -22 61 -47 71 -56 9 -9 27 -23 39 -31 30 -20 221 -170 266
-208 8 -7 56 -45 107 -83 51 -39 113 -88 138 -110 63 -55 68 -59 78 -59 4 0
21 -13 37 -30 16 -16 30 -28 33 -26 2 3 13 -4 25 -14 12 -10 42 -35 67 -55 25
-20 54 -44 65 -53 11 -9 48 -38 82 -64 35 -26 69 -52 75 -58 7 -5 31 -24 53
-41 88 -67 111 -86 151 -121 23 -21 46 -38 52 -38 6 0 12 -3 14 -7 2 -5 22
-21 46 -37 23 -16 42 -33 42 -37 0 -5 6 -9 13 -9 7 0 23 -13 37 -30 14 -16 29
-30 35 -30 6 0 25 -13 43 -30 18 -16 37 -30 42 -30 4 0 10 -4 12 -9 2 -5 35
-32 73 -62 39 -29 75 -58 82 -64 31 -26 48 -39 111 -87 37 -28 69 -54 72 -58
3 -4 12 -11 21 -16 17 -9 76 -57 127 -102 13 -12 29 -22 33 -22 5 0 22 -13 38
-29 17 -16 52 -44 78 -62 26 -18 53 -37 58 -41 6 -5 21 -17 34 -28 13 -11 28
-20 33 -20 5 0 14 -5 21 -10 48 -41 62 -50 74 -50 7 0 13 -4 13 -9 0 -5 14
-12 30 -16 17 -4 30 -11 30 -16 0 -5 6 -9 13 -9 7 0 29 -9 50 -20 20 -11 44
-20 52 -20 8 0 15 -4 15 -10 0 -5 17 -12 38 -16 20 -4 48 -12 62 -19 54 -27
143 -38 340 -42 131 -3 225 0 260 7 119 25 227 53 267 71 23 11 46 19 51 19
20 0 179 85 219 117 23 18 46 33 52 33 6 0 11 4 11 9 0 5 9 12 19 16 26 8 251
234 251 251 0 8 4 14 8 14 11 0 82 103 82 118 0 7 4 12 8 12 5 0 19 25 33 55
13 30 27 55 31 55 3 0 10 15 13 32 4 18 14 42 21 53 8 11 14 27 14 36 0 9 7
30 15 45 8 16 15 36 15 45 0 9 7 30 15 45 8 16 15 42 15 57 0 16 4 37 10 47
24 45 41 379 26 520 -4 36 -13 90 -21 120 -34 137 -59 219 -81 265 -12 28 -26
62 -29 78 -4 15 -11 27 -16 27 -5 0 -9 6 -9 13 0 6 -34 64 -76 127 -86 128
-251 301 -370 385 -38 27 -75 55 -83 63 -8 8 -39 32 -70 55 -52 38 -79 60
-142 112 -57 47 -110 85 -118 85 -5 0 -11 4 -13 9 -4 11 -125 111 -134 111 -4
0 -14 7 -23 15 -9 9 -44 37 -77 64 -34 27 -68 53 -75 60 -53 44 -118 94 -204
159 -55 42 -110 86 -122 99 -12 13 -26 23 -30 23 -4 0 -22 12 -38 28 -17 15
-38 32 -46 37 -9 6 -55 42 -104 80 -48 39 -124 98 -169 133 -45 34 -92 72
-106 83 -37 31 -121 97 -155 122 -16 12 -36 29 -45 37 -8 8 -31 26 -50 40 -53
37 -150 114 -240 190 -19 16 -38 30 -41 30 -3 0 -17 10 -30 21 -13 12 -55 45
-94 74 -38 29 -89 67 -111 86 -23 19 -65 52 -94 74 -29 22 -92 72 -139 110
-79 64 -225 178 -319 248 -20 15 -53 41 -72 57 -59 48 -231 182 -320 250 -46
36 -94 74 -105 85 -11 11 -36 31 -56 45 -20 14 -54 39 -75 56 -43 35 -253 200
-269 212 -6 4 -44 34 -85 67 -73 59 -269 212 -393 307 -34 26 -81 63 -104 83
-23 20 -58 47 -78 60 -20 14 -45 34 -57 45 -12 11 -40 32 -62 47 -22 16 -48
35 -56 43 -30 27 -67 57 -83 66 -15 9 -86 66 -117 95 -9 9 -37 30 -61 46 -24
17 -60 45 -79 62 -19 17 -38 31 -41 31 -3 0 -22 15 -42 33 -53 47 -65 57 -72
57 -4 0 -12 6 -19 13 -7 6 -32 28 -56 47 -24 19 -48 40 -54 45 -6 6 -29 22
-52 38 -22 15 -49 35 -60 45 -10 9 -32 28 -49 40 -67 50 -89 68 -106 84 -11
10 -22 18 -25 18 -3 0 -11 6 -18 13 -7 6 -28 24 -47 39 -19 15 -58 46 -88 70
-29 24 -63 50 -75 58 -11 8 -31 25 -43 37 -12 13 -25 23 -29 23 -6 0 -91 65
-104 80 -3 3 -30 23 -60 45 -30 22 -57 42 -60 45 -9 9 -94 76 -175 138 -44 33
-92 72 -107 86 -15 14 -30 26 -33 26 -3 0 -16 9 -28 21 -12 12 -33 28 -47 37
-26 17 -32 21 -96 76 -22 19 -61 50 -86 68 -25 18 -70 52 -99 76 -30 23 -81
64 -114 90 -33 26 -62 49 -65 52 -3 3 -43 34 -90 69 -47 36 -101 79 -121 95
-19 17 -46 38 -59 46 -13 8 -40 29 -59 46 -20 17 -52 41 -71 54 -19 14 -44 33
-55 43 -11 11 -65 53 -120 95 -55 42 -127 99 -160 127 -33 28 -76 61 -95 75
-36 24 -94 72 -142 115 -15 14 -30 25 -35 25 -11 0 -63 49 -63 59 0 4 8 15 18
24 9 9 26 33 37 54 10 21 31 54 45 73 14 19 37 56 50 82 14 27 28 48 32 48 5
0 8 4 8 9 0 6 13 29 29 53 15 24 39 62 52 85 13 23 43 72 65 110 23 37 56 95
74 128 18 33 35 62 39 65 8 6 25 34 54 90 51 94 62 115 67 120 3 3 12 19 20
35 8 17 19 37 26 45 6 8 32 53 57 100 72 138 82 155 88 160 4 3 10 16 14 30 4
14 11 27 14 30 8 5 30 47 98 182 24 47 50 92 58 98 8 7 15 17 15 23 0 15 152
319 168 335 6 7 12 19 12 27 0 16 32 79 43 83 4 2 7 8 7 14 0 15 42 100 58
116 6 7 12 19 12 26 0 7 11 33 25 57 14 24 27 51 31 59 15 37 40 85 46 90 3 3
9 17 13 31 4 15 33 79 66 144 32 64 59 125 59 135 0 10 7 23 15 30 8 7 15 18
15 25 0 8 6 26 14 42 8 15 29 60 46 98 18 39 38 83 46 98 8 16 14 34 14 42 0
7 7 18 15 25 8 7 15 20 15 30 0 10 12 42 28 72 15 29 33 69 41 88 8 19 22 54
32 77 11 23 19 44 19 48 0 3 13 33 29 68 16 34 36 82 46 107 9 25 23 57 31 72
8 14 14 33 14 41 0 9 6 28 14 44 23 45 46 100 46 111 0 6 8 25 17 44 9 18 22
45 30 60 7 14 13 33 13 41 0 9 6 28 14 44 21 40 39 84 76 188 18 50 38 104 45
120 7 17 27 71 44 120 18 50 41 113 52 140 11 28 22 55 23 60 5 23 18 61 26
80 21 46 216 629 250 745 12 41 32 104 45 140 13 36 27 84 30 108 4 23 11 42
16 42 5 0 9 12 9 28 1 15 7 38 15 52 8 14 14 35 15 48 0 13 6 33 12 45 7 12
18 45 24 72 7 28 17 66 22 85 6 19 18 62 27 95 9 33 21 64 26 70 5 5 9 19 9
31 0 12 7 44 14 70 8 27 22 74 30 104 46 170 79 291 91 340 30 121 48 187 61
223 8 20 14 49 14 64 0 14 6 49 14 77 8 28 21 78 30 111 8 33 20 80 27 105 6
25 18 74 25 110 7 36 20 97 29 135 9 39 20 90 24 115 5 25 14 68 21 95 33 137
40 167 55 255 10 52 23 120 31 150 7 30 20 98 29 150 9 52 21 111 27 130 6 19
15 64 19 100 4 36 12 83 18 105 10 40 18 84 46 260 8 50 22 131 30 180 20 110
42 254 55 355 6 41 13 82 16 90 3 8 12 67 20 130 14 117 30 233 58 440 9 63
21 165 27 225 5 61 12 117 15 125 3 8 12 83 20 165 8 83 22 215 30 295 47 469
98 1152 110 1485 2 55 9 210 15 345 15 323 23 1499 10 1525 -5 11 -12 47 -16
80 -3 33 -10 85 -15 115 -5 30 -13 80 -16 110 -4 30 -13 64 -20 75 -7 11 -15
31 -17 45 -9 61 -60 213 -126 380 -31 78 -165 344 -181 360 -16 16 -50 71 -50
81 0 6 -13 28 -30 49 -16 21 -30 41 -30 44 0 6 -23 36 -47 61 -7 8 -13 18 -13
24 0 6 -5 11 -10 11 -6 0 -14 8 -17 18 -4 9 -16 26 -28 38 -12 11 -26 28 -32
38 -29 52 -335 359 -387 388 -9 5 -30 21 -46 36 -46 43 -58 52 -70 52 -5 0
-10 4 -10 9 0 5 -20 21 -45 35 -25 15 -45 31 -45 36 0 4 -13 11 -30 15 -16 4
-30 11 -30 16 0 5 -5 9 -10 9 -9 0 -65 35 -80 50 -10 10 -48 30 -180 95 -74
36 -148 72 -163 80 -16 8 -35 15 -44 15 -8 0 -27 6 -41 14 -44 22 -92 43 -187
82 -49 19 -94 40 -99 45 -6 5 -22 9 -37 9 -15 0 -32 7 -39 15 -7 8 -19 15 -27
15 -7 0 -24 6 -36 14 -12 7 -47 22 -77 32 -30 10 -62 24 -71 31 -8 7 -22 13
-30 13 -8 0 -25 7 -37 16 -12 8 -28 14 -35 11 -6 -2 -25 5 -40 16 -16 10 -31
16 -34 13 -4 -3 -14 1 -24 10 -9 8 -23 17 -31 18 -7 2 -26 9 -43 15 -16 7 -34
14 -40 15 -5 2 -36 15 -69 29 -32 15 -66 27 -76 27 -10 0 -23 7 -30 15 -7 8
-18 15 -25 15 -8 0 -26 6 -42 14 -45 23 -100 46 -111 46 -6 0 -25 8 -44 17
-18 9 -45 22 -60 30 -14 7 -35 13 -46 13 -11 0 -25 7 -32 15 -7 8 -21 15 -31
15 -10 0 -20 4 -23 9 -3 4 -34 19 -68 31 -35 12 -90 36 -124 51 -33 16 -70 29
-82 29 -12 0 -22 4 -22 9 0 5 -10 13 -22 16 -13 4 -36 12 -53 20 -73 33 -104
45 -117 45 -7 0 -22 7 -32 15 -11 8 -28 15 -38 15 -10 0 -18 4 -18 9 0 5 -12
12 -27 15 -25 6 -66 23 -117 48 -10 6 -46 20 -80 33 -34 13 -87 35 -118 49
-31 14 -61 26 -67 26 -5 0 -22 6 -38 14 -15 8 -46 22 -68 31 -22 9 -49 20 -60
25 -85 37 -119 50 -131 50 -8 0 -14 4 -14 9 0 5 -12 12 -27 15 -16 4 -41 13
-58 21 -69 32 -144 65 -150 65 -6 0 -51 19 -132 56 -17 8 -36 14 -41 14 -6 0
-23 6 -39 14 -26 13 -56 26 -123 54 -14 6 -47 20 -74 31 -27 12 -55 21 -62 21
-8 0 -14 4 -14 9 0 5 -12 12 -27 15 -16 4 -41 13 -58 21 -71 33 -146 65 -151
65 -5 0 -53 21 -131 56 -17 8 -36 14 -41 14 -6 0 -23 6 -39 14 -15 8 -39 19
-53 25 -14 5 -47 19 -75 31 -27 11 -63 27 -78 35 -16 8 -37 15 -48 15 -10 0
-19 4 -19 9 0 5 -12 12 -27 15 -16 4 -41 13 -58 21 -69 32 -144 65 -150 65 -3
0 -25 8 -48 18 -23 10 -62 26 -87 36 -62 25 -97 40 -151 65 -25 11 -49 21 -53
21 -4 0 -31 11 -59 23 -29 13 -72 32 -97 41 -44 17 -85 35 -145 61 -16 8 -82
34 -145 60 -63 25 -128 52 -145 60 -67 31 -124 55 -130 55 -7 0 -106 44 -148
65 -16 8 -35 15 -44 15 -8 0 -27 6 -41 14 -44 23 -91 43 -212 91 -115 46 -135
55 -221 94 -25 12 -49 21 -53 21 -8 0 -104 42 -149 65 -16 8 -35 15 -44 15 -8
0 -27 6 -41 14 -44 22 -92 43 -187 82 -49 19 -94 40 -100 45 -5 5 -15 9 -23 9
-7 0 -39 12 -70 26 -31 14 -84 36 -118 49 -61 23 -68 26 -132 58 -19 9 -41 17
-51 17 -9 0 -21 4 -26 9 -6 6 -56 28 -112 50 -55 22 -125 51 -155 65 -78 35
-226 96 -233 96 -7 0 -106 43 -148 65 -16 8 -36 15 -46 15 -9 0 -21 4 -26 9
-6 6 -56 28 -112 50 -55 22 -125 51 -155 65 -81 37 -332 136 -346 136 -7 0
-12 4 -12 10 0 5 -12 12 -27 16 -16 3 -41 12 -58 19 -102 47 -144 65 -150 65
-6 0 -51 19 -132 56 -17 8 -36 14 -41 14 -6 0 -23 6 -39 14 -31 16 -92 43
-138 62 -16 6 -47 19 -68 28 -21 9 -44 16 -52 16 -8 0 -15 4 -15 10 0 5 -12
12 -27 16 -16 3 -41 12 -58 19 -102 47 -144 65 -150 65 -6 0 -51 19 -132 56
-17 8 -36 14 -41 14 -6 0 -23 6 -39 14 -33 17 -82 38 -138 61 -22 8 -53 22
-68 30 -16 8 -37 15 -48 15 -10 0 -19 4 -19 10 0 5 -12 12 -27 16 -16 3 -41
12 -58 19 -102 47 -144 65 -150 65 -6 0 -51 19 -132 56 -17 8 -36 14 -41 14
-6 0 -23 6 -39 14 -59 31 -139 65 -175 76 -21 6 -40 16 -43 21 -4 5 -17 9 -31
9 -13 0 -24 4 -24 10 0 5 -12 12 -27 16 -16 3 -41 12 -58 19 -102 47 -144 65
-150 65 -8 0 -94 37 -127 55 -14 8 -35 15 -45 15 -10 0 -23 4 -28 9 -6 5 -50
26 -100 45 -49 20 -103 43 -120 50 -77 35 -134 53 -255 81 -222 51 -270 61
-405 80 -229 33 -285 36 -565 31 -309 -5 -331 -6 -465 -31 -49 -9 -110 -20
-135 -25 -25 -4 -76 -17 -115 -29 -38 -12 -90 -28 -115 -36 -58 -17 -189 -63
-215 -75 -68 -31 -115 -50 -123 -50 -5 0 -22 -6 -38 -14 -91 -44 -142 -66
-153 -66 -7 0 -25 -6 -39 -14 -41 -22 -117 -56 -126 -56 -8 0 -104 -42 -149
-65 -16 -8 -35 -15 -44 -15 -8 0 -27 -7 -41 -14 -31 -17 -60 -30 -187 -81 -49
-20 -94 -40 -100 -45 -5 -4 -25 -11 -42 -15 -18 -3 -33 -11 -33 -16 0 -5 -9
-9 -21 -9 -11 0 -33 -7 -47 -14 -15 -8 -45 -22 -67 -31 -60 -25 -107 -45 -138
-61 -16 -8 -36 -14 -46 -14 -9 0 -25 -6 -36 -13 -11 -8 -74 -35 -140 -62 -66
-26 -129 -53 -140 -60 -11 -7 -35 -16 -53 -19 -17 -4 -32 -12 -32 -17 0 -5 -9
-9 -19 -9 -11 0 -32 -7 -48 -15 -15 -8 -46 -22 -68 -30 -56 -23 -105 -44 -138
-61 -16 -8 -35 -14 -44 -14 -8 0 -27 -7 -41 -14 -32 -18 -79 -38 -151 -66 -62
-24 -152 -64 -194 -85 -16 -8 -35 -15 -44 -15 -8 0 -27 -7 -41 -14 -15 -8 -45
-22 -67 -31 -60 -25 -107 -45 -138 -61 -16 -8 -36 -14 -46 -14 -9 0 -25 -6
-36 -14 -11 -7 -51 -25 -90 -40 -38 -15 -83 -33 -100 -41 -79 -36 -111 -49
-120 -50 -5 0 -36 -13 -67 -28 -31 -15 -61 -27 -67 -27 -5 0 -24 -8 -43 -17
-59 -29 -68 -33 -126 -54 -31 -12 -84 -34 -117 -49 -33 -15 -82 -36 -110 -46
-27 -10 -56 -24 -63 -31 -7 -7 -23 -13 -35 -13 -12 0 -31 -7 -41 -15 -11 -8
-27 -15 -35 -15 -9 0 -43 -14 -76 -30 -33 -16 -65 -30 -72 -30 -6 0 -24 -6
-40 -14 -34 -17 -83 -38 -143 -62 -42 -16 -157 -67 -190 -84 -9 -4 -30 -11
-48 -15 -18 -3 -32 -10 -32 -15 0 -5 -15 -12 -32 -15 -18 -4 -42 -14 -53 -21
-11 -8 -27 -14 -36 -14 -9 0 -36 -10 -60 -23 -24 -13 -73 -34 -109 -47 -36
-13 -74 -29 -85 -37 -11 -7 -25 -13 -33 -13 -7 0 -50 -17 -95 -39 -45 -21 -93
-42 -107 -46 -14 -4 -53 -20 -87 -36 -34 -16 -68 -29 -75 -29 -7 0 -22 -7 -32
-15 -11 -8 -28 -15 -37 -15 -10 0 -33 -9 -51 -19 -18 -11 -64 -31 -103 -45
-38 -15 -85 -33 -102 -41 -18 -9 -47 -22 -65 -29 -150 -64 -186 -79 -203 -85
-11 -5 -41 -18 -66 -30 -25 -11 -52 -21 -60 -21 -8 0 -23 -7 -33 -15 -11 -8
-28 -15 -37 -15 -10 0 -33 -9 -51 -19 -18 -11 -64 -31 -103 -45 -38 -15 -85
-33 -102 -41 -18 -9 -47 -21 -65 -29 -18 -7 -58 -24 -88 -38 -30 -14 -88 -37
-127 -52 -40 -15 -75 -32 -79 -37 -3 -5 -15 -9 -28 -9 -12 0 -31 -7 -42 -15
-10 -8 -28 -15 -38 -15 -11 0 -27 -6 -35 -13 -9 -8 -45 -24 -81 -37 -36 -13
-69 -27 -74 -32 -6 -4 -18 -8 -27 -8 -9 0 -22 -7 -29 -15 -7 -8 -22 -15 -34
-15 -12 0 -30 -6 -41 -14 -11 -7 -33 -16 -50 -20 -16 -4 -32 -11 -35 -14 -3
-4 -32 -17 -65 -30 -33 -13 -83 -34 -110 -47 -28 -14 -56 -25 -64 -25 -7 0
-25 -6 -39 -14 -44 -22 -113 -52 -167 -72 -27 -10 -70 -28 -94 -41 -24 -13
-51 -23 -60 -23 -9 0 -25 -6 -36 -14 -11 -7 -33 -16 -50 -20 -16 -4 -32 -11
-35 -15 -3 -4 -39 -20 -80 -35 -41 -15 -90 -36 -108 -47 -18 -10 -40 -19 -49
-19 -8 0 -27 -6 -41 -14 -44 -22 -113 -52 -167 -72 -27 -10 -70 -28 -94 -41
-24 -13 -51 -23 -60 -23 -9 0 -25 -6 -36 -14 -11 -7 -33 -16 -50 -20 -16 -4
-32 -11 -35 -14 -3 -4 -32 -17 -65 -30 -33 -12 -81 -34 -108 -47 -26 -14 -52
-25 -58 -25 -10 0 -42 -12 -114 -45 -34 -15 -76 -33 -155 -65 -30 -12 -59 -26
-64 -31 -6 -5 -19 -9 -29 -9 -10 0 -31 -6 -45 -13 -57 -29 -99 -48 -166 -72
-37 -14 -85 -34 -105 -45 -20 -10 -56 -26 -81 -35 -25 -10 -73 -30 -107 -46
-35 -16 -67 -29 -73 -29 -5 0 -39 -13 -73 -30 -35 -16 -70 -30 -76 -30 -7 0
-25 -6 -39 -14 -55 -28 -141 -66 -152 -66 -5 0 -18 -4 -28 -9 -80 -40 -129
-61 -137 -61 -5 0 -22 -6 -36 -14 -24 -12 -29 -11 -58 13 -17 14 -49 40 -72
56 -22 17 -48 38 -57 48 -9 9 -21 17 -26 17 -5 0 -18 10 -30 23 -12 12 -40 34
-62 50 -22 15 -49 35 -60 45 -25 22 -148 119 -199 157 -22 16 -42 32 -45 35
-3 3 -45 37 -95 75 -49 38 -99 79 -111 91 -11 12 -30 25 -42 28 -11 4 -23 13
-26 21 -3 8 -10 15 -16 15 -6 0 -21 11 -33 23 -12 13 -41 36 -64 52 -24 15
-43 32 -43 36 0 5 -6 9 -14 9 -8 0 -16 3 -18 8 -1 4 -34 32 -73 62 -38 30 -72
57 -75 60 -3 3 -21 17 -40 30 -19 14 -44 33 -55 43 -21 20 -112 91 -149 117
-11 8 -55 42 -96 75 -41 33 -79 63 -85 67 -5 4 -29 23 -51 42 -23 20 -44 36
-48 36 -3 0 -14 8 -24 18 -11 9 -43 35 -72 57 -47 36 -166 130 -198 156 -6 5
-42 33 -80 61 -37 28 -69 53 -72 57 -3 3 -22 17 -42 31 -21 14 -38 28 -38 32
0 4 -26 24 -57 44 -31 20 -65 47 -76 60 -10 13 -23 24 -29 24 -6 0 -26 16 -45
35 -19 19 -39 35 -44 35 -6 0 -16 6 -23 13 -16 15 -113 93 -196 157 -18 14
-52 41 -75 60 -23 19 -52 42 -65 50 -33 22 -144 114 -148 123 -2 4 -8 7 -13 7
-5 0 -39 25 -76 55 -91 73 -269 213 -318 249 -22 16 -56 43 -76 60 -19 17 -46
38 -59 46 -13 8 -40 29 -59 45 -77 65 -181 146 -181 140 0 -4 -13 6 -29 22
-17 15 -52 44 -78 63 -26 19 -50 37 -53 40 -17 17 -121 100 -150 120 -19 13
-51 37 -71 54 -76 64 -89 74 -141 112 -29 21 -62 47 -73 59 -23 22 -81 65 -89
65 -3 0 -19 12 -35 28 -41 38 -108 92 -115 92 -3 0 -14 8 -24 18 -11 9 -43 35
-72 57 -29 22 -57 45 -64 50 -10 9 -134 107 -161 127 -5 4 -30 24 -55 43 -25
19 -49 39 -55 43 -44 33 -151 118 -155 123 -11 14 -101 79 -109 79 -5 0 -11 4
-13 9 -1 5 -44 40 -95 78 -103 76 -276 169 -368 197 -33 11 -69 23 -80 27 -24
11 -99 27 -175 39 -68 10 -408 10 -470 0z m18045 -2914 c99 -43 118 -50 128
-48 4 1 7 -2 7 -8 0 -5 7 -10 15 -10 8 0 32 -9 52 -20 21 -11 43 -20 50 -20 8
0 21 -4 31 -10 31 -17 111 -50 121 -50 6 0 11 -4 11 -9 0 -5 15 -12 34 -15 19
-4 61 -20 93 -36 32 -16 65 -30 74 -30 8 0 19 -4 25 -8 5 -5 45 -23 89 -41
102 -42 143 -59 178 -77 16 -8 34 -14 40 -14 10 0 107 -43 170 -75 16 -8 33
-15 39 -15 10 0 48 -15 124 -51 23 -10 48 -19 56 -19 8 0 18 -4 23 -8 8 -7 91
-43 210 -91 11 -5 41 -18 66 -30 25 -11 51 -21 57 -21 6 0 31 -11 56 -24 25
-14 59 -27 76 -31 16 -4 30 -11 30 -16 0 -5 9 -9 21 -9 11 0 33 -6 47 -14 53
-27 119 -56 129 -56 5 0 23 -6 39 -14 77 -37 142 -64 167 -70 15 -4 27 -11 27
-16 0 -6 11 -10 24 -10 14 0 28 -5 31 -10 3 -6 26 -15 51 -21 24 -6 44 -15 44
-20 0 -5 7 -9 16 -9 9 0 28 -6 42 -13 15 -8 42 -21 60 -30 19 -9 40 -17 49
-17 8 0 27 -7 41 -14 31 -17 61 -30 187 -81 50 -20 94 -41 99 -46 6 -5 20 -9
32 -9 13 0 29 -7 38 -15 8 -8 23 -15 33 -15 10 0 27 -6 38 -14 11 -7 35 -17
53 -21 17 -3 32 -11 32 -16 0 -5 7 -9 16 -9 9 0 28 -6 42 -13 15 -8 42 -21 60
-30 19 -9 40 -17 49 -17 8 0 27 -7 41 -15 47 -25 120 -55 136 -55 9 0 16 -4
16 -10 0 -5 7 -10 16 -10 8 0 41 -13 74 -29 32 -16 72 -32 89 -36 17 -4 31
-11 31 -16 0 -5 9 -9 20 -9 12 0 32 -7 45 -16 14 -9 25 -14 25 -11 0 6 40 -10
145 -58 33 -16 65 -29 70 -29 6 -1 28 -10 50 -20 22 -10 90 -38 150 -63 61
-24 114 -49 120 -54 5 -5 17 -9 27 -9 10 0 26 -4 36 -9 15 -8 60 -29 137 -61
11 -5 61 -25 110 -46 50 -20 114 -47 143 -60 30 -14 100 -43 155 -65 56 -22
106 -44 112 -50 5 -5 17 -9 26 -9 10 0 30 -6 46 -14 61 -30 527 -226 537 -226
4 0 34 -13 69 -29 34 -16 82 -37 107 -46 25 -10 59 -23 75 -31 88 -38 104 -44
109 -44 3 0 29 -11 58 -24 73 -34 295 -126 302 -126 4 0 34 -13 69 -29 34 -16
82 -37 107 -46 25 -10 68 -29 97 -42 28 -12 55 -23 59 -23 4 0 28 -9 53 -21
65 -30 72 -33 211 -89 69 -28 134 -55 145 -60 23 -10 89 -38 155 -65 25 -10
68 -29 97 -42 28 -12 55 -23 59 -23 7 0 80 -32 126 -56 14 -8 31 -14 38 -14 7
0 26 -6 43 -14 88 -40 127 -56 135 -56 5 0 22 -6 38 -14 85 -41 142 -65 167
-71 15 -4 27 -11 27 -16 0 -5 9 -9 20 -9 11 0 37 -9 57 -20 21 -11 46 -20 55
-20 10 0 18 -4 18 -10 0 -5 7 -10 16 -10 9 0 28 -6 42 -13 15 -8 42 -21 60
-30 19 -9 38 -17 43 -17 9 0 54 -18 124 -50 11 -5 61 -26 110 -46 50 -20 95
-40 100 -44 6 -4 25 -11 43 -15 17 -3 32 -11 32 -16 0 -5 9 -9 20 -9 11 0 37
-9 57 -20 21 -11 46 -20 55 -20 10 0 18 -4 18 -10 0 -5 7 -10 16 -10 9 0 28
-6 42 -13 15 -8 42 -21 60 -30 19 -9 38 -17 44 -17 5 0 24 -6 41 -14 96 -44
127 -56 141 -56 9 0 16 -4 16 -10 0 -5 7 -10 16 -10 9 0 28 -6 42 -13 57 -29
98 -47 125 -53 15 -3 27 -10 27 -15 0 -5 10 -9 23 -9 12 0 31 -6 42 -14 11 -7
35 -17 53 -21 17 -3 32 -11 32 -16 0 -5 7 -9 16 -9 9 0 28 -6 42 -13 15 -8 42
-21 60 -30 19 -9 38 -17 44 -17 5 0 24 -6 41 -14 81 -37 126 -56 132 -56 6 0
62 -24 150 -65 17 -7 41 -17 55 -21 14 -4 27 -9 30 -13 6 -7 62 -29 113 -44
20 -6 37 -15 37 -19 0 -4 7 -8 16 -8 9 0 28 -6 42 -13 15 -8 42 -21 60 -30 19
-9 38 -17 44 -17 5 0 39 -13 75 -30 35 -16 67 -30 70 -30 7 0 129 -53 173 -75
14 -7 40 -16 58 -20 17 -3 32 -11 32 -16 0 -5 8 -9 18 -9 10 0 27 -7 38 -15
10 -8 25 -15 32 -15 8 0 30 -7 50 -16 21 -8 53 -22 72 -31 19 -8 48 -21 63
-29 16 -8 34 -14 40 -14 7 0 43 -15 80 -33 l69 -32 -2 -440 c0 -288 -4 -443
-11 -451 -7 -8 -11 -77 -11 -176 1 -90 -3 -230 -8 -313 -5 -82 -13 -231 -19
-330 -5 -99 -12 -205 -16 -235 -3 -30 -13 -138 -20 -240 -8 -102 -22 -257 -31
-345 -9 -88 -17 -178 -18 -200 -1 -22 -5 -56 -8 -75 -4 -19 -12 -82 -18 -140
-18 -174 -40 -359 -57 -470 -8 -58 -19 -141 -24 -185 -5 -43 -16 -120 -24
-170 -8 -49 -15 -107 -15 -127 0 -20 -4 -47 -10 -60 -5 -13 -16 -75 -25 -138
-23 -170 -41 -289 -55 -345 -7 -27 -18 -88 -26 -135 -11 -74 -31 -179 -64
-350 -5 -25 -19 -90 -30 -145 -12 -55 -24 -120 -27 -145 -3 -25 -9 -50 -13
-55 -5 -6 -12 -39 -16 -75 -4 -36 -13 -82 -20 -104 -8 -21 -14 -55 -14 -75 0
-20 -7 -45 -15 -55 -8 -11 -15 -34 -15 -52 0 -17 -7 -51 -15 -74 -8 -23 -15
-55 -15 -71 0 -15 -4 -31 -10 -34 -5 -3 -10 -16 -10 -29 0 -12 -21 -103 -46
-202 -25 -98 -49 -197 -54 -219 -19 -86 -61 -252 -71 -280 -6 -16 -14 -46 -19
-65 -17 -77 -34 -137 -46 -167 -8 -17 -14 -41 -14 -52 0 -12 -7 -38 -15 -58
-8 -19 -15 -46 -15 -58 0 -13 -7 -36 -15 -51 -8 -16 -15 -40 -15 -54 -1 -14
-7 -36 -15 -50 -8 -14 -14 -35 -15 -46 0 -12 -7 -35 -15 -50 -8 -16 -15 -37
-15 -46 0 -10 -7 -39 -15 -65 -9 -26 -23 -73 -31 -103 -9 -30 -23 -70 -30 -88
-8 -18 -14 -41 -14 -51 0 -10 -7 -32 -15 -47 -8 -16 -15 -37 -15 -47 0 -9 -5
-25 -10 -35 -15 -24 -80 -230 -80 -250 0 -10 -6 -26 -14 -37 -7 -11 -16 -31
-19 -45 -3 -14 -38 -117 -77 -230 -132 -376 -166 -469 -174 -477 -3 -4 -6 -14
-6 -22 0 -9 -9 -33 -20 -54 -11 -20 -20 -44 -20 -52 0 -8 -6 -29 -14 -47 -31
-71 -44 -105 -61 -153 -9 -27 -20 -57 -25 -65 -4 -9 -42 -103 -85 -210 -97
-245 -143 -357 -160 -395 -8 -16 -23 -52 -35 -80 -12 -27 -25 -59 -30 -70 -32
-73 -50 -115 -50 -119 0 -5 -63 -142 -110 -241 -16 -33 -32 -72 -36 -87 -3
-16 -10 -28 -14 -28 -5 0 -11 -14 -15 -30 -4 -16 -10 -30 -15 -30 -5 0 -11
-14 -15 -31 -4 -16 -38 -91 -75 -165 -38 -75 -72 -149 -75 -165 -4 -16 -10
-29 -15 -29 -5 0 -11 -14 -15 -30 -4 -16 -10 -30 -15 -30 -5 0 -11 -14 -15
-30 -4 -17 -10 -30 -15 -30 -5 0 -11 -14 -15 -30 -4 -17 -10 -30 -15 -30 -5 0
-11 -13 -15 -30 -4 -16 -10 -30 -15 -30 -5 0 -11 -14 -15 -30 -4 -16 -10 -30
-15 -30 -5 0 -11 -13 -15 -30 -4 -16 -10 -30 -15 -30 -5 0 -11 -14 -15 -30 -4
-17 -10 -30 -15 -30 -5 0 -11 -14 -15 -30 -4 -17 -10 -30 -15 -30 -5 0 -11
-14 -15 -30 -4 -17 -10 -30 -13 -30 -4 0 -18 -23 -31 -50 -14 -28 -29 -50 -33
-50 -4 0 -8 -8 -8 -19 0 -10 -7 -24 -15 -31 -8 -7 -15 -19 -15 -27 0 -16 -41
-96 -52 -101 -5 -2 -8 -12 -8 -23 0 -11 -6 -22 -14 -25 -8 -3 -18 -19 -21 -35
-4 -16 -10 -29 -15 -29 -5 0 -11 -14 -15 -30 -4 -16 -10 -30 -15 -30 -4 0 -11
-12 -14 -26 -4 -14 -18 -38 -31 -52 -14 -15 -25 -34 -25 -44 0 -9 -4 -19 -9
-22 -4 -3 -21 -32 -37 -63 -16 -32 -32 -60 -35 -63 -3 -3 -23 -36 -44 -75 -21
-38 -42 -72 -46 -75 -4 -3 -10 -17 -14 -32 -12 -49 -51 -60 -87 -25 -7 7 -40
34 -73 59 -33 26 -67 53 -76 61 -8 7 -55 44 -105 82 -49 37 -103 80 -120 94
-17 14 -41 33 -54 41 -13 8 -35 26 -50 40 -15 14 -42 36 -61 49 -19 14 -38 30
-42 38 -4 7 -14 13 -22 13 -7 0 -15 4 -17 8 -1 5 -40 37 -86 73 -46 35 -113
88 -150 117 -37 29 -92 72 -122 95 -30 22 -66 51 -80 64 -14 13 -28 23 -31 23
-3 0 -22 15 -42 33 -53 47 -65 57 -72 57 -8 0 -92 66 -120 95 -11 11 -38 32
-60 47 -22 15 -58 43 -80 63 -22 19 -43 35 -46 35 -3 0 -15 8 -26 18 -32 26
-80 65 -173 137 -109 84 -147 115 -176 142 -13 12 -37 30 -54 39 -16 10 -30
22 -30 26 0 4 -7 8 -15 8 -8 0 -15 4 -15 8 0 5 -30 31 -67 58 -37 27 -85 64
-107 82 -59 48 -62 50 -161 127 -49 38 -101 80 -115 92 -14 13 -28 23 -32 23
-3 0 -13 6 -20 13 -7 7 -44 37 -83 67 -38 30 -71 58 -73 62 -2 5 -8 8 -14 8
-6 0 -26 16 -45 35 -19 19 -38 35 -44 35 -5 0 -20 11 -33 25 -13 14 -27 25
-31 25 -5 0 -15 7 -24 15 -18 17 -182 149 -225 180 -15 11 -37 28 -49 39 -12
10 -33 26 -47 35 -26 17 -57 42 -98 79 -14 12 -28 22 -32 22 -3 0 -19 13 -36
28 -16 16 -49 42 -74 59 -25 17 -61 45 -80 62 -45 40 -48 42 -125 101 -36 27
-71 54 -77 60 -22 17 -102 80 -126 98 -13 9 -37 29 -55 43 -18 14 -72 57 -122
94 -49 38 -92 71 -95 75 -3 3 -21 17 -40 30 -19 13 -39 30 -43 37 -4 7 -12 13
-18 13 -5 0 -20 10 -32 23 -12 13 -47 41 -77 62 -30 22 -64 48 -75 58 -11 10
-39 33 -62 50 -24 17 -43 34 -43 39 0 4 -7 8 -15 8 -8 0 -15 3 -15 8 0 4 -18
18 -40 32 -22 14 -40 27 -40 31 0 3 -26 23 -57 45 -32 21 -68 51 -81 67 -13
15 -30 27 -37 27 -7 0 -15 3 -17 8 -4 10 -95 82 -103 82 -3 0 -18 11 -33 25
-54 49 -110 95 -115 95 -3 0 -16 9 -29 20 -44 37 -105 85 -133 105 -15 11 -44
34 -64 51 -20 17 -70 56 -111 88 -98 75 -130 101 -199 158 -31 26 -61 48 -67
48 -5 0 -25 16 -44 35 -19 19 -38 35 -42 35 -4 0 -16 7 -25 16 -10 8 -47 38
-81 65 -35 27 -70 55 -77 62 -8 6 -46 37 -86 67 -39 30 -90 71 -114 90 -23 19
-52 42 -65 50 -41 28 -145 112 -148 121 -2 5 -9 9 -16 9 -7 0 -25 14 -41 30
-16 17 -33 30 -38 30 -6 0 -15 6 -21 14 -11 13 -192 156 -285 225 -25 19 -62
48 -82 65 -19 17 -46 38 -59 46 -13 8 -37 27 -52 42 -16 15 -43 37 -61 50 -47
33 -138 105 -169 133 -15 14 -30 25 -34 25 -3 0 -25 16 -48 36 -22 19 -46 38
-51 43 -6 4 -57 43 -113 87 -57 43 -117 89 -135 102 -18 13 -49 39 -70 58 -21
19 -41 34 -44 34 -3 0 -42 31 -87 68 -44 37 -97 79 -116 92 -19 13 -49 35 -66
49 -17 14 -64 51 -104 81 -40 30 -77 60 -84 65 -15 14 -154 125 -188 150 -107
80 -234 181 -241 192 -4 7 -13 13 -18 13 -6 0 -24 13 -42 30 -18 16 -35 30
-39 30 -4 0 -23 15 -42 34 -20 18 -55 46 -78 62 -23 16 -56 42 -72 57 -17 16
-51 43 -76 60 -25 17 -47 33 -50 37 -3 3 -45 37 -95 75 -49 39 -101 80 -115
92 -14 13 -28 23 -32 23 -3 0 -13 6 -20 13 -28 27 -105 87 -112 87 -4 0 -17
11 -29 24 -22 24 -114 96 -122 96 -2 0 -17 12 -32 26 -26 24 -188 150 -236
184 -12 8 -38 29 -57 47 -19 17 -53 44 -75 59 -22 14 -42 30 -45 34 -3 4 -45
38 -95 75 -49 38 -96 75 -104 83 -8 7 -26 21 -40 30 -28 19 -64 47 -93 75 -10
9 -21 17 -24 17 -3 0 -11 6 -19 13 -21 20 -43 37 -195 154 -80 61 -158 123
-173 137 -15 14 -30 26 -33 26 -3 0 -11 6 -19 13 -28 27 -56 47 -64 47 -4 0
-16 10 -27 21 -10 12 -59 52 -109 90 -49 38 -133 102 -185 144 -52 41 -131
103 -175 137 -44 33 -84 66 -90 72 -5 7 -26 23 -45 36 -33 23 -88 66 -175 138
-60 50 -63 52 -74 52 -5 0 -11 3 -13 8 -3 7 -145 121 -258 207 -29 22 -61 47
-70 56 -9 9 -37 30 -61 47 -24 17 -60 45 -79 61 -49 43 -53 46 -72 57 -9 5
-33 23 -54 41 -81 67 -254 203 -259 203 -2 0 -17 12 -33 28 -16 15 -42 36 -58
47 -15 11 -39 29 -53 41 -14 12 -66 52 -116 89 -49 38 -95 74 -101 79 -7 6
-35 29 -64 51 -29 22 -80 63 -113 90 -33 28 -81 66 -107 85 -26 19 -71 53 -99
75 -27 22 -103 81 -168 132 -65 50 -125 98 -133 105 -9 7 -34 26 -55 43 -54
40 -75 57 -97 78 -10 9 -21 17 -24 17 -4 0 -23 15 -44 33 -20 17 -50 41 -65
52 -16 11 -47 36 -70 55 -23 19 -54 44 -69 55 -67 48 -123 92 -198 156 -31 27
-59 49 -62 49 -3 0 -15 8 -27 18 -12 9 -42 34 -68 54 -25 21 -54 44 -63 53
-10 8 -21 15 -24 15 -6 0 -53 38 -117 95 -15 14 -30 25 -33 25 -5 0 -93 68
-104 81 -3 3 -43 34 -90 69 -47 35 -99 75 -115 89 -17 15 -44 35 -59 46 -44
31 -151 119 -154 128 -2 4 -10 7 -18 7 -8 0 -14 4 -14 9 0 4 -19 21 -42 37
-23 16 -50 36 -59 44 -21 19 -91 74 -259 202 -30 24 -83 65 -117 93 -34 27
-81 64 -103 80 -23 17 -53 41 -68 55 -16 14 -52 42 -82 62 -30 21 -83 63 -118
93 -35 30 -66 55 -70 55 -4 0 -23 14 -42 31 -19 17 -73 60 -120 97 -283 220
-293 228 -339 269 -20 18 -40 33 -44 33 -9 0 -24 12 -65 51 -15 14 -46 38 -69
54 -24 15 -43 32 -43 36 0 5 -4 9 -10 9 -5 0 -20 9 -32 19 -13 11 -69 56 -126
101 -113 88 -118 102 -42 114 22 3 40 10 40 15 0 5 15 12 33 16 17 3 46 13 62
20 88 40 145 65 151 65 7 0 80 32 126 56 14 8 32 14 39 14 7 0 42 14 78 31 74
34 82 38 166 71 33 12 62 26 63 31 2 4 21 10 43 13 21 4 44 13 50 20 6 8 18
14 27 14 8 0 44 14 79 30 34 17 69 30 77 30 7 0 19 7 26 15 7 8 22 15 34 15
12 0 31 7 42 15 10 8 25 15 32 15 7 0 34 10 60 22 26 12 49 23 52 23 3 1 19 7
35 14 17 6 49 19 73 28 23 9 45 20 48 24 3 5 13 9 22 9 9 1 35 9 57 20 22 11
46 19 53 20 6 0 12 5 12 10 0 6 9 10 21 10 11 0 33 6 47 14 15 7 50 23 77 35
28 12 58 26 67 32 10 5 26 9 37 9 10 0 24 6 30 14 7 8 27 17 46 20 19 4 35 11
35 16 0 6 7 10 16 10 9 0 32 7 52 16 21 8 52 22 70 29 18 8 48 21 67 29 20 9
50 22 68 30 17 9 44 18 60 22 15 3 27 10 27 15 0 5 9 9 21 9 11 0 33 6 47 13
47 24 96 45 120 52 12 3 22 11 22 16 0 5 13 9 29 9 16 0 34 6 40 14 7 8 27 17
46 20 19 4 35 11 35 16 0 6 8 10 18 10 10 0 27 7 38 15 10 8 27 15 37 15 11 0
31 6 45 13 15 8 45 22 67 31 22 10 54 24 70 32 17 7 42 16 58 20 15 3 27 10
27 14 0 4 16 11 35 14 19 4 35 11 35 16 0 6 7 10 16 10 9 0 32 7 52 16 21 8
51 21 67 28 17 7 46 20 65 29 19 9 47 19 63 23 15 3 27 10 27 15 0 5 8 9 18 9
10 0 27 7 38 15 10 8 27 15 37 15 11 0 31 6 45 13 15 8 43 21 62 29 39 16 100
43 145 64 17 7 42 16 58 20 15 3 27 10 27 15 0 5 8 9 18 9 9 0 29 6 43 14 14
7 37 16 52 20 15 3 27 11 27 16 0 6 9 10 21 10 11 0 33 7 47 14 15 8 45 22 67
31 22 9 54 23 70 30 17 8 42 17 58 21 15 3 30 10 33 15 3 5 13 9 23 9 10 0 24
7 31 15 7 8 21 15 32 15 11 0 32 6 46 13 57 29 98 47 125 53 15 3 27 10 27 15
0 5 6 9 14 9 8 0 27 5 43 12 15 6 34 12 41 14 8 1 22 10 31 18 10 9 23 16 29
16 21 0 92 25 92 32 0 3 15 10 32 14 18 3 44 14 57 23 14 9 33 14 43 13 10 -2
18 2 18 7 0 6 5 11 12 11 6 0 30 8 52 18 98 44 118 52 131 52 8 0 15 4 15 9 0
5 14 13 32 16 18 4 39 11 48 16 8 4 38 17 65 29 28 12 63 28 78 36 16 8 36 14
45 14 9 0 26 7 36 15 11 8 28 15 38 15 10 0 18 4 18 10 0 5 16 12 35 16 19 3
35 10 35 15 0 5 18 12 40 15 22 4 40 10 40 15 0 4 10 11 23 14 12 4 36 12 52
20 17 7 50 21 75 30 25 10 61 24 80 33 37 16 83 36 140 60 19 8 47 21 62 29
14 7 34 13 45 13 10 0 27 7 37 15 11 8 28 15 38 15 10 0 18 5 18 10 0 6 6 10
13 10 6 1 30 9 52 20 22 11 50 19 63 20 12 0 22 4 22 9 0 5 10 13 23 16 22 6
69 26 120 51 16 8 37 14 48 14 10 0 19 4 19 10 0 5 12 12 28 16 15 3 42 12 59
20 18 8 50 22 70 31 21 9 50 22 65 30 14 7 34 13 45 13 10 0 27 7 37 15 11 8
28 15 38 15 10 0 18 5 18 10 0 6 6 10 13 10 6 1 30 9 52 20 22 11 50 19 63 20
12 0 22 4 22 9 0 5 10 13 23 16 12 4 38 13 57 22 19 9 51 22 70 31 19 8 47 21
62 28 14 8 36 14 47 14 12 0 21 4 21 9 0 5 12 12 28 16 15 3 55 20 90 36 34
16 70 29 81 29 10 0 24 7 31 15 7 8 18 15 25 15 8 0 26 6 42 14 45 23 100 46
111 46 6 0 23 6 39 14 15 8 45 21 66 30 83 35 113 49 139 62 14 8 34 14 45 14
10 0 27 7 37 15 11 8 28 15 38 15 10 0 18 4 18 10 0 5 16 12 35 16 19 3 39 12
46 20 6 8 20 14 29 14 10 0 31 7 47 14 35 19 66 30 76 28 4 -1 7 3 7 8 0 6 6
10 14 10 7 0 27 7 42 15 16 8 37 15 47 15 9 0 17 5 17 10 0 6 3 9 8 8 10 -2
73 23 152 60 62 30 92 28 185 -12z"/>
<path d="M4914 21087 c-4 -12 15 -333 36 -587 5 -57 10 -134 11 -170 2 -36 6
-72 10 -80 4 -8 12 -78 18 -155 24 -304 32 -391 42 -420 5 -16 12 -73 15 -125
3 -52 8 -99 11 -104 4 -5 12 -64 20 -130 16 -147 37 -317 57 -451 8 -55 20
-143 26 -195 6 -52 15 -108 20 -125 5 -16 12 -61 16 -100 4 -38 13 -85 20
-103 7 -18 11 -38 8 -46 -3 -7 2 -46 11 -87 8 -41 18 -103 21 -139 4 -36 13
-77 20 -92 8 -15 14 -48 14 -73 0 -25 6 -71 14 -103 8 -31 19 -86 24 -122 13
-89 50 -286 63 -335 6 -22 14 -65 19 -95 8 -53 30 -156 65 -305 9 -38 20 -90
24 -115 16 -87 42 -202 52 -227 5 -13 9 -36 9 -51 0 -14 6 -44 14 -67 8 -22
22 -76 31 -120 9 -44 21 -94 26 -111 5 -16 13 -50 19 -75 9 -43 27 -116 56
-229 30 -119 44 -178 58 -239 8 -35 19 -68 25 -74 6 -6 11 -25 11 -41 0 -17 6
-48 14 -71 8 -22 21 -69 31 -105 9 -36 22 -85 29 -110 17 -57 42 -144 63 -217
8 -32 21 -74 29 -93 7 -19 20 -66 29 -105 9 -38 23 -82 31 -97 8 -14 14 -35
14 -47 0 -11 6 -35 14 -53 8 -18 22 -60 31 -93 27 -97 46 -159 55 -180 5 -11
18 -54 30 -95 12 -41 28 -91 35 -110 7 -19 21 -62 30 -95 10 -33 24 -73 30
-90 7 -16 21 -55 30 -85 9 -30 23 -69 31 -87 8 -17 14 -36 14 -42 0 -6 6 -25
14 -43 8 -18 25 -67 37 -108 12 -41 25 -79 29 -85 4 -5 18 -41 30 -80 13 -38
27 -74 32 -79 4 -6 8 -19 8 -31 0 -12 7 -30 15 -41 8 -10 15 -27 15 -37 0 -18
11 -46 45 -122 8 -16 17 -45 20 -62 4 -18 10 -33 15 -33 4 0 11 -15 14 -34 6
-31 23 -75 47 -118 5 -10 9 -26 9 -36 0 -10 7 -27 15 -38 8 -10 15 -27 15 -37
0 -11 6 -31 13 -45 8 -15 21 -42 30 -60 9 -19 17 -40 17 -49 0 -8 6 -27 13
-41 8 -15 21 -42 30 -60 9 -19 17 -40 17 -49 0 -8 6 -27 13 -41 8 -15 21 -42
30 -60 9 -19 17 -41 17 -51 0 -9 7 -26 15 -37 8 -10 15 -26 15 -35 0 -9 7 -22
15 -29 8 -7 15 -20 15 -29 0 -9 6 -28 14 -42 7 -14 16 -37 20 -52 3 -15 11
-27 16 -27 6 0 10 -9 10 -21 0 -11 6 -33 13 -47 13 -25 24 -49 60 -135 8 -17
24 -53 36 -78 11 -25 21 -51 21 -58 0 -6 4 -11 9 -11 5 0 12 -16 15 -35 4 -19
11 -35 16 -35 6 0 10 -7 10 -16 0 -9 6 -28 14 -42 8 -15 29 -58 46 -97 17 -38
40 -88 51 -111 10 -23 19 -46 19 -53 0 -6 5 -11 10 -11 6 0 10 -8 10 -19 0
-10 7 -24 15 -31 8 -7 15 -19 15 -28 0 -9 41 -97 90 -198 50 -100 90 -188 90
-197 0 -8 7 -20 15 -27 8 -7 15 -20 15 -30 0 -10 7 -23 15 -30 8 -7 15 -20 15
-30 0 -10 7 -23 15 -30 8 -7 15 -20 15 -30 0 -10 6 -23 14 -29 8 -7 18 -26 21
-42 4 -16 11 -29 16 -29 5 0 9 -9 9 -19 0 -11 4 -22 9 -26 11 -6 61 -109 61
-124 0 -6 3 -11 8 -11 4 0 12 -9 17 -19 6 -11 43 -87 84 -168 41 -81 83 -159
94 -173 16 -22 43 -77 48 -98 1 -4 10 -19 20 -33 10 -14 16 -28 13 -31 -2 -3
2 -11 11 -18 8 -7 15 -18 15 -25 0 -8 3 -15 8 -17 9 -4 52 -91 52 -107 0 -6 4
-11 10 -11 5 0 21 -24 35 -52 38 -76 79 -152 85 -158 3 -3 11 -16 19 -30 8
-14 27 -47 43 -75 16 -27 34 -61 41 -75 6 -14 14 -27 18 -30 4 -3 18 -27 33
-55 35 -64 48 -86 64 -103 6 -7 12 -17 12 -22 0 -5 24 -47 53 -94 28 -48 56
-95 62 -106 5 -11 13 -20 17 -20 5 0 8 -6 8 -13 0 -7 16 -36 35 -66 19 -29 35
-57 35 -62 0 -5 4 -9 10 -9 5 0 12 -11 16 -25 3 -14 9 -25 13 -25 3 0 18 -21
31 -47 14 -26 31 -54 38 -61 6 -7 12 -20 12 -28 0 -8 4 -14 9 -14 5 0 20 -21
33 -46 12 -25 33 -57 45 -70 13 -14 23 -28 23 -32 0 -4 16 -31 35 -61 19 -29
35 -57 35 -62 0 -5 4 -9 9 -9 5 0 13 -10 17 -22 3 -12 15 -31 25 -42 10 -11
38 -51 61 -90 23 -39 46 -75 50 -81 5 -5 31 -44 58 -85 62 -95 65 -99 123
-178 26 -35 47 -68 47 -73 0 -4 11 -20 25 -35 14 -15 31 -38 38 -50 21 -39
160 -239 169 -242 4 -2 8 -8 8 -14 0 -6 15 -29 33 -52 18 -23 47 -62 65 -89
17 -26 36 -53 42 -60 6 -6 40 -52 75 -102 77 -106 104 -141 127 -166 10 -11
18 -21 18 -24 0 -4 217 -294 262 -350 20 -25 75 -96 98 -126 14 -18 39 -49 55
-69 17 -20 41 -52 55 -70 14 -18 39 -50 55 -70 17 -20 46 -56 65 -80 19 -25
63 -77 98 -117 34 -40 62 -76 62 -80 0 -5 20 -29 45 -53 25 -24 45 -48 45 -53
0 -4 15 -23 33 -41 17 -18 59 -66 92 -105 33 -40 72 -86 88 -102 15 -16 27
-34 27 -39 0 -4 3 -10 8 -12 8 -3 69 -72 142 -158 25 -29 81 -92 125 -140 44
-49 107 -118 140 -156 33 -37 103 -112 155 -166 52 -55 99 -107 104 -116 9
-18 216 -229 519 -532 263 -263 575 -561 811 -775 43 -38 108 -98 145 -133 37
-34 71 -62 75 -62 4 0 29 -21 56 -47 26 -27 78 -73 115 -103 36 -30 82 -69
100 -86 19 -17 57 -49 85 -70 27 -21 50 -42 50 -46 0 -4 5 -8 11 -8 7 0 26
-13 43 -30 46 -43 139 -122 172 -145 16 -11 48 -38 72 -60 24 -21 68 -57 97
-80 120 -90 261 -199 275 -212 24 -21 96 -77 120 -93 12 -8 39 -28 60 -45 21
-16 48 -37 60 -45 20 -13 78 -58 117 -90 7 -6 17 -10 23 -10 6 0 13 -7 16 -15
4 -8 10 -15 15 -15 5 0 18 -8 28 -18 37 -33 50 -42 61 -42 6 0 13 -7 16 -15 4
-8 12 -15 19 -15 6 0 20 -9 30 -20 10 -11 24 -20 31 -20 7 0 14 -3 16 -7 3 -9
90 -70 161 -115 26 -16 47 -34 47 -39 0 -5 5 -9 10 -9 10 0 70 -38 80 -51 3
-4 24 -17 48 -29 23 -12 42 -26 42 -31 0 -5 5 -9 11 -9 6 0 28 -13 48 -29 20
-16 55 -39 79 -51 23 -12 42 -26 42 -31 0 -5 6 -9 14 -9 7 0 19 -7 26 -15 7
-9 15 -13 18 -10 3 3 16 -5 29 -17 13 -12 23 -17 23 -12 0 5 4 5 8 -1 11 -15
70 -55 82 -55 5 0 10 -4 10 -10 0 -5 4 -10 9 -10 5 0 51 -27 102 -60 52 -34
102 -63 112 -67 9 -3 17 -9 17 -13 0 -4 8 -10 18 -13 21 -7 71 -37 90 -55 7
-6 18 -12 24 -12 5 0 30 -13 55 -30 24 -16 48 -30 53 -30 4 0 10 -4 12 -8 2
-4 36 -25 77 -46 41 -20 94 -50 118 -67 24 -16 49 -29 55 -29 5 0 43 -20 82
-45 40 -25 80 -45 89 -45 8 0 17 -3 19 -7 2 -5 24 -19 51 -33 26 -13 47 -28
47 -32 0 -5 5 -8 11 -8 6 0 84 -36 173 -80 89 -44 169 -80 178 -80 9 0 18 -3
20 -8 4 -9 149 -82 163 -82 6 0 37 -13 70 -29 77 -38 133 -62 220 -96 39 -14
84 -32 100 -40 85 -37 107 -45 123 -45 10 0 22 -4 28 -9 12 -12 395 -141 420
-141 11 0 28 -7 38 -15 11 -8 32 -15 48 -15 15 0 42 -6 60 -14 36 -15 119 -34
183 -42 22 -3 49 -9 60 -13 20 -8 115 -26 225 -41 77 -11 523 -11 590 1 30 5
89 14 130 19 41 6 79 15 85 21 5 5 27 9 50 9 22 1 58 7 80 15 22 8 47 15 56
15 16 0 50 9 189 51 36 11 71 19 78 19 7 0 20 4 30 9 9 5 46 19 82 31 36 12
74 26 85 30 11 4 43 16 70 25 28 10 64 23 80 31 17 7 71 29 120 49 50 20 94
41 100 46 5 5 17 9 27 9 10 0 44 13 75 28 454 225 693 346 693 353 0 5 9 9 19
9 11 0 26 6 33 13 8 6 29 20 48 31 131 69 166 89 170 95 7 9 39 27 98 56 28
14 52 30 52 34 0 5 14 12 30 16 17 4 30 10 30 14 0 4 17 16 38 27 20 10 53 30
72 44 19 14 55 36 80 49 25 14 47 28 50 32 3 4 34 24 70 45 36 21 70 43 77 48
34 30 43 36 67 42 14 3 26 10 26 15 0 5 7 9 15 9 8 0 15 4 15 8 0 4 26 23 58
42 31 19 73 47 92 62 19 15 40 28 47 28 7 0 13 4 13 10 0 5 19 19 43 31 23 12
57 35 75 50 18 16 39 29 46 29 8 0 16 7 20 15 3 8 10 15 16 15 6 0 16 5 23 10
28 24 148 110 153 110 3 0 11 6 18 13 8 6 24 19 36 27 12 8 33 23 45 33 13 9
26 17 29 17 6 0 36 23 61 48 8 6 18 12 23 12 6 0 12 3 14 8 2 4 21 19 44 35
22 15 49 35 60 45 33 28 83 62 93 62 5 0 11 4 13 9 2 5 71 59 153 120 83 61
173 129 200 151 85 69 155 123 205 160 26 19 67 52 91 72 24 20 73 60 109 88
36 28 76 60 90 71 14 10 59 47 101 82 42 34 116 94 164 132 97 77 185 151 227
190 15 14 53 46 85 72 32 26 63 52 69 57 6 6 30 27 55 46 48 39 138 116 214
185 28 24 82 72 120 105 162 140 286 252 470 425 236 221 315 300 315 315 0 9
-21 31 -46 50 -47 33 -151 115 -191 149 -12 10 -46 36 -75 57 -29 21 -62 47
-73 59 -24 23 -81 65 -90 65 -3 0 -16 10 -28 23 -29 29 -114 97 -122 97 -3 0
-12 6 -19 13 -8 7 -33 29 -56 48 -23 18 -48 40 -55 47 -8 6 -16 12 -18 12 -3
0 -18 11 -33 24 -16 14 -58 47 -94 75 -36 28 -69 54 -75 59 -5 4 -26 19 -44
32 -33 23 -48 35 -110 89 -13 12 -27 21 -30 21 -3 0 -19 12 -35 26 -32 31
-114 94 -121 94 -2 0 -21 16 -42 35 -21 19 -56 48 -78 63 -21 15 -46 34 -55
42 -9 8 -29 25 -45 37 -17 13 -50 39 -75 58 -25 19 -81 63 -125 97 -44 34 -91
73 -105 85 -14 13 -28 23 -32 23 -3 0 -13 6 -20 12 -28 27 -107 88 -113 88 -3
0 -18 13 -33 28 -15 16 -49 44 -77 62 -27 19 -68 51 -89 71 -26 24 -44 35 -53
30 -13 -7 -127 -113 -289 -268 -47 -46 -89 -83 -93 -83 -4 0 -40 -32 -79 -70
-39 -38 -74 -70 -78 -70 -4 0 -33 -27 -66 -60 -32 -33 -61 -60 -64 -60 -6 0
-145 -120 -181 -157 -12 -13 -26 -23 -30 -23 -4 0 -26 -17 -49 -38 -43 -39
-57 -51 -139 -117 -27 -22 -57 -47 -66 -55 -27 -26 -66 -57 -81 -66 -19 -11
-95 -73 -121 -97 -10 -11 -35 -30 -55 -44 -21 -13 -54 -40 -74 -59 -20 -19
-40 -34 -43 -34 -8 0 -99 -73 -103 -82 -2 -5 -8 -8 -13 -8 -5 0 -33 -18 -62
-40 -29 -22 -70 -54 -93 -71 -22 -17 -54 -39 -70 -48 -16 -9 -31 -19 -34 -22
-11 -14 -101 -79 -109 -79 -5 0 -11 -4 -13 -9 -1 -5 -48 -39 -103 -76 -55 -37
-102 -70 -105 -74 -11 -13 -70 -51 -80 -51 -5 0 -10 -4 -10 -9 0 -5 -19 -19
-42 -31 -24 -12 -45 -25 -48 -29 -10 -13 -70 -51 -80 -51 -5 0 -10 -4 -10 -9
0 -5 -19 -19 -42 -31 -24 -12 -45 -25 -48 -29 -8 -10 -69 -51 -76 -51 -3 0
-26 -13 -51 -30 -24 -16 -48 -30 -54 -30 -5 0 -9 -4 -9 -10 0 -5 -11 -12 -24
-16 -14 -3 -27 -12 -30 -20 -3 -8 -10 -14 -16 -14 -5 0 -29 -13 -52 -30 -22
-17 -47 -30 -53 -30 -7 0 -18 -6 -24 -14 -7 -8 -26 -22 -44 -31 -18 -9 -50
-27 -72 -41 -22 -13 -47 -27 -55 -30 -8 -4 -29 -18 -47 -30 -17 -13 -42 -28
-55 -34 -23 -10 -59 -31 -68 -40 -3 -3 -21 -13 -40 -24 -19 -10 -60 -32 -90
-49 -30 -16 -84 -45 -120 -65 -36 -19 -72 -40 -80 -46 -8 -7 -62 -37 -120 -66
-58 -30 -132 -69 -165 -87 -33 -18 -71 -37 -83 -43 -13 -6 -76 -36 -140 -67
-65 -31 -133 -63 -152 -72 -19 -9 -36 -19 -38 -23 -2 -5 -8 -8 -14 -8 -14 0
-101 -43 -109 -53 -3 -5 -9 -8 -13 -8 -10 1 -40 -9 -69 -25 -16 -7 -34 -14
-42 -14 -7 0 -18 -7 -25 -15 -7 -8 -22 -15 -34 -15 -11 0 -34 -9 -51 -20 -43
-29 -86 -25 -166 15 -39 19 -79 35 -90 35 -10 0 -21 5 -24 10 -4 6 -11 8 -16
5 -5 -4 -9 -2 -9 3 0 5 -10 13 -22 17 -13 4 -25 8 -28 9 -35 16 -63 26 -70 26
-5 0 -10 3 -12 8 -4 9 -91 52 -107 52 -6 0 -11 5 -11 10 0 6 -9 10 -20 10 -11
0 -37 9 -57 20 -21 11 -43 20 -50 20 -6 0 -13 3 -15 8 -4 9 -91 52 -106 52 -6
0 -12 3 -14 8 -4 9 -211 112 -226 112 -5 0 -12 3 -14 8 -1 4 -21 16 -42 27
-22 11 -44 25 -50 30 -15 14 -101 55 -115 55 -6 0 -11 4 -11 8 0 4 -12 13 -27
19 -30 13 -116 60 -198 109 -73 43 -79 46 -140 78 -30 16 -55 33 -55 38 0 4
-5 8 -11 8 -10 0 -278 157 -289 169 -3 3 -14 11 -25 18 -121 72 -161 97 -165
104 -3 4 -24 17 -47 29 -24 12 -43 26 -43 31 0 5 -5 9 -12 9 -15 0 -168 101
-168 112 0 4 -6 8 -12 8 -12 0 -107 60 -134 85 -6 5 -20 16 -30 23 -91 61
-252 173 -264 184 -26 24 -90 68 -90 63 0 -3 -10 4 -22 15 -13 12 -35 29 -50
38 -16 9 -28 20 -28 24 0 4 -6 8 -14 8 -8 0 -16 4 -18 8 -1 5 -28 26 -58 48
-30 21 -57 41 -60 44 -3 3 -36 30 -75 60 -66 51 -243 191 -275 217 -8 7 -45
36 -81 65 -112 90 -164 133 -174 144 -5 6 -39 35 -75 64 -92 74 -156 129 -204
174 -22 22 -57 51 -76 65 -36 27 -97 82 -209 189 -37 35 -73 67 -81 72 -53 30
-1072 1050 -1101 1102 -5 9 -37 45 -71 81 -35 35 -88 93 -120 128 -31 35 -85
96 -120 135 -107 119 -160 182 -186 219 -14 19 -29 35 -33 35 -4 0 -31 30 -60
68 -29 37 -67 83 -84 102 -16 20 -46 56 -65 80 -19 24 -54 67 -77 95 -23 27
-81 100 -128 160 -127 162 -137 175 -173 214 -17 20 -35 44 -38 54 -3 9 -10
17 -15 17 -5 0 -9 7 -9 15 0 7 -6 18 -13 22 -12 8 -36 37 -67 83 -8 12 -27 36
-42 54 -15 17 -30 39 -34 49 -3 9 -10 17 -15 17 -5 0 -9 7 -9 15 0 7 -6 18
-13 22 -8 4 -30 32 -50 60 -20 29 -44 61 -52 70 -24 30 -119 164 -130 184 -5
11 -13 19 -17 19 -5 0 -8 4 -8 9 0 8 -106 158 -140 198 -5 7 -10 15 -10 17 0
3 -18 32 -41 63 -75 108 -254 374 -278 416 -13 23 -28 44 -32 45 -5 2 -9 8 -9
13 0 11 -42 72 -52 77 -5 2 -8 8 -8 13 0 9 -38 69 -51 79 -4 3 -10 16 -14 29
-4 14 -15 33 -25 43 -9 10 -23 31 -31 46 -8 15 -16 29 -19 32 -3 3 -10 14 -17
25 -83 139 -133 221 -168 275 -23 36 -45 73 -48 83 -4 10 -22 42 -40 70 -46
71 -72 114 -99 167 -13 25 -26 47 -29 50 -3 3 -16 26 -29 53 -13 26 -27 47
-32 47 -4 0 -8 6 -8 14 0 7 -9 25 -20 39 -11 14 -20 32 -20 41 0 9 -3 16 -8
16 -4 0 -18 23 -31 50 -13 28 -27 50 -32 50 -4 0 -10 14 -14 30 -4 17 -11 30
-16 30 -5 0 -9 6 -9 13 0 8 -9 24 -20 37 -11 13 -20 31 -20 42 0 10 -4 18 -9
18 -5 0 -12 14 -16 30 -4 17 -10 30 -15 30 -4 0 -13 12 -20 28 -19 46 -34 72
-42 72 -5 0 -8 5 -8 11 0 16 -43 103 -52 107 -5 2 -8 9 -8 16 0 8 -9 25 -20
39 -11 14 -20 32 -20 40 0 9 -4 17 -8 19 -9 3 -352 688 -352 701 0 4 -28 65
-61 135 -56 115 -95 197 -158 333 -11 25 -21 49 -21 52 0 3 -18 44 -40 91 -22
47 -40 88 -40 92 0 4 -9 25 -19 48 -47 99 -70 154 -76 179 -4 15 -11 27 -15
27 -5 0 -12 14 -15 32 -4 18 -11 39 -16 48 -12 21 -59 136 -108 260 -23 58
-46 114 -51 125 -18 39 -100 251 -100 258 0 9 -35 92 -50 119 -6 10 -10 26
-10 36 0 10 -7 27 -15 38 -8 10 -15 25 -15 32 0 8 -6 28 -13 45 -8 18 -21 55
-31 82 -9 28 -35 100 -57 160 -56 153 -277 819 -333 1000 -26 83 -52 164 -57
180 -6 17 -15 48 -20 70 -6 22 -21 74 -34 115 -13 41 -29 93 -35 115 -6 22
-18 63 -26 90 -9 28 -21 75 -29 105 -14 60 -59 224 -74 274 -5 17 -17 58 -25
91 -46 180 -69 274 -76 305 -4 19 -13 55 -19 80 -26 96 -54 209 -91 380 -12
52 -25 109 -31 126 -5 17 -9 44 -9 60 -1 16 -7 40 -15 54 -8 14 -14 41 -15 61
0 20 -4 49 -10 65 -5 16 -17 65 -25 109 -9 44 -20 100 -25 125 -5 25 -18 88
-28 140 -10 52 -21 102 -24 110 -4 8 -9 31 -11 50 -5 35 -21 133 -56 334 -14
81 -24 113 -37 123 -29 21 -166 129 -193 152 -13 12 -27 21 -30 21 -3 0 -17
10 -31 23 -14 12 -65 53 -115 91 -49 39 -104 81 -121 95 -18 14 -47 37 -65 51
-18 14 -51 40 -73 58 -50 41 -195 154 -261 204 -76 58 -141 111 -143 119 -2 5
-8 9 -14 9 -5 0 -15 6 -22 13 -7 6 -25 21 -41 32 -15 11 -41 32 -57 48 -16 15
-31 27 -34 27 -3 0 -27 17 -52 38 -26 20 -51 40 -57 44 -58 43 -189 146 -224
175 -24 21 -63 52 -86 68 -23 17 -92 69 -153 118 -61 48 -113 87 -117 87 -3 0
-18 13 -33 28 -15 16 -49 44 -77 63 -27 18 -59 43 -70 55 -11 11 -54 46 -95
76 -41 30 -95 72 -120 92 -25 21 -53 44 -63 52 -10 8 -42 32 -70 52 -28 20
-63 48 -78 62 -38 35 -72 60 -82 60 -4 0 -18 10 -30 23 -28 28 -113 97 -121
97 -3 0 -14 8 -24 18 -29 28 -114 97 -124 101 -5 2 -21 14 -36 28 -15 13 -73
60 -129 103 -56 44 -104 84 -108 90 -9 14 -25 13 -31 -3z"/>
</g>
</svg>
