<?xml version="1.0" standalone="no"?>
<!DOCTYPE svg PUBLIC "-//W3C//DTD SVG 20010904//EN"
 "http://www.w3.org/TR/2001/REC-SVG-20010904/DTD/svg10.dtd">
<svg version="1.0" xmlns="http://www.w3.org/2000/svg"
 width="3840.000000pt" height="3074.000000pt" viewBox="0 0 3840.000000 3074.000000"
 preserveAspectRatio="xMidYMid meet">
<metadata>
Created by potrace 1.16, written by Peter Selinger 2001-2019
</metadata>
<g transform="translate(0.000000,3074.000000) scale(0.100000,-0.100000)"
fill="#000000" stroke="none">
<path d="M19075 30674 c-92 -10 -226 -38 -315 -66 -110 -35 -230 -94 -500
-243 -107 -59 -303 -167 -435 -240 -205 -113 -395 -217 -845 -465 -47 -25
-204 -112 -350 -192 -146 -80 -301 -166 -345 -191 -44 -24 -200 -110 -345
-190 -146 -80 -373 -204 -505 -277 -132 -73 -274 -150 -315 -172 -41 -22 -85
-47 -97 -54 -12 -8 -134 -75 -270 -150 -136 -75 -340 -187 -453 -249 -113 -62
-228 -125 -255 -140 -28 -15 -63 -35 -80 -45 -16 -10 -149 -83 -295 -163 -146
-79 -337 -184 -425 -232 -88 -49 -198 -109 -245 -135 -47 -25 -168 -93 -270
-150 -102 -56 -261 -144 -355 -195 -278 -151 -356 -195 -427 -236 -36 -21 -69
-39 -71 -39 -2 0 -52 -27 -110 -60 -59 -33 -108 -60 -111 -60 -3 0 -28 -14
-56 -30 -28 -17 -99 -56 -158 -89 -59 -32 -174 -96 -257 -141 -82 -46 -175
-96 -205 -113 -30 -16 -89 -49 -130 -72 -41 -23 -104 -58 -140 -77 -84 -45
-254 -139 -350 -193 -41 -23 -136 -75 -210 -115 -74 -41 -214 -117 -310 -170
-96 -54 -206 -114 -245 -135 -38 -21 -169 -93 -290 -160 -121 -67 -299 -165
-395 -218 -96 -52 -248 -136 -338 -186 -90 -50 -165 -91 -167 -91 -2 0 -32
-16 -67 -36 -34 -20 -110 -62 -168 -94 -58 -31 -193 -106 -300 -165 -225 -124
-273 -150 -355 -195 -33 -18 -64 -36 -70 -40 -5 -4 -53 -30 -105 -58 -52 -27
-111 -59 -131 -70 -20 -11 -47 -26 -60 -34 -13 -7 -26 -15 -29 -18 -3 -3 -36
-21 -75 -40 -38 -19 -106 -55 -150 -81 -44 -25 -107 -61 -140 -78 -33 -18 -78
-42 -100 -55 -22 -12 -69 -38 -105 -58 -36 -19 -85 -47 -110 -60 -25 -14 -76
-42 -115 -63 -38 -20 -74 -41 -80 -45 -5 -4 -46 -27 -90 -50 -44 -23 -109 -59
-145 -80 -36 -20 -92 -52 -125 -69 -33 -18 -78 -42 -100 -55 -22 -12 -69 -38
-105 -58 -36 -19 -85 -47 -110 -60 -63 -35 -144 -79 -220 -120 -36 -20 -83
-46 -105 -58 -22 -13 -74 -41 -115 -63 -41 -22 -79 -43 -85 -47 -5 -5 -61 -36
-122 -69 -198 -107 -322 -175 -568 -311 -355 -196 -605 -334 -840 -462 -115
-64 -298 -164 -405 -223 -107 -60 -220 -121 -250 -138 -30 -16 -134 -73 -230
-127 -96 -53 -236 -130 -310 -170 -74 -40 -216 -118 -315 -173 -99 -55 -209
-115 -245 -135 -60 -32 -95 -51 -220 -120 -25 -14 -99 -55 -165 -92 -66 -37
-181 -100 -255 -140 -74 -41 -211 -117 -305 -169 -93 -52 -199 -110 -235 -129
-94 -50 -144 -86 -227 -165 -142 -135 -233 -309 -274 -522 -38 -194 -9 -406
79 -583 65 -129 492 -893 540 -965 57 -86 193 -215 281 -267 93 -55 221 -105
321 -126 65 -13 115 -15 224 -11 78 3 155 10 171 15 17 5 62 20 100 32 59 19
256 114 290 140 6 4 46 27 90 50 44 24 204 111 355 195 151 84 361 198 465
255 105 57 219 120 255 140 36 21 160 89 275 153 116 63 273 150 350 192 77
43 178 98 225 123 47 24 115 62 151 83 37 21 201 112 365 202 368 202 780 429
854 470 65 36 114 63 193 106 96 52 321 177 484 267 82 45 479 262 548 299 39
20 75 41 80 45 6 4 42 25 80 45 39 21 90 49 115 63 84 46 354 195 500 275 80
43 159 87 175 97 17 9 62 34 100 55 39 21 121 67 184 101 62 35 115 64 117 64
2 0 59 31 126 69 144 80 723 399 818 449 36 19 90 49 120 67 30 18 89 50 130
72 41 22 163 88 270 148 107 59 267 147 355 195 144 79 368 201 500 275 28 15
68 38 90 50 207 113 381 210 490 270 72 39 191 105 265 145 74 40 164 90 200
110 36 21 92 52 125 70 33 18 80 44 105 58 25 13 74 40 110 60 89 47 146 79
350 192 96 53 236 129 310 170 74 40 176 97 227 126 50 30 94 54 96 54 3 0 42
21 88 47 91 51 376 207 614 338 83 45 197 108 255 140 58 31 135 75 172 96 36
21 69 39 72 39 3 0 29 14 58 31 29 17 107 61 173 97 159 86 279 151 460 251
83 46 184 101 225 123 41 22 100 55 130 73 30 18 89 50 130 72 41 22 188 102
325 178 138 76 313 173 390 215 77 42 156 85 175 96 19 12 64 37 100 56 36 20
88 48 115 63 100 56 673 370 765 420 52 29 147 80 210 115 63 34 120 66 125
70 6 4 55 31 110 60 55 29 105 56 110 60 6 5 42 25 80 45 39 21 90 49 115 63
103 57 342 189 445 245 131 71 203 111 610 335 171 94 329 182 353 197 30 19
51 26 70 22 23 -5 256 -130 572 -307 52 -29 133 -73 180 -98 47 -25 110 -59
140 -77 30 -18 100 -57 155 -87 55 -30 116 -64 135 -75 19 -11 80 -44 135 -73
55 -29 105 -56 110 -60 6 -4 44 -25 85 -48 41 -22 101 -54 133 -71 31 -17 74
-41 95 -54 20 -12 57 -33 82 -45 25 -13 52 -27 60 -32 8 -5 56 -31 105 -58 50
-27 110 -61 135 -75 25 -13 88 -48 140 -77 52 -29 122 -68 155 -86 33 -18 74
-40 90 -48 31 -15 58 -30 318 -174 81 -45 149 -82 152 -82 3 0 38 -19 78 -43
39 -23 90 -52 112 -64 22 -11 56 -30 75 -41 19 -12 62 -35 95 -53 33 -18 96
-52 140 -77 44 -24 172 -95 285 -157 113 -62 228 -125 255 -140 167 -93 248
-137 545 -300 113 -62 225 -124 250 -138 25 -13 110 -61 190 -104 80 -44 165
-91 190 -105 74 -41 260 -143 335 -183 39 -21 84 -46 100 -55 17 -10 143 -80
280 -155 438 -240 451 -247 545 -300 41 -23 111 -62 155 -85 44 -24 109 -60
145 -80 36 -21 94 -53 130 -72 36 -20 133 -73 215 -118 83 -46 195 -107 250
-138 55 -30 123 -67 150 -82 28 -15 82 -44 120 -65 39 -21 86 -48 105 -60 19
-11 73 -41 120 -65 47 -24 101 -53 120 -65 19 -12 80 -46 135 -75 55 -29 105
-56 110 -60 6 -4 42 -24 80 -45 39 -21 104 -57 145 -80 41 -23 119 -65 173
-94 53 -28 155 -85 227 -126 71 -41 131 -75 134 -75 2 0 35 -17 73 -39 99 -55
147 -82 248 -136 50 -26 95 -51 100 -55 6 -4 39 -23 75 -42 36 -20 138 -75
225 -124 88 -48 198 -109 245 -134 47 -25 130 -71 185 -102 55 -30 129 -71
165 -90 36 -20 128 -71 205 -113 77 -43 163 -90 190 -105 28 -15 88 -49 135
-75 47 -26 139 -77 205 -113 66 -35 170 -93 232 -128 62 -35 114 -64 117 -64
3 0 31 -15 63 -34 32 -18 87 -49 123 -68 36 -20 133 -73 215 -118 83 -46 238
-131 345 -190 211 -116 333 -183 535 -295 269 -149 623 -344 710 -390 116 -62
165 -89 245 -135 36 -21 94 -53 130 -72 36 -19 220 -121 410 -225 190 -105
455 -251 590 -325 135 -74 283 -156 329 -182 46 -25 85 -46 87 -46 3 0 21 -10
42 -23 20 -13 80 -46 132 -74 52 -28 154 -83 225 -123 72 -40 182 -100 245
-135 63 -34 174 -95 245 -135 247 -137 372 -207 770 -425 143 -78 310 -170
372 -204 118 -66 174 -90 288 -124 59 -18 96 -21 240 -21 190 0 228 7 381 72
166 71 313 192 408 336 53 80 195 331 433 766 159 291 203 422 203 610 0 102
-15 188 -52 295 -60 175 -129 286 -246 396 -97 93 -146 124 -422 274 -160 87
-521 285 -600 330 -83 46 -212 118 -395 218 -66 36 -232 127 -370 203 -137 75
-270 148 -295 162 -124 68 -252 139 -310 172 -54 31 -417 230 -555 305 -126
68 -590 323 -645 355 -36 20 -126 70 -200 111 -74 40 -211 115 -305 167 -93
52 -217 121 -275 152 -154 85 -368 203 -420 232 -25 13 -81 44 -125 68 -200
108 -345 187 -365 200 -8 6 -19 12 -25 14 -5 2 -17 7 -25 10 -8 3 -28 15 -45
26 -35 22 -52 32 -160 90 -44 24 -93 52 -110 61 -16 10 -59 34 -95 52 -36 19
-114 62 -174 96 -60 33 -111 61 -113 61 -1 0 -32 18 -68 40 -36 22 -67 40 -70
40 -2 0 -46 23 -97 51 -51 28 -120 66 -153 83 -68 37 -145 80 -190 106 -16 9
-59 33 -95 53 -36 19 -126 68 -200 109 -74 41 -166 92 -205 112 -38 21 -108
60 -155 86 -189 106 -479 266 -540 298 -36 19 -78 42 -95 52 -16 10 -75 43
-130 73 -174 95 -604 331 -760 417 -82 46 -175 96 -205 113 -30 16 -93 51
-140 77 -47 26 -157 87 -245 135 -266 146 -340 186 -600 330 -137 76 -362 200
-500 275 -137 76 -317 175 -400 220 -82 46 -168 93 -190 105 -22 12 -107 59
-190 105 -82 46 -197 109 -255 140 -58 32 -217 120 -355 195 -137 76 -284 156
-325 178 -41 22 -85 46 -98 53 -33 21 -277 156 -437 241 -77 41 -151 82 -164
90 -22 14 -304 171 -501 278 -52 29 -140 77 -195 107 -55 31 -215 118 -355
195 -140 77 -318 176 -395 218 -156 88 -204 114 -361 199 -60 32 -147 80 -194
107 -94 52 -557 307 -885 486 -115 63 -253 139 -305 168 -351 195 -667 370
-965 532 -60 33 -222 122 -360 198 -137 76 -320 176 -405 223 -85 47 -200 110
-255 140 -190 105 -328 158 -499 192 -97 20 -317 33 -401 24z"/>
<path d="M13800 21580 c-152 -7 -355 -27 -490 -50 -107 -17 -366 -69 -420 -84
-30 -8 -100 -26 -154 -41 -125 -34 -456 -149 -519 -182 -27 -13 -81 -36 -121
-52 -153 -59 -584 -299 -756 -421 -193 -138 -265 -193 -389 -297 -415 -351
-809 -826 -1068 -1288 -144 -258 -207 -396 -438 -970 -84 -209 -215 -533 -290
-720 -76 -187 -206 -511 -290 -720 -84 -209 -200 -497 -258 -640 -162 -401
-434 -1076 -489 -1215 -28 -69 -55 -131 -60 -137 -6 -7 -36 -26 -67 -42 -139
-70 -329 -175 -356 -195 -16 -12 -70 -47 -120 -76 -157 -94 -438 -300 -622
-455 -392 -329 -758 -731 -1039 -1140 -191 -278 -391 -629 -496 -870 -16 -38
-38 -88 -48 -110 -112 -246 -226 -591 -317 -960 -34 -139 -85 -445 -108 -645
-45 -400 -46 -573 -43 -4875 3 -3701 5 -4047 20 -4125 65 -336 193 -580 423
-803 205 -200 463 -332 760 -389 100 -19 1344 -19 1425 0 163 38 250 64 320
95 123 54 262 132 301 169 8 7 30 25 49 40 143 109 307 315 390 493 52 110 98
257 120 378 19 104 20 155 20 894 l0 783 10530 0 10530 0 0 -779 c0 -729 1
-786 20 -893 39 -228 133 -449 265 -623 51 -68 207 -225 265 -268 30 -22 57
-44 60 -47 8 -11 150 -92 215 -123 121 -58 284 -105 440 -127 114 -16 1301 -8
1370 9 216 54 257 68 415 145 339 164 625 520 726 901 52 198 48 -104 52 4275
4 4300 2 4447 -43 4865 -73 667 -261 1298 -570 1915 -110 220 -264 483 -374
639 -37 53 -89 126 -115 164 -82 118 -255 327 -397 482 -292 319 -535 534
-919 817 -172 127 -486 317 -698 424 -46 23 -90 48 -97 55 -12 13 -40 78 -154
369 -23 58 -48 119 -55 135 -21 47 -26 59 -261 645 -123 305 -249 618 -280
695 -31 77 -139 345 -240 595 -664 1653 -652 1624 -821 1932 -308 560 -773
1095 -1298 1492 -116 88 -404 277 -521 342 -321 179 -699 340 -995 423 -360
101 -494 128 -855 173 l-180 22 -5360 2 c-2948 0 -5434 -2 -5525 -6z m10785
-2876 c316 -40 585 -141 850 -318 91 -61 154 -114 261 -221 230 -229 332 -384
460 -702 30 -76 59 -147 63 -158 25 -57 88 -213 166 -410 48 -121 93 -233 101
-250 7 -16 70 -172 139 -345 69 -173 129 -324 134 -335 5 -11 53 -129 106
-263 53 -134 103 -255 111 -270 8 -15 14 -35 14 -44 0 -17 -377 -18 -7785 -18
-6812 0 -7786 2 -7791 15 -3 8 4 33 15 57 11 24 73 174 137 333 683 1705 747
1860 820 1987 132 229 368 484 580 625 277 184 587 295 899 322 55 4 2463 9
5350 10 4683 1 5263 -1 5370 -15z m3675 -6241 c512 -88 906 -261 1340 -589 36
-26 142 -125 235 -219 341 -341 544 -669 710 -1150 29 -84 76 -282 102 -428
l27 -152 4 -1635 c2 -1167 0 -1652 -8 -1695 -43 -234 -168 -438 -365 -594
-119 -96 -258 -156 -425 -185 -88 -16 -862 -17 -10720 -14 -9958 3 -10629 5
-10692 21 -189 47 -329 127 -468 267 -134 133 -207 259 -257 442 -17 59 -18
172 -18 1718 l0 1655 23 145 c103 634 371 1161 816 1605 495 493 1139 789
1816 834 63 5 4071 8 8905 7 l8790 -1 185 -32z"/>
<path d="M11215 11041 c-442 -69 -789 -235 -1062 -509 -88 -88 -110 -115 -202
-244 -135 -188 -248 -494 -297 -801 -21 -128 -23 -491 -5 -627 58 -433 218
-780 488 -1060 184 -191 356 -303 648 -423 109 -45 339 -96 530 -119 157 -18
1607 -18 1790 0 288 29 443 58 650 123 33 10 69 23 80 29 11 5 51 23 89 40 98
43 229 134 289 201 137 152 197 319 197 554 0 307 -119 656 -355 1045 -337
553 -890 1109 -1438 1442 -272 166 -513 271 -772 335 -98 24 -132 27 -310 29
-155 2 -227 -1 -320 -15z"/>
<path d="M26685 11053 c-77 -11 -290 -69 -395 -108 -215 -79 -495 -232 -726
-398 -747 -535 -1370 -1351 -1527 -1997 -40 -165 -47 -215 -47 -346 0 -232 61
-403 195 -552 82 -91 313 -228 456 -270 167 -50 277 -75 424 -96 254 -38 348
-41 1140 -40 672 0 799 3 915 17 463 58 809 213 1098 491 243 234 399 511 486
861 46 184 58 294 59 530 0 296 -27 478 -107 718 -153 456 -475 816 -904 1014
-99 45 -283 108 -356 122 -31 6 -61 13 -66 16 -5 3 -73 14 -151 25 -134 19
-403 26 -494 13z"/>
</g>
</svg>
