<?xml version="1.0" standalone="no"?>
<!DOCTYPE svg PUBLIC "-//W3C//DTD SVG 20010904//EN"
 "http://www.w3.org/TR/2001/REC-SVG-20010904/DTD/svg10.dtd">
<svg version="1.0" xmlns="http://www.w3.org/2000/svg"
 width="3840.000000pt" height="3414.000000pt" viewBox="0 0 3840.000000 3414.000000"
 preserveAspectRatio="xMidYMid meet">
<metadata>
Created by potrace 1.16, written by Peter Selinger 2001-2019
</metadata>
<g transform="translate(0.000000,3414.000000) scale(0.100000,-0.100000)"
fill="#000000" stroke="none">
<path d="M18910 34060 c-79 -11 -119 -20 -290 -65 -244 -65 -363 -96 -495
-130 -71 -18 -175 -45 -230 -60 -55 -15 -161 -42 -235 -61 -74 -19 -191 -50
-260 -69 -69 -19 -161 -43 -205 -53 -44 -11 -183 -47 -310 -80 -126 -33 -351
-92 -500 -131 -600 -155 -674 -175 -780 -203 -60 -16 -204 -54 -320 -83 -115
-30 -255 -66 -310 -80 -55 -15 -152 -40 -215 -56 -63 -16 -140 -36 -170 -44
-30 -9 -143 -38 -250 -66 -107 -28 -260 -68 -340 -89 -80 -20 -242 -62 -360
-93 -118 -31 -285 -74 -370 -97 -85 -22 -240 -63 -345 -90 -104 -27 -269 -70
-365 -96 -96 -26 -209 -54 -250 -64 -41 -9 -120 -29 -175 -44 -55 -15 -131
-36 -170 -46 -38 -10 -115 -31 -170 -45 -55 -15 -143 -37 -195 -50 -52 -12
-158 -39 -235 -60 -223 -59 -386 -102 -590 -155 -104 -27 -217 -56 -250 -65
-123 -34 -213 -57 -325 -85 -108 -26 -161 -40 -342 -90 -40 -10 -84 -22 -98
-25 -14 -4 -74 -19 -135 -35 -60 -16 -171 -44 -245 -63 -74 -19 -250 -64 -390
-101 -140 -37 -291 -76 -335 -87 -44 -12 -102 -27 -130 -35 -191 -51 -398
-105 -500 -129 -38 -10 -101 -26 -140 -36 -71 -20 -86 -24 -295 -79 -63 -17
-140 -37 -170 -45 -30 -8 -109 -28 -175 -45 -66 -16 -172 -43 -235 -60 -201
-54 -424 -112 -460 -120 -55 -12 -314 -81 -322 -86 -3 -2 -26 -8 -50 -13 -103
-22 -439 -112 -503 -135 -100 -37 -282 -126 -302 -148 -9 -10 -20 -18 -24 -18
-17 0 -115 -65 -189 -124 -263 -212 -455 -454 -604 -759 -107 -220 -158 -382
-214 -677 -14 -77 -16 -1226 -19 -12863 l-3 -12777 -1403 0 c-1342 0 -1406 -1
-1507 -19 -149 -28 -214 -46 -316 -87 -298 -120 -565 -333 -742 -593 -70 -103
-131 -214 -162 -296 -12 -33 -28 -71 -36 -85 -17 -34 -40 -129 -65 -265 -17
-93 -19 -137 -15 -285 6 -206 32 -345 93 -500 130 -333 354 -610 645 -796 78
-50 248 -138 288 -149 14 -4 40 -13 57 -21 46 -21 162 -49 278 -68 92 -15 799
-16 9070 -13 8164 3 8976 5 9040 19 39 9 104 23 145 32 154 33 291 81 448 156
57 28 107 50 112 50 6 0 10 4 10 8 0 5 24 21 53 36 196 100 495 384 655 621
73 109 178 315 212 416 12 35 26 72 32 82 11 21 55 187 68 257 5 25 17 95 27
155 17 106 18 615 18 15125 l0 15015 -22 150 c-98 654 -438 1192 -977 1544
-79 51 -283 155 -366 187 -25 9 -54 20 -65 25 -47 22 -274 80 -385 99 -90 15
-509 22 -600 10z m-775 -17160 l0 -13645 -5312 -3 -5313 -2 0 12288 0 12289
118 32 c206 56 346 92 392 101 25 5 86 21 135 35 50 14 110 30 135 35 79 18
163 39 255 64 50 14 128 35 175 46 137 33 243 60 275 70 43 13 303 80 350 90
22 4 76 18 120 30 44 12 116 30 160 41 44 10 121 30 170 43 50 14 173 45 275
71 102 26 232 60 290 75 58 16 141 37 185 49 44 11 118 30 165 42 47 11 110
27 140 35 30 7 82 20 115 29 33 9 85 23 115 30 30 7 75 19 100 26 25 6 61 15
80 19 19 4 80 20 135 35 117 31 277 73 425 110 58 14 150 38 205 52 55 14 125
31 155 38 30 7 89 22 130 33 253 68 352 94 410 107 79 18 112 26 215 55 120
32 345 91 385 100 19 4 134 33 255 65 206 53 295 76 505 127 47 11 96 25 110
30 14 5 43 13 65 18 22 4 112 27 200 49 252 66 529 137 800 206 303 77 646
165 775 199 52 14 172 44 265 66 94 22 193 47 220 55 133 38 196 55 265 70 93
21 176 42 260 66 93 26 400 104 570 145 80 19 174 43 210 54 36 11 84 25 108
30 95 22 126 31 141 40 9 6 27 9 41 7 l25 -2 0 -13645z"/>
<path d="M14715 19170 c-219 -48 -374 -120 -560 -259 -198 -149 -408 -411
-532 -666 -19 -38 -41 -82 -49 -97 -16 -30 -71 -178 -84 -223 -4 -16 -12 -41
-18 -55 -5 -14 -19 -65 -31 -115 -12 -49 -26 -106 -31 -125 -5 -19 -11 -55
-14 -80 -3 -25 -13 -94 -22 -155 -33 -227 -16 -653 37 -890 38 -172 119 -428
162 -510 9 -16 32 -65 53 -107 20 -43 42 -82 50 -89 8 -6 14 -17 14 -24 0 -15
115 -188 166 -251 63 -76 214 -229 242 -247 15 -9 42 -30 61 -47 30 -28 70
-57 136 -97 25 -15 169 -86 210 -102 89 -37 252 -74 375 -86 66 -6 234 8 299
24 20 5 68 17 106 27 39 9 79 23 90 31 11 7 26 13 35 13 14 0 159 68 170 80 3
3 16 11 30 18 100 50 310 236 410 361 19 24 40 49 45 55 10 10 126 187 152
231 13 21 74 146 111 225 38 80 96 245 107 300 4 19 14 55 22 80 15 46 30 122
60 310 23 148 24 580 0 735 -25 168 -46 275 -62 325 -8 25 -23 77 -34 115 -35
126 -104 295 -179 435 -32 60 -154 250 -177 276 -5 7 -25 31 -44 55 -60 76
-240 247 -313 296 -102 69 -273 163 -297 163 -5 0 -22 6 -38 14 -143 71 -466
98 -658 56z"/>
<path d="M23452 28228 l3 -1593 3285 -5 3285 -5 90 -28 c173 -53 281 -111 411
-220 93 -78 138 -130 203 -234 69 -112 95 -174 143 -343 10 -36 14 -2340 18
-11925 l6 -11880 21 -130 c12 -71 27 -146 32 -165 5 -19 17 -64 26 -100 24
-96 73 -223 141 -367 106 -225 268 -440 465 -618 92 -83 118 -105 126 -105 4
0 27 -17 52 -38 25 -21 78 -57 116 -80 39 -23 75 -45 80 -49 22 -18 214 -107
290 -135 98 -36 216 -70 315 -91 41 -8 102 -21 135 -29 48 -10 463 -13 2125
-16 1820 -2 2074 -1 2141 13 42 8 88 15 102 15 14 0 28 4 32 9 3 6 27 13 53
17 26 4 65 15 87 24 22 10 62 26 90 36 162 58 418 229 543 363 404 432 551
969 412 1506 -114 439 -453 848 -863 1039 -134 63 -178 79 -278 106 -196 51
-162 50 -1661 50 l-1398 0 -3 11327 c-3 10422 -4 11338 -19 11448 -50 363 -90
546 -190 855 -178 553 -498 1094 -916 1553 -140 154 -357 356 -497 464 -115
90 -274 205 -315 229 -19 12 -100 60 -179 109 -123 75 -294 163 -495 254 -62
29 -188 75 -286 107 -41 13 -88 29 -105 35 -43 15 -163 49 -213 60 -24 5 -47
11 -52 14 -15 9 -300 63 -420 79 -259 35 -351 36 -3656 36 l-3284 0 2 -1592z"/>
</g>
</svg>
