<?xml version="1.0" standalone="no"?>
<!DOCTYPE svg PUBLIC "-//W3C//DTD SVG 20010904//EN"
 "http://www.w3.org/TR/2001/REC-SVG-20010904/DTD/svg10.dtd">
<svg version="1.0" xmlns="http://www.w3.org/2000/svg"
 width="3840.000000pt" height="3414.000000pt" viewBox="0 0 3840.000000 3414.000000"
 preserveAspectRatio="xMidYMid meet">
<metadata>
Created by potrace 1.16, written by Peter Selinger 2001-2019
</metadata>
<g transform="translate(0.000000,3414.000000) scale(0.100000,-0.100000)"
fill="#000000" stroke="none">
<path d="M35216 34054 c-207 -41 -388 -138 -543 -291 -90 -89 -148 -168 -240
-323 -678 -1153 -1492 -2134 -2478 -2990 -218 -189 -361 -304 -580 -468 -77
-58 -165 -124 -195 -147 -107 -81 -418 -290 -610 -410 -416 -261 -863 -501
-1330 -715 -130 -60 -469 -203 -520 -220 -14 -5 -72 -27 -130 -50 -510 -202
-1297 -426 -1860 -530 -36 -6 -85 -16 -110 -21 -87 -17 -336 -57 -485 -78
-414 -55 -587 -72 -1015 -96 -211 -12 -741 -15 -3061 -15 -1637 0 -2954 -4
-3160 -10 -464 -13 -889 -44 -1244 -89 -82 -11 -190 -24 -240 -31 -49 -6 -171
-25 -270 -41 -422 -70 -784 -145 -1031 -215 -28 -8 -61 -14 -73 -14 -21 0 -69
-13 -171 -46 -25 -8 -70 -21 -100 -28 -30 -8 -80 -21 -110 -30 -30 -9 -80 -23
-110 -31 -61 -16 -148 -44 -415 -134 -99 -34 -209 -71 -245 -83 -36 -11 -78
-26 -95 -33 -16 -7 -50 -20 -75 -30 -25 -9 -61 -26 -81 -36 -20 -11 -43 -19
-52 -19 -13 0 -109 -38 -202 -80 -49 -22 -112 -47 -144 -55 -13 -4 -76 -32
-140 -62 -111 -52 -192 -89 -256 -117 -122 -54 -213 -97 -295 -139 -52 -28
-183 -94 -290 -149 -107 -54 -201 -105 -210 -112 -8 -7 -42 -28 -75 -46 -58
-32 -199 -112 -240 -137 -11 -7 -35 -20 -54 -28 -39 -19 -108 -62 -136 -86
-11 -9 -47 -31 -80 -49 -33 -18 -68 -39 -78 -48 -9 -8 -26 -20 -36 -26 -203
-116 -727 -488 -1068 -757 -193 -153 -265 -214 -597 -504 -213 -186 -805 -778
-985 -985 -79 -91 -185 -212 -235 -269 -249 -283 -739 -939 -931 -1246 -37
-60 -71 -112 -75 -115 -4 -3 -13 -17 -21 -32 -8 -14 -48 -80 -90 -145 -42 -65
-87 -138 -101 -163 -55 -96 -143 -249 -193 -335 -29 -49 -70 -124 -92 -165
-61 -113 -313 -616 -313 -624 0 -3 -18 -46 -41 -94 -81 -172 -99 -212 -99
-219 0 -3 -15 -38 -34 -77 -19 -39 -45 -100 -59 -136 -13 -36 -43 -110 -65
-165 -76 -191 -130 -330 -153 -400 -12 -38 -31 -89 -41 -112 -10 -24 -18 -48
-18 -55 -1 -7 -12 -44 -26 -83 -14 -38 -29 -83 -34 -100 -4 -16 -20 -61 -34
-100 -15 -38 -30 -86 -35 -105 -14 -57 -37 -139 -66 -235 -15 -49 -31 -106
-35 -125 -4 -19 -13 -48 -18 -65 -23 -69 -52 -178 -81 -310 -18 -77 -36 -158
-42 -180 -37 -158 -116 -544 -130 -640 -5 -33 -16 -96 -24 -140 -8 -44 -22
-132 -30 -195 -8 -63 -26 -200 -40 -305 -30 -228 -71 -708 -86 -1005 -24 -498
-10 -1143 36 -1655 50 -553 153 -1207 265 -1680 68 -286 94 -390 116 -470 33
-121 38 -150 28 -168 -5 -8 -97 -93 -205 -189 -960 -850 -1973 -1906 -2771
-2889 -434 -534 -634 -797 -1029 -1349 -647 -903 -1185 -1761 -1709 -2720
-264 -484 -561 -1086 -747 -1515 -349 -805 -368 -870 -367 -1225 0 -174 3
-221 22 -309 100 -459 380 -844 780 -1069 92 -52 308 -142 341 -142 11 0 32
-5 48 -11 165 -66 571 -67 788 -3 204 61 354 130 504 235 125 86 311 269 394
385 82 117 144 240 241 479 46 116 100 246 119 290 84 197 128 296 165 375 22
47 56 121 77 165 113 243 464 923 567 1100 20 33 47 80 60 105 133 239 395
681 523 880 300 468 302 472 584 880 723 1048 1701 2214 2635 3140 147 145
271 271 275 279 5 8 15 11 25 8 19 -8 42 -41 160 -232 129 -210 330 -509 492
-731 831 -1144 1797 -2100 2970 -2942 201 -144 784 -520 915 -591 49 -26 112
-62 209 -118 47 -27 148 -82 225 -123 77 -40 171 -90 208 -112 38 -21 70 -38
72 -38 1 0 92 -43 201 -96 110 -53 237 -112 284 -131 47 -20 111 -48 142 -64
51 -26 171 -76 473 -197 290 -117 797 -288 1105 -372 63 -18 142 -40 175 -50
88 -26 162 -45 330 -85 83 -20 166 -40 185 -45 90 -24 504 -104 690 -135 58
-9 139 -23 180 -31 41 -8 118 -18 170 -24 52 -6 120 -15 150 -20 55 -9 215
-26 500 -55 648 -64 1474 -66 2195 -5 492 42 603 52 700 61 55 5 145 14 200
19 55 5 192 21 305 35 113 15 234 31 270 35 164 22 302 41 375 55 44 8 125 21
180 30 106 17 197 34 360 66 55 11 159 31 230 45 72 14 177 36 235 49 58 13
168 38 245 55 77 17 149 33 160 36 188 47 411 105 450 117 28 8 79 23 115 32
120 32 164 45 350 101 102 31 212 65 245 74 33 10 89 28 125 41 36 12 79 25
95 30 17 4 102 33 190 64 88 31 176 61 195 67 19 5 87 30 150 54 63 25 138 53
165 63 107 39 379 147 407 162 10 5 23 9 30 9 7 0 35 11 62 25 27 14 54 25 60
25 7 0 38 13 71 30 33 16 65 30 71 30 6 0 33 11 60 25 27 14 52 25 56 25 6 0
116 50 253 115 28 13 84 38 125 56 41 19 142 66 223 106 81 40 151 73 156 73
4 0 30 12 57 26 27 15 108 57 179 94 72 37 157 82 190 100 33 18 110 58 170
90 61 32 148 80 195 107 47 27 119 69 160 92 264 148 464 270 920 561 60 38
313 210 425 289 55 39 123 86 152 105 28 19 83 59 122 88 39 29 87 64 106 78
20 14 42 30 48 35 7 6 84 64 172 130 88 66 167 125 175 132 8 7 53 42 100 79
309 241 688 562 1030 875 1236 1127 2318 2408 3272 3874 118 180 329 519 403
645 188 320 240 411 332 575 55 99 122 221 148 270 27 50 62 115 78 145 51 93
380 748 439 875 197 418 395 872 538 1233 50 125 99 247 109 272 23 55 39 97
86 225 20 55 50 134 66 175 139 365 390 1136 518 1590 22 80 54 190 70 245 63
212 225 861 286 1140 14 66 32 152 41 190 8 39 19 86 24 105 5 19 20 94 34
165 14 72 32 164 41 205 31 156 66 339 84 450 11 63 29 169 40 235 11 66 27
163 36 215 8 52 24 151 35 220 10 69 31 213 44 320 14 107 32 247 40 310 29
222 78 683 100 945 63 728 86 1241 93 2055 7 972 -23 1664 -117 2620 -18 178
-31 296 -74 660 -59 496 -217 1449 -321 1935 -23 105 -73 335 -102 465 -27
121 -213 869 -237 955 -29 102 -59 211 -69 250 -33 128 -213 715 -299 975
-101 306 -245 712 -333 935 -25 66 -74 190 -107 275 -179 460 -366 865 -446
971 -163 214 -367 346 -617 400 -107 22 -285 24 -389 3z m-566 -5634 c12 -58
26 -125 31 -150 4 -25 20 -99 34 -165 15 -66 30 -145 35 -175 5 -30 20 -113
33 -185 14 -71 27 -143 30 -160 2 -16 18 -111 35 -210 95 -549 151 -984 227
-1770 10 -99 45 -635 57 -875 15 -301 15 -1604 -1 -1870 -6 -102 -20 -340 -30
-530 -11 -190 -25 -388 -31 -440 -5 -52 -17 -165 -25 -250 -45 -469 -57 -578
-74 -705 -11 -77 -36 -257 -56 -400 -37 -268 -52 -364 -85 -545 -11 -58 -34
-184 -51 -280 -38 -220 -72 -398 -99 -520 -12 -52 -25 -115 -30 -140 -5 -25
-16 -72 -24 -105 -9 -33 -32 -134 -52 -225 -49 -229 -56 -257 -145 -590 -44
-162 -89 -331 -101 -375 -19 -71 -47 -166 -109 -370 -10 -33 -34 -112 -54
-175 -20 -63 -49 -155 -65 -205 -16 -49 -42 -134 -59 -187 -16 -54 -35 -106
-40 -117 -6 -10 -22 -52 -35 -92 -14 -41 -37 -105 -51 -144 -28 -74 -70 -190
-87 -240 -28 -81 -81 -223 -93 -250 -7 -16 -40 -97 -73 -180 -33 -82 -80 -199
-105 -260 -25 -60 -62 -150 -82 -200 -20 -49 -78 -180 -129 -290 -52 -110
-133 -285 -181 -390 -48 -104 -95 -203 -105 -220 -9 -16 -88 -169 -175 -340
-87 -170 -193 -371 -235 -445 -312 -547 -402 -696 -703 -1165 -114 -178 -523
-757 -653 -925 -66 -85 -151 -195 -189 -245 -166 -216 -211 -271 -604 -730
-140 -163 -658 -709 -821 -865 -83 -80 -186 -179 -229 -220 -107 -102 -264
-246 -310 -284 -21 -17 -128 -110 -237 -206 -176 -155 -271 -233 -517 -423
-34 -27 -100 -79 -147 -117 -104 -83 -648 -472 -785 -562 -96 -62 -441 -284
-535 -343 -79 -50 -503 -296 -570 -331 -36 -19 -105 -57 -155 -84 -98 -55
-580 -297 -685 -344 -36 -16 -123 -56 -195 -89 -1141 -520 -2460 -918 -3720
-1122 -55 -8 -127 -20 -160 -25 -59 -10 -315 -47 -385 -56 -119 -15 -516 -55
-630 -64 -74 -5 -155 -12 -180 -15 -25 -3 -160 -15 -300 -26 -317 -26 -1105
-38 -1319 -20 -75 6 -201 16 -281 21 -139 8 -205 16 -535 60 -222 30 -431 65
-605 103 -303 67 -389 89 -685 174 -324 93 -781 261 -1035 380 -47 22 -96 44
-110 48 -14 4 -128 59 -255 121 -938 461 -1817 1101 -2591 1885 -190 193 -364
380 -460 494 -27 33 -102 121 -165 195 -176 206 -415 521 -596 785 -241 352
-530 835 -515 862 4 6 57 45 119 85 61 40 196 130 300 199 162 108 351 228
733 463 102 63 188 114 252 149 93 51 284 160 373 213 120 71 507 273 840 438
420 207 665 324 778 370 45 19 145 62 222 96 77 34 174 75 215 91 41 17 104
44 139 61 35 17 159 66 275 110 335 128 376 144 461 178 44 18 184 68 310 110
570 192 714 240 770 255 33 10 130 39 215 65 85 27 182 56 215 65 33 10 85 25
115 35 58 19 113 34 275 74 55 14 127 32 160 41 159 42 616 157 679 171 39 8
139 28 221 45 83 16 164 33 180 38 46 14 359 78 465 96 100 17 167 29 395 70
77 14 165 30 195 35 30 5 93 16 140 24 86 15 284 42 525 71 72 9 153 20 180
26 28 5 84 13 125 18 41 5 127 16 190 25 63 8 194 22 290 31 194 17 411 38
630 60 80 8 244 19 365 25 121 5 283 14 360 20 330 22 593 32 1110 40 479 8
563 12 655 29 58 11 119 24 135 29 17 6 57 18 90 28 133 39 333 144 465 245
324 248 528 580 606 987 24 125 26 152 21 317 -7 269 -49 436 -169 675 -124
248 -292 441 -536 613 -109 78 -319 171 -482 215 -163 45 -202 47 -690 45
-867 -4 -1619 -40 -2480 -119 -151 -14 -327 -29 -390 -35 -63 -5 -180 -18
-260 -29 -80 -10 -239 -31 -355 -45 -386 -48 -600 -76 -615 -80 -8 -3 -44 -9
-80 -14 -149 -23 -328 -52 -375 -61 -27 -5 -138 -24 -245 -40 -107 -17 -271
-47 -365 -66 -93 -19 -217 -43 -275 -55 -58 -11 -134 -27 -170 -35 -36 -7
-135 -28 -220 -45 -138 -27 -297 -64 -625 -144 -55 -13 -149 -36 -210 -50
-186 -44 -260 -63 -570 -151 -165 -46 -347 -98 -405 -114 -91 -25 -218 -64
-615 -190 -49 -16 -140 -44 -201 -63 -118 -37 -242 -80 -409 -142 -55 -20
-122 -43 -148 -51 -27 -9 -108 -38 -180 -66 -73 -28 -148 -55 -167 -60 -42
-12 -175 -63 -320 -123 -58 -24 -215 -87 -350 -141 -135 -53 -366 -151 -515
-217 -148 -66 -328 -146 -400 -177 -238 -106 -935 -447 -1135 -555 -58 -31
-161 -86 -230 -122 -175 -92 -615 -338 -710 -398 -19 -12 -66 -39 -105 -60
-73 -40 -115 -65 -300 -180 -60 -37 -150 -92 -200 -123 -49 -30 -130 -81 -179
-113 -89 -59 -110 -67 -121 -50 -11 19 -89 583 -110 801 -48 510 -9 1352 91
1950 22 135 72 407 84 460 38 173 104 453 116 495 8 28 39 136 69 240 54 190
185 580 245 730 18 44 53 132 78 195 111 283 355 790 497 1035 29 50 86 149
127 220 155 269 463 724 646 955 42 52 96 122 121 154 330 425 1053 1153 1446
1456 39 30 124 97 190 150 66 53 152 117 190 144 39 26 111 76 160 112 97 70
148 104 295 199 52 34 127 82 165 107 39 25 106 66 150 91 44 24 130 74 190
109 153 89 533 281 760 384 204 92 615 257 730 293 39 13 106 35 150 51 99 35
247 83 340 108 39 11 124 35 190 55 66 19 154 42 195 52 41 9 116 25 165 36
50 11 115 26 145 34 30 8 93 22 140 30 47 9 132 24 190 35 228 41 263 47 505
75 611 73 358 68 3900 75 2819 6 3217 9 3420 23 127 9 253 19 280 22 28 3 142
12 254 20 113 8 252 21 310 29 58 8 149 20 201 26 134 16 360 48 455 65 44 8
179 31 300 51 121 20 222 37 225 39 3 2 39 10 80 19 244 51 365 77 426 91 119
29 227 55 299 75 39 10 120 32 180 48 61 17 153 42 206 56 98 26 441 132 539
166 30 11 73 24 95 29 22 5 72 22 110 36 39 15 99 37 135 50 36 13 97 35 135
50 39 14 97 35 130 47 33 11 77 29 97 39 21 11 42 19 49 19 6 0 25 6 42 14 18
8 57 23 87 34 30 11 134 55 230 97 96 42 231 101 301 130 213 91 882 425 1036
518 32 19 90 51 128 71 106 54 171 93 555 329 220 135 229 141 360 231 52 36
151 104 220 151 405 275 1045 778 1375 1080 55 51 125 114 155 141 30 27 96
88 145 135 88 85 113 103 127 90 3 -3 16 -53 28 -111z"/>
</g>
</svg>
