<?xml version="1.0" standalone="no"?>
<!DOCTYPE svg PUBLIC "-//W3C//DTD SVG 20010904//EN"
 "http://www.w3.org/TR/2001/REC-SVG-20010904/DTD/svg10.dtd">
<svg version="1.0" xmlns="http://www.w3.org/2000/svg"
 width="3840.000000pt" height="3074.000000pt" viewBox="0 0 3840.000000 3074.000000"
 preserveAspectRatio="xMidYMid meet">
<metadata>
Created by potrace 1.16, written by Peter Selinger 2001-2019
</metadata>
<g transform="translate(0.000000,3074.000000) scale(0.100000,-0.100000)"
fill="#000000" stroke="none">
<path d="M15205 28764 c-529 -18 -1056 -115 -1540 -284 -203 -71 -213 -75
-353 -135 -297 -130 -486 -230 -755 -400 -868 -550 -1554 -1338 -1985 -2285
-43 -92 -120 -284 -143 -355 -11 -33 -24 -69 -29 -80 -13 -29 -47 -136 -96
-305 -20 -70 -40 -148 -58 -230 -10 -41 -21 -93 -26 -115 -38 -166 -81 -479
-100 -724 -7 -91 -10 -2663 -10 -7895 l0 -7761 78 -38 c42 -21 104 -53 137
-72 33 -18 85 -46 115 -61 30 -16 57 -31 60 -34 3 -3 14 -10 25 -17 11 -7 51
-31 89 -55 37 -24 76 -48 85 -53 138 -87 360 -253 546 -410 239 -202 270 -225
415 -299 220 -113 419 -185 710 -256 176 -44 470 -92 565 -94 l40 -1 3 3328 2
3327 6220 0 6220 0 2 -3327 3 -3328 40 1 c63 2 208 22 355 50 294 56 537 128
772 228 224 96 310 153 558 366 151 130 356 285 495 374 33 22 79 52 103 68
24 15 45 28 48 28 3 0 42 24 88 54 45 29 108 66 139 80 31 15 59 31 62 37 4 5
13 9 21 9 9 0 22 7 30 15 9 8 24 15 34 15 10 0 20 7 24 15 3 8 14 15 24 15 11
0 25 7 32 15 7 8 19 15 26 15 12 0 14 1207 17 7773 2 5829 6 7787 15 7832 6
33 16 92 23 130 55 342 221 720 447 1019 268 354 664 652 1052 791 41 15 92
33 112 41 208 77 603 132 843 118 497 -28 948 -191 1344 -486 121 -91 364
-334 457 -458 213 -284 369 -620 436 -940 51 -243 51 -241 55 -1175 4 -942 3
-920 55 -1081 84 -259 335 -505 608 -594 141 -47 191 -50 774 -50 461 0 565 3
636 16 47 9 94 20 105 24 11 5 31 12 45 15 59 14 214 102 293 165 102 83 191
194 251 315 53 108 69 159 91 287 15 86 16 191 12 980 -4 704 -8 915 -20 1043
-19 189 -42 370 -56 440 -5 28 -18 91 -27 140 -50 269 -148 599 -267 900 -466
1184 -1369 2179 -2501 2755 -275 139 -671 301 -841 343 -11 3 -58 16 -105 30
-314 92 -673 157 -1040 188 -176 15 -638 15 -810 0 -345 -30 -679 -87 -945
-161 -44 -12 -89 -24 -100 -27 -52 -12 -342 -110 -440 -148 -588 -229 -1091
-536 -1610 -984 -89 -77 -366 -356 -465 -470 -378 -433 -725 -995 -915 -1486
-15 -38 -33 -83 -40 -100 -19 -43 -121 -349 -140 -420 -98 -362 -143 -604
-187 -1005 -8 -77 -12 -1125 -15 -3862 l-3 -3758 -6220 0 -6220 0 3 3713 3
3712 21 116 c34 189 70 320 131 484 205 547 639 1024 1177 1293 55 27 120 57
145 65 25 9 70 26 100 37 259 100 638 160 910 145 227 -13 488 -63 676 -129
139 -50 159 -58 275 -116 260 -130 442 -262 639 -459 367 -369 584 -794 677
-1326 13 -75 17 -241 23 -1005 6 -772 10 -925 23 -980 43 -180 105 -307 206
-420 22 -25 41 -48 41 -51 0 -14 179 -147 242 -182 84 -45 189 -81 297 -101
123 -23 1134 -23 1260 0 411 75 713 372 792 779 19 98 20 1738 1 1960 -37 431
-86 711 -188 1075 -85 300 -183 557 -328 855 -512 1054 -1348 1899 -2395 2420
-177 88 -309 145 -606 260 -33 13 -85 30 -115 39 -30 9 -100 29 -155 45 -496
146 -1106 222 -1630 205z"/>
<path d="M7065 6749 c-326 -24 -641 -117 -965 -286 -254 -133 -459 -277 -731
-513 -200 -174 -315 -261 -492 -372 -122 -77 -436 -240 -562 -293 -158 -66
-481 -176 -645 -220 -36 -10 -87 -24 -115 -31 -196 -53 -570 -121 -790 -144
-358 -37 -461 -41 -1140 -46 -412 -3 -720 -9 -763 -15 -339 -49 -635 -300
-749 -634 -50 -146 -53 -197 -53 -784 0 -628 4 -670 73 -841 123 -303 398
-522 731 -582 106 -19 144 -19 816 -15 388 3 777 10 865 16 258 18 519 41 685
61 333 41 351 44 580 86 247 45 321 60 575 119 169 40 206 49 300 76 157 46
180 53 420 129 68 21 205 69 275 95 19 8 69 26 110 41 41 14 89 33 105 40 17
7 71 29 120 49 102 41 101 40 208 89 44 20 80 36 82 36 11 0 391 190 525 263
355 192 719 432 1030 680 69 55 130 104 137 109 16 13 42 4 73 -24 55 -50 179
-148 260 -206 47 -34 124 -90 173 -124 110 -79 357 -238 508 -328 103 -61 532
-290 543 -290 2 0 65 -29 141 -65 75 -36 138 -65 141 -65 2 0 23 -9 47 -19 97
-44 291 -122 412 -166 72 -25 155 -55 185 -67 318 -117 998 -297 1355 -358 28
-5 102 -18 166 -29 203 -36 567 -83 824 -105 335 -29 559 -39 925 -39 533 0
924 27 1505 104 96 12 394 63 525 90 88 17 183 38 350 75 36 8 85 19 110 24
170 35 855 250 1007 316 17 8 36 14 42 14 6 0 19 5 29 10 9 6 91 40 182 76 90
36 220 92 288 125 69 32 127 59 129 59 9 0 284 140 404 205 382 209 853 528
1127 761 33 29 47 35 62 28 11 -5 75 -53 142 -106 178 -141 359 -273 468 -342
52 -33 124 -80 160 -104 36 -25 106 -67 155 -95 50 -28 115 -66 145 -86 88
-56 623 -321 780 -387 251 -105 340 -141 510 -202 181 -65 498 -166 655 -207
55 -15 123 -33 150 -41 100 -27 536 -126 615 -138 19 -4 98 -18 175 -31 321
-58 789 -111 1210 -136 247 -15 887 -15 1130 0 398 24 861 75 1155 126 219 38
352 62 405 75 22 5 112 26 200 45 245 55 356 84 535 139 254 79 355 111 411
132 36 13 79 28 95 33 16 5 54 19 84 31 30 11 75 28 100 37 25 8 73 28 108 44
35 16 65 29 68 29 10 0 247 102 349 150 61 29 135 64 165 77 201 93 581 309
855 488 188 123 477 336 598 442 20 18 43 33 50 33 6 0 73 -49 148 -108 75
-60 154 -122 177 -138 23 -16 94 -67 159 -114 64 -47 133 -94 152 -105 20 -11
83 -51 141 -88 149 -97 347 -214 470 -276 58 -30 155 -79 215 -111 369 -190
820 -369 1315 -523 80 -25 156 -48 170 -51 30 -8 261 -68 342 -90 32 -9 88
-22 125 -30 38 -9 100 -22 138 -31 196 -43 514 -101 660 -120 61 -8 160 -21
221 -29 421 -57 786 -76 1584 -83 636 -5 716 -4 810 11 58 10 132 26 165 37
236 78 440 252 555 471 48 91 64 140 90 263 18 82 19 140 20 652 0 603 -2 634
-54 786 -31 93 -108 229 -171 307 -54 65 -192 181 -265 222 -25 14 -81 39
-125 56 -155 60 -165 61 -930 66 -859 6 -1102 23 -1585 110 -79 14 -111 21
-283 60 -34 8 -98 24 -142 36 -44 12 -96 26 -115 30 -58 12 -359 116 -465 160
-55 23 -125 51 -155 63 -79 30 -379 184 -486 249 -196 120 -320 212 -524 391
-306 268 -599 466 -875 590 -171 76 -416 153 -584 183 -207 36 -365 44 -891
44 -715 0 -861 -14 -1195 -116 -350 -107 -756 -346 -1104 -649 -57 -49 -138
-118 -179 -153 -599 -502 -1524 -852 -2532 -957 -273 -28 -445 -37 -725 -37
-620 -1 -1203 73 -1715 217 -144 41 -397 124 -458 151 -18 7 -37 14 -42 14 -5
0 -33 11 -62 24 -29 14 -82 37 -118 52 -170 70 -441 217 -610 330 -154 104
-218 153 -389 302 -313 273 -528 421 -821 565 -154 76 -169 82 -380 147 -309
95 -467 110 -1160 110 -526 0 -693 -8 -885 -41 -234 -41 -527 -144 -740 -261
-55 -30 -105 -57 -110 -59 -6 -2 -62 -37 -125 -76 -137 -87 -327 -233 -521
-402 -181 -158 -301 -247 -478 -355 -761 -466 -1762 -716 -2866 -718 -375 -1
-717 24 -1065 77 -162 25 -454 86 -595 125 -44 12 -102 28 -130 35 -212 57
-542 184 -780 301 -346 170 -541 301 -864 582 -435 379 -798 584 -1271 716
-97 27 -281 55 -425 66 -162 12 -1117 11 -1280 -1z"/>
</g>
</svg>
