<?xml version="1.0" standalone="no"?>
<!DOCTYPE svg PUBLIC "-//W3C//DTD SVG 20010904//EN"
 "http://www.w3.org/TR/2001/REC-SVG-20010904/DTD/svg10.dtd">
<svg version="1.0" xmlns="http://www.w3.org/2000/svg"
 width="3840.000000pt" height="3840.000000pt" viewBox="0 0 3840.000000 3840.000000"
 preserveAspectRatio="xMidYMid meet">
<metadata>
Created by potrace 1.16, written by Peter Selinger 2001-2019
</metadata>
<g transform="translate(0.000000,3840.000000) scale(0.100000,-0.100000)"
fill="#000000" stroke="none">
<path d="M8850 38373 c-14 -2 -70 -10 -125 -19 -628 -96 -1163 -533 -1398
-1139 -34 -88 -64 -202 -88 -330 -27 -144 -27 -458 0 -610 19 -106 53 -248 71
-290 5 -11 29 -68 53 -127 47 -112 139 -271 216 -373 124 -164 341 -355 523
-462 208 -122 456 -205 693 -233 126 -14 20684 -14 20810 0 381 44 749 219
1025 487 63 61 140 143 170 181 89 115 187 280 236 397 25 61 49 119 54 130 5
11 16 52 25 90 9 39 21 79 25 90 42 103 55 538 21 720 -50 271 -134 479 -279
695 -274 411 -673 671 -1181 773 l-106 21 -10360 2 c-5698 1 -10371 0 -10385
-3z"/>
<path d="M5132 32364 c-245 -44 -467 -125 -647 -237 -170 -105 -381 -292 -487
-432 -174 -231 -286 -476 -345 -754 -24 -115 -27 -146 -27 -351 -1 -234 7
-298 55 -480 127 -485 476 -909 939 -1140 150 -76 325 -131 515 -164 81 -14
1417 -16 14065 -16 12472 0 13984 2 14062 15 204 36 359 85 517 164 68 34 95
49 173 96 134 81 319 247 446 403 90 109 200 303 265 464 31 77 80 260 99 368
17 101 17 470 0 570 -47 264 -134 488 -268 693 -287 439 -703 709 -1229 801
-82 14 -1410 16 -14075 15 -11652 -1 -13997 -3 -14058 -15z"/>
<path d="M4440 26379 c-186 -12 -355 -36 -590 -84 -253 -52 -539 -133 -675
-190 -16 -7 -47 -18 -68 -25 -22 -7 -51 -18 -65 -26 -15 -8 -30 -14 -35 -14
-23 0 -406 -184 -523 -251 -21 -12 -59 -34 -84 -47 -205 -115 -550 -365 -759
-552 -639 -570 -1098 -1262 -1369 -2065 -121 -357 -192 -697 -234 -1110 -15
-149 -22 -17296 -7 -17500 64 -882 324 -1649 801 -2362 289 -434 668 -835
1098 -1164 105 -81 358 -250 465 -311 44 -25 98 -56 120 -68 98 -56 323 -164
465 -223 485 -201 914 -302 1521 -357 162 -14 29236 -14 29398 0 355 33 608
74 888 145 98 25 187 50 198 55 11 5 45 16 75 25 30 9 64 20 75 25 11 5 31 12
45 16 34 9 196 71 247 95 24 10 45 19 48 19 30 0 492 240 615 319 70 45 296
196 300 201 3 3 39 30 80 61 333 247 698 615 957 963 149 199 318 470 421 671
47 94 142 293 142 300 0 3 9 24 19 48 24 51 86 213 95 247 4 14 11 34 16 45
21 50 73 226 114 386 62 246 104 512 136 854 14 151 14 17244 0 17404 -40 460
-111 824 -235 1196 -90 272 -225 582 -339 783 -25 45 -58 104 -73 130 -39 70
-186 294 -261 397 -290 398 -653 762 -1047 1051 -111 81 -292 204 -301 204 -3
0 -20 11 -37 23 -58 43 -359 203 -487 260 -19 9 -70 32 -113 51 -42 20 -80 36
-83 36 -3 0 -20 6 -37 14 -18 7 -48 19 -67 26 -19 7 -48 19 -65 26 -63 26
-346 113 -455 139 -309 76 -570 118 -835 135 -185 12 -29312 11 -29495 -1z
m29340 -3602 c206 -42 397 -128 535 -241 148 -121 253 -249 327 -399 67 -134
80 -170 115 -322 17 -77 18 -375 18 -8605 0 -8210 -1 -8528 -18 -8610 -106
-494 -460 -847 -957 -956 -83 -18 -490 -19 -14600 -19 -14110 0 -14517 1
-14600 19 -183 40 -299 88 -445 185 -244 161 -419 411 -496 706 -11 44 -25
141 -30 215 -6 85 -8 3237 -6 8570 l3 8435 21 85 c64 253 162 430 332 600 213
212 447 319 761 349 47 5 6581 8 14520 7 13669 -2 14440 -3 14520 -19z"/>
</g>
</svg>
