<?xml version="1.0" standalone="no"?>
<!DOCTYPE svg PUBLIC "-//W3C//DTD SVG 20010904//EN"
 "http://www.w3.org/TR/2001/REC-SVG-20010904/DTD/svg10.dtd">
<svg version="1.0" xmlns="http://www.w3.org/2000/svg"
 width="3840.000000pt" height="3840.000000pt" viewBox="0 0 3840.000000 3840.000000"
 preserveAspectRatio="xMidYMid meet">
<metadata>
Created by potrace 1.16, written by Peter Selinger 2001-2019
</metadata>
<g transform="translate(0.000000,3840.000000) scale(0.100000,-0.100000)"
fill="#000000" stroke="none">
<path d="M16005 38319 c-347 -8 -469 -15 -910 -49 -328 -26 -432 -36 -660 -66
-104 -13 -262 -33 -350 -45 -88 -11 -196 -27 -240 -35 -44 -9 -105 -19 -135
-24 -30 -5 -120 -21 -200 -35 -80 -14 -197 -35 -260 -46 -63 -11 -164 -31
-225 -45 -116 -27 -300 -68 -375 -85 -95 -20 -378 -90 -445 -109 -65 -18 -335
-96 -415 -120 -19 -6 -96 -28 -170 -49 -74 -22 -299 -95 -500 -164 -340 -116
-399 -137 -520 -188 -25 -10 -119 -47 -210 -83 -91 -35 -205 -80 -255 -99 -49
-20 -124 -51 -165 -70 -71 -32 -216 -98 -480 -217 -105 -47 -452 -219 -525
-260 -16 -9 -91 -47 -165 -85 -122 -62 -359 -193 -531 -295 -14 -8 -57 -33
-95 -54 -100 -56 -336 -198 -434 -261 -47 -30 -136 -88 -198 -127 -197 -127
-376 -249 -569 -387 -317 -226 -361 -259 -578 -431 -115 -91 -239 -188 -275
-215 -36 -27 -137 -115 -225 -195 -89 -80 -225 -203 -304 -275 -79 -71 -250
-226 -380 -343 -360 -325 -420 -387 -1011 -1046 -25 -27 -124 -136 -222 -242
-97 -106 -227 -259 -290 -340 -114 -148 -128 -166 -277 -353 -45 -57 -137
-180 -203 -275 -67 -94 -148 -207 -179 -251 -77 -106 -244 -355 -359 -535 -51
-80 -114 -176 -139 -215 -54 -84 -196 -325 -397 -675 -36 -63 -97 -173 -134
-245 -228 -441 -337 -657 -393 -785 -36 -80 -102 -226 -147 -325 -133 -294
-363 -883 -502 -1290 -116 -339 -149 -443 -229 -725 -12 -41 -30 -102 -40
-135 -10 -33 -34 -121 -54 -195 -20 -74 -43 -157 -51 -185 -8 -27 -18 -70 -23
-95 -5 -25 -30 -137 -56 -250 -26 -113 -51 -224 -56 -247 -4 -24 -15 -66 -23
-95 -8 -29 -24 -107 -35 -173 -12 -66 -37 -208 -56 -315 -19 -107 -44 -244
-55 -305 -10 -60 -31 -204 -45 -320 -14 -115 -37 -300 -50 -410 -14 -110 -29
-265 -35 -345 -6 -80 -19 -255 -30 -390 -49 -630 -47 -1577 5 -2240 13 -168
27 -343 30 -390 3 -47 13 -137 21 -200 8 -63 30 -245 49 -405 20 -159 44 -339
55 -400 11 -60 27 -148 35 -195 8 -47 33 -186 56 -310 37 -205 51 -274 94
-455 8 -33 39 -168 70 -300 30 -132 71 -298 91 -370 20 -71 41 -150 48 -175
66 -235 122 -421 206 -675 171 -517 193 -577 372 -1025 27 -69 63 -159 78
-200 15 -41 53 -129 83 -195 30 -66 99 -217 152 -335 161 -357 435 -896 608
-1195 61 -104 144 -248 185 -320 89 -154 462 -739 559 -877 564 -803 839
-1144 1458 -1812 6 -6 119 -130 251 -276 133 -146 261 -283 285 -305 116 -106
440 -399 574 -520 49 -44 121 -109 160 -145 39 -36 91 -83 115 -104 25 -22 95
-86 155 -142 61 -55 138 -123 171 -150 34 -27 79 -62 99 -79 21 -16 45 -34 54
-39 9 -5 25 -18 36 -29 11 -10 36 -31 55 -45 19 -15 37 -29 40 -32 3 -3 41
-32 85 -64 44 -33 82 -62 85 -66 9 -12 162 -125 238 -177 42 -29 92 -65 111
-80 19 -16 40 -29 47 -31 8 -2 14 -7 14 -11 0 -4 16 -16 35 -27 19 -10 35 -21
35 -25 0 -3 11 -11 24 -17 24 -10 33 -17 100 -73 17 -14 49 -36 71 -49 22 -14
63 -41 90 -62 28 -21 55 -38 61 -38 6 0 19 -9 29 -20 10 -11 27 -22 38 -26 20
-6 137 -82 147 -95 3 -3 21 -14 40 -24 19 -10 81 -49 138 -87 56 -38 112 -72
125 -77 13 -5 29 -16 36 -25 7 -9 18 -16 23 -16 5 0 28 -13 51 -28 38 -26 148
-88 204 -116 13 -6 23 -14 23 -18 0 -5 5 -8 11 -8 6 0 23 -9 38 -20 15 -10 57
-34 92 -53 35 -19 84 -45 109 -58 25 -13 47 -27 48 -31 2 -5 8 -8 14 -8 5 0
23 -9 39 -21 16 -11 29 -17 29 -14 0 4 12 -3 26 -14 15 -12 32 -21 40 -21 7 0
14 -4 16 -8 2 -5 62 -38 133 -74 72 -36 198 -100 280 -143 221 -114 243 -125
365 -177 14 -6 34 -15 45 -21 26 -14 62 -31 105 -51 19 -8 112 -50 205 -92
171 -76 433 -186 555 -231 36 -13 121 -47 190 -75 252 -102 889 -319 1180
-402 69 -20 179 -51 245 -70 262 -74 432 -118 705 -182 406 -95 433 -101 655
-139 110 -19 263 -46 340 -60 175 -33 206 -38 500 -75 132 -16 308 -39 390
-50 83 -10 267 -29 410 -40 143 -11 316 -25 385 -30 202 -17 867 -33 1100 -27
213 6 622 24 1185 53 160 8 346 23 415 34 69 11 161 24 205 29 44 6 166 22
270 36 105 15 219 31 255 35 36 4 189 26 340 49 295 43 336 51 620 121 125 31
200 49 300 70 52 12 158 36 235 55 77 18 192 45 255 60 63 14 146 33 184 42
38 9 378 118 756 243 603 200 872 298 1045 382 22 11 92 41 155 68 153 64 398
170 484 209 37 18 123 55 190 82 66 28 184 85 261 126 302 163 397 214 570
308 99 54 209 113 245 133 36 19 70 38 75 42 6 4 62 34 125 67 63 33 176 101
250 150 1072 712 1102 733 1485 1039 204 162 386 307 405 322 19 15 41 33 49
40 8 7 58 47 112 88 55 41 99 79 99 84 0 5 12 13 26 16 24 6 380 -347 4703
-4668 3043 -3042 4700 -4692 4746 -4725 234 -167 518 -250 767 -223 342 37
645 219 847 508 31 44 121 227 121 246 0 8 9 39 19 68 34 92 45 169 45 313 -1
146 -11 225 -46 335 -36 115 -117 271 -189 365 -47 63 -1487 1508 -4724 4745
-2560 2560 -4655 4658 -4655 4661 0 3 21 33 48 65 26 33 148 188 272 344 124
155 299 376 389 489 128 160 251 336 556 796 352 531 465 706 465 721 0 3 28
55 63 117 55 97 117 209 240 437 16 30 96 177 177 326 142 258 188 356 457
984 25 58 93 213 150 345 126 288 106 232 343 955 105 322 197 599 205 616 7
17 23 71 35 120 62 263 115 490 156 669 24 110 56 247 70 305 13 58 34 143 45
190 11 47 26 112 34 145 13 50 29 156 90 585 5 36 32 234 60 440 8 63 28 210
44 325 29 208 34 278 66 995 8 184 19 423 24 530 11 236 -2 900 -24 1190 -28
372 -56 683 -71 805 -8 66 -19 154 -24 195 -51 420 -67 533 -110 760 -17 91
-35 190 -40 220 -17 104 -50 285 -60 330 -6 25 -26 110 -45 190 -19 80 -53
228 -75 330 -23 102 -55 235 -72 295 -35 129 -108 385 -143 505 -13 47 -35
123 -48 170 -45 157 -268 803 -344 995 -42 105 -86 217 -98 250 -80 209 -222
537 -375 860 -22 46 -40 87 -40 90 0 16 -391 777 -451 880 -24 40 -76 131
-103 180 -13 22 -32 56 -44 75 -11 19 -44 78 -73 130 -108 196 -467 756 -658
1025 -50 72 -115 163 -144 204 -69 97 -289 395 -297 401 -3 3 -37 46 -75 95
-37 50 -81 106 -96 125 -16 19 -59 73 -97 120 -37 47 -75 95 -84 108 -8 12
-35 44 -60 70 -24 26 -196 216 -383 422 -187 206 -407 449 -490 539 -112 123
-293 295 -715 679 -547 499 -641 579 -1025 878 -245 191 -754 557 -945 678
-58 37 -188 121 -290 187 -188 122 -306 193 -555 336 -375 215 -318 184 -867
467 -113 59 -250 126 -305 150 -54 24 -208 94 -343 156 -135 61 -346 152 -470
202 -124 49 -286 114 -360 144 -74 31 -166 66 -205 79 -38 13 -203 70 -365
126 -162 55 -315 107 -340 115 -49 14 -213 62 -330 95 -41 12 -102 30 -135 39
-61 18 -276 78 -375 105 -62 17 -523 123 -585 135 -22 4 -78 17 -125 28 -47
12 -152 33 -235 47 -82 14 -199 35 -260 46 -60 11 -135 24 -165 29 -30 5 -80
14 -110 20 -64 12 -296 45 -425 60 -49 5 -175 21 -280 35 -104 14 -248 30
-320 35 -71 5 -272 20 -445 34 -193 15 -439 27 -635 30 -176 4 -363 8 -415 10
-52 2 -248 0 -435 -5z m665 -2299 c1062 -48 1120 -53 1530 -117 124 -19 252
-38 285 -43 33 -4 148 -22 255 -38 107 -17 245 -38 305 -47 158 -23 209 -35
885 -212 74 -19 212 -54 305 -78 331 -84 281 -68 800 -260 99 -37 230 -85 290
-107 446 -161 539 -201 1060 -453 292 -142 558 -270 593 -286 59 -27 223 -121
337 -194 57 -37 391 -240 540 -328 55 -33 145 -88 200 -122 55 -34 109 -67
120 -73 23 -11 906 -670 1055 -787 52 -41 109 -87 125 -102 17 -15 73 -67 125
-114 52 -47 196 -177 320 -290 124 -112 283 -256 353 -319 70 -63 205 -200
300 -305 438 -483 666 -734 711 -785 27 -30 155 -197 284 -370 130 -173 306
-409 392 -525 87 -115 195 -271 240 -345 46 -74 121 -198 168 -275 47 -77 109
-178 137 -225 28 -47 90 -148 138 -225 47 -77 91 -152 98 -167 7 -16 16 -28
21 -28 4 0 8 -5 8 -12 0 -6 6 -19 14 -27 14 -16 121 -227 196 -385 21 -45 79
-166 130 -271 95 -194 201 -415 271 -563 22 -45 57 -131 78 -190 22 -59 44
-118 49 -132 6 -14 30 -79 52 -145 23 -66 48 -133 55 -150 14 -32 26 -63 99
-265 25 -69 57 -156 71 -195 69 -183 127 -361 145 -440 10 -44 77 -310 135
-530 20 -77 48 -185 61 -240 13 -55 31 -122 39 -150 43 -149 69 -269 101 -473
19 -125 51 -328 70 -452 20 -124 40 -252 44 -285 4 -33 22 -152 38 -265 25
-164 35 -288 52 -620 11 -228 28 -541 36 -695 16 -276 15 -343 -6 -715 -5 -91
-19 -352 -30 -580 -11 -228 -25 -446 -31 -485 -30 -198 -50 -337 -59 -400 -5
-38 -25 -167 -44 -285 -19 -118 -46 -298 -61 -400 -33 -221 -44 -273 -125
-585 -34 -132 -66 -256 -70 -275 -4 -19 -19 -80 -34 -135 -15 -55 -56 -212
-91 -350 -58 -226 -114 -396 -210 -645 -18 -47 -37 -101 -43 -120 -6 -19 -20
-60 -32 -90 -12 -30 -28 -73 -35 -95 -7 -22 -18 -51 -24 -65 -6 -14 -52 -137
-102 -275 -50 -137 -116 -302 -146 -365 -31 -63 -146 -302 -256 -530 -110
-228 -218 -453 -239 -500 -22 -46 -55 -107 -72 -135 -18 -27 -62 -97 -96 -155
-85 -140 -212 -350 -295 -485 -37 -60 -92 -150 -122 -200 -129 -215 -177 -287
-320 -478 -83 -111 -166 -222 -186 -247 -19 -25 -134 -178 -255 -340 -186
-248 -414 -520 -572 -682 -8 -8 -132 -144 -275 -302 -205 -226 -314 -336 -515
-519 -140 -128 -311 -284 -380 -347 -69 -63 -179 -164 -245 -224 -68 -61 -350
-281 -650 -505 -539 -404 -566 -423 -747 -532 -57 -34 -119 -72 -138 -84 -19
-12 -57 -35 -83 -51 -26 -16 -82 -50 -123 -76 -41 -27 -76 -48 -78 -48 -5 0
-214 -128 -246 -150 -14 -10 -47 -30 -75 -45 -27 -16 -77 -46 -110 -68 -73
-48 -158 -91 -587 -296 -183 -87 -423 -202 -533 -256 -110 -53 -236 -110 -280
-127 -44 -16 -116 -44 -160 -60 -44 -17 -123 -45 -175 -64 -87 -30 -280 -101
-470 -173 -266 -101 -436 -157 -608 -202 -109 -28 -258 -66 -332 -85 -74 -19
-223 -58 -330 -85 -107 -27 -253 -65 -325 -84 -147 -38 -185 -46 -375 -74
-319 -49 -412 -63 -525 -81 -66 -10 -172 -26 -235 -35 -63 -10 -164 -25 -225
-35 -160 -26 -182 -28 -610 -50 -214 -11 -507 -27 -650 -36 -283 -18 -484 -16
-925 10 -140 8 -363 20 -495 26 -279 13 -415 24 -575 50 -63 10 -167 26 -230
35 -63 9 -209 32 -325 51 -115 18 -239 38 -275 43 -356 53 -393 60 -595 114
-71 19 -195 51 -275 71 -80 20 -167 43 -195 51 -27 8 -174 46 -325 84 -151 39
-295 77 -320 85 -62 20 -250 87 -335 120 -84 32 -121 46 -340 125 -93 34 -186
68 -205 76 -19 7 -93 35 -165 61 -229 83 -247 91 -450 189 -110 54 -249 121
-310 150 -60 29 -217 105 -349 169 -131 64 -241 116 -243 116 -6 0 -149 79
-205 113 -20 12 -108 65 -195 118 -87 53 -315 192 -508 309 -363 221 -349 211
-1130 796 -319 239 -311 232 -1099 949 -189 172 -354 348 -1032 1099 -50 56
-270 342 -491 636 -369 494 -414 559 -588 845 -325 535 -430 708 -472 775 -22
36 -113 219 -203 405 -90 187 -199 414 -243 505 -155 322 -189 396 -212 460
-12 36 -71 196 -130 355 -59 160 -124 337 -145 395 -21 58 -66 182 -100 275
-61 168 -89 262 -208 725 -34 129 -82 316 -108 415 -25 99 -49 191 -51 205 -3
14 -13 52 -23 86 -19 63 -35 158 -95 554 -20 129 -42 276 -50 325 -80 491 -94
629 -124 1215 -6 118 -18 352 -27 519 -14 276 -14 331 0 600 9 163 25 483 36
711 11 228 25 442 30 476 6 33 23 152 40 265 30 202 44 292 80 524 11 66 27
170 35 230 39 262 57 364 75 420 10 33 20 71 23 85 5 28 110 436 132 515 8 28
31 115 50 195 20 80 45 177 55 215 11 39 29 106 41 150 19 73 168 493 289 820
100 269 178 481 185 504 8 27 57 131 258 546 71 149 158 329 192 400 128 267
174 356 227 442 31 48 185 302 344 563 l288 475 418 555 c449 597 374 509
1087 1290 43 47 108 119 145 160 37 41 104 108 149 149 45 41 124 113 176 160
52 47 102 93 111 101 9 8 57 51 106 96 49 44 166 150 259 235 94 84 188 171
210 192 40 38 137 112 495 379 107 80 218 163 246 184 27 22 96 73 152 114 56
41 142 104 190 140 48 36 101 72 117 80 17 8 37 20 45 26 15 12 251 156 530
324 80 48 217 131 305 185 208 127 255 155 261 155 5 0 133 61 384 182 96 47
213 103 260 126 47 22 182 87 300 144 118 58 238 113 265 123 62 22 245 91
305 115 25 10 70 25 100 34 30 10 75 26 100 36 54 22 83 33 585 216 83 30 202
69 265 86 135 36 402 104 480 123 30 7 100 25 155 41 55 15 125 32 155 39 30
7 100 25 155 40 55 15 118 31 140 35 22 5 52 13 66 18 34 14 169 38 314 57 66
9 145 20 175 25 116 20 472 75 675 105 61 9 153 23 205 31 52 8 176 19 275 24
99 5 302 16 450 24 149 9 385 20 525 26 140 6 264 13 275 14 11 1 34 1 50 -1
17 -1 131 -7 255 -13z"/>
</g>
</svg>
