<?xml version="1.0" standalone="no"?>
<!DOCTYPE svg PUBLIC "-//W3C//DTD SVG 20010904//EN"
 "http://www.w3.org/TR/2001/REC-SVG-20010904/DTD/svg10.dtd">
<svg version="1.0" xmlns="http://www.w3.org/2000/svg"
 width="3840.000000pt" height="3840.000000pt" viewBox="0 0 3840.000000 3840.000000"
 preserveAspectRatio="xMidYMid meet">
<metadata>
Created by potrace 1.16, written by Peter Selinger 2001-2019
</metadata>
<g transform="translate(0.000000,3840.000000) scale(0.100000,-0.100000)"
fill="#000000" stroke="none">
<path d="M18822 38318 c-6 -6 -40 -12 -74 -14 -35 -1 -110 -12 -168 -24 -58
-11 -127 -24 -155 -27 -27 -3 -55 -9 -61 -14 -6 -5 -39 -15 -75 -23 -87 -20
-211 -58 -290 -90 -36 -14 -72 -26 -79 -26 -7 0 -43 -14 -79 -31 -36 -18 -101
-44 -144 -60 -42 -15 -89 -34 -105 -42 -15 -8 -46 -24 -68 -36 -23 -11 -50
-21 -61 -21 -11 0 -28 -7 -39 -15 -10 -8 -25 -15 -33 -15 -12 0 -120 -47 -163
-71 -10 -5 -25 -9 -34 -9 -9 0 -29 -9 -45 -21 -16 -11 -33 -18 -37 -15 -5 3
-23 -4 -40 -15 -18 -10 -37 -19 -42 -19 -6 0 -50 -18 -98 -41 -48 -22 -114
-49 -146 -60 -33 -11 -91 -36 -130 -55 -39 -19 -78 -34 -86 -34 -8 0 -26 -9
-40 -20 -14 -11 -32 -20 -40 -20 -9 0 -53 -16 -99 -35 -45 -19 -88 -35 -94
-35 -7 0 -23 -9 -37 -20 -14 -11 -34 -20 -45 -20 -11 0 -31 -9 -45 -20 -14
-11 -33 -20 -43 -20 -10 0 -49 -14 -85 -31 -37 -17 -85 -38 -107 -46 -22 -8
-68 -28 -103 -44 -35 -16 -69 -29 -76 -29 -6 0 -21 -7 -32 -15 -10 -8 -31 -15
-46 -15 -16 0 -28 -3 -28 -8 0 -4 -15 -13 -32 -20 -18 -7 -51 -21 -73 -32 -61
-27 -86 -37 -130 -51 -22 -6 -49 -18 -60 -25 -11 -8 -26 -14 -35 -14 -8 0 -26
-9 -40 -20 -14 -11 -33 -20 -43 -20 -10 0 -50 -15 -90 -34 -40 -19 -94 -41
-122 -51 -51 -16 -130 -51 -196 -86 -20 -10 -45 -19 -56 -19 -11 0 -28 -7 -39
-15 -10 -8 -28 -15 -39 -15 -11 0 -31 -9 -45 -20 -14 -11 -31 -20 -38 -20 -7
0 -20 -4 -30 -9 -9 -5 -28 -13 -42 -18 -14 -5 -45 -19 -70 -30 -94 -42 -121
-53 -130 -53 -6 0 -45 -16 -87 -36 -128 -59 -136 -62 -188 -79 -27 -9 -76 -30
-108 -46 -32 -16 -65 -29 -75 -29 -9 0 -28 -9 -42 -20 -14 -11 -32 -20 -41
-20 -16 0 -116 -40 -151 -60 -10 -6 -26 -10 -35 -10 -10 0 -29 -9 -43 -20 -14
-11 -34 -20 -45 -20 -11 0 -31 -9 -45 -20 -14 -11 -32 -20 -41 -20 -14 0 -85
-28 -154 -60 -11 -5 -69 -30 -130 -55 -60 -25 -118 -50 -127 -55 -10 -6 -27
-10 -38 -10 -12 0 -30 -9 -42 -20 -12 -11 -30 -20 -41 -20 -11 0 -36 -8 -56
-19 -34 -18 -57 -28 -118 -52 -16 -6 -41 -17 -56 -25 -16 -8 -36 -14 -45 -14
-9 0 -28 -9 -42 -20 -14 -11 -32 -20 -42 -20 -9 0 -49 -15 -90 -34 -40 -18
-89 -39 -108 -46 -19 -7 -63 -25 -98 -41 -35 -16 -67 -29 -72 -29 -5 0 -24 -9
-42 -20 -18 -11 -41 -20 -50 -20 -9 0 -29 -6 -45 -14 -42 -20 -111 -50 -173
-75 -30 -13 -73 -31 -95 -40 -22 -10 -57 -25 -78 -34 -21 -10 -42 -17 -47 -17
-6 0 -45 -16 -87 -36 -102 -47 -131 -59 -173 -74 -55 -20 -102 -40 -141 -61
-20 -10 -45 -19 -55 -19 -11 0 -30 -9 -44 -20 -14 -11 -34 -20 -45 -20 -11 0
-34 -9 -51 -19 -17 -10 -45 -22 -62 -26 -18 -3 -34 -11 -37 -16 -4 -5 -14 -9
-23 -9 -9 0 -28 -9 -42 -20 -14 -11 -34 -20 -45 -20 -11 0 -35 -9 -53 -20 -18
-11 -40 -20 -48 -20 -9 0 -37 -11 -63 -24 -25 -13 -84 -39 -131 -57 -47 -18
-87 -35 -90 -38 -10 -12 -105 -49 -150 -58 -14 -3 -36 -13 -50 -23 -14 -9 -52
-27 -85 -39 -70 -27 -115 -46 -171 -72 -22 -10 -47 -19 -55 -19 -8 0 -29 -9
-47 -20 -18 -11 -40 -20 -49 -20 -8 0 -39 -13 -67 -29 -28 -16 -82 -39 -121
-50 -38 -12 -87 -33 -107 -46 -21 -14 -47 -25 -58 -25 -11 0 -34 -9 -52 -20
-18 -11 -43 -20 -55 -20 -13 0 -23 -4 -23 -10 0 -5 -5 -10 -11 -10 -5 0 -29
-9 -53 -19 -23 -11 -62 -27 -87 -36 -99 -37 -111 -43 -130 -59 -11 -9 -30 -16
-44 -16 -13 0 -26 -4 -30 -9 -3 -5 -19 -13 -37 -16 -17 -4 -65 -24 -107 -45
-42 -21 -98 -45 -124 -54 -26 -9 -66 -25 -87 -36 -22 -11 -46 -20 -54 -20 -9
0 -30 -9 -48 -20 -18 -11 -43 -20 -55 -20 -13 0 -23 -4 -23 -8 0 -9 -117 -61
-200 -88 -30 -10 -67 -26 -82 -36 -14 -10 -33 -18 -42 -18 -21 0 -66 -21 -66
-32 0 -4 -11 -8 -25 -8 -26 0 -64 -17 -77 -35 -4 -5 -8 -6 -8 -1 0 5 -6 4 -12
-1 -7 -5 -42 -20 -78 -32 -77 -26 -110 -42 -128 -58 -7 -7 -25 -16 -40 -19
-15 -3 -41 -12 -59 -20 -17 -8 -39 -14 -50 -14 -10 0 -29 -9 -43 -20 -14 -11
-30 -20 -36 -20 -5 0 -29 -9 -52 -20 -22 -11 -45 -20 -51 -20 -8 0 -54 -21
-123 -56 -14 -8 -34 -14 -43 -14 -10 0 -34 -9 -54 -19 -20 -11 -48 -22 -63
-25 -15 -3 -33 -12 -40 -19 -15 -15 -141 -67 -163 -67 -15 0 -82 -35 -99 -51
-6 -5 -18 -9 -28 -9 -9 0 -33 -9 -53 -20 -20 -11 -43 -20 -51 -20 -9 0 -28 -8
-42 -18 -15 -10 -54 -26 -87 -37 -33 -11 -76 -27 -95 -36 -19 -9 -50 -22 -67
-30 -18 -8 -33 -17 -33 -21 0 -5 -13 -8 -29 -8 -17 0 -32 -4 -36 -9 -3 -5 -19
-13 -37 -16 -17 -4 -65 -24 -107 -45 -42 -21 -98 -46 -126 -55 -27 -9 -64 -25
-81 -36 -17 -10 -41 -19 -52 -19 -12 0 -36 -9 -54 -20 -18 -11 -43 -20 -55
-20 -12 0 -23 -4 -25 -8 -5 -12 -107 -59 -183 -83 -38 -13 -72 -25 -75 -28
-10 -12 -50 -31 -63 -31 -18 0 -67 -23 -67 -32 0 -5 -12 -8 -26 -8 -14 0 -38
-8 -52 -19 -15 -10 -52 -26 -82 -36 -30 -10 -59 -21 -65 -24 -5 -4 -28 -13
-50 -20 -22 -8 -42 -17 -45 -20 -10 -12 -50 -31 -65 -31 -9 0 -26 -7 -39 -15
-13 -9 -34 -18 -47 -20 -13 -3 -37 -11 -54 -19 -16 -8 -46 -21 -65 -29 -74
-31 -167 -71 -206 -88 -22 -11 -46 -19 -53 -19 -7 0 -25 -6 -39 -14 -15 -8
-39 -17 -54 -20 -15 -3 -33 -12 -40 -19 -18 -18 -73 -42 -135 -60 -29 -9 -72
-27 -96 -41 -24 -14 -52 -26 -63 -26 -10 0 -34 -9 -52 -20 -18 -11 -40 -20
-50 -20 -9 0 -28 -9 -42 -20 -14 -11 -33 -20 -42 -20 -9 0 -19 -4 -22 -9 -3
-5 -23 -12 -43 -16 -21 -4 -42 -10 -48 -14 -5 -4 -26 -14 -45 -21 -19 -7 -47
-22 -62 -32 -14 -10 -37 -18 -50 -18 -12 0 -34 -9 -48 -20 -14 -11 -35 -20
-47 -20 -13 0 -44 -11 -70 -25 -72 -37 -231 -108 -270 -119 -11 -4 -24 -13
-27 -21 -3 -8 -14 -15 -25 -15 -11 0 -21 -3 -23 -7 -1 -5 -21 -17 -43 -29
-148 -77 -188 -101 -230 -141 -8 -7 -21 -13 -29 -13 -9 0 -16 -4 -16 -8 0 -4
-25 -23 -56 -42 -31 -19 -62 -39 -68 -45 -6 -6 -46 -37 -89 -69 -42 -31 -94
-74 -115 -95 -20 -21 -43 -40 -49 -42 -18 -6 -254 -240 -299 -296 -21 -26 -49
-57 -61 -68 -28 -26 -168 -213 -217 -290 -21 -33 -55 -82 -77 -110 -21 -27
-41 -62 -45 -78 -3 -15 -14 -33 -25 -40 -10 -6 -19 -18 -19 -26 0 -16 -41 -94
-52 -99 -5 -2 -8 -8 -8 -13 0 -6 -11 -27 -25 -47 -14 -20 -25 -44 -25 -52 0
-21 -23 -70 -32 -70 -5 0 -8 -7 -8 -15 0 -15 -19 -55 -31 -65 -8 -8 -66 -165
-79 -216 -4 -18 -15 -46 -24 -64 -9 -18 -16 -40 -16 -49 -1 -9 -8 -34 -16 -56
-37 -100 -92 -349 -121 -555 -11 -81 -6 -1583 6 -1870 40 -909 50 -1099 71
-1350 6 -63 14 -173 20 -245 6 -71 15 -177 21 -235 6 -58 14 -150 19 -205 5
-55 14 -143 19 -195 19 -172 29 -273 45 -453 9 -99 19 -184 22 -189 4 -6 8
-38 10 -72 10 -152 16 -212 25 -220 5 -6 9 -38 9 -72 0 -35 5 -66 10 -69 5 -3
10 -41 10 -84 0 -44 5 -82 11 -88 6 -6 13 -35 14 -65 3 -72 24 -235 35 -278 6
-19 10 -62 10 -95 0 -34 7 -73 15 -89 8 -15 15 -42 15 -60 0 -62 22 -232 36
-271 8 -23 14 -56 15 -75 0 -19 7 -69 15 -110 8 -41 19 -113 25 -160 6 -47 14
-94 19 -105 5 -11 11 -45 14 -75 6 -64 19 -136 41 -235 8 -38 15 -84 15 -102
0 -17 5 -35 10 -38 6 -3 10 -26 10 -51 0 -25 6 -57 14 -72 12 -24 25 -111 31
-198 1 -16 6 -37 10 -45 5 -8 12 -36 16 -64 11 -79 40 -214 60 -283 11 -34 19
-79 19 -100 1 -20 7 -48 15 -62 8 -14 15 -43 15 -65 0 -22 8 -67 16 -100 9
-33 19 -82 24 -110 4 -27 15 -70 24 -95 9 -25 16 -62 16 -83 0 -21 9 -55 20
-77 11 -22 20 -57 20 -78 0 -22 7 -53 15 -68 8 -16 15 -48 15 -70 0 -23 7 -59
16 -80 9 -20 20 -58 24 -83 5 -25 16 -73 25 -106 37 -141 55 -215 71 -285 9
-41 25 -102 35 -134 11 -33 19 -69 19 -80 0 -12 9 -48 20 -80 11 -33 20 -70
20 -83 0 -13 9 -41 20 -63 11 -22 20 -56 20 -76 0 -20 6 -48 14 -62 14 -26 38
-112 55 -197 4 -22 15 -58 24 -80 8 -22 18 -53 21 -70 3 -16 15 -61 26 -100
11 -38 29 -103 40 -143 11 -40 24 -80 29 -90 5 -9 19 -55 31 -102 12 -47 28
-98 36 -113 8 -16 14 -42 14 -58 0 -16 8 -48 18 -72 10 -23 29 -76 41 -117 12
-41 29 -95 38 -120 8 -25 19 -58 24 -75 23 -83 43 -142 89 -275 28 -80 58
-167 66 -195 8 -27 19 -63 24 -80 5 -16 32 -95 60 -175 29 -80 56 -161 61
-180 4 -19 18 -60 30 -90 11 -30 30 -80 41 -110 11 -30 23 -64 27 -75 22 -56
34 -93 38 -120 3 -16 14 -42 24 -57 11 -14 19 -36 19 -48 0 -11 8 -35 17 -53
17 -33 26 -55 82 -212 17 -49 36 -94 41 -99 6 -6 10 -21 10 -35 0 -15 9 -41
20 -59 11 -18 20 -39 20 -48 0 -8 6 -25 14 -37 8 -12 27 -58 42 -102 15 -44
42 -113 60 -154 19 -40 34 -80 34 -88 0 -8 8 -27 18 -41 10 -15 26 -54 37 -87
23 -74 66 -176 117 -276 9 -20 15 -39 12 -42 -3 -3 13 -45 36 -94 23 -48 45
-97 49 -108 5 -11 20 -45 34 -76 15 -31 27 -65 27 -75 0 -10 9 -30 20 -44 11
-14 20 -32 20 -41 0 -9 9 -28 20 -42 11 -14 20 -32 20 -41 0 -9 16 -46 35 -83
19 -37 35 -76 35 -86 0 -10 9 -30 20 -44 11 -14 20 -33 20 -42 0 -9 9 -27 20
-41 11 -14 20 -35 20 -47 0 -13 3 -23 8 -23 4 0 13 -15 20 -33 7 -17 19 -45
27 -60 8 -16 15 -35 15 -43 0 -8 3 -14 8 -14 9 0 32 -49 32 -71 0 -9 9 -28 20
-42 11 -14 20 -31 20 -37 0 -7 9 -25 21 -42 12 -16 18 -32 15 -35 -3 -3 -2
-11 3 -17 19 -23 71 -129 71 -145 0 -9 9 -27 20 -41 11 -14 20 -29 20 -33 0
-14 94 -202 102 -205 4 -2 8 -11 8 -20 0 -10 9 -28 20 -42 11 -14 20 -29 20
-35 0 -14 93 -199 102 -203 5 -2 8 -11 8 -20 0 -10 9 -28 20 -42 11 -14 20
-30 20 -37 0 -15 93 -197 103 -201 4 -2 7 -11 7 -20 0 -9 9 -28 20 -42 11 -14
20 -31 20 -38 0 -16 52 -112 60 -112 3 0 12 -16 20 -35 8 -19 17 -35 22 -35 4
0 8 -7 8 -16 0 -9 9 -29 21 -45 11 -16 17 -29 14 -29 -4 0 2 -16 14 -36 12
-19 21 -42 21 -50 0 -8 5 -14 10 -14 6 0 10 -6 10 -13 0 -8 9 -22 20 -32 11
-10 20 -24 20 -32 0 -7 3 -13 8 -13 9 0 42 -74 42 -94 0 -8 3 -16 8 -18 9 -4
60 -88 92 -153 14 -27 28 -52 31 -55 3 -3 14 -23 25 -45 10 -22 20 -42 23 -45
4 -3 13 -18 21 -35 8 -16 22 -41 31 -55 9 -14 34 -56 54 -95 21 -38 41 -72 44
-75 6 -5 28 -45 85 -155 18 -33 51 -88 74 -122 23 -34 42 -65 42 -68 0 -3 16
-31 35 -61 19 -30 35 -61 35 -68 0 -8 6 -16 14 -19 8 -3 23 -23 32 -44 10 -21
24 -43 30 -50 7 -7 22 -33 34 -58 12 -25 26 -45 31 -45 5 0 9 -7 9 -16 0 -8
17 -41 39 -72 21 -31 41 -67 45 -79 4 -13 12 -23 17 -23 5 0 9 -6 9 -13 0 -7
9 -23 20 -35 11 -12 20 -26 20 -32 0 -5 5 -10 10 -10 6 0 10 -5 10 -10 0 -6
12 -29 27 -53 15 -23 36 -60 47 -82 11 -22 28 -47 38 -56 10 -9 18 -22 18 -28
0 -7 9 -21 20 -33 10 -11 26 -36 36 -56 14 -30 30 -53 97 -143 13 -16 17 -24
62 -104 33 -60 66 -109 77 -113 4 -2 8 -9 8 -16 0 -7 8 -21 18 -32 22 -24 92
-131 92 -142 0 -4 9 -14 20 -22 11 -8 20 -22 20 -32 0 -10 4 -18 8 -18 5 0 17
-16 28 -35 10 -19 22 -35 26 -35 5 0 8 -5 8 -11 0 -10 57 -99 70 -109 4 -3 28
-36 52 -75 25 -38 55 -80 67 -92 11 -12 21 -25 21 -28 0 -4 20 -35 45 -69 25
-35 45 -67 45 -70 0 -4 9 -16 20 -28 11 -12 20 -28 20 -35 0 -7 4 -13 10 -13
5 0 30 -32 56 -70 25 -39 58 -84 73 -99 42 -46 51 -59 51 -75 0 -8 3 -16 8
-18 12 -5 102 -127 102 -138 0 -6 4 -10 8 -10 5 0 17 -16 28 -35 10 -19 22
-35 26 -35 3 0 9 -8 12 -18 3 -10 21 -34 40 -53 18 -20 42 -51 52 -70 10 -19
33 -50 49 -70 36 -43 43 -52 120 -154 33 -44 65 -85 71 -92 6 -6 35 -46 65
-88 30 -43 75 -102 102 -131 26 -30 47 -58 47 -63 0 -5 19 -29 43 -53 23 -24
49 -54 57 -67 14 -23 59 -80 70 -91 3 -3 17 -21 31 -40 15 -19 36 -46 48 -59
11 -13 21 -27 21 -31 0 -4 18 -27 41 -50 23 -23 71 -81 107 -129 36 -47 78
-97 94 -110 15 -13 28 -29 28 -35 0 -7 16 -29 35 -49 19 -20 35 -40 35 -44 0
-4 17 -23 38 -43 20 -19 55 -57 77 -85 22 -27 55 -65 73 -85 17 -19 32 -38 32
-42 0 -5 18 -27 40 -49 22 -22 40 -43 40 -46 0 -7 10 -19 90 -99 33 -34 60
-66 60 -72 0 -6 34 -45 75 -87 41 -42 75 -80 75 -84 0 -5 32 -41 70 -80 39
-40 70 -75 70 -79 0 -4 43 -51 95 -106 52 -54 95 -104 95 -110 0 -6 19 -27 42
-46 50 -43 91 -84 143 -146 22 -26 120 -128 218 -227 97 -98 177 -183 177
-188 0 -11 586 -597 619 -619 13 -8 102 -94 200 -190 97 -96 189 -184 205
-195 30 -21 76 -65 112 -106 11 -13 47 -46 79 -74 32 -27 90 -80 129 -117 39
-37 85 -77 101 -90 17 -12 53 -45 80 -72 28 -27 66 -60 85 -75 19 -14 53 -44
75 -66 22 -22 56 -51 75 -65 19 -13 58 -48 86 -77 29 -29 57 -53 64 -53 7 0
21 -11 31 -24 11 -14 36 -35 57 -47 20 -13 57 -44 82 -69 25 -25 57 -54 72
-63 15 -9 44 -32 65 -51 112 -102 129 -116 136 -116 4 0 26 -18 48 -40 22 -22
45 -40 51 -40 5 0 25 -16 44 -35 18 -19 38 -35 44 -35 5 0 15 -9 22 -20 7 -11
16 -20 20 -20 5 0 22 -14 40 -30 17 -17 35 -30 39 -30 4 0 19 -11 33 -25 14
-14 30 -25 35 -25 6 0 23 -13 38 -29 16 -16 60 -50 98 -76 39 -27 76 -56 82
-66 7 -9 43 -39 80 -65 38 -27 77 -56 87 -66 11 -10 24 -18 29 -18 6 0 23 -13
39 -30 15 -16 32 -30 37 -30 5 0 16 -6 23 -13 7 -7 29 -24 48 -37 19 -13 37
-27 40 -30 3 -3 37 -28 75 -55 39 -27 72 -53 73 -57 2 -5 8 -8 14 -8 6 0 18
-8 27 -18 21 -24 111 -85 111 -76 0 4 14 -7 31 -24 17 -18 36 -32 41 -32 10 0
31 -16 56 -43 9 -9 22 -17 28 -17 7 0 14 -7 18 -15 3 -8 14 -15 23 -15 10 0
25 -9 33 -20 8 -11 21 -20 30 -20 9 0 22 -9 30 -20 8 -11 18 -20 23 -20 4 0
17 -9 29 -20 12 -11 28 -20 35 -20 7 0 13 -4 13 -9 0 -5 14 -14 30 -20 17 -5
33 -17 36 -26 3 -8 13 -15 21 -15 7 0 25 -11 38 -24 13 -14 34 -27 45 -31 11
-3 20 -10 20 -15 0 -4 11 -11 25 -14 14 -4 25 -11 25 -16 0 -6 8 -10 18 -10
10 0 24 -9 32 -20 8 -11 21 -20 30 -20 8 0 21 -9 28 -20 7 -11 17 -20 23 -20
5 0 19 -9 31 -20 12 -10 24 -17 28 -15 4 3 15 -4 25 -15 10 -11 22 -20 27 -20
5 0 18 -9 30 -20 12 -11 28 -20 35 -20 7 0 13 -4 13 -10 0 -5 9 -10 19 -10 11
0 21 -3 23 -8 2 -4 31 -25 65 -47 35 -22 63 -43 63 -47 0 -5 9 -8 20 -8 11 0
20 -4 20 -10 0 -5 7 -10 15 -10 8 0 20 -9 27 -20 7 -11 20 -20 29 -20 8 0 19
-3 23 -7 4 -5 11 -8 14 -9 13 -1 72 -39 72 -46 0 -5 9 -8 20 -8 11 0 20 -4 20
-8 0 -5 20 -19 45 -32 25 -13 50 -29 56 -37 6 -7 20 -13 30 -13 11 0 19 -4 19
-10 0 -5 7 -10 15 -10 8 0 20 -9 27 -20 7 -11 19 -20 26 -20 12 0 52 -20 62
-31 3 -3 25 -16 50 -28 25 -12 74 -40 110 -62 36 -22 73 -42 83 -45 9 -4 17
-10 17 -15 0 -5 9 -9 20 -9 11 0 20 -4 20 -10 0 -5 6 -10 14 -10 8 0 21 -6 28
-12 21 -20 56 -38 73 -38 8 0 15 -3 15 -7 0 -5 25 -19 55 -33 30 -14 55 -28
55 -32 0 -5 7 -8 15 -8 9 0 32 -10 53 -23 20 -13 52 -30 70 -38 17 -8 32 -17
32 -21 0 -5 9 -8 20 -8 11 0 20 -4 20 -8 0 -5 16 -14 35 -22 19 -8 35 -17 35
-22 0 -4 9 -8 20 -8 11 0 20 -5 20 -11 0 -5 4 -8 9 -5 10 6 94 -33 99 -46 2
-5 12 -8 23 -8 10 0 19 -4 19 -10 0 -5 9 -10 20 -10 11 0 35 -9 53 -19 45 -25
65 -35 107 -53 19 -8 55 -25 78 -37 24 -11 50 -21 58 -21 8 0 14 -4 14 -8 0
-5 18 -15 40 -22 22 -7 40 -17 40 -22 0 -4 9 -8 19 -8 11 0 22 -4 26 -10 3 -5
12 -7 19 -4 8 3 17 1 21 -5 3 -6 15 -11 26 -11 10 0 19 -4 19 -10 0 -5 9 -10
20 -10 24 0 70 -21 70 -32 0 -4 7 -8 15 -8 8 0 34 -8 58 -19 23 -10 58 -24 77
-31 19 -7 60 -23 90 -35 30 -13 74 -28 98 -35 23 -7 42 -17 42 -22 0 -4 10 -8
23 -8 13 0 27 -4 32 -8 6 -4 26 -13 45 -19 82 -25 277 -87 295 -93 31 -12 76
-26 125 -41 25 -7 49 -16 55 -21 5 -4 23 -8 41 -8 17 0 54 -6 80 -14 27 -8 75
-20 107 -27 32 -7 60 -16 63 -21 3 -4 30 -8 60 -8 31 0 64 -6 77 -15 12 -8 58
-19 102 -24 44 -6 114 -16 155 -23 92 -16 653 -16 750 0 161 27 191 32 231 43
24 6 67 13 94 16 28 2 66 12 85 20 19 9 58 18 85 21 28 3 59 11 70 18 11 8 31
14 44 14 23 0 68 12 116 31 11 4 31 10 45 14 93 23 141 37 180 54 54 23 150
51 173 51 10 0 17 3 17 8 0 9 49 32 67 32 13 0 24 5 70 28 13 7 34 12 48 12
14 0 25 3 25 8 0 9 49 32 69 32 9 0 29 7 45 15 15 8 34 15 40 15 18 0 66 24
66 33 0 4 9 7 20 7 11 0 35 9 55 20 20 11 44 20 55 20 11 0 20 5 20 10 0 6 9
10 20 10 11 0 20 5 20 10 0 6 6 10 13 9 19 -2 57 12 57 22 0 5 12 9 26 9 14 0
37 9 51 20 14 11 33 20 43 20 9 0 25 9 35 20 10 11 30 20 44 20 14 0 35 7 45
15 11 8 28 15 38 15 10 0 18 5 18 10 0 6 9 10 20 10 11 0 20 5 20 10 0 6 9 10
20 10 11 0 20 5 20 10 0 6 7 10 15 10 8 0 15 5 15 10 0 6 6 10 13 10 18 0 67
24 67 33 0 4 9 7 19 7 11 0 23 5 26 10 4 6 11 8 16 5 5 -4 9 -1 9 4 0 6 6 11
13 11 18 0 67 24 67 33 0 4 9 7 20 7 11 0 20 5 20 10 0 6 7 10 15 10 8 0 15 5
15 10 0 6 7 10 15 10 15 0 56 19 65 31 3 4 20 10 38 14 17 3 32 11 32 16 0 5
9 9 20 9 11 0 20 5 20 10 0 6 9 10 20 10 11 0 20 5 20 10 0 6 9 10 20 10 11 0
20 5 20 10 0 6 6 10 14 10 8 0 16 3 18 8 5 12 67 52 81 52 7 0 22 7 33 15 10
8 25 15 32 15 11 0 69 36 82 51 3 3 20 12 38 20 17 8 32 17 32 20 0 8 40 22
57 20 7 -1 18 7 25 19 7 11 21 20 30 20 10 0 18 5 18 10 0 6 9 10 20 10 11 0
20 4 20 8 0 8 28 25 118 73 18 9 40 23 48 29 20 17 75 49 97 56 9 4 17 10 17
14 0 4 20 16 45 27 25 10 45 21 45 26 0 4 8 7 18 7 10 0 24 9 32 20 8 11 19
20 26 20 6 0 19 9 29 20 10 11 22 20 27 20 4 0 47 25 93 55 47 30 91 55 98 55
7 0 19 9 27 20 8 11 18 20 22 20 11 0 92 53 96 63 2 4 11 7 21 7 9 0 23 9 31
20 8 11 20 20 27 20 7 0 13 5 13 10 0 6 9 10 19 10 11 0 21 4 23 8 2 5 30 26
63 47 33 22 62 42 65 45 3 3 25 18 50 32 25 15 54 35 65 45 11 10 32 24 48 32
15 8 27 18 27 23 0 4 8 8 18 8 9 0 23 9 30 20 7 11 17 20 23 20 7 0 19 8 28
17 9 10 33 27 54 37 21 11 50 31 65 45 15 15 47 38 72 53 25 14 54 35 65 45
11 10 32 24 48 32 15 8 27 18 27 23 0 4 9 8 19 8 11 0 23 9 26 20 3 11 11 20
16 20 11 0 82 51 87 63 2 4 9 7 16 7 6 0 18 9 26 20 8 11 20 20 27 20 7 0 27
13 45 30 17 16 34 30 38 30 4 0 20 11 36 25 16 14 32 25 36 25 4 0 21 14 36
30 16 17 34 30 39 30 6 0 22 11 37 25 15 14 32 25 37 25 6 0 28 18 49 40 21
22 42 40 47 40 5 0 15 9 23 20 8 11 18 20 23 20 9 0 121 84 147 110 8 8 33 28
55 45 22 16 42 32 45 35 3 3 21 17 40 30 19 13 37 27 40 30 3 3 28 23 55 45
28 21 52 42 55 45 3 3 46 37 95 75 50 38 101 80 115 94 14 15 43 39 65 56 22
16 47 37 56 47 9 10 19 18 23 18 3 0 18 13 33 28 16 16 46 41 68 58 22 16 53
44 69 62 17 18 43 40 59 48 16 9 47 35 70 58 23 23 58 53 77 67 19 13 58 47
87 76 29 29 56 53 62 53 5 0 43 34 84 75 42 41 80 75 85 75 5 0 47 37 93 83
46 45 102 95 124 111 22 17 47 38 55 49 8 10 30 33 47 51 18 17 52 50 75 74
22 23 46 42 52 42 6 0 103 92 215 205 112 113 207 205 213 205 10 0 468 455
468 465 0 9 36 47 240 253 96 97 198 204 225 236 28 33 65 74 84 90 53 49 94
92 116 122 11 15 49 57 84 93 35 36 80 86 100 111 20 25 58 67 85 95 27 27 60
66 74 85 15 19 44 53 67 75 22 22 51 56 65 75 13 19 48 58 77 87 29 29 53 56
53 60 0 4 13 22 28 38 15 17 45 52 66 78 22 27 59 68 83 92 24 24 43 50 43 57
0 7 21 34 48 59 26 25 52 52 57 60 6 8 28 35 50 60 22 25 54 63 70 84 26 35
91 111 105 125 3 3 13 17 22 31 15 24 72 94 116 144 9 11 49 61 87 110 38 50
76 96 83 104 8 8 32 39 55 70 23 31 55 72 72 92 52 62 64 78 90 119 14 22 30
40 35 40 6 0 10 6 10 13 0 6 18 31 40 55 22 23 40 46 40 50 0 5 8 18 18 30 9
11 24 30 32 42 18 26 47 63 77 99 13 14 23 31 23 37 0 7 7 14 15 18 8 3 15 11
15 18 0 7 9 19 20 26 11 7 20 19 20 27 0 8 9 20 20 27 11 7 20 18 20 25 0 7 6
16 13 20 6 4 19 21 27 37 8 16 27 42 43 59 15 16 27 35 27 42 0 7 3 15 8 17
12 5 102 127 102 138 0 6 5 10 10 10 6 0 10 6 10 13 0 7 13 26 30 42 16 16 30
33 30 37 0 5 11 21 25 36 14 15 25 32 25 39 0 7 4 13 8 13 4 0 15 12 24 28 9
15 28 41 42 57 14 17 29 38 32 48 3 9 10 17 15 17 5 0 9 9 9 20 0 11 4 20 8
20 5 0 15 12 23 28 8 15 17 29 20 32 10 8 117 161 170 240 27 41 75 113 106
160 32 47 64 96 71 109 7 13 34 54 61 90 51 69 121 178 121 187 0 2 8 14 18
25 11 10 25 32 33 47 21 41 62 105 81 126 10 11 24 32 30 48 7 15 16 28 20 28
5 0 8 4 8 10 0 5 16 34 35 64 19 30 35 60 35 66 0 5 5 10 10 10 6 0 10 6 10
13 0 7 9 23 20 35 11 12 20 25 20 30 0 5 7 15 15 22 9 7 27 36 40 64 13 28 36
63 50 78 14 15 25 34 25 43 0 8 5 15 10 15 6 0 10 7 10 16 0 9 8 24 19 33 10
9 22 27 26 41 4 14 21 44 36 67 16 23 29 44 29 48 0 3 9 15 20 27 11 12 20 30
20 39 0 10 5 21 10 24 17 10 60 83 60 100 0 8 4 15 8 15 5 0 16 15 25 32 9 18
28 51 41 73 14 22 33 56 43 75 9 19 19 37 22 40 4 3 17 25 30 50 13 25 36 63
51 85 15 22 40 67 56 100 16 33 37 69 47 79 9 11 17 26 17 33 0 7 5 13 10 13
6 0 10 9 10 19 0 11 3 21 8 23 4 2 16 21 27 43 11 22 22 42 25 45 3 3 16 28
30 55 14 28 27 52 30 55 8 8 31 49 58 105 46 95 62 123 83 150 9 11 22 35 30
53 8 17 17 32 22 32 4 0 7 6 6 13 -2 19 12 57 22 57 5 0 9 9 9 20 0 11 3 20 8
20 8 0 32 48 32 66 0 6 7 14 15 17 13 6 25 29 66 125 8 17 17 32 21 32 5 0 8
8 8 18 0 9 9 28 20 42 11 14 20 31 20 38 0 8 8 26 18 40 17 25 30 51 63 129 8
18 17 33 21 33 5 0 8 8 8 18 0 9 9 28 20 42 11 14 20 33 20 43 0 9 3 17 8 17
6 0 41 67 47 90 6 23 41 90 47 90 5 0 8 7 8 16 0 9 8 28 18 42 10 15 31 54 46
87 29 62 55 116 73 150 6 11 18 36 26 55 8 19 24 56 36 82 12 26 21 51 21 55
0 4 9 19 20 33 11 14 20 32 20 40 0 8 9 26 20 40 11 14 20 32 20 41 0 20 23
69 33 69 4 0 7 8 7 18 0 10 7 27 15 38 8 10 15 26 15 34 0 8 9 26 20 40 11 14
20 33 20 43 0 20 60 140 73 145 4 2 7 16 7 30 0 15 7 36 15 46 8 11 15 27 15
35 0 9 9 27 20 41 11 14 20 34 20 45 0 11 9 31 20 45 11 14 20 33 20 43 0 9 4
17 8 17 4 0 14 17 21 38 16 47 39 106 61 157 10 22 28 63 40 90 13 28 31 67
42 88 11 21 18 44 15 51 -3 7 4 23 14 37 10 13 19 31 19 39 0 8 9 30 20 48 11
18 20 39 20 47 0 7 9 29 19 47 11 18 28 60 39 93 11 33 36 95 56 138 20 42 36
81 36 87 0 5 16 51 36 102 43 109 47 119 69 177 9 24 23 54 31 65 8 11 14 29
14 39 0 10 9 36 19 58 11 22 23 53 26 69 4 17 11 32 16 35 5 4 9 18 9 33 0 15
9 38 20 52 11 14 20 35 20 47 0 11 8 38 19 60 10 21 24 56 30 78 7 22 16 49
20 60 10 24 33 86 51 135 6 19 23 64 37 100 14 36 27 74 30 85 2 11 9 29 14
40 5 11 22 63 38 115 16 52 37 113 46 135 26 59 32 76 46 120 6 22 18 52 25
67 8 14 14 34 14 45 0 21 23 89 33 99 4 4 7 18 7 30 0 13 9 38 20 56 11 18 20
43 20 56 0 23 32 130 57 189 7 17 13 38 13 47 0 9 4 24 10 34 9 17 70 212 70
225 0 4 9 26 19 50 10 23 24 67 30 97 7 30 14 66 17 80 3 14 14 44 25 67 10
24 19 55 19 71 0 15 8 39 17 52 9 13 20 45 24 70 3 25 13 65 22 90 18 53 35
119 46 175 4 22 15 55 24 74 9 19 17 46 17 60 0 14 9 44 19 66 11 22 24 63 29
90 10 55 87 350 134 515 16 58 33 125 38 150 5 25 16 72 24 105 28 105 104
428 116 490 6 33 20 90 31 126 10 36 19 77 19 92 0 14 9 49 20 77 11 28 20 64
20 81 0 17 7 51 15 77 17 51 43 194 52 281 3 30 12 65 20 78 8 12 19 49 23 80
5 32 14 81 20 108 6 28 15 75 20 105 5 30 21 116 35 190 15 74 29 155 31 180
3 25 11 59 18 75 8 17 16 62 20 100 3 39 15 106 26 150 11 43 20 94 20 114 0
20 5 52 10 71 6 19 15 73 20 120 5 47 16 117 24 155 8 39 20 106 27 150 7 44
18 118 26 165 8 47 18 112 23 145 17 119 41 302 51 380 6 44 14 109 19 145 5
36 14 101 20 145 5 44 15 112 20 150 18 116 31 236 35 303 1 35 8 69 14 75 6
6 11 40 11 77 0 36 5 106 10 155 6 50 15 137 21 195 6 58 15 146 20 195 24
221 64 672 79 885 5 69 11 157 15 195 3 39 10 174 16 300 6 127 15 311 20 410
25 499 31 764 32 1490 0 534 -3 814 -10 865 -31 206 -82 442 -114 524 -10 27
-19 55 -19 63 0 8 -7 28 -16 45 -9 16 -22 55 -30 86 -15 58 -26 87 -76 192
-16 36 -39 85 -50 110 -11 25 -26 57 -34 72 -8 14 -14 31 -14 37 0 10 -34 65
-50 81 -3 3 -23 39 -44 80 -22 41 -44 84 -50 95 -6 11 -24 38 -41 60 -40 54
-37 50 -97 137 -107 156 -187 248 -392 454 -208 208 -306 290 -521 434 -44 29
-81 57 -83 62 -2 4 -10 8 -17 8 -7 0 -15 3 -17 8 -1 4 -21 16 -43 27 -22 10
-59 32 -82 47 -23 15 -46 28 -52 28 -6 0 -11 5 -11 10 0 6 -8 10 -17 10 -10 0
-29 9 -43 20 -14 11 -29 20 -34 20 -14 0 -121 53 -124 62 -2 4 -14 8 -27 8
-13 0 -43 10 -67 21 -23 12 -52 25 -63 29 -11 5 -45 20 -76 34 -31 14 -62 26
-69 26 -8 0 -50 18 -94 39 -127 61 -152 71 -179 71 -14 0 -27 4 -29 8 -4 10
-135 72 -151 72 -11 0 -38 12 -130 56 -16 8 -35 14 -43 14 -7 0 -28 8 -46 18
-18 9 -51 24 -73 31 -22 8 -42 17 -45 20 -9 10 -100 51 -115 51 -8 0 -31 7
-52 16 -53 24 -165 74 -185 85 -10 5 -27 9 -38 9 -11 0 -20 4 -20 9 0 5 -15
12 -32 16 -18 4 -48 16 -66 26 -18 10 -41 19 -50 19 -9 0 -28 9 -42 20 -14 11
-32 20 -41 20 -20 0 -69 23 -69 33 0 4 -10 7 -22 7 -13 1 -34 7 -48 15 -14 8
-35 14 -47 15 -13 0 -23 5 -23 10 0 6 -9 10 -20 10 -11 0 -20 5 -20 10 0 6 -8
10 -17 10 -10 0 -33 9 -51 20 -18 11 -38 20 -45 20 -6 0 -30 9 -52 19 -34 17
-53 25 -85 36 -26 9 -48 18 -62 26 -10 5 -25 9 -33 9 -8 0 -15 5 -15 10 0 6
-11 10 -25 10 -14 0 -25 3 -25 8 0 4 -15 13 -32 20 -18 8 -53 22 -78 32 -25
10 -63 25 -85 33 -84 32 -105 42 -105 49 0 5 -10 8 -23 8 -26 0 -77 21 -77 33
0 4 -9 7 -20 7 -21 0 -60 18 -71 33 -3 4 -10 7 -15 5 -12 -4 -67 18 -224 90
-102 46 -119 52 -143 52 -14 0 -27 4 -29 8 -4 11 -136 72 -156 72 -9 0 -28 9
-42 20 -14 11 -30 20 -36 20 -7 0 -25 7 -40 15 -16 8 -36 15 -46 15 -9 0 -33
9 -55 19 -112 56 -215 101 -231 101 -10 0 -27 7 -38 15 -10 8 -28 15 -39 15
-11 0 -31 9 -45 20 -14 11 -35 20 -47 20 -13 0 -23 5 -23 10 0 6 -9 10 -20 10
-11 0 -20 5 -20 10 0 6 -13 10 -30 10 -16 0 -30 3 -30 8 0 4 -15 13 -32 20
-18 7 -48 20 -66 28 -18 8 -39 14 -47 14 -8 0 -29 9 -47 20 -18 11 -40 20 -48
20 -8 0 -26 9 -40 20 -14 11 -32 20 -41 20 -9 0 -31 8 -50 17 -19 10 -38 18
-44 18 -26 2 -65 18 -65 26 0 5 -7 9 -15 9 -8 0 -30 9 -50 20 -20 11 -41 20
-48 20 -7 0 -30 9 -52 19 -63 31 -112 51 -124 51 -6 0 -26 9 -46 20 -20 11
-44 20 -55 20 -11 0 -20 3 -20 8 0 4 -15 13 -32 20 -18 7 -51 22 -73 32 -22
11 -50 20 -62 20 -13 0 -23 4 -23 10 0 5 -12 12 -27 16 -41 9 -83 28 -83 36 0
5 -12 8 -27 8 -16 0 -39 9 -53 20 -14 11 -35 20 -47 20 -13 0 -23 5 -23 10 0
6 -9 10 -20 10 -11 0 -20 5 -20 10 0 6 -8 10 -17 10 -10 0 -31 7 -47 15 -15 8
-35 15 -43 15 -8 0 -31 9 -51 19 -20 11 -59 29 -87 41 -27 12 -67 31 -88 41
-22 11 -46 19 -54 19 -8 0 -27 6 -41 14 -60 30 -124 56 -140 56 -9 0 -28 9
-42 20 -14 11 -30 20 -36 20 -16 0 -64 24 -64 32 0 4 -7 5 -15 2 -16 -6 -75
16 -75 28 0 5 -9 8 -20 8 -18 0 -57 17 -70 30 -5 5 -47 22 -105 42 -58 21
-161 65 -207 89 -10 5 -25 9 -33 9 -8 0 -15 5 -15 10 0 6 -13 10 -30 10 -16 0
-30 3 -30 8 0 4 -15 13 -32 20 -18 8 -45 20 -60 28 -14 8 -37 14 -50 14 -12 0
-34 9 -48 20 -14 11 -34 20 -46 20 -11 0 -30 9 -42 20 -12 11 -30 20 -41 20
-11 0 -36 9 -55 19 -19 11 -51 23 -70 27 -20 3 -36 10 -36 15 0 5 -7 9 -15 9
-8 0 -29 9 -47 20 -18 11 -40 20 -48 20 -8 0 -33 9 -55 19 -41 20 -84 38 -145
61 -19 7 -39 17 -44 22 -6 4 -20 8 -33 8 -13 0 -23 3 -23 8 0 4 -15 13 -32 20
-18 7 -50 22 -70 32 -20 11 -45 20 -55 20 -10 0 -27 7 -37 15 -11 8 -27 15
-36 15 -21 0 -70 23 -70 33 0 4 -13 7 -30 7 -16 0 -30 3 -30 8 0 8 -48 32 -65
32 -17 0 -65 24 -65 33 0 4 -8 7 -17 7 -10 0 -31 7 -47 15 -15 8 -33 15 -40
15 -6 0 -29 9 -51 19 -49 23 -119 55 -162 73 -18 7 -33 16 -33 20 0 5 -12 8
-26 8 -14 0 -38 6 -52 13 -85 43 -119 57 -138 57 -11 0 -29 9 -39 20 -10 11
-26 20 -37 20 -19 0 -59 19 -69 33 -3 5 -15 8 -25 7 -25 -3 -64 10 -64 21 0 5
-8 9 -18 9 -22 0 -72 22 -72 33 0 4 -8 7 -17 7 -10 0 -33 9 -51 20 -18 11 -41
20 -51 20 -11 0 -32 6 -48 14 -92 46 -117 56 -134 56 -10 0 -19 5 -19 10 0 6
-9 10 -20 10 -11 0 -20 5 -20 10 0 6 -9 10 -20 10 -12 0 -33 8 -47 17 -30 20
-119 53 -143 53 -8 0 -26 9 -40 20 -14 11 -35 20 -47 20 -13 0 -23 5 -23 10 0
6 -7 10 -15 10 -8 0 -15 5 -15 10 0 6 -11 10 -25 10 -13 0 -40 9 -59 19 -19
11 -51 23 -70 27 -20 3 -36 10 -36 15 0 5 -7 9 -15 9 -8 0 -29 9 -47 20 -18
11 -42 20 -53 20 -11 0 -31 9 -45 20 -14 11 -33 20 -43 20 -11 0 -31 8 -45 19
-15 10 -44 21 -64 25 -21 4 -38 11 -38 16 0 6 -13 10 -30 10 -16 0 -30 3 -30
8 0 4 -15 13 -32 20 -18 8 -49 22 -69 33 -20 10 -46 19 -58 19 -12 0 -31 9
-43 20 -12 10 -25 17 -30 14 -10 -7 -68 18 -68 28 0 5 -9 8 -20 8 -11 0 -35 9
-55 20 -20 11 -44 20 -55 20 -11 0 -20 5 -20 10 0 6 -9 10 -20 10 -11 0 -20 4
-20 9 0 5 -10 11 -22 14 -36 8 -90 28 -129 48 -20 11 -44 19 -53 19 -9 0 -16
5 -16 10 0 6 -7 10 -15 10 -8 0 -23 4 -33 9 -9 5 -32 16 -49 23 -18 7 -33 16
-33 20 0 5 -13 8 -30 8 -16 0 -30 4 -30 10 0 5 -3 9 -7 8 -11 -2 -91 29 -188
73 -22 10 -55 24 -72 31 -18 7 -33 16 -33 19 0 4 -19 9 -42 12 -24 3 -44 11
-46 16 -2 6 -11 11 -21 11 -22 0 -71 23 -71 33 0 4 -7 7 -15 7 -15 0 -79 27
-146 61 -20 11 -42 19 -49 19 -12 0 -66 22 -102 41 -10 5 -25 9 -33 9 -8 0
-15 5 -15 10 0 6 -11 10 -25 10 -14 0 -25 3 -25 8 0 9 -49 32 -69 32 -9 0 -25
7 -35 15 -11 8 -31 15 -45 15 -14 0 -37 9 -51 20 -14 11 -30 20 -36 20 -16 0
-64 24 -64 33 0 4 -10 7 -23 7 -26 0 -77 21 -77 33 0 4 -9 7 -20 7 -11 0 -28
4 -38 9 -42 23 -136 61 -151 61 -9 0 -27 9 -41 20 -14 11 -30 20 -37 20 -7 0
-28 9 -48 20 -20 11 -44 20 -55 20 -11 0 -20 4 -20 10 0 5 -7 7 -15 4 -8 -4
-15 -1 -15 5 0 6 -13 11 -30 11 -16 0 -30 3 -30 8 0 4 -15 13 -32 20 -18 8
-49 22 -69 33 -20 10 -44 19 -52 19 -9 0 -31 9 -49 19 -18 10 -48 22 -65 26
-18 4 -33 11 -33 16 0 5 -9 9 -20 9 -11 0 -35 9 -55 20 -20 11 -44 20 -55 20
-11 0 -20 5 -20 10 0 6 -9 10 -20 10 -11 0 -20 5 -20 10 0 6 -7 10 -15 10 -8
0 -29 9 -46 19 -17 11 -38 17 -45 14 -7 -3 -27 5 -43 16 -16 12 -36 21 -45 21
-8 0 -31 9 -51 20 -20 11 -42 20 -50 20 -8 0 -15 5 -15 10 0 6 -9 10 -20 10
-11 0 -20 5 -20 10 0 6 -13 10 -30 10 -16 0 -30 4 -30 9 0 5 -15 12 -32 16
-18 4 -48 16 -66 26 -18 10 -42 19 -53 19 -11 0 -29 9 -41 20 -12 11 -29 20
-38 20 -21 0 -70 23 -70 33 0 4 -12 7 -27 7 -16 0 -37 7 -47 15 -11 8 -27 15
-36 15 -21 0 -70 23 -70 33 0 4 -13 7 -30 7 -16 0 -30 3 -30 8 0 9 -49 32 -67
32 -7 0 -22 5 -33 10 -11 6 -29 15 -40 20 -11 6 -32 10 -47 10 -16 0 -41 7
-57 15 -15 8 -39 15 -53 15 -36 0 -113 21 -113 31 0 5 -20 9 -43 9 -24 0 -58
7 -75 15 -29 15 -144 32 -264 40 -31 2 -66 8 -77 14 -29 16 -743 15 -759 -1z
m462 -3626 c116 -53 137 -62 149 -62 18 0 67 -24 67 -32 0 -5 9 -8 21 -8 11 0
33 -8 47 -18 15 -11 48 -25 75 -33 26 -7 47 -17 47 -22 0 -4 5 -5 10 -2 6 4
27 -3 46 -14 19 -12 44 -21 55 -21 10 0 19 -4 19 -10 0 -5 7 -10 15 -10 8 0
15 -4 15 -10 0 -5 9 -10 20 -10 11 0 42 -10 68 -21 26 -12 63 -28 82 -36 19
-8 43 -18 52 -23 10 -6 27 -10 38 -10 11 0 20 -4 20 -10 0 -5 8 -10 18 -10 9
0 32 -9 50 -20 18 -11 40 -20 48 -20 9 0 27 -9 41 -20 14 -11 35 -20 47 -20
11 0 34 -7 50 -15 15 -8 36 -15 46 -15 10 0 23 -6 29 -14 7 -8 37 -22 67 -32
30 -9 54 -21 54 -25 0 -5 10 -9 23 -9 12 0 33 -9 47 -20 14 -11 34 -20 46 -20
11 0 29 -7 40 -15 10 -8 26 -15 36 -15 9 0 33 -8 55 -19 48 -23 131 -61 158
-71 11 -4 49 -19 85 -34 36 -14 70 -26 75 -26 6 0 21 -9 35 -20 14 -11 32 -20
41 -20 20 0 69 -23 69 -32 0 -5 13 -8 29 -8 17 0 32 -4 36 -9 3 -6 32 -18 65
-28 33 -9 60 -21 60 -25 0 -4 8 -8 18 -8 9 0 28 -9 42 -20 14 -11 32 -20 41
-20 20 0 69 -23 69 -32 0 -5 8 -8 19 -8 19 0 66 -17 141 -52 45 -20 76 -34
115 -48 24 -9 109 -48 147 -67 14 -7 35 -13 45 -13 23 0 73 -22 73 -32 0 -5 9
-8 21 -8 11 0 32 -9 46 -20 14 -11 32 -20 40 -20 8 0 33 -9 55 -20 23 -11 48
-20 56 -20 8 0 26 -6 40 -14 15 -8 42 -20 60 -28 17 -7 32 -16 32 -20 0 -5 9
-8 20 -8 11 0 49 -13 85 -30 36 -16 68 -30 71 -30 7 0 70 -27 96 -41 10 -5 23
-9 28 -9 6 0 47 -18 91 -40 44 -22 88 -40 97 -40 9 0 26 -7 36 -15 11 -8 32
-15 47 -15 15 0 29 -4 31 -8 4 -11 94 -52 113 -52 8 0 15 -4 15 -10 0 -5 8
-10 18 -10 9 0 32 -9 50 -20 18 -11 41 -20 50 -20 10 0 27 -7 38 -15 10 -8 25
-15 32 -15 12 0 51 -17 169 -71 34 -16 67 -29 73 -29 10 0 19 -4 78 -33 19 -9
40 -17 49 -17 8 0 26 -9 40 -20 14 -11 33 -20 42 -20 22 0 71 -23 71 -32 0 -5
12 -8 26 -8 14 0 39 -9 55 -21 16 -11 32 -18 36 -16 5 3 26 -3 47 -14 22 -10
44 -19 50 -19 6 0 22 -9 36 -20 14 -11 34 -20 45 -20 11 0 31 -9 45 -20 14
-11 32 -20 41 -20 14 0 53 -15 159 -62 14 -6 34 -14 45 -18 11 -4 51 -22 88
-39 37 -17 72 -31 77 -31 4 0 21 -6 37 -14 15 -8 47 -20 71 -27 23 -7 42 -16
42 -21 0 -4 10 -8 23 -8 12 0 33 -9 47 -20 14 -11 31 -20 38 -20 7 0 32 -9 54
-20 23 -11 46 -20 51 -20 10 0 62 -22 120 -51 22 -10 43 -19 48 -19 5 0 47
-17 93 -39 46 -21 94 -42 107 -46 44 -12 124 -46 200 -86 20 -11 44 -19 54
-19 9 0 29 -9 45 -20 15 -11 30 -16 34 -13 4 4 28 -3 54 -16 26 -13 55 -28 64
-32 10 -5 25 -9 33 -9 8 0 15 -4 15 -10 0 -5 7 -10 16 -10 9 0 33 -9 53 -19
53 -28 107 -51 120 -51 6 0 34 -11 63 -24 29 -13 79 -35 111 -50 32 -14 61
-26 65 -26 5 0 32 -11 60 -25 29 -14 58 -25 64 -25 7 0 28 -9 46 -20 18 -11
38 -20 45 -20 18 0 67 -24 67 -32 0 -5 12 -8 26 -8 14 0 38 -8 52 -19 15 -10
42 -22 61 -26 19 -4 59 -20 90 -36 30 -16 62 -29 71 -29 8 0 26 -9 40 -20 14
-11 34 -20 45 -20 11 0 35 -9 53 -20 18 -11 37 -20 43 -20 6 0 27 -7 47 -16
21 -9 46 -19 57 -24 56 -21 142 -59 197 -87 14 -7 33 -13 42 -13 8 0 31 -9 51
-20 20 -11 43 -20 51 -20 9 0 27 -9 41 -20 14 -11 32 -20 39 -20 14 0 87 -30
136 -56 14 -8 34 -14 45 -14 10 0 29 -9 43 -20 14 -11 33 -20 43 -20 9 0 54
-17 100 -39 45 -21 93 -42 107 -45 34 -10 56 -19 115 -46 28 -12 68 -30 90
-40 22 -10 60 -27 85 -39 25 -11 52 -21 60 -21 9 0 24 -6 35 -13 11 -8 41 -20
68 -28 26 -7 47 -17 47 -21 0 -4 7 -8 16 -8 9 0 33 -9 53 -19 53 -28 108 -51
120 -51 13 0 78 -28 165 -71 32 -16 67 -29 77 -29 11 0 19 -3 19 -8 0 -7 53
-28 100 -39 14 -3 37 -14 52 -24 14 -11 32 -19 40 -19 19 0 68 -23 68 -32 0
-5 14 -8 30 -8 17 0 30 -3 30 -8 0 -8 20 -17 127 -57 40 -15 75 -31 79 -36 3
-5 16 -9 30 -9 13 0 24 -3 24 -8 0 -7 21 -17 90 -42 19 -7 39 -17 44 -22 6 -4
16 -8 24 -8 8 0 30 -7 50 -16 21 -9 46 -20 57 -24 11 -4 51 -22 88 -39 37 -17
72 -31 77 -31 5 0 24 -9 42 -20 18 -11 40 -20 48 -20 8 0 28 -7 44 -15 15 -8
37 -15 47 -15 11 0 19 -3 19 -8 0 -4 15 -13 33 -20 17 -8 43 -18 57 -24 14 -6
36 -15 50 -21 14 -5 37 -16 52 -23 14 -8 32 -14 40 -14 19 0 68 -23 68 -32 0
-5 9 -8 20 -8 16 0 136 -51 210 -90 9 -4 31 -11 50 -15 19 -4 51 -16 70 -25
19 -10 58 -29 85 -41 28 -12 67 -31 88 -41 22 -10 47 -18 57 -18 11 0 21 -4
25 -9 3 -6 32 -18 65 -28 33 -9 60 -21 60 -25 0 -4 7 -8 16 -8 9 0 33 -8 53
-19 91 -46 124 -61 137 -61 14 0 41 -11 164 -67 30 -14 64 -29 75 -33 11 -4
40 -16 65 -26 24 -11 47 -19 50 -19 3 -1 19 -8 35 -16 17 -9 49 -21 73 -29 23
-7 42 -17 42 -22 0 -4 13 -8 29 -8 16 0 31 -4 33 -8 4 -10 94 -52 111 -52 8 0
36 -11 63 -25 27 -14 57 -25 67 -25 9 0 17 -3 17 -7 0 -8 48 -33 62 -33 5 0
27 -9 51 -19 36 -16 69 -30 87 -36 39 -14 81 -31 153 -64 37 -17 73 -31 80
-31 7 0 23 -9 37 -20 14 -11 34 -20 45 -20 11 0 33 -7 49 -15 15 -8 36 -15 45
-15 9 0 27 -9 41 -20 14 -11 31 -20 38 -20 7 0 32 -9 54 -20 23 -11 46 -20 51
-20 5 0 22 -9 38 -21 16 -11 35 -19 42 -16 7 3 24 -4 38 -14 13 -10 32 -19 41
-19 9 0 60 -20 112 -45 l95 -46 -4 -547 c-2 -301 -9 -650 -14 -777 -6 -126
-13 -311 -16 -410 -4 -99 -10 -184 -16 -189 -5 -6 -9 -78 -9 -161 0 -83 -4
-155 -9 -161 -5 -5 -12 -65 -15 -134 -6 -131 -21 -320 -36 -480 -5 -52 -14
-178 -20 -280 -7 -102 -16 -194 -20 -205 -5 -11 -11 -51 -14 -90 -3 -38 -10
-110 -15 -160 -6 -49 -16 -133 -21 -185 -6 -52 -15 -126 -20 -165 -12 -84 -23
-181 -44 -374 -9 -79 -18 -151 -21 -160 -3 -9 -12 -68 -21 -131 -9 -63 -20
-140 -25 -170 -4 -30 -13 -89 -19 -130 -5 -41 -17 -115 -25 -165 -16 -91 -36
-214 -54 -335 -5 -36 -14 -90 -20 -120 -6 -30 -22 -122 -36 -205 -14 -82 -32
-181 -40 -220 -19 -89 -42 -217 -50 -275 -4 -25 -13 -67 -20 -95 -8 -27 -19
-77 -25 -110 -7 -33 -16 -73 -21 -89 -5 -16 -9 -41 -9 -55 0 -14 -9 -61 -19
-106 -10 -44 -26 -116 -36 -160 -48 -230 -58 -275 -76 -332 -10 -34 -19 -80
-19 -103 0 -22 -6 -51 -14 -63 -8 -12 -17 -47 -21 -77 -4 -30 -13 -68 -21 -84
-8 -16 -14 -47 -14 -68 0 -21 -6 -49 -14 -61 -8 -12 -18 -49 -21 -82 -4 -33
-11 -64 -15 -70 -5 -5 -15 -41 -24 -80 -20 -93 -34 -147 -57 -223 -10 -34 -19
-76 -19 -93 0 -16 -6 -40 -14 -52 -8 -12 -19 -44 -24 -72 -5 -27 -17 -70 -25
-95 -8 -25 -25 -88 -38 -140 -25 -107 -47 -185 -60 -215 -5 -11 -15 -47 -23
-81 -7 -33 -19 -71 -26 -85 -8 -13 -17 -40 -21 -59 -5 -19 -15 -66 -24 -104
-9 -37 -22 -81 -30 -97 -8 -15 -15 -39 -15 -53 0 -14 -9 -40 -20 -58 -11 -18
-20 -43 -20 -54 0 -12 -7 -37 -15 -56 -8 -20 -24 -73 -35 -119 -12 -46 -29
-104 -39 -129 -11 -25 -42 -119 -71 -210 -29 -91 -63 -192 -75 -225 -12 -33
-39 -114 -60 -180 -21 -66 -51 -156 -66 -200 -26 -78 -33 -96 -69 -180 -9 -22
-25 -69 -34 -105 -10 -36 -24 -76 -32 -90 -7 -14 -26 -63 -43 -110 -16 -47
-41 -116 -56 -155 -14 -38 -32 -88 -39 -110 -8 -22 -35 -89 -61 -150 -26 -60
-48 -117 -49 -125 -1 -8 -9 -31 -18 -50 -50 -113 -58 -131 -58 -140 0 -6 -4
-18 -9 -28 -5 -9 -14 -30 -21 -47 -7 -16 -19 -42 -26 -57 -8 -14 -14 -33 -14
-42 0 -8 -9 -35 -19 -58 -11 -24 -27 -61 -36 -83 -9 -22 -28 -62 -41 -89 -13
-28 -24 -57 -24 -65 0 -9 -7 -25 -15 -35 -8 -11 -15 -28 -15 -37 0 -16 -14
-47 -61 -140 -11 -20 -19 -42 -19 -49 0 -6 -8 -24 -18 -38 -10 -15 -26 -49
-36 -77 -10 -27 -26 -66 -37 -86 -10 -20 -19 -44 -19 -54 0 -9 -8 -29 -18 -43
-10 -15 -28 -49 -41 -77 -12 -27 -29 -63 -37 -78 -8 -16 -14 -36 -14 -45 0 -9
-9 -28 -20 -42 -11 -14 -20 -31 -20 -38 0 -8 -9 -25 -20 -39 -11 -14 -20 -34
-20 -44 0 -23 -21 -69 -32 -69 -4 0 -7 -3 -6 -7 3 -15 -14 -63 -23 -63 -5 0
-9 -7 -9 -16 0 -9 -8 -28 -18 -42 -10 -15 -24 -43 -32 -62 -21 -57 -491 -999
-532 -1067 -21 -35 -38 -67 -38 -73 0 -5 -4 -10 -10 -10 -5 0 -10 -7 -10 -15
0 -8 -4 -23 -10 -33 -5 -9 -17 -35 -26 -57 -10 -22 -21 -42 -24 -45 -8 -7 -46
-72 -93 -160 -44 -83 -44 -83 -182 -330 -54 -96 -109 -192 -122 -212 -12 -21
-23 -40 -23 -42 0 -6 -63 -110 -71 -116 -4 -3 -28 -45 -54 -95 -27 -49 -52
-92 -56 -95 -4 -3 -23 -32 -41 -65 -58 -102 -63 -110 -68 -115 -3 -3 -11 -17
-19 -32 -8 -16 -18 -28 -23 -28 -4 0 -8 -9 -8 -20 0 -11 -3 -20 -7 -20 -5 0
-21 -26 -38 -58 -16 -31 -47 -79 -67 -107 -21 -27 -38 -56 -38 -62 0 -7 -4
-13 -10 -13 -5 0 -10 -5 -10 -11 0 -6 -29 -56 -65 -110 -36 -55 -65 -103 -65
-108 0 -5 -7 -15 -16 -22 -9 -7 -20 -22 -25 -34 -10 -22 -31 -57 -39 -65 -3
-3 -17 -21 -30 -40 -13 -19 -27 -37 -30 -40 -5 -5 -30 -49 -54 -94 -18 -36
-90 -141 -98 -144 -5 -2 -8 -8 -8 -12 0 -14 -91 -140 -101 -140 -5 0 -9 -6 -9
-13 0 -7 -8 -22 -17 -33 -10 -11 -27 -37 -38 -59 -11 -22 -28 -47 -37 -56 -10
-9 -18 -23 -18 -30 0 -8 -9 -21 -20 -29 -11 -8 -20 -19 -20 -24 0 -5 -8 -16
-18 -25 -10 -9 -27 -32 -38 -51 -17 -30 -43 -67 -104 -150 -11 -14 -19 -29
-19 -34 1 -5 -3 -12 -8 -15 -5 -3 -20 -22 -33 -41 -29 -41 -31 -45 -70 -90
-16 -19 -30 -40 -30 -47 0 -7 -11 -23 -25 -37 -14 -14 -25 -28 -25 -32 0 -4
-8 -14 -18 -23 -24 -22 -92 -119 -92 -131 0 -6 -4 -10 -8 -10 -5 0 -15 -12
-23 -27 -8 -15 -29 -43 -47 -63 -19 -19 -42 -51 -52 -70 -10 -20 -37 -55 -59
-79 -23 -24 -41 -45 -41 -47 0 -9 -76 -110 -92 -122 -10 -7 -18 -17 -18 -23 0
-5 -18 -27 -40 -50 -21 -22 -42 -49 -45 -60 -4 -10 -11 -19 -16 -19 -5 0 -9
-5 -9 -12 0 -6 -7 -18 -15 -27 -43 -46 -63 -70 -90 -106 -16 -22 -42 -53 -57
-70 -15 -16 -28 -36 -28 -42 0 -7 -3 -13 -7 -13 -5 0 -19 -16 -33 -36 -13 -20
-36 -49 -51 -65 -15 -16 -49 -57 -76 -91 -26 -34 -75 -91 -108 -128 -79 -88
-138 -159 -149 -178 -5 -8 -30 -37 -57 -63 -27 -27 -49 -53 -49 -58 0 -5 -21
-31 -48 -58 -26 -26 -58 -64 -72 -83 -13 -19 -48 -58 -77 -86 -29 -29 -53 -57
-53 -63 0 -6 -36 -47 -80 -90 -44 -44 -80 -83 -80 -88 0 -5 -49 -60 -110 -121
-60 -62 -110 -116 -110 -120 0 -9 -61 -72 -121 -128 -19 -17 -53 -51 -76 -75
-23 -24 -55 -55 -72 -69 -17 -14 -33 -34 -37 -44 -6 -19 -541 -555 -699 -701
-102 -94 -113 -105 -161 -156 -23 -24 -65 -64 -95 -89 -29 -25 -91 -82 -137
-127 -45 -46 -87 -83 -92 -83 -5 0 -44 -34 -86 -75 -42 -41 -79 -75 -81 -75
-6 0 -37 -28 -109 -97 -29 -29 -58 -53 -64 -53 -6 0 -30 -19 -53 -43 -23 -24
-52 -50 -65 -59 -13 -9 -47 -38 -75 -64 -29 -27 -71 -62 -94 -77 -23 -16 -44
-35 -47 -43 -3 -8 -12 -14 -20 -14 -8 0 -16 -4 -18 -8 -3 -7 -36 -37 -163
-143 -46 -39 -158 -128 -225 -179 -40 -30 -98 -76 -130 -102 -32 -27 -63 -48
-68 -48 -6 0 -12 -3 -14 -7 -1 -5 -27 -26 -55 -48 -29 -21 -53 -43 -53 -47 0
-4 -5 -8 -11 -8 -6 0 -28 -15 -48 -33 -20 -17 -50 -42 -66 -54 -61 -45 -134
-98 -153 -112 -12 -8 -72 -50 -134 -93 -62 -44 -122 -88 -134 -99 -11 -10 -25
-19 -31 -19 -5 0 -18 -9 -28 -20 -10 -11 -24 -20 -31 -20 -7 0 -14 -3 -16 -7
-4 -10 -124 -103 -133 -103 -5 0 -210 -134 -240 -158 -52 -41 -379 -252 -390
-252 -3 0 -52 -31 -108 -68 -56 -38 -115 -75 -132 -83 -49 -25 -78 -42 -116
-71 -20 -16 -42 -28 -48 -28 -6 0 -11 -4 -11 -10 0 -5 -6 -10 -14 -10 -7 0
-19 -7 -26 -15 -7 -8 -21 -15 -31 -15 -11 0 -19 -4 -19 -8 0 -5 -22 -19 -50
-32 -27 -13 -50 -27 -50 -32 0 -4 -9 -8 -20 -8 -11 0 -20 -4 -20 -10 0 -5 -5
-10 -12 -10 -6 0 -26 -11 -44 -25 -18 -14 -38 -25 -44 -25 -11 0 -67 -35 -80
-50 -9 -10 -50 -30 -61 -30 -6 0 -24 -9 -40 -21 -16 -11 -29 -17 -29 -13 0 4
-10 -1 -22 -12 -22 -18 -45 -33 -88 -54 -11 -6 -30 -15 -42 -22 -13 -6 -54
-27 -93 -47 -38 -19 -71 -39 -73 -43 -2 -4 -12 -8 -23 -8 -10 0 -19 -4 -19
-10 0 -5 -7 -10 -15 -10 -8 0 -15 -4 -15 -10 0 -5 -9 -10 -20 -10 -11 0 -20
-3 -20 -8 0 -4 -15 -13 -32 -20 -18 -8 -45 -20 -60 -28 -14 -8 -33 -14 -42
-14 -9 0 -16 -3 -16 -7 0 -5 -25 -19 -55 -33 -30 -14 -55 -28 -55 -32 0 -5 -9
-8 -20 -8 -11 0 -20 -3 -20 -8 0 -4 -15 -13 -32 -20 -18 -8 -51 -22 -73 -32
-22 -10 -60 -26 -85 -36 -25 -9 -57 -26 -72 -36 -14 -10 -31 -18 -37 -18 -7 0
-23 -8 -38 -17 -14 -10 -31 -18 -38 -19 -7 -1 -45 -18 -86 -38 -40 -20 -79
-36 -86 -36 -7 0 -13 -3 -13 -7 0 -9 -49 -33 -67 -33 -13 0 -51 -16 -147 -62
-74 -35 -97 -35 -168 1 -32 16 -71 32 -88 36 -16 4 -30 11 -30 16 0 5 -10 9
-23 9 -26 0 -77 21 -77 33 0 4 -8 7 -17 7 -10 0 -29 9 -43 20 -14 11 -35 20
-47 20 -13 0 -23 5 -23 10 0 6 -9 10 -20 10 -11 0 -20 5 -20 11 0 5 -5 7 -10
4 -6 -3 -23 3 -39 14 -16 12 -33 21 -38 21 -15 0 -63 25 -63 33 0 4 -11 7 -25
7 -14 0 -25 4 -25 8 0 5 -18 15 -40 22 -22 7 -40 17 -40 21 0 4 -15 11 -32 14
-18 4 -35 10 -38 14 -9 12 -50 31 -65 31 -8 0 -15 5 -15 10 0 6 -7 10 -15 10
-8 0 -15 5 -15 10 0 6 -9 10 -20 10 -11 0 -20 4 -20 8 0 5 -18 15 -40 22 -22
7 -40 17 -40 21 0 5 -7 6 -15 3 -8 -4 -15 -1 -15 5 0 6 -9 11 -20 11 -11 0
-20 3 -20 8 0 8 -49 32 -67 32 -7 0 -13 5 -13 10 0 6 -7 10 -15 10 -8 0 -15 5
-15 10 0 6 -7 10 -15 10 -15 0 -55 19 -65 31 -3 4 -15 9 -27 13 -13 4 -23 12
-23 17 0 5 -9 9 -20 9 -11 0 -20 3 -20 8 0 8 -49 32 -67 32 -7 0 -13 5 -13 10
0 6 -7 10 -15 10 -8 0 -15 5 -15 10 0 6 -7 10 -16 10 -9 0 -28 8 -42 19 -15
10 -37 22 -49 25 -13 4 -23 12 -23 17 0 5 -9 9 -20 9 -11 0 -20 5 -20 10 0 6
-9 10 -20 10 -11 0 -20 5 -20 10 0 6 -5 10 -11 10 -6 0 -23 9 -38 19 -25 18
-63 40 -161 92 -25 13 -46 27 -48 32 -2 4 -9 7 -16 7 -7 0 -21 8 -32 17 -10
10 -46 31 -79 48 -33 16 -68 37 -79 47 -10 9 -33 24 -50 33 -17 9 -53 29 -81
45 -27 17 -60 35 -72 42 -13 6 -23 15 -23 20 0 4 -4 8 -10 8 -5 0 -54 29 -109
65 -55 36 -105 65 -111 65 -5 0 -10 5 -10 10 0 6 -8 10 -18 10 -10 0 -24 9
-32 20 -8 11 -19 20 -26 20 -6 0 -19 9 -29 20 -10 11 -21 18 -25 15 -4 -2 -16
5 -28 15 -12 11 -26 20 -32 20 -6 0 -17 6 -25 13 -37 35 -186 137 -201 137 -2
0 -14 9 -26 20 -12 11 -28 20 -35 20 -7 0 -13 4 -13 8 0 5 -16 17 -35 28 -19
10 -35 22 -35 26 0 5 -6 8 -13 8 -7 0 -22 8 -33 17 -45 40 -104 83 -113 83 -6
0 -11 4 -11 9 0 5 -10 13 -22 17 -13 4 -39 21 -59 38 -53 46 -71 59 -102 75
-15 8 -27 18 -27 23 0 4 -6 8 -12 8 -7 0 -33 18 -58 40 -25 22 -48 40 -52 40
-4 0 -13 6 -20 13 -7 7 -36 27 -64 45 -29 18 -65 45 -81 60 -48 44 -114 96
-134 106 -11 5 -19 13 -19 18 0 4 -6 8 -13 8 -6 0 -31 18 -55 40 -23 22 -46
40 -52 40 -5 0 -26 16 -46 35 -19 19 -40 35 -45 35 -6 0 -21 10 -34 22 -57 55
-73 68 -84 68 -6 0 -11 4 -11 9 0 5 -9 13 -20 16 -21 7 -58 40 -82 73 -7 11
-28 27 -47 37 -19 9 -45 30 -58 46 -14 16 -29 29 -34 29 -5 0 -21 13 -36 28
-16 16 -46 41 -68 58 -22 16 -58 46 -80 67 -22 20 -44 37 -48 37 -5 0 -28 19
-50 43 -23 23 -58 53 -77 66 -19 13 -48 38 -65 55 -16 17 -46 43 -66 58 -20
15 -54 44 -76 65 -21 21 -70 65 -108 98 -39 33 -81 72 -95 88 -14 16 -43 42
-65 57 -40 28 -123 106 -147 138 -7 9 -44 44 -83 77 -82 70 -1067 1054 -1140
1139 -27 32 -65 73 -84 90 -18 17 -47 43 -62 58 -16 14 -29 31 -29 36 0 6 -33
44 -72 84 -40 40 -91 96 -113 123 -22 27 -64 74 -92 103 -29 30 -53 58 -53 62
0 5 -24 33 -53 62 -29 29 -64 69 -77 87 -13 19 -46 57 -72 83 -26 27 -48 52
-48 57 0 4 -14 24 -30 42 -17 19 -59 67 -93 106 -34 40 -65 73 -69 73 -4 0 -8
5 -8 11 0 14 -42 66 -122 152 -32 34 -58 65 -58 68 0 4 -6 14 -12 21 -7 7 -26
31 -42 53 -17 22 -38 47 -48 56 -10 9 -18 20 -18 25 0 5 -15 25 -33 44 -35 38
-73 87 -181 230 -39 52 -78 102 -86 110 -8 8 -28 33 -45 55 -16 22 -32 42 -35
45 -3 3 -17 21 -30 40 -14 19 -32 44 -42 54 -10 11 -18 23 -18 27 0 5 -11 19
-25 33 -14 14 -25 29 -25 33 0 4 -10 20 -23 34 -12 15 -47 62 -77 104 -51 71
-99 137 -118 160 -4 6 -21 28 -37 50 -16 22 -46 63 -67 91 -21 28 -38 56 -38
62 0 7 -4 12 -10 12 -5 0 -10 6 -10 14 0 8 -7 16 -15 20 -8 3 -15 12 -15 21 0
8 -4 15 -8 15 -5 0 -15 12 -23 28 -8 15 -22 34 -31 43 -10 9 -18 19 -18 22 0
7 -89 137 -106 154 -6 6 -26 35 -45 65 -18 29 -37 58 -41 63 -5 6 -38 57 -75
115 -37 58 -70 107 -73 110 -3 3 -37 52 -75 110 -39 57 -74 109 -78 115 -4 5
-28 44 -54 85 -25 41 -54 87 -64 102 -11 15 -19 31 -19 37 0 5 -4 11 -8 13
-12 4 -72 95 -72 107 0 6 -4 11 -10 11 -5 0 -10 6 -10 13 0 7 -12 30 -27 51
-49 73 -153 247 -153 256 0 6 -3 10 -7 10 -9 0 -45 56 -93 145 -18 33 -36 62
-39 65 -3 3 -13 19 -21 35 -8 17 -23 37 -32 46 -10 9 -18 24 -18 33 0 9 -4 16
-9 16 -5 0 -12 10 -16 23 -4 12 -8 24 -9 27 -5 15 -40 76 -45 80 -7 5 -31 45
-73 120 -11 19 -38 65 -59 102 -22 36 -39 69 -39 73 0 3 -10 21 -23 38 -13 18
-32 51 -42 75 -10 23 -21 42 -24 42 -3 0 -12 15 -20 33 -8 17 -17 34 -20 37
-12 10 -31 50 -31 65 0 8 -4 15 -10 15 -5 0 -10 5 -10 10 0 6 -11 28 -25 50
-14 22 -25 46 -25 55 0 8 -4 15 -8 15 -5 0 -18 22 -30 48 -12 26 -30 57 -40
68 -10 10 -26 37 -35 59 -10 22 -22 48 -27 57 -6 10 -10 25 -10 33 0 8 -4 15
-8 15 -5 0 -14 16 -22 35 -8 19 -17 35 -22 35 -4 0 -8 9 -8 20 0 11 -4 20 -10
20 -5 0 -10 8 -10 18 0 10 -9 24 -19 32 -11 7 -17 18 -14 23 3 5 1 12 -4 16
-10 7 -413 812 -413 825 0 14 -73 160 -82 164 -4 2 -8 12 -8 23 0 10 -3 19 -8
19 -9 0 -44 77 -47 106 -2 12 -14 42 -28 66 -46 83 -70 132 -106 224 -26 66
-87 202 -107 236 -8 15 -25 55 -38 90 -13 35 -40 98 -60 141 -20 42 -36 81
-36 85 0 15 -25 62 -32 62 -5 0 -8 8 -8 18 0 10 -3 22 -7 26 -4 3 -8 13 -9 20
-2 12 -27 73 -114 271 -10 22 -21 55 -25 72 -3 18 -11 35 -16 38 -5 4 -9 14
-9 23 0 9 -18 54 -40 100 -22 45 -40 90 -40 100 0 9 -7 26 -15 36 -8 11 -15
29 -15 40 0 12 -9 36 -20 54 -11 18 -20 39 -20 46 0 8 -8 31 -19 53 -10 21
-28 65 -40 98 -13 33 -29 75 -37 93 -8 18 -14 38 -14 45 0 7 -9 32 -20 55 -11
22 -20 48 -20 56 0 9 -9 31 -20 51 -11 20 -20 40 -20 46 0 5 -9 29 -20 51 -11
23 -20 48 -20 56 0 18 -29 110 -45 142 -15 29 -91 245 -110 310 -7 25 -24 74
-39 109 -14 36 -26 69 -26 75 0 6 -13 43 -28 81 -15 39 -41 117 -56 175 -15
58 -36 125 -46 150 -27 69 -87 259 -100 318 -7 28 -16 55 -21 58 -5 3 -9 20
-9 37 0 18 -9 43 -20 57 -11 14 -20 40 -20 58 0 18 -7 47 -17 65 -9 17 -26 75
-39 127 -36 144 -60 231 -77 270 -15 36 -32 98 -72 263 -12 53 -30 118 -38
145 -28 85 -50 166 -58 207 -12 63 -40 167 -55 203 -8 18 -14 48 -14 66 0 19
-7 51 -16 72 -17 39 -32 100 -58 229 -8 39 -28 126 -45 195 -60 243 -72 295
-71 317 0 13 -9 46 -20 75 -11 29 -20 73 -20 99 0 25 -5 50 -11 56 -6 6 -20
60 -30 119 -23 127 -36 196 -77 394 -37 181 -49 241 -68 355 -9 50 -20 104
-25 121 -5 17 -9 45 -9 63 0 18 -5 42 -11 53 -6 12 -17 66 -25 122 -7 56 -18
126 -24 156 -6 30 -15 82 -20 115 -4 33 -16 107 -25 165 -9 58 -21 132 -26
165 -4 33 -13 87 -19 120 -20 120 -31 191 -40 265 -4 41 -13 104 -19 140 -12
68 -36 259 -70 550 -6 47 -15 123 -21 170 -6 47 -15 126 -21 175 -5 50 -14
126 -19 170 -5 44 -16 168 -25 275 -8 107 -20 245 -25 305 -33 374 -43 505
-61 775 -39 611 -49 902 -55 1512 l-4 546 57 28 c32 15 74 35 94 46 20 10 46
18 58 18 11 0 21 4 21 9 0 10 38 24 58 22 7 -1 25 7 41 19 16 11 33 20 38 20
5 0 28 9 51 20 22 11 47 20 55 20 8 0 26 9 40 20 14 11 32 20 40 20 8 0 28 7
43 15 16 8 38 15 49 15 11 0 31 9 45 20 14 11 34 20 45 20 11 0 31 9 45 20 14
11 33 20 42 20 10 0 33 9 53 20 20 11 40 20 46 20 12 0 61 21 122 51 22 10 46
19 55 19 10 0 28 9 42 20 14 11 34 20 45 20 11 0 31 9 45 20 14 11 32 20 40
20 27 0 119 36 138 53 10 9 31 17 45 17 15 0 27 3 27 8 0 10 50 32 72 32 11 0
32 10 48 22 16 12 33 19 36 15 4 -3 19 2 34 13 16 11 35 20 44 20 9 0 25 5 36
10 11 6 29 15 40 20 11 6 27 10 35 10 8 0 15 3 15 8 0 4 15 13 33 21 17 7 46
19 64 27 17 8 43 14 57 14 14 0 26 3 26 8 0 8 48 32 64 32 6 0 22 9 36 20 14
11 32 20 41 20 8 0 34 9 57 20 22 11 47 20 55 20 7 0 22 7 33 15 10 8 28 15
39 15 11 0 31 9 45 20 14 11 37 20 53 20 15 0 27 3 27 8 0 9 49 32 68 32 8 0
25 9 38 19 14 11 42 22 64 26 22 4 42 11 46 16 3 5 14 9 25 9 10 0 19 5 19 10
0 6 9 10 20 10 11 0 20 5 20 10 0 6 7 10 15 10 9 0 33 9 55 20 22 11 48 20 60
20 11 0 20 3 20 8 0 10 60 36 67 28 3 -3 18 3 33 14 16 11 32 20 37 20 5 0 28
9 51 20 22 11 47 20 55 20 8 0 26 9 40 20 14 11 32 20 40 20 8 0 28 7 43 15
16 8 38 15 49 15 11 0 31 9 45 20 14 11 34 20 45 20 11 0 31 9 45 20 14 11 31
20 38 20 7 0 20 4 30 9 9 5 28 13 42 19 14 5 41 17 62 26 20 9 41 16 47 16 6
0 26 9 46 20 20 11 43 20 53 20 9 0 28 9 42 20 14 11 34 20 45 20 11 0 31 9
45 20 14 11 34 20 45 20 11 0 33 7 49 15 15 8 34 15 41 15 7 0 24 9 38 20 14
11 37 20 51 20 14 0 26 3 26 8 0 9 49 32 69 32 9 0 27 9 41 20 14 11 34 20 46
20 11 0 29 7 40 15 10 8 27 15 37 15 9 0 25 4 35 9 21 11 131 62 194 90 27 12
51 20 55 19 7 -2 64 21 106 43 9 5 25 13 35 18 9 5 44 19 77 31 33 12 72 28
87 36 14 8 34 14 45 14 10 0 29 9 43 20 14 11 36 20 50 20 14 0 36 9 50 20 14
11 30 20 35 20 9 0 40 14 118 52 10 5 22 6 27 3 5 -3 11 -1 15 5 3 5 15 10 26
10 10 0 19 3 19 8 0 4 15 13 33 21 17 7 51 22 74 32 24 10 47 19 53 19 5 0 25
9 45 20 20 11 43 20 51 20 9 0 28 6 42 14 47 25 121 56 134 56 7 0 24 9 38 20
14 11 34 20 45 20 11 0 31 9 45 20 14 11 36 20 48 20 13 0 36 6 50 13 38 19
123 58 147 67 11 4 34 13 50 20 17 7 39 16 50 21 11 4 46 19 79 33 32 14 66
26 75 26 9 0 27 9 41 20 14 11 34 20 45 20 11 0 31 9 45 20 14 11 33 20 42 20
9 0 19 4 22 9 3 5 23 12 43 16 21 4 49 15 64 26 15 10 39 19 53 19 14 0 26 3
26 8 0 9 49 32 69 32 9 0 27 9 41 20 14 11 35 20 47 20 12 0 24 4 27 9 3 5 29
16 58 25 29 9 80 30 113 45 100 48 154 71 166 71 6 0 27 7 47 17 21 9 66 29
102 45 36 16 73 33 82 39 10 5 24 9 32 9 7 0 25 9 40 21 15 12 35 19 45 16 10
-2 29 4 42 14 13 10 31 19 41 19 9 0 33 9 55 19 21 10 61 29 88 41 28 13 57
27 66 31 9 4 33 11 53 14 20 4 36 10 36 14 0 3 15 12 33 20 17 7 51 22 74 32
24 10 52 19 63 19 11 0 20 3 20 8 0 4 15 13 33 20 17 8 44 20 59 28 14 8 32
14 40 14 8 0 33 9 56 20 22 11 47 20 54 20 7 0 24 9 38 20 14 11 35 20 48 20
12 0 22 3 22 8 0 10 50 32 75 32 12 0 30 7 41 15 10 8 28 15 39 15 11 0 31 9
45 20 14 11 31 20 38 20 7 0 20 4 30 9 9 5 28 13 42 19 14 5 45 19 70 30 92
41 121 52 140 52 11 0 20 3 20 8 0 9 49 32 69 32 9 0 27 9 41 20 14 11 30 20
36 20 6 0 28 9 50 19 21 11 42 17 47 14 4 -2 20 5 36 16 16 12 41 21 55 21 14
0 26 3 26 8 0 9 49 32 69 32 9 0 27 9 41 20 14 11 35 20 47 20 12 0 24 4 28 9
3 6 32 18 65 28 33 9 60 21 60 25 0 4 6 8 14 8 8 0 31 9 53 20 75 38 127 60
142 60 9 0 25 7 35 15 11 8 29 15 40 15 12 0 32 9 46 20 14 11 31 20 38 20 7
0 32 9 54 20 23 11 47 20 54 20 6 0 23 9 37 20 14 11 36 20 49 20 13 0 33 7
44 15 10 8 30 15 44 15 14 0 36 9 50 20 14 11 32 20 40 20 8 0 26 9 40 20 14
11 33 20 43 20 9 0 25 4 35 9 17 9 32 15 102 44 19 8 56 24 82 36 26 11 52 21
57 21 8 0 55 21 123 56 14 8 31 14 38 14 6 0 30 9 52 20 23 11 49 20 57 20 9
0 27 9 41 20 14 11 35 20 48 20 12 0 22 3 22 8 0 9 49 32 71 32 10 0 30 6 46
14 40 19 124 57 153 68 14 6 33 14 42 19 10 5 24 9 32 9 8 0 16 4 18 8 4 11
137 62 161 62 9 0 17 3 17 8 0 9 49 32 69 32 9 0 27 9 41 20 14 11 30 20 36
20 5 0 29 9 52 20 22 11 47 20 55 20 7 0 22 7 33 15 10 8 31 15 47 15 15 0 27
3 27 8 0 9 49 32 69 32 9 0 27 9 41 20 14 11 33 20 42 20 9 0 29 6 45 14 15 8
39 18 53 24 59 22 202 85 232 102 10 6 26 10 35 10 10 0 27 7 37 15 11 8 26
15 34 15 13 0 118 45 164 71 10 5 24 9 32 9 7 0 25 9 39 20 14 11 34 20 45 20
12 0 24 5 27 10 4 6 10 8 15 5 5 -3 11 -1 15 5 3 5 16 10 28 10 12 0 33 9 47
20 14 11 34 20 45 20 11 0 31 9 45 20 14 11 33 20 43 20 9 0 25 4 35 9 17 9
30 14 107 46 22 9 57 25 78 36 22 10 44 19 51 19 18 0 66 24 66 33 0 4 10 7
23 7 12 0 30 7 40 14 10 8 50 24 90 36 40 13 81 31 93 42 11 10 32 18 47 18
15 0 27 3 27 8 0 10 50 32 74 32 12 0 30 7 40 15 11 8 26 15 34 15 8 0 26 8
40 19 68 47 115 50 196 13z"/>
<path d="M24290 25230 c-52 -10 -123 -25 -158 -34 -35 -9 -71 -16 -79 -16 -15
0 -187 -70 -228 -93 -49 -27 -116 -57 -128 -57 -6 0 -18 -9 -25 -20 -7 -11
-21 -20 -32 -20 -10 0 -23 -6 -27 -13 -7 -11 -115 -86 -137 -96 -5 -2 -25 -19
-43 -37 -19 -19 -38 -34 -42 -34 -13 0 -171 -156 -171 -168 0 -6 -22 -33 -50
-61 -27 -28 -50 -55 -50 -59 0 -4 -25 -33 -55 -64 -30 -31 -55 -61 -55 -66 0
-6 -25 -36 -55 -67 -30 -30 -55 -59 -55 -65 0 -5 -21 -29 -46 -52 -25 -23 -51
-53 -59 -67 -17 -33 -61 -81 -75 -81 -5 0 -10 -9 -10 -20 0 -11 -7 -20 -15
-20 -8 0 -15 -5 -15 -10 0 -6 -22 -33 -50 -61 -27 -27 -50 -53 -50 -57 0 -4
-20 -30 -45 -57 -25 -28 -45 -53 -45 -57 0 -3 -25 -32 -55 -63 -30 -31 -55
-60 -55 -64 0 -5 -27 -37 -60 -71 -33 -34 -60 -65 -60 -69 0 -3 -20 -28 -45
-56 -25 -27 -45 -53 -45 -57 0 -4 -22 -30 -50 -58 -27 -28 -50 -55 -50 -60 0
-6 -7 -10 -15 -10 -8 0 -15 -6 -15 -14 0 -8 -16 -31 -35 -52 -124 -136 -155
-172 -155 -182 0 -7 -4 -12 -9 -12 -4 0 -28 -25 -52 -56 -24 -31 -61 -75 -82
-98 -21 -22 -47 -51 -58 -62 -10 -12 -19 -25 -19 -29 0 -3 -17 -23 -37 -43
-21 -20 -51 -55 -68 -77 -16 -22 -35 -46 -42 -53 -7 -7 -13 -18 -13 -23 0 -5
-7 -9 -15 -9 -8 0 -15 -6 -15 -14 0 -7 -25 -38 -55 -69 -30 -30 -55 -61 -55
-67 0 -7 -18 -29 -40 -50 -22 -21 -40 -43 -40 -49 0 -6 -7 -11 -15 -11 -8 0
-15 -8 -15 -17 0 -10 -13 -27 -28 -37 -16 -10 -39 -35 -52 -55 -13 -20 -44
-55 -67 -78 -24 -24 -43 -46 -43 -51 0 -5 -25 -34 -55 -66 -30 -31 -55 -61
-55 -66 0 -5 -25 -35 -55 -66 -30 -32 -55 -61 -55 -65 0 -5 -17 -25 -38 -46
-20 -21 -50 -56 -66 -78 -17 -22 -42 -52 -58 -68 -15 -15 -28 -30 -28 -33 0
-6 -39 -50 -97 -110 -18 -18 -33 -37 -33 -41 0 -5 -20 -28 -45 -52 -25 -24
-45 -48 -45 -53 0 -5 -25 -34 -55 -64 -30 -30 -55 -58 -55 -62 0 -5 -18 -27
-40 -51 -22 -23 -40 -46 -40 -49 0 -4 -29 -38 -65 -76 -36 -38 -65 -73 -65
-78 0 -5 -22 -31 -50 -59 -27 -27 -50 -54 -50 -58 0 -5 -7 -11 -15 -15 -8 -3
-15 -10 -15 -15 0 -6 -18 -28 -40 -50 -22 -22 -40 -44 -40 -49 0 -5 -25 -35
-55 -67 -30 -31 -55 -61 -57 -65 -2 -5 -21 -28 -43 -52 -22 -24 -46 -55 -54
-70 -8 -16 -18 -28 -22 -28 -12 0 -99 -92 -99 -105 0 -8 -78 -100 -142 -168
-27 -28 -48 -54 -48 -59 0 -5 -25 -33 -55 -63 -30 -29 -55 -59 -55 -65 0 -6
-17 -29 -39 -50 -21 -21 -41 -45 -44 -54 -4 -9 -11 -16 -17 -16 -5 0 -10 -4
-10 -9 0 -5 -19 -29 -42 -54 -24 -24 -63 -70 -87 -101 -24 -31 -48 -56 -52
-56 -5 0 -9 -6 -9 -13 0 -7 -25 -37 -55 -67 -30 -30 -55 -62 -55 -72 0 -10 -4
-18 -8 -18 -11 0 -112 -101 -112 -112 0 -4 -18 -27 -40 -49 -22 -23 -40 -44
-40 -48 0 -4 -15 -22 -32 -41 -18 -19 -43 -48 -55 -64 -13 -16 -45 -53 -73
-83 -27 -30 -50 -58 -50 -63 0 -4 -21 -30 -47 -57 -27 -27 -61 -67 -78 -88
-16 -22 -39 -50 -50 -62 -11 -11 -45 -51 -75 -88 -30 -37 -77 -90 -104 -119
-27 -28 -60 -67 -75 -86 -14 -19 -33 -42 -41 -50 -8 -8 -36 -40 -60 -70 -25
-30 -54 -64 -66 -75 -11 -11 -31 -36 -44 -55 -13 -19 -41 -53 -61 -75 -20 -22
-50 -56 -65 -75 -16 -19 -31 -37 -34 -40 -3 -3 -23 -27 -45 -55 -22 -27 -49
-58 -61 -67 -12 -10 -38 -41 -57 -70 -40 -59 -150 -178 -165 -178 -5 0 -18 12
-27 27 -23 35 -548 559 -596 595 -20 15 -165 154 -322 310 -157 156 -308 303
-337 328 -28 25 -77 71 -108 104 -31 32 -72 72 -91 90 -19 17 -44 42 -55 55
-12 13 -41 42 -64 65 -66 61 -85 81 -108 107 -12 13 -41 42 -65 64 -25 22 -51
50 -59 61 -8 11 -31 31 -50 44 -40 27 -470 451 -470 463 0 11 -26 37 -37 37
-5 0 -24 17 -43 38 -19 20 -53 51 -75 67 -22 16 -47 37 -55 46 -8 9 -35 26
-60 39 -25 12 -47 26 -50 29 -3 3 -24 15 -47 26 -24 11 -43 23 -43 28 0 4 -9
7 -20 7 -11 0 -20 3 -20 8 0 4 -15 13 -32 20 -18 7 -41 18 -50 23 -10 5 -23 9
-28 9 -6 0 -30 9 -52 20 -23 11 -54 20 -68 20 -14 0 -30 4 -36 8 -5 5 -49 20
-99 33 -81 22 -110 24 -300 24 -159 0 -236 -4 -315 -18 -152 -27 -305 -71
-377 -110 -18 -9 -41 -17 -51 -17 -10 0 -27 -9 -37 -20 -10 -11 -23 -20 -30
-20 -7 0 -34 -12 -61 -27 -27 -14 -61 -32 -75 -40 -15 -7 -32 -20 -39 -28 -7
-8 -17 -15 -22 -15 -5 0 -29 -16 -52 -35 -24 -19 -46 -35 -49 -35 -3 0 -21
-15 -41 -32 -19 -18 -49 -44 -67 -58 -48 -37 -127 -119 -160 -167 -17 -24 -34
-43 -39 -43 -6 0 -10 -7 -10 -15 0 -7 -6 -18 -12 -22 -16 -10 -58 -69 -58 -81
0 -5 -9 -17 -20 -27 -11 -10 -20 -24 -20 -31 0 -7 -3 -14 -7 -16 -7 -3 -24
-32 -70 -120 -8 -15 -18 -30 -24 -33 -5 -4 -9 -16 -9 -29 0 -25 -21 -76 -32
-76 -5 0 -8 -13 -8 -30 0 -16 -3 -30 -7 -30 -11 0 -33 -50 -33 -73 0 -11 -6
-40 -14 -66 -47 -152 -50 -178 -54 -480 -2 -186 0 -302 7 -315 5 -12 12 -43
15 -71 7 -67 38 -195 71 -290 17 -47 23 -61 44 -102 5 -10 22 -45 38 -78 15
-33 31 -61 36 -63 4 -2 7 -11 7 -19 0 -9 8 -23 18 -32 9 -9 23 -28 31 -43 8
-16 18 -28 23 -28 4 0 8 -7 8 -15 0 -16 3944 -3964 4006 -4011 22 -16 41 -31
44 -35 11 -13 128 -85 165 -103 22 -10 48 -22 58 -27 43 -22 54 -28 92 -44 48
-21 220 -65 255 -65 14 0 38 -7 54 -15 18 -10 57 -15 110 -15 46 0 87 -5 93
-11 7 -7 67 -9 189 -5 226 7 301 14 339 30 17 8 57 17 90 20 67 8 140 28 200
57 22 10 49 19 60 19 11 0 31 9 45 20 14 11 30 20 36 20 17 0 64 24 64 33 0 5
5 5 10 2 6 -4 33 10 61 30 28 20 60 40 72 44 30 12 176 121 211 160 17 17 34
31 40 31 12 0 126 116 126 129 0 5 8 16 18 23 9 7 48 49 87 93 38 44 82 94 97
110 16 17 28 34 28 39 0 5 25 34 55 63 30 30 55 59 55 66 0 6 25 35 55 63 30
29 55 57 55 62 0 5 18 28 39 51 22 23 50 55 63 72 12 17 38 46 56 65 17 18 32
38 32 44 0 5 7 10 15 10 8 0 15 7 15 16 0 8 27 41 60 72 33 32 60 63 60 70 0
14 86 102 100 102 6 0 10 7 10 15 0 8 14 30 31 48 17 17 48 52 68 77 20 25 48
57 63 71 15 15 25 29 22 32 -3 3 3 12 15 19 12 7 21 17 21 22 0 5 25 33 55 62
30 30 55 59 55 66 0 7 27 38 60 70 33 31 60 60 60 65 0 4 14 24 31 43 17 19
52 59 78 89 25 30 51 59 57 65 5 6 13 19 17 29 3 9 13 17 22 17 8 0 15 6 15
14 0 7 25 38 55 67 30 30 55 61 55 69 0 8 14 26 32 40 45 36 78 69 78 81 0 5
20 30 45 56 25 25 55 60 68 76 12 16 34 42 48 56 14 15 28 34 32 44 3 9 13 17
22 17 8 0 15 7 15 15 0 9 25 40 55 70 30 29 55 59 55 66 0 8 25 37 55 65 30
29 55 56 55 62 0 5 27 38 60 73 33 35 60 67 60 71 0 4 16 23 35 42 19 20 35
40 35 46 0 5 7 10 15 10 9 0 19 10 24 23 5 12 32 45 60 74 28 29 51 56 51 61
0 4 25 32 55 62 30 30 55 57 55 61 0 4 19 26 41 50 23 24 53 60 68 79 14 19
37 46 52 60 14 14 28 33 32 43 3 9 13 17 22 17 8 0 15 7 15 16 0 9 25 40 55
69 30 29 55 59 55 66 0 7 25 36 55 65 30 29 55 60 55 68 0 9 4 16 9 16 5 0 34
30 65 68 31 37 77 88 101 114 25 26 45 53 45 60 0 7 14 24 31 38 67 56 89 79
89 93 0 7 25 37 55 64 30 28 55 55 55 61 0 5 18 29 40 53 23 24 51 57 63 73
12 15 32 38 43 50 12 13 27 32 33 44 6 12 18 22 26 22 8 0 15 7 15 16 0 9 25
40 55 69 30 29 55 59 55 66 0 7 27 39 60 71 33 31 60 60 60 65 0 4 16 26 36
48 19 22 57 65 82 95 26 30 50 57 55 58 4 2 7 10 7 17 0 8 9 17 20 20 11 3 20
11 20 18 0 6 17 27 38 47 42 41 72 77 72 87 0 4 25 31 55 60 30 29 55 58 55
64 0 5 17 27 38 48 21 22 54 58 73 81 19 24 43 52 54 64 12 12 24 29 28 39 3
9 13 17 22 17 8 0 15 7 15 16 0 9 25 40 55 69 30 28 55 58 55 66 0 7 25 37 55
65 30 29 55 57 55 62 0 5 27 38 60 73 33 35 60 66 60 69 0 11 89 100 100 100
5 0 10 8 10 18 0 10 25 41 55 68 30 27 55 55 55 63 0 7 25 38 55 67 30 30 55
59 55 64 0 5 13 22 28 37 15 16 46 51 67 78 22 28 52 61 66 75 14 14 28 33 32
43 3 9 14 17 22 17 9 0 13 5 10 11 -4 5 21 36 54 68 34 32 61 64 61 71 0 8 24
37 53 65 30 28 56 56 58 62 4 12 101 123 155 177 16 18 33 39 37 49 3 9 11 17
17 17 5 0 10 6 10 13 0 7 27 37 60 67 33 30 60 62 60 71 0 9 25 39 55 66 30
28 55 56 55 62 0 5 12 23 28 39 15 15 45 50 67 77 22 28 48 56 58 64 10 7 22
24 27 37 5 13 16 24 25 24 8 0 15 8 15 18 0 9 25 39 55 67 30 27 55 57 55 66
0 9 27 40 60 69 33 29 60 57 60 62 0 10 12 25 65 81 43 46 105 121 118 143 4
8 15 14 22 14 8 0 15 8 15 18 0 9 25 41 55 71 30 29 55 58 55 63 0 5 25 34 55
64 30 31 55 59 55 64 0 5 21 31 48 58 26 26 54 62 62 78 8 16 25 43 37 60 13
17 23 36 23 42 0 7 5 12 10 12 6 0 10 6 10 13 0 7 9 18 20 25 11 7 20 20 20
31 0 10 9 26 19 35 11 10 23 31 26 47 4 16 11 29 16 29 5 0 9 16 9 35 0 24 6
37 20 45 15 8 20 21 20 48 0 26 6 42 20 52 14 10 20 26 20 54 0 22 6 47 14 55
9 10 16 41 17 79 1 34 5 62 9 62 4 0 12 24 19 53 16 71 16 538 0 547 -6 4 -17
45 -24 91 -7 46 -18 97 -24 112 -6 16 -11 41 -11 56 0 15 -9 37 -20 49 -11 12
-20 32 -20 46 0 29 -19 76 -32 76 -4 0 -8 13 -8 29 0 16 -7 34 -15 41 -8 7
-15 22 -15 34 0 11 -9 32 -20 46 -11 14 -20 30 -20 35 0 6 -9 21 -20 35 -11
14 -20 33 -20 42 0 10 -9 23 -20 30 -11 7 -20 18 -20 24 0 6 -7 17 -15 24 -8
7 -15 20 -15 29 0 9 -9 23 -20 31 -11 8 -20 20 -20 27 0 7 -9 17 -20 23 -11 6
-20 17 -20 25 0 8 -4 15 -8 15 -4 0 -16 14 -26 30 -26 45 -201 216 -260 254
-28 18 -64 45 -81 60 -16 14 -35 26 -42 26 -6 0 -18 7 -27 15 -22 22 -165 95
-186 95 -9 0 -29 9 -43 20 -14 11 -34 20 -44 20 -11 0 -38 9 -61 20 -22 11
-54 20 -70 20 -15 0 -33 5 -40 12 -12 12 -84 26 -187 34 -33 3 -64 10 -69 15
-18 17 -421 8 -526 -11z"/>
</g>
</svg>
