<?xml version="1.0" standalone="no"?>
<!DOCTYPE svg PUBLIC "-//W3C//DTD SVG 20010904//EN"
 "http://www.w3.org/TR/2001/REC-SVG-20010904/DTD/svg10.dtd">
<svg version="1.0" xmlns="http://www.w3.org/2000/svg"
 width="3840.000000pt" height="3414.000000pt" viewBox="0 0 3840.000000 3414.000000"
 preserveAspectRatio="xMidYMid meet">
<metadata>
Created by potrace 1.16, written by Peter Selinger 2001-2019
</metadata>
<g transform="translate(0.000000,3414.000000) scale(0.100000,-0.100000)"
fill="#000000" stroke="none">
<path d="M15355 31944 c-275 -38 -378 -66 -560 -154 -269 -130 -411 -254 -735
-645 -19 -23 -69 -82 -110 -130 -41 -48 -93 -109 -115 -136 -22 -26 -114 -134
-205 -239 -91 -106 -181 -212 -200 -235 -19 -23 -93 -111 -165 -195 -71 -84
-159 -188 -195 -230 -36 -42 -126 -148 -200 -235 -74 -86 -148 -174 -165 -195
-16 -21 -73 -87 -125 -147 -52 -61 -140 -163 -195 -228 -231 -272 -252 -298
-531 -625 -54 -63 -101 -117 -104 -120 -3 -3 -26 -30 -50 -60 -41 -50 -140
-167 -420 -495 -52 -61 -140 -165 -195 -231 -55 -65 -118 -139 -141 -164 -22
-25 -76 -88 -119 -140 -44 -52 -109 -129 -145 -170 -36 -41 -86 -100 -110
-130 -25 -30 -90 -107 -145 -171 -55 -63 -158 -185 -230 -269 -71 -85 -184
-218 -250 -295 -113 -131 -292 -343 -449 -529 -37 -44 -126 -148 -196 -231
-71 -82 -188 -220 -260 -305 -73 -85 -167 -195 -209 -245 -43 -49 -128 -151
-190 -225 -63 -74 -130 -153 -150 -175 -20 -22 -82 -94 -136 -160 -55 -66
-104 -125 -110 -131 -23 -24 -118 -135 -201 -235 -49 -58 -114 -135 -145 -170
-30 -35 -170 -199 -310 -363 -140 -165 -279 -329 -309 -364 -30 -36 -68 -82
-85 -102 -16 -21 -79 -95 -140 -166 -123 -143 -297 -347 -455 -534 -322 -380
-537 -632 -584 -685 -29 -33 -110 -129 -180 -212 l-127 -153 -2492 -2 -2492
-3 -85 -28 c-269 -90 -452 -272 -537 -535 l-28 -87 0 -940 0 -940 29 -90 c16
-49 32 -94 36 -100 5 -5 20 -32 35 -60 26 -47 119 -167 148 -190 95 -77 217
-147 298 -171 120 -36 146 -37 813 -43 l670 -6 12 -80 c7 -44 25 -168 39 -275
15 -107 44 -319 65 -470 21 -151 55 -392 75 -535 19 -143 42 -307 50 -365 18
-129 106 -759 146 -1050 16 -118 38 -276 49 -350 11 -74 33 -236 50 -360 17
-124 46 -335 65 -470 19 -135 50 -362 70 -505 52 -380 93 -672 115 -825 11
-74 33 -236 50 -360 16 -124 39 -288 50 -365 34 -234 69 -485 80 -575 6 -47
17 -128 25 -180 16 -103 26 -181 80 -575 20 -143 42 -305 50 -360 8 -55 31
-217 51 -360 19 -143 48 -352 64 -465 16 -113 38 -275 50 -360 11 -85 27 -200
35 -255 8 -55 37 -264 65 -465 28 -201 73 -527 101 -725 27 -198 63 -459 80
-580 16 -121 39 -281 49 -355 32 -224 85 -599 150 -1080 17 -124 39 -283 50
-355 10 -71 26 -184 35 -250 23 -173 45 -310 62 -390 8 -38 18 -92 24 -120 5
-27 15 -72 23 -100 8 -27 21 -75 29 -105 15 -53 49 -154 66 -195 5 -11 16 -37
25 -58 9 -21 16 -42 16 -48 0 -21 169 -348 235 -454 82 -133 203 -297 314
-425 85 -98 314 -320 373 -361 18 -12 50 -38 71 -57 74 -65 319 -222 478 -305
331 -174 675 -282 1081 -339 l163 -23 12330 0 12330 0 167 23 c150 20 328 55
473 93 166 42 441 154 635 256 107 57 120 65 250 148 377 242 729 604 967 995
35 58 68 112 73 120 29 45 148 304 189 410 18 47 41 107 52 134 10 27 19 55
19 63 0 8 13 61 29 116 16 56 34 129 41 162 36 192 51 278 59 345 5 41 21 156
36 255 14 99 31 216 36 260 5 44 13 107 18 140 6 33 17 110 25 170 23 163 55
397 71 510 8 55 22 154 30 220 9 66 24 179 35 250 11 72 24 166 29 210 20 154
51 381 71 510 23 158 44 310 65 470 8 66 20 145 25 175 5 30 18 123 29 205 23
180 95 701 116 840 8 55 29 201 45 325 53 387 99 722 110 790 5 36 14 103 20
150 6 47 17 126 25 175 8 50 28 194 45 320 17 127 38 277 46 335 9 58 20 139
25 180 5 41 13 102 19 135 5 33 16 114 25 180 26 193 74 538 95 680 6 39 15
104 19 145 9 70 36 270 61 435 5 39 16 117 24 175 8 58 24 170 35 250 11 80
34 244 51 365 46 338 69 500 85 615 31 214 84 597 90 650 3 30 10 80 15 110 5
30 16 105 24 165 9 61 33 241 55 400 22 160 54 391 71 515 17 124 37 268 45
320 8 52 21 147 30 210 29 224 46 347 66 480 23 162 56 396 75 540 8 58 17
128 22 155 l7 50 670 6 c457 4 686 9 720 17 312 73 508 252 612 556 l28 81 0
940 0 940 -29 89 c-50 156 -141 290 -263 388 -96 77 -125 92 -249 135 l-109
38 -2492 3 -2492 2 -93 112 c-51 61 -113 135 -138 164 -25 29 -92 108 -149
176 -58 68 -157 183 -220 257 -64 74 -154 180 -201 236 -189 226 -236 282
-280 330 -25 28 -115 133 -200 234 -312 369 -347 410 -450 531 -58 67 -148
173 -200 235 -52 61 -140 165 -195 229 -55 65 -143 169 -195 230 -52 62 -156
184 -230 271 -152 178 -404 473 -685 805 -181 213 -340 400 -720 846 -93 109
-192 226 -220 259 -45 55 -136 162 -536 630 -80 94 -192 226 -250 294 -57 68
-137 162 -177 210 -41 47 -97 113 -125 147 -361 425 -466 549 -616 724 -96
113 -198 232 -226 265 -29 33 -166 195 -306 360 -140 165 -331 390 -424 499
-318 374 -470 552 -630 741 -88 104 -227 268 -310 365 -82 97 -235 277 -340
400 -532 625 -586 683 -760 801 -92 63 -298 168 -370 189 -242 70 -338 85
-530 84 -359 -2 -665 -104 -960 -323 -93 -69 -273 -257 -341 -356 -57 -84
-134 -221 -161 -290 -54 -136 -82 -237 -108 -393 -24 -141 -17 -406 15 -542
34 -151 37 -162 62 -230 72 -193 201 -401 362 -580 23 -25 100 -115 171 -200
72 -84 198 -233 280 -330 210 -247 219 -257 513 -604 145 -171 289 -340 321
-376 31 -36 79 -92 106 -125 28 -33 115 -136 195 -230 80 -93 159 -186 175
-206 17 -20 156 -184 310 -365 320 -376 319 -374 481 -566 67 -79 219 -258
338 -398 120 -140 236 -277 259 -304 23 -28 58 -68 77 -90 20 -23 74 -86 120
-141 46 -55 87 -102 90 -105 3 -3 25 -30 50 -60 25 -30 56 -66 69 -80 13 -14
51 -59 84 -100 34 -41 106 -127 162 -191 55 -63 134 -155 175 -204 191 -226
543 -641 621 -731 47 -54 142 -166 212 -249 69 -82 149 -177 178 -210 28 -33
121 -143 207 -244 87 -102 190 -223 231 -270 40 -47 115 -135 166 -196 177
-211 347 -411 425 -500 43 -49 120 -140 171 -201 200 -236 409 -482 468 -548
48 -55 59 -72 47 -78 -8 -4 -4189 -7 -9292 -6 -7161 2 -9278 6 -9281 15 -2 6
20 38 49 70 67 74 139 157 220 254 35 42 102 120 149 175 47 54 132 154 190
222 261 310 306 362 519 611 96 112 197 232 224 265 28 34 106 126 176 206 69
80 170 198 225 264 55 65 132 155 170 201 39 45 106 124 149 176 44 52 154
181 245 288 91 107 210 247 264 310 54 64 129 152 167 196 37 44 123 145 191
225 67 80 148 174 179 210 31 36 105 123 165 195 113 134 123 147 196 230 24
28 100 117 169 199 140 166 164 194 341 402 70 82 155 183 190 224 34 41 92
109 128 151 36 41 112 129 167 195 123 145 222 261 509 599 415 488 520 612
710 835 180 212 245 289 489 575 660 775 673 791 742 905 117 196 168 333 214
584 43 232 17 540 -65 766 -87 240 -186 403 -349 577 -239 254 -538 413 -896
478 -83 16 -326 27 -385 19z m17719 -13829 c3 -8 -1 -45 -9 -83 -7 -37 -21
-125 -30 -197 -9 -71 -23 -173 -30 -225 -8 -52 -26 -180 -40 -285 -37 -273
-45 -332 -56 -405 -6 -36 -14 -96 -19 -135 -4 -38 -15 -117 -24 -175 -8 -58
-29 -206 -46 -330 -16 -124 -39 -288 -50 -365 -11 -77 -34 -239 -50 -360 -17
-121 -37 -263 -45 -315 -7 -52 -16 -115 -19 -140 -3 -25 -17 -124 -31 -220
-13 -96 -38 -276 -55 -400 -17 -124 -39 -286 -50 -360 -10 -74 -31 -220 -45
-325 -15 -104 -37 -266 -50 -360 -13 -93 -38 -271 -55 -395 -17 -124 -40 -287
-51 -363 -11 -76 -24 -170 -29 -210 -4 -39 -15 -119 -24 -177 -24 -166 -92
-659 -176 -1270 -17 -118 -39 -278 -50 -355 -31 -219 -70 -503 -80 -580 -5
-38 -22 -167 -39 -285 -17 -118 -38 -264 -46 -325 -8 -60 -26 -189 -40 -285
-13 -96 -36 -260 -50 -365 -14 -104 -35 -248 -45 -320 -10 -71 -22 -155 -25
-185 -4 -30 -10 -80 -15 -110 -9 -50 -51 -353 -116 -830 -14 -102 -34 -243
-44 -315 -10 -71 -33 -233 -50 -360 -17 -126 -39 -288 -50 -360 -10 -71 -33
-233 -50 -360 -17 -126 -37 -270 -45 -320 -8 -49 -18 -124 -21 -165 -4 -41
-11 -85 -15 -98 l-9 -22 -12102 2 -12103 3 -7 40 c-4 22 -16 108 -27 190 -27
204 -78 571 -101 735 -11 74 -31 216 -44 315 -14 99 -48 342 -75 540 -28 198
-55 396 -60 440 -6 44 -17 125 -25 180 -17 114 -44 305 -116 825 -28 201 -61
444 -75 540 -29 207 -116 832 -150 1080 -14 96 -49 353 -79 570 -31 217 -74
528 -96 690 -22 162 -61 441 -86 620 -25 179 -58 422 -74 540 -17 118 -39 276
-50 350 -10 74 -33 236 -50 360 -17 124 -39 288 -50 365 -19 133 -31 219 -115
830 -19 143 -40 287 -45 320 -5 33 -23 161 -40 285 -60 440 -81 587 -100 720
-10 74 -31 221 -45 325 -14 105 -37 267 -50 360 -13 94 -37 271 -54 395 -17
124 -35 254 -41 290 -5 36 -28 200 -50 365 -22 165 -47 334 -54 374 -8 41 -12
81 -9 88 4 11 2484 13 13873 13 12342 0 13868 -2 13874 -15z"/>
<path d="M11640 16004 c-78 -8 -233 -34 -285 -50 -160 -47 -310 -109 -385
-158 -19 -12 -75 -49 -125 -81 -106 -70 -288 -246 -366 -355 -159 -221 -232
-392 -291 -680 l-23 -115 0 -2800 c0 -2287 2 -2814 13 -2875 22 -122 53 -253
67 -285 7 -16 17 -43 21 -60 21 -88 162 -336 252 -445 100 -120 294 -292 392
-348 19 -10 59 -33 88 -51 29 -17 55 -31 57 -31 3 0 28 -11 57 -25 305 -143
702 -175 1048 -85 129 34 191 57 330 125 85 41 137 74 240 153 283 218 480
515 570 862 53 202 50 33 50 3049 0 2749 0 2798 -20 2911 -27 156 -44 230 -62
265 -8 17 -18 43 -22 59 -10 42 -95 209 -151 296 -100 157 -262 324 -428 443
-90 64 -287 164 -387 196 -36 11 -79 26 -97 31 -106 35 -414 66 -543 54z"/>
<path d="M19085 16004 c-229 -25 -391 -69 -570 -155 -111 -54 -193 -103 -275
-165 -87 -65 -263 -242 -322 -324 -122 -170 -223 -384 -262 -555 -49 -221 -46
-34 -46 -3044 0 -2470 2 -2817 15 -2900 39 -239 121 -452 244 -636 30 -44 57
-82 60 -85 3 -3 20 -23 36 -45 65 -88 227 -236 334 -307 296 -195 563 -278
902 -278 243 0 465 49 677 150 46 22 85 40 88 40 7 0 170 108 186 123 7 7 31
25 53 41 22 17 79 69 126 117 242 245 388 536 444 884 13 78 15 477 15 2890 0
2716 -1 2803 -19 2910 -35 200 -66 296 -147 459 -113 225 -300 445 -504 590
-101 73 -293 171 -400 205 -36 11 -79 26 -97 31 -105 35 -420 66 -538 54z"/>
<path d="M26530 16004 c-267 -25 -492 -97 -709 -227 -121 -72 -187 -124 -299
-236 -141 -139 -222 -250 -308 -422 -78 -155 -105 -239 -144 -453 -20 -109
-20 -137 -17 -2950 4 -3058 0 -2833 50 -3031 66 -259 215 -514 417 -713 143
-141 243 -211 435 -305 221 -109 377 -146 637 -154 140 -4 198 -2 280 12 181
30 316 71 449 136 44 22 82 39 84 39 3 0 42 24 88 53 245 159 433 366 562 618
106 207 158 399 176 649 6 96 9 1064 7 2845 l-3 2700 -23 112 c-27 137 -43
198 -75 283 -74 197 -199 398 -343 549 -201 211 -411 338 -731 442 -107 34
-408 64 -533 53z"/>
</g>
</svg>
