<?xml version="1.0" standalone="no"?>
<!DOCTYPE svg PUBLIC "-//W3C//DTD SVG 20010904//EN"
 "http://www.w3.org/TR/2001/REC-SVG-20010904/DTD/svg10.dtd">
<svg version="1.0" xmlns="http://www.w3.org/2000/svg"
 width="3840.000000pt" height="3361.000000pt" viewBox="0 0 3840.000000 3361.000000"
 preserveAspectRatio="xMidYMid meet">
<metadata>
Created by potrace 1.16, written by Peter Selinger 2001-2019
</metadata>
<g transform="translate(0.000000,3361.000000) scale(0.100000,-0.100000)"
fill="#000000" stroke="none">
<path d="M12665 33359 c-170 -4 -380 -12 -466 -18 -273 -18 -770 -126 -1001
-217 -75 -30 -139 -54 -142 -54 -8 0 -209 -99 -271 -135 -33 -19 -65 -34 -72
-35 -16 0 -207 -110 -211 -121 -2 -5 -9 -9 -16 -9 -7 0 -32 -13 -54 -30 -23
-16 -44 -30 -47 -30 -5 0 -122 -84 -152 -110 -7 -5 -15 -10 -18 -10 -5 0 -64
-39 -75 -50 -3 -3 -23 -18 -46 -33 -22 -15 -49 -35 -60 -45 -10 -10 -49 -41
-85 -69 -37 -28 -82 -64 -100 -81 -19 -16 -79 -70 -134 -120 -55 -49 -136
-129 -180 -178 -44 -49 -95 -103 -112 -121 -18 -17 -33 -38 -33 -45 0 -8 -8
-21 -17 -29 -10 -9 -31 -32 -48 -52 -16 -20 -43 -52 -60 -71 -16 -19 -41 -49
-55 -67 -14 -18 -33 -40 -42 -48 -10 -9 -18 -22 -18 -31 0 -8 -13 -26 -30 -40
-16 -14 -30 -28 -30 -33 0 -8 -36 -62 -57 -84 -11 -12 -97 -137 -118 -171 -6
-9 -22 -35 -36 -57 -14 -22 -34 -58 -45 -80 -10 -22 -24 -46 -31 -53 -7 -7
-13 -22 -13 -31 0 -10 -7 -24 -15 -31 -9 -7 -13 -15 -11 -18 6 -5 -63 -140
-81 -160 -7 -7 -13 -20 -13 -28 0 -8 -8 -27 -18 -42 -32 -48 -42 -66 -58 -102
-8 -19 -21 -48 -29 -65 -28 -62 -45 -112 -60 -175 -9 -36 -28 -99 -44 -140
-39 -103 -66 -199 -86 -305 -9 -49 -35 -144 -56 -210 -49 -149 -58 -202 -65
-385 -3 -80 -14 -208 -24 -285 -30 -222 -35 -418 -15 -560 10 -66 21 -158 26
-205 20 -227 40 -391 53 -455 8 -38 19 -95 26 -125 6 -30 15 -73 20 -95 4 -22
11 -58 15 -80 4 -22 10 -49 15 -60 5 -11 16 -46 25 -77 8 -31 20 -60 25 -63 6
-3 10 -15 10 -26 0 -11 9 -40 20 -65 11 -24 23 -59 27 -77 3 -17 11 -39 18
-47 7 -8 16 -35 20 -60 4 -25 14 -54 21 -65 8 -11 14 -27 14 -37 0 -9 18 -51
40 -93 22 -42 40 -82 40 -90 0 -8 9 -24 20 -35 11 -11 20 -28 20 -38 0 -10 16
-45 36 -78 20 -32 42 -70 48 -84 6 -14 28 -50 47 -80 20 -30 61 -103 92 -162
30 -60 76 -132 101 -160 50 -57 55 -76 28 -101 -48 -44 -291 -129 -419 -147
-88 -12 -178 -37 -338 -95 -71 -26 -175 -62 -230 -80 -55 -18 -135 -49 -178
-69 -42 -20 -83 -36 -90 -36 -6 0 -21 -7 -31 -15 -11 -8 -28 -15 -39 -15 -10
0 -39 -9 -65 -19 -26 -10 -78 -32 -117 -47 -38 -15 -76 -32 -83 -37 -7 -6 -15
-7 -18 -4 -3 3 -27 -8 -54 -24 -26 -16 -51 -29 -57 -29 -5 0 -33 -11 -61 -25
-29 -14 -58 -25 -66 -25 -8 0 -21 -6 -28 -14 -8 -7 -28 -17 -45 -20 -18 -4
-37 -14 -44 -22 -6 -8 -18 -14 -27 -14 -8 0 -44 -13 -79 -30 -34 -16 -70 -30
-77 -30 -8 0 -18 -4 -21 -10 -3 -5 -13 -10 -22 -10 -9 0 -34 -9 -57 -19 -23
-11 -63 -29 -91 -41 -27 -12 -57 -28 -65 -35 -8 -7 -26 -16 -40 -19 -19 -6
-21 -5 -10 3 8 6 11 11 6 11 -5 0 -17 -6 -25 -13 -9 -7 -36 -22 -61 -32 -25
-10 -81 -35 -125 -55 -44 -21 -123 -54 -175 -74 -52 -20 -122 -50 -156 -67
-34 -16 -66 -29 -71 -29 -12 0 -80 -28 -163 -68 -30 -14 -58 -25 -62 -24 -3 1
-55 -23 -114 -53 -60 -30 -116 -55 -125 -55 -9 0 -19 -7 -23 -15 -3 -8 -13
-15 -22 -15 -9 0 -28 -7 -42 -15 -15 -8 -115 -57 -222 -109 -223 -109 -310
-156 -356 -191 -18 -14 -38 -25 -44 -25 -6 0 -29 -12 -51 -26 -23 -14 -62 -37
-87 -51 -26 -14 -58 -36 -73 -49 -14 -13 -28 -24 -32 -24 -12 0 -120 -73 -166
-112 -24 -21 -48 -38 -53 -38 -12 0 -108 -73 -108 -82 0 -4 -6 -8 -14 -8 -7 0
-19 -7 -26 -15 -7 -8 -21 -15 -31 -15 -11 0 -19 -4 -19 -10 0 -12 -37 -50 -48
-50 -10 0 -44 -26 -83 -62 -16 -16 -33 -28 -37 -28 -10 0 -92 -72 -169 -147
-35 -35 -67 -63 -70 -63 -32 0 -643 -618 -643 -651 0 -5 -5 -7 -10 -4 -6 3
-14 -4 -19 -17 -6 -13 -35 -48 -65 -78 -31 -29 -56 -60 -56 -67 0 -7 -7 -13
-15 -13 -8 0 -15 -7 -15 -15 0 -8 -4 -15 -9 -15 -5 0 -14 -13 -21 -30 -7 -16
-16 -30 -21 -30 -5 0 -9 -7 -9 -15 0 -8 -7 -15 -15 -15 -8 0 -15 -6 -15 -13 0
-8 -8 -23 -18 -35 -9 -11 -27 -34 -39 -50 -12 -16 -34 -42 -48 -58 -36 -41
-40 -47 -48 -66 -3 -10 -11 -18 -17 -18 -5 0 -10 -6 -10 -13 0 -12 -9 -26 -50
-74 -5 -7 -10 -16 -10 -22 0 -5 -7 -11 -15 -15 -8 -3 -15 -14 -15 -24 0 -11
-7 -25 -15 -32 -8 -7 -15 -18 -15 -24 0 -6 -14 -24 -30 -39 -17 -16 -30 -34
-30 -41 0 -7 -19 -41 -43 -77 -24 -35 -46 -71 -50 -79 -4 -8 -16 -28 -27 -45
-11 -16 -25 -42 -31 -57 -6 -16 -14 -28 -18 -28 -4 0 -18 -19 -30 -42 -12 -24
-45 -83 -72 -133 -64 -117 -129 -253 -129 -271 0 -8 -9 -22 -20 -31 -11 -10
-20 -23 -20 -29 0 -6 -18 -48 -40 -93 -22 -45 -40 -88 -40 -95 0 -7 -9 -23
-20 -36 -11 -13 -20 -29 -20 -37 0 -7 -15 -46 -34 -86 -19 -40 -37 -83 -41
-97 -4 -14 -24 -61 -45 -105 -56 -121 -77 -167 -85 -195 -8 -27 -53 -135 -90
-215 -36 -79 -59 -133 -105 -245 -24 -58 -58 -137 -77 -175 -18 -39 -33 -75
-33 -81 0 -6 -11 -31 -24 -56 -13 -24 -27 -55 -31 -69 -4 -13 -31 -75 -61
-137 -30 -62 -54 -119 -54 -128 0 -9 -7 -28 -15 -42 -15 -27 -43 -104 -95
-262 -15 -47 -39 -111 -54 -144 -14 -32 -26 -66 -26 -75 0 -9 -14 -79 -31
-156 -18 -77 -35 -169 -39 -205 -4 -36 -15 -108 -26 -160 -15 -80 -18 -143
-18 -400 0 -194 4 -334 12 -385 30 -195 46 -275 52 -275 4 0 11 -21 15 -47 13
-92 70 -318 85 -338 4 -5 13 -28 20 -50 12 -37 49 -133 70 -180 5 -11 12 -31
15 -45 8 -29 36 -93 44 -100 8 -7 30 -42 36 -57 12 -31 17 -40 40 -78 13 -22
31 -57 40 -78 10 -20 23 -37 31 -37 9 0 14 -11 14 -30 0 -19 5 -30 14 -30 7 0
17 -8 20 -17 11 -30 34 -66 60 -94 14 -15 26 -37 26 -48 0 -12 6 -21 14 -21 8
0 16 -10 20 -23 3 -13 17 -36 31 -51 14 -15 25 -31 25 -35 0 -5 7 -12 16 -15
8 -3 13 -10 10 -15 -4 -5 4 -18 16 -28 13 -10 35 -34 49 -54 27 -35 258 -270
377 -381 33 -32 68 -58 76 -58 9 0 16 -7 16 -15 0 -8 4 -15 10 -15 12 0 104
-69 108 -81 2 -5 10 -9 18 -9 8 0 14 -4 14 -8 0 -10 124 -92 139 -92 6 0 11
-4 11 -10 0 -5 5 -10 10 -10 9 0 66 -36 80 -50 14 -15 61 -40 75 -40 8 0 15
-7 15 -15 0 -10 10 -15 30 -15 20 0 30 -5 30 -15 0 -8 6 -15 13 -15 7 0 53
-20 101 -45 49 -25 95 -45 103 -45 8 0 27 -6 41 -13 15 -8 44 -21 65 -30 20
-9 54 -24 75 -33 20 -8 50 -22 65 -30 16 -8 36 -14 45 -14 9 0 30 -7 47 -16
16 -8 49 -18 74 -21 36 -5 41 -8 26 -15 -13 -5 -2 -7 30 -3 29 3 44 1 37 -4
-9 -5 16 -14 70 -24 46 -9 148 -30 228 -47 371 -77 1045 -58 1335 37 44 15 90
26 103 25 13 -1 20 2 17 8 -3 6 0 10 7 10 46 1 156 23 175 35 12 8 33 15 47
15 13 0 38 11 54 25 17 14 39 25 50 25 12 0 24 5 27 10 9 15 83 49 121 56 18
3 38 12 45 20 6 8 19 14 28 15 9 0 30 9 46 20 17 10 45 26 63 34 17 8 32 20
32 25 0 6 11 10 24 10 13 0 29 6 35 14 6 8 26 20 44 27 42 16 121 72 177 125
88 83 178 145 237 164 32 10 65 20 73 24 19 8 21 -10 22 -170 1 -96 -2 -127
-16 -155 -21 -40 -70 -172 -93 -246 -9 -29 -20 -53 -24 -53 -5 0 -9 -9 -9 -20
0 -11 -11 -45 -25 -76 -14 -31 -25 -64 -25 -74 0 -10 -11 -42 -25 -72 -14 -29
-25 -61 -25 -70 0 -9 -6 -29 -14 -45 -29 -58 -70 -169 -96 -261 -10 -34 -42
-113 -73 -175 -30 -61 -63 -143 -72 -182 -9 -38 -26 -87 -36 -107 -10 -21 -19
-46 -19 -56 0 -10 -3 -22 -7 -26 -4 -4 -19 -42 -34 -84 -51 -150 -82 -238
-100 -277 -10 -22 -21 -52 -24 -67 -4 -16 -11 -28 -15 -28 -4 0 -12 -17 -18
-37 -6 -21 -19 -63 -31 -93 -11 -30 -29 -80 -41 -110 -11 -30 -20 -63 -20 -74
0 -10 -14 -49 -31 -85 -69 -146 -77 -168 -84 -208 -4 -24 -10 -43 -14 -43 -4
0 -12 -17 -18 -37 -18 -64 -138 -382 -183 -488 -10 -22 -21 -56 -25 -75 -6
-34 -11 -45 -54 -142 -12 -26 -21 -54 -21 -63 0 -9 -6 -26 -14 -38 -8 -12 -17
-38 -21 -57 -4 -19 -14 -51 -22 -70 -8 -19 -26 -62 -40 -95 -14 -33 -31 -73
-39 -90 -26 -60 -44 -108 -58 -159 -14 -48 -49 -145 -96 -266 -12 -30 -34 -91
-49 -135 -15 -44 -38 -110 -51 -147 -13 -37 -28 -64 -33 -61 -6 3 -7 1 -3 -6
7 -11 -12 -81 -25 -91 -4 -3 -12 -24 -18 -47 -6 -23 -16 -45 -21 -48 -6 -3
-10 -14 -10 -24 0 -10 -7 -32 -15 -47 -8 -16 -15 -38 -15 -49 0 -11 -7 -29
-15 -39 -8 -11 -15 -33 -15 -48 0 -16 -7 -31 -15 -34 -10 -4 -15 -20 -15 -44
0 -24 -5 -40 -15 -44 -8 -3 -15 -17 -15 -31 0 -14 -4 -25 -10 -25 -5 0 -12
-16 -16 -35 -3 -19 -10 -35 -15 -35 -5 0 -12 -18 -15 -39 -4 -22 -13 -42 -20
-45 -8 -3 -14 -14 -14 -24 0 -10 -13 -32 -30 -48 -16 -16 -30 -35 -30 -41 0
-7 -7 -13 -15 -13 -8 0 -15 -7 -15 -15 0 -8 -7 -15 -15 -15 -8 0 -15 -7 -15
-15 0 -8 -7 -15 -15 -15 -8 0 -15 -7 -15 -15 0 -8 -7 -15 -15 -15 -8 0 -15 -5
-15 -11 0 -6 -17 -28 -38 -48 -20 -20 -62 -65 -92 -100 -30 -35 -81 -89 -112
-120 -32 -30 -58 -61 -58 -68 0 -7 -7 -13 -15 -13 -8 0 -15 -7 -15 -15 0 -8
-7 -15 -15 -15 -8 0 -15 -4 -15 -10 0 -13 -37 -50 -50 -50 -5 0 -10 -4 -10
-10 0 -14 -29 -47 -142 -164 -54 -56 -98 -107 -98 -113 0 -7 -7 -13 -15 -13
-8 0 -15 -4 -15 -9 0 -5 -26 -36 -57 -68 -32 -33 -70 -73 -84 -91 -14 -17 -62
-70 -107 -116 -45 -47 -82 -90 -82 -96 0 -5 -7 -10 -15 -10 -8 0 -15 -7 -15
-15 0 -8 -7 -15 -15 -15 -8 0 -15 -4 -15 -10 0 -12 -37 -50 -49 -50 -5 0 -12
-11 -15 -25 -4 -14 -18 -31 -31 -37 -14 -6 -25 -14 -25 -18 0 -4 -14 -21 -30
-38 -17 -18 -30 -39 -30 -47 0 -8 -5 -15 -12 -15 -13 0 -108 -97 -108 -111 0
-5 -7 -9 -15 -9 -8 0 -15 -4 -15 -10 0 -5 -13 -24 -30 -42 -16 -18 -55 -62
-87 -97 -32 -36 -66 -73 -75 -83 -10 -10 -18 -22 -18 -28 0 -5 -7 -10 -15 -10
-8 0 -15 -7 -15 -15 0 -8 -7 -15 -15 -15 -8 0 -15 -6 -15 -13 0 -14 -35 -47
-50 -47 -6 0 -10 -6 -10 -14 0 -8 -13 -25 -28 -38 -15 -13 -31 -31 -35 -41 -3
-9 -18 -22 -32 -27 -14 -5 -25 -16 -25 -23 0 -8 -55 -70 -122 -138 -68 -68
-141 -146 -163 -173 -48 -58 -68 -79 -212 -229 -62 -64 -113 -121 -113 -126 0
-5 -9 -13 -21 -16 -11 -4 -25 -17 -31 -30 -5 -12 -21 -28 -33 -33 -13 -6 -25
-21 -27 -34 -2 -14 -12 -24 -28 -28 -14 -3 -25 -11 -25 -18 0 -6 -12 -23 -27
-37 -16 -14 -28 -34 -28 -43 0 -10 -10 -22 -23 -27 -12 -6 -26 -20 -32 -32 -5
-13 -13 -23 -17 -23 -12 0 -48 -38 -48 -50 0 -5 -7 -10 -15 -10 -8 0 -15 -5
-15 -11 0 -5 -11 -22 -25 -37 -61 -68 -95 -110 -95 -121 0 -6 -7 -11 -15 -11
-8 0 -15 -9 -15 -20 0 -11 -11 -27 -25 -36 -14 -9 -28 -27 -31 -40 -3 -13 -12
-24 -20 -24 -8 0 -14 -5 -14 -11 0 -7 -10 -21 -22 -33 -24 -22 -68 -81 -68
-90 0 -2 -16 -22 -36 -43 -20 -21 -42 -50 -50 -65 -8 -16 -18 -28 -22 -28 -4
0 -16 -19 -27 -43 -11 -23 -32 -62 -47 -86 -16 -25 -28 -53 -28 -62 0 -9 -7
-19 -15 -23 -8 -3 -15 -15 -15 -26 0 -12 -7 -28 -15 -36 -8 -9 -15 -24 -15
-35 0 -11 -11 -32 -25 -46 -13 -15 -27 -40 -31 -57 -3 -16 -13 -36 -20 -44 -8
-7 -14 -22 -14 -32 0 -10 -7 -20 -15 -24 -8 -3 -15 -14 -15 -25 0 -11 -5 -23
-10 -26 -6 -3 -10 -21 -10 -40 0 -30 -22 -117 -52 -205 -7 -19 -15 -60 -19
-90 -5 -30 -15 -91 -24 -135 -9 -44 -20 -145 -25 -225 -5 -80 -17 -247 -26
-372 -15 -192 -15 -252 -5 -400 6 -95 11 -226 11 -291 0 -65 4 -116 9 -113 4
3 11 -38 15 -92 3 -53 13 -124 22 -157 9 -33 19 -87 23 -121 3 -34 12 -68 18
-76 7 -8 15 -48 19 -89 4 -41 13 -81 20 -90 8 -9 11 -18 8 -22 -4 -4 1 -18 10
-31 9 -14 16 -32 16 -41 0 -9 7 -18 15 -21 8 -4 15 -18 15 -34 0 -15 11 -40
25 -56 14 -16 24 -37 21 -46 -2 -10 0 -21 5 -24 6 -3 19 -28 31 -55 12 -27 25
-49 30 -49 4 0 8 -13 8 -30 0 -16 5 -30 11 -30 17 0 48 -43 49 -66 0 -12 14
-31 30 -44 18 -13 30 -32 30 -45 0 -13 7 -25 15 -29 8 -3 15 -15 15 -26 0 -11
7 -23 15 -26 8 -4 15 -11 15 -18 0 -6 9 -19 20 -29 11 -9 20 -24 20 -32 0 -8
5 -15 10 -15 6 0 10 -7 10 -15 0 -8 6 -15 13 -15 6 -1 23 -24 37 -53 14 -29
35 -56 48 -62 15 -7 22 -18 22 -37 0 -16 5 -28 11 -28 6 0 25 -16 42 -37 18
-20 55 -60 82 -88 28 -29 58 -61 67 -71 10 -11 50 -48 89 -84 39 -36 87 -80
106 -98 18 -17 42 -32 53 -32 11 0 20 -8 22 -21 2 -12 12 -27 22 -33 10 -6 32
-23 48 -38 16 -16 33 -28 38 -28 6 0 10 -7 10 -15 0 -8 7 -15 15 -15 8 0 15
-4 15 -10 0 -5 12 -13 27 -16 15 -4 39 -20 53 -36 13 -15 35 -28 47 -28 14 0
23 -6 23 -15 0 -9 9 -15 25 -15 14 0 25 -3 25 -8 0 -7 9 -13 66 -42 16 -8 35
-20 42 -27 7 -7 20 -13 28 -13 8 0 17 -7 20 -15 4 -8 13 -15 21 -15 8 0 29
-11 46 -24 18 -14 44 -28 60 -31 15 -4 27 -13 27 -21 0 -9 11 -14 30 -14 17 0
30 -4 30 -10 0 -5 6 -10 14 -10 7 0 34 -11 59 -24 25 -14 48 -22 50 -19 3 3
16 -2 29 -11 12 -9 35 -16 51 -16 15 0 30 -7 33 -15 4 -10 20 -15 44 -15 24 0
40 -5 44 -15 3 -8 16 -15 30 -15 14 0 28 -5 31 -10 3 -6 22 -10 41 -10 19 0
34 -4 34 -8 0 -5 26 -14 58 -21 31 -7 66 -18 77 -24 11 -6 47 -14 80 -18 112
-13 220 -30 250 -38 65 -19 326 -34 477 -28 84 4 214 9 288 12 136 6 307 31
325 46 5 5 28 9 52 9 23 0 57 7 75 14 40 18 146 48 251 71 42 10 77 21 77 26
0 5 14 9 30 9 18 0 33 6 36 15 4 8 16 15 28 15 12 0 31 7 43 15 12 9 26 15 30
14 4 -1 25 5 45 14 21 10 44 17 53 17 8 0 15 7 15 15 0 10 10 15 29 15 16 0
34 7 41 15 7 8 20 15 29 15 10 0 35 13 57 30 21 16 47 30 57 30 10 0 20 6 23
14 3 8 19 18 35 21 16 4 29 11 29 16 0 5 7 9 15 9 8 0 15 7 15 15 0 8 9 15 19
15 11 0 26 7 35 15 8 8 19 15 25 15 6 0 11 7 11 15 0 10 10 15 30 15 17 0 30
5 30 10 0 19 40 50 64 50 27 0 56 24 56 46 0 9 11 14 30 14 17 0 30 5 30 10 0
13 37 50 50 50 5 0 10 6 10 14 0 8 6 16 14 18 26 6 92 66 285 258 217 216 361
368 361 381 0 5 7 9 15 9 8 0 15 7 15 15 0 8 7 15 15 15 8 0 15 7 15 15 0 8 7
15 15 15 8 0 15 4 15 10 0 12 68 80 80 80 6 0 10 11 10 25 0 14 4 25 10 25 16
0 110 98 110 115 0 8 7 15 16 15 16 0 44 23 44 37 0 4 14 19 30 33 17 14 30
30 30 37 0 7 4 13 10 13 13 0 50 37 50 50 0 6 7 10 15 10 8 0 15 4 15 10 0 5
15 24 33 43 81 84 127 136 127 142 0 4 11 18 25 31 14 13 25 28 25 34 0 5 7
10 15 10 8 0 15 7 15 15 0 8 4 15 10 15 13 0 50 37 50 50 0 6 7 10 15 10 8 0
15 5 15 10 0 13 37 50 50 50 6 0 10 7 10 15 0 20 83 105 102 105 9 0 18 12 22
30 3 18 12 30 21 30 9 0 23 13 32 28 9 16 26 33 37 38 12 5 22 19 24 32 2 12
8 22 13 22 12 0 49 37 49 50 0 6 7 10 15 10 8 0 15 6 15 13 0 6 48 62 108 122
59 61 130 137 157 170 28 32 58 67 68 77 9 10 17 23 17 28 0 6 7 10 15 10 8 0
15 7 15 15 0 8 7 15 15 15 8 0 15 7 15 15 0 8 7 15 15 15 8 0 15 7 15 15 0 8
7 15 15 15 8 0 15 7 15 15 0 8 7 15 15 15 8 0 15 4 15 9 0 5 27 37 60 70 33
34 60 70 60 81 0 13 7 20 19 20 10 0 29 14 42 31 22 28 46 53 121 127 16 15
28 33 28 40 0 6 7 12 15 12 8 0 15 4 15 10 0 5 26 35 58 67 31 32 91 96 132
143 99 111 148 160 160 160 6 0 10 6 10 14 0 8 27 39 60 69 33 31 60 60 60 65
0 4 34 43 75 85 41 42 75 79 75 82 0 3 17 24 38 46 20 23 46 52 57 66 11 14
35 41 53 59 17 19 32 39 32 44 0 6 4 10 8 10 4 0 15 12 24 28 10 15 33 44 53
65 19 21 35 41 35 44 0 3 16 24 36 47 50 59 54 64 54 76 0 5 7 10 15 10 8 0
15 7 15 15 0 8 6 15 14 15 8 0 17 12 21 27 3 15 17 37 31 50 13 12 24 27 24
33 0 5 4 10 9 10 5 0 19 16 31 35 12 20 27 41 33 48 7 7 17 20 22 29 6 8 29
43 53 77 23 34 42 67 42 72 0 5 4 9 9 9 5 0 12 12 16 27 3 15 10 30 13 33 10
7 52 68 52 75 0 3 9 16 21 28 29 31 85 118 93 145 4 12 12 22 17 22 5 0 9 9 9
19 0 11 7 26 15 34 7 8 17 26 21 41 3 14 10 26 15 26 5 0 9 7 9 15 0 9 7 18
15 21 8 4 15 14 15 24 0 10 6 25 13 32 16 17 117 219 117 235 0 6 3 13 8 15 8
4 47 82 57 117 4 14 16 38 26 55 11 17 19 39 19 48 0 9 6 23 14 30 7 8 17 29
21 46 3 18 10 32 15 32 4 0 11 18 15 39 4 22 13 42 22 45 8 3 13 12 10 19 -2
6 8 34 22 62 31 61 48 106 62 165 5 25 32 91 59 147 28 57 50 107 50 111 0 11
90 257 165 452 31 80 63 168 72 195 20 67 118 318 148 380 13 28 27 62 31 78
3 15 12 27 19 27 7 0 16 11 19 24 3 13 18 31 32 41 23 15 30 15 52 4 37 -20
152 -135 152 -152 0 -9 10 -24 23 -34 12 -10 30 -31 41 -47 27 -43 209 -218
262 -253 14 -9 30 -27 35 -40 5 -14 17 -23 29 -23 11 0 24 -8 27 -18 4 -9 20
-30 35 -47 15 -16 28 -40 28 -52 0 -12 5 -25 10 -28 17 -10 41 -77 43 -117 1
-21 4 -32 8 -26 4 6 10 -14 13 -43 4 -30 16 -83 26 -119 10 -36 26 -103 36
-150 9 -47 20 -98 24 -115 4 -16 13 -64 20 -105 6 -41 20 -111 31 -155 11 -44
24 -100 29 -124 6 -25 14 -59 20 -75 23 -76 50 -195 50 -226 0 -18 11 -87 24
-154 13 -66 36 -186 51 -266 26 -140 55 -258 77 -310 6 -14 14 -54 19 -90 4
-36 15 -96 24 -135 8 -38 22 -110 29 -160 8 -49 15 -83 16 -75 5 41 75 -273
90 -407 11 -96 17 -123 30 -123 4 0 11 -21 15 -47 4 -27 24 -127 45 -223 52
-239 50 -231 54 -270 2 -19 14 -75 26 -125 23 -93 25 -101 59 -275 12 -58 30
-136 40 -175 28 -99 79 -328 91 -405 12 -78 40 -208 68 -310 11 -41 30 -110
41 -152 12 -43 21 -89 21 -103 0 -14 5 -25 10 -25 6 0 10 -10 10 -22 0 -29 23
-95 38 -110 7 -7 12 -23 12 -36 0 -13 6 -38 14 -55 7 -18 19 -45 26 -62 8 -16
13 -34 11 -38 -2 -11 49 -116 60 -123 5 -3 9 -16 9 -30 0 -14 7 -27 15 -30 8
-3 17 -21 21 -40 3 -19 10 -34 14 -34 5 0 12 -10 16 -22 4 -13 9 -25 13 -28
12 -10 41 -72 41 -89 0 -9 13 -28 30 -41 16 -14 29 -33 30 -42 0 -10 13 -31
29 -47 15 -16 31 -41 35 -55 3 -14 11 -26 16 -26 6 0 10 -7 10 -15 0 -8 7 -15
15 -15 8 0 15 -9 15 -20 0 -10 13 -33 29 -49 15 -16 31 -40 35 -54 3 -15 15
-27 31 -31 15 -4 25 -14 25 -24 0 -10 13 -29 30 -42 16 -14 29 -31 30 -37 0
-7 6 -13 13 -13 6 0 19 -15 26 -33 17 -36 317 -337 338 -337 7 0 22 -9 32 -19
11 -11 31 -27 45 -36 14 -10 26 -24 26 -31 0 -8 10 -14 22 -14 13 0 38 -17 60
-41 21 -22 50 -44 66 -49 15 -4 26 -12 24 -19 -1 -6 9 -11 21 -11 14 0 35 -13
50 -30 15 -16 34 -30 42 -30 16 0 34 -12 63 -42 9 -10 27 -18 39 -18 14 0 23
-6 23 -15 0 -8 5 -15 11 -15 6 0 17 -7 25 -15 9 -8 24 -15 34 -15 10 0 20 -7
24 -15 3 -8 13 -15 21 -15 9 0 23 -7 31 -15 9 -8 31 -15 50 -15 19 0 34 -5 34
-10 0 -6 8 -14 18 -17 9 -4 23 -13 30 -20 7 -7 22 -13 33 -13 10 0 19 -4 19
-9 0 -6 20 -13 45 -17 28 -4 45 -11 45 -20 0 -8 10 -14 24 -14 13 0 37 -6 53
-14 67 -33 86 -40 109 -38 14 1 23 -2 20 -6 -3 -5 31 -14 74 -21 44 -8 80 -17
80 -22 0 -4 17 -11 38 -14 20 -4 73 -17 117 -30 59 -17 168 -31 410 -54 297
-29 341 -31 444 -21 63 6 117 12 120 14 3 2 89 11 191 21 176 16 283 36 296
56 3 5 20 9 37 9 18 0 41 6 52 13 11 8 46 19 78 26 31 7 57 17 57 22 0 5 11 9
25 9 13 0 50 11 81 25 31 14 66 25 78 25 12 0 27 5 34 12 12 12 79 38 100 38
7 0 20 7 29 15 8 9 28 19 44 22 16 3 34 12 40 19 6 8 22 14 35 14 12 0 29 7
37 15 8 7 26 17 41 21 14 3 26 9 26 13 0 10 93 73 147 100 40 20 106 61 129
80 6 5 20 12 32 15 12 4 22 12 22 17 0 5 6 9 13 9 8 0 22 9 33 21 10 12 32 28
48 36 16 8 41 26 55 39 14 13 34 27 44 30 9 3 17 9 17 14 0 5 9 12 20 15 11 3
20 12 20 20 0 7 14 19 30 27 17 7 30 19 30 25 0 7 4 13 9 13 13 0 291 276 291
288 0 6 14 20 30 32 17 12 30 28 30 36 0 8 7 17 15 20 8 4 15 11 15 16 0 6 14
26 30 45 17 18 30 38 30 44 0 6 20 35 45 63 25 29 45 57 45 61 0 4 14 24 30
45 17 21 30 42 30 48 0 5 6 12 13 15 6 3 21 22 32 43 10 22 24 46 31 54 6 8
15 26 19 40 4 14 19 42 31 62 13 21 24 44 24 52 0 8 7 16 15 20 8 3 15 16 15
29 0 14 6 30 14 36 8 7 18 26 21 43 4 16 18 46 31 65 13 20 24 40 24 44 0 5
16 43 36 86 20 43 39 94 42 115 2 21 8 35 13 32 5 -3 9 6 9 20 0 25 23 136 40
191 5 17 21 64 34 105 31 93 53 223 61 360 4 58 13 160 21 227 12 98 12 153 4
280 -16 233 -67 648 -100 808 -16 77 -36 176 -45 220 -48 234 -88 418 -105
485 -29 112 -77 343 -99 472 -11 62 -31 149 -44 193 -29 96 -69 290 -74 360
-2 28 -14 86 -27 130 -33 110 -74 298 -82 370 -8 78 -49 274 -74 350 -10 33
-26 103 -35 155 -10 52 -34 160 -55 240 -22 80 -42 172 -45 205 -8 73 -49 280
-71 355 -21 72 -39 148 -70 295 -13 66 -29 136 -34 155 -5 19 -11 60 -15 90
-3 30 -10 69 -15 85 -8 26 -55 247 -80 375 -5 25 -18 71 -29 102 -11 32 -29
100 -40 150 -27 126 -67 277 -87 330 -9 23 -31 95 -49 158 -40 138 -64 208
-80 235 -7 11 -36 90 -65 175 -28 85 -78 210 -111 277 -32 67 -59 129 -59 136
0 8 -7 20 -15 27 -8 7 -15 20 -15 30 0 9 -11 34 -25 54 -14 20 -25 43 -25 50
0 6 -7 21 -15 32 -8 10 -15 26 -15 35 0 9 -8 27 -18 40 -11 13 -22 37 -26 52
-3 15 -15 35 -26 45 -11 9 -20 22 -20 29 0 6 -18 39 -40 72 -50 76 -137 242
-152 293 -9 30 -8 41 4 60 l15 23 294 0 c263 0 308 2 424 23 322 58 640 137
672 168 7 7 27 16 45 19 18 4 38 11 43 15 10 8 70 31 180 70 28 10 91 41 140
70 50 29 130 73 178 98 74 39 104 62 192 154 97 100 108 108 142 108 46 -1 75
-23 100 -76 17 -38 18 -191 20 -4124 1 -2247 4 -4110 8 -4140 3 -30 10 -122
14 -205 8 -137 39 -340 61 -390 5 -11 12 -36 15 -55 4 -19 15 -53 24 -75 19
-43 36 -101 53 -180 6 -27 16 -54 22 -60 6 -5 19 -27 28 -47 10 -21 22 -38 28
-38 5 0 10 -13 10 -30 0 -16 4 -30 9 -30 6 0 29 -37 52 -83 22 -45 46 -92 53
-104 6 -13 17 -23 24 -23 6 0 12 -5 12 -10 0 -14 41 -72 62 -88 9 -7 27 -33
40 -58 12 -26 28 -49 35 -51 7 -3 13 -9 13 -14 0 -13 156 -169 170 -169 6 0 9
-4 6 -8 -6 -10 67 -82 83 -82 6 0 10 -5 9 -10 -2 -6 15 -20 37 -33 22 -12 59
-41 83 -65 25 -23 49 -42 56 -42 6 0 28 -16 49 -35 21 -19 45 -35 53 -35 8 0
14 -4 14 -10 0 -5 7 -10 15 -10 8 0 15 -7 15 -15 0 -10 10 -15 28 -15 19 0 33
-9 47 -30 12 -19 29 -30 43 -30 12 0 48 -14 79 -30 31 -17 64 -30 74 -30 10 0
22 -6 26 -13 10 -16 58 -37 83 -37 11 0 20 -4 20 -10 0 -5 7 -10 15 -10 8 0
38 -11 67 -25 28 -14 69 -25 89 -25 21 0 50 -5 66 -11 28 -11 164 -41 363 -81
88 -17 159 -21 433 -27 254 -5 330 -9 336 -19 4 -7 11 -115 14 -240 7 -264 18
-365 53 -482 34 -112 102 -254 132 -273 6 -4 12 -14 12 -21 0 -7 10 -22 23
-33 12 -12 44 -44 72 -72 27 -28 55 -51 62 -51 6 0 16 -6 20 -13 4 -7 25 -22
47 -33 21 -10 52 -27 70 -36 81 -45 198 -82 316 -100 114 -18 186 -20 790 -23
846 -4 1069 8 1196 65 26 11 51 20 57 20 14 0 116 51 123 61 3 5 16 9 28 9 13
0 35 11 50 25 15 14 32 25 39 25 15 1 97 74 97 87 0 5 12 20 26 34 14 13 36
44 48 69 13 25 35 68 50 95 15 28 47 109 70 180 53 159 75 342 58 487 -9 86
-3 158 17 197 26 48 -62 46 2713 41 1428 -3 2600 -9 2605 -13 4 -5 8 -106 8
-225 0 -130 5 -249 13 -297 12 -77 47 -199 62 -220 5 -5 13 -37 20 -70 7 -35
26 -81 46 -112 19 -28 34 -54 34 -58 0 -15 47 -68 68 -76 12 -5 22 -16 22 -26
0 -21 79 -92 103 -93 9 0 17 -4 17 -10 0 -15 38 -50 55 -50 8 0 30 -10 48 -23
57 -39 220 -84 372 -103 123 -16 229 -18 870 -18 784 0 875 4 1033 50 211 61
427 213 513 361 20 35 40 59 44 55 4 -4 6 0 3 8 -2 8 8 42 23 75 47 104 106
380 94 444 -3 18 -7 109 -9 202 -3 141 -1 171 12 181 11 9 95 15 301 20 157 3
322 11 366 16 44 6 130 16 190 23 61 6 115 15 120 19 6 4 35 13 65 20 30 7 69
19 87 27 18 7 50 13 72 13 40 0 61 7 177 61 34 16 69 29 78 29 9 0 19 7 22 15
4 8 15 15 26 15 11 0 34 11 52 25 18 14 39 25 47 25 20 0 102 42 112 58 4 6
16 12 26 12 10 0 24 7 31 15 7 8 17 15 22 15 5 0 14 5 21 10 33 28 107 80 113
80 3 0 23 15 43 32 21 18 48 42 62 53 144 117 188 159 269 255 30 36 61 69 67
73 7 4 13 13 13 20 0 7 14 23 30 37 17 14 30 32 30 42 0 9 6 21 13 25 15 9
107 140 107 152 0 4 9 18 20 31 11 13 23 35 27 49 3 14 32 66 64 116 43 65 59
98 59 124 0 41 16 127 42 231 41 163 40 -56 35 6600 -4 4684 -4 4689 -41 4839
-8 31 -17 88 -21 126 -4 39 -11 90 -16 115 -11 48 -80 191 -135 278 -19 29
-34 55 -34 58 0 3 -11 19 -25 36 -14 16 -25 35 -25 42 0 7 -12 23 -26 37 -14
13 -33 38 -41 54 -9 17 -19 32 -22 35 -4 3 -22 25 -41 50 -55 71 -213 237
-265 278 -26 20 -84 68 -129 105 -44 37 -135 100 -201 140 -66 40 -121 75
-123 80 -2 4 -14 7 -27 7 -12 0 -28 7 -35 15 -7 8 -18 15 -24 15 -7 0 -48 17
-91 39 -93 45 -140 61 -380 136 -177 55 -262 66 -675 86 -251 12 -1766 7
-1841 -6 -34 -7 -36 -5 -43 25 -3 18 -6 1091 -6 2384 0 1426 -4 2400 -10 2476
-15 186 -37 319 -81 472 -21 75 -39 141 -39 148 0 6 -23 68 -51 138 -73 184
-119 282 -147 315 -9 10 -17 25 -18 34 -2 8 -14 28 -28 42 -14 15 -26 32 -26
38 0 16 -38 76 -82 129 -21 25 -38 52 -38 59 0 8 -9 19 -20 25 -10 6 -39 39
-64 73 -40 56 -94 109 -190 188 -17 13 -47 41 -67 62 -21 20 -42 37 -46 37 -4
0 -28 18 -53 41 -25 22 -76 59 -113 81 -38 23 -71 47 -74 54 -3 8 -21 16 -40
20 -19 4 -40 15 -46 25 -7 11 -17 19 -24 19 -6 0 -38 14 -70 30 -31 17 -61 30
-66 30 -5 0 -36 13 -70 29 -120 56 -183 80 -237 92 -30 6 -77 20 -105 30 -119
44 -261 70 -460 84 -168 13 -552 15 -2365 15 -1191 0 -2237 -5 -2325 -10 -198
-11 -511 -54 -585 -81 -30 -11 -86 -29 -124 -40 -38 -11 -82 -29 -97 -39 -15
-11 -31 -20 -36 -20 -4 0 -42 -16 -83 -36 -41 -20 -88 -44 -105 -52 -174 -85
-284 -157 -416 -274 -37 -32 -71 -58 -77 -58 -5 0 -68 -60 -139 -134 -122
-125 -225 -248 -283 -336 -70 -107 -119 -192 -149 -260 -18 -41 -46 -103 -62
-136 -16 -34 -29 -66 -29 -72 0 -6 -9 -29 -20 -49 -11 -21 -27 -79 -35 -128
-8 -50 -24 -112 -35 -140 -31 -78 -60 -273 -70 -475 -6 -110 -10 -1125 -9
-2499 1 -2211 0 -2315 -17 -2328 -21 -15 26 -14 -884 -11 -716 2 -753 2 -935
-7 -488 -24 -474 -23 -610 -60 -71 -20 -182 -47 -245 -61 -142 -31 -216 -64
-311 -141 -95 -77 -162 -118 -219 -133 l-45 -12 -57 62 c-53 59 -141 212 -141
245 0 8 -4 12 -7 10 -7 -4 -22 29 -98 212 -14 35 -28 61 -30 59 -2 -3 -20 27
-39 65 -20 38 -40 69 -45 69 -4 0 -8 6 -8 13 0 14 -88 140 -102 145 -5 2 -17
20 -28 40 -10 21 -30 48 -43 62 -13 14 -26 31 -28 37 -5 13 -69 91 -116 140
-18 18 -33 38 -33 43 0 6 -4 10 -10 10 -5 0 -10 7 -10 15 0 9 -15 30 -32 48
-18 18 -39 44 -46 58 -7 14 -81 94 -163 179 -82 85 -209 218 -282 294 -73 77
-193 203 -267 280 -74 78 -161 170 -192 206 -61 68 -69 77 -116 125 -33 33
-134 145 -169 188 -79 95 -119 184 -168 372 -40 158 -89 328 -139 485 -26 80
-57 186 -71 235 -13 50 -35 117 -50 149 -14 31 -40 105 -56 164 -17 59 -45
157 -64 217 -18 61 -39 129 -45 152 -6 24 -24 72 -40 109 -17 36 -30 72 -30
79 0 18 -55 194 -74 235 -8 19 -36 89 -61 155 -26 66 -66 170 -90 230 -24 61
-47 121 -51 135 -3 14 -10 30 -14 35 -4 6 -17 37 -31 70 -13 33 -39 89 -59
125 -19 36 -76 146 -125 245 -50 99 -95 185 -101 192 -6 6 -28 46 -49 90 -21
43 -57 107 -80 143 -24 36 -46 75 -49 88 -4 12 -11 22 -16 22 -4 0 -15 17 -23
38 -8 20 -24 45 -34 54 -30 28 -43 46 -43 63 0 8 -5 15 -10 15 -6 0 -16 12
-22 28 -7 15 -25 42 -40 60 -15 18 -28 38 -28 45 0 7 -10 24 -22 37 -13 14
-22 28 -20 32 1 5 -2 8 -8 8 -5 0 -10 7 -10 15 0 8 -18 33 -39 57 -22 23 -37
46 -35 50 3 4 -3 16 -13 26 -31 32 -63 72 -63 78 0 7 -67 91 -102 127 -16 16
-28 34 -28 42 0 7 -7 15 -15 19 -8 3 -15 12 -15 21 0 8 -7 15 -15 15 -8 0 -15
5 -15 11 0 6 -12 24 -27 40 -16 16 -46 52 -68 80 -22 28 -61 73 -87 100 -27
27 -48 53 -48 58 0 4 -43 52 -95 105 -52 54 -95 99 -95 102 0 8 -40 44 -50 44
-5 0 -10 7 -10 15 0 8 -3 15 -7 15 -10 0 -83 67 -83 75 0 4 -16 21 -36 38 -19
18 -88 83 -152 144 -64 62 -121 113 -126 113 -4 0 -25 17 -45 38 -20 21 -55
49 -76 62 -22 13 -42 26 -45 29 -13 14 -70 51 -80 51 -5 0 -10 4 -10 8 0 5
-28 29 -62 54 -35 26 -83 67 -107 92 l-44 45 78 81 c43 44 83 80 88 80 5 0 20
11 33 25 13 14 28 25 34 25 5 0 10 6 10 14 0 7 14 16 30 20 18 3 30 12 30 21
0 8 4 15 9 15 5 0 28 18 51 40 23 22 46 40 51 40 5 0 9 7 9 15 0 8 6 15 14 15
8 0 16 7 20 15 3 8 12 15 21 15 16 0 395 374 395 389 0 5 14 23 30 39 17 17
30 35 30 41 0 6 7 11 15 11 8 0 15 6 15 14 0 7 14 23 30 36 17 13 30 30 30 39
0 10 13 28 30 41 16 14 29 29 30 34 0 5 7 16 15 25 8 9 31 36 50 61 19 25 39
50 44 56 10 12 61 97 101 169 14 25 51 88 83 140 31 52 57 101 57 109 0 8 5
18 11 21 6 4 41 68 78 144 38 75 80 159 94 186 90 172 143 297 166 390 13 52
55 215 75 285 8 30 27 89 41 130 57 163 85 253 84 269 0 12 -2 12 -10 -4 -11
-23 -9 -6 15 115 17 91 43 437 52 690 7 190 -4 408 -32 640 -8 69 -19 168 -25
220 -12 119 -37 254 -54 300 -7 19 -32 107 -55 195 -44 170 -126 403 -185 528
-19 42 -35 80 -35 86 0 5 -7 22 -15 38 -8 15 -26 55 -41 88 -15 33 -33 64 -40
68 -8 4 -14 18 -14 31 0 13 -9 35 -20 49 -11 14 -20 35 -20 46 0 12 -4 21 -9
21 -5 0 -13 10 -17 22 -3 12 -19 39 -35 61 -16 22 -29 44 -29 50 0 5 -13 29
-30 54 -16 24 -30 46 -30 49 0 3 -5 10 -10 17 -20 23 -80 119 -80 128 0 5 -4
9 -10 9 -5 0 -10 7 -10 15 0 7 -6 18 -12 22 -17 10 -58 69 -58 82 0 5 -4 11
-8 13 -5 2 -46 53 -92 113 -46 61 -89 115 -94 121 -6 6 -27 31 -46 55 -46 56
-141 158 -212 227 -32 30 -58 61 -58 68 0 7 -8 15 -17 18 -10 4 -46 33 -81 66
-35 33 -67 60 -73 60 -5 0 -9 7 -9 15 0 8 -5 15 -10 15 -6 0 -23 11 -38 25
-15 14 -37 28 -49 31 -13 4 -23 12 -23 20 0 8 -6 14 -14 14 -8 0 -32 16 -53
36 -21 20 -50 42 -65 50 -15 8 -33 22 -40 32 -7 10 -31 29 -53 42 -22 13 -49
33 -60 44 -29 29 -82 66 -95 66 -5 0 -10 6 -10 14 0 8 -6 17 -12 20 -7 3 -26
15 -43 26 -16 11 -38 23 -47 26 -10 4 -18 10 -18 15 0 5 -6 9 -13 9 -8 0 -23
11 -36 24 -12 12 -40 29 -61 36 -22 7 -40 17 -40 21 0 4 -13 10 -30 14 -16 4
-30 10 -30 13 0 4 -20 15 -45 25 -25 11 -42 23 -39 28 3 5 -6 9 -20 9 -14 0
-69 23 -123 52 -54 28 -119 62 -145 75 -26 13 -50 28 -53 33 -3 6 -16 10 -29
10 -12 0 -26 4 -32 9 -10 10 -142 65 -267 111 -42 16 -112 34 -155 40 -42 6
-153 26 -247 45 -93 19 -222 41 -285 50 -234 31 -815 46 -1325 34z m615 -1943
c63 -8 133 -17 155 -19 94 -10 326 -61 399 -88 44 -16 88 -29 98 -29 10 0 18
-4 18 -9 0 -5 13 -12 30 -16 16 -4 32 -11 35 -16 4 -5 20 -9 36 -9 17 0 28 -4
24 -9 -6 -10 9 -16 68 -27 22 -4 37 -12 37 -20 0 -8 8 -14 18 -14 9 0 57 -20
107 -45 49 -25 95 -45 102 -45 7 0 13 -7 13 -15 0 -8 9 -15 19 -15 11 0 21 -3
23 -7 4 -9 65 -53 73 -53 6 0 23 -13 56 -42 10 -10 28 -18 39 -18 11 0 20 -7
20 -15 0 -8 7 -15 15 -15 8 0 15 -4 15 -10 0 -5 20 -21 45 -36 25 -14 45 -30
45 -35 0 -5 4 -9 10 -9 5 0 39 -28 74 -62 36 -35 86 -81 110 -103 25 -22 46
-46 46 -53 0 -7 11 -18 25 -24 14 -6 25 -15 25 -20 0 -5 16 -24 35 -44 19 -19
35 -37 35 -40 0 -3 11 -15 25 -28 14 -13 25 -27 25 -32 0 -5 16 -26 35 -47 19
-21 35 -42 35 -48 0 -5 3 -9 8 -9 4 0 12 -8 17 -19 6 -10 29 -46 53 -81 23
-34 42 -70 42 -81 0 -11 7 -22 15 -25 8 -4 15 -12 15 -20 0 -8 4 -14 9 -14 5
0 12 -13 16 -29 3 -16 13 -32 21 -35 8 -3 14 -12 14 -19 0 -8 7 -20 15 -27 8
-7 15 -23 15 -36 0 -13 6 -27 13 -31 17 -11 47 -75 40 -86 -3 -5 -1 -19 5 -30
6 -12 15 -44 22 -71 6 -27 18 -58 26 -70 7 -11 14 -30 14 -43 0 -12 4 -24 9
-28 16 -9 61 -116 61 -144 0 -14 11 -84 25 -156 55 -292 67 -566 36 -795 -6
-41 -15 -113 -21 -159 -16 -118 -46 -235 -81 -309 -16 -35 -29 -69 -29 -76 0
-7 -11 -40 -25 -74 -14 -34 -25 -79 -25 -99 0 -30 -3 -35 -11 -23 -9 12 -10
11 -6 -7 3 -12 -4 -34 -14 -50 -28 -42 -36 -57 -85 -150 -15 -29 -31 -53 -35
-53 -4 0 -10 -13 -14 -30 -4 -16 -11 -30 -16 -30 -5 0 -9 -13 -9 -30 0 -20 -5
-30 -15 -30 -8 0 -15 -7 -15 -15 0 -8 -5 -15 -11 -15 -5 0 -15 -13 -20 -30 -6
-16 -15 -30 -20 -30 -5 0 -9 -7 -9 -15 0 -8 -7 -15 -15 -15 -8 0 -15 -7 -15
-15 0 -8 -9 -24 -20 -35 -11 -11 -20 -23 -20 -26 0 -4 -18 -24 -40 -45 -22
-22 -40 -43 -40 -49 0 -5 -4 -10 -9 -10 -4 0 -21 -19 -37 -42 -30 -45 -111
-128 -239 -243 -43 -38 -86 -78 -97 -87 -10 -10 -22 -18 -27 -18 -5 0 -11 -7
-15 -15 -3 -8 -14 -15 -25 -15 -10 0 -26 -11 -34 -24 -9 -13 -37 -34 -62 -46
-26 -12 -49 -29 -52 -36 -3 -8 -12 -14 -20 -14 -8 0 -32 -13 -53 -30 -21 -16
-45 -30 -53 -30 -9 0 -19 -5 -22 -11 -4 -5 -17 -14 -28 -20 -12 -5 -29 -13
-37 -18 -8 -5 -62 -32 -120 -60 -58 -29 -112 -56 -120 -60 -53 -30 -117 -53
-167 -61 -32 -6 -89 -19 -128 -30 -224 -66 -282 -79 -372 -79 -38 -1 -63 -5
-65 -13 -3 -9 -76 -13 -269 -16 -216 -4 -284 -1 -370 12 -219 36 -337 59 -409
82 -41 13 -83 24 -92 24 -10 0 -26 4 -36 9 -9 5 -45 15 -79 22 -35 6 -68 18
-74 25 -6 8 -22 14 -35 14 -13 0 -24 4 -24 9 0 5 -13 12 -29 16 -15 3 -38 15
-50 26 -12 12 -38 25 -58 31 -20 5 -43 16 -50 24 -8 8 -23 14 -34 14 -10 0
-19 4 -19 8 0 4 -19 18 -42 30 -24 12 -50 26 -58 31 -8 6 -37 23 -63 38 -75
43 -89 53 -192 133 -53 41 -118 92 -145 112 -59 46 -270 255 -270 268 0 6 -4
10 -10 10 -5 0 -10 6 -10 13 0 6 -15 28 -33 47 -56 60 -167 212 -222 306 -11
18 -26 41 -33 51 -30 44 -161 314 -180 373 -33 105 -49 152 -66 199 -34 91
-86 362 -97 509 -13 174 -5 529 16 652 19 112 44 229 54 249 4 9 13 42 20 74
8 34 17 55 23 51 6 -4 8 1 4 13 -4 12 4 43 20 78 15 32 30 72 35 89 14 58 51
148 84 206 18 33 36 68 40 79 3 12 11 21 16 21 5 0 9 8 9 18 0 10 5 23 11 29
14 14 35 49 51 86 7 15 16 27 20 27 4 0 8 5 8 10 0 6 9 20 20 32 11 12 20 28
20 35 0 7 5 13 10 13 6 0 10 5 10 10 0 6 12 22 27 36 14 13 31 33 37 43 52 90
331 389 365 391 3 1 17 14 31 30 13 17 29 30 35 30 5 0 24 15 41 33 32 33 74
67 128 103 17 11 59 39 94 62 35 23 69 42 77 42 7 0 18 7 25 15 7 8 18 15 25
15 6 0 22 9 35 20 13 11 29 20 36 20 16 0 74 33 74 43 0 4 8 7 19 7 10 0 45
12 77 27 33 14 65 28 72 29 8 1 22 10 31 18 10 9 25 16 33 16 9 0 21 7 28 15
7 8 21 15 32 15 11 0 34 7 51 15 18 8 57 19 87 24 30 5 69 14 85 19 38 13 287
57 430 75 147 19 395 20 535 3z m-1640 -7175 c80 -11 199 -22 265 -25 66 -4
176 -13 245 -21 69 -8 129 -15 134 -15 5 0 6 -3 2 -7 -4 -4 41 -15 99 -25 58
-10 145 -30 193 -44 48 -14 125 -37 172 -50 47 -13 117 -33 155 -44 39 -11 91
-24 117 -29 26 -4 53 -13 60 -18 7 -6 29 -14 48 -18 19 -4 46 -13 60 -20 14
-7 42 -21 63 -30 20 -9 37 -20 37 -24 0 -5 18 -11 40 -15 22 -3 40 -10 40 -14
0 -6 47 -25 85 -35 32 -8 125 -52 125 -59 0 -4 8 -8 18 -8 11 0 29 -9 41 -19
13 -11 36 -23 52 -26 16 -4 29 -11 29 -16 0 -5 21 -15 46 -21 26 -7 49 -18 51
-25 3 -7 14 -13 25 -13 11 0 31 -9 45 -20 14 -11 32 -20 39 -20 8 0 14 -4 14
-10 0 -5 7 -10 15 -10 9 0 18 -7 21 -15 4 -8 12 -15 19 -15 8 0 20 -6 27 -12
7 -7 35 -24 61 -38 26 -13 47 -28 47 -32 0 -5 6 -8 14 -8 7 0 29 -13 47 -30
19 -16 39 -30 45 -30 6 0 24 -11 40 -25 16 -14 50 -38 76 -53 27 -15 48 -30
48 -34 0 -5 6 -8 14 -8 8 0 21 -6 28 -14 8 -7 27 -20 43 -29 17 -8 41 -25 55
-37 14 -12 48 -39 75 -60 28 -21 63 -49 78 -64 15 -14 29 -26 31 -26 2 0 59
-54 127 -120 68 -66 128 -120 133 -120 4 0 28 -20 52 -45 23 -25 45 -45 48
-45 6 0 196 -188 196 -194 0 -10 68 -76 79 -76 6 0 11 -11 11 -25 0 -14 7 -28
15 -31 8 -4 15 -12 15 -20 0 -8 7 -14 15 -14 8 0 15 -4 15 -10 0 -5 20 -30 45
-56 25 -25 45 -52 45 -59 0 -7 7 -15 15 -19 8 -3 15 -12 15 -21 0 -8 7 -15 15
-15 8 0 15 -7 15 -15 0 -8 7 -15 15 -15 9 0 15 -9 15 -25 0 -17 8 -29 25 -37
13 -6 27 -18 30 -27 3 -10 23 -36 45 -60 22 -23 40 -45 40 -48 0 -11 85 -133
92 -133 4 0 8 -8 8 -19 0 -10 7 -24 15 -31 8 -7 15 -19 15 -26 0 -8 5 -14 10
-14 6 0 10 -6 10 -14 0 -7 6 -19 14 -25 8 -7 18 -26 21 -42 4 -17 13 -33 21
-36 8 -3 14 -13 14 -23 0 -10 7 -25 15 -34 8 -8 15 -19 15 -25 0 -6 4 -11 9
-11 5 0 11 -10 15 -22 3 -13 16 -34 29 -48 13 -14 25 -29 26 -35 10 -31 16
-41 28 -48 7 -4 13 -14 13 -22 0 -8 14 -37 30 -65 17 -28 30 -55 30 -59 0 -5
7 -14 15 -21 8 -7 15 -20 15 -30 0 -9 9 -27 20 -40 11 -13 20 -33 20 -45 0
-13 7 -28 15 -35 8 -7 20 -30 27 -51 6 -22 17 -44 25 -50 7 -6 13 -22 13 -35
0 -13 9 -41 20 -62 11 -20 23 -54 26 -74 4 -21 10 -35 15 -33 4 3 11 -11 15
-32 7 -39 39 -119 75 -184 10 -20 19 -51 19 -68 0 -17 4 -31 8 -31 5 0 14 -19
21 -42 7 -24 18 -52 25 -63 17 -26 46 -115 81 -240 15 -55 34 -112 41 -127 8
-15 14 -35 14 -45 0 -10 7 -31 15 -46 8 -16 20 -55 27 -87 6 -32 15 -57 19
-55 4 3 10 -12 14 -32 9 -48 49 -179 85 -273 15 -41 33 -100 40 -130 7 -30 18
-68 25 -85 21 -52 53 -168 60 -218 3 -26 10 -45 16 -42 5 4 9 -3 9 -14 0 -11
16 -66 36 -123 19 -57 41 -124 49 -149 7 -26 18 -55 24 -65 6 -11 27 -84 47
-164 62 -245 69 -271 77 -264 4 4 7 -4 7 -18 0 -13 11 -47 25 -74 14 -27 25
-52 25 -56 0 -12 72 -110 98 -134 12 -12 22 -26 22 -33 0 -6 4 -11 8 -11 5 0
22 -19 39 -42 17 -24 69 -82 114 -130 46 -47 125 -130 175 -185 51 -54 126
-132 169 -173 42 -41 80 -85 85 -98 6 -12 21 -27 35 -32 14 -5 25 -13 25 -18
0 -4 39 -48 86 -97 47 -50 90 -98 95 -108 6 -10 14 -15 18 -12 5 2 11 -5 14
-16 3 -12 10 -18 16 -14 6 3 11 1 11 -6 0 -7 39 -54 88 -104 92 -96 229 -240
352 -373 41 -45 81 -81 88 -82 6 0 12 -8 12 -17 0 -10 15 -34 33 -55 99 -111
124 -142 139 -171 10 -18 27 -39 37 -48 11 -9 23 -28 27 -43 3 -14 10 -26 15
-26 5 0 25 -35 45 -77 19 -43 41 -90 49 -105 8 -14 15 -36 15 -47 0 -12 4 -29
10 -39 5 -9 22 -53 37 -97 26 -77 27 -88 27 -280 -1 -157 -4 -212 -17 -255 -9
-30 -26 -97 -37 -147 -11 -51 -31 -115 -45 -142 -14 -28 -25 -57 -25 -66 0 -8
-3 -15 -7 -15 -5 0 -33 -43 -63 -94 -30 -52 -58 -92 -62 -90 -4 3 -15 -8 -24
-23 -61 -99 -88 -129 -259 -283 -66 -60 -106 -85 -231 -146 -227 -112 -428
-156 -608 -134 -194 23 -431 116 -561 219 -76 60 -335 317 -535 531 -69 74
-175 186 -236 250 -60 63 -139 146 -175 185 -85 93 -351 371 -546 572 -148
153 -194 203 -215 234 -8 13 -26 35 -38 49 -12 14 -30 36 -39 50 -8 14 -53 71
-98 128 -46 56 -83 107 -83 112 0 6 -6 10 -14 10 -8 0 -17 10 -20 23 -3 12
-24 41 -46 65 -22 24 -40 48 -40 53 0 6 -13 28 -30 49 -16 21 -30 43 -30 50 0
7 -13 35 -30 62 -16 26 -30 54 -30 60 0 6 -6 19 -13 27 -8 9 -19 32 -27 51 -7
19 -21 54 -31 77 -11 24 -19 47 -19 52 0 5 -7 14 -15 21 -8 7 -15 23 -15 35 0
12 -7 28 -15 35 -8 7 -15 18 -15 24 0 6 -7 25 -16 41 -24 46 -91 233 -110 305
-9 36 -20 70 -24 75 -4 6 -15 33 -23 60 -16 51 -20 64 -58 170 -11 33 -32 102
-45 153 -13 51 -38 132 -55 180 -39 109 -71 213 -99 322 -13 47 -36 121 -52
165 -29 77 -42 121 -87 287 -11 43 -27 90 -34 105 -15 29 -76 220 -108 333
-27 97 -105 323 -125 361 -9 19 -34 81 -55 139 -46 129 -84 221 -96 229 -4 3
-14 20 -21 36 -22 51 -135 235 -144 235 -4 0 -8 9 -8 19 0 11 -5 23 -10 26 -6
4 -20 29 -32 56 -12 27 -25 46 -29 42 -11 -11 -29 -86 -66 -263 -8 -41 -21
-97 -29 -125 -7 -27 -31 -140 -54 -250 -34 -172 -64 -299 -99 -420 -31 -107
-41 -154 -41 -192 0 -43 -38 -198 -84 -343 -25 -79 -42 -158 -76 -356 -11 -66
-29 -147 -41 -180 -11 -32 -26 -88 -34 -124 -7 -36 -21 -90 -29 -120 -9 -30
-23 -106 -31 -169 -9 -63 -26 -142 -39 -175 -27 -71 -43 -132 -91 -356 -20
-91 -50 -221 -67 -290 -17 -69 -34 -147 -38 -175 -5 -27 -20 -95 -35 -150 -15
-55 -31 -120 -35 -145 -4 -25 -20 -81 -35 -125 -15 -44 -28 -108 -30 -141 -2
-34 -15 -99 -29 -146 -14 -46 -26 -99 -26 -117 0 -18 -5 -41 -10 -52 -10 -19
-51 -191 -71 -299 -6 -30 -16 -77 -24 -105 -7 -27 -25 -104 -40 -170 -14 -66
-34 -147 -45 -180 -37 -118 -50 -174 -50 -217 0 -23 -5 -59 -10 -78 -5 -19
-17 -63 -26 -97 -9 -35 -20 -61 -24 -58 -9 5 -30 -135 -30 -197 0 -47 16 -98
31 -98 5 0 15 -13 23 -29 14 -26 221 -239 344 -354 29 -26 52 -52 52 -58 0 -6
4 -8 9 -4 6 3 15 -4 21 -15 6 -11 15 -18 19 -15 5 2 11 -5 14 -17 4 -12 9 -19
12 -16 7 7 45 -27 45 -40 0 -10 43 -47 53 -44 4 1 7 -2 7 -8 0 -12 98 -110
110 -110 6 0 10 -7 10 -15 0 -8 7 -15 15 -15 8 0 15 -7 15 -15 0 -8 7 -15 15
-15 8 0 15 -7 15 -15 0 -8 4 -15 10 -15 12 0 110 -98 110 -110 0 -6 4 -10 9
-10 14 0 111 -95 111 -108 0 -7 6 -12 13 -12 6 0 39 -28 73 -63 33 -34 82 -81
107 -104 26 -22 47 -46 47 -51 0 -5 12 -17 26 -27 15 -9 41 -33 58 -53 17 -19
42 -45 55 -56 13 -12 40 -38 60 -60 20 -21 64 -67 99 -101 34 -35 62 -68 62
-74 0 -6 4 -11 10 -11 12 0 110 -98 110 -110 0 -6 4 -10 10 -10 12 0 110 -98
110 -110 0 -6 4 -10 9 -10 13 0 111 -96 111 -109 0 -6 5 -11 11 -11 7 0 94
-82 194 -182 100 -101 200 -200 221 -221 22 -21 48 -48 60 -60 11 -12 38 -39
60 -59 21 -21 49 -48 61 -60 12 -13 40 -39 62 -58 22 -19 41 -41 41 -48 0 -7
12 -20 28 -29 15 -9 41 -34 57 -55 17 -22 45 -55 63 -74 17 -19 32 -36 32 -39
0 -2 14 -19 31 -37 17 -18 45 -50 62 -72 18 -21 47 -54 64 -74 18 -19 43 -48
55 -64 13 -16 38 -46 55 -66 54 -61 61 -70 80 -99 22 -34 33 -49 56 -74 9 -10
17 -25 17 -31 0 -7 14 -27 30 -45 17 -18 30 -39 30 -47 0 -9 4 -16 8 -16 5 0
14 -10 21 -22 16 -32 28 -51 91 -148 65 -101 64 -99 133 -220 58 -101 104
-196 142 -297 13 -34 51 -120 83 -190 53 -113 117 -296 167 -478 9 -33 32
-105 51 -160 18 -55 38 -129 44 -165 16 -91 37 -185 75 -330 19 -69 39 -163
45 -210 7 -47 18 -103 26 -125 7 -22 14 -50 14 -63 0 -12 9 -60 19 -105 11
-45 25 -115 31 -154 7 -40 15 -73 20 -73 4 0 10 -22 13 -48 3 -27 13 -80 22
-118 8 -38 28 -127 44 -199 16 -71 42 -191 59 -265 47 -205 92 -423 92 -445 0
-11 7 -38 14 -60 8 -22 24 -85 36 -140 40 -189 142 -690 160 -792 10 -56 25
-116 33 -135 16 -36 57 -236 57 -279 0 -14 6 -45 14 -70 8 -24 26 -98 41 -164
15 -66 35 -151 45 -190 10 -38 26 -122 35 -185 16 -117 40 -229 55 -265 12
-27 86 -400 100 -498 5 -43 10 -156 10 -250 -1 -148 -3 -180 -21 -227 -11 -30
-34 -95 -50 -145 -72 -219 -105 -291 -179 -396 -63 -89 -257 -299 -277 -299
-6 0 -13 -7 -17 -15 -3 -8 -17 -15 -31 -15 -14 0 -25 -4 -25 -9 0 -14 -178
-107 -217 -114 -18 -4 -61 -20 -95 -36 -98 -45 -157 -54 -319 -49 -123 3 -151
7 -190 26 -25 12 -83 27 -130 33 -119 16 -306 106 -413 198 -88 77 -234 230
-279 294 -49 71 -111 180 -122 217 -4 14 -15 34 -25 45 -10 11 -30 65 -45 120
-15 55 -37 132 -50 171 -13 39 -29 107 -35 150 -22 146 -48 279 -78 389 -6 22
-21 89 -32 150 -12 60 -26 112 -31 115 -4 3 -15 44 -23 90 -8 47 -26 139 -39
205 -14 66 -35 172 -47 235 -12 63 -37 176 -55 250 -18 74 -41 187 -51 250 -9
63 -35 183 -57 265 -21 83 -47 196 -57 252 -28 155 -90 453 -101 480 -5 13 -9
40 -9 59 0 19 -4 34 -9 34 -5 0 -14 37 -21 82 -6 46 -20 114 -31 153 -10 38
-19 85 -19 103 0 18 -4 42 -10 52 -5 10 -23 83 -40 162 -17 78 -39 184 -50
233 -11 50 -27 132 -36 183 -8 52 -23 119 -33 150 -10 31 -21 80 -25 107 -15
104 -46 243 -70 315 -14 41 -33 129 -42 195 -9 66 -23 135 -30 154 -8 18 -14
42 -14 53 0 11 -7 36 -16 56 -9 21 -22 52 -30 70 -8 18 -14 37 -14 43 0 6 -7
17 -15 25 -8 9 -15 24 -15 34 0 10 -7 31 -15 46 -8 16 -15 36 -15 45 0 9 -7
19 -15 23 -8 3 -15 14 -15 24 0 11 -11 35 -24 55 -13 19 -27 44 -30 55 -4 11
-13 26 -21 32 -8 7 -15 19 -15 26 0 13 -16 38 -78 123 -9 13 -29 38 -44 55
-15 17 -28 34 -28 39 0 4 -17 26 -39 50 -21 23 -67 74 -101 112 -57 62 -1746
1750 -2808 2805 -219 217 -436 436 -482 485 -47 50 -170 171 -275 270 -429
408 -627 619 -787 839 -80 109 -104 146 -189 287 -136 228 -194 355 -259 569
-17 58 -38 117 -46 132 -7 14 -14 34 -14 43 0 9 -13 42 -28 73 -33 68 -55 166
-77 357 -9 77 -23 187 -31 245 -22 147 -37 417 -29 533 3 54 15 151 25 215 11
64 20 133 20 152 0 19 15 100 34 180 19 80 46 197 60 260 14 63 37 167 50 230
14 63 34 147 45 185 24 86 75 325 91 420 6 39 19 93 29 120 11 28 26 79 35
115 49 205 76 331 82 380 4 30 13 72 20 94 8 21 25 91 39 155 14 64 44 190 66
281 48 198 81 337 104 445 10 44 39 167 66 273 27 106 55 230 63 275 8 45 26
123 39 172 48 178 77 303 107 460 33 169 50 245 75 335 8 30 15 87 15 127 0
87 -17 113 -77 113 -33 0 -105 -33 -143 -66 -23 -19 -236 -124 -253 -124 -9 0
-37 -9 -64 -21 -26 -11 -86 -33 -133 -49 -47 -16 -99 -35 -115 -44 -71 -36
-239 -112 -350 -158 -66 -27 -127 -56 -136 -64 -16 -14 -274 -119 -377 -152
-31 -11 -102 -40 -158 -66 -56 -25 -107 -46 -114 -46 -7 0 -61 -23 -119 -52
-58 -28 -113 -51 -121 -51 -8 0 -17 -3 -20 -6 -3 -3 -32 -19 -65 -34 -33 -16
-67 -33 -75 -38 -8 -5 -40 -22 -70 -38 -30 -17 -68 -39 -85 -50 -16 -12 -36
-21 -43 -21 -14 0 -75 -40 -80 -52 -2 -5 -9 -8 -16 -8 -11 0 -25 -9 -73 -50
-7 -5 -15 -10 -18 -10 -6 0 -18 -10 -91 -75 -28 -25 -54 -45 -58 -45 -15 0
-316 -312 -316 -328 -1 -9 -14 -28 -30 -42 -17 -13 -30 -31 -30 -40 0 -9 -13
-30 -30 -46 -16 -16 -30 -39 -30 -51 0 -13 -5 -23 -10 -23 -6 0 -16 -12 -22
-27 -7 -16 -29 -55 -50 -89 -21 -34 -38 -66 -38 -71 0 -6 -6 -16 -13 -22 -8
-6 -20 -29 -27 -52 -8 -23 -29 -72 -47 -108 -18 -35 -33 -71 -33 -78 0 -8 -7
-24 -14 -36 -8 -12 -34 -69 -56 -127 -38 -97 -88 -210 -111 -253 -6 -10 -23
-55 -40 -100 -17 -45 -34 -86 -38 -92 -5 -5 -12 -21 -16 -35 -4 -14 -24 -61
-45 -105 -21 -44 -49 -109 -63 -145 -14 -36 -49 -116 -77 -179 -28 -63 -56
-134 -61 -158 -6 -24 -15 -43 -20 -43 -5 0 -9 -6 -9 -12 0 -17 -140 -299 -157
-316 -7 -7 -13 -22 -13 -33 0 -10 -5 -19 -10 -19 -6 0 -15 -11 -20 -25 -5 -14
-27 -51 -47 -83 -21 -31 -43 -69 -49 -83 -15 -34 -161 -180 -240 -241 -33 -25
-106 -69 -163 -96 -56 -28 -109 -56 -117 -63 -8 -6 -14 -9 -14 -6 0 4 -21 -4
-47 -17 -70 -35 -183 -50 -321 -42 -186 10 -276 23 -321 46 -23 11 -46 18 -50
16 -5 -3 -20 3 -34 14 -14 11 -30 20 -37 20 -17 0 -190 79 -200 91 -3 3 -19
13 -37 22 -17 9 -67 43 -110 76 -141 106 -283 274 -361 426 -9 17 -22 35 -29
40 -21 16 -93 253 -104 344 -16 121 -6 418 15 511 41 175 59 237 86 290 35 70
89 202 105 260 7 25 46 117 87 205 41 88 80 180 87 205 7 24 29 78 49 120 73
154 101 217 136 302 159 388 245 590 262 618 8 14 35 64 59 112 24 47 49 89
55 93 5 3 10 13 10 22 0 9 11 31 25 49 14 18 25 35 25 38 0 3 34 62 75 131 41
70 75 130 75 134 0 5 8 19 18 32 10 13 32 49 48 79 58 110 160 254 289 410 33
40 69 85 81 100 39 54 230 265 344 380 112 113 213 201 306 267 59 42 136 105
199 163 65 60 150 122 198 145 20 9 37 24 37 31 0 9 11 14 30 14 17 0 30 4 30
8 0 5 18 17 40 27 22 10 47 26 56 36 10 11 24 19 33 19 9 0 36 14 61 30 25 16
49 30 54 30 5 0 17 7 27 16 21 19 102 62 344 182 176 88 254 123 365 164 30
12 56 25 58 29 2 5 21 13 42 19 22 6 46 17 54 26 9 8 24 14 33 13 16 -3 55 13
208 86 28 13 68 31 90 41 22 9 48 21 57 25 10 5 26 9 37 9 10 0 21 7 24 14 3
8 22 18 41 21 19 4 40 13 47 21 6 8 21 14 33 14 12 0 26 4 31 9 9 9 68 33 120
48 11 4 26 13 33 20 7 7 24 13 36 13 13 0 29 7 36 15 7 8 25 15 41 15 15 0 32
6 36 14 4 7 40 25 78 40 39 16 85 36 103 47 18 10 50 19 71 19 22 0 44 6 51
15 7 8 18 15 25 15 7 0 43 14 80 30 37 17 75 30 85 30 10 0 25 7 34 15 8 8 26
15 40 15 14 0 26 4 26 10 0 12 58 37 108 46 20 4 42 10 47 14 6 5 27 11 47 15
20 4 39 13 42 21 3 8 16 14 29 14 13 0 48 13 78 28 30 16 81 36 114 46 33 9
73 23 88 31 16 8 40 15 54 15 14 0 37 6 51 14 45 23 187 70 292 97 19 5 55 9
79 9 24 0 82 12 130 27 47 14 96 26 109 25 13 -1 21 2 18 7 -3 5 12 11 34 14
21 3 83 18 137 35 106 32 314 77 403 87 30 3 116 15 190 25 74 10 227 24 340
30 113 7 257 15 320 20 217 14 409 11 560 -9z m19918 -2288 c94 -40 190 -127
253 -229 43 -70 48 -366 48 -2615 0 -1130 3 -2115 6 -2189 4 -77 2 -141 -3
-148 -5 -8 -39 -17 -75 -22 -36 -4 -1151 -6 -2479 -3 -2248 4 -2687 1 -2755
-22 -20 -6 -22 -3 -29 62 -4 37 -7 1110 -7 2383 0 2615 -5 2462 72 2588 49 81
125 156 177 176 42 16 166 43 224 49 19 2 1039 4 2265 3 l2230 -1 73 -32z
m-18751 -5765 c-3 -7 -5 -2 -5 12 0 14 2 19 5 13 2 -7 2 -19 0 -25z m23061
-1411 c162 -33 187 -44 239 -101 47 -52 81 -121 121 -249 15 -48 17 -449 19
-5105 l3 -5053 -21 -82 c-26 -105 -77 -210 -129 -270 -34 -39 -53 -50 -108
-66 -37 -11 -101 -25 -142 -31 -101 -15 -13254 -14 -13345 0 -91 14 -142 35
-204 82 -107 81 -143 138 -166 263 -14 82 -15 533 -12 5140 3 5015 3 5051 23
5141 11 50 33 112 48 138 45 77 155 151 291 197 47 16 488 17 6675 15 6215 -1
6630 -2 6708 -19z m-28230 -2954 c43 -43 92 -98 109 -123 17 -25 116 -126 219
-226 104 -100 314 -306 466 -458 153 -152 282 -276 288 -276 5 0 10 -7 10 -15
0 -8 4 -15 9 -15 13 0 171 -157 171 -170 0 -5 7 -10 15 -10 8 0 15 -7 15 -15
0 -8 4 -15 10 -15 13 0 140 -128 140 -140 0 -6 5 -10 10 -10 6 0 58 -47 116
-105 58 -58 109 -105 115 -105 15 0 89 -79 89 -95 0 -7 5 -15 11 -17 27 -9 -6
-278 -33 -278 -5 0 -8 -10 -8 -23 0 -12 -9 -38 -19 -58 -11 -19 -33 -76 -50
-125 -48 -140 -62 -178 -70 -189 -5 -5 -14 -28 -21 -50 -7 -22 -19 -51 -26
-65 -7 -14 -23 -54 -36 -90 -12 -36 -28 -76 -35 -90 -7 -14 -13 -43 -13 -66 0
-41 -17 -104 -30 -114 -9 -6 -56 -106 -65 -140 -4 -14 -11 -29 -15 -35 -5 -5
-13 -30 -19 -55 -7 -25 -16 -54 -20 -65 -5 -11 -16 -38 -25 -60 -10 -22 -21
-47 -25 -55 -5 -9 -12 -30 -16 -48 -3 -18 -10 -32 -15 -32 -4 0 -11 -15 -14
-34 -4 -19 -13 -47 -20 -62 -8 -16 -16 -40 -18 -54 -2 -14 -5 -27 -8 -30 -8
-8 -31 -72 -37 -100 -3 -14 -11 -29 -18 -35 -6 -5 -15 -23 -19 -40 -4 -16 -18
-52 -31 -80 -12 -27 -26 -65 -30 -82 -3 -18 -11 -35 -16 -38 -5 -4 -9 -15 -9
-25 0 -10 -6 -25 -14 -32 -7 -8 -17 -25 -21 -38 -4 -14 -18 -42 -31 -62 -13
-20 -26 -48 -30 -62 -3 -14 -10 -26 -15 -26 -5 0 -9 -9 -9 -19 0 -11 -4 -22
-9 -25 -5 -4 -29 -44 -52 -91 -24 -47 -47 -85 -51 -85 -4 0 -8 -6 -8 -14 0 -7
-7 -19 -15 -26 -8 -7 -15 -18 -15 -26 0 -7 -13 -33 -30 -57 -16 -25 -30 -49
-30 -55 0 -5 -7 -12 -15 -16 -8 -3 -15 -14 -15 -24 0 -10 -13 -32 -30 -48 -16
-16 -30 -36 -30 -45 0 -9 -13 -29 -30 -45 -16 -16 -30 -36 -30 -45 0 -9 -7
-22 -15 -29 -8 -7 -12 -16 -9 -21 3 -5 -2 -9 -10 -9 -9 0 -16 -7 -16 -15 0 -8
-4 -15 -10 -15 -5 0 -10 -6 -10 -13 0 -7 -9 -23 -20 -35 -11 -12 -20 -24 -20
-28 0 -3 -18 -23 -40 -44 -22 -21 -40 -41 -40 -44 0 -4 -9 -16 -20 -28 -11
-12 -20 -28 -20 -35 0 -7 -7 -13 -15 -13 -8 0 -15 -7 -15 -15 0 -8 -7 -15 -15
-15 -8 0 -15 -7 -15 -15 0 -8 -4 -15 -9 -15 -5 0 -12 -8 -15 -17 -4 -10 -26
-40 -51 -66 -25 -26 -45 -50 -45 -52 0 -11 -36 -45 -47 -45 -7 0 -13 -6 -13
-14 0 -18 -81 -106 -97 -106 -6 0 -15 -10 -18 -22 -4 -13 -20 -35 -36 -50 -16
-15 -29 -32 -29 -37 0 -6 -4 -11 -10 -11 -5 0 -19 -9 -30 -20 -11 -11 -20 -24
-20 -30 0 -5 -7 -10 -15 -10 -8 0 -15 -7 -15 -15 0 -8 -7 -15 -15 -15 -8 0
-15 -4 -15 -10 0 -5 -31 -40 -68 -77 -38 -37 -73 -76 -78 -85 -5 -9 -55 -64
-111 -121 -57 -58 -103 -110 -103 -116 0 -6 -7 -11 -15 -11 -8 0 -15 -7 -15
-15 0 -8 -6 -15 -13 -15 -7 0 -17 -10 -22 -22 -6 -13 -20 -27 -32 -33 -13 -5
-23 -15 -23 -22 0 -7 -13 -22 -29 -34 -16 -12 -32 -30 -34 -40 -3 -10 -17 -23
-31 -29 -14 -5 -26 -16 -26 -25 0 -8 -11 -22 -25 -31 -14 -9 -28 -26 -31 -38
-3 -12 -15 -26 -27 -31 -12 -6 -26 -20 -32 -32 -5 -13 -15 -23 -22 -23 -7 0
-13 -7 -13 -15 0 -8 -7 -15 -15 -15 -8 0 -15 -7 -15 -15 0 -8 -7 -15 -15 -15
-8 0 -15 -7 -15 -15 0 -8 -7 -15 -15 -15 -8 0 -15 -5 -15 -10 0 -6 -12 -23
-27 -38 -16 -15 -48 -50 -72 -77 -25 -28 -80 -87 -123 -133 -43 -45 -78 -87
-78 -92 0 -6 -7 -10 -15 -10 -8 0 -15 -7 -15 -15 0 -8 -7 -15 -15 -15 -8 0
-15 -4 -15 -10 0 -13 -37 -50 -50 -50 -5 0 -10 -6 -10 -13 0 -7 -13 -24 -28
-37 -15 -14 -31 -33 -35 -43 -3 -9 -18 -22 -32 -29 -14 -6 -25 -16 -25 -23 0
-6 -27 -37 -60 -69 -33 -32 -60 -64 -60 -72 0 -8 -6 -11 -15 -8 -10 4 -15 0
-15 -15 0 -14 -5 -19 -15 -15 -8 4 -15 1 -15 -5 0 -6 -8 -19 -17 -29 -10 -10
-43 -47 -73 -82 -30 -34 -90 -98 -132 -142 -43 -44 -78 -84 -78 -89 0 -5 -7
-9 -15 -9 -8 0 -15 -7 -15 -15 0 -8 -7 -15 -15 -15 -8 0 -15 -7 -15 -15 0 -8
-7 -15 -15 -15 -8 0 -15 -7 -15 -15 0 -8 -6 -15 -14 -15 -8 0 -16 -10 -20 -23
-3 -13 -16 -29 -30 -35 -13 -6 -27 -19 -30 -30 -4 -10 -18 -24 -31 -30 -15 -7
-25 -20 -25 -32 0 -11 -8 -24 -17 -27 -23 -9 -43 -29 -43 -42 0 -5 -9 -12 -19
-16 -11 -3 -26 -19 -33 -35 -7 -17 -16 -30 -20 -30 -11 0 -108 -100 -108 -110
0 -6 -7 -10 -15 -10 -8 0 -15 -7 -15 -15 0 -8 -6 -15 -14 -15 -7 0 -17 -8 -20
-18 -15 -39 -38 -72 -52 -72 -7 0 -14 -7 -14 -15 0 -8 -3 -15 -7 -15 -5 0 -17
-14 -28 -30 -11 -16 -25 -30 -32 -30 -7 0 -10 -7 -7 -15 4 -9 0 -15 -10 -15
-9 0 -16 -4 -16 -10 0 -13 -37 -50 -50 -50 -5 0 -10 -7 -10 -15 0 -8 -7 -15
-15 -15 -8 0 -15 -7 -15 -15 0 -8 -7 -15 -15 -15 -8 0 -15 -7 -15 -15 0 -8 -7
-15 -15 -15 -8 0 -15 -7 -15 -15 0 -8 -7 -15 -15 -15 -8 0 -15 -7 -15 -15 0
-8 -4 -15 -10 -15 -5 0 -25 -15 -43 -34 -19 -19 -49 -41 -66 -50 -17 -9 -31
-21 -31 -26 0 -6 -6 -10 -14 -10 -8 0 -16 -7 -20 -15 -3 -8 -17 -15 -31 -15
-14 0 -25 -4 -25 -9 0 -9 -65 -43 -170 -89 -72 -31 -157 -51 -268 -62 -204
-20 -439 -7 -487 26 -11 8 -27 14 -36 14 -10 0 -30 6 -46 14 -38 19 -73 33
-100 41 -13 4 -23 10 -23 15 0 5 -15 12 -34 16 -19 3 -37 12 -40 20 -3 8 -15
14 -26 14 -11 0 -37 18 -59 40 -21 22 -40 37 -43 34 -3 -3 -24 13 -48 36 -23
22 -44 40 -46 40 -6 0 -44 39 -44 45 0 2 -16 20 -35 39 -19 20 -35 39 -35 44
0 4 -18 27 -39 50 -22 23 -43 52 -47 64 -3 12 -15 31 -26 42 -11 12 -25 33
-30 49 -6 15 -14 27 -19 27 -5 0 -9 11 -9 24 0 13 -7 29 -15 36 -8 7 -15 21
-15 32 0 11 -6 34 -14 51 -29 65 -47 134 -52 197 -3 36 -9 74 -14 85 -28 63
-48 252 -31 280 13 21 32 134 40 236 5 58 14 114 19 125 15 27 52 147 52 168
0 9 7 19 15 22 8 4 15 17 15 30 0 15 6 24 15 24 9 0 15 9 15 24 0 14 13 40 30
58 16 18 30 40 30 50 0 10 7 18 15 18 8 0 15 5 15 11 0 12 40 62 90 115 17 17
30 36 30 43 0 6 7 11 15 11 8 0 15 5 15 10 0 6 37 49 82 97 46 47 82 89 80 94
-1 5 2 9 8 9 5 0 10 7 10 15 0 8 5 15 11 15 14 0 79 65 79 79 0 6 7 11 15 11
8 0 15 5 15 10 0 13 37 50 50 50 5 0 10 5 10 10 0 6 8 18 18 28 9 10 55 61
102 112 47 51 113 122 147 157 35 35 63 68 63 72 0 9 69 71 80 71 5 0 10 6 12
14 3 16 72 95 175 202 35 36 63 67 63 70 0 2 17 21 38 42 21 20 92 95 157 166
66 72 150 161 188 198 37 38 67 73 67 78 0 6 7 10 15 10 8 0 15 7 15 15 0 8 7
15 15 15 8 0 15 7 15 15 0 8 7 15 15 15 8 0 15 5 15 10 0 13 37 50 50 50 6 0
10 7 10 16 0 8 24 38 54 65 30 27 56 60 58 72 2 14 11 23 26 25 13 2 26 11 30
20 7 19 21 35 144 163 122 126 187 198 218 239 14 18 60 69 103 112 42 44 77
82 77 86 0 4 14 16 30 27 16 11 30 25 30 32 0 13 39 39 53 35 4 -1 7 4 7 11 0
7 14 26 30 42 17 16 30 34 30 41 0 7 12 19 28 26 15 7 28 23 30 36 2 12 10 22
18 22 8 0 14 7 14 15 0 8 7 15 15 15 8 0 15 7 15 15 0 8 7 15 15 15 8 0 15 7
15 15 0 8 7 15 15 15 8 0 15 7 15 15 0 8 7 15 15 15 8 0 15 4 15 10 0 5 24 33
53 63 28 30 70 76 92 103 22 27 52 60 67 74 16 13 28 30 28 37 0 7 7 13 15 13
8 0 15 7 15 15 0 8 7 15 15 15 8 0 15 6 15 14 0 8 7 16 15 20 8 3 15 13 15 21
0 9 14 28 30 42 17 13 30 31 30 39 0 8 6 14 14 14 8 0 17 11 20 24 3 13 17 34
31 47 13 13 25 30 25 37 0 6 5 12 10 12 6 0 10 7 10 15 0 8 9 23 20 32 11 10
20 28 20 41 0 12 7 25 15 28 8 4 15 17 15 30 0 12 6 27 13 31 6 4 18 22 26 38
7 17 17 37 22 45 5 8 16 29 24 45 9 17 19 37 24 45 5 8 12 22 15 30 4 8 16 31
27 50 12 19 23 42 24 50 1 14 8 33 25 75 5 11 11 32 14 48 4 15 11 27 16 27 6
0 10 13 10 29 0 16 6 34 14 40 8 7 17 28 21 49 3 20 13 47 21 60 9 13 13 29
11 35 -2 7 2 26 11 42 8 17 21 42 28 57 8 14 14 35 14 46 0 11 6 27 13 34 8 7
17 31 20 53 4 22 14 46 24 52 9 7 12 13 5 13 -7 0 -4 13 8 35 11 20 20 47 20
61 0 13 7 27 15 30 9 4 15 19 15 39 0 19 6 40 14 47 7 8 17 30 20 49 4 19 13
48 21 64 7 17 18 44 25 60 7 17 18 44 26 60 7 17 17 49 20 73 4 23 11 45 15
48 5 3 9 14 9 25 0 10 9 28 20 39 21 21 27 35 10 25 -15 -9 -12 1 10 37 11 18
20 40 20 49 0 9 7 22 15 29 8 7 15 26 15 42 0 16 6 31 15 34 8 4 15 13 15 22
0 18 17 72 37 119 7 17 13 36 13 42 0 6 9 28 20 48 11 21 20 46 20 56 0 10 9
35 20 57 11 22 20 46 20 55 0 9 5 26 12 38 14 25 55 138 67 182 4 17 13 39 19
50 13 24 34 82 33 89 0 3 15 37 34 75 19 38 35 78 35 89 0 11 7 25 15 32 8 7
18 35 21 62 5 34 10 45 16 36 5 -8 6 -3 2 15 -4 17 -2 27 5 27 6 0 11 13 11
29 0 35 20 94 50 144 36 60 64 53 158 -40z m1819 -1925 c-3 -7 -5 -2 -5 12 0
14 2 19 5 13 2 -7 2 -19 0 -25z"/>
<path d="M25085 12069 c-152 -7 -207 -15 -255 -39 -19 -10 -53 -23 -75 -30
-22 -7 -56 -24 -75 -39 -19 -15 -48 -35 -65 -45 -56 -33 -131 -176 -155 -296
-33 -163 -20 -714 20 -845 60 -200 158 -297 345 -344 44 -11 100 -28 125 -36
41 -15 391 -17 4173 -15 2271 0 4134 3 4140 5 7 3 68 9 136 14 113 9 128 13
178 43 69 41 185 155 228 223 33 51 65 141 64 180 0 11 3 137 7 280 9 354 -13
575 -65 646 -12 15 -21 34 -21 40 0 18 -146 156 -173 164 -12 4 -37 16 -55 26
-19 11 -62 29 -95 41 -60 22 -78 23 -492 25 -857 6 -7763 8 -7890 2z"/>
<path d="M25049 7769 c-137 -8 -168 -13 -234 -40 -99 -41 -131 -60 -185 -112
-86 -83 -118 -129 -147 -214 l-27 -78 -2 -410 c-2 -225 1 -399 5 -385 6 21 9
15 19 -35 28 -128 79 -208 181 -283 39 -29 74 -52 78 -52 4 0 26 -9 49 -21 70
-33 148 -40 594 -47 442 -7 7880 4 8054 12 89 4 101 7 125 30 15 14 32 26 39
26 6 0 15 6 19 13 4 7 30 30 57 50 27 21 61 54 75 75 13 20 28 39 33 40 4 2 8
11 8 21 0 10 13 32 29 50 16 18 33 49 39 71 12 49 18 299 14 605 -3 227 -5
244 -29 312 -14 40 -32 78 -39 84 -8 6 -14 18 -14 27 0 8 -33 48 -72 89 -60
61 -90 82 -168 120 l-95 46 -184 8 c-224 9 -8059 8 -8222 -2z"/>
<path d="M2632 4420 c0 -14 2 -19 5 -12 2 6 2 18 0 25 -3 6 -5 1 -5 -13z"/>
<path d="M8950 26150 c0 -5 5 -10 11 -10 5 0 7 5 4 10 -3 6 -8 10 -11 10 -2 0
-4 -4 -4 -10z"/>
<path d="M38265 14740 c-9 -195 -12 -7872 -3 -9350 8 -1318 14 -1614 32 -1584
14 24 21 10257 7 10724 -10 352 -25 436 -36 210z"/>
<path d="M706 5304 c-4 -20 -5 -38 -3 -40 3 -3 8 11 11 32 4 20 5 38 3 40 -3
3 -8 -11 -11 -32z"/>
<path d="M38281 3764 c0 -11 3 -14 6 -6 3 7 2 16 -1 19 -3 4 -6 -2 -5 -13z"/>
</g>
</svg>
