<?xml version="1.0" standalone="no"?>
<!DOCTYPE svg PUBLIC "-//W3C//DTD SVG 20010904//EN"
 "http://www.w3.org/TR/2001/REC-SVG-20010904/DTD/svg10.dtd">
<svg version="1.0" xmlns="http://www.w3.org/2000/svg"
 width="3840.000000pt" height="3840.000000pt" viewBox="0 0 3840.000000 3840.000000"
 preserveAspectRatio="xMidYMid meet">
<metadata>
Created by potrace 1.16, written by Peter Selinger 2001-2019
</metadata>
<g transform="translate(0.000000,3840.000000) scale(0.100000,-0.100000)"
fill="#000000" stroke="none">
<path d="M8300 35929 c-276 -8 -619 -41 -985 -95 -135 -19 -510 -89 -585 -109
-30 -8 -102 -26 -160 -40 -58 -15 -136 -35 -175 -45 -89 -23 -432 -131 -505
-158 -30 -11 -104 -38 -165 -60 -396 -143 -917 -392 -1284 -613 -62 -38 -115
-69 -117 -69 -2 0 -77 -48 -166 -107 -90 -59 -174 -113 -186 -120 -13 -7 -74
-50 -135 -96 -62 -46 -148 -110 -192 -142 -365 -267 -961 -820 -1270 -1179
-730 -846 -1251 -1703 -1652 -2716 -36 -91 -82 -214 -103 -275 -71 -210 -127
-380 -148 -455 -12 -41 -37 -127 -56 -190 -46 -156 -121 -470 -162 -679 -72
-369 -122 -739 -157 -1171 l-22 -275 0 -11900 c0 -11439 1 -11903 18 -11985
44 -209 119 -371 241 -522 190 -236 443 -391 725 -443 70 -13 198 -15 815 -15
674 1 738 2 821 19 107 23 165 42 263 87 40 19 75 34 78 34 10 0 131 86 200
142 76 63 181 182 237 269 76 119 119 223 160 389 l21 85 6 12115 6 12115 22
175 c49 389 96 613 200 960 72 241 209 570 343 827 121 231 296 503 478 743
128 170 422 482 617 656 138 123 397 326 510 399 25 17 89 58 142 93 54 35
126 78 162 97 36 19 92 51 125 70 33 20 89 50 125 67 166 79 269 126 320 146
229 90 342 133 385 145 28 8 106 32 175 52 69 21 152 43 185 51 237 51 322 66
485 89 283 40 432 50 705 49 327 0 567 -25 955 -96 63 -12 132 -27 154 -35 21
-7 48 -13 60 -13 21 0 380 -105 466 -136 255 -93 619 -261 825 -382 55 -32
111 -65 125 -73 13 -8 101 -65 195 -128 174 -117 365 -267 535 -420 167 -150
1390 -1374 1390 -1391 0 -9 -13 -36 -29 -61 -181 -281 -418 -720 -559 -1034
-61 -138 -187 -445 -217 -530 -14 -38 -41 -115 -60 -170 -34 -93 -44 -126 -81
-245 -31 -104 -73 -251 -94 -330 -13 -47 -29 -106 -37 -131 -7 -26 -18 -69
-23 -95 -5 -27 -20 -103 -35 -169 -14 -66 -30 -142 -35 -170 -5 -27 -22 -126
-39 -220 -35 -197 -53 -338 -83 -665 -29 -318 -32 -1011 -5 -1310 44 -490 128
-1013 217 -1350 11 -41 33 -124 49 -185 42 -162 81 -295 98 -340 9 -22 19 -53
24 -70 14 -54 99 -297 146 -415 67 -172 74 -189 111 -270 18 -41 51 -116 72
-166 90 -210 310 -626 473 -894 280 -459 670 -971 1012 -1330 157 -164 158
-166 148 -184 -5 -9 -113 -121 -240 -249 -273 -275 -364 -392 -417 -534 -8
-21 -23 -60 -33 -88 -30 -78 -41 -130 -53 -264 -16 -167 2 -386 40 -476 4 -11
18 -47 30 -80 77 -209 138 -283 690 -836 422 -423 565 -555 660 -608 53 -29
120 -61 130 -61 6 0 29 -9 53 -19 147 -67 335 -91 551 -71 125 11 168 22 326
80 59 21 164 74 180 90 3 3 22 16 42 30 21 14 38 28 38 33 0 4 8 7 17 7 25 0
12840 12819 12889 12893 70 105 124 201 124 218 0 7 8 31 19 53 101 224 105
624 6 851 -7 17 -16 41 -20 55 -7 23 -18 45 -75 145 -55 98 -160 212 -617 666
-480 478 -547 538 -685 614 -271 148 -668 177 -963 70 -216 -78 -298 -138
-611 -447 -138 -136 -254 -248 -258 -248 -4 0 -49 40 -99 88 -539 517 -1181
980 -1847 1333 -265 140 -639 312 -849 390 -42 15 -101 38 -131 49 -133 52
-549 187 -691 224 -52 14 -130 35 -174 47 -44 12 -98 25 -120 29 -22 5 -103
22 -180 38 -561 122 -1002 171 -1620 179 -474 6 -732 -6 -1100 -52 -179 -23
-636 -100 -775 -131 -63 -14 -131 -29 -150 -34 -216 -47 -608 -164 -880 -262
-572 -206 -1089 -457 -1618 -786 -46 -29 -89 -52 -95 -52 -6 0 -317 305 -692
678 -897 894 -991 980 -1420 1305 -538 406 -1106 742 -1700 1004 -158 70 -336
143 -395 163 -14 4 -56 20 -95 35 -79 30 -300 107 -390 135 -197 61 -300 91
-380 110 -49 12 -121 30 -160 40 -164 44 -203 52 -382 86 -175 33 -350 61
-618 99 -337 47 -889 69 -1365 54z m12405 -5980 c351 -33 673 -89 905 -159 74
-22 272 -89 370 -125 36 -13 85 -31 110 -40 68 -25 498 -233 555 -270 28 -17
109 -67 180 -110 172 -104 474 -325 620 -456 44 -39 111 -98 148 -131 37 -33
67 -64 65 -69 -2 -5 -1504 -1510 -3338 -3344 l-3335 -3335 -38 38 c-71 68
-275 306 -341 397 -37 50 -97 132 -134 182 -148 203 -366 589 -479 848 -50
115 -165 432 -202 555 -134 454 -197 983 -172 1448 15 295 50 573 101 797 11
50 27 117 34 150 69 302 232 738 393 1045 36 69 74 136 83 150 10 14 57 90
105 170 241 402 491 693 965 1125 41 38 91 80 110 94 19 14 62 47 95 73 102
81 206 151 366 248 85 52 179 109 209 129 72 45 349 178 470 225 52 21 131 52
175 71 75 32 434 146 500 158 17 4 80 18 140 32 61 14 137 29 170 35 33 5 101
15 150 23 108 18 265 36 395 47 126 10 512 10 625 -1z"/>
<path d="M27355 23961 c-364 -69 -669 -293 -841 -616 -94 -176 -138 -354 -138
-560 0 -367 156 -693 438 -919 184 -148 351 -222 587 -262 76 -12 131 -15 213
-11 286 16 515 107 729 291 284 244 430 581 414 951 -10 212 -48 346 -156 539
-131 236 -369 440 -618 531 -190 70 -437 92 -628 56z"/>
<path d="M32154 23965 c-498 -88 -886 -468 -980 -962 -22 -118 -22 -320 1
-438 20 -106 81 -272 131 -363 20 -35 71 -108 115 -161 182 -227 455 -386 748
-435 227 -38 479 0 702 107 263 126 502 394 604 677 80 223 86 525 14 750 -22
68 -117 264 -152 315 -141 201 -353 368 -574 451 -170 64 -435 90 -609 59z"/>
<path d="M36934 23964 c-493 -83 -888 -471 -979 -963 -20 -109 -20 -324 1
-431 16 -85 58 -215 100 -307 94 -205 308 -420 534 -537 169 -87 361 -136 536
-136 163 0 404 57 539 128 223 117 422 316 530 531 45 91 79 188 106 306 29
125 29 334 1 460 -98 435 -395 770 -800 904 -176 59 -389 75 -568 45z"/>
<path d="M24990 21575 c-163 -26 -351 -101 -495 -198 -85 -58 -253 -229 -311
-317 -133 -204 -198 -421 -198 -665 0 -280 85 -523 257 -738 191 -237 454
-391 756 -441 289 -49 617 28 859 201 84 59 225 200 290 288 177 238 255 572
207 875 -23 138 -57 240 -128 372 -211 397 -616 640 -1057 637 -52 -1 -133 -7
-180 -14z"/>
<path d="M29840 21585 c-8 -2 -49 -9 -90 -15 -348 -56 -677 -295 -845 -613
-97 -184 -139 -358 -138 -572 1 -159 20 -264 75 -412 178 -472 670 -797 1168
-770 358 20 642 166 880 453 209 253 299 595 245 934 -25 152 -74 278 -174
448 -89 151 -294 337 -466 422 -174 86 -304 119 -500 125 -77 2 -147 2 -155 0z"/>
<path d="M34605 21584 c-173 -26 -291 -64 -422 -134 -401 -214 -634 -603 -634
-1055 -1 -211 49 -407 148 -583 96 -173 282 -355 468 -458 112 -62 132 -71
227 -99 253 -77 505 -70 759 21 271 97 524 323 656 589 85 169 123 335 123
532 0 363 -166 703 -454 933 -211 169 -433 249 -706 255 -74 2 -148 1 -165 -1z"/>
<path d="M22655 19193 c-288 -37 -539 -164 -738 -372 -217 -227 -340 -554
-323 -861 8 -158 28 -248 90 -414 56 -149 195 -333 342 -455 276 -229 621
-323 960 -261 238 44 393 117 577 274 368 316 506 811 356 1276 -80 244 -284
500 -516 646 -204 129 -513 198 -748 167z"/>
<path d="M27450 19194 c-188 -27 -287 -57 -422 -126 -279 -143 -483 -375 -586
-668 -49 -141 -66 -239 -66 -395 0 -442 223 -817 619 -1043 330 -188 731 -201
1080 -36 219 103 435 309 549 525 146 274 176 622 80 918 -54 165 -185 374
-314 497 -71 68 -194 158 -271 199 -186 98 -484 155 -669 129z"/>
<path d="M32160 19183 c-242 -37 -474 -156 -655 -336 -172 -172 -279 -374
-331 -622 -22 -108 -22 -323 0 -435 70 -358 286 -653 611 -833 277 -154 586
-186 905 -95 419 119 759 503 835 942 30 178 14 403 -41 566 -25 75 -96 222
-139 290 -51 81 -162 200 -258 278 -258 209 -590 297 -927 245z"/>
<path d="M24990 16793 c-237 -36 -471 -154 -648 -326 -171 -166 -284 -378
-338 -629 -24 -109 -24 -331 -1 -443 23 -115 82 -279 129 -360 64 -111 185
-252 285 -335 231 -191 518 -290 802 -277 290 13 516 103 734 290 318 273 467
678 401 1091 -63 394 -353 763 -717 912 -212 86 -425 112 -647 77z"/>
<path d="M29775 16795 c-247 -40 -480 -159 -660 -338 -232 -231 -348 -514
-348 -847 0 -357 153 -681 430 -910 279 -230 630 -324 970 -260 59 12 135 30
168 41 414 141 726 506 800 934 30 176 11 424 -45 580 -127 356 -414 640 -760
753 -169 56 -387 74 -555 47z"/>
<path d="M22680 14414 c-14 -2 -59 -9 -100 -15 -209 -31 -448 -151 -616 -311
-179 -170 -290 -372 -350 -638 -25 -107 -24 -346 0 -460 25 -116 85 -276 134
-357 67 -111 181 -243 284 -328 103 -86 268 -180 379 -216 103 -33 266 -59
370 -59 109 0 294 29 384 60 164 56 366 186 482 310 308 327 409 775 272 1200
-23 70 -115 253 -157 310 -95 130 -257 276 -397 358 -82 47 -237 104 -350 127
-78 16 -285 28 -335 19z"/>
<path d="M27460 14414 c-14 -2 -59 -9 -100 -15 -80 -12 -243 -65 -324 -106
-222 -111 -425 -312 -533 -528 -86 -170 -127 -344 -127 -540 0 -163 17 -255
74 -417 47 -131 97 -217 198 -339 241 -291 598 -453 961 -436 285 13 506 98
720 276 332 276 488 702 411 1127 -24 133 -52 214 -120 341 -72 134 -96 167
-202 275 -156 159 -283 239 -483 306 -140 48 -358 73 -475 56z"/>
<path d="M25065 12024 c-129 -14 -311 -67 -420 -121 -220 -111 -424 -313 -532
-528 -42 -83 -87 -214 -109 -315 -22 -104 -25 -321 -5 -430 14 -79 58 -220 96
-306 57 -130 193 -299 332 -414 212 -174 475 -270 746 -270 368 0 706 164 937
454 130 164 204 326 240 528 35 194 19 415 -44 595 -26 77 -112 245 -154 303
-94 130 -257 276 -397 358 -83 48 -238 104 -349 127 -81 16 -268 27 -341 19z"/>
<path d="M22612 9626 c-157 -26 -405 -124 -503 -198 -142 -109 -237 -205 -309
-313 -22 -33 -43 -64 -47 -70 -15 -19 -83 -164 -83 -176 0 -7 -11 -44 -24 -83
-60 -175 -71 -411 -27 -591 26 -111 80 -265 102 -297 11 -14 19 -29 19 -33 0
-19 117 -169 187 -240 135 -138 214 -195 378 -274 194 -93 460 -125 695 -82
129 24 173 39 320 110 122 59 127 63 199 127 25 22 60 51 77 65 41 31 153 161
189 219 46 73 96 170 122 240 38 105 73 297 73 408 0 103 -30 299 -55 359 -8
20 -15 43 -15 52 0 35 -151 288 -220 368 -81 93 -224 212 -326 270 -74 42
-234 102 -344 128 -91 22 -305 28 -408 11z"/>
</g>
</svg>
