<?xml version="1.0" standalone="no"?>
<!DOCTYPE svg PUBLIC "-//W3C//DTD SVG 20010904//EN"
 "http://www.w3.org/TR/2001/REC-SVG-20010904/DTD/svg10.dtd">
<svg version="1.0" xmlns="http://www.w3.org/2000/svg"
 width="3840.000000pt" height="3840.000000pt" viewBox="0 0 3840.000000 3840.000000"
 preserveAspectRatio="xMidYMid meet">
<metadata>
Created by potrace 1.16, written by Peter Selinger 2001-2019
</metadata>
<g transform="translate(0.000000,3840.000000) scale(0.100000,-0.100000)"
fill="#000000" stroke="none">
<path d="M32050 38310 c-58 -4 -121 -10 -140 -13 -19 -4 -93 -16 -165 -28 -71
-11 -186 -35 -255 -54 -69 -18 -141 -35 -160 -39 -19 -3 -78 -22 -130 -42 -52
-20 -120 -45 -150 -56 -30 -11 -136 -58 -235 -105 -429 -203 -785 -465 -1110
-817 -123 -134 -316 -385 -377 -491 -22 -38 -62 -104 -88 -145 -56 -89 -188
-363 -225 -470 -15 -41 -42 -115 -60 -165 -19 -49 -39 -108 -44 -130 -5 -22
-21 -85 -36 -140 -81 -311 -123 -729 -105 -1050 34 -599 205 -1162 506 -1665
102 -171 270 -405 367 -509 34 -36 87 -93 117 -126 30 -33 112 -112 180 -175
340 -311 754 -561 1193 -719 329 -117 624 -179 992 -207 176 -13 240 -14 395
-4 335 21 757 101 975 184 39 15 106 40 150 56 44 15 98 36 119 45 83 35 340
167 379 194 23 15 73 45 111 66 63 35 312 216 396 288 74 63 225 204 260 242
157 169 207 229 309 365 64 85 153 216 198 290 85 141 219 406 252 500 11 30
32 87 46 125 31 81 66 194 88 280 9 33 23 87 32 120 18 63 43 205 71 395 14
89 18 184 18 425 0 267 -3 331 -22 460 -46 313 -98 525 -190 776 -67 182 -209
486 -269 576 -22 32 -54 85 -73 117 -53 95 -258 361 -374 488 -343 373 -761
674 -1221 876 -98 43 -361 139 -415 152 -25 5 -76 19 -115 30 -150 43 -413 87
-600 100 -146 10 -436 10 -595 0z"/>
<path d="M10773 34872 c-29 -59 -119 -237 -201 -397 -81 -159 -226 -443 -321
-630 -261 -513 -250 -495 -308 -475 -15 5 -64 16 -108 24 -44 8 -134 26 -200
41 -66 14 -140 30 -165 34 -72 13 -357 69 -455 90 -269 58 -442 93 -565 116
-47 9 -123 24 -170 35 -130 29 -258 55 -460 95 -102 19 -225 45 -275 57 -49
11 -135 23 -191 25 -94 5 -104 4 -165 -23 -74 -33 -150 -93 -182 -144 -12 -19
-22 -37 -23 -40 0 -3 -6 -18 -13 -35 -40 -96 -31 -231 21 -327 30 -55 70 -95
315 -313 155 -137 301 -266 324 -285 24 -19 55 -46 69 -59 41 -37 148 -133
246 -217 50 -44 128 -112 175 -153 46 -41 115 -101 154 -135 38 -34 99 -88
135 -121 57 -53 140 -126 220 -195 44 -38 74 -64 145 -125 39 -33 90 -79 115
-102 25 -23 66 -57 92 -77 25 -20 48 -41 50 -48 2 -6 -50 -118 -116 -247 -276
-544 -348 -686 -446 -876 -161 -313 -280 -551 -280 -561 0 -17 309 -144 470
-193 151 -46 410 -101 477 -101 21 0 58 -5 82 -11 60 -14 409 -14 561 0 526
49 1065 257 1480 571 112 85 128 94 143 82 13 -11 165 -87 2382 -1192 836
-417 2865 -1429 4508 -2249 1644 -820 2995 -1491 3003 -1491 15 0 291 108 511
200 78 33 145 60 150 60 4 0 42 14 83 31 41 17 143 57 225 91 83 33 175 70
205 82 30 13 91 37 135 54 44 18 136 55 205 83 69 27 152 61 185 74 249 98
956 381 980 391 28 13 586 235 685 274 88 34 258 100 435 171 99 39 208 82
243 95 34 13 88 34 120 48 31 14 89 37 127 52 39 15 110 44 158 66 48 22 95
38 103 36 11 -2 167 -458 544 -1588 290 -872 551 -1642 579 -1713 145 -362
355 -691 620 -969 179 -188 470 -413 677 -523 49 -26 94 -52 101 -57 7 -5 441
-223 965 -484 1075 -536 1045 -521 1113 -556 148 -78 2294 -1147 2370 -1180
258 -114 460 -158 730 -159 88 -1 176 2 195 5 19 3 80 13 135 22 54 8 117 21
140 29 22 7 61 18 88 25 26 7 50 17 53 21 3 5 12 9 20 9 29 0 240 101 317 152
32 21 61 38 64 38 14 0 205 161 272 230 273 278 431 597 497 1010 24 145 14
457 -19 605 -109 484 -365 864 -762 1130 -69 46 -508 271 -1410 722 -720 361
-1659 831 -2086 1045 -427 213 -781 388 -786 388 -5 0 -17 8 -26 18 -8 9 -226
649 -483 1422 -989 2975 -963 2901 -1130 3225 -96 187 -154 283 -289 481 -282
413 -680 803 -1115 1094 -203 135 -501 297 -680 368 -69 28 -165 66 -214 86
-49 20 -115 43 -145 51 -31 7 -87 23 -126 34 -169 50 -231 65 -415 97 -537 95
-1090 86 -1610 -28 -254 -55 -254 -55 -510 -143 -166 -57 -339 -124 -465 -180
-33 -15 -96 -40 -140 -57 -44 -16 -116 -44 -160 -62 -44 -18 -107 -43 -140
-55 -76 -29 -194 -76 -265 -106 -30 -13 -82 -33 -115 -45 -73 -28 -82 -31
-265 -108 -80 -34 -181 -74 -225 -90 -44 -16 -112 -43 -150 -60 -39 -16 -106
-44 -150 -62 -44 -17 -111 -44 -150 -60 -38 -16 -124 -49 -190 -75 -66 -25
-149 -59 -185 -75 -36 -15 -119 -49 -185 -75 -66 -26 -151 -60 -190 -75 -38
-16 -124 -50 -190 -75 -66 -25 -136 -53 -155 -62 -19 -9 -66 -28 -105 -43 -38
-15 -104 -41 -145 -57 -41 -17 -129 -52 -195 -78 -66 -26 -201 -80 -300 -120
-99 -40 -214 -86 -255 -102 -41 -16 -174 -69 -295 -118 -227 -90 -394 -156
-455 -179 -101 -38 -550 -221 -582 -237 -20 -10 -51 -19 -67 -19 -19 0 -325
147 -848 406 -760 378 -1067 530 -2333 1157 -261 129 -812 402 -1225 607 -412
205 -804 398 -871 430 -67 32 -124 66 -128 75 -3 9 -6 62 -6 118 0 201 -36
468 -91 676 -160 605 -468 1099 -934 1499 -148 127 -492 354 -532 351 -4 0
-31 -48 -60 -107z"/>
<path d="M14536 25867 c-14 -48 -19 -554 -7 -702 78 -955 415 -1763 1020
-2450 24 -27 1411 -1418 3083 -3091 2500 -2502 3038 -3044 3032 -3060 -4 -10
-15 -28 -24 -39 -14 -16 -487 -724 -1333 -1995 -72 -107 -353 -529 -626 -938
-273 -408 -516 -774 -541 -812 -101 -155 -1090 -1637 -1110 -1662 -23 -30 -54
-36 -79 -14 -9 7 -97 55 -196 106 -99 51 -232 120 -295 153 -63 33 -189 98
-280 145 -198 102 -378 195 -560 289 -180 94 -441 228 -515 266 -89 45 -845
436 -966 500 -98 51 -511 265 -894 462 -370 191 -689 356 -865 447 -69 36
-271 141 -450 233 -526 270 -647 334 -792 411 -75 41 -139 74 -142 74 -5 0
-706 361 -981 505 -66 35 -214 111 -330 170 -115 59 -250 129 -300 155 -49 26
-173 90 -275 143 -102 52 -243 125 -315 162 -71 37 -283 146 -470 243 -187 96
-466 240 -620 320 -154 79 -350 181 -435 225 -85 44 -191 99 -235 122 -44 23
-183 95 -310 160 -126 65 -261 134 -300 155 -38 21 -182 95 -320 165 -137 71
-349 180 -470 243 -344 180 -444 232 -680 352 -121 62 -258 133 -305 158 -47
24 -173 90 -280 145 -107 55 -373 192 -590 305 -217 113 -460 239 -540 280
-313 160 -633 326 -870 450 -69 36 -174 90 -235 120 -60 30 -166 85 -235 122
-275 148 -454 220 -650 263 -177 39 -296 51 -449 43 -383 -18 -717 -136 -1013
-358 -366 -275 -623 -713 -692 -1179 -21 -138 -21 -381 0 -513 61 -394 222
-715 497 -995 178 -181 305 -262 837 -533 146 -75 371 -191 500 -258 129 -67
300 -156 380 -197 80 -42 213 -110 295 -153 83 -43 238 -123 345 -178 107 -55
263 -135 345 -177 83 -43 229 -118 325 -168 183 -94 362 -187 590 -304 160
-83 351 -182 625 -323 206 -106 658 -339 893 -461 157 -82 345 -180 537 -279
77 -40 199 -103 270 -140 72 -37 216 -112 320 -165 105 -54 264 -136 355 -183
91 -47 228 -117 305 -157 325 -167 526 -271 625 -323 58 -30 136 -70 174 -89
37 -19 161 -82 275 -142 212 -111 484 -252 721 -374 74 -38 176 -90 225 -117
50 -26 185 -96 300 -155 116 -59 251 -129 300 -155 50 -26 194 -101 320 -165
127 -65 286 -147 355 -183 322 -167 396 -205 555 -287 94 -48 233 -120 310
-160 193 -100 418 -216 620 -320 94 -48 244 -126 335 -173 91 -48 221 -115
290 -149 69 -35 190 -98 270 -140 80 -42 204 -106 275 -143 72 -37 204 -105
295 -152 91 -47 190 -98 220 -115 30 -16 73 -37 95 -46 22 -9 59 -28 83 -42
23 -14 120 -65 215 -113 94 -49 237 -123 317 -164 80 -41 240 -124 355 -183
198 -102 284 -147 330 -173 11 -6 43 -22 70 -35 28 -14 86 -44 130 -67 44 -23
168 -87 275 -143 360 -185 524 -269 665 -342 77 -39 161 -83 187 -98 26 -15
51 -27 56 -27 5 0 57 -27 115 -59 58 -33 132 -71 164 -85 32 -15 66 -31 76
-36 50 -28 62 -35 67 -40 3 -3 61 -33 130 -67 69 -34 202 -102 295 -151 94
-48 260 -135 370 -191 110 -57 263 -136 340 -176 77 -40 210 -108 295 -152 85
-44 218 -113 295 -153 77 -40 219 -113 315 -162 279 -144 457 -237 570 -296
108 -56 279 -145 595 -307 190 -97 434 -223 650 -335 72 -37 202 -105 290
-150 204 -105 349 -181 605 -315 225 -118 505 -262 820 -422 113 -58 210 -108
215 -112 10 -8 250 -132 630 -326 178 -91 375 -193 590 -305 61 -32 187 -97
280 -145 94 -48 242 -125 330 -170 88 -46 255 -131 370 -190 116 -60 266 -137
335 -173 69 -36 190 -99 270 -140 80 -41 206 -106 280 -145 74 -38 203 -104
285 -146 137 -70 226 -116 555 -288 63 -33 201 -104 305 -158 105 -54 240
-123 300 -155 116 -61 311 -161 640 -330 110 -57 353 -183 540 -280 187 -97
363 -188 390 -202 28 -14 187 -96 355 -183 168 -86 397 -205 510 -262 113 -58
250 -129 305 -159 55 -29 138 -68 185 -87 47 -19 123 -51 169 -72 46 -20 107
-45 135 -55 28 -10 121 -43 206 -73 706 -248 1565 -384 2300 -363 211 6 497
26 635 46 39 5 95 12 125 15 107 12 458 74 600 107 83 19 103 24 265 68 44 13
105 29 135 37 103 28 421 138 585 201 224 87 615 276 830 400 443 257 764 489
1145 828 462 412 645 705 746 1194 25 121 30 407 9 548 -46 313 -167 608 -348
846 -169 223 -404 416 -636 523 -42 19 -88 41 -103 49 -59 31 -240 83 -392
111 -129 24 -444 24 -581 -1 -203 -36 -340 -82 -531 -178 -140 -70 -284 -175
-449 -328 -284 -261 -532 -436 -808 -570 -310 -151 -585 -236 -942 -293 -121
-19 -179 -22 -430 -22 -323 0 -382 6 -695 75 -149 33 -450 141 -555 200 -27
15 -196 103 -375 195 -562 289 -654 337 -698 362 -23 13 -125 66 -225 117
-574 294 -888 455 -972 501 -56 31 -239 125 -560 290 -77 40 -210 108 -295
152 -85 44 -220 114 -300 155 -80 41 -203 106 -275 143 -71 38 -240 124 -375
193 -135 68 -281 143 -325 167 -44 23 -152 80 -240 125 -88 45 -209 108 -270
140 -60 32 -175 91 -255 133 -80 41 -201 104 -270 139 -69 36 -201 105 -295
153 -93 48 -228 118 -300 155 -139 72 -409 211 -670 345 -148 76 -223 115
-640 330 -82 42 -229 118 -325 167 -96 50 -227 118 -290 151 -124 64 -284 147
-560 289 -273 141 -456 236 -565 293 -94 49 -246 128 -600 310 -82 43 -204
106 -270 140 -66 34 -208 107 -315 163 -382 197 -361 182 -321 233 10 14 491
733 1069 1599 2858 4289 2704 4056 2809 4270 90 183 178 425 217 595 62 273
81 444 81 730 -1 278 -12 370 -94 755 -5 19 -25 87 -46 150 -139 420 -333 756
-624 1080 -46 52 -1048 1059 -2225 2238 l-2141 2142 -490 244 c-612 305 -1744
866 -2350 1166 -253 125 -728 360 -1055 523 -1818 901 -1762 873 -1842 908
-11 6 -18 2 -22 -14z"/>
</g>
</svg>
