<?xml version="1.0" standalone="no"?>
<!DOCTYPE svg PUBLIC "-//W3C//DTD SVG 20010904//EN"
 "http://www.w3.org/TR/2001/REC-SVG-20010904/DTD/svg10.dtd">
<svg version="1.0" xmlns="http://www.w3.org/2000/svg"
 width="3840.000000pt" height="3074.000000pt" viewBox="0 0 3840.000000 3074.000000"
 preserveAspectRatio="xMidYMid meet">
<metadata>
Created by potrace 1.16, written by Peter Selinger 2001-2019
</metadata>
<g transform="translate(0.000000,3074.000000) scale(0.100000,-0.100000)"
fill="#000000" stroke="none">
<path d="M26210 30669 c-321 -40 -656 -213 -880 -457 -155 -167 -278 -388
-337 -602 -47 -171 -46 -111 -50 -1735 -5 -1614 1 -1944 38 -2310 17 -174 57
-439 104 -695 16 -89 120 -508 140 -565 8 -22 39 -121 71 -220 31 -99 65 -200
75 -225 10 -25 52 -131 93 -236 42 -105 98 -237 126 -293 27 -56 50 -104 50
-106 0 -16 175 -354 236 -456 19 -31 34 -59 34 -62 0 -4 31 -57 69 -119 324
-533 598 -901 1020 -1373 317 -353 873 -865 1235 -1136 55 -41 111 -83 125
-94 14 -10 121 -90 236 -177 269 -202 329 -251 503 -411 453 -418 816 -906
1089 -1467 115 -237 234 -550 298 -780 9 -36 23 -85 31 -110 34 -118 82 -349
109 -530 42 -278 47 -365 55 -1070 8 -724 9 -738 55 -917 29 -112 114 -299
183 -403 412 -619 1187 -834 1832 -510 369 186 653 534 757 929 40 153 45 213
50 596 13 901 -40 1591 -168 2215 -54 259 -61 290 -149 605 -97 351 -287 854
-446 1183 -47 97 -95 197 -107 222 -52 112 -258 467 -382 659 -334 520 -719
985 -1165 1408 -207 196 -473 422 -657 558 -67 50 -213 158 -325 240 -443 328
-744 603 -1077 987 -184 213 -396 505 -550 759 -106 173 -296 557 -365 734
-32 83 -62 161 -68 175 -47 117 -136 430 -181 640 -32 144 -58 312 -79 498
-20 180 -21 248 -28 1802 -7 1726 -4 1630 -54 1810 -67 245 -246 524 -444 693
-165 141 -367 251 -553 302 -162 45 -395 64 -549 44z"/>
<path d="M31040 30674 c-14 -2 -59 -9 -100 -15 -479 -68 -932 -437 -1114 -907
-19 -48 -41 -116 -49 -152 -9 -36 -22 -85 -29 -110 -9 -35 -13 -390 -15 -1625
-4 -1673 -3 -1702 43 -2010 100 -666 344 -1274 720 -1797 171 -238 419 -500
649 -685 101 -81 143 -111 401 -285 202 -137 385 -267 486 -345 332 -259 322
-250 628 -529 754 -688 1401 -1547 1864 -2472 116 -232 309 -666 361 -812 130
-366 174 -500 235 -712 88 -310 177 -696 214 -933 9 -55 27 -172 41 -260 27
-176 60 -501 76 -750 6 -88 14 -477 19 -865 9 -773 9 -773 75 -965 46 -135
151 -331 220 -412 233 -278 465 -436 765 -523 236 -68 521 -66 765 5 373 108
704 383 884 734 72 140 101 224 138 396 20 94 30 1188 13 1545 -80 1769 -481
3335 -1240 4850 -315 630 -723 1285 -1122 1801 -23 31 -69 90 -100 131 -325
424 -930 1070 -1362 1453 -410 364 -838 696 -1256 975 -275 184 -503 467 -588
730 -60 184 -55 55 -62 1735 -7 1639 -5 1565 -53 1745 -80 297 -279 588 -535
780 -159 120 -319 196 -512 245 -150 38 -349 55 -460 39z"/>
<path d="M2730 9619 c-176 -11 -533 -81 -660 -128 -333 -125 -577 -250 -789
-405 -339 -248 -604 -536 -809 -879 -66 -110 -192 -354 -192 -371 0 -3 -20
-57 -45 -120 -24 -63 -49 -132 -54 -153 -5 -21 -20 -81 -34 -133 -36 -134 -67
-331 -77 -495 -12 -177 -12 -4003 0 -4185 9 -156 41 -354 77 -490 14 -52 31
-119 39 -147 7 -29 24 -79 38 -110 13 -32 29 -76 36 -98 25 -76 142 -310 218
-435 366 -600 928 -1048 1592 -1270 113 -37 290 -80 450 -107 l165 -28 12395
0 c10367 0 12408 2 12475 14 303 51 611 215 814 435 20 21 41 44 46 50 6 6 34
41 63 79 158 206 256 456 282 716 8 74 10 1146 7 3556 -4 3729 0 3468 -51
3654 -115 416 -433 774 -842 947 -108 46 -149 59 -294 91 -70 16 -874 17
-12405 19 -6781 0 -12382 -2 -12445 -7z m23170 -4774 l0 -1915 -6220 0 -6220
0 0 1915 0 1915 6220 0 6220 0 0 -1915z"/>
<path d="M31940 9615 c-169 -25 -306 -67 -449 -140 -318 -159 -581 -447 -706
-770 -62 -161 -78 -235 -95 -440 -16 -197 -8 -6901 8 -6975 7 -30 18 -77 24
-105 91 -418 411 -810 810 -993 237 -108 527 -156 743 -122 127 20 282 55 300
69 5 5 23 11 40 15 45 11 183 80 255 129 143 95 168 115 251 198 189 189 326
425 388 669 48 191 46 22 46 3705 0 3302 -1 3464 -18 3555 -58 300 -162 517
-350 728 -185 208 -438 367 -697 438 -169 47 -393 63 -550 39z"/>
<path d="M36795 9624 c-137 -19 -189 -28 -248 -44 -539 -148 -946 -588 -1054
-1140 -17 -91 -18 -239 -18 -3600 0 -2908 2 -3517 14 -3575 16 -83 48 -203 62
-227 5 -10 9 -25 9 -33 0 -16 118 -252 138 -276 7 -8 39 -50 71 -94 153 -206
401 -393 638 -481 102 -38 156 -52 283 -74 230 -40 419 -22 688 66 185 60 417
212 561 368 20 21 41 44 46 50 33 34 120 155 153 214 76 130 110 212 155 372
44 158 42 6 42 3700 0 3305 -1 3510 -18 3585 -55 255 -138 440 -276 620 -224
292 -552 491 -916 555 -66 11 -282 21 -330 14z"/>
</g>
</svg>
