<?xml version="1.0" standalone="no"?>
<!DOCTYPE svg PUBLIC "-//W3C//DTD SVG 20010904//EN"
 "http://www.w3.org/TR/2001/REC-SVG-20010904/DTD/svg10.dtd">
<svg version="1.0" xmlns="http://www.w3.org/2000/svg"
 width="3840.000000pt" height="3840.000000pt" viewBox="0 0 3840.000000 3840.000000"
 preserveAspectRatio="xMidYMid meet">
<metadata>
Created by potrace 1.16, written by Peter Selinger 2001-2019
</metadata>
<g transform="translate(0.000000,3840.000000) scale(0.100000,-0.100000)"
fill="#000000" stroke="none">
<path d="M18230 38320 c-894 -51 -1702 -485 -2247 -1206 -133 -175 -255 -390
-391 -689 -28 -61 -85 -184 -127 -275 -42 -91 -101 -217 -130 -280 -29 -63
-117 -254 -197 -425 -80 -170 -159 -339 -175 -375 -139 -299 -391 -838 -418
-895 -18 -38 -47 -99 -63 -135 -57 -125 -155 -336 -195 -420 -42 -91 -133
-286 -242 -520 -36 -80 -84 -182 -106 -228 -21 -45 -39 -84 -39 -87 0 -2 -23
-51 -51 -107 -27 -57 -65 -137 -84 -178 -18 -41 -72 -158 -120 -260 -48 -102
-108 -232 -135 -290 -26 -58 -75 -163 -109 -233 -33 -70 -61 -130 -61 -132 0
-2 -25 -57 -56 -122 -31 -65 -128 -273 -216 -463 -88 -190 -181 -388 -205
-440 -25 -52 -59 -124 -75 -160 -79 -171 -222 -479 -240 -515 -11 -22 -35 -74
-53 -115 -18 -41 -57 -127 -87 -190 -30 -63 -70 -146 -88 -185 -56 -121 -239
-515 -295 -635 -29 -63 -98 -212 -153 -330 -55 -118 -118 -253 -140 -300 -22
-47 -115 -247 -207 -445 -92 -198 -189 -407 -217 -465 -28 -58 -63 -134 -79
-170 -15 -36 -49 -108 -74 -160 -26 -52 -51 -104 -55 -115 -4 -11 -147 -319
-318 -685 -388 -833 -695 -1493 -779 -1675 -36 -77 -93 -201 -128 -275 -71
-151 -260 -556 -338 -725 -28 -60 -73 -157 -100 -215 -27 -58 -60 -130 -74
-160 -13 -30 -43 -93 -65 -140 -23 -47 -48 -101 -56 -120 -14 -33 -25 -56 -43
-90 -18 -33 -89 -188 -89 -193 0 -3 -31 -71 -70 -150 -38 -79 -70 -147 -70
-151 0 -3 -34 -76 -75 -161 -41 -85 -75 -156 -75 -159 0 -3 -34 -75 -75 -161
-41 -86 -75 -161 -75 -166 0 -5 -6 -20 -14 -32 -8 -12 -40 -78 -71 -147 -31
-69 -79 -171 -106 -227 -27 -56 -66 -142 -88 -190 -21 -48 -53 -115 -70 -148
-17 -33 -31 -63 -31 -68 0 -5 -16 -40 -35 -78 -19 -39 -35 -75 -35 -81 0 -5
-8 -22 -18 -36 -10 -15 -31 -56 -46 -92 -16 -36 -51 -112 -78 -170 -50 -105
-57 -120 -121 -260 -19 -41 -53 -113 -75 -160 -22 -47 -57 -121 -77 -165 -20
-44 -52 -110 -71 -148 -19 -37 -34 -71 -34 -76 0 -5 -29 -69 -64 -142 -35 -74
-106 -224 -156 -334 -51 -110 -117 -252 -147 -315 -30 -63 -62 -133 -71 -155
-8 -22 -25 -56 -36 -77 -12 -20 -986 -1003 -2166 -2186 -2716 -2722 -2886
-2893 -3052 -3087 -451 -527 -806 -1060 -1103 -1655 -88 -178 -244 -531 -289
-656 -13 -38 -43 -117 -65 -177 -57 -148 -161 -474 -180 -562 -5 -22 -22 -89
-39 -150 -27 -100 -44 -170 -87 -365 -51 -224 -119 -718 -147 -1055 -17 -213
-17 -897 0 -1120 38 -481 128 -1034 233 -1425 11 -41 26 -97 34 -125 27 -105
47 -173 75 -255 15 -47 40 -123 54 -170 35 -112 167 -459 212 -557 20 -43 49
-110 64 -149 42 -105 214 -445 319 -632 99 -176 277 -466 338 -549 21 -29 63
-89 93 -134 66 -97 261 -354 345 -454 175 -209 223 -264 373 -422 258 -273
603 -592 832 -769 36 -28 108 -84 160 -125 52 -41 145 -107 205 -148 61 -41
126 -87 146 -102 38 -30 170 -112 381 -238 394 -236 837 -448 1263 -606 233
-87 564 -195 645 -210 19 -4 80 -19 135 -35 55 -15 114 -30 130 -33 17 -3 100
-22 185 -42 179 -41 469 -93 585 -105 44 -4 134 -15 200 -23 576 -74 1241 -74
1790 -1 66 9 154 20 195 24 102 11 502 78 570 95 30 8 107 26 170 40 235 54
373 95 770 226 330 110 867 343 1125 489 55 31 159 90 230 130 472 266 916
591 1400 1024 55 49 1221 1209 2590 2577 l2490 2487 110 50 c233 105 362 165
454 209 53 25 123 58 156 73 33 15 98 45 145 67 47 22 112 53 145 68 33 15
120 56 193 91 73 35 135 64 139 64 4 0 46 19 93 41 86 42 129 62 210 98 46 20
145 66 328 152 57 27 105 49 108 49 3 0 18 8 32 18 15 10 68 35 117 56 92 39
170 75 215 100 14 8 43 22 65 31 59 26 108 48 225 103 58 28 116 53 128 57 13
4 58 24 100 46 42 21 81 39 87 39 5 0 21 9 35 20 14 11 31 20 38 20 11 0 80
31 127 57 30 17 183 88 235 109 25 10 57 26 72 36 14 10 34 18 45 18 10 0 29
9 43 20 14 11 31 20 38 20 7 0 24 8 39 17 14 10 31 18 38 19 7 1 77 34 157 73
80 39 148 71 151 71 3 0 63 27 134 60 70 34 142 67 158 75 42 19 186 86 275
129 41 20 80 36 85 36 6 0 21 9 35 20 14 11 32 20 41 20 9 0 28 9 42 20 14 11
31 20 38 20 6 0 37 12 68 26 208 98 261 123 301 139 25 11 57 27 72 37 14 10
30 18 36 18 5 0 76 32 158 71 82 38 192 90 244 114 52 24 217 101 365 171 149
70 342 159 430 199 88 40 212 97 275 127 63 31 147 69 185 85 39 17 151 69
250 116 357 169 553 261 735 343 102 47 212 97 245 113 33 16 98 47 145 69
195 91 251 117 368 173 68 33 125 59 127 59 3 0 324 149 1025 477 217 102 442
207 500 233 58 26 146 66 195 90 220 104 424 200 475 223 30 13 93 43 140 65
143 67 237 110 430 199 102 46 218 100 257 119 40 19 75 34 78 34 2 0 80 36
172 81 266 128 559 265 653 304 30 13 107 49 170 80 63 32 153 74 200 95 47
21 119 53 160 73 41 19 172 80 290 135 118 55 268 125 333 156 64 31 119 56
122 56 2 0 65 29 139 65 74 36 137 65 139 65 3 0 76 34 162 75 86 41 158 75
160 75 2 0 74 34 160 75 85 41 158 75 160 75 3 0 58 25 122 56 126 60 270 127
588 274 110 51 260 121 334 156 73 35 135 64 137 64 2 0 66 30 141 66 76 36
176 83 223 104 47 20 125 56 173 79 49 22 91 41 94 41 3 0 70 32 149 70 80 39
147 70 149 70 3 0 70 31 151 70 80 39 147 70 149 70 3 0 64 28 137 63 73 35
187 88 253 118 204 92 585 285 683 347 796 499 1296 1307 1402 2262 8 77 11
518 8 1630 l-3 1525 -23 135 c-35 207 -101 480 -142 580 -10 25 -28 72 -41
105 -43 114 -147 325 -225 452 -238 394 -572 733 -979 994 -128 82 -427 225
-586 280 -214 73 -309 96 -559 136 l-165 27 -1627 3 -1628 4 0 2702 c0 1639
-4 2759 -10 2847 -16 240 -67 518 -139 755 -71 232 -260 609 -402 800 -265
357 -504 582 -867 817 -81 53 -315 173 -442 226 -178 76 -457 149 -735 194
l-140 22 -2817 3 -2817 4 -3 1617 -4 1617 -23 155 c-49 337 -126 594 -263 881
-64 133 -192 355 -252 435 -115 153 -153 200 -234 290 -107 120 -323 315 -440
399 -203 146 -337 222 -567 325 -156 70 -292 117 -450 156 -55 13 -116 29
-136 34 -76 21 -323 50 -504 60 -213 11 -2673 11 -2875 0z m2170 -5450 l0
-1870 -37 -26 c-67 -45 -187 -119 -228 -139 -22 -10 -53 -28 -68 -38 -15 -10
-86 -52 -157 -93 -153 -87 -362 -207 -443 -255 -31 -19 -112 -66 -180 -105
-67 -39 -176 -102 -242 -141 -66 -39 -138 -81 -160 -93 -22 -12 -60 -34 -85
-49 -25 -14 -57 -33 -71 -41 -14 -8 -104 -61 -200 -116 -96 -56 -273 -159
-394 -229 -121 -70 -263 -153 -315 -183 -233 -136 -469 -273 -645 -375 -104
-60 -237 -137 -295 -171 -58 -35 -154 -91 -215 -126 -60 -35 -189 -109 -285
-165 -225 -131 -234 -136 -366 -210 -61 -35 -134 -79 -161 -99 -52 -37 -73
-44 -73 -24 0 6 23 61 51 122 189 408 222 478 392 841 41 88 151 324 245 525
93 201 233 500 310 665 203 435 195 418 375 805 91 195 188 402 215 460 27 58
90 193 140 300 49 107 115 248 146 313 31 65 56 119 56 121 0 2 27 59 59 127
78 164 192 409 251 539 26 58 69 150 95 205 26 55 72 151 101 213 30 63 54
115 54 117 0 2 24 54 54 116 29 63 112 240 184 394 72 154 155 333 186 398 31
65 56 124 56 131 0 7 3 16 7 19 3 4 375 7 825 7 l818 0 0 -1870z m8360 -6440
l0 -2330 -22 -9 c-25 -9 -147 -47 -373 -116 -82 -26 -193 -60 -245 -77 -52
-16 -171 -54 -265 -84 -93 -30 -197 -63 -230 -73 -33 -11 -197 -63 -365 -116
-168 -53 -408 -129 -535 -169 -126 -40 -282 -89 -345 -109 -189 -59 -460 -144
-725 -229 -137 -43 -329 -104 -425 -134 -96 -31 -272 -86 -390 -124 -118 -38
-305 -97 -415 -130 -110 -34 -324 -101 -475 -150 -151 -48 -286 -91 -300 -95
-14 -3 -92 -28 -175 -55 -82 -27 -211 -67 -285 -90 -74 -23 -180 -57 -235 -75
-55 -18 -140 -45 -190 -60 -49 -14 -187 -57 -305 -95 -307 -99 -499 -160 -504
-160 -5 0 10 61 29 115 7 22 39 121 70 220 31 99 71 227 90 285 44 137 139
439 210 665 31 99 74 234 95 300 21 66 89 280 150 475 191 607 221 703 245
775 13 39 40 124 60 190 20 66 43 138 50 160 7 22 39 121 70 220 116 371 176
561 189 600 8 22 24 74 36 115 13 41 47 149 76 240 29 91 78 246 109 345 31
99 90 286 131 415 41 129 83 262 94 295 21 69 104 331 184 585 30 96 87 276
127 400 39 124 82 261 95 305 13 44 26 86 29 93 3 9 480 12 2335 12 l2330 0 0
-2330z m-9190 -91 c0 -7 -9 -37 -20 -68 -10 -31 -44 -137 -75 -236 -31 -99
-62 -198 -70 -220 -7 -22 -34 -105 -59 -185 -71 -227 -175 -557 -201 -640 -28
-88 -136 -428 -230 -725 -37 -115 -95 -300 -130 -410 -35 -110 -82 -261 -105
-335 -23 -74 -50 -160 -61 -190 -10 -30 -33 -104 -52 -165 -64 -205 -119 -380
-133 -420 -11 -35 -132 -414 -184 -580 -10 -33 -45 -145 -79 -250 -33 -104
-85 -271 -116 -370 -31 -99 -63 -198 -70 -220 -8 -22 -39 -119 -69 -215 -112
-358 -178 -566 -191 -605 -8 -22 -34 -105 -59 -185 -26 -80 -53 -153 -61 -164
-45 -59 -5270 -5276 -5281 -5274 -8 2 -439 428 -959 948 -728 727 -945 950
-945 968 0 13 9 41 19 61 23 44 91 189 91 195 0 2 34 74 75 160 41 86 75 158
75 161 0 3 24 56 54 118 29 61 64 135 76 162 13 28 44 95 70 150 26 55 60 127
75 160 15 33 45 98 67 145 22 47 56 119 75 160 19 41 49 102 65 135 17 33 54
114 83 180 29 66 61 136 72 155 11 19 27 54 36 78 9 23 43 97 76 165 33 67
103 217 156 332 54 116 146 314 205 440 59 127 149 320 200 430 51 110 112
241 135 290 24 50 118 252 210 450 92 198 188 403 212 455 25 52 56 118 68
145 13 28 46 100 75 160 29 61 62 133 75 160 84 189 349 752 359 762 6 6 97
60 201 120 283 163 672 389 880 512 44 26 123 72 175 101 52 29 133 76 180
105 47 29 105 63 130 77 25 13 111 63 193 111 316 187 444 261 487 285 25 14
50 28 55 32 6 4 69 42 140 83 72 41 151 87 175 101 25 14 74 42 110 62 36 20
88 50 115 67 28 17 131 77 230 135 99 57 205 119 235 137 30 18 127 74 215
125 88 51 208 121 266 156 59 35 109 64 112 64 2 0 64 35 136 78 71 42 188
110 258 151 154 90 257 151 338 199 33 20 89 52 125 72 36 20 202 116 370 214
168 98 364 212 435 254 72 41 166 97 210 122 240 141 425 248 465 270 44 23
56 31 135 83 42 28 75 35 75 16z m15168 -6761 l-3 -822 -25 -6 c-14 -4 -79
-33 -145 -65 -66 -31 -172 -81 -235 -110 -129 -59 -598 -278 -977 -456 -139
-66 -255 -119 -258 -119 -4 0 -59 -25 -123 -56 -64 -31 -180 -85 -257 -121
-77 -36 -201 -93 -275 -128 -142 -67 -361 -169 -570 -265 -115 -53 -233 -109
-415 -195 -38 -19 -110 -52 -160 -73 -107 -47 -379 -173 -920 -427 -220 -103
-409 -191 -420 -195 -11 -4 -139 -64 -285 -133 -345 -162 -419 -197 -425 -197
-2 0 -46 -21 -97 -46 -51 -25 -151 -72 -223 -104 -71 -32 -166 -76 -210 -98
-44 -22 -105 -50 -135 -62 -30 -12 -93 -42 -141 -66 -84 -43 -119 -53 -119
-34 0 5 17 38 39 73 21 35 60 101 86 148 26 46 78 136 115 199 73 124 362 621
518 890 52 91 123 212 157 270 34 58 96 164 137 235 222 383 738 1269 788
1355 210 359 280 480 280 487 0 2 13 23 28 46 16 23 53 85 82 137 29 52 77
135 107 183 29 49 53 90 53 92 0 3 25 45 55 95 30 50 55 93 55 95 0 8 152 260
168 278 14 16 117 17 1884 17 l1868 0 -2 -822z m-8401 -31 c-7 -18 -42 -82
-78 -142 -36 -61 -110 -186 -164 -280 -54 -93 -144 -249 -200 -345 -56 -96
-175 -301 -265 -455 -90 -154 -186 -320 -215 -370 -109 -187 -198 -339 -375
-645 -101 -173 -220 -378 -265 -455 -45 -77 -142 -243 -215 -370 -73 -126
-170 -293 -215 -370 -87 -148 -365 -627 -735 -1265 -123 -212 -260 -448 -306
-525 -45 -77 -180 -309 -299 -515 -286 -492 -360 -619 -382 -655 -19 -32 -33
-39 -253 -140 -74 -34 -382 -178 -685 -320 -302 -142 -581 -272 -620 -290 -88
-41 -155 -72 -489 -229 -147 -69 -270 -126 -272 -126 -3 0 -73 -33 -157 -74
-148 -73 -605 -286 -611 -286 -2 0 -92 -43 -200 -95 -108 -52 -199 -95 -201
-95 -3 0 -70 -31 -148 -69 -78 -37 -153 -72 -167 -76 -14 -4 -90 -40 -171 -79
-80 -39 -185 -90 -235 -113 -49 -23 -155 -73 -236 -112 -81 -38 -158 -73 -170
-77 -13 -3 -88 -38 -167 -75 -79 -38 -145 -69 -147 -69 -1 0 -73 -34 -158 -75
-85 -41 -157 -75 -160 -75 -3 0 -69 -31 -148 -69 -228 -109 -300 -142 -341
-157 -21 -7 -48 -20 -60 -29 -12 -8 -26 -15 -32 -15 -6 0 -305 296 -666 658
-990 993 -1244 1250 -1247 1264 -3 15 5254 5275 5290 5294 13 7 57 22 98 33
41 11 145 43 230 71 85 28 214 69 285 92 72 22 218 69 325 103 107 35 245 77
305 95 61 17 126 38 145 45 41 16 432 141 505 161 28 8 91 27 140 43 237 77
577 185 740 236 99 31 207 65 240 75 33 11 141 45 240 76 99 31 245 78 325
104 80 26 213 69 295 94 83 25 215 67 295 92 170 54 394 125 500 158 329 104
550 174 695 221 94 30 238 75 320 100 83 25 168 52 190 61 21 9 78 26 125 38
47 13 103 32 125 43 22 11 43 18 47 16 4 -2 1 -18 -5 -36z m-15265 -8494
l3058 -3058 -778 -777 c-427 -428 -781 -778 -786 -778 -8 0 -5976 5965 -6081
6078 l-49 53 770 770 c486 486 776 769 788 769 13 0 1123 -1104 3078 -3057z
m-3256 -3237 c1841 -1842 3034 -3042 3034 -3053 0 -10 -18 -29 -39 -43 -22
-14 -97 -72 -168 -129 -294 -238 -657 -450 -1037 -605 -414 -170 -765 -256
-1213 -299 -519 -50 -1045 -7 -1523 125 -400 110 -788 277 -1130 487 -329 201
-685 494 -939 773 -161 177 -372 457 -493 653 -97 157 -265 486 -315 615 -131
338 -205 599 -258 915 -89 521 -80 1061 26 1587 49 243 143 552 243 796 157
384 433 839 684 1125 18 21 37 49 42 63 6 15 17 24 30 24 15 0 959 -938 3056
-3034z"/>
</g>
</svg>
