<?xml version="1.0" standalone="no"?>
<!DOCTYPE svg PUBLIC "-//W3C//DTD SVG 20010904//EN"
 "http://www.w3.org/TR/2001/REC-SVG-20010904/DTD/svg10.dtd">
<svg version="1.0" xmlns="http://www.w3.org/2000/svg"
 width="3840.000000pt" height="3963.000000pt" viewBox="0 0 3840.000000 3963.000000"
 preserveAspectRatio="xMidYMid meet">
<metadata>
Created by potrace 1.16, written by Peter Selinger 2001-2019
</metadata>
<g transform="translate(0.000000,3963.000000) scale(0.100000,-0.100000)"
fill="#000000" stroke="none">
<path d="M18835 38933 c-328 -5 -973 -38 -1225 -63 -58 -5 -202 -19 -320 -30
-308 -29 -694 -78 -1035 -132 -336 -52 -418 -66 -495 -83 -41 -9 -147 -29
-235 -45 -88 -17 -169 -32 -180 -34 -32 -6 -356 -76 -400 -86 -316 -74 -475
-114 -645 -160 -36 -10 -110 -30 -165 -45 -123 -33 -326 -92 -380 -111 -22 -7
-96 -29 -165 -49 -69 -19 -276 -86 -460 -149 -468 -159 -523 -179 -625 -221
-97 -41 -287 -117 -425 -170 -254 -97 -375 -148 -590 -248 -41 -19 -138 -63
-215 -97 -301 -134 -349 -157 -615 -292 -474 -242 -592 -304 -698 -367 -57
-34 -106 -61 -108 -61 -2 0 -23 -12 -47 -27 -45 -30 -52 -34 -142 -83 -33 -18
-71 -40 -85 -50 -14 -9 -61 -36 -105 -60 -110 -59 -132 -72 -431 -265 -60 -38
-113 -72 -119 -74 -5 -2 -61 -39 -125 -81 -63 -42 -137 -90 -163 -106 -27 -16
-61 -36 -75 -45 -15 -9 -65 -44 -112 -78 -132 -96 -211 -151 -215 -151 -2 0
-50 -35 -108 -77 -57 -43 -110 -82 -119 -88 -9 -5 -54 -37 -100 -70 -45 -33
-99 -71 -120 -85 -42 -29 -140 -105 -487 -379 -242 -191 -332 -266 -561 -467
-63 -55 -182 -158 -265 -229 -266 -228 -768 -718 -1219 -1190 -178 -187 -257
-273 -381 -419 -27 -33 -84 -98 -125 -146 -321 -369 -339 -391 -644 -780 -49
-63 -113 -144 -142 -180 -28 -36 -110 -146 -180 -245 -71 -99 -137 -191 -147
-205 -30 -41 -141 -197 -155 -217 -7 -10 -36 -51 -65 -91 -62 -88 -124 -181
-134 -202 -4 -8 -11 -19 -15 -25 -5 -5 -23 -32 -40 -60 -17 -27 -58 -89 -90
-137 -32 -49 -58 -90 -58 -93 0 -3 -15 -27 -32 -53 -18 -26 -37 -55 -43 -64
-5 -10 -22 -34 -36 -55 -66 -97 -123 -189 -197 -318 -177 -311 -277 -484 -327
-570 -107 -186 -489 -938 -590 -1165 -38 -85 -116 -258 -173 -385 -57 -126
-120 -270 -139 -320 -19 -49 -90 -229 -158 -400 -68 -170 -146 -375 -174 -455
-29 -80 -60 -165 -69 -190 -18 -45 -197 -590 -233 -710 -119 -393 -215 -744
-270 -980 -12 -52 -28 -120 -36 -150 -9 -30 -22 -83 -29 -117 -8 -35 -20 -91
-28 -125 -70 -317 -87 -398 -106 -498 -11 -63 -25 -134 -30 -157 -11 -45 -86
-482 -100 -578 -5 -33 -23 -154 -40 -270 -121 -825 -190 -1786 -190 -2655 0
-385 12 -686 50 -1240 21 -308 26 -365 65 -750 14 -129 29 -284 35 -345 6 -60
27 -213 46 -340 50 -335 74 -495 80 -540 5 -42 52 -291 84 -455 11 -52 35
-178 55 -280 20 -102 56 -268 81 -370 25 -102 54 -223 65 -270 11 -47 26 -110
34 -140 7 -30 24 -95 36 -145 22 -90 64 -242 114 -410 14 -49 55 -189 90 -310
35 -121 85 -281 110 -355 26 -74 59 -173 75 -220 117 -345 198 -570 258 -720
39 -96 94 -236 123 -310 168 -437 653 -1469 897 -1907 54 -98 141 -254 192
-348 52 -93 119 -210 150 -260 31 -49 78 -126 104 -170 26 -44 74 -123 106
-175 33 -52 80 -131 106 -175 26 -44 75 -120 109 -170 34 -49 140 -207 235
-350 96 -143 264 -381 373 -530 110 -148 225 -304 256 -345 109 -148 548 -688
686 -844 77 -88 207 -236 289 -330 219 -252 670 -718 1006 -1039 288 -276 345
-328 580 -532 63 -54 117 -102 120 -105 20 -22 197 -175 300 -259 69 -57 134
-110 145 -119 11 -10 65 -53 120 -97 55 -44 106 -86 113 -93 8 -7 30 -25 50
-40 21 -15 39 -29 42 -32 3 -3 25 -21 50 -40 25 -19 51 -40 58 -47 7 -7 16
-13 20 -13 4 0 20 -11 36 -25 16 -14 32 -25 35 -25 3 0 18 -10 31 -22 14 -13
41 -34 60 -48 19 -13 40 -28 45 -33 6 -4 48 -35 95 -68 47 -33 92 -65 100 -72
9 -7 37 -27 62 -45 26 -18 69 -51 95 -73 66 -55 66 -55 94 -69 13 -7 26 -16
29 -19 3 -4 124 -85 270 -181 146 -95 267 -176 270 -179 3 -3 17 -12 33 -20
15 -8 27 -18 27 -23 0 -4 6 -8 13 -8 7 0 22 -8 33 -18 22 -19 27 -22 139 -89
43 -26 82 -47 86 -46 4 1 15 -7 24 -17 10 -11 22 -20 27 -20 5 0 43 -22 84
-50 41 -27 79 -50 84 -50 6 0 10 -4 10 -9 0 -5 8 -11 18 -15 9 -3 31 -14 47
-23 152 -92 308 -184 345 -204 25 -13 47 -27 48 -31 2 -5 8 -8 14 -8 11 0 174
-87 353 -189 139 -78 854 -437 1000 -501 72 -31 204 -90 295 -129 91 -40 213
-95 271 -122 59 -27 131 -58 160 -68 30 -10 133 -50 229 -88 316 -127 483
-191 590 -228 230 -79 890 -295 965 -315 74 -20 225 -65 370 -109 140 -43 292
-82 845 -215 144 -35 481 -104 615 -126 101 -17 212 -39 275 -55 57 -14 203
-39 445 -74 77 -11 230 -34 340 -50 110 -17 247 -35 305 -41 58 -5 146 -14
195 -20 523 -56 511 -55 875 -80 162 -11 354 -25 425 -30 304 -23 818 -31
1230 -20 381 10 884 36 1155 60 63 6 167 15 230 21 63 5 151 14 195 19 44 5
161 19 260 31 232 27 687 91 919 130 99 17 206 34 237 39 156 23 899 183 1159
249 148 38 326 84 370 97 25 7 88 24 140 38 136 36 485 138 620 181 63 20 169
54 235 75 158 50 521 177 660 230 61 24 151 57 200 75 50 18 131 49 180 70 50
21 124 50 165 65 41 15 145 57 230 94 579 252 841 374 1205 561 138 71 309
158 380 195 127 64 176 91 415 230 63 37 210 121 325 188 116 66 261 153 324
194 62 40 118 75 125 78 10 5 278 180 336 220 14 9 35 20 48 24 12 4 22 11 22
16 0 4 8 10 18 14 14 5 57 33 97 63 6 5 39 28 75 52 36 25 67 48 70 51 3 4 28
20 55 36 54 31 55 32 134 98 30 25 58 46 63 46 4 0 29 16 55 36 72 54 91 67
183 133 47 33 90 63 95 68 6 5 26 19 45 33 19 13 37 27 40 30 6 8 156 124 218
169 26 19 54 42 62 51 8 9 31 27 50 40 36 25 49 35 104 80 17 14 63 50 101 80
39 30 144 118 235 195 366 315 568 490 625 544 422 394 668 636 986 971 272
287 307 325 379 410 87 103 364 422 425 490 28 30 106 127 175 214 69 87 179
227 245 310 173 219 371 486 533 721 23 33 62 87 86 120 58 78 219 319 321
479 44 70 117 184 163 254 131 200 142 218 209 337 21 39 84 147 138 240 217
375 300 526 486 890 107 209 202 396 211 415 9 19 44 94 78 165 191 403 390
874 593 1405 65 171 188 521 242 690 26 80 55 169 66 197 10 29 30 92 44 140
27 94 51 176 110 373 21 69 43 148 50 175 7 28 27 102 45 165 72 260 243 978
271 1140 4 25 23 128 43 230 29 156 69 385 116 675 38 230 99 717 130 1025 75
766 110 1808 80 2400 -21 419 -62 999 -91 1280 -52 520 -63 615 -100 860 -16
107 -43 285 -60 395 -16 110 -34 220 -39 245 -5 25 -25 131 -45 235 -73 382
-116 592 -135 665 -10 41 -44 179 -75 305 -31 127 -67 277 -81 335 -14 58 -32
128 -40 155 -15 55 -89 302 -104 350 -5 17 -32 111 -60 210 -28 99 -60 207
-72 240 -11 33 -73 215 -138 405 -64 190 -147 422 -184 515 -37 94 -101 258
-142 365 -76 196 -240 577 -416 964 -77 170 -410 833 -500 995 -292 529 -321
580 -498 866 -47 77 -117 192 -155 255 -38 63 -97 156 -130 205 -34 50 -146
216 -250 370 -103 154 -238 348 -300 430 -61 83 -169 227 -238 322 -69 94
-177 235 -239 311 -62 77 -170 211 -240 298 -125 158 -183 227 -426 503 -231
262 -927 1003 -951 1013 -5 2 -114 104 -242 227 -352 337 -775 709 -1167 1025
-367 296 -281 230 -857 656 -254 188 -843 581 -1125 750 -113 68 -230 140
-260 160 -30 20 -122 74 -205 120 -82 45 -166 93 -186 105 -20 13 -80 47 -135
75 -54 29 -166 90 -249 135 -358 199 -1237 616 -1665 790 -30 13 -107 44 -170
70 -122 50 -237 95 -385 150 -49 18 -115 43 -145 55 -30 11 -84 32 -120 44
-285 102 -390 138 -420 146 -19 4 -80 24 -135 43 -98 34 -209 70 -370 120 -74
23 -124 37 -310 88 -38 11 -131 37 -205 58 -149 44 -217 62 -460 120 -91 22
-230 56 -310 75 -80 20 -212 49 -295 66 -82 16 -181 37 -220 45 -64 15 -132
28 -440 84 -60 11 -189 32 -285 46 -96 14 -278 42 -405 61 -126 19 -273 39
-325 44 -52 5 -223 23 -380 40 -157 17 -350 35 -430 40 -80 5 -170 12 -200 15
-299 30 -1122 67 -1390 63 -69 -1 -192 -4 -275 -5z m2600 -3878 c55 -9 138
-22 185 -30 47 -8 119 -19 160 -25 156 -21 706 -132 940 -190 85 -21 216 -52
290 -70 125 -30 377 -100 595 -165 50 -15 104 -31 120 -35 69 -17 669 -222
776 -264 64 -25 119 -46 122 -46 15 0 295 -112 567 -227 938 -396 1820 -878
2667 -1455 273 -186 322 -221 442 -311 64 -48 145 -108 180 -135 77 -57 314
-243 321 -252 3 -3 33 -27 67 -53 160 -122 595 -499 817 -707 441 -413 742
-727 1193 -1240 283 -323 727 -897 981 -1270 51 -74 112 -162 135 -195 131
-184 566 -895 697 -1140 24 -44 68 -127 100 -185 31 -58 80 -152 109 -210 30
-58 57 -109 61 -115 11 -15 294 -612 319 -675 20 -47 76 -177 141 -325 10 -22
34 -83 54 -135 21 -52 43 -108 51 -125 7 -16 23 -57 35 -90 12 -33 30 -80 40
-105 83 -200 310 -877 390 -1160 29 -102 60 -212 70 -245 52 -173 171 -669
214 -890 20 -99 45 -223 56 -275 26 -123 52 -273 85 -485 14 -93 30 -192 36
-218 5 -26 9 -69 9 -95 0 -44 -6 -54 -81 -147 -104 -130 -164 -190 -274 -280
-240 -194 -521 -322 -825 -374 -122 -21 -403 -37 -815 -46 -132 -2 -325 -12
-428 -20 -103 -8 -269 -22 -369 -30 -101 -8 -219 -20 -263 -26 -44 -6 -111
-14 -150 -19 -210 -24 -494 -64 -614 -85 -75 -14 -185 -34 -246 -44 -60 -11
-166 -30 -235 -41 -69 -12 -161 -30 -205 -40 -106 -25 -417 -96 -530 -121
-167 -37 -375 -94 -626 -170 -70 -22 -135 -39 -146 -39 -11 0 -73 -17 -139
-39 -65 -21 -155 -50 -199 -64 -44 -14 -145 -49 -225 -76 -79 -28 -151 -51
-159 -51 -15 0 -63 -17 -171 -60 -42 -17 -119 -46 -200 -75 -19 -7 -83 -31
-141 -54 -58 -22 -110 -41 -117 -41 -6 0 -33 -10 -59 -21 -27 -12 -57 -26 -68
-30 -11 -5 -90 -38 -175 -75 -85 -37 -191 -81 -235 -99 -295 -121 -924 -424
-1224 -589 -113 -63 -260 -143 -326 -178 -204 -110 -697 -415 -1006 -623 -272
-183 -342 -232 -504 -357 -33 -25 -134 -101 -225 -168 -147 -110 -428 -340
-669 -549 -248 -214 -813 -776 -1047 -1041 -178 -201 -479 -571 -660 -812
-231 -307 -591 -829 -718 -1042 -40 -66 -123 -203 -183 -302 -149 -243 -419
-742 -566 -1044 -65 -135 -150 -309 -188 -388 -39 -78 -94 -202 -124 -275 -29
-73 -77 -184 -105 -247 -63 -140 -113 -262 -146 -355 -28 -77 -95 -254 -124
-325 -10 -25 -28 -72 -40 -105 -12 -33 -31 -85 -42 -115 -11 -30 -26 -71 -33
-90 -8 -19 -23 -69 -35 -110 -13 -41 -30 -97 -40 -125 -10 -27 -27 -81 -40
-120 -12 -38 -30 -92 -40 -120 -23 -63 -86 -267 -99 -320 -6 -22 -22 -80 -36
-130 -14 -49 -30 -108 -34 -130 -5 -22 -31 -119 -59 -215 -27 -96 -62 -229
-76 -295 -15 -66 -36 -156 -46 -200 -55 -226 -73 -315 -189 -950 -29 -160 -39
-229 -101 -710 -42 -325 -85 -937 -95 -1355 -11 -476 -24 -600 -82 -805 -111
-388 -342 -723 -658 -955 -69 -51 -71 -51 -130 -47 -33 2 -134 16 -225 31 -91
15 -208 34 -260 42 -158 24 -745 142 -840 169 -30 8 -181 46 -335 85 -154 38
-311 78 -350 90 -38 11 -92 27 -120 35 -248 72 -358 106 -609 190 -160 53
-331 112 -380 132 -50 19 -140 54 -201 78 -60 24 -130 50 -155 58 -83 28 -174
65 -305 122 -71 32 -197 86 -280 120 -347 146 -1117 536 -1435 726 -96 58
-200 118 -230 133 -30 16 -111 65 -180 109 -69 44 -150 95 -180 113 -96 58
-336 216 -476 314 -74 52 -193 136 -264 185 -177 124 -548 406 -709 539 -305
252 -390 323 -466 392 -44 39 -143 128 -220 196 -77 69 -214 196 -304 284 -90
87 -167 160 -171 162 -11 4 -508 527 -601 632 -46 52 -136 154 -199 225 -284
318 -785 960 -1015 1300 -60 88 -125 183 -146 210 -55 74 -364 560 -454 715
-43 74 -113 194 -155 265 -42 72 -105 184 -140 250 -35 66 -95 179 -133 250
-57 106 -297 591 -297 600 0 1 -27 59 -60 128 -33 70 -60 129 -60 132 0 3 -17
44 -39 92 -74 167 -181 421 -210 499 -16 43 -50 133 -76 199 -25 66 -61 161
-79 210 -41 112 -236 689 -246 730 -4 17 -41 147 -83 290 -71 248 -129 463
-147 550 -4 22 -23 103 -43 180 -89 361 -257 1279 -257 1405 0 28 13 53 59
113 226 295 545 522 881 628 233 73 307 80 1150 109 318 11 830 50 1035 80 33
5 98 13 145 19 204 26 609 82 655 91 28 5 147 28 265 50 267 50 428 84 610
130 19 5 107 25 195 44 219 48 305 70 485 123 85 25 173 50 195 55 39 9 217
62 325 97 30 10 82 26 115 36 33 10 78 24 100 33 22 8 56 18 75 22 40 9 127
39 203 69 12 5 31 12 42 14 38 10 170 60 179 68 6 5 17 9 27 9 9 0 41 9 70 21
30 12 70 27 89 34 117 44 261 99 300 115 25 10 72 28 105 40 63 23 91 35 167
69 26 12 50 21 54 21 8 0 63 24 150 66 28 13 98 44 155 68 251 106 795 370
1044 507 72 39 207 113 300 163 94 51 276 157 405 236 129 79 267 162 305 185
184 110 693 461 930 640 105 79 219 166 254 192 89 68 539 442 626 522 410
376 861 834 1091 1107 55 65 159 189 230 274 117 138 454 579 575 750 289 409
680 1031 879 1400 40 74 85 158 100 185 113 207 163 301 198 375 22 47 95 198
162 335 278 570 596 1367 795 1990 42 132 85 263 95 290 10 28 27 84 39 125
12 41 31 104 41 140 11 36 20 72 20 80 0 8 6 35 14 60 15 46 40 136 56 200 5
19 23 85 40 145 17 61 40 151 51 200 36 158 49 214 63 278 8 34 26 114 41 177
24 106 35 164 80 415 8 50 29 162 45 250 36 201 45 255 76 490 46 354 54 420
69 605 8 102 22 266 30 365 8 99 20 340 25 535 13 443 24 631 45 740 84 444
298 806 639 1082 103 83 133 99 176 92 14 -2 70 -11 125 -19z m-4455 -16 c0
-7 -4 -28 -10 -48 -20 -72 -72 -297 -80 -346 -5 -27 -20 -111 -34 -185 -55
-297 -77 -569 -91 -1140 -12 -506 -77 -1144 -166 -1632 -61 -340 -81 -437
-115 -568 -8 -30 -23 -98 -34 -150 -44 -204 -173 -670 -255 -919 -114 -350
-135 -410 -158 -471 -14 -36 -42 -108 -62 -160 -20 -52 -49 -132 -65 -176 -76
-212 -371 -868 -522 -1159 -206 -398 -441 -800 -652 -1115 -71 -107 -148 -222
-170 -255 -169 -253 -593 -775 -861 -1059 -654 -692 -1514 -1339 -2500 -1879
-228 -126 -919 -463 -985 -482 -14 -4 -103 -41 -198 -82 -170 -72 -234 -98
-537 -210 -197 -72 -711 -241 -810 -266 -11 -2 -85 -23 -165 -45 -216 -60
-338 -93 -405 -108 -33 -7 -141 -31 -240 -54 -211 -48 -718 -142 -890 -164
-66 -8 -172 -22 -235 -30 -341 -45 -681 -68 -1280 -86 -579 -18 -968 -72
-1422 -199 l-68 -18 0 31 c0 17 7 69 16 116 8 47 19 110 24 140 5 30 18 111
29 180 25 152 142 729 172 843 12 45 27 107 34 137 51 221 214 800 299 1060
82 251 196 577 251 715 34 88 85 219 113 290 57 147 272 641 355 815 111 234
247 507 292 590 83 149 101 183 140 260 37 71 135 242 312 540 240 405 613
953 939 1380 215 281 505 639 633 780 43 47 128 144 191 215 196 225 919 954
1036 1046 29 22 102 87 301 267 46 41 113 99 150 129 38 31 86 70 108 88 200
164 422 343 465 373 25 17 97 72 160 121 108 84 231 172 542 388 119 82 219
147 588 383 58 37 143 89 190 116 47 26 155 90 241 141 86 51 228 130 315 175
88 45 218 114 289 153 72 38 159 83 195 99 36 16 110 51 165 79 278 138 358
175 565 263 573 245 1120 445 1660 609 102 31 223 67 270 82 98 29 764 197
843 212 28 5 106 22 172 36 209 45 263 56 580 110 330 56 375 62 375 44z
m17410 -17775 c-63 -371 -156 -825 -217 -1064 -14 -52 -44 -171 -67 -265 -106
-418 -351 -1190 -484 -1525 -16 -41 -61 -156 -99 -255 -59 -150 -162 -396
-218 -520 -8 -16 -41 -91 -74 -165 -166 -378 -475 -973 -731 -1410 -288 -493
-667 -1065 -953 -1440 -44 -58 -123 -161 -176 -230 -52 -69 -136 -174 -186
-235 -50 -60 -133 -162 -185 -225 -99 -120 -318 -370 -505 -575 -143 -156
-741 -754 -871 -870 -319 -285 -607 -533 -720 -621 -28 -21 -104 -81 -169
-133 -449 -362 -1031 -766 -1570 -1091 -583 -353 -1271 -711 -1750 -914 -71
-30 -182 -78 -245 -106 -63 -28 -151 -65 -195 -81 -44 -17 -118 -47 -165 -66
-219 -93 -804 -294 -1205 -414 -305 -92 -857 -235 -1110 -288 -77 -17 -205
-44 -285 -61 -117 -24 -439 -81 -732 -129 -41 -7 -48 -6 -48 8 0 9 16 84 35
166 72 305 112 530 139 780 22 200 25 256 37 685 16 580 77 1235 155 1655 14
77 34 190 45 250 11 61 29 148 39 195 68 305 79 352 116 508 14 59 40 153 115
422 19 68 91 300 171 550 38 119 243 666 299 797 50 119 165 385 186 433 9 19
71 148 138 285 479 984 1063 1859 1716 2570 189 206 570 574 734 710 66 54
160 132 208 173 132 110 516 397 647 482 63 41 169 111 235 156 250 168 691
421 1050 604 341 173 865 408 1138 512 369 140 890 317 1112 378 299 82 491
133 600 158 300 70 387 88 525 112 69 12 172 30 230 41 58 11 130 24 160 29
30 6 109 17 175 26 66 8 188 24 270 35 180 24 586 57 780 64 77 3 289 10 470
15 417 13 634 34 945 91 158 29 519 115 530 126 15 15 6 -63 -40 -333z"/>
</g>
</svg>
