<?xml version="1.0" standalone="no"?>
<!DOCTYPE svg PUBLIC "-//W3C//DTD SVG 20010904//EN"
 "http://www.w3.org/TR/2001/REC-SVG-20010904/DTD/svg10.dtd">
<svg version="1.0" xmlns="http://www.w3.org/2000/svg"
 width="3840.000000pt" height="3074.000000pt" viewBox="0 0 3840.000000 3074.000000"
 preserveAspectRatio="xMidYMid meet">
<metadata>
Created by potrace 1.16, written by Peter Selinger 2001-2019
</metadata>
<g transform="translate(0.000000,3074.000000) scale(0.100000,-0.100000)"
fill="#000000" stroke="none">
<path d="M14535 30670 c-519 -12 -1258 -55 -1860 -110 -431 -39 -1488 -174
-1825 -234 -47 -8 -186 -33 -310 -55 -124 -22 -277 -49 -340 -60 -63 -11 -225
-43 -360 -71 -135 -28 -265 -55 -290 -60 -181 -37 -366 -78 -550 -124 -118
-29 -278 -68 -355 -86 -77 -18 -210 -52 -295 -76 -85 -23 -209 -57 -275 -74
-66 -17 -163 -44 -215 -59 -52 -16 -124 -36 -160 -45 -72 -19 -206 -59 -290
-87 -30 -10 -109 -34 -175 -54 -230 -70 -272 -83 -570 -183 -441 -147 -740
-252 -920 -322 -172 -67 -290 -112 -370 -140 -73 -25 -381 -150 -520 -210 -66
-29 -181 -77 -255 -107 -140 -57 -392 -168 -615 -271 -71 -32 -175 -80 -230
-105 -150 -68 -394 -186 -745 -362 -309 -154 -357 -179 -530 -275 -47 -26
-132 -72 -190 -103 -384 -201 -560 -313 -820 -525 -380 -309 -751 -774 -977
-1227 -69 -137 -174 -382 -193 -450 -5 -16 -25 -77 -45 -135 -81 -237 -150
-582 -179 -905 -33 -356 -12 -711 71 -1170 13 -77 31 -177 39 -223 14 -84 35
-204 53 -302 9 -53 21 -120 75 -425 13 -77 34 -194 46 -260 12 -66 32 -181 45
-255 13 -74 55 -313 94 -530 38 -217 79 -447 90 -510 11 -63 43 -243 71 -400
28 -157 64 -361 80 -455 29 -160 48 -271 121 -680 16 -93 36 -207 44 -253 8
-45 21 -119 29 -165 17 -94 63 -357 100 -562 13 -77 34 -194 46 -260 12 -66
32 -181 45 -255 13 -74 31 -173 39 -220 8 -47 26 -152 41 -235 14 -82 32 -184
40 -225 8 -41 28 -156 45 -255 38 -213 84 -478 105 -590 14 -78 70 -397 99
-565 18 -101 79 -447 102 -575 8 -49 22 -124 30 -165 7 -41 22 -127 33 -190
25 -144 124 -708 151 -855 11 -60 29 -164 41 -230 11 -66 32 -183 45 -260 24
-135 56 -312 109 -615 66 -377 178 -793 293 -1095 135 -351 269 -640 445 -955
66 -118 134 -237 152 -265 18 -27 79 -122 135 -210 293 -458 756 -1027 1209
-1489 216 -218 554 -536 726 -683 66 -55 134 -114 151 -130 16 -15 46 -40 65
-54 19 -15 46 -37 60 -50 14 -13 63 -53 110 -89 46 -35 86 -67 89 -70 3 -3 28
-23 55 -44 28 -22 55 -44 60 -51 6 -6 33 -26 60 -45 28 -19 54 -41 58 -47 4
-7 15 -13 22 -13 8 0 15 -3 15 -7 0 -5 17 -19 38 -32 20 -14 42 -30 47 -36 6
-6 33 -26 60 -45 28 -19 54 -41 58 -47 4 -7 15 -13 22 -13 8 0 15 -3 15 -7 0
-5 27 -26 60 -48 33 -22 60 -43 60 -47 0 -5 7 -8 15 -8 8 0 23 -9 32 -20 10
-11 21 -20 26 -20 4 0 13 -5 20 -11 20 -17 257 -183 278 -194 10 -5 19 -13 19
-17 0 -5 6 -8 13 -8 8 0 22 -9 32 -20 10 -11 22 -20 28 -20 5 0 50 -27 99 -60
49 -33 90 -60 93 -60 2 0 33 -20 69 -45 37 -25 71 -45 76 -45 6 0 10 -3 10 -7
0 -7 28 -26 87 -59 12 -7 75 -44 140 -84 65 -39 125 -75 133 -80 8 -4 49 -28
90 -53 61 -36 188 -108 279 -157 9 -5 66 -38 126 -73 217 -126 878 -460 1165
-589 74 -33 185 -83 245 -110 105 -48 282 -123 540 -230 523 -216 1211 -451
1790 -612 211 -59 666 -171 750 -186 28 -5 127 -25 220 -44 203 -42 549 -99
730 -121 72 -8 162 -20 200 -25 69 -10 174 -19 500 -41 212 -14 585 -7 805 17
91 9 168 20 172 23 4 4 -21 42 -55 86 -652 831 -1262 1775 -1712 2650 -48 94
-94 180 -101 192 -14 23 -29 28 -174 58 -245 52 -566 136 -875 231 -242 73
-817 276 -1015 357 -74 30 -218 89 -320 130 -176 72 -278 117 -435 192 -38 18
-131 61 -205 95 -179 82 -700 350 -875 450 -606 348 -673 389 -1000 604 -940
620 -1751 1332 -2304 2021 -410 512 -687 1006 -839 1500 -58 188 -82 296 -156
720 -20 110 -45 254 -56 320 -12 66 -32 181 -45 255 -13 74 -42 236 -64 360
-22 124 -52 293 -66 375 -15 83 -38 213 -51 290 -14 77 -38 214 -54 305 -39
223 -137 776 -155 875 -8 44 -28 157 -45 250 -16 94 -37 208 -45 255 -8 47
-29 164 -45 260 -17 96 -37 209 -45 250 -8 41 -26 143 -41 225 -24 144 -57
329 -110 630 -14 77 -40 228 -59 335 -19 107 -46 260 -60 340 -15 80 -39 219
-55 310 -95 542 -202 1146 -215 1215 -8 44 -60 337 -115 650 -55 314 -116 656
-135 760 -18 105 -47 269 -64 365 -17 96 -51 288 -76 425 -24 138 -56 318 -70
400 -58 328 -76 430 -119 675 -73 417 -78 507 -40 705 41 217 166 453 305 580
56 51 193 142 284 188 39 19 153 81 255 137 155 86 1028 524 1140 573 19 8 60
27 91 41 31 14 59 26 62 26 4 0 51 21 104 46 201 95 341 158 443 199 116 47
199 81 430 178 85 36 223 91 305 123 83 31 173 65 200 76 28 10 66 25 85 32
19 7 73 28 120 46 101 38 291 106 450 160 63 22 180 62 260 91 80 28 159 55
175 59 69 19 115 33 195 60 47 16 132 43 190 60 58 18 123 38 145 46 99 33
482 141 670 189 72 19 142 38 158 44 25 10 238 63 727 181 96 23 258 59 360
80 102 21 273 57 380 79 107 22 274 53 370 70 96 17 279 48 405 70 244 43 769
120 995 146 343 40 676 75 795 85 769 62 1083 78 1730 90 554 10 975 2 1560
-31 373 -21 391 -21 420 -4 16 10 102 54 190 98 287 144 522 241 815 335 426
137 597 171 1455 288 208 28 200 27 400 48 77 9 183 20 235 26 302 34 382 42
545 55 532 43 906 67 1325 86 140 6 259 15 263 19 5 4 -18 41 -50 81 -33 41
-86 108 -118 149 -253 320 -677 691 -1037 907 -460 275 -846 407 -1449 498
-90 13 -209 31 -264 39 -309 47 -1015 129 -1415 165 -1047 94 -2012 125 -3125
101z"/>
<path d="M22550 26924 c-681 -21 -1614 -78 -2010 -124 -47 -6 -152 -17 -235
-25 -330 -34 -847 -101 -1150 -150 -49 -8 -140 -22 -202 -30 -119 -17 -413
-77 -454 -93 -13 -6 -60 -20 -104 -32 -131 -37 -362 -125 -516 -198 -422 -202
-761 -442 -1099 -781 -332 -333 -576 -679 -780 -1103 -187 -391 -291 -747
-391 -1343 -6 -33 -46 -262 -90 -510 -44 -247 -91 -514 -104 -592 -14 -78 -54
-307 -90 -510 -36 -202 -79 -444 -96 -538 -16 -93 -34 -195 -39 -225 -5 -30
-31 -183 -60 -340 -63 -353 -110 -619 -120 -685 -5 -27 -18 -104 -30 -170 -12
-66 -32 -181 -45 -255 -35 -198 -64 -364 -81 -455 -8 -44 -19 -105 -24 -135
-5 -30 -18 -107 -29 -170 -11 -63 -32 -178 -45 -255 -57 -325 -76 -434 -90
-510 -8 -44 -22 -120 -31 -170 -29 -170 -97 -550 -126 -715 -16 -91 -34 -190
-39 -220 -28 -171 -286 -1640 -300 -1705 -5 -27 -21 -117 -35 -200 -14 -82
-30 -172 -35 -200 -12 -61 -88 -489 -100 -565 -5 -30 -16 -94 -25 -142 -8 -49
-22 -125 -30 -170 -30 -175 -126 -717 -139 -793 -8 -44 -22 -123 -31 -175 -9
-52 -20 -117 -25 -145 -85 -466 -95 -1195 -24 -1760 14 -110 32 -221 69 -425
8 -41 17 -91 20 -110 26 -144 38 -201 51 -245 7 -27 34 -133 59 -235 106 -429
301 -989 518 -1485 636 -1456 1665 -2963 2953 -4325 365 -385 775 -783 1123
-1090 85 -74 163 -143 175 -154 58 -52 490 -410 551 -456 39 -30 140 -108 225
-175 85 -66 197 -150 250 -187 52 -37 140 -100 195 -141 138 -102 500 -342
680 -452 83 -50 177 -108 210 -129 252 -157 828 -453 1140 -586 203 -87 448
-179 600 -227 227 -71 332 -101 400 -117 186 -41 305 -65 360 -71 33 -4 103
-13 155 -21 154 -23 490 -44 707 -44 455 0 1130 71 1673 175 299 58 363 72
730 161 602 147 1418 414 2070 677 693 281 1453 639 1920 906 30 17 82 45 115
62 33 16 76 39 95 51 19 11 64 36 100 56 36 19 70 39 77 44 15 12 124 78 129
78 4 0 379 226 411 248 26 18 70 47 228 147 255 162 625 422 933 656 315 239
312 236 347 267 17 15 75 63 130 107 55 43 132 108 172 143 40 34 134 117 210
184 532 465 1074 1041 1480 1573 414 543 773 1147 993 1670 39 94 75 179 80
190 127 302 258 776 335 1210 8 44 30 170 50 280 20 110 40 225 45 255 4 30
18 109 30 175 31 177 50 284 60 340 11 67 86 488 105 595 15 85 78 440 95 535
67 384 223 1271 365 2070 8 44 25 145 39 225 39 223 93 529 122 690 66 373 86
487 113 645 17 94 46 258 65 365 19 107 47 263 61 345 43 243 82 467 119 675
19 107 47 263 61 345 15 83 39 224 55 315 16 91 54 307 85 480 30 173 59 340
65 370 5 30 19 107 30 170 11 63 27 151 35 195 8 44 35 197 60 340 24 143 49
285 55 315 11 63 31 175 54 305 9 50 36 205 61 345 133 745 146 1124 59 1670
-133 835 -542 1629 -1134 2204 -241 233 -529 446 -830 613 -653 363 -1564 816
-2210 1098 -91 40 -196 86 -235 103 -70 31 -446 188 -580 242 -277 113 -917
354 -1155 435 -340 116 -896 298 -1030 338 -47 14 -139 41 -205 61 -66 20
-133 40 -150 45 -16 5 -64 19 -105 31 -41 12 -86 26 -100 30 -14 5 -88 26
-165 46 -77 20 -169 44 -205 54 -137 36 -437 113 -470 120 -19 4 -80 19 -135
33 -55 14 -163 40 -240 57 -77 17 -185 42 -240 55 -109 26 -195 45 -350 75
-55 11 -129 26 -165 35 -79 17 -163 34 -380 74 -91 17 -199 38 -240 46 -41 7
-120 21 -175 30 -55 9 -138 22 -185 30 -173 29 -276 46 -330 55 -122 20 -462
67 -685 94 -66 9 -174 22 -240 30 -66 8 -190 22 -275 31 -85 8 -218 22 -295
30 -429 44 -1086 88 -1600 106 -283 10 -1420 19 -1625 13z m1400 -2879 c267
-8 546 -19 620 -24 74 -6 205 -15 290 -21 267 -19 509 -39 665 -55 83 -8 197
-20 255 -26 58 -5 175 -19 260 -30 85 -11 193 -24 240 -29 47 -5 146 -19 220
-30 74 -11 171 -25 215 -30 44 -6 145 -22 225 -35 80 -13 204 -33 275 -45 72
-11 153 -25 180 -30 28 -6 124 -24 215 -40 91 -17 197 -37 235 -45 171 -34
375 -77 435 -90 36 -8 119 -26 185 -41 66 -15 136 -30 155 -34 430 -93 1353
-344 1860 -506 277 -88 786 -260 883 -298 34 -13 166 -62 292 -109 247 -92
433 -164 585 -227 52 -21 167 -69 255 -105 88 -37 174 -72 190 -80 17 -7 129
-57 250 -110 290 -128 572 -259 892 -415 269 -131 868 -440 913 -470 14 -9 65
-38 114 -64 190 -101 299 -189 388 -312 75 -105 123 -196 159 -302 38 -109 48
-159 59 -297 13 -146 4 -219 -86 -735 -42 -234 -82 -463 -90 -510 -8 -47 -49
-276 -90 -510 -41 -234 -82 -463 -90 -510 -13 -75 -69 -391 -139 -790 -32
-180 -55 -311 -126 -715 -32 -187 -66 -376 -74 -420 -15 -80 -164 -923 -210
-1192 -14 -78 -54 -307 -90 -510 -117 -656 -126 -707 -135 -763 -23 -135 -141
-812 -164 -935 -8 -44 -22 -120 -31 -170 -8 -49 -28 -164 -44 -255 -16 -91
-43 -244 -60 -340 -17 -96 -37 -211 -45 -255 -8 -44 -22 -120 -31 -170 -8 -49
-34 -193 -56 -320 -22 -126 -51 -291 -64 -365 -13 -74 -31 -173 -39 -220 -8
-47 -24 -139 -36 -205 -11 -66 -48 -273 -81 -460 -33 -187 -64 -362 -69 -390
-101 -589 -172 -831 -357 -1225 -298 -632 -879 -1360 -1577 -1974 -267 -234
-570 -480 -759 -616 -27 -19 -60 -44 -75 -56 -58 -45 -288 -203 -537 -369
-226 -150 -451 -288 -826 -508 -144 -84 -422 -232 -719 -381 -234 -118 -332
-166 -625 -301 -124 -57 -557 -243 -640 -273 -44 -17 -141 -54 -215 -82 -921
-354 -1830 -591 -2575 -670 -363 -39 -855 -25 -1062 29 -21 5 -67 17 -103 26
-658 166 -1566 687 -2495 1431 -459 368 -771 649 -1251 1129 -383 382 -594
609 -885 950 -707 828 -1294 1698 -1699 2517 -82 165 -250 541 -284 636 -7 20
-34 95 -61 167 -153 419 -262 874 -307 1285 -7 63 -12 234 -12 380 0 324 9
404 129 1070 8 47 28 159 44 250 17 91 46 255 65 365 20 110 45 252 55 315 18
104 43 247 85 480 49 275 59 333 71 405 8 44 21 121 30 170 9 50 27 151 40
225 23 135 35 198 75 425 25 140 58 330 95 540 14 83 32 184 39 225 8 41 22
118 31 170 9 52 23 129 30 170 8 41 27 154 44 250 17 96 89 506 160 910 72
404 139 787 150 850 49 280 155 883 176 1000 8 41 28 156 45 255 18 99 45 254
61 345 16 91 36 206 45 255 8 50 22 124 29 165 7 41 21 118 30 170 9 52 23
129 30 170 8 41 28 154 44 250 45 257 61 346 76 430 7 41 21 118 30 170 9 52
23 131 31 175 16 90 25 140 54 305 11 63 33 189 49 280 16 91 43 246 61 345
55 317 102 465 191 612 134 220 306 368 531 457 84 33 219 60 478 96 36 5 115
16 175 25 61 9 164 23 230 31 66 8 174 22 240 30 678 84 1511 146 2165 160
157 4 287 8 289 10 10 9 757 2 1201 -11z"/>
<path d="M22115 19669 c-539 -57 -1050 -303 -1440 -694 -489 -489 -740 -1157
-686 -1821 7 -82 17 -153 21 -158 5 -5 67 18 142 52 286 129 607 219 968 272
280 40 760 38 1060 -4 182 -26 257 -39 325 -55 22 -6 74 -17 115 -26 250 -56
559 -165 815 -289 365 -177 621 -352 918 -629 70 -66 129 -118 131 -116 2 2
23 45 46 94 162 350 224 627 224 1000 0 547 -174 1045 -518 1484 -279 356
-695 644 -1131 784 -309 100 -676 139 -990 106z"/>
<path d="M29667 18340 c-265 -25 -588 -120 -839 -246 -212 -106 -429 -265
-614 -449 -378 -377 -612 -859 -679 -1397 -18 -144 -19 -270 -4 -445 13 -161
11 -156 46 -138 101 54 333 147 498 198 554 175 1272 207 1880 85 55 -11 132
-26 170 -34 69 -14 175 -43 330 -91 410 -128 889 -376 1179 -612 38 -31 92
-74 120 -97 28 -22 98 -87 156 -142 58 -56 108 -102 111 -102 6 0 17 25 100
211 199 452 230 1021 84 1534 -151 527 -475 983 -925 1302 -317 224 -696 368
-1100 418 -130 16 -374 18 -513 5z"/>
<path d="M19057 13348 c-29 -620 18 -1177 144 -1738 267 -1180 885 -2275 1765
-3129 502 -487 1040 -868 1639 -1161 218 -107 353 -170 363 -170 4 0 56 -21
117 -46 411 -170 975 -324 1448 -395 599 -90 1261 -101 1810 -29 42 5 110 14
150 19 474 62 1128 246 1599 450 990 428 1818 1057 2484 1886 408 508 761
1140 985 1765 52 145 106 315 138 433 10 38 10 38 -12 24 -124 -81 -486 -269
-722 -375 -77 -35 -159 -72 -183 -83 -96 -43 -499 -191 -677 -248 -309 -98
-754 -213 -1035 -266 -643 -121 -1208 -177 -1905 -189 -339 -5 -1056 29 -1320
64 -44 6 -159 20 -255 31 -96 11 -195 24 -220 29 -25 5 -97 16 -160 25 -142
21 -600 108 -735 140 -55 13 -161 38 -235 56 -346 81 -978 275 -1265 388 -71
28 -133 51 -138 51 -7 0 -233 92 -442 180 -289 123 -728 346 -1060 540 -494
288 -923 592 -1339 948 -220 189 -649 617 -801 800 -65 78 -122 142 -125 142
-4 0 -10 -64 -13 -142z"/>
<path d="M11267 21883 c-192 -187 -390 -339 -617 -476 -107 -64 -507 -267
-527 -267 -5 0 -63 -20 -128 -45 -373 -142 -791 -228 -1230 -255 -165 -9 -485
0 -685 20 -164 17 -392 63 -610 123 -95 27 -304 103 -381 140 -123 59 -172 78
-180 70 -4 -5 -12 -87 -18 -183 -20 -321 15 -582 118 -890 67 -198 146 -358
268 -543 227 -344 546 -628 911 -811 513 -257 1063 -323 1632 -196 87 19 215
58 265 80 11 5 31 12 45 16 14 4 67 26 118 50 52 24 95 44 97 44 10 0 215 122
280 168 265 184 504 434 667 697 63 101 169 306 193 375 124 343 161 525 171
835 5 149 2 208 -15 343 -11 90 -25 180 -30 200 -5 20 -17 66 -26 102 -9 36
-31 106 -48 155 -28 84 -46 127 -111 267 -14 31 -26 61 -26 67 0 33 -33 11
-133 -86z"/>
<path d="M12386 16049 c-10 -6 -95 -37 -190 -69 -482 -162 -975 -418 -1396
-725 -611 -446 -1112 -1039 -1423 -1685 -89 -184 -191 -447 -232 -596 -15 -55
-33 -119 -40 -144 -18 -63 -43 -174 -54 -245 -6 -33 -17 -98 -25 -145 -8 -47
-20 -132 -27 -190 -14 -120 -18 -604 -6 -617 5 -4 75 60 155 144 179 184 362
346 587 519 179 137 512 364 630 429 39 21 114 65 167 97 246 147 839 427
1108 523 52 19 120 43 150 55 30 11 80 30 110 40 30 11 60 26 67 33 7 7 24 78
38 158 13 79 38 221 54 314 17 94 55 312 85 485 31 173 60 338 66 365 5 28 21
118 36 200 14 83 39 224 55 315 118 673 127 722 121 738 -5 15 -11 15 -36 1z"/>
</g>
</svg>
