<?xml version="1.0" standalone="no"?>
<!DOCTYPE svg PUBLIC "-//W3C//DTD SVG 20010904//EN"
 "http://www.w3.org/TR/2001/REC-SVG-20010904/DTD/svg10.dtd">
<svg version="1.0" xmlns="http://www.w3.org/2000/svg"
 width="3840.000000pt" height="3414.000000pt" viewBox="0 0 3840.000000 3414.000000"
 preserveAspectRatio="xMidYMid meet">
<metadata>
Created by potrace 1.16, written by Peter Selinger 2001-2019
</metadata>
<g transform="translate(0.000000,3414.000000) scale(0.100000,-0.100000)"
fill="#000000" stroke="none">
<path d="M18921 34054 c-215 -31 -348 -69 -646 -185 -195 -76 -390 -152 -580
-224 -206 -78 -354 -136 -520 -200 -88 -35 -227 -88 -310 -120 -82 -31 -188
-71 -235 -90 -47 -18 -123 -47 -170 -65 -148 -56 -260 -99 -430 -165 -148 -57
-325 -125 -495 -190 -127 -49 -579 -223 -700 -270 -33 -13 -157 -60 -275 -105
-118 -45 -235 -90 -260 -100 -25 -11 -130 -51 -235 -91 -104 -39 -253 -96
-330 -126 -77 -31 -180 -70 -230 -89 -49 -18 -137 -51 -195 -74 -58 -23 -157
-61 -220 -85 -115 -43 -188 -71 -495 -190 -162 -63 -356 -137 -475 -182 -183
-70 -230 -88 -280 -108 -30 -13 -89 -35 -130 -49 -41 -15 -95 -36 -120 -46
-25 -10 -81 -32 -125 -49 -44 -17 -161 -62 -260 -100 -99 -38 -232 -90 -295
-114 -63 -24 -169 -64 -235 -90 -66 -25 -169 -64 -230 -87 -60 -23 -125 -48
-143 -56 -18 -8 -37 -14 -42 -14 -6 0 -29 -9 -53 -19 -23 -11 -85 -36 -137
-56 -52 -20 -111 -42 -130 -50 -54 -21 -295 -114 -395 -152 -119 -45 -333
-127 -465 -178 -194 -75 -408 -158 -560 -215 -47 -18 -125 -48 -175 -67 -49
-19 -106 -41 -125 -48 -29 -11 -193 -74 -275 -105 -11 -4 -54 -22 -95 -39 -41
-17 -93 -37 -115 -44 -46 -16 -167 -62 -270 -102 -38 -15 -88 -34 -110 -42
-22 -8 -60 -23 -85 -33 -25 -11 -76 -31 -115 -45 -38 -14 -117 -45 -175 -67
-148 -57 -261 -101 -360 -138 -47 -18 -105 -41 -130 -51 -25 -10 -88 -34 -140
-54 -93 -35 -253 -96 -420 -160 -47 -18 -116 -45 -155 -60 -38 -15 -97 -38
-130 -51 -88 -34 -368 -141 -455 -173 -41 -16 -86 -33 -100 -39 -36 -14 -114
-44 -310 -119 -36 -13 -81 -30 -100 -38 -229 -90 -411 -160 -480 -185 -47 -18
-105 -40 -130 -50 -78 -33 -274 -107 -300 -115 -14 -3 -61 -21 -105 -39 -44
-19 -116 -47 -160 -64 -44 -16 -123 -47 -175 -67 -52 -20 -131 -50 -175 -67
-44 -17 -118 -46 -165 -64 -47 -19 -89 -34 -92 -34 -4 0 -42 -17 -85 -37 -218
-103 -394 -271 -501 -478 -39 -74 -66 -153 -95 -270 l-22 -90 0 -1355 0 -1355
22 -90 c45 -182 108 -308 222 -446 69 -84 198 -197 270 -238 123 -69 219 -106
348 -135 66 -15 1453 -16 16145 -16 15747 1 16075 1 16153 19 129 31 155 40
255 89 91 45 252 163 311 228 135 149 219 314 266 519 17 75 18 160 18 1430
l0 1350 -22 90 c-51 213 -127 359 -264 507 -66 72 -184 166 -262 209 -33 18
-148 69 -156 69 -5 0 -26 8 -48 19 -42 21 -80 36 -193 77 -41 14 -79 31 -85
35 -5 5 -17 9 -27 9 -10 0 -29 6 -41 14 -12 8 -47 22 -77 31 -30 10 -73 26
-96 36 -22 11 -45 19 -51 19 -6 0 -24 6 -40 14 -15 8 -64 28 -108 44 -44 17
-111 42 -150 57 -142 56 -171 67 -217 81 -26 8 -50 19 -53 24 -3 6 -15 10 -25
10 -10 0 -33 8 -52 17 -60 30 -67 33 -105 42 -21 5 -92 32 -158 59 -66 27
-160 64 -210 82 -49 18 -94 37 -100 41 -5 4 -26 12 -45 17 -19 6 -82 29 -140
51 -94 37 -247 96 -510 196 -47 18 -139 53 -205 79 -244 96 -322 126 -405 157
-47 17 -107 40 -135 51 -27 10 -84 32 -125 48 -41 16 -158 61 -260 100 -102
40 -219 85 -260 100 -41 16 -100 39 -130 50 -30 12 -89 34 -130 50 -74 27
-174 66 -455 175 -77 30 -192 74 -255 98 -257 99 -387 149 -417 163 -17 8 -40
14 -50 14 -10 0 -23 4 -29 8 -5 5 -58 28 -119 51 -60 23 -166 64 -235 90 -69
26 -201 78 -295 115 -93 36 -177 66 -185 66 -8 0 -28 8 -45 18 -16 10 -42 22
-58 26 -15 3 -52 18 -82 31 -29 14 -58 25 -62 25 -5 0 -65 22 -133 50 -69 27
-132 50 -141 50 -8 0 -19 4 -25 9 -5 4 -43 21 -84 36 -41 15 -79 31 -85 35 -5
5 -26 13 -45 18 -19 6 -65 22 -102 36 -38 15 -96 36 -130 49 -35 13 -80 31
-102 40 -21 9 -41 17 -43 17 -3 0 -66 24 -142 54 -219 86 -341 133 -426 164
-44 17 -123 46 -175 67 -52 20 -156 61 -230 90 -74 29 -178 68 -230 88 -52 20
-124 48 -160 62 -36 14 -90 35 -120 46 -30 11 -93 36 -140 54 -193 75 -227 88
-275 105 -27 10 -104 39 -170 64 -66 26 -151 59 -190 73 -38 14 -81 31 -95 38
-14 7 -43 18 -65 25 -22 7 -63 23 -92 36 -28 13 -56 24 -61 24 -6 0 -48 15
-94 34 -45 19 -186 73 -313 121 -126 47 -243 92 -260 99 -16 8 -66 27 -110 44
-44 16 -138 52 -210 80 -71 27 -215 82 -320 122 -104 39 -208 79 -230 90 -22
10 -58 23 -80 30 -22 6 -53 18 -70 25 -16 8 -95 38 -175 68 -80 30 -199 76
-265 102 -150 59 -292 114 -325 125 -14 5 -90 34 -170 65 -80 31 -201 78 -270
104 -69 27 -183 71 -255 99 -71 28 -166 64 -210 80 -44 17 -123 47 -175 67
-225 88 -545 211 -625 240 -33 13 -154 59 -270 104 -115 45 -282 109 -370 143
-88 33 -200 76 -250 96 -49 19 -108 41 -129 49 -22 8 -89 34 -150 57 -61 24
-124 48 -141 54 -16 6 -68 25 -115 42 -302 112 -509 150 -800 149 -96 -1 -217
-7 -269 -15z m347 -3270 c20 -8 87 -34 147 -56 61 -22 160 -60 220 -83 61 -24
121 -46 135 -50 14 -4 49 -18 78 -31 29 -13 55 -24 58 -24 3 0 56 -20 117 -44
168 -66 355 -138 522 -201 83 -30 166 -63 185 -71 19 -9 76 -31 125 -49 50
-18 133 -49 185 -70 137 -53 194 -75 390 -151 96 -37 209 -80 250 -96 41 -16
93 -35 115 -42 22 -7 81 -30 130 -50 50 -20 113 -45 140 -55 28 -11 109 -42
180 -70 131 -51 366 -140 440 -168 22 -8 60 -23 85 -33 25 -10 63 -25 85 -33
121 -45 321 -122 480 -184 99 -39 225 -87 280 -108 55 -21 162 -62 238 -92 76
-30 175 -68 220 -84 122 -46 220 -83 337 -129 58 -23 139 -55 180 -70 41 -16
100 -39 130 -50 30 -12 91 -35 135 -51 44 -16 118 -45 165 -63 109 -43 341
-132 495 -191 173 -65 205 -78 360 -138 158 -61 352 -136 530 -203 66 -25 135
-52 152 -60 18 -7 158 -61 310 -119 153 -58 334 -128 403 -155 69 -28 175 -68
235 -91 207 -77 456 -171 700 -267 55 -22 156 -61 225 -87 69 -26 193 -74 275
-106 248 -95 288 -111 340 -129 28 -10 100 -38 160 -63 61 -24 148 -58 195
-75 47 -16 101 -37 120 -45 19 -9 73 -30 120 -48 47 -17 123 -46 170 -65 47
-18 120 -41 162 -50 43 -10 75 -21 70 -25 -4 -4 -47 -12 -97 -18 -142 -17
-21354 -14 -21495 3 -113 14 -113 16 0 45 85 22 132 37 175 56 17 8 57 23 90
35 33 12 132 51 220 85 88 35 246 95 350 135 105 39 228 87 275 105 178 71
379 148 485 186 60 22 159 60 220 84 60 24 146 57 190 74 97 35 267 100 395
151 52 21 309 120 570 220 261 100 530 203 598 231 67 27 127 49 133 49 6 0
25 6 42 14 18 8 68 28 112 45 44 17 154 59 245 94 91 35 230 89 310 120 533
203 658 251 775 297 55 21 132 51 170 65 121 46 139 52 200 78 33 13 94 37
135 52 41 15 91 34 110 42 19 9 82 33 140 54 58 21 139 51 180 68 41 16 134
52 205 79 72 27 209 80 305 117 311 119 434 167 475 182 22 8 60 23 85 33 42
17 70 27 173 66 23 9 58 23 77 31 19 9 64 26 100 39 36 12 112 41 170 64 58
23 139 54 180 69 41 16 125 47 185 71 159 62 318 123 410 158 193 73 303 115
345 132 25 10 65 26 90 35 25 10 54 21 65 26 35 14 276 106 410 157 175 66
398 151 580 222 136 54 228 89 400 155 202 77 302 117 315 125 23 15 86 12
128 -6z"/>
<path d="M6440 15476 l0 -5845 -1042 -4 c-1101 -4 -1104 -4 -1326 -52 -218
-47 -431 -118 -607 -202 -72 -34 -239 -125 -245 -132 -3 -4 -36 -27 -75 -50
-38 -24 -72 -47 -75 -50 -3 -4 -25 -22 -50 -41 -25 -19 -52 -39 -60 -46 -34
-26 -279 -273 -321 -324 -149 -177 -306 -471 -361 -674 -10 -39 -25 -93 -33
-121 -8 -27 -22 -93 -32 -145 -16 -89 -18 -242 -21 -2317 l-3 -2223 -597 0
c-548 0 -604 -2 -682 -19 -376 -84 -670 -348 -790 -711 -49 -146 -50 -169 -50
-860 0 -690 1 -712 50 -861 85 -263 278 -483 542 -618 65 -34 128 -61 141 -61
13 0 27 -4 33 -9 5 -5 46 -16 92 -25 76 -15 1515 -16 18272 -16 16797 0 18196
1 18272 16 46 9 88 20 93 24 6 4 25 11 44 15 41 9 169 70 232 111 204 133 375
352 436 559 54 185 52 162 53 857 0 686 -1 705 -49 864 -30 96 -116 252 -192
347 -115 144 -326 290 -484 337 -171 50 -163 49 -797 50 l-597 0 -4 2212 -3
2213 -22 130 c-13 72 -27 144 -32 160 -6 17 -19 60 -29 97 -48 163 -151 374
-260 533 -234 341 -607 646 -979 801 -48 20 -105 44 -127 54 -22 11 -67 26
-100 36 -33 9 -69 20 -80 24 -45 19 -165 50 -188 50 -14 0 -38 5 -53 10 -15 6
-84 20 -153 32 -121 20 -164 21 -1173 25 l-1048 4 0 5845 0 5844 -1595 0
-1595 0 0 -5845 0 -5845 -2130 0 -2130 0 2 5845 3 5845 -1592 0 -1593 0 0
-5845 0 -5845 -2130 0 -2130 0 0 5845 0 5845 -1592 0 -1593 0 3 -5845 2 -5845
-2130 0 -2130 0 0 5845 0 5845 -1595 0 -1595 0 0 -5844z m26580 -10631 l0
-1595 -13820 0 -13820 0 0 1595 0 1595 13820 0 13820 0 0 -1595z"/>
</g>
</svg>
