<?xml version="1.0" standalone="no"?>
<!DOCTYPE svg PUBLIC "-//W3C//DTD SVG 20010904//EN"
 "http://www.w3.org/TR/2001/REC-SVG-20010904/DTD/svg10.dtd">
<svg version="1.0" xmlns="http://www.w3.org/2000/svg"
 width="3840.000000pt" height="3840.000000pt" viewBox="0 0 3840.000000 3840.000000"
 preserveAspectRatio="xMidYMid meet">
<metadata>
Created by potrace 1.16, written by Peter Selinger 2001-2019
</metadata>
<g transform="translate(0.000000,3840.000000) scale(0.100000,-0.100000)"
fill="#000000" stroke="none">
<path d="M19010 38324 c-429 -14 -809 -55 -1270 -140 -348 -64 -832 -199
-1145 -319 -60 -23 -139 -53 -175 -65 -183 -63 -768 -342 -942 -448 -37 -23
-89 -53 -117 -66 -27 -14 -123 -73 -213 -130 -520 -334 -898 -636 -1308 -1046
-466 -465 -734 -802 -1111 -1394 -160 -250 -429 -778 -524 -1026 -18 -47 -44
-110 -58 -140 -73 -164 -232 -658 -291 -905 l-12 -50 -84 1 c-47 0 -218 6
-380 13 -431 20 -781 2 -1285 -66 -200 -26 -230 -32 -470 -83 -82 -17 -170
-35 -195 -40 -25 -5 -90 -20 -145 -35 -55 -15 -118 -30 -140 -34 -22 -4 -92
-24 -155 -44 -63 -20 -151 -48 -195 -61 -97 -31 -160 -53 -200 -71 -16 -8 -64
-25 -105 -39 -101 -34 -159 -57 -260 -101 -47 -20 -121 -52 -165 -70 -44 -18
-162 -74 -262 -124 -100 -50 -183 -91 -186 -91 -2 0 -49 -25 -103 -57 -55 -31
-135 -76 -179 -101 -44 -24 -111 -65 -150 -91 -38 -25 -75 -48 -80 -51 -35
-17 -198 -123 -300 -195 -66 -46 -143 -100 -171 -120 -28 -19 -71 -52 -95 -73
-24 -20 -80 -64 -124 -97 -352 -264 -861 -761 -1163 -1135 -42 -52 -101 -126
-132 -165 -108 -134 -410 -560 -410 -578 0 -3 -26 -45 -59 -93 -202 -306 -506
-927 -646 -1319 -25 -71 -52 -146 -60 -165 -17 -39 -122 -376 -135 -430 -4
-19 -21 -87 -37 -150 -101 -393 -163 -762 -203 -1205 -30 -342 -30 -865 0
-1190 28 -308 62 -549 111 -788 22 -109 37 -207 34 -217 -3 -10 -23 -29 -43
-41 -20 -12 -68 -42 -107 -67 -38 -25 -86 -56 -105 -68 -132 -82 -198 -127
-318 -216 -76 -55 -153 -112 -172 -126 -103 -76 -387 -319 -552 -473 -172
-161 -454 -453 -569 -590 -367 -435 -674 -892 -928 -1376 -72 -138 -131 -253
-131 -256 0 -3 -33 -77 -73 -164 -79 -170 -242 -602 -302 -798 -20 -66 -44
-147 -54 -180 -10 -33 -28 -100 -40 -150 -12 -49 -29 -115 -37 -145 -40 -154
-75 -339 -139 -736 -3 -18 -17 -139 -31 -270 -21 -199 -26 -307 -30 -649 -5
-357 -3 -442 15 -660 44 -539 131 -1019 277 -1518 78 -267 235 -699 327 -899
20 -42 49 -108 66 -147 89 -200 320 -619 484 -875 145 -226 444 -634 565 -771
15 -16 76 -86 136 -155 113 -129 273 -296 386 -403 36 -34 105 -100 155 -148
364 -345 891 -731 1385 -1015 105 -60 556 -287 690 -348 136 -61 423 -173 528
-207 53 -17 138 -46 187 -64 50 -19 133 -45 185 -60 164 -46 204 -57 250 -71
25 -8 65 -18 90 -23 25 -5 96 -21 158 -35 158 -37 530 -105 632 -116 47 -5
141 -15 210 -24 69 -8 181 -21 250 -28 100 -10 1102 -13 4938 -15 l4812 -3 0
-2113 c0 -2081 -1 -2112 -20 -2137 -11 -14 -20 -30 -20 -37 0 -6 -3 -13 -7
-15 -5 -1 -35 -47 -68 -100 -33 -54 -82 -133 -110 -177 -27 -44 -81 -131 -120
-193 -38 -62 -83 -133 -100 -158 -17 -25 -46 -70 -63 -100 -18 -30 -63 -103
-100 -162 -37 -59 -97 -155 -134 -215 -36 -59 -95 -153 -131 -208 -62 -98
-204 -324 -335 -535 -36 -58 -92 -149 -126 -203 -34 -54 -83 -134 -111 -178
-27 -44 -80 -126 -116 -182 -36 -56 -102 -163 -148 -237 -45 -74 -125 -202
-178 -285 -53 -82 -115 -181 -138 -220 -23 -38 -86 -139 -139 -223 -106 -167
-136 -228 -171 -344 -95 -313 -63 -631 92 -913 108 -197 263 -363 427 -457 57
-33 191 -95 221 -102 17 -4 44 -13 60 -21 17 -7 68 -21 115 -31 82 -18 216
-19 3805 -19 3117 0 3730 2 3780 14 33 7 76 16 95 18 19 3 40 9 45 13 6 4 33
15 60 23 196 57 433 232 573 422 179 243 263 578 217 870 -30 194 -75 307
-199 509 -114 183 -489 783 -605 966 -65 102 -920 1469 -1031 1648 -187 301
-309 497 -355 567 -28 44 -69 109 -91 145 -21 36 -41 67 -44 70 -3 3 -15 24
-27 46 l-23 42 0 2106 0 2106 4813 3 c3656 2 4837 6 4917 15 58 6 157 16 220
22 63 6 140 15 170 20 30 5 98 14 150 20 52 6 113 16 135 20 22 5 94 18 160
30 66 12 181 35 255 52 74 17 151 34 170 38 49 10 440 119 468 131 13 5 80 28
150 50 70 23 223 79 340 125 117 46 215 84 219 84 3 0 42 18 86 41 44 23 120
58 168 79 76 33 239 117 494 255 404 219 1008 658 1375 999 597 556 1055 1124
1443 1791 162 280 372 708 458 935 15 41 40 103 54 137 59 144 175 501 236
728 75 279 168 750 184 930 3 39 12 111 20 160 69 456 61 1201 -20 1830 -108
830 -384 1695 -778 2440 -55 105 -107 204 -116 220 -25 51 -240 395 -309 495
-582 847 -1248 1499 -2117 2073 -60 40 -133 86 -162 101 -29 16 -62 39 -74 52
-21 23 -21 24 -6 101 9 43 27 132 41 198 34 169 71 441 96 710 30 322 30 868
1 1200 -43 475 -124 944 -227 1300 -63 218 -143 471 -183 580 -27 72 -52 141
-56 155 -4 14 -48 120 -97 235 -146 339 -379 785 -534 1023 -177 269 -231 350
-255 382 -14 19 -78 105 -141 190 -381 512 -939 1069 -1473 1470 -191 143
-418 301 -545 381 -304 189 -763 433 -985 524 -49 20 -112 47 -140 59 -27 13
-75 33 -105 46 -30 12 -70 28 -88 36 -18 8 -41 14 -50 14 -10 0 -22 4 -28 8
-5 5 -45 22 -89 39 -119 44 -142 52 -235 79 -47 14 -105 32 -130 40 -98 33
-365 109 -435 124 -27 6 -88 19 -135 30 -393 90 -889 153 -1359 172 -263 11
-453 7 -888 -19 l-92 -5 -15 53 c-8 30 -31 115 -51 189 -87 318 -244 752 -381
1050 -390 850 -874 1549 -1534 2212 -957 962 -2145 1645 -3455 1986 -187 49
-248 63 -395 92 -143 28 -364 65 -535 90 -295 43 -862 73 -1185 64z m423
-3594 c241 -15 520 -56 712 -106 55 -14 118 -30 140 -34 74 -16 399 -132 510
-182 536 -241 943 -530 1323 -938 543 -584 890 -1313 1012 -2130 29 -196 32
-237 33 -475 2 -244 -1 -288 -46 -720 -41 -400 -114 -1128 -162 -1625 -42
-432 -57 -590 -75 -755 -35 -330 -34 -315 -13 -315 10 0 35 9 56 20 20 11 42
20 48 20 6 0 48 17 92 38 150 71 162 76 170 74 5 -1 21 7 37 18 15 11 33 20
39 20 6 0 48 18 95 40 46 22 87 40 90 40 7 0 119 52 240 111 44 22 86 39 95
39 9 0 25 7 35 15 11 8 27 15 35 15 9 0 27 9 41 20 14 11 32 20 41 20 9 0 29
6 45 14 33 16 163 76 239 110 28 13 86 39 130 59 45 21 85 37 90 37 5 0 45 18
90 39 44 22 125 58 180 81 55 24 134 58 175 77 41 19 111 50 155 70 149 66
184 82 223 102 9 5 58 26 107 47 50 20 126 54 170 74 44 21 107 47 140 59 33
12 73 29 88 37 16 8 36 14 46 14 9 0 21 4 27 9 10 9 139 58 189 71 17 4 80 21
140 37 339 91 577 127 921 139 476 17 1039 -75 1474 -241 25 -9 70 -26 100
-37 98 -37 374 -166 471 -221 52 -29 103 -56 112 -60 32 -12 325 -212 443
-303 297 -227 612 -554 829 -859 236 -330 460 -791 560 -1150 42 -150 85 -345
109 -495 19 -119 36 -362 36 -525 0 -291 -30 -546 -95 -810 -60 -240 -70 -276
-127 -430 -106 -286 -124 -323 -788 -1615 -294 -571 -400 -782 -400 -794 0 -6
37 -21 83 -33 45 -12 156 -45 247 -72 91 -28 242 -73 335 -102 94 -28 202 -60
240 -71 39 -11 95 -28 125 -38 30 -10 120 -37 200 -60 80 -23 195 -57 255 -76
61 -19 214 -65 340 -104 555 -168 844 -289 1185 -498 379 -231 709 -517 991
-857 308 -371 557 -827 694 -1270 20 -66 43 -140 51 -165 56 -173 118 -594
129 -870 11 -275 -35 -741 -98 -995 -86 -344 -166 -564 -314 -860 -160 -318
-377 -630 -628 -899 -126 -136 -393 -383 -481 -445 -28 -20 -96 -68 -150 -107
-130 -93 -398 -253 -527 -314 -265 -124 -287 -133 -472 -195 -299 -101 -656
-176 -980 -208 -164 -15 -23241 -23 -23575 -7 -464 22 -866 99 -1240 239 -74
28 -138 51 -143 51 -4 0 -71 31 -150 69 -78 38 -158 76 -179 84 -118 49 -506
304 -693 456 -429 347 -789 798 -1045 1310 -165 330 -286 706 -345 1076 -40
244 -48 356 -48 645 1 292 17 457 74 745 31 154 43 200 111 415 112 349 281
688 505 1007 209 301 568 675 815 851 36 26 93 67 125 90 64 48 256 173 318
207 192 105 599 295 632 295 6 0 32 9 59 19 53 21 348 114 479 151 44 12 98
28 120 35 22 7 157 47 300 90 143 43 337 101 430 130 94 29 206 63 250 75 44
12 129 38 190 57 60 19 134 41 165 49 114 29 293 89 297 101 3 6 -20 58 -50
115 -30 57 -108 209 -174 338 -150 292 -353 690 -529 1033 -190 370 -324 645
-374 767 -175 434 -265 843 -277 1260 -5 192 9 528 26 615 5 28 17 100 26 160
18 124 102 466 138 565 128 349 236 578 388 822 293 470 612 804 1119 1174
152 111 609 359 743 403 20 7 39 17 42 22 4 5 17 9 31 9 14 0 42 9 64 20 22
11 44 20 50 20 6 0 29 9 50 19 22 10 104 35 182 55 79 21 175 45 213 56 91 25
144 34 360 66 167 25 207 27 535 28 323 1 367 -1 495 -21 250 -41 363 -61 417
-77 50 -15 127 -36 263 -72 54 -15 114 -37 361 -133 44 -17 84 -31 88 -31 3 0
43 -18 89 -39 45 -22 107 -49 137 -61 30 -12 89 -38 130 -57 106 -50 148 -69
200 -89 25 -10 99 -43 166 -75 66 -31 131 -60 145 -64 23 -7 43 -16 232 -104
48 -23 90 -41 93 -41 3 0 36 -14 72 -31 37 -17 114 -51 172 -76 122 -52 305
-136 372 -170 14 -7 31 -13 37 -13 6 0 48 -17 93 -39 212 -99 238 -111 249
-111 6 0 28 -8 48 -19 58 -30 224 -105 266 -120 19 -7 48 -20 158 -71 117 -54
152 -68 159 -64 8 5 6 42 -22 314 -38 370 -61 592 -95 945 -19 198 -39 401
-45 450 -5 50 -16 160 -25 245 -8 85 -35 360 -60 610 -25 250 -50 498 -55 550
-5 52 -14 136 -19 185 -5 50 -7 119 -5 155 2 36 9 135 14 220 9 147 52 435 83
565 57 233 81 309 179 570 54 144 203 437 304 600 55 88 151 226 213 307 104
137 374 438 438 488 15 12 65 56 111 97 279 255 621 470 1057 667 107 49 472
176 504 176 10 0 44 8 77 19 97 30 188 49 399 81 311 47 537 58 838 40z"/>
</g>
</svg>
