<?xml version="1.0" standalone="no"?>
<!DOCTYPE svg PUBLIC "-//W3C//DTD SVG 20010904//EN"
 "http://www.w3.org/TR/2001/REC-SVG-20010904/DTD/svg10.dtd">
<svg version="1.0" xmlns="http://www.w3.org/2000/svg"
 width="3840.000000pt" height="3074.000000pt" viewBox="0 0 3840.000000 3074.000000"
 preserveAspectRatio="xMidYMid meet">
<metadata>
Created by potrace 1.16, written by Peter Selinger 2001-2019
</metadata>
<g transform="translate(0.000000,3074.000000) scale(0.100000,-0.100000)"
fill="#000000" stroke="none">
<path d="M1434 30661 c-204 -46 -346 -119 -479 -248 -55 -52 -661 -799 -728
-897 -215 -312 -219 -747 -10 -1063 84 -125 175 -210 439 -408 29 -22 90 -69
135 -105 89 -71 175 -138 235 -185 21 -16 131 -102 244 -191 113 -88 261 -204
330 -258 273 -212 415 -323 475 -371 34 -27 109 -86 165 -130 57 -44 108 -85
114 -90 6 -6 70 -55 141 -109 72 -55 132 -102 135 -105 3 -4 36 -30 74 -60 37
-29 75 -59 85 -67 9 -7 34 -27 56 -43 58 -43 228 -176 425 -331 95 -74 190
-148 213 -165 23 -16 51 -38 62 -48 11 -10 53 -44 94 -75 82 -63 117 -91 341
-267 84 -66 185 -145 224 -175 40 -30 109 -84 155 -120 314 -247 621 -487 699
-547 35 -26 80 -61 101 -78 21 -16 103 -81 182 -142 172 -135 188 -148 539
-423 151 -119 325 -254 385 -301 61 -46 139 -106 173 -134 134 -106 233 -184
357 -280 71 -55 183 -143 249 -195 67 -52 139 -108 160 -125 143 -110 305
-236 433 -337 222 -175 832 -652 1053 -825 30 -23 94 -73 142 -110 47 -38 196
-153 330 -258 134 -104 369 -288 522 -408 363 -285 656 -513 777 -607 53 -41
172 -135 265 -208 93 -72 211 -165 263 -205 51 -39 148 -115 215 -168 66 -52
144 -113 173 -135 28 -21 183 -142 344 -269 160 -126 315 -248 344 -270 29
-22 90 -69 136 -105 45 -36 103 -81 128 -100 128 -100 213 -166 357 -280 88
-69 231 -181 320 -250 163 -126 502 -391 958 -749 137 -108 297 -233 355 -278
58 -45 139 -108 180 -140 41 -32 98 -76 126 -98 28 -22 120 -94 204 -160 84
-66 199 -156 256 -200 114 -88 336 -262 665 -520 118 -93 244 -191 280 -219
86 -66 426 -332 560 -437 58 -45 148 -115 200 -156 52 -40 149 -115 215 -168
66 -53 157 -124 201 -158 70 -53 308 -240 509 -398 82 -65 435 -340 531 -414
42 -33 123 -96 179 -140 55 -44 159 -125 230 -180 204 -159 330 -257 485 -379
80 -63 323 -253 540 -423 498 -388 450 -351 814 -636 170 -133 456 -357 636
-497 598 -467 804 -628 920 -720 63 -49 165 -128 225 -175 61 -47 164 -128
230 -180 66 -52 171 -134 233 -182 62 -48 141 -110 176 -138 35 -27 111 -86
168 -129 56 -44 137 -107 179 -140 41 -34 133 -106 204 -161 71 -55 174 -136
230 -180 214 -168 412 -324 530 -415 67 -52 160 -125 206 -161 46 -36 242
-188 434 -339 303 -237 817 -638 925 -722 19 -15 134 -105 256 -200 229 -180
424 -332 899 -703 154 -120 338 -264 408 -319 71 -56 154 -121 186 -146 393
-305 741 -577 869 -679 30 -24 165 -130 301 -235 135 -106 337 -264 449 -352
112 -87 225 -175 251 -194 41 -31 129 -100 401 -315 36 -29 101 -80 145 -114
95 -73 250 -194 399 -311 59 -47 143 -112 185 -145 153 -119 610 -477 806
-630 110 -87 232 -181 270 -211 39 -29 98 -75 131 -101 34 -26 111 -86 170
-132 60 -47 111 -87 114 -90 3 -3 43 -35 90 -71 47 -35 110 -85 141 -110 31
-25 88 -70 128 -100 39 -30 133 -104 209 -163 75 -59 170 -133 210 -165 41
-31 97 -75 125 -98 62 -48 182 -142 263 -204 32 -25 126 -99 209 -165 84 -66
185 -145 225 -175 40 -30 91 -71 114 -90 24 -19 78 -62 121 -95 42 -33 115
-89 160 -125 46 -36 106 -83 135 -105 29 -22 76 -58 104 -81 28 -22 74 -58
102 -80 44 -33 290 -226 474 -371 30 -23 116 -90 190 -148 74 -58 162 -127
195 -153 33 -26 100 -78 150 -116 49 -37 120 -92 158 -122 243 -194 698 -547
742 -575 98 -63 187 -98 329 -129 156 -35 324 -21 506 40 132 45 250 122 361
237 75 77 643 782 707 877 63 94 101 182 139 324 26 95 25 319 -1 422 -65 257
-191 426 -486 653 -75 57 -178 137 -230 178 -117 91 -119 93 -332 259 -95 74
-279 218 -409 320 -130 102 -332 260 -450 352 -118 92 -351 274 -518 405 -167
131 -336 263 -375 293 -40 30 -120 93 -180 140 -60 47 -140 110 -180 141 -115
90 -529 414 -686 537 -80 62 -188 147 -240 187 -52 41 -143 112 -201 157 -59
46 -160 125 -225 175 -66 51 -171 134 -234 183 -63 50 -171 135 -240 189 -69
53 -228 178 -354 277 -125 98 -240 188 -255 199 -15 11 -136 106 -270 210
-233 182 -354 276 -630 493 -68 53 -165 129 -215 168 -50 38 -136 106 -192
150 -55 43 -141 110 -190 149 -258 201 -1207 942 -1689 1319 -302 236 -579
452 -615 480 -36 28 -128 100 -205 161 -77 61 -241 189 -364 285 -353 275
-572 446 -844 660 -88 69 -184 145 -215 169 -32 24 -135 105 -231 180 -95 75
-208 163 -251 196 -139 107 -289 225 -615 480 -176 138 -421 329 -544 425
-123 96 -267 209 -320 250 -53 42 -190 149 -306 240 -219 171 -438 342 -633
495 -63 50 -158 124 -211 165 -54 41 -209 163 -346 270 -136 107 -312 245
-390 305 -144 112 -208 161 -434 340 -69 55 -156 122 -192 150 -37 27 -154
118 -260 202 -269 210 -841 658 -1544 1207 -126 99 -288 225 -358 280 -71 56
-172 134 -225 175 -53 41 -151 118 -218 170 -67 53 -177 140 -245 193 -68 53
-205 160 -304 238 -201 158 -554 433 -710 555 -158 122 -831 648 -1005 785
-85 67 -229 179 -320 250 -91 71 -214 167 -275 215 -60 47 -177 139 -260 203
-149 116 -489 382 -845 661 -102 80 -206 161 -231 180 -25 20 -94 74 -154 121
-59 47 -131 103 -160 125 -30 22 -142 110 -250 195 -108 85 -222 175 -253 199
-32 24 -104 80 -162 125 -98 77 -243 190 -938 733 -152 119 -347 271 -432 338
-262 205 -698 546 -1080 844 -201 157 -428 335 -506 396 -77 60 -221 173 -320
250 -98 76 -231 180 -294 230 -63 50 -184 145 -269 211 -199 155 -608 473
-740 577 -108 86 -222 175 -437 343 -71 55 -194 151 -274 214 -319 251 -545
427 -592 462 -28 21 -92 71 -142 111 -50 41 -161 128 -246 194 -264 204 -482
374 -550 428 -36 28 -191 150 -345 270 -154 120 -307 240 -340 266 -33 26
-137 107 -231 181 -94 73 -260 203 -369 288 -109 85 -232 182 -274 215 -43 33
-166 130 -275 215 -110 85 -258 201 -330 258 -72 56 -158 124 -191 149 -33 26
-244 191 -470 367 -225 176 -502 392 -615 480 -113 88 -248 194 -301 235 -53
42 -154 121 -224 176 -71 55 -174 136 -230 180 -56 44 -146 115 -201 157 -54
43 -191 150 -304 238 -113 88 -272 213 -355 277 -82 64 -202 157 -265 207 -63
49 -167 131 -230 180 -63 50 -155 122 -205 161 -346 274 -431 326 -623 376
-110 30 -300 34 -408 10z"/>
<path d="M18500 26840 c-265 -13 -782 -49 -990 -70 -217 -22 -670 -76 -750
-90 -30 -5 -233 -39 -450 -75 -388 -64 -471 -79 -600 -108 -90 -21 -291 -62
-375 -77 -38 -7 -122 -26 -185 -42 -63 -17 -126 -33 -140 -35 -104 -22 -646
-166 -825 -218 -121 -36 -274 -81 -340 -100 -66 -18 -174 -52 -240 -75 -66
-23 -140 -48 -165 -55 -80 -24 -479 -161 -485 -167 -4 -3 11 -19 32 -34 21
-16 112 -88 203 -159 91 -72 212 -166 269 -210 57 -44 140 -109 186 -145 45
-36 119 -94 165 -130 268 -209 493 -385 623 -488 82 -64 168 -130 191 -147 23
-16 96 -73 161 -126 151 -120 431 -340 679 -532 105 -82 203 -161 219 -175
l27 -26 108 22 c59 12 136 29 172 38 59 13 189 40 385 79 39 7 96 19 128 25
32 6 84 16 115 20 31 5 111 19 177 30 218 39 428 68 925 130 47 6 137 15 200
19 63 5 171 15 240 21 337 30 607 38 1145 36 303 -2 627 -8 720 -15 451 -31
757 -56 920 -77 66 -8 161 -19 210 -25 98 -11 301 -39 460 -64 55 -9 129 -21
165 -26 191 -28 666 -122 920 -180 270 -63 373 -89 545 -135 28 -8 118 -32
200 -55 474 -129 1115 -344 1580 -531 83 -34 171 -69 197 -79 235 -92 706
-308 1078 -494 432 -215 897 -476 1310 -734 217 -135 674 -440 845 -564 66
-47 157 -113 202 -146 314 -228 774 -599 1133 -916 1228 -1083 2324 -2388
3199 -3809 201 -327 431 -730 431 -757 0 -11 -22 -59 -50 -106 -27 -47 -50
-86 -50 -88 0 -9 -193 -337 -308 -525 -110 -179 -185 -296 -397 -620 -27 -41
-92 -136 -145 -210 -52 -74 -108 -155 -125 -180 -45 -67 -410 -552 -497 -660
-196 -244 -277 -344 -371 -454 -139 -163 -335 -384 -497 -561 -160 -175 -173
-191 -165 -206 4 -6 48 -42 99 -79 50 -38 154 -119 231 -180 77 -61 172 -135
210 -164 39 -30 102 -79 140 -110 39 -31 96 -74 127 -96 31 -22 59 -44 62 -49
6 -8 61 -52 211 -166 29 -22 153 -119 275 -215 123 -96 255 -200 295 -230 107
-82 231 -179 294 -231 31 -25 97 -76 146 -113 50 -38 102 -80 117 -94 24 -22
29 -23 44 -11 55 45 540 597 812 922 125 150 529 670 684 881 337 459 821
1190 1070 1616 192 329 281 485 383 675 59 110 126 234 148 275 135 249 200
440 248 730 21 124 16 414 -10 560 -41 236 -102 407 -236 665 -406 783 -925
1635 -1406 2310 -243 340 -302 421 -498 675 -653 848 -1377 1645 -2151 2368
-157 147 -335 310 -395 363 -216 190 -362 315 -460 396 -55 45 -149 123 -210
172 -156 129 -609 476 -794 609 -240 172 -256 184 -408 289 -362 250 -996 652
-1268 803 -22 12 -141 80 -265 150 -383 216 -882 469 -1415 715 -214 99 -822
350 -1089 450 -441 165 -1053 371 -1321 445 -44 12 -143 40 -220 62 -77 22
-167 46 -200 55 -33 8 -80 21 -105 28 -109 31 -177 48 -355 90 -104 25 -237
57 -295 70 -58 14 -125 30 -150 34 -25 5 -90 19 -145 31 -55 12 -125 25 -155
30 -30 5 -100 19 -155 30 -55 12 -125 25 -155 30 -30 5 -107 19 -170 30 -63
11 -144 24 -180 29 -36 5 -137 20 -225 34 -152 24 -243 37 -520 71 -234 30
-291 36 -410 47 -747 67 -1018 80 -1735 84 -344 2 -708 -1 -810 -5z"/>
<path d="M18930 22060 c-233 -10 -476 -32 -695 -65 -97 -14 -392 -68 -402 -74
-7 -4 28 -38 89 -86 56 -44 125 -98 152 -120 28 -22 72 -56 97 -75 26 -19 115
-89 199 -155 84 -66 208 -163 275 -215 67 -52 212 -165 321 -251 110 -85 339
-265 509 -398 171 -133 357 -279 415 -324 58 -46 194 -152 304 -237 109 -85
296 -232 415 -325 119 -94 304 -239 411 -322 107 -84 287 -225 400 -313 113
-89 230 -180 260 -203 30 -22 107 -82 170 -132 63 -50 212 -166 330 -258 217
-169 269 -210 370 -290 64 -51 393 -308 495 -387 39 -30 131 -102 205 -160 74
-58 164 -129 200 -156 446 -348 644 -502 740 -579 63 -50 174 -136 245 -190
72 -54 155 -119 185 -145 30 -25 93 -75 140 -110 47 -36 142 -110 212 -165 69
-55 190 -149 268 -210 78 -60 190 -148 248 -195 59 -47 141 -111 182 -143 41
-31 101 -77 133 -102 64 -49 77 -54 71 -27 -2 9 -8 89 -14 177 -27 405 -99
855 -191 1205 -17 63 -37 140 -45 170 -95 357 -271 804 -474 1205 -157 309
-200 384 -382 661 -787 1202 -1965 2129 -3318 2612 -804 287 -1665 418 -2520
382z"/>
<path d="M5219 20593 c-68 -76 -144 -160 -170 -188 -97 -104 -176 -195 -289
-330 -65 -77 -171 -202 -235 -279 -64 -76 -152 -184 -195 -240 -43 -55 -118
-150 -166 -211 -637 -807 -1350 -1910 -1854 -2865 -56 -107 -106 -199 -110
-205 -19 -26 -112 -254 -139 -342 -63 -206 -94 -471 -80 -688 8 -117 48 -356
67 -392 5 -10 13 -36 16 -57 8 -40 108 -284 144 -347 18 -32 55 -101 157 -294
23 -44 64 -120 90 -170 27 -49 78 -142 115 -205 37 -63 111 -191 166 -285 381
-657 909 -1440 1402 -2080 259 -336 617 -773 761 -930 31 -34 94 -106 141
-160 47 -55 121 -138 165 -185 44 -47 141 -151 215 -230 258 -277 735 -747
1065 -1050 34 -30 85 -78 115 -105 30 -28 78 -68 105 -90 28 -21 75 -63 105
-91 30 -29 93 -85 140 -124 47 -40 101 -87 120 -104 19 -17 63 -53 97 -79 34
-26 68 -53 75 -60 7 -7 58 -48 113 -92 55 -44 125 -100 155 -126 30 -26 107
-86 170 -133 63 -48 175 -133 249 -189 73 -56 175 -131 226 -167 51 -36 150
-107 221 -157 114 -82 721 -492 766 -518 29 -16 397 -242 468 -287 36 -22 142
-83 235 -136 94 -52 231 -129 305 -172 74 -42 178 -98 230 -125 52 -26 100
-51 105 -55 18 -13 516 -264 645 -324 69 -33 173 -83 232 -112 59 -29 118 -56
130 -60 13 -4 46 -17 73 -30 28 -12 129 -57 225 -99 96 -42 193 -85 215 -95
22 -10 90 -37 150 -60 61 -24 205 -80 320 -126 116 -45 276 -105 355 -133 180
-63 181 -64 315 -113 61 -22 133 -47 160 -54 28 -8 118 -36 200 -63 275 -90
439 -140 590 -180 83 -21 204 -55 270 -74 66 -19 190 -52 275 -72 85 -21 247
-60 360 -87 112 -27 227 -54 255 -58 27 -5 160 -32 295 -60 135 -28 272 -55
305 -59 33 -5 180 -30 328 -55 147 -25 354 -57 460 -71 105 -13 264 -34 352
-45 240 -31 707 -73 990 -90 88 -5 252 -15 365 -22 278 -18 1426 -17 1695 0
597 38 724 49 1145 98 321 36 422 50 654 88 116 19 263 42 326 51 63 10 167
28 230 40 63 13 165 33 225 45 175 35 559 118 690 149 216 52 708 179 800 206
154 47 217 65 293 85 79 21 342 103 487 152 50 17 124 42 165 55 41 14 127 43
190 65 63 22 136 46 163 54 l48 15 -55 42 c-30 23 -121 94 -203 158 -81 64
-215 169 -298 234 -230 179 -436 340 -569 446 -67 52 -256 200 -421 329 -165
128 -355 276 -421 329 -67 53 -168 132 -225 176 -57 44 -209 162 -338 263
-128 101 -239 186 -246 188 -7 3 -52 -5 -101 -16 -151 -37 -666 -137 -949
-184 -613 -103 -1086 -157 -1720 -198 -298 -19 -1225 -16 -1585 6 -477 28
-1213 103 -1450 146 -30 6 -140 24 -245 41 -255 40 -617 110 -855 164 -107 25
-217 50 -245 56 -27 6 -133 33 -235 60 -102 27 -228 61 -280 75 -90 23 -209
58 -435 124 -435 129 -1021 342 -1555 565 -518 216 -1314 613 -1775 885 -77
46 -160 94 -185 108 -212 120 -866 548 -1125 736 -60 44 -159 115 -220 159
-60 44 -162 120 -225 170 -63 49 -151 117 -194 151 -44 33 -188 151 -320 261
-1552 1291 -2871 2870 -3879 4642 -70 123 -127 232 -127 243 0 33 280 519 524
909 511 816 1196 1713 1850 2421 280 303 254 271 231 286 -11 7 -92 70 -180
139 -88 70 -232 182 -320 251 -88 68 -252 196 -365 285 -226 177 -567 444
-639 500 -25 19 -129 100 -231 180 -102 79 -197 153 -211 164 -15 11 -85 66
-157 123 -71 56 -132 102 -135 102 -3 0 -60 -62 -128 -137z"/>
<path d="M12530 15078 c0 -69 22 -330 40 -493 75 -657 258 -1329 528 -1940
265 -601 668 -1226 1111 -1726 106 -120 360 -378 482 -490 876 -806 1933
-1352 3109 -1608 172 -37 465 -85 645 -105 512 -57 1081 -54 1560 8 245 32
279 38 397 61 68 14 135 25 151 25 15 0 27 4 27 8 0 5 -35 36 -77 69 -81 61
-492 383 -957 747 -148 116 -312 245 -365 286 -54 41 -166 129 -251 195 -84
66 -187 147 -229 180 -43 33 -144 113 -226 177 -83 64 -242 189 -355 277 -113
89 -239 187 -280 219 -41 32 -159 124 -262 205 -414 325 -568 445 -671 524
-59 46 -175 136 -256 201 -82 64 -256 200 -386 302 -131 102 -292 228 -359
280 -67 52 -189 148 -271 212 -83 64 -220 171 -305 238 -85 67 -209 163 -275
215 -66 51 -232 182 -370 289 -137 108 -353 277 -480 375 -126 99 -311 243
-410 321 -99 78 -202 159 -230 180 -120 93 -289 226 -554 433 -156 122 -320
251 -365 285 -113 89 -116 90 -116 50z"/>
</g>
</svg>
