<?xml version="1.0" standalone="no"?>
<!DOCTYPE svg PUBLIC "-//W3C//DTD SVG 20010904//EN"
 "http://www.w3.org/TR/2001/REC-SVG-20010904/DTD/svg10.dtd">
<svg version="1.0" xmlns="http://www.w3.org/2000/svg"
 width="3840.000000pt" height="3162.000000pt" viewBox="0 0 3840.000000 3162.000000"
 preserveAspectRatio="xMidYMid meet">
<metadata>
Created by potrace 1.16, written by Peter Selinger 2001-2019
</metadata>
<g transform="translate(0.000000,3162.000000) scale(0.100000,-0.100000)"
fill="#000000" stroke="none">
<path d="M12765 27485 c-67 -20 -104 -24 -230 -24 -122 -1 -163 -5 -220 -22
-51 -16 -114 -23 -235 -29 -164 -8 -186 -12 -295 -61 -28 -13 -182 -39 -231
-39 -44 0 -332 -69 -397 -95 -20 -8 -57 -15 -81 -15 -44 0 -110 -21 -121 -40
-3 -5 -18 -10 -32 -10 -14 0 -47 -11 -75 -25 -32 -16 -66 -25 -98 -25 -50 0
-120 -23 -120 -40 0 -6 -7 -10 -15 -10 -9 0 -29 -10 -45 -22 -21 -15 -53 -24
-101 -29 -39 -5 -76 -12 -82 -17 -7 -5 -23 -13 -37 -17 -14 -4 -53 -20 -87
-36 -34 -16 -69 -29 -77 -29 -8 0 -37 -11 -64 -25 -28 -14 -58 -25 -68 -25
-11 0 -46 -14 -79 -30 -33 -16 -70 -30 -82 -30 -12 0 -25 -4 -28 -10 -3 -5
-15 -10 -26 -10 -11 0 -22 -7 -25 -15 -4 -8 -17 -15 -30 -15 -13 0 -24 -4 -24
-10 0 -5 -11 -10 -24 -10 -13 0 -26 -7 -30 -15 -3 -9 -18 -15 -37 -15 -31 0
-89 -27 -89 -42 0 -4 -10 -8 -22 -8 -13 0 -34 -12 -47 -25 -17 -18 -34 -25
-62 -25 -26 0 -42 -5 -45 -15 -4 -8 -12 -15 -20 -15 -8 0 -14 -4 -14 -10 0 -5
-9 -10 -20 -10 -11 0 -23 -7 -26 -15 -4 -8 -12 -15 -20 -15 -8 0 -14 -4 -14
-10 0 -5 -17 -10 -38 -10 -28 0 -46 -7 -68 -28 -16 -16 -44 -34 -61 -41 -18
-8 -33 -20 -33 -27 0 -9 -12 -14 -32 -14 -35 -1 -68 -19 -68 -39 0 -6 -11 -11
-24 -11 -14 0 -30 -10 -40 -25 -12 -18 -25 -25 -50 -25 -24 0 -39 -7 -52 -25
-12 -16 -29 -25 -47 -25 -20 0 -31 -7 -39 -25 -8 -18 -19 -25 -40 -25 -18 0
-38 -9 -52 -25 -13 -14 -26 -25 -30 -25 -10 0 -46 -39 -46 -50 0 -5 -15 -10
-34 -10 -23 0 -41 -8 -57 -25 -13 -13 -30 -25 -38 -25 -7 0 -22 -11 -33 -25
-11 -14 -28 -25 -39 -25 -22 0 -49 -22 -49 -39 0 -6 -5 -11 -11 -11 -14 0 -39
-25 -39 -39 0 -6 -11 -11 -25 -11 -14 0 -25 -4 -25 -9 0 -5 -24 -21 -54 -35
-30 -15 -57 -33 -60 -41 -3 -8 -15 -15 -26 -15 -11 0 -20 -6 -20 -14 0 -8 -9
-18 -20 -21 -11 -3 -25 -15 -30 -26 -6 -10 -17 -19 -26 -19 -8 0 -17 -7 -20
-15 -4 -8 -11 -15 -16 -15 -6 0 -27 -14 -47 -31 -68 -57 -77 -64 -107 -79 -29
-15 -47 -28 -87 -66 -12 -11 -30 -23 -39 -27 -10 -3 -18 -13 -18 -21 0 -9 -11
-18 -25 -22 -14 -3 -25 -12 -25 -20 0 -8 -7 -14 -15 -14 -8 0 -15 -4 -15 -10
0 -5 -6 -10 -13 -10 -7 0 -32 -18 -55 -40 -22 -22 -46 -40 -52 -40 -5 0 -9 -5
-7 -12 1 -6 -9 -14 -23 -18 -14 -3 -27 -14 -29 -25 -4 -22 -25 -45 -40 -45 -6
0 -11 -6 -11 -14 0 -8 -10 -16 -22 -18 -15 -2 -24 -11 -26 -25 -2 -13 -10 -23
-18 -23 -8 0 -20 -11 -26 -25 -6 -14 -18 -25 -26 -25 -8 0 -31 -17 -51 -37
-37 -38 -156 -131 -178 -140 -7 -3 -13 -11 -13 -19 0 -8 -9 -14 -20 -14 -12 0
-25 -10 -32 -25 -6 -14 -17 -25 -25 -25 -7 0 -18 -11 -23 -25 -5 -14 -16 -25
-25 -25 -8 0 -15 -4 -15 -9 0 -6 -13 -25 -30 -43 -16 -18 -30 -43 -30 -55 0
-13 -11 -29 -25 -39 -14 -9 -25 -25 -25 -35 0 -12 -10 -23 -25 -29 -14 -5 -25
-15 -25 -21 0 -16 -66 -77 -87 -81 -10 -2 -19 -13 -21 -25 -2 -14 -12 -23 -25
-25 -14 -2 -23 -11 -25 -25 -2 -14 -11 -23 -25 -25 -14 -2 -23 -11 -25 -25 -2
-13 -10 -23 -18 -23 -8 0 -14 -5 -14 -11 0 -16 -26 -39 -44 -39 -15 0 -22 -18
-28 -70 -2 -15 -12 -29 -25 -35 -14 -6 -23 -18 -23 -32 0 -18 -6 -23 -25 -23
-18 0 -26 -7 -31 -25 -4 -16 -13 -25 -25 -25 -11 0 -21 -9 -24 -23 -4 -12 -16
-27 -28 -32 -17 -8 -23 -20 -25 -52 -3 -34 -7 -42 -25 -45 -14 -2 -23 -11 -25
-25 -2 -15 -10 -23 -22 -23 -13 0 -22 -11 -28 -33 -12 -41 -41 -77 -63 -77
-16 0 -36 -30 -41 -65 -2 -11 -13 -24 -26 -30 -13 -6 -22 -19 -22 -32 0 -14
-6 -23 -15 -23 -8 0 -15 -7 -15 -15 0 -8 -7 -15 -15 -15 -9 0 -15 -9 -15 -25
0 -15 -9 -31 -25 -41 -14 -9 -25 -24 -25 -33 0 -9 -10 -21 -22 -26 -15 -7 -24
-21 -26 -40 -2 -16 -15 -39 -28 -52 -13 -12 -24 -28 -24 -36 0 -8 -11 -23 -25
-33 -19 -14 -25 -28 -25 -56 0 -27 -4 -38 -15 -38 -8 0 -15 -5 -15 -11 0 -10
-47 -78 -61 -89 -4 -3 -9 -16 -11 -30 -2 -14 -9 -24 -15 -23 -6 1 -14 -11 -18
-27 -4 -17 -11 -30 -16 -30 -5 0 -9 -6 -9 -13 0 -7 -11 -24 -25 -39 -14 -15
-25 -32 -25 -37 0 -6 -11 -30 -25 -55 -14 -25 -25 -51 -25 -59 0 -7 -8 -22
-18 -33 -30 -33 -82 -114 -82 -129 0 -8 -4 -17 -10 -20 -5 -3 -17 -23 -26 -43
-8 -20 -20 -44 -25 -52 -9 -16 -33 -65 -43 -90 -3 -8 -15 -28 -25 -45 -11 -16
-20 -42 -20 -57 -1 -14 -4 -28 -8 -30 -17 -7 -50 -65 -69 -118 -10 -30 -22
-56 -26 -58 -5 -2 -8 -17 -8 -33 0 -19 -10 -39 -25 -55 -14 -14 -25 -37 -25
-51 0 -14 -11 -41 -25 -59 -16 -20 -25 -46 -25 -68 0 -19 -7 -41 -15 -50 -8
-8 -15 -19 -15 -25 0 -6 -4 -11 -10 -11 -5 0 -10 -9 -10 -20 0 -10 -6 -23 -12
-27 -26 -16 -38 -55 -38 -122 0 -49 -4 -72 -15 -81 -8 -7 -15 -17 -15 -23 0
-27 -35 -87 -51 -87 -23 0 -29 -20 -29 -91 0 -33 -4 -59 -10 -59 -5 0 -10 -8
-10 -19 0 -10 -7 -24 -15 -31 -8 -7 -15 -25 -15 -41 0 -15 -4 -31 -10 -34 -5
-3 -10 -14 -10 -24 0 -10 -7 -24 -15 -31 -10 -9 -15 -31 -15 -73 0 -61 -11
-110 -36 -159 -8 -14 -14 -35 -14 -47 0 -11 -11 -37 -25 -57 -22 -32 -25 -48
-25 -123 0 -75 -3 -89 -22 -111 -36 -39 -78 -209 -78 -314 0 -18 -5 -46 -10
-62 -6 -16 -15 -74 -20 -129 -11 -126 -19 -167 -34 -180 -31 -27 -46 -110 -46
-249 0 -131 -6 -174 -34 -236 -6 -16 -11 -113 -12 -256 -2 -217 -3 -236 -25
-295 -24 -64 -24 -65 -24 -531 0 -360 3 -470 12 -480 7 -6 13 -29 13 -49 0
-21 5 -39 13 -42 9 -3 11 -57 9 -235 -2 -230 -2 -232 22 -270 21 -34 24 -51
28 -181 3 -84 9 -145 15 -149 11 -7 16 -38 33 -192 11 -108 27 -178 46 -200 7
-9 14 -50 15 -105 3 -90 15 -145 37 -167 7 -7 12 -29 12 -49 0 -21 5 -41 10
-44 6 -3 10 -20 10 -36 0 -17 6 -32 15 -35 12 -5 15 -26 15 -105 0 -59 4 -99
10 -99 6 0 10 -6 10 -14 0 -7 7 -19 15 -26 8 -7 15 -22 15 -34 0 -12 7 -31 15
-42 8 -10 15 -29 15 -41 0 -13 4 -23 9 -23 4 0 11 -31 13 -69 3 -37 9 -75 14
-82 5 -8 7 -24 6 -35 -2 -12 4 -28 12 -37 9 -9 16 -25 16 -36 0 -12 6 -21 13
-21 20 0 37 -51 37 -115 0 -53 4 -65 30 -95 19 -23 29 -46 30 -67 0 -28 4 -33
25 -33 23 0 25 -4 26 -47 2 -94 3 -98 27 -101 18 -3 22 -10 22 -42 0 -51 8
-70 31 -70 17 0 19 -8 19 -75 0 -73 1 -75 25 -75 23 0 25 -4 25 -40 0 -22 5
-40 11 -40 25 0 39 -30 39 -85 0 -47 4 -60 25 -79 14 -13 25 -32 25 -42 0 -13
11 -24 30 -31 29 -11 30 -14 30 -73 0 -54 3 -65 25 -82 14 -11 25 -29 25 -41
1 -25 22 -57 39 -57 6 0 11 -18 11 -46 0 -42 16 -74 37 -74 4 0 17 -18 27 -40
11 -22 23 -40 28 -40 4 0 8 -11 8 -25 0 -16 6 -25 15 -25 8 0 15 -7 15 -15 0
-8 4 -15 9 -15 6 0 11 -15 13 -32 2 -25 8 -34 26 -36 18 -3 22 -10 22 -43 0
-28 4 -39 15 -39 8 0 15 -7 15 -15 0 -8 5 -15 10 -15 6 0 10 -16 10 -35 0 -24
5 -35 15 -35 8 0 15 -7 15 -15 0 -8 7 -15 15 -15 9 0 15 -9 15 -24 0 -18 6
-25 23 -28 15 -2 23 -11 25 -28 4 -36 23 -70 39 -70 7 0 13 -11 13 -25 0 -14
3 -25 8 -25 7 0 34 -54 46 -92 3 -10 14 -18 25 -18 16 0 20 -8 23 -42 2 -33 8
-45 25 -53 14 -6 23 -18 23 -32 0 -18 6 -23 25 -23 20 0 25 -5 25 -25 0 -14 6
-25 13 -25 10 0 38 -51 37 -67 0 -8 41 -43 50 -43 6 0 10 -11 10 -25 0 -20 5
-25 25 -25 20 0 25 -5 25 -25 0 -14 5 -25 10 -25 6 0 10 -11 10 -25 0 -16 6
-25 15 -25 9 0 15 -9 15 -25 0 -20 5 -25 25 -25 20 0 25 -5 25 -25 0 -16 6
-25 15 -25 8 0 15 -6 15 -13 0 -23 25 -67 38 -67 6 0 12 -7 12 -16 0 -8 4 -13
9 -9 5 3 11 -7 13 -22 2 -20 9 -29 26 -31 16 -3 22 -10 22 -28 0 -13 5 -24 11
-24 7 0 22 -11 34 -24 12 -13 32 -27 43 -31 18 -5 22 -14 22 -51 0 -40 2 -44
24 -44 18 0 25 -6 28 -22 2 -15 11 -24 26 -26 16 -3 22 -10 22 -28 0 -19 5
-24 24 -24 18 0 25 -7 30 -30 4 -21 11 -30 25 -30 10 0 21 -9 24 -20 3 -11 13
-23 24 -27 10 -4 26 -17 36 -30 10 -13 25 -23 32 -23 7 0 15 -10 17 -22 2 -15
11 -24 25 -26 14 -2 23 -11 25 -25 2 -14 11 -23 26 -25 16 -3 22 -10 22 -28 0
-19 5 -24 25 -24 20 0 25 -5 25 -25 0 -20 5 -25 25 -25 21 0 25 -5 25 -29 0
-25 3 -28 24 -24 21 4 25 1 28 -23 2 -21 9 -30 26 -32 16 -3 22 -10 22 -28 0
-19 5 -24 24 -24 17 0 26 -7 30 -25 5 -18 13 -25 31 -25 20 0 25 -5 25 -25 0
-20 5 -25 24 -25 18 0 25 -6 28 -22 2 -15 11 -24 26 -26 16 -3 22 -10 22 -28
0 -19 5 -24 25 -24 20 0 25 -5 25 -25 0 -20 5 -25 25 -25 21 0 25 -5 25 -30 0
-25 4 -30 24 -30 18 0 25 -6 28 -22 2 -15 11 -24 26 -26 16 -3 22 -10 22 -28
0 -20 5 -24 29 -24 23 0 30 -5 33 -22 2 -15 11 -24 25 -26 14 -2 23 -11 25
-25 2 -18 11 -23 48 -27 33 -4 46 -10 48 -23 5 -27 58 -77 82 -77 15 0 20 -7
20 -29 0 -25 3 -28 25 -23 18 3 25 0 25 -12 0 -9 6 -16 14 -16 8 0 16 -7 20
-15 3 -8 15 -15 26 -15 11 0 20 -4 20 -10 0 -5 7 -10 15 -10 8 0 15 -7 15 -15
0 -9 9 -15 25 -15 20 0 25 -5 25 -25 0 -20 5 -25 25 -25 14 0 25 -4 25 -10 0
-5 11 -10 25 -10 15 0 25 -6 25 -14 0 -8 11 -17 25 -20 16 -4 25 -13 25 -26 0
-15 7 -20 25 -20 20 0 25 -5 25 -25 0 -19 5 -25 23 -25 14 0 26 -9 32 -22 6
-15 21 -24 38 -26 16 -2 31 -10 34 -18 3 -8 11 -14 19 -14 8 0 14 -7 14 -15 0
-9 9 -15 21 -15 22 0 49 -22 49 -39 0 -6 18 -11 40 -11 36 0 40 -2 40 -25 0
-19 5 -25 21 -25 12 0 32 -11 45 -25 13 -14 34 -25 47 -25 28 0 47 -17 40 -36
-4 -11 6 -14 41 -14 37 0 48 -4 57 -22 15 -29 48 -58 66 -58 7 0 13 -4 13 -10
0 -5 18 -10 40 -10 29 0 40 -4 40 -15 0 -8 7 -15 15 -15 8 0 15 -4 15 -10 0
-5 16 -10 35 -10 32 0 35 -2 35 -30 0 -28 2 -30 40 -30 22 0 40 -4 40 -10 0
-5 7 -10 15 -10 8 0 15 -7 15 -15 0 -9 9 -15 23 -15 12 0 29 -9 37 -20 8 -10
26 -22 40 -25 14 -3 34 -17 44 -30 15 -20 28 -25 62 -25 32 0 44 -4 44 -15 0
-8 7 -15 15 -15 8 0 15 -4 15 -10 0 -5 11 -10 25 -10 16 0 25 -6 25 -15 0 -8
7 -15 15 -15 8 0 15 -4 15 -10 0 -5 21 -10 48 -10 39 0 49 -4 57 -22 6 -13 21
-24 35 -26 14 -2 30 -9 35 -16 6 -7 20 -16 33 -20 12 -4 22 -12 22 -17 0 -5
23 -9 50 -9 28 0 50 -4 50 -10 0 -5 11 -10 25 -10 16 0 25 -6 25 -15 0 -11 11
-15 40 -15 36 0 40 -2 40 -25 0 -22 4 -25 33 -25 36 0 97 -26 97 -41 0 -5 16
-9 35 -9 24 0 35 -5 35 -15 0 -10 10 -15 30 -15 17 0 30 -4 30 -10 0 -5 23
-10 50 -10 38 0 50 -4 50 -15 0 -9 9 -15 25 -15 14 0 25 -4 25 -10 0 -5 13
-10 29 -10 16 0 34 -7 41 -15 7 -8 23 -15 36 -15 13 0 24 -4 24 -10 0 -6 27
-10 60 -10 45 0 62 -4 66 -15 4 -8 17 -15 30 -15 13 0 24 -4 24 -10 0 -5 8
-10 18 -10 9 0 26 -7 36 -15 11 -8 30 -15 43 -15 13 0 26 -7 29 -15 5 -11 21
-15 59 -15 30 0 57 -5 60 -10 3 -6 23 -10 45 -10 24 0 40 -5 44 -15 3 -9 19
-15 41 -15 35 0 66 -13 93 -38 8 -7 44 -12 97 -12 46 0 87 -4 90 -10 3 -5 24
-10 46 -10 28 0 39 -4 39 -15 0 -11 11 -15 39 -15 22 0 46 -7 55 -15 8 -8 24
-15 35 -15 11 0 22 -4 25 -8 3 -5 49 -10 103 -11 54 -1 100 -6 103 -11 3 -4
22 -11 43 -15 20 -4 40 -11 43 -16 3 -5 22 -9 44 -9 23 0 40 -5 43 -14 7 -18
70 -25 272 -32 109 -3 170 -10 192 -20 17 -7 36 -14 42 -14 6 0 11 -7 11 -15
0 -11 11 -15 38 -15 21 0 43 -5 50 -12 9 -9 18 -9 37 0 34 16 251 15 312 0 27
-7 51 -18 56 -25 6 -9 153 -12 641 -13 558 0 634 1 640 15 3 8 16 15 30 15 14
0 28 5 31 10 3 5 25 10 49 10 23 0 46 4 52 9 5 5 30 6 59 1 72 -12 322 -12
330 0 13 21 83 48 94 37 8 -8 11 -8 11 1 0 9 31 12 109 12 63 0 112 4 116 10
3 6 15 10 26 10 10 0 19 7 19 15 0 12 16 15 88 15 93 0 198 16 220 33 8 6 66
12 130 14 102 4 124 8 170 31 28 14 52 30 52 34 0 4 13 14 30 23 20 11 59 15
133 15 81 0 107 3 117 15 7 8 23 15 36 15 13 0 24 5 24 10 0 6 11 10 25 10 14
0 25 5 25 11 0 28 30 39 110 39 62 0 82 3 86 15 4 8 12 15 19 15 7 0 18 7 26
16 8 10 25 14 47 12 22 -2 37 2 40 10 2 6 10 12 18 12 8 0 14 7 14 15 0 12 15
15 75 15 43 0 75 4 75 10 0 6 9 10 20 10 11 0 23 7 26 15 4 8 16 15 28 15 12
0 30 11 40 25 17 23 25 25 104 25 78 0 87 2 108 25 15 16 34 25 54 25 25 0 30
4 30 25 0 25 1 25 78 25 71 0 78 2 87 23 6 12 20 23 33 25 13 2 26 10 29 18 3
8 11 14 19 14 8 0 14 5 14 10 0 6 23 10 50 10 38 0 50 4 50 15 0 8 7 15 15 15
8 0 15 7 15 15 0 10 10 15 34 15 28 0 35 4 38 22 3 20 10 23 55 26 45 3 52 6
55 25 2 17 11 23 36 25 17 2 32 7 32 13 0 5 7 9 15 9 8 0 15 7 15 15 0 11 12
15 45 15 36 0 51 5 69 25 13 14 31 25 40 25 18 0 57 35 48 44 -3 3 20 6 51 6
50 0 56 2 59 23 2 14 11 23 26 25 12 2 22 10 22 18 0 8 10 14 25 14 16 0 25 6
25 16 0 12 7 15 25 12 17 -4 25 -1 25 8 0 8 11 14 25 14 16 0 25 6 25 15 0 9
9 15 25 15 20 0 25 5 25 25 0 23 4 25 40 25 22 0 40 5 40 10 0 6 7 10 15 10 8
0 15 7 15 15 0 9 9 15 21 15 22 0 49 22 49 39 0 6 18 11 40 11 29 0 40 4 40
15 0 8 7 15 15 15 8 0 15 4 15 9 0 5 10 13 23 17 12 4 29 15 38 25 9 11 28 19
43 19 21 0 26 5 26 25 0 22 4 25 35 25 24 0 35 5 35 15 0 8 7 15 15 15 8 0 15
7 15 15 0 8 9 15 20 15 26 0 80 54 80 80 0 17 7 20 50 20 47 0 50 2 50 25 0
20 5 25 25 25 18 0 25 5 25 20 0 15 9 22 30 27 23 4 30 11 30 29 0 18 5 24 23
24 14 0 26 9 32 23 12 27 63 35 107 16 36 -15 47 -5 21 18 -11 10 -49 49 -84
87 l-64 69 35 -8 c58 -13 170 -16 191 -5 10 6 28 28 39 50 30 59 134 165 235
240 96 71 603 574 661 656 32 45 193 230 268 309 119 124 293 335 360 435 42
63 92 135 111 160 49 62 239 343 300 443 28 45 76 120 107 167 30 47 112 195
180 330 69 135 137 265 152 290 24 41 164 320 230 460 30 62 76 192 76 214 0
8 14 47 31 87 28 67 51 126 110 284 17 45 47 130 128 360 16 44 32 112 36 150
4 39 20 103 37 145 42 104 54 149 72 266 8 55 32 154 52 220 25 81 39 149 44
214 5 66 14 108 28 136 15 29 24 77 32 155 6 63 17 161 25 219 8 58 16 170 19
250 3 93 10 166 21 205 15 53 17 122 16 615 0 305 -3 596 -6 645 -14 228 -57
681 -75 780 -11 61 -29 184 -40 275 -35 287 -43 334 -85 470 -13 41 -29 102
-35 135 -6 33 -33 128 -60 210 -26 83 -51 177 -54 209 -4 32 -17 86 -31 120
-24 63 -33 92 -60 209 -9 38 -33 110 -54 160 -22 51 -42 108 -46 127 -4 19
-31 82 -60 140 -29 58 -58 123 -65 145 -7 22 -16 45 -20 50 -4 6 -23 51 -43
100 -20 50 -52 122 -70 161 -19 38 -42 99 -51 134 -9 35 -36 98 -59 140 -24
41 -49 89 -56 105 -7 17 -50 91 -95 165 -111 181 -202 335 -266 450 -47 84
-127 209 -319 500 -74 113 -156 221 -271 360 -52 63 -115 142 -140 175 -24 33
-65 83 -91 112 -25 28 -105 127 -176 220 -98 126 -190 228 -369 408 -231 232
-289 283 -391 341 -58 33 -136 97 -219 179 -33 33 -82 77 -107 98 -43 35 -87
105 -87 140 0 8 -20 24 -43 36 -24 12 -56 33 -70 47 -14 13 -33 24 -41 24 -8
0 -40 25 -71 55 -32 30 -63 55 -71 55 -8 0 -14 5 -14 10 0 6 -7 10 -15 10 -8
0 -15 7 -15 15 0 8 -7 15 -15 15 -8 0 -22 11 -31 25 -9 14 -25 25 -35 25 -11
0 -19 7 -19 16 0 8 -4 13 -8 10 -5 -3 -16 4 -25 15 -9 10 -24 19 -32 19 -8 0
-15 5 -15 10 0 6 -7 10 -16 10 -8 0 -12 5 -9 10 4 6 -7 10 -24 10 -20 0 -31 5
-31 14 0 8 -11 17 -25 20 -13 3 -29 15 -35 26 -6 11 -17 20 -25 20 -8 0 -15 5
-15 10 0 6 -11 10 -25 10 -16 0 -25 6 -25 15 0 8 -6 15 -14 15 -8 0 -21 6 -28
13 -7 6 -30 20 -50 29 -21 10 -38 22 -38 27 0 5 -16 15 -35 21 -19 6 -38 17
-42 24 -5 7 -23 21 -40 30 -18 9 -33 20 -33 25 0 5 -15 11 -34 14 -19 3 -44
15 -55 26 -12 12 -29 21 -39 21 -10 0 -25 9 -34 19 -9 11 -34 23 -55 27 -20 4
-44 13 -51 21 -7 7 -20 13 -28 13 -8 0 -14 5 -14 10 0 6 -11 10 -25 10 -14 0
-25 5 -25 10 0 6 -6 10 -13 10 -8 0 -22 9 -32 20 -10 11 -28 20 -40 20 -27 0
-85 28 -85 41 0 5 -8 9 -18 9 -10 0 -24 9 -32 20 -8 11 -30 23 -50 26 -54 9
-90 25 -90 40 0 8 -9 14 -21 14 -11 0 -35 11 -53 25 -19 15 -46 25 -65 25 -19
0 -34 6 -37 15 -4 8 -12 15 -20 15 -8 0 -14 5 -14 10 0 6 -11 10 -24 10 -14 0
-27 4 -31 9 -10 17 -67 41 -95 41 -15 0 -33 7 -40 15 -7 8 -20 15 -29 15 -9 0
-21 4 -26 9 -6 5 -23 11 -40 13 -21 2 -34 11 -43 31 -12 24 -18 27 -64 27 -60
0 -118 18 -118 37 0 7 -7 13 -15 13 -17 0 -52 18 -73 38 -7 6 -39 12 -71 12
-47 0 -63 4 -84 24 -15 14 -44 26 -71 30 -25 4 -46 10 -46 14 0 15 -83 32
-157 32 -68 0 -82 3 -103 23 -14 13 -50 31 -80 41 -30 10 -63 22 -72 27 -10 5
-32 9 -50 9 -73 0 -192 31 -257 66 -63 35 -71 37 -186 41 -117 4 -164 14 -195
38 -8 7 -51 18 -95 24 -44 7 -102 17 -130 21 -27 5 -88 12 -135 15 -47 4 -123
15 -170 27 -54 12 -148 23 -255 28 -109 6 -202 16 -258 29 -84 20 -114 21
-750 20 l-662 -1 -80 -23z"/>
<path d="M19830 25036 c0 -2 8 -10 18 -17 15 -13 16 -12 3 4 -13 16 -21 21
-21 13z"/>
<path d="M19910 24965 c13 -14 26 -25 28 -25 3 0 -5 11 -18 25 -13 14 -26 25
-28 25 -3 0 5 -11 18 -25z"/>
<path d="M32292 7757 c-18 -7 -30 -16 -26 -20 4 -3 1 -14 -7 -23 -11 -14 -14
-110 -17 -533 -2 -445 -5 -521 -18 -550 -9 -18 -14 -44 -11 -57 6 -31 -6 -31
-27 1 -9 14 -23 25 -31 25 -8 0 -15 4 -15 9 0 5 -10 11 -22 13 -15 2 -24 11
-26 26 -2 12 -8 22 -13 22 -5 0 -33 25 -63 55 l-53 55 -66 0 c-38 0 -67 4 -67
10 0 6 -7 10 -15 10 -8 0 -15 7 -15 15 0 18 4 17 -350 15 -161 -1 -257 -5
-261 -12 -4 -6 -27 -13 -53 -15 -26 -3 -49 -10 -52 -14 -3 -5 -27 -9 -55 -9
-27 0 -49 -4 -49 -10 0 -5 -11 -12 -25 -16 -14 -3 -25 -12 -25 -20 0 -8 -9
-14 -20 -14 -26 0 -80 -27 -80 -40 0 -6 -11 -10 -25 -10 -14 0 -25 -4 -25 -10
0 -5 -7 -10 -15 -10 -8 0 -15 -7 -15 -15 0 -9 -9 -15 -24 -15 -18 0 -25 -6
-28 -22 -2 -15 -11 -24 -25 -26 -13 -2 -23 -10 -23 -18 0 -8 -11 -20 -25 -26
-16 -7 -25 -19 -25 -34 0 -16 -7 -24 -22 -26 -15 -2 -24 -11 -26 -25 -2 -13
-8 -23 -14 -23 -13 0 -68 -56 -68 -70 0 -5 -6 -10 -12 -10 -13 0 -38 -44 -38
-67 0 -7 -6 -13 -13 -13 -7 0 -19 -16 -26 -35 -7 -19 -19 -35 -27 -35 -9 0
-14 -11 -14 -34 0 -18 -7 -39 -15 -46 -8 -7 -15 -25 -15 -40 0 -15 -7 -33 -15
-40 -8 -7 -13 -16 -10 -20 3 -5 -2 -15 -10 -23 -8 -9 -15 -22 -15 -29 0 -8 -5
-19 -10 -24 -15 -15 -15 -767 -1 -772 6 -2 11 -12 11 -22 0 -11 6 -23 14 -27
7 -4 16 -28 19 -53 6 -57 15 -80 33 -80 10 0 14 -12 14 -40 0 -22 5 -40 11
-40 24 0 39 -30 39 -78 0 -42 3 -51 21 -55 11 -3 23 -15 26 -26 3 -12 10 -21
15 -21 16 0 38 -28 38 -48 0 -17 28 -52 43 -52 14 0 67 -63 67 -81 0 -15 7
-19 35 -19 24 0 35 -5 35 -15 0 -8 4 -15 10 -15 15 0 50 -33 44 -42 -3 -4 2
-8 10 -8 9 0 16 -7 16 -15 0 -9 9 -15 23 -15 14 0 26 -9 32 -23 7 -15 20 -23
41 -25 17 -2 42 -14 55 -28 19 -20 32 -24 83 -24 60 -1 96 -15 96 -39 0 -6 12
-11 26 -11 14 0 39 -11 54 -24 28 -23 31 -24 283 -25 214 -2 256 0 266 13 7 8
18 13 25 10 8 -3 16 2 19 10 4 10 19 16 41 16 21 0 36 6 40 15 3 8 15 15 26
15 11 0 20 5 20 10 0 6 26 10 59 10 51 0 61 3 75 25 9 13 16 31 16 40 0 8 5
15 11 15 15 0 48 42 49 61 0 9 12 22 27 30 49 26 93 3 93 -49 0 -17 5 -32 11
-34 6 -2 13 -22 16 -43 2 -25 14 -50 29 -66 l26 -27 236 0 c218 0 238 1 254
18 17 18 18 120 18 1731 1 1381 -2 1715 -12 1725 -9 8 -73 14 -203 17 -104 3
-206 8 -225 11 -19 3 -50 -1 -68 -7z m-684 -1456 c9 -6 34 -13 55 -16 20 -3
37 -10 37 -15 0 -6 15 -10 34 -10 19 0 38 -4 41 -10 3 -5 17 -10 29 -10 13 0
29 -6 36 -14 6 -8 28 -16 48 -18 30 -2 38 -8 40 -25 3 -17 10 -23 28 -23 15 0
24 -6 24 -15 0 -8 5 -15 11 -15 15 0 36 -23 41 -46 2 -12 13 -20 31 -22 21 -3
27 -9 27 -28 0 -19 5 -24 25 -24 23 0 25 -3 25 -51 0 -49 15 -79 39 -79 6 0
11 -11 11 -25 0 -14 5 -25 10 -25 6 0 10 -7 10 -15 0 -8 7 -15 15 -15 13 0 15
-35 15 -255 0 -220 -2 -255 -15 -255 -9 0 -15 -9 -15 -25 0 -14 -4 -25 -10
-25 -5 0 -10 -7 -10 -15 0 -8 -7 -15 -15 -15 -9 0 -15 -9 -15 -25 0 -14 -4
-25 -10 -25 -5 0 -10 -10 -10 -21 0 -12 -11 -32 -25 -45 -14 -13 -25 -32 -25
-44 0 -11 -6 -20 -13 -20 -15 0 -67 -54 -67 -70 0 -5 -7 -10 -15 -10 -8 0 -15
-4 -15 -8 0 -5 -11 -14 -25 -20 -14 -6 -25 -18 -25 -27 0 -8 -7 -15 -15 -15
-8 0 -25 -11 -39 -25 -15 -15 -36 -25 -54 -25 -16 0 -35 -7 -42 -15 -7 -8 -27
-15 -44 -15 -17 0 -42 -7 -55 -17 -34 -23 -223 -23 -268 0 -18 10 -53 20 -78
24 -25 3 -45 10 -45 16 0 5 -11 7 -25 5 -17 -4 -25 -1 -25 8 0 8 -11 14 -25
14 -16 0 -25 6 -25 15 0 9 -9 15 -22 15 -26 1 -58 22 -58 39 0 6 -11 11 -25
11 -14 0 -25 5 -25 10 0 6 -7 10 -15 10 -8 0 -15 7 -15 15 0 8 -4 15 -10 15
-5 0 -10 8 -10 18 0 9 -12 28 -25 41 -14 13 -25 34 -25 47 0 15 -6 24 -15 24
-8 0 -17 11 -21 25 -3 14 -10 25 -15 25 -5 0 -9 9 -9 19 0 11 -4 23 -10 26 -5
3 -10 15 -10 25 0 10 -6 23 -14 27 -25 15 -49 193 -43 317 6 130 26 245 44
264 7 7 13 20 13 28 0 8 5 14 10 14 6 0 10 11 10 25 0 14 4 25 10 25 15 0 50
33 50 46 0 7 11 21 25 32 14 11 25 25 25 32 0 14 25 40 39 40 6 0 11 6 11 13
0 7 22 26 50 42 27 17 50 36 50 43 0 6 7 12 15 12 8 0 15 5 15 10 0 6 11 10
24 10 13 0 26 7 30 15 3 8 15 15 26 15 11 0 20 4 20 10 0 5 16 9 36 8 25 -1
39 4 46 15 5 10 21 17 36 17 15 0 34 5 42 10 19 12 135 13 158 1z"/>
<path d="M16492 7552 c-168 -2 -184 -4 -203 -23 -19 -19 -20 -31 -18 -292 1
-166 5 -277 11 -284 6 -7 7 -27 4 -45 -4 -18 -10 -49 -13 -68 -10 -60 -10 -60
-255 -60 l-223 0 -17 -38 c-23 -52 -28 -101 -19 -222 3 -58 4 -140 1 -182 -3
-48 -1 -79 5 -81 6 -1 102 0 215 3 113 3 224 4 248 2 l42 -3 0 -703 c0 -492 3
-705 11 -713 8 -8 8 -13 0 -17 -16 -10 -13 -26 4 -26 8 0 15 -9 15 -20 0 -10
7 -23 16 -28 13 -7 15 -22 12 -70 -3 -59 -2 -61 24 -66 23 -5 27 -11 30 -48 2
-36 7 -44 26 -46 16 -3 22 -10 22 -28 0 -13 5 -24 10 -24 6 0 10 -7 10 -15 0
-8 7 -15 15 -15 8 0 15 -7 15 -15 0 -9 9 -15 25 -15 20 0 25 -5 25 -25 0 -19
5 -25 21 -25 12 0 32 -11 45 -25 15 -16 34 -25 53 -25 16 0 33 -4 36 -10 3 -5
15 -10 26 -10 11 0 22 -7 25 -15 4 -9 19 -15 39 -15 20 0 35 -6 38 -15 4 -9
18 -13 41 -11 22 1 37 -3 40 -11 4 -10 55 -13 237 -13 223 0 291 7 310 33 4 5
35 12 70 16 34 4 65 13 67 19 2 7 10 12 18 12 8 0 14 5 14 10 0 6 28 10 65 10
40 0 65 4 65 11 0 14 25 39 39 39 6 0 11 9 11 19 0 11 5 23 10 26 12 8 13 135
1 135 -5 0 -12 11 -15 25 -4 14 -11 25 -16 25 -6 0 -10 24 -10 54 0 30 -4 58
-10 61 -5 3 -10 14 -10 25 0 10 -7 20 -15 24 -9 3 -15 18 -15 36 0 33 -25 90
-39 90 -5 0 -12 11 -15 25 -7 28 -31 34 -40 10 -3 -8 -12 -15 -21 -15 -8 0
-15 -4 -15 -10 0 -5 -16 -10 -35 -10 -24 0 -35 -5 -35 -15 0 -8 -4 -15 -9 -15
-5 0 -22 -5 -38 -12 -15 -6 -32 -10 -36 -9 -4 1 -18 -5 -30 -14 -12 -8 -30
-15 -40 -15 -9 0 -20 -7 -23 -15 -4 -9 -19 -15 -41 -15 -20 0 -54 -5 -76 -12
-32 -10 -41 -10 -45 0 -2 7 -23 12 -53 12 -37 0 -49 4 -49 15 0 8 -6 15 -14
15 -8 0 -16 7 -20 15 -3 8 -11 15 -19 15 -28 0 -68 26 -73 48 -4 12 -10 22
-15 22 -5 0 -9 7 -9 15 0 8 -7 15 -15 15 -9 0 -15 9 -15 23 0 13 -5 28 -12 35
-35 35 -38 76 -38 657 0 314 3 580 6 593 l6 22 371 0 c261 0 380 -4 403 -12
31 -11 35 -10 59 18 24 28 25 35 26 164 1 74 1 140 0 147 -1 6 3 14 9 18 13 8
13 62 0 70 -5 3 -10 17 -10 31 0 13 -4 24 -10 24 -5 0 -10 7 -10 15 0 8 -7 15
-15 15 -8 0 -15 7 -15 15 0 13 -52 15 -410 15 l-410 0 0 365 c0 346 -1 366
-19 384 -23 23 -75 27 -329 23z"/>
<path d="M7240 6841 c0 -8 -70 -11 -240 -11 l-239 0 -25 -25 c-22 -22 -34 -25
-96 -25 l-70 0 0 -38 c0 -21 -4 -42 -9 -47 -5 -6 -11 -21 -13 -34 -3 -26 -49
-59 -84 -60 -25 -1 -69 45 -77 79 -3 14 -10 41 -14 60 l-9 35 -307 3 -307 2 0
-1237 c1 -1171 2 -1239 18 -1259 17 -21 28 -22 248 -24 297 -4 287 -5 299 23
6 12 20 23 33 25 l22 3 0 760 c0 499 3 759 10 759 6 0 10 11 10 25 0 16 6 25
15 25 11 0 15 12 15 50 0 28 5 50 10 50 6 0 10 7 10 15 0 8 7 15 14 15 11 0
16 15 18 53 2 43 7 54 26 62 12 5 22 15 22 22 0 7 11 13 25 13 20 0 25 5 25
25 0 20 5 25 24 25 13 0 29 7 36 15 7 8 19 15 26 15 8 0 14 5 14 10 0 6 30 10
69 10 49 0 72 4 81 15 18 22 240 22 240 0 0 -10 16 -15 63 -17 56 -3 62 -5 65
-25 3 -17 10 -23 28 -23 19 0 24 -5 24 -25 0 -20 5 -25 24 -25 18 0 25 -6 28
-22 2 -15 11 -24 26 -26 16 -3 22 -10 22 -28 0 -19 5 -24 25 -24 24 0 25 -2
25 -65 0 -45 4 -65 13 -65 35 0 37 -36 37 -844 1 -642 3 -794 14 -808 12 -16
39 -18 310 -18 l296 0 1 793 c1 435 1 800 0 810 -1 9 2 17 8 17 15 0 41 60 41
97 0 18 5 33 11 33 13 0 39 25 39 38 0 6 7 12 15 16 8 3 15 15 15 26 0 11 5
20 10 20 6 0 10 11 10 25 0 21 5 25 31 25 28 0 31 3 27 25 -5 23 -2 25 33 25
25 0 39 5 39 13 0 19 49 37 99 37 26 1 75 7 111 15 78 17 146 19 155 4 4 -6
14 -8 23 -4 8 3 18 1 21 -4 3 -5 24 -10 46 -12 45 -3 76 -16 88 -35 4 -8 17
-14 27 -14 11 0 20 -4 20 -10 0 -5 7 -10 15 -10 8 0 15 -5 15 -11 0 -14 55
-69 69 -69 6 0 11 -7 11 -15 0 -8 5 -15 10 -15 6 0 10 -11 10 -25 0 -16 6 -25
15 -25 9 0 15 -9 15 -24 0 -13 9 -45 19 -69 11 -25 17 -48 14 -51 -4 -3 -1 -6
5 -6 8 0 11 -223 12 -807 0 -444 2 -808 4 -810 6 -6 41 -7 304 -5 l252 2 0
954 c0 839 -2 957 -16 985 -8 17 -19 33 -25 36 -5 4 -9 36 -9 72 0 64 0 65
-25 61 -22 -5 -25 -2 -25 23 0 16 -5 29 -11 29 -17 0 -39 27 -39 49 0 12 -6
21 -15 21 -8 0 -15 7 -15 15 0 8 -4 15 -10 15 -5 0 -10 9 -10 20 0 12 -9 22
-24 26 -15 3 -26 14 -28 27 -2 16 -11 23 -30 25 -16 2 -28 8 -28 13 0 17 -28
39 -49 39 -12 0 -21 6 -21 15 0 8 -7 15 -15 15 -8 0 -15 5 -15 10 0 6 -11 10
-25 10 -21 0 -25 5 -25 30 l0 30 -75 0 c-43 0 -75 4 -75 10 0 6 -6 10 -12 10
-7 0 -26 7 -43 16 -25 13 -76 15 -314 15 -195 0 -287 -4 -291 -11 -10 -16 -74
-32 -147 -37 -36 -3 -67 -11 -74 -19 -6 -8 -20 -14 -30 -14 -11 0 -19 -6 -19
-13 0 -8 -11 -19 -25 -25 -14 -6 -25 -18 -25 -25 0 -8 -11 -20 -25 -27 -14 -7
-25 -19 -25 -27 0 -7 -7 -13 -15 -13 -8 0 -15 -6 -15 -13 0 -19 -24 -67 -33
-67 -11 0 -37 -26 -37 -37 0 -4 -11 -13 -25 -20 -14 -6 -25 -7 -25 -2 0 5 -7
9 -15 9 -8 0 -15 7 -15 15 0 9 -9 15 -21 15 -12 0 -32 11 -45 25 -13 14 -32
25 -43 25 -13 0 -21 8 -23 23 -2 14 -11 23 -25 25 -13 2 -23 10 -23 18 0 8 -7
14 -15 14 -8 0 -15 5 -15 10 0 6 -10 10 -23 10 -15 0 -29 9 -37 25 -8 16 -22
25 -37 25 -15 0 -23 6 -23 18 0 32 -22 42 -88 42 -61 0 -92 13 -92 38 0 6 -19
12 -42 15 -24 2 -53 8 -65 12 -15 5 -23 3 -23 -4z"/>
<path d="M19559 6839 c-7 -5 -121 -9 -251 -9 -137 0 -239 -4 -243 -9 -3 -6
-26 -13 -50 -17 -25 -3 -48 -10 -51 -15 -3 -5 -25 -9 -50 -9 -24 0 -44 -4 -44
-9 0 -5 -13 -14 -30 -20 -16 -5 -30 -15 -30 -20 0 -6 -11 -11 -24 -11 -13 0
-29 -7 -36 -15 -7 -8 -19 -15 -26 -15 -8 0 -14 -4 -14 -10 0 -5 -9 -10 -21
-10 -22 0 -49 -22 -49 -39 0 -6 -13 -11 -29 -11 -23 0 -30 -5 -33 -22 -2 -15
-11 -24 -25 -26 -13 -2 -23 -8 -23 -13 0 -13 -26 -39 -39 -39 -5 0 -11 -10
-13 -22 -2 -15 -11 -24 -25 -26 -17 -3 -23 -10 -23 -28 0 -17 -6 -24 -19 -24
-13 0 -21 -9 -26 -30 -4 -17 -10 -28 -14 -26 -11 7 -41 -32 -41 -54 0 -11 -7
-20 -15 -20 -8 0 -15 -7 -15 -15 0 -8 -4 -15 -10 -15 -5 0 -10 -8 -10 -18 0
-10 -9 -25 -20 -35 -11 -9 -20 -26 -20 -36 0 -11 -4 -23 -10 -26 -5 -3 -10
-19 -10 -35 0 -16 -4 -32 -10 -35 -5 -3 -10 -15 -10 -25 0 -10 -6 -23 -13 -27
-8 -4 -20 -37 -27 -73 -7 -36 -18 -71 -24 -79 -7 -9 -12 -120 -13 -335 -2
-262 0 -322 11 -328 8 -4 19 -38 26 -75 7 -38 16 -75 21 -84 5 -9 4 -20 -2
-26 -7 -7 -2 -17 15 -30 18 -15 26 -31 28 -64 3 -37 7 -44 28 -49 22 -5 25
-12 28 -57 2 -41 7 -52 22 -56 11 -3 23 -13 27 -24 9 -22 28 -43 42 -43 5 0
11 -17 13 -37 2 -31 7 -39 26 -41 12 -2 22 -10 22 -18 0 -8 11 -20 25 -26 16
-7 25 -19 25 -35 0 -17 6 -23 21 -23 31 0 79 -32 79 -52 0 -10 7 -21 15 -24 8
-4 15 -12 15 -20 0 -10 12 -14 40 -14 36 0 40 -2 40 -25 0 -23 4 -25 46 -25
44 0 74 -16 74 -39 0 -7 25 -11 65 -11 37 0 65 -4 65 -10 0 -5 6 -10 14 -10 7
0 19 -7 26 -15 7 -9 29 -15 51 -15 21 0 41 -5 44 -10 4 -6 14 -8 24 -5 10 3
26 -4 39 -15 20 -19 35 -20 303 -20 285 0 349 7 349 37 0 7 11 13 25 13 16 0
25 6 25 15 0 8 7 15 15 15 8 0 15 5 15 10 0 6 40 10 100 10 93 0 100 1 100 20
0 20 16 27 75 32 22 2 31 9 33 26 3 19 9 22 53 22 48 0 49 1 49 30 0 25 4 30
25 30 20 0 25 5 25 25 0 22 4 25 36 25 51 0 64 18 64 89 0 58 -1 61 -25 61
-20 0 -25 5 -25 25 0 20 -5 25 -25 25 -20 0 -25 5 -25 25 0 14 -6 25 -13 25
-6 0 -18 15 -25 33 -8 17 -21 46 -29 63 -11 20 -14 45 -11 72 4 23 1 45 -5 51
-14 14 -54 14 -62 1 -3 -5 -24 -10 -45 -10 -29 0 -43 -6 -58 -25 -16 -19 -29
-25 -61 -25 -35 0 -43 -4 -51 -25 -8 -21 -16 -25 -47 -25 -30 0 -43 -6 -61
-28 -19 -23 -29 -27 -61 -24 -22 2 -44 -2 -52 -10 -17 -15 -49 -36 -64 -42
-42 -15 -136 -24 -175 -16 -25 5 -108 9 -186 10 -123 0 -143 2 -157 18 -10 10
-17 24 -17 30 0 8 -18 12 -49 12 -44 0 -50 3 -53 23 -2 14 -11 23 -27 25 -26
4 -51 24 -51 41 0 6 -18 11 -39 11 -40 0 -40 0 -43 43 -2 32 -8 44 -25 52 -14
6 -23 18 -23 32 0 14 -6 23 -15 23 -8 0 -15 7 -15 15 0 8 -4 15 -10 15 -5 0
-10 13 -10 29 0 18 -10 41 -25 57 -45 49 -27 95 37 96 18 0 403 0 855 -1 607
-1 829 2 847 11 17 7 26 19 26 34 0 12 5 24 12 26 9 3 9 18 0 63 -7 35 -12
153 -12 292 0 149 -4 233 -10 233 -5 0 -10 14 -10 30 0 20 -5 30 -15 30 -9 0
-15 9 -15 24 0 17 -7 26 -25 30 -24 6 -25 10 -25 76 0 73 -14 120 -37 120 -7
0 -13 11 -13 25 0 14 -4 25 -9 25 -5 0 -11 12 -13 28 -2 15 -8 26 -15 25 -8
-2 -13 8 -13 27 0 25 -4 30 -24 30 -18 0 -25 6 -28 23 -2 14 -11 23 -25 25
-17 3 -23 10 -23 28 0 17 -5 24 -20 24 -12 0 -24 10 -30 24 -4 13 -20 26 -34
30 -17 4 -26 13 -26 26 0 15 -7 20 -25 20 -20 0 -25 5 -25 25 0 23 -3 25 -50
25 -47 0 -50 2 -50 25 0 23 -3 25 -50 25 -41 0 -50 3 -50 18 0 32 -22 42 -88
42 -62 0 -92 13 -92 39 0 6 -18 11 -41 11 -22 0 -48 4 -58 9 -10 6 -23 6 -32
0z m-24 -540 c5 -5 17 -9 27 -9 10 0 21 -7 24 -15 4 -9 19 -15 39 -15 27 0 34
-5 39 -25 4 -16 13 -25 26 -25 15 0 20 -7 20 -25 0 -19 5 -25 23 -25 14 0 26
-9 32 -22 6 -13 20 -24 33 -26 16 -3 22 -10 22 -28 0 -19 5 -24 25 -24 20 0
25 -5 25 -25 0 -14 5 -25 10 -25 6 0 10 -11 10 -25 0 -14 7 -28 15 -31 9 -4
15 -19 15 -40 0 -19 5 -34 10 -34 15 0 12 -92 -4 -112 -12 -17 -52 -18 -573
-18 -620 0 -577 -5 -603 64 -13 34 3 86 26 86 10 0 14 13 14 40 0 30 4 40 16
40 8 0 12 5 9 10 -3 6 1 13 9 16 9 3 16 16 16 28 0 12 9 25 23 31 16 7 23 20
25 47 3 31 8 39 28 44 13 3 24 10 24 15 0 5 18 17 40 26 22 10 40 23 40 30 0
7 7 13 15 13 8 0 15 5 15 10 0 6 14 10 30 10 28 0 76 23 90 42 12 16 347 14
365 -3z"/>
<path d="M22031 6832 c-13 -2 -34 -15 -46 -28 -16 -17 -33 -24 -59 -24 -28 0
-44 -7 -66 -30 -23 -23 -38 -30 -69 -30 -22 0 -43 -4 -46 -10 -3 -5 -28 -10
-55 -10 -27 0 -52 5 -55 10 -3 6 -16 10 -29 10 -27 0 -46 18 -46 42 0 17 -15
18 -238 18 -226 0 -238 -1 -255 -20 -16 -19 -17 -101 -17 -1260 l0 -1240 28
-2 c15 0 34 -1 42 0 8 1 133 2 278 2 l262 0 0 835 c0 544 3 835 10 835 23 0
50 36 50 67 0 18 5 33 10 33 6 0 10 9 10 20 0 11 7 23 15 26 10 4 15 20 15 45
0 35 3 39 25 39 14 0 25 6 25 13 0 6 23 25 50 42 28 16 50 33 50 37 0 4 29 8
65 8 36 0 65 4 65 9 0 9 60 8 160 -3 30 -3 87 -8 125 -11 39 -2 88 -9 109 -14
22 -5 44 -7 50 -4 32 20 46 41 46 68 0 43 19 107 38 128 13 15 14 22 4 38 -7
11 -8 19 -2 19 5 0 10 18 10 40 0 22 5 40 10 40 6 0 10 11 10 25 0 16 6 25 15
25 9 0 15 9 15 24 0 13 7 26 15 30 8 3 15 14 15 25 0 11 5 23 10 26 25 15 0
75 -31 75 -7 0 -20 6 -28 14 -13 11 -75 15 -291 18 -151 2 -286 2 -299 0z"/>
<path d="M11108 6819 c-5 -14 -71 -31 -148 -36 -63 -5 -100 -24 -100 -53 0 -5
-16 -10 -35 -10 -28 0 -38 -5 -47 -25 -8 -17 -19 -25 -37 -25 -28 -1 -61 -21
-61 -37 0 -6 -9 -13 -21 -16 -11 -3 -23 -15 -26 -26 -3 -14 -13 -21 -29 -21
-19 0 -24 -5 -24 -25 0 -21 -5 -25 -30 -25 -25 0 -30 -4 -30 -25 0 -20 -5 -25
-25 -25 -19 0 -25 -5 -25 -23 0 -14 -9 -26 -22 -32 -13 -6 -24 -20 -26 -33 -2
-12 -8 -20 -13 -16 -17 10 -39 -17 -39 -47 0 -19 -5 -29 -15 -29 -8 0 -15 -7
-15 -15 0 -8 -4 -15 -10 -15 -5 0 -10 -11 -10 -25 0 -14 -5 -25 -11 -25 -23 0
-39 -30 -39 -75 0 -28 -6 -52 -15 -61 -8 -9 -15 -26 -15 -40 0 -13 -4 -24 -10
-24 -5 0 -10 -18 -10 -40 0 -29 -4 -40 -15 -40 -8 0 -15 -8 -15 -19 0 -10 -6
-24 -13 -30 -20 -16 -23 -721 -3 -721 8 0 16 -16 20 -40 3 -22 11 -40 16 -40
6 0 10 -11 10 -25 0 -14 5 -25 10 -25 6 0 10 -7 10 -15 0 -9 7 -18 15 -21 11
-5 15 -21 15 -60 0 -30 5 -54 10 -54 6 0 10 -7 10 -15 0 -8 4 -15 9 -15 5 0
13 -10 17 -22 4 -13 17 -33 30 -45 13 -12 24 -31 24 -43 0 -11 5 -20 11 -20
16 0 39 -26 39 -45 0 -9 11 -26 25 -39 14 -13 25 -33 25 -45 0 -16 6 -21 25
-21 20 0 25 -5 25 -25 0 -20 5 -25 24 -25 13 0 31 -11 42 -25 11 -15 29 -25
44 -25 30 0 50 -17 50 -42 0 -12 8 -18 24 -18 14 0 28 -4 31 -10 3 -5 15 -10
26 -10 10 0 19 -7 19 -15 0 -8 5 -15 11 -15 14 0 39 -25 39 -39 0 -7 25 -11
64 -11 36 0 68 -4 71 -10 3 -5 13 -10 21 -10 9 0 22 -7 30 -15 9 -8 33 -15 54
-15 25 0 40 -5 44 -16 3 -8 10 -13 15 -10 5 3 11 -1 15 -9 5 -13 42 -15 246
-15 241 0 271 4 293 38 4 6 24 12 42 12 24 0 35 5 35 15 0 10 11 15 35 15 19
0 35 5 35 10 0 6 18 10 40 10 29 0 40 4 40 15 0 8 7 15 15 15 8 0 15 5 15 10
0 6 8 10 19 10 10 0 27 11 37 25 10 14 25 25 33 25 7 0 19 8 26 17 9 11 28 17
64 17 44 1 55 -3 72 -24 11 -15 17 -33 13 -45 -35 -123 -32 -129 49 -122 34 4
144 6 245 6 l182 1 0 25 c0 20 5 25 25 25 l25 0 0 1235 0 1235 -224 0 c-190 0
-225 -2 -230 -15 -3 -8 -12 -15 -21 -15 -8 0 -15 -6 -15 -14 0 -8 -16 -20 -35
-26 -19 -6 -35 -18 -35 -26 0 -9 -11 -14 -34 -14 -19 0 -38 -4 -41 -10 -13
-21 -135 -1 -135 23 0 12 -26 37 -39 37 -6 0 -11 14 -11 30 l0 30 -75 0 c-41
0 -75 4 -75 9 0 8 -32 23 -57 25 -6 1 -15 5 -19 9 -12 12 -572 9 -576 -4z
m460 -542 c8 -9 41 -14 98 -16 84 -2 114 -13 114 -40 0 -6 11 -11 25 -11 14 0
25 -4 25 -10 0 -5 7 -10 15 -10 8 0 15 -7 15 -15 0 -9 9 -15 25 -15 20 0 25
-5 25 -25 0 -20 5 -25 25 -25 16 0 25 -6 25 -15 0 -9 11 -21 25 -27 16 -7 25
-19 25 -35 0 -14 6 -23 15 -23 8 0 15 -7 15 -15 0 -8 5 -15 10 -15 6 0 10 -11
10 -25 0 -16 6 -25 15 -25 8 0 15 -7 15 -15 0 -8 6 -15 14 -15 9 0 16 -15 19
-42 6 -54 29 -131 41 -139 4 -4 9 -84 9 -179 0 -150 -2 -174 -17 -182 -10 -6
-16 -22 -16 -48 0 -21 -4 -42 -10 -45 -5 -3 -10 -33 -10 -65 0 -55 -2 -60 -30
-77 -19 -11 -30 -25 -30 -40 0 -13 -4 -23 -10 -23 -5 0 -10 -7 -10 -15 0 -8
-7 -15 -15 -15 -8 0 -15 -5 -15 -11 0 -14 -25 -39 -39 -39 -6 0 -11 -5 -11
-11 0 -17 -27 -39 -48 -39 -11 0 -28 -11 -38 -25 -10 -14 -29 -25 -41 -25 -13
0 -23 -6 -23 -13 0 -23 -35 -42 -78 -42 -24 0 -48 -6 -54 -12 -6 -7 -18 -13
-28 -13 -10 0 -20 -7 -24 -15 -4 -12 -31 -15 -151 -15 -117 0 -149 3 -161 15
-9 8 -29 15 -45 15 -19 0 -29 5 -29 15 0 9 -9 15 -25 15 -14 0 -25 5 -25 10 0
6 -11 10 -25 10 -16 0 -25 6 -25 15 0 9 -9 15 -24 15 -18 0 -25 6 -28 23 -3
19 -10 22 -50 25 -43 3 -48 5 -48 28 0 20 -5 24 -29 24 -23 0 -30 5 -33 23 -2
14 -11 23 -25 25 -19 3 -22 11 -25 50 -3 40 -6 47 -25 50 -19 3 -23 10 -23 39
0 25 -7 42 -23 57 -22 20 -24 33 -31 160 -3 76 -7 141 -8 144 -1 4 2 67 6 140
6 103 11 132 22 132 8 0 14 10 14 25 0 14 5 25 10 25 6 0 10 11 10 25 0 16 6
25 15 25 9 0 15 9 15 25 0 14 4 25 9 25 5 0 11 12 13 28 2 19 9 28 26 30 14 2
22 10 22 23 0 13 10 24 30 30 19 7 30 18 30 29 0 12 9 20 23 22 14 2 23 11 25
26 2 16 10 22 27 22 17 0 25 6 27 23 2 18 10 23 41 25 20 2 37 8 37 13 0 22
28 36 85 43 33 4 62 11 63 16 6 16 237 13 250 -3z"/>
<path d="M13987 6817 c-6 -17 -51 -26 -154 -34 -64 -4 -73 -7 -73 -24 0 -10
-7 -19 -15 -19 -8 0 -15 -4 -15 -9 0 -5 -16 -15 -35 -22 -19 -7 -35 -19 -35
-25 0 -7 -12 -14 -27 -16 -20 -2 -29 -9 -31 -25 -3 -17 -10 -23 -28 -23 -19 0
-24 -5 -24 -25 0 -20 -5 -25 -24 -25 -16 0 -26 -7 -29 -21 -3 -11 -15 -23 -26
-26 -14 -3 -21 -13 -21 -29 0 -15 -6 -24 -15 -24 -8 0 -15 -7 -15 -15 0 -8 -4
-15 -10 -15 -5 0 -10 -13 -10 -28 0 -32 -16 -53 -36 -45 -11 4 -14 -11 -14
-76 0 -61 -3 -81 -13 -81 -8 0 -19 -11 -25 -25 -15 -32 -16 -285 -2 -285 6 0
10 -14 10 -30 0 -18 6 -33 15 -36 10 -4 15 -20 15 -45 0 -45 18 -89 37 -89 7
0 13 -11 13 -25 0 -20 5 -25 25 -25 21 0 25 -5 25 -31 0 -16 4 -28 8 -25 9 6
42 -29 42 -44 0 -6 11 -10 25 -10 20 0 25 -5 25 -25 0 -20 5 -25 25 -25 20 0
25 -5 25 -25 0 -24 3 -25 54 -25 49 0 54 -2 60 -25 5 -21 12 -25 46 -25 34 0
42 -4 50 -25 9 -24 13 -25 95 -25 75 0 90 -3 118 -24 27 -20 45 -24 117 -26
141 -4 160 -6 172 -18 7 -7 28 -12 49 -12 20 0 49 -4 65 -10 16 -5 62 -11 102
-13 40 -2 78 -9 84 -15 7 -7 20 -12 30 -12 10 0 18 -7 18 -15 0 -10 11 -15 35
-15 19 0 35 -4 35 -10 0 -5 5 -10 12 -10 6 0 18 -6 27 -14 72 -65 71 -64 71
-114 0 -35 -4 -52 -15 -56 -8 -3 -15 -15 -15 -26 0 -11 -4 -20 -10 -20 -5 0
-10 -8 -10 -17 0 -10 -14 -26 -30 -35 -17 -9 -30 -23 -30 -30 0 -21 -79 -50
-139 -52 -33 -1 -56 -7 -59 -14 -2 -7 -22 -12 -49 -12 -35 0 -51 -5 -67 -23
-20 -21 -31 -24 -123 -26 -60 -1 -104 2 -107 8 -4 6 -12 8 -19 5 -7 -2 -22 5
-34 16 -15 13 -36 20 -62 20 -25 0 -41 5 -45 15 -4 11 -21 15 -64 15 -38 0
-64 5 -71 14 -8 9 -31 13 -71 12 -42 -1 -60 3 -60 12 0 6 -7 12 -15 12 -8 0
-15 7 -15 15 0 10 -11 15 -35 15 -31 0 -35 3 -35 25 0 21 -5 25 -29 25 -23 0
-30 5 -33 23 -3 20 -9 22 -65 25 -59 3 -64 1 -75 -23 -7 -16 -19 -25 -35 -25
-18 0 -23 -5 -23 -25 0 -20 -5 -25 -25 -25 -24 0 -25 -3 -25 -55 0 -52 -1 -55
-25 -55 -20 0 -25 -5 -25 -25 0 -14 -5 -25 -10 -25 -25 0 -52 -39 -48 -69 3
-22 0 -31 -14 -34 -22 -6 -24 -35 -3 -43 8 -4 15 -17 15 -30 0 -20 5 -24 29
-24 23 0 30 -5 33 -22 2 -15 11 -24 24 -26 15 -2 24 -12 28 -33 5 -27 9 -29
50 -29 39 0 45 -3 48 -22 3 -20 10 -23 51 -26 42 -3 47 -5 47 -28 0 -23 2 -24
79 -24 44 0 83 -4 86 -10 3 -5 25 -10 48 -10 23 0 51 -7 61 -15 11 -8 33 -15
48 -15 18 0 38 -10 52 -25 l22 -24 337 -1 c311 0 337 1 346 17 6 10 11 14 11
10 0 -5 10 -1 22 7 12 9 38 16 58 16 19 0 48 7 64 15 15 8 35 15 42 15 8 0 14
5 14 10 0 6 32 10 75 10 73 0 75 1 75 25 0 22 4 25 38 25 31 0 41 5 52 25 8
15 22 25 36 25 17 0 23 7 26 28 2 21 9 28 31 30 21 3 27 9 27 28 0 19 5 24 25
24 20 0 25 5 25 25 0 20 5 25 25 25 20 0 25 5 25 25 0 20 5 25 25 25 20 0 25
5 25 25 0 15 6 25 15 25 21 0 35 33 35 84 0 34 4 46 15 46 11 0 15 11 15 40 0
22 5 40 11 40 7 0 9 48 6 148 -5 166 -13 223 -33 235 -9 5 -14 25 -14 51 0 31
-5 46 -16 50 -8 3 -12 10 -9 16 3 5 -1 10 -9 10 -10 0 -16 9 -16 25 0 16 -6
25 -15 25 -8 0 -15 7 -15 15 0 8 -4 15 -10 15 -5 0 -10 9 -10 19 0 32 -11 51
-30 51 -13 0 -20 9 -22 27 -3 23 -10 29 -55 41 -31 9 -53 20 -53 28 0 10 -14
14 -49 14 -44 0 -49 3 -55 25 -5 20 -13 25 -37 25 -30 0 -59 19 -59 39 0 7
-33 11 -90 11 -53 0 -90 4 -90 10 0 6 -11 10 -24 10 -13 0 -26 6 -29 13 -4 10
-32 14 -99 16 -130 4 -159 7 -193 19 -65 23 -114 32 -200 37 -49 2 -91 9 -93
15 -2 5 -11 10 -21 10 -9 0 -21 4 -27 9 -5 5 -20 11 -34 13 -14 2 -24 9 -23
16 2 6 -2 12 -8 12 -16 0 -69 57 -69 75 0 8 -7 18 -15 21 -8 4 -15 17 -15 30
0 15 6 24 15 24 9 0 15 9 15 25 0 14 5 25 10 25 6 0 10 10 10 23 0 22 31 57
51 57 5 0 8 4 5 8 -8 13 32 42 58 42 13 0 29 7 36 15 7 8 25 15 41 15 15 0 30
4 33 9 3 4 43 12 88 16 128 11 162 12 179 4 9 -5 46 -9 83 -10 37 -1 69 -6 72
-10 3 -5 16 -9 30 -9 13 0 24 -5 24 -11 0 -6 8 -8 19 -4 11 3 22 1 26 -5 3 -5
28 -10 55 -10 48 0 100 -16 100 -31 0 -4 11 -10 25 -13 14 -4 25 -11 25 -16 0
-6 5 -10 11 -10 6 0 17 -7 25 -15 9 -8 31 -15 50 -15 22 0 37 -6 40 -15 4 -8
12 -15 20 -15 8 0 14 -4 14 -10 0 -5 11 -10 24 -10 13 0 26 -7 30 -15 8 -22
46 -19 46 4 0 10 7 24 15 31 8 7 15 28 15 46 0 19 5 34 10 34 6 0 10 7 10 15
0 8 7 15 15 15 8 0 15 8 15 18 1 21 23 52 39 52 6 0 11 17 11 40 0 22 5 40 10
40 6 0 10 9 10 19 0 10 7 21 15 25 8 3 15 16 15 29 0 13 7 32 15 43 21 28 19
76 -5 97 -11 9 -25 17 -30 17 -6 0 -10 5 -10 11 0 21 -29 39 -64 39 -25 0 -36
4 -36 15 0 11 -11 15 -40 15 -22 0 -40 5 -40 10 0 6 -11 10 -25 10 -14 0 -25
4 -25 9 0 5 -13 14 -30 20 -16 5 -30 15 -30 20 0 6 -20 11 -45 11 -25 0 -45 5
-45 10 0 6 -18 10 -39 10 -23 0 -41 5 -43 13 -4 9 -102 13 -435 15 -365 2
-431 1 -436 -11z"/>
<path d="M23785 6821 c-14 -12 -98 -32 -163 -38 -33 -3 -55 -10 -59 -19 -3 -8
-16 -14 -29 -14 -15 0 -24 -6 -24 -15 0 -9 -9 -15 -25 -15 -14 0 -25 -4 -25
-10 0 -5 -11 -10 -25 -10 -16 0 -25 -6 -25 -15 0 -9 -9 -15 -25 -15 -14 0 -25
-4 -25 -10 0 -5 -5 -10 -11 -10 -6 0 -20 -11 -31 -25 -11 -14 -28 -25 -39 -25
-10 0 -19 -7 -19 -15 0 -10 -10 -15 -30 -15 -25 0 -30 -4 -30 -24 0 -18 -6
-25 -22 -28 -15 -2 -24 -11 -26 -25 -3 -17 -10 -23 -28 -23 -18 0 -24 -5 -24
-21 0 -12 -11 -30 -25 -41 -14 -11 -25 -25 -25 -32 0 -9 -9 -12 -25 -8 -23 4
-25 2 -25 -37 0 -30 -4 -41 -15 -41 -8 0 -15 -7 -15 -15 0 -8 -4 -15 -10 -15
-5 0 -10 -11 -10 -25 0 -14 -5 -25 -11 -25 -24 0 -39 -30 -39 -79 0 -28 -4
-51 -10 -51 -5 0 -12 -11 -16 -25 -3 -14 -12 -25 -20 -25 -10 0 -14 -12 -14
-40 0 -22 -4 -40 -10 -40 -5 0 -10 -11 -10 -25 0 -14 -7 -28 -16 -32 -13 -5
-15 -46 -13 -346 1 -317 3 -342 20 -360 14 -16 17 -29 13 -59 -5 -28 -3 -39 8
-43 10 -4 13 -15 10 -31 -3 -17 0 -24 12 -24 9 0 16 -8 16 -20 0 -11 7 -23 15
-26 10 -4 15 -20 15 -49 0 -23 7 -58 15 -78 11 -28 19 -34 35 -30 13 4 20 0
20 -10 0 -8 7 -17 15 -21 9 -3 15 -18 15 -40 0 -28 4 -35 23 -38 16 -2 23 -11
25 -32 2 -15 14 -39 28 -51 13 -12 24 -27 24 -34 0 -6 6 -11 13 -11 7 0 21
-11 31 -25 10 -14 27 -25 37 -25 11 0 19 -4 19 -10 0 -5 14 -10 30 -10 25 0
30 -4 30 -25 0 -20 5 -25 25 -25 16 0 25 -6 25 -15 0 -8 5 -15 10 -15 6 0 10
-7 10 -15 0 -11 11 -15 40 -15 36 0 40 -2 40 -25 0 -22 4 -25 40 -25 22 0 40
-4 40 -10 0 -5 6 -10 14 -10 7 0 19 -7 26 -15 9 -10 32 -15 76 -15 57 0 63 -2
66 -22 3 -20 10 -23 50 -26 39 -3 47 -6 50 -25 l3 -22 339 -3 c187 -2 342 1
345 6 12 17 56 42 74 42 10 0 28 11 41 25 20 22 32 25 90 25 50 0 68 4 72 15
4 8 12 15 20 15 8 0 14 5 14 10 0 6 18 10 40 10 36 0 40 3 40 25 0 23 3 25 50
25 48 0 50 1 50 29 0 20 6 30 20 34 11 3 24 16 29 30 5 14 15 28 20 32 16 9
13 39 -6 76 -22 41 -38 59 -52 59 -6 0 -11 11 -11 25 0 20 -5 25 -25 25 -22 0
-25 4 -25 40 0 29 -4 40 -15 40 -8 0 -15 7 -15 16 0 8 -4 12 -10 9 -6 -4 -10
15 -10 49 0 38 -4 56 -12 56 -7 0 -21 14 -31 31 -15 28 -21 31 -48 25 -18 -3
-40 -6 -50 -6 -11 0 -19 -5 -19 -11 0 -20 -33 -38 -67 -39 -23 0 -33 -5 -33
-15 0 -8 -5 -15 -11 -15 -14 0 -39 -25 -39 -39 0 -6 -11 -11 -25 -11 -14 0
-25 -4 -25 -10 0 -5 -17 -10 -38 -10 -21 0 -43 -5 -48 -10 -6 -6 -35 -13 -65
-17 -30 -3 -58 -12 -62 -19 -12 -20 -290 -20 -306 0 -6 7 -30 16 -53 19 -22 3
-44 11 -48 17 -5 8 -25 11 -53 9 -43 -4 -46 -2 -51 23 -4 20 -12 28 -26 28
-11 0 -20 5 -20 10 0 6 -7 10 -15 10 -8 0 -15 7 -15 15 0 11 -11 15 -40 15
-36 0 -40 3 -40 25 0 14 -4 25 -9 25 -5 0 -12 9 -16 19 -3 11 -15 23 -26 26
-10 4 -19 13 -19 21 0 8 -7 14 -15 14 -10 0 -15 11 -15 35 0 31 -3 35 -25 35
-24 0 -25 3 -25 55 0 52 -1 55 -25 55 l-25 0 0 274 0 274 25 16 c17 11 25 26
25 46 0 17 5 30 11 30 24 0 39 30 39 78 0 42 3 51 21 55 11 3 23 14 26 25 3
12 16 22 33 26 22 4 27 10 23 24 -4 15 2 21 26 25 22 5 31 12 31 27 0 15 7 20
25 20 15 0 25 6 25 14 0 14 49 36 81 36 11 0 19 7 19 15 0 9 9 15 25 15 14 0
25 5 25 10 0 6 23 10 50 10 36 0 50 4 50 14 0 13 28 19 163 33 38 3 63 1 70
-6 6 -6 21 -11 33 -11 13 0 25 -4 28 -9 3 -5 15 -7 26 -4 11 3 20 0 20 -6 0
-6 11 -11 25 -11 39 0 105 -23 105 -37 0 -8 14 -13 35 -13 19 0 35 -4 35 -10
0 -5 11 -10 25 -10 16 0 25 -6 25 -15 0 -11 11 -15 39 -15 33 0 40 -4 43 -22
2 -19 10 -24 41 -26 23 -2 37 -8 37 -17 0 -7 16 -19 36 -25 31 -11 37 -10 49
7 8 10 15 25 15 34 0 9 7 19 15 23 10 4 15 20 15 51 0 45 16 75 39 75 6 0 11
11 11 25 0 14 5 25 10 25 6 0 10 6 10 14 0 8 7 16 15 20 9 3 15 18 15 38 0 25
6 36 23 43 13 6 23 21 25 38 2 15 9 27 18 27 10 0 14 12 14 40 0 29 -4 40 -15
40 -8 0 -15 5 -15 11 0 19 -28 39 -54 39 -14 0 -26 5 -26 11 0 21 -35 38 -77
39 -31 0 -43 4 -43 15 0 8 -7 15 -15 15 -8 0 -15 5 -15 10 0 6 -16 10 -36 10
-30 0 -37 4 -45 30 -10 27 -15 30 -54 30 -24 0 -47 5 -50 10 -3 6 -21 10 -40
10 -19 0 -35 6 -38 14 -5 12 -63 15 -359 16 -205 0 -357 -3 -363 -9z"/>
<path d="M26128 6805 c-28 -19 -50 -25 -92 -25 -44 0 -56 -3 -56 -16 0 -23
-25 -44 -53 -44 -38 0 -57 -10 -57 -31 0 -13 -7 -19 -21 -19 -11 0 -35 -15
-52 -33 -44 -46 -77 -67 -104 -67 -18 0 -23 -6 -23 -25 0 -20 -5 -25 -25 -25
-20 0 -25 -5 -25 -25 0 -20 -5 -25 -25 -25 -20 0 -25 -5 -25 -25 0 -16 -6 -25
-15 -25 -8 0 -15 -7 -15 -15 0 -8 -7 -15 -15 -15 -8 0 -15 -3 -15 -8 0 -4 -10
-12 -22 -17 -19 -8 -24 -19 -26 -57 -3 -43 -6 -48 -27 -48 -21 0 -24 -5 -27
-47 -3 -41 -6 -48 -25 -51 -20 -3 -23 -10 -23 -43 0 -26 -5 -42 -15 -45 -8 -4
-15 -15 -15 -25 0 -10 -4 -19 -10 -19 -5 0 -10 -18 -10 -40 0 -27 -5 -43 -15
-46 -8 -4 -15 -14 -15 -24 0 -11 -4 -22 -10 -25 -6 -4 -10 -132 -10 -353 1
-353 4 -382 39 -382 6 0 11 -19 11 -47 1 -48 17 -83 39 -83 7 0 11 -26 11 -75
0 -60 3 -75 15 -75 8 0 15 -6 15 -13 0 -23 25 -67 38 -67 6 0 12 -7 12 -15 0
-8 5 -15 10 -15 6 0 10 -11 10 -24 0 -15 7 -26 20 -29 11 -3 23 -13 27 -24 7
-19 16 -32 46 -64 9 -10 17 -22 17 -25 0 -9 28 -34 38 -34 5 0 12 -9 15 -21 3
-11 15 -23 26 -26 12 -3 21 -12 21 -19 0 -8 10 -14 25 -14 14 0 25 -4 25 -10
0 -5 11 -10 25 -10 21 0 25 -5 25 -29 0 -28 3 -30 43 -33 32 -2 44 -8 52 -25
5 -12 22 -24 37 -27 19 -4 28 -12 28 -25 0 -17 9 -20 68 -24 92 -7 132 -17
132 -33 0 -8 10 -14 25 -14 16 0 25 -6 25 -15 0 -9 9 -15 25 -15 14 0 25 -5
25 -10 0 -12 485 -8 538 5 17 4 32 14 32 21 0 8 10 14 24 14 13 0 29 6 35 14
13 16 56 25 149 33 42 3 65 10 69 19 3 8 11 14 17 14 7 0 18 16 25 35 7 19 19
35 27 35 9 0 14 10 14 29 0 25 4 29 33 33 43 5 67 -1 67 -15 0 -7 7 -25 15
-40 13 -25 13 -33 -2 -70 -9 -23 -22 -49 -30 -58 -7 -8 -13 -18 -13 -21 0 -3
133 -5 295 -5 l295 0 2 1201 c2 661 2 1220 0 1244 -3 38 -6 43 -33 49 -16 3
-32 10 -35 14 -3 5 -103 9 -223 9 l-218 0 -13 -46 c-7 -25 -18 -51 -24 -58 -6
-6 -15 -20 -21 -30 -5 -9 -22 -25 -37 -33 -23 -14 -28 -15 -40 -2 -15 17 -35
47 -45 69 -12 26 -31 40 -53 40 -11 0 -23 6 -26 14 -3 8 -16 17 -30 20 -13 4
-24 11 -24 16 0 6 -24 10 -52 10 -38 0 -65 7 -97 25 l-43 25 -322 0 -321 0
-37 -25z m547 -509 c21 -8 41 -19 43 -25 2 -6 26 -11 53 -11 27 0 49 -4 49
-10 0 -5 6 -10 14 -10 7 0 19 -6 26 -14 6 -8 26 -16 43 -18 22 -2 35 -10 42
-25 6 -14 18 -23 32 -23 14 0 23 -6 23 -15 0 -8 5 -15 11 -15 14 0 39 -25 39
-39 0 -6 7 -11 15 -11 8 0 15 -4 15 -10 0 -5 7 -10 15 -10 8 0 15 -8 15 -18 0
-10 11 -28 25 -40 14 -12 25 -29 25 -37 0 -8 5 -15 10 -15 6 0 10 -9 10 -20 0
-11 7 -23 14 -26 9 -3 20 -31 26 -62 6 -32 15 -66 20 -77 5 -11 12 -40 15 -65
3 -25 10 -72 15 -105 13 -79 13 -232 0 -240 -5 -3 -10 -26 -10 -50 0 -29 -5
-45 -15 -49 -8 -3 -15 -14 -15 -25 0 -27 -31 -92 -52 -112 -10 -9 -18 -26 -18
-38 0 -12 -6 -21 -15 -21 -8 0 -15 -7 -15 -15 0 -8 -4 -15 -10 -15 -5 0 -10
-11 -10 -25 0 -16 -6 -25 -15 -25 -8 0 -15 -7 -15 -15 0 -8 -7 -15 -15 -15 -8
0 -15 -4 -15 -10 0 -5 -16 -10 -36 -10 -36 0 -113 -44 -114 -65 0 -15 -30 -31
-70 -39 -40 -8 -101 -36 -112 -51 -12 -16 -245 -8 -271 10 -12 8 -36 15 -53
15 -19 0 -34 6 -38 15 -4 11 -21 15 -66 15 -57 0 -60 1 -60 25 0 19 -5 25 -21
25 -22 0 -49 22 -49 39 0 6 -18 11 -40 11 -36 0 -40 3 -40 25 0 14 -5 25 -11
25 -14 0 -39 25 -39 39 0 6 -6 11 -13 11 -14 0 -37 54 -37 86 0 10 -11 31 -25
46 -14 15 -25 36 -25 48 0 11 -7 23 -15 26 -8 4 -15 17 -15 30 0 15 -6 24 -15
24 -13 0 -15 34 -15 250 0 138 4 250 8 250 17 0 52 42 52 61 0 22 22 49 39 49
7 0 11 22 11 54 0 46 3 54 21 59 11 3 23 15 26 26 3 11 15 21 27 23 13 2 22
11 24 25 2 13 13 24 28 27 15 4 24 14 24 26 0 15 7 20 25 20 14 0 25 6 25 13
0 13 53 37 83 37 9 0 17 4 17 10 0 16 69 40 116 40 32 0 44 4 44 15 0 10 10
15 28 15 15 0 33 4 40 9 22 14 124 12 167 -3z"/>
<path d="M29430 6815 c-7 -8 -19 -15 -26 -15 -8 0 -14 -4 -14 -10 0 -5 -21
-10 -47 -10 -41 -1 -52 -5 -73 -30 -13 -17 -32 -30 -42 -30 -10 0 -18 -4 -18
-10 0 -5 -9 -10 -21 -10 -12 0 -35 -12 -52 -26 -45 -38 -85 -29 -142 33 -24
26 -44 54 -45 61 0 9 -49 12 -212 12 l-213 0 -17 -38 c-21 -45 -19 91 -19
-1293 1 -1091 2 -1157 18 -1171 25 -22 573 -23 573 -2 0 8 7 14 15 14 13 0 15
97 15 810 0 812 3 900 35 926 8 6 15 30 17 54 1 31 7 44 19 47 10 3 20 11 23
19 3 8 17 14 31 14 16 0 25 6 25 15 0 8 9 15 19 15 11 0 23 5 26 10 3 6 17 10
31 10 13 0 24 4 24 10 0 18 45 33 130 42 99 11 85 11 178 2 40 -4 75 -11 78
-15 3 -5 25 -9 50 -9 30 0 46 -5 50 -15 4 -8 17 -15 30 -15 15 0 24 6 24 15 0
8 7 15 15 15 8 0 15 9 15 20 0 10 6 23 14 27 22 13 36 49 36 93 0 27 5 43 15
46 8 4 15 15 15 25 0 10 5 19 10 19 6 0 10 13 10 30 0 16 6 33 13 37 24 16 37
54 37 112 0 38 4 61 13 64 10 4 10 7 0 18 -7 7 -13 19 -13 27 0 18 -29 41 -52
42 -10 0 -18 7 -18 14 0 23 -561 24 -580 1z"/>
<path d="M33598 4703 c-28 -4 -128 -87 -128 -105 0 -6 -10 -25 -23 -42 -32
-43 -57 -99 -57 -129 0 -14 18 -59 40 -101 22 -41 40 -86 40 -99 0 -61 84
-110 186 -109 130 1 199 44 255 158 31 62 32 68 26 153 -6 97 -19 130 -75 200
-58 71 -137 93 -264 74z"/>
</g>
</svg>
