<?xml version="1.0" standalone="no"?>
<!DOCTYPE svg PUBLIC "-//W3C//DTD SVG 20010904//EN"
 "http://www.w3.org/TR/2001/REC-SVG-20010904/DTD/svg10.dtd">
<svg version="1.0" xmlns="http://www.w3.org/2000/svg"
 width="3840.000000pt" height="1243.000000pt" viewBox="0 0 3840.000000 1243.000000"
 preserveAspectRatio="xMidYMid meet">
<metadata>
Created by potrace 1.16, written by Peter Selinger 2001-2019
</metadata>
<g transform="translate(0.000000,1243.000000) scale(0.100000,-0.100000)"
fill="#000000" stroke="none">
<path d="M24630 12319 c-314 -20 -605 -50 -820 -85 -1084 -175 -1982 -558
-2685 -1143 -127 -105 -406 -387 -501 -506 -182 -226 -295 -398 -413 -629
-189 -368 -303 -746 -357 -1186 -23 -186 -24 -592 -1 -751 110 -781 539 -1444
1328 -2051 367 -282 729 -497 1434 -851 445 -224 569 -292 805 -446 344 -224
542 -424 639 -647 52 -120 65 -193 64 -349 0 -122 -4 -152 -27 -230 -52 -173
-129 -297 -264 -427 -267 -257 -703 -427 -1257 -490 -161 -18 -702 -15 -955 5
-527 43 -950 128 -1430 287 -296 97 -557 204 -963 394 -54 25 -100 46 -102 46
-6 0 -21 -60 -44 -175 -11 -55 -29 -143 -41 -195 -11 -52 -43 -198 -70 -325
-73 -344 -251 -1176 -331 -1544 -38 -178 -71 -333 -72 -344 -2 -17 18 -28 133
-74 183 -73 365 -135 545 -188 646 -189 1501 -329 2229 -366 257 -13 1110 -6
1286 11 1521 144 2695 620 3508 1423 612 604 965 1344 1056 2211 21 194 21
616 1 781 -69 572 -281 1050 -666 1500 -115 135 -367 377 -514 494 -367 292
-726 517 -1389 868 -182 97 -349 186 -371 198 -22 12 -94 51 -160 85 -135 70
-160 85 -330 183 -654 381 -912 710 -856 1094 47 331 306 607 724 773 622 247
1607 235 2622 -30 263 -69 647 -202 873 -304 56 -25 106 -46 110 -46 4 0 31
111 60 248 29 136 70 328 92 427 22 99 60 277 85 395 25 118 59 276 75 350 16
74 43 200 60 280 53 251 101 473 134 630 14 63 28 131 31 150 l6 35 -263 87
c-663 219 -1179 330 -1868 403 -297 31 -860 43 -1150 24z"/>
<path d="M187 12104 c-4 -4 -7 -16 -7 -27 0 -10 -14 -82 -31 -159 -17 -76 -29
-142 -26 -145 3 -3 88 -24 189 -48 1082 -254 1975 -546 2631 -858 342 -163
537 -299 658 -459 119 -158 195 -346 295 -733 30 -115 72 -277 93 -360 22 -82
60 -231 86 -330 25 -99 59 -229 75 -290 16 -60 54 -209 85 -330 31 -121 65
-251 75 -290 10 -38 44 -169 75 -290 31 -121 67 -260 80 -310 13 -49 49 -189
80 -310 32 -121 76 -294 100 -385 23 -91 75 -291 115 -445 39 -154 87 -338
106 -410 19 -71 70 -272 115 -445 44 -173 91 -358 105 -410 14 -52 41 -156 60
-230 32 -121 66 -255 203 -780 22 -85 67 -258 100 -385 32 -126 82 -320 111
-430 28 -110 101 -391 161 -625 60 -234 136 -528 169 -655 69 -265 170 -655
366 -1410 31 -121 63 -245 71 -276 l15 -56 93 -7 c126 -9 3125 -6 3148 3 12 4
37 50 66 121 27 63 101 241 166 395 64 154 168 402 230 550 62 149 237 567
390 930 152 363 335 797 405 965 70 168 245 586 390 930 144 344 314 749 377
900 64 151 163 388 220 525 58 138 129 306 158 375 29 69 116 278 195 465 78
187 165 394 192 460 27 66 98 235 158 375 126 299 350 833 495 1180 158 379
281 671 350 835 35 83 297 708 583 1390 286 682 540 1287 565 1345 24 58 48
115 51 128 l7 22 -1613 0 -1614 0 -57 -142 c-31 -79 -126 -321 -212 -538 -86
-217 -186 -469 -222 -560 -36 -91 -111 -282 -168 -425 -57 -143 -142 -357
-188 -475 -111 -280 -408 -1032 -582 -1470 -75 -190 -186 -471 -247 -625 -215
-543 -441 -1112 -523 -1320 -84 -211 -162 -408 -457 -1155 -88 -223 -206 -522
-263 -665 -57 -143 -142 -359 -190 -480 -89 -226 -92 -232 -100 -224 -2 3 -36
176 -75 384 -39 209 -89 475 -111 590 -54 287 -80 421 -144 765 -76 408 -103
549 -125 665 -26 130 -120 633 -160 850 -17 94 -47 249 -65 345 -19 96 -66
346 -105 555 -39 209 -96 511 -126 670 -30 160 -66 351 -80 425 -13 74 -29
155 -34 180 -5 25 -41 216 -80 425 -206 1100 -210 1115 -261 1262 -108 306
-307 561 -574 737 -139 91 -271 148 -455 194 l-105 27 -2726 2 c-1499 2 -2728
0 -2732 -3z"/>
<path d="M15910 12103 c0 -7 -129 -616 -175 -828 -29 -132 -413 -1925 -526
-2455 -44 -206 -94 -438 -111 -515 -16 -77 -34 -160 -39 -184 -18 -88 -200
-940 -224 -1046 -13 -60 -47 -218 -75 -350 -28 -132 -64 -301 -80 -375 -29
-132 -79 -366 -125 -585 -13 -60 -67 -312 -120 -560 -102 -473 -105 -486 -210
-980 -36 -170 -86 -402 -110 -515 -25 -113 -160 -743 -300 -1400 -140 -657
-269 -1256 -285 -1330 -97 -447 -160 -753 -155 -759 8 -8 3030 -12 3050 -5 21
8 12 -30 165 694 38 179 81 379 95 445 34 157 92 423 154 715 46 217 114 535
161 755 11 50 31 144 45 210 14 66 32 149 40 185 13 56 107 496 316 1480 28
129 54 253 59 275 15 67 66 305 135 630 36 171 84 391 105 490 22 99 62 288
90 420 28 132 89 416 135 630 46 215 102 478 125 585 22 107 49 233 60 280 19
82 84 387 155 725 19 88 46 214 60 280 14 66 43 203 65 305 22 102 53 246 69
322 17 75 44 201 60 280 17 78 42 197 56 263 14 66 34 161 45 210 10 50 64
302 120 560 94 438 149 694 169 790 5 22 23 107 41 189 17 83 32 155 33 160 1
8 -464 12 -1535 14 -846 1 -1538 -1 -1538 -5z"/>
<path d="M32955 12099 c-241 -25 -481 -119 -675 -263 -160 -120 -330 -319
-416 -488 -25 -50 -121 -275 -304 -713 -62 -148 -154 -369 -205 -490 -51 -121
-145 -344 -208 -495 -64 -151 -182 -432 -262 -625 -81 -192 -187 -444 -235
-560 -48 -115 -124 -298 -170 -405 -107 -257 -200 -477 -360 -860 -73 -173
-178 -425 -235 -560 -143 -340 -263 -627 -400 -955 -65 -154 -159 -379 -210
-500 -51 -121 -113 -269 -138 -330 -25 -60 -78 -186 -117 -280 -40 -93 -113
-267 -162 -385 -95 -226 -255 -609 -365 -870 -36 -85 -87 -207 -113 -270 -27
-63 -103 -245 -171 -405 -67 -159 -132 -315 -144 -345 -23 -57 -80 -193 -240
-575 -51 -121 -104 -247 -118 -280 -33 -81 -178 -427 -352 -840 -78 -187 -146
-350 -150 -362 -6 -23 -6 -23 102 -24 740 -4 3107 1 3113 8 4 4 32 78 63 163
60 166 335 929 366 1014 11 28 54 148 96 266 43 118 85 238 95 265 l18 50
1980 3 1980 2 7 -27 c7 -29 31 -144 130 -618 31 -148 71 -342 90 -430 19 -88
46 -216 60 -285 14 -69 37 -179 51 -245 14 -66 27 -130 30 -142 l4 -23 233 0
c127 0 765 0 1417 -1 l1185 0 -3 38 c-2 21 -41 218 -87 438 -46 220 -107 510
-135 645 -28 135 -93 448 -145 695 -52 248 -115 549 -140 670 -111 534 -382
1832 -456 2180 -16 77 -81 388 -144 690 -120 579 -130 626 -194 930 -36 168
-99 469 -281 1345 -28 135 -60 286 -70 335 -11 50 -67 320 -126 600 -58 281
-116 560 -129 620 -14 61 -47 220 -75 355 -89 429 -117 564 -230 1105 -153
728 -179 849 -195 930 -7 39 -25 124 -39 190 -14 65 -26 120 -26 122 0 7
-2723 -1 -2795 -8z m634 -3256 c5 -21 15 -65 21 -98 13 -68 151 -734 180 -870
20 -91 122 -579 210 -1005 27 -129 58 -278 69 -330 68 -326 117 -558 166 -794
31 -149 60 -288 65 -310 5 -23 37 -174 70 -336 56 -272 123 -594 135 -647 l5
-23 -1280 0 c-704 0 -1280 2 -1280 5 0 2 4 14 10 27 5 13 75 205 155 428 225
624 364 1006 401 1105 18 50 161 443 318 875 750 2070 728 2010 738 2010 4 0
12 -17 17 -37z"/>
</g>
</svg>
