<svg width="153" height="144" viewBox="0 0 153 144" fill="none" xmlns="http://www.w3.org/2000/svg">
<path fill-rule="evenodd" clip-rule="evenodd" d="M98.6905 42.7832C98.6905 65.6666 82.7908 82.6358 60.3438 82.6358C37.8958 82.6358 21.9961 65.6666 21.9961 42.7832H36.9604C36.9604 60.2179 47.8724 69.5579 60.3438 69.5579C72.8142 69.5579 83.7262 60.2179 83.7262 42.7832H98.6905Z" fill="#010D3C"/>
<path d="M11.2208 93.5681C5.26984 93.5681 0.445591 88.7438 0.445591 82.7928C0.445591 76.8418 5.26984 72.0176 11.2208 72.0176C17.1718 72.0176 21.9961 76.8418 21.9961 82.7928C21.9961 88.7438 17.1718 93.5681 11.2208 93.5681Z" fill="#010D3C"/>
<path d="M98.6462 144C68.8734 144 44.7378 119.888 44.7378 90.1436C44.7378 60.3995 68.8734 36.2871 98.6462 36.2871C128.419 36.2871 152.555 60.3995 152.555 90.1436C152.555 119.888 128.419 144 98.6462 144Z" fill="#CCF8E9"/>
<path fill-rule="evenodd" clip-rule="evenodd" d="M84.1977 19.2689C81.1048 25.0285 81.4723 39.6379 85.4697 40.6673C87.0639 41.0778 90.4599 40.0722 93.9163 37.9909L91.7467 53.3244H104.557L100.147 32.7894C102.606 29.9053 104.271 26.3709 103.993 22.4105C103.191 10.9991 87.2907 13.5094 84.1977 19.2689Z" fill="#B28B67"/>
<path fill-rule="evenodd" clip-rule="evenodd" d="M89.2544 12.9949C91.0048 12.4616 93.5458 12.2808 94.6147 12.4031C94.0066 10.9477 93.7654 9.3262 93.9621 7.74738C94.1533 6.21326 94.8394 4.907 95.474 3.5382C95.7665 2.90727 96.098 2.27978 96.5923 1.79719C97.0958 1.30554 97.7331 0.981003 98.4014 0.826172C99.0853 0.667688 99.8005 0.680884 100.485 0.824711C100.788 0.888328 101.06 1.02674 101.358 1.10368C101.662 1.18251 101.809 0.992222 102.03 0.800983C102.563 0.340188 103.343 0.112714 104.017 0.031301C104.772 -0.0599983 105.556 0.0538679 106.277 0.302018C106.978 0.543591 107.652 0.935869 108.159 1.50735C108.385 1.76173 108.59 2.05128 108.723 2.37095C108.778 2.50214 108.787 2.57986 108.918 2.62791C109.039 2.6724 109.181 2.67369 109.306 2.71603C110.515 3.12525 111.549 4.05879 112.112 5.25741C112.441 5.95668 112.596 7.18786 112.554 8.5678C112.511 9.94774 111.264 13.5484 110.097 14.8618C109.056 16.034 107.526 16.8076 106.048 17.1463C107.029 18.2658 107.682 19.6648 108.164 21.0876C108.688 22.6331 109.013 24.2389 109.133 25.8751C109.246 27.4297 109.257 29.0737 108.892 30.5951C108.551 32.0179 107.821 33.185 106.603 33.9255C106.045 34.2647 105.444 34.5195 104.84 34.7524C104.245 34.9819 103.648 35.205 103.025 35.3338C101.845 35.5774 100.485 35.5356 99.5763 34.5973C99.2487 34.2591 98.8885 33.834 98.6495 33.4208C98.5635 33.2722 98.5117 33.175 98.6161 33.0298C98.7412 32.8558 98.9435 32.7225 99.1042 32.5865C100.02 31.8105 100.588 30.7747 100.73 29.5437C100.876 28.2947 100.54 26.6826 99.3242 26.1375C97.8238 25.4646 96.1714 26.2369 94.8378 26.9569C94.271 24.9585 93.1073 23.1591 91.2827 22.2424C89.2642 21.2283 86.948 21.1096 84.8736 20.2394C84.3331 20.0127 83.7825 19.7553 83.3845 19.2933C83.2182 19.1002 83.0231 18.8497 82.9567 18.5944C82.8695 18.2589 83.0861 17.9777 83.2533 17.7162C84.1403 16.3295 87.504 13.5281 89.2544 12.9949Z" fill="#010D3C"/>
<mask id="mask0_1190_12291" style="mask-type:alpha" maskUnits="userSpaceOnUse" x="44" y="36" width="109" height="108">
<path d="M98.6462 144C68.8734 144 44.7378 119.888 44.7378 90.1436C44.7378 60.3995 68.8734 36.2871 98.6462 36.2871C128.419 36.2871 152.555 60.3995 152.555 90.1436C152.555 119.888 128.419 144 98.6462 144Z" fill="#7A3A0F"/>
</mask>
<g mask="url(#mask0_1190_12291)">
<path fill-rule="evenodd" clip-rule="evenodd" d="M114.899 97.5826C113.937 110.705 51.937 149.34 51.5753 150.424C51.4145 150.906 57.8472 166.135 70.8735 196.112L65.4538 198.216C45.4737 166.468 35.9968 148.903 37.0231 145.52C38.4924 140.677 54.5273 124.744 85.1279 97.7222L114.899 97.5826Z" fill="#B28B67"/>
<path fill-rule="evenodd" clip-rule="evenodd" d="M69.4444 189.341L60.5959 192.559C41.9374 171.527 34.6238 154.173 35.9574 145.332C36.8464 139.437 52.826 123.531 83.8963 97.6132L115.531 97.6132C114.452 128.003 56.9855 150.538 56.2169 151.833C55.4482 153.128 63.0125 165.812 69.4444 189.341Z" fill="#010D3C"/>
<path fill-rule="evenodd" clip-rule="evenodd" d="M107.765 97.582L135.384 163.824L162.529 219.826H156.125L86.0552 97.582H107.765Z" fill="#997659"/>
<path fill-rule="evenodd" clip-rule="evenodd" d="M160.076 208.192L145.845 210.858C134.842 194.697 88.7931 128.431 83.7442 97.582H115.425C132.286 119.882 149.588 191.763 160.076 208.192Z" fill="#414A6D"/>
<path fill-rule="evenodd" clip-rule="evenodd" d="M63.8072 88.8426L47.6951 102.489C43.1756 104.052 39.4352 105.866 36.474 107.93C35.7904 108.646 35.0023 110.054 38.0137 109.609C41.0252 109.165 44.2128 108.833 44.7028 109.836C45.1927 110.839 43.4469 112.2 44.3888 113.533C45.0168 114.422 47.5137 111.909 51.8796 105.995L68.2107 97.8524L63.8072 88.8426ZM136.766 82.9375C144.442 103.651 148.944 114.982 150.271 116.93C151.244 118.358 157.504 122.234 161.768 124.352C163.48 125.202 163.026 126.661 162.488 127.107C158.108 130.737 154.459 127.685 150.037 126.338C145.192 124.863 146.416 130.777 142.585 129.672C143.343 127.038 145.282 122.063 143.633 119.207C142.9 117.937 137.46 106.305 127.312 84.3091L136.766 82.9375Z" fill="#B28B67"/>
<path fill-rule="evenodd" clip-rule="evenodd" d="M97.2516 44.437L91.3938 42.5017C83.4476 62.3327 71.5968 81.5203 51.7965 97.7273L56.6929 106.167C74.0945 95.9257 90.5672 87.9705 97.2516 72.6038C99.495 67.4463 97.4346 50.6038 97.2516 44.437Z" fill="#D99D97"/>
<path fill-rule="evenodd" clip-rule="evenodd" d="M117.373 100.25C100.593 102.027 87.3851 102.027 77.7497 100.25C76.5559 100.029 76.3676 98.0326 76.9212 96.6775C85.5423 75.574 91.4541 57.16 91.4541 42.502C93.036 43.2987 95.8044 43.4181 99.7594 42.8602C110.388 57.9657 115.274 75.2976 117.373 100.25Z" fill="#010D3C"/>
<path fill-rule="evenodd" clip-rule="evenodd" d="M102.389 41.3164L102.404 41.5929L97.9748 41.593C96.9537 47.5925 93.7552 128.083 83.9471 155.739L83.6479 156.561H137.986C136.808 131.969 127.515 102.428 118.102 77.7083C126.426 85.3181 133.681 98.2123 139.867 116.391L150.045 113.781C142.477 81.2026 126.918 57.2574 103.368 41.9451L103.215 41.593L102.821 41.5929L102.389 41.3164Z" fill="#FFBAB3"/>
</g>
</svg>
